<svg id="Lager_1" data-name="Lager 1" xmlns="http://www.w3.org/2000/svg" viewBox="0 0 266.51 79.05"><defs><style>.cls-1{fill:#2ca3e8;}.cls-2{fill:#636463;}</style></defs><title>bontouch</title><path class="cls-1" d="M65.58,78.71c-.9-1.23,2.49-2.91,6.55-7.62a48.6,48.6,0,0,0,6.18-9.3,33.85,33.85,0,0,0,3.84-13.71c.26-6.33-1-12.12-5.33-15.16-5.64-4-16.73,4.1-23.84,9-1.72,1.19-7.14,5-12.18,4.38A9.52,9.52,0,0,1,32.25,38c-.78-7.63,8.84-21.5,5.66-26.94-1.2-2-4.75-2.15-9.13-.85A36.81,36.81,0,0,0,11.3,22.42C6.47,29,8.69,36.31,9.85,39.06,12.14,44.6,16,49.41,19.68,53.5c7.59,8.19,15,14,19.85,18.09s8.16,5.9,7.32,7.12-3.73-.88-9.41-4.11a122.42,122.42,0,0,1-22.5-16.43,56.84,56.84,0,0,1-12.23-16C1.12,39-3.18,28.29,4.11,17.58a39.33,39.33,0,0,1,9.14-9.51c3.55-2.64,18.5-12.43,29-5.82A12.17,12.17,0,0,1,47.3,9.86c2.14,9.69-4.27,19.38-5.41,25.35-.25,1.3.55,2.28,2.52,1.25,4.31-2.28,10.39-6.34,13.92-8.33,11.33-6.39,19-6.68,25.33-.09,1.35,1.29,6.69,8.38,5.11,20.71a39,39,0,0,1-5.9,15.66,40.16,40.16,0,0,1-8.17,9.28C69.45,78,66.25,79.61,65.58,78.71Z" transform="translate(0 0)"/><path class="cls-2" d="M99.56,24.54a1.19,1.19,0,0,1,1.35-1.35h1.27a1.18,1.18,0,0,1,1.31,1.35v8.38a12.17,12.17,0,0,1-.12,1.76h.08a7.5,7.5,0,0,1,6.75-3.8c5.48,0,9,4.41,9,10.79,0,6.63-4,10.88-9.37,10.88a7.26,7.26,0,0,1-6.62-3.92h-.09a5.23,5.23,0,0,1,.13,1.22v1c0,.73-.49,1.18-1.35,1.18h-1a1.2,1.2,0,0,1-1.35-1.35Zm9.66,24.58c3.31,0,6-2.66,6-7.36,0-4.5-2.41-7.41-5.85-7.41-3.11,0-6,2.21-6,7.36,0,3.81,1.92,7.41,5.81,7.41" transform="translate(0 0)"/><path class="cls-2" d="M132.59,30.88c6.18,0,11.17,4.54,11.17,10.79a11.15,11.15,0,1,1-11.17-10.79m0,18.24a7.15,7.15,0,0,0,7.12-7.45,7.12,7.12,0,1,0-14.23,0,7.18,7.18,0,0,0,7.11,7.45" transform="translate(0 0)"/><path class="cls-2" d="M146.4,32.71a1.21,1.21,0,0,1,1.35-1.34h1.15a1.19,1.19,0,0,1,1.35,1.34v1.85a6,6,0,0,1-.13,1.18h.08a8.59,8.59,0,0,1,7.86-4.86c4.86,0,7.07,2.65,7.07,7.93v11.9a1.19,1.19,0,0,1-1.35,1.35h-1.27a1.21,1.21,0,0,1-1.35-1.35v-11c0-2.9-.57-5.19-3.88-5.19-4,0-6.92,3.35-6.92,7.64v8.55A1.19,1.19,0,0,1,149,52.06h-1.26a1.21,1.21,0,0,1-1.35-1.35Z" transform="translate(0 0)"/><path class="cls-2" d="M169.81,34.8h-1.42a1.2,1.2,0,0,1-1.31-1.35v-.53a1.21,1.21,0,0,1,1.35-1.35h1.47V27a1.21,1.21,0,0,1,1.35-1.35h1.18A1.19,1.19,0,0,1,173.78,27v4.54h3.6a1.21,1.21,0,0,1,1.35,1.35v.53a1.2,1.2,0,0,1-1.3,1.35h-3.65V44c0,3.92,2.42,4.53,3.93,4.66,1.06.08,1.43.41,1.43,1.35v.86c0,.94-.53,1.35-1.63,1.35-4.09,0-7.7-2.38-7.7-7.61Z" transform="translate(0 0)"/><path class="cls-2" d="M191,30.88c6.18,0,11.17,4.54,11.17,10.79A11.15,11.15,0,1,1,191,30.88m0,18.24a7.15,7.15,0,0,0,7.12-7.45,7.12,7.12,0,1,0-14.23,0A7.18,7.18,0,0,0,191,49.12" transform="translate(0 0)"/><path class="cls-2" d="M204.83,32.71a1.19,1.19,0,0,1,1.35-1.34h1.27a1.18,1.18,0,0,1,1.31,1.34v11c0,2.86.61,5.15,3.88,5.15,4.26,0,6.75-3.72,6.75-7.81V32.71a1.19,1.19,0,0,1,1.35-1.34H222a1.21,1.21,0,0,1,1.35,1.34v18A1.21,1.21,0,0,1,222,52.06h-1.15a1.19,1.19,0,0,1-1.35-1.35V48.87a6,6,0,0,1,.13-1.18h-.09a8.61,8.61,0,0,1-7.68,4.86c-4.67,0-7-2.45-7-7.93Z" transform="translate(0 0)"/><path class="cls-2" d="M237.35,30.88a10.9,10.9,0,0,1,6.83,2.21,1.17,1.17,0,0,1,.24,1.83l-.4.62c-.5.73-1.07.78-1.85.33a7.87,7.87,0,0,0-4.62-1.56,7.05,7.05,0,0,0-7.2,7.36,7.16,7.16,0,0,0,7.28,7.45,8.76,8.76,0,0,0,5.28-1.88,1.14,1.14,0,0,1,1.84.37l.33.61a1.23,1.23,0,0,1-.37,1.8,11.57,11.57,0,0,1-7.36,2.53c-6.5,0-11-4.62-11-10.83a10.63,10.63,0,0,1,11-10.84" transform="translate(0 0)"/><path class="cls-2" d="M247.78,24.53a1.2,1.2,0,0,1,1.35-1.35h1.27a1.19,1.19,0,0,1,1.31,1.35V33.9a11,11,0,0,1-.13,1.72h.09a8.53,8.53,0,0,1,7.72-4.74c4.87,0,7.12,2.65,7.12,7.93v11.9a1.21,1.21,0,0,1-1.35,1.35h-1.27a1.19,1.19,0,0,1-1.35-1.35v-11c0-2.9-.61-5.19-3.92-5.19-4,0-6.91,3.27-6.91,7.73v8.46a1.19,1.19,0,0,1-1.31,1.35h-1.27a1.19,1.19,0,0,1-1.35-1.35Z" transform="translate(0 0)"/></svg>