<?xml version="1.0" encoding="utf-8"?>
<!-- Generator: Adobe Illustrator 23.0.3, SVG Export Plug-In . SVG Version: 6.00 Build 0)  -->
<svg version="1.1" id="Layer_1" xmlns="http://www.w3.org/2000/svg" xmlns:xlink="http://www.w3.org/1999/xlink" x="0px" y="0px"
	 viewBox="0 0 1852.8 240.2" style="enable-background:new 0 0 1852.8 240.2;" xml:space="preserve">
<style type="text/css">
	.st0{fill:#558DD1;}
	.st1{fill:#100E0C;}
</style>
<g>
	<path class="st0" d="M0.1,120.1c0-35.4,0-70.7,0-106.1c0-1.4-0.1-2.9,0-4.3c0.3-3.6,2.5-5.8,6.1-6c0.6,0,1.3,0,1.9,0
		c27,0,54.1-0.1,81.1,0c49.1,0.2,94.6,33.2,109.9,81.6c20.2,64.4-18.9,133.1-84.6,148.6c-9.2,2.2-18.6,3.2-28,3.2
		c-25.9,0-51.8-0.1-77.8,0.1c-5.4,0-8.8-2.1-8.7-9C0.2,192.1,0.1,156.1,0.1,120.1z M52.1,120c0,21,0,41.9,0,62.9
		c0,4.4,0,4.5,4.5,4.5c10.6,0,21.1,0.3,31.7-0.1c17.3-0.6,32-7.5,43.4-20.4c16.9-19.3,21.2-42,14.6-66.3
		c-6.7-24.7-23-40.6-48.2-46.3c-14.5-3.3-29.3-1.1-44-1.5c-1.4,0-2,0.7-2,2.1c0,1.3,0,2.6,0,3.8C52.1,79,52.1,99.5,52.1,120z"/>
	<path class="st0" d="M543.4,168.9c0,13.8-0.2,27.5,0.1,41.3c0.1,5-1.8,8-6.2,10.2c-17.3,8.9-35.6,14.9-54.9,17.7
		c-9.2,1.4-18.4,2-27.7,1.8c-47.1-1.1-89.6-29.6-107.7-74.3c-5.8-14.4-8.8-29.4-8.7-44.9c0.4-58.5,39.8-105.9,94.7-117.6
		c31.3-6.7,60.6-0.5,88,15.5c6.1,3.6,11.9,7.6,17.2,12.2c4.6,4,4.8,7,0.8,11.3c-7.9,8.4-15.8,16.8-23.7,25.1
		c-4.5,4.7-7.3,4.8-12.3,0.5c-10.8-9.1-23.3-13.4-37.3-14.3c-34.7-2.3-65.6,23.3-69.8,59.4c-4.2,36.2,20.8,65.8,51.5,72.4
		c13.3,2.9,26.4,1.7,39.3-2.2c4.2-1.3,4.2-1.4,4.2-5.7c0-4.2-0.1-8.3,0-12.5c0-2.1-0.9-2.8-2.9-2.8c-5.6,0.1-11.2,0.1-16.8,0
		c-5.4-0.1-7.5-2.1-7.5-7.6c-0.1-9.9-0.1-19.8,0-29.8c0-6,2-7.9,8.2-7.9c21,0,41.9,0,62.9,0c6.4,0,8.5,2.1,8.5,8.7
		c0,14.4,0,28.8,0,43.2C543.3,168.9,543.4,168.9,543.4,168.9z"/>
	<path class="st1" d="M1350.3,240.2c-55.5,0.5-105.7-37.1-118-93.2c-15-68.1,28.8-131.3,93-144.3c25.7-5.2,50.9-3.1,75,7.9
		c10.9,4.9,20.5,11.8,29.3,19.8c4.2,3.8,4.3,7,0.4,11.1c-7.9,8.3-15.9,16.6-24,24.9c-3.8,3.9-6.3,4-10.7,0.4
		c-12.2-10.2-26.3-15.7-42.2-16c-23.8-0.4-42.4,9.6-55.5,29.3c-18.5,27.8-14.7,66.1,9.3,88.8c18.7,17.7,40.9,21.8,65.4,14.8
		c8.4-2.4,16-6.4,22.8-11.9c4.4-3.5,7.4-3.3,11.2,0.8c7.9,8.4,15.8,16.7,23.7,25.1c3.6,3.9,3.5,7.5-0.4,11.2
		c-15.8,15-34.5,24.6-55.8,29C1365.9,239.6,1357.8,240.3,1350.3,240.2z"/>
	<path class="st1" d="M1638.9,237c-5.8,0-11.5-0.1-17.3,0c-5.5,0.1-9.1-2.4-11.4-7.2c-3.5-7.7-7.2-15.3-10.5-23.1
		c-1.4-3.3-3-4.5-6.7-4.4c-27.2,0.2-54.4,0.2-81.6,0c-3.4,0-5,1-6.3,4.2c-3.2,7.7-6.8,15.2-10.2,22.7c-2.3,5-6.1,7.7-11.6,7.8
		c-12.2,0.1-24.3,0.1-36.5,0c-6-0.1-8.2-3.9-5.9-9.4c0.2-0.6,0.6-1.2,0.8-1.7c6.1-13.2,12.2-26.4,18.4-39.5
		c27.5-59.1,55-118.2,82.4-177.3c0.3-0.7,0.7-1.4,1-2.2c1.5-4.1,3.8-6.8,8.7-6.9c4.8,0,7,2.7,8.8,6.6c9.9,21.6,20,43.2,30.1,64.8
		c23.9,51.4,47.8,102.8,71.7,154.2c3.7,8,1.6,11.3-7.2,11.4C1650.1,237,1644.5,237,1638.9,237C1638.9,237,1638.9,237,1638.9,237z
		 M1577.5,156.6c-8.4-18.3-16.7-36.2-25.3-54.9c-8.5,18.8-16.8,36.6-24.8,54.9C1544.4,156.6,1560.7,156.6,1577.5,156.6z"/>
	<path class="st0" d="M1025.4,237c-5.8,0-11.5-0.1-17.3,0c-5.4,0.1-9.2-2.3-11.4-7.1c-3.6-7.7-7.2-15.3-10.5-23.1
		c-1.4-3.2-3.1-4.5-6.7-4.5c-27.2,0.2-54.4,0.2-81.6,0c-3.4,0-5.1,1.1-6.3,4.2c-3,7.2-6.5,14.3-9.5,21.5c-2.6,6.2-7,9.1-13.8,9.1
		c-11.2-0.1-22.4,0-33.6,0c-0.6,0-1.3,0-1.9,0c-5.1-0.4-7.3-3.8-5.7-8.7c0.6-1.7,1.4-3.2,2.2-4.8C862.9,151,896.6,78.6,930.3,6.2
		c1.6-3.4,3.5-6,7.7-6.1c4.7-0.2,6.9,1,9,5.6c4.6,9.8,9.2,19.7,13.8,29.5c26.8,57.7,53.6,115.3,80.4,173c2.9,6.2,5.9,12.4,8.7,18.7
		c2.9,6.5,0.6,10.1-6.7,10.2C1037.2,237.1,1031.3,237,1025.4,237C1025.4,237,1025.4,237,1025.4,237z M913.9,156
		c4.9,1.3,45.1,1.4,49.2,0.2c-1.7-5.9-22.7-50.8-25.1-53.3C930,120.6,922,138.3,913.9,156z"/>
	<path class="st1" d="M1691.5,120.3c0-35.7,0-71.3,0-107c0-1.4-0.1-2.9,0.1-4.3c0.4-2.9,2.4-4.9,5.3-5.3c0.9-0.1,1.9-0.1,2.9-0.1
		c26.4,0,52.8-0.1,79.2,0c33.3,0.2,62.3,22.4,71.3,54.6c11.3,40.4-15,83.8-56.1,92.4c-5.7,1.2-11.4,1.8-17.1,1.8
		c-9.4,0-18.9,0-28.3,0c-6.2,0-5.2-0.7-5.2,5.4c0,22.9,0,45.7,0,68.6c0,1.3,0.1,2.6,0,3.8c-0.2,4.1-2.5,6.5-6.6,6.7
		c-3.7,0.2-7.4,0.1-11,0.1c-8.5,0-17-0.2-25.4,0.1c-5.6,0.2-9.6-2.2-8.9-8.8c0-0.2,0-0.3,0-0.5
		C1691.5,191.9,1691.5,156.1,1691.5,120.3z M1743.5,78c0,7.5,0.1,15,0,22.5c0,2.4,0.8,3,3.1,3c10.1-0.1,20.1,0.2,30.2-0.1
		c17-0.5,29-18.3,23.3-34.2c-3.3-9.3-12.7-16.1-23.3-16.4c-10.1-0.3-20.1,0-30.2-0.2c-2.8-0.1-3.1,1.2-3,3.4
		C1743.5,63.3,1743.4,70.7,1743.5,78z"/>
	<path class="st0" d="M781.6,143c0,27.7,0,55.3,0,83c0,1.4,0,2.9,0,4.3c-0.2,4.1-2.4,6.5-6.6,6.6c-13,0.1-25.9,0.1-38.9,0
		c-4.6,0-6.9-2.6-7.2-7.2c-0.1-1.4,0-2.9,0-4.3c0-55.6,0-111.3,0-166.9c0-6.6,0.5-5.8-6-5.8c-13.1,0-26.2-0.2-39.3,0.1
		c-5.6,0.1-8.9-3.1-8.7-8.7c0.4-10.7,0.1-21.4,0.1-32.1c0-6.3,1.9-8.3,8.3-8.3c48,0,95.9,0,143.9,0c0.5,0,1,0,1.4,0
		c4.7,0.2,6.8,2.1,6.8,6.7c0.1,11.8,0.1,23.7,0,35.5c0,4.7-2.3,6.7-7.3,6.8c-13.6,0.1-27.2,0-40.8,0c-1.1,0-2.2,0.1-3.4,0
		c-1.9-0.1-2.6,0.9-2.5,2.6c0.1,1.3,0,2.6,0,3.8C781.6,87.1,781.6,115.1,781.6,143z"/>
	<path class="st0" d="M1077.8,120.1c0-34.9,0-69.7,0-104.6c0-1.6,0-3.2,0-4.8c0.2-5,2-6.9,7-7.1c2.2-0.1,4.5,0,6.7,0
		c9.9,0,19.8,0.2,29.7-0.1c6-0.2,8.9,2.8,8.8,9c-0.2,56.3-0.1,112.6-0.1,168.9c0,1.4,0.1,2.9,0,4.3c0,1.6,0.7,2.3,2.3,2.3
		c1.1,0,2.2,0,3.4,0c22.7,0,45.4,0,68.1,0c1.4,0,2.9,0,4.3,0c5.5,0.1,7.3,2,7.4,7.6c0.1,5,0,9.9,0,14.9c0,6.4,0.1,12.8,0,19.2
		c-0.1,5.1-2.2,7.3-7.3,7.3c-10.4,0.1-20.8,0-31.2,0c-29.4,0-58.8,0-88.3,0c-1.4,0-2.9,0-4.3,0c-4.3-0.3-6.4-2.3-6.7-6.5
		c-0.1-1.6,0-3.2,0-4.8C1077.8,190.5,1077.8,155.3,1077.8,120.1z"/>
	<path class="st0" d="M297.8,119.9c0,35.4,0,70.7,0,106.1c0,1.4,0.1,2.9,0,4.3c-0.2,4.1-2.5,6.5-6.6,6.7c-3.8,0.2-7.7,0.1-11.5,0.1
		c-8.2,0-16.3-0.3-24.5,0.1c-8.1,0.3-10.3-3.3-10.3-10.1C245,158.3,245,89.7,245,21.1c0-3.4-0.1-6.7,0-10.1c0.1-4.9,2.6-7.3,7.4-7.3
		c12.6-0.1,25.3-0.1,37.9,0c5.2,0,7.4,2.3,7.4,7.8c0,24.6,0,49.3,0,73.9C297.8,96.8,297.8,108.4,297.8,119.9z"/>
	<path class="st0" d="M641.7,120.4c0,34.9,0,69.7,0,104.6c0,1.6,0,3.2,0,4.8c-0.2,4.7-2.4,7-7.1,7.2c-4.5,0.1-9,0-13.4,0
		c-8,0-16,0-24,0c-5.7,0-7.9-2.2-7.9-7.8c-0.1-6.1,0-12.2,0-18.2c0-65.6,0.1-131.1-0.1-196.7c0-8.6,1.4-11,10.8-10.7
		c10.9,0.3,21.8,0.3,32.6,0c7.1-0.2,9.3,2.6,9.2,9.4C641.6,48.8,641.7,84.6,641.7,120.4z"/>
</g>
</svg>
