<svg id="Gråskala" xmlns="http://www.w3.org/2000/svg" viewBox="0 0 620.15 102.65"><title>sveriges_radio</title><polygon points="93.17 19.7 73.6 78.47 54.03 19.7 49.29 19.7 70.08 82.14 77.13 82.14 97.91 19.7 93.17 19.7"/><path d="M259.23,19.68v9a23.14,23.14,0,0,0-19-10h-1.54a23.1,23.1,0,0,0-21.77,15.35c-.82,2.33-1.77,6.35-1.77,16.85,0,10.64,1,14.73,1.77,16.88a23.1,23.1,0,0,0,21.77,15.34h1.54a23.15,23.15,0,0,0,19-10c-.11,6-.6,10.12-1.49,12.63a18.59,18.59,0,0,1-17.53,12.34h-1.54c-7,0-13.53-3.24-17-8.08h-5.24c3.74,7.51,12.54,12.59,22.26,12.59h1.54A23.1,23.1,0,0,0,262,87.31c.76-2.15,1.77-6.24,1.77-16.89V19.68ZM257.71,66.3a18.59,18.59,0,0,1-17.53,12.34h-1.54A18.59,18.59,0,0,1,221.12,66.3c-.37-1.06-1.51-4.28-1.51-15.38,0-9.92.86-13.51,1.51-15.35a18.58,18.58,0,0,1,17.52-12.34h1.54a18.59,18.59,0,0,1,17.53,12.34c.37,1.06,1.51,4.28,1.51,15.35,0,7.47-.49,12.5-1.51,15.38"/><path d="M317.05,66.7l-.11.3c-2.39,6.75-10.33,11.65-18.91,11.65h-1.54A18.58,18.58,0,0,1,279,66.31c-.38-1.06-1.51-4.28-1.51-15.38v-.32H321.6l0-2.29c-.14-8.73-1.07-12.31-1.75-14.24A23.09,23.09,0,0,0,298,18.73h-1.54a23.1,23.1,0,0,0-21.77,15.34c-.82,2.33-1.77,6.36-1.77,16.85s1,14.73,1.77,16.88a23.1,23.1,0,0,0,21.77,15.34H298c10.59,0,20.11-6,23.15-14.65l.64-1.8ZM279,35.58a18.58,18.58,0,0,1,17.52-12.34H298a18.59,18.59,0,0,1,17.53,12.34c.3.86,1.17,3.3,1.43,10.52H277.54c.23-6.35.9-9,1.43-10.52"/><path d="M144,66.7l-.11.3c-2.38,6.75-10.33,11.65-18.91,11.65h-1.54a18.58,18.58,0,0,1-17.52-12.34c-.37-1.06-1.51-4.28-1.51-15.38v-.32h44.14l0-2.29c-.14-8.73-1.07-12.31-1.75-14.24A23.1,23.1,0,0,0,125,18.73h-1.54a23.1,23.1,0,0,0-21.77,15.34c-.82,2.33-1.77,6.36-1.77,16.85s1,14.73,1.77,16.88a23.1,23.1,0,0,0,21.77,15.34H125c10.59,0,20.11-6,23.16-14.65l.64-1.8ZM105.94,35.58a18.58,18.58,0,0,1,17.52-12.34H125a18.58,18.58,0,0,1,17.53,12.34c.3.86,1.17,3.3,1.43,10.52H104.5c.23-6.35.9-9,1.43-10.52"/><path d="M24,46.17c-11.43,0-17.22-3.71-17.22-11,0-5.1,1.66-11.88,16-11.88H24.6c13.14,0,15.65,5.68,16,10.55h4.51c-.43-7.16-4.52-15.06-20.49-15.06H22.77c-17,0-20.53,8.91-20.53,16.39,0,5.81,2.82,15.54,21.73,15.54,16.65,0,18.9,7.29,18.9,14.41,0,9-5.95,13.54-17.68,13.54h-3c-11.73,0-17.68-4.56-17.68-13.54H0C0,76.72,7.88,83.14,22.18,83.14h3c14.31,0,22.18-6.41,22.18-18.05,0-12.73-7.65-18.91-23.4-18.91"/><polygon points="203.9 4.24 203.9 12.05 199.39 12.05 199.39 0.02 201.81 0.02 203.9 0.02 203.9 4.24"/><polygon points="203.9 27.49 203.9 19.66 201.56 19.66 199.4 19.66 199.4 82.13 203.9 82.13 203.9 27.49"/><polygon points="561.26 7.79 561.26 12.05 559.06 12.05 556.76 12.05 556.76 0.02 561.26 0.02 561.26 7.79"/><polygon points="561.26 29.45 561.26 19.66 559.06 19.66 556.76 19.66 556.76 82.13 561.26 82.13 561.26 29.45"/><path d="M189.57,19.45a23.26,23.26,0,0,0-5.78-.72h-1.54a23.14,23.14,0,0,0-19,10V19.67h-4.5V82.13h4.5V49.83c.06-9.09.88-12.5,1.51-14.27a18.58,18.58,0,0,1,17.52-12.33h1.54a18.72,18.72,0,0,1,5.78.93Z"/><path d="M596.62,83.12h-1.54a23.09,23.09,0,0,1-21.77-15.33c-.76-2.15-1.77-6.24-1.77-16.88,0-10.49.94-14.51,1.77-16.84a23.09,23.09,0,0,1,21.76-15.34h1.54a23.09,23.09,0,0,1,21.77,15.34c.82,2.33,1.77,6.35,1.77,16.84,0,10.64-1,14.73-1.77,16.88a23.09,23.09,0,0,1-21.77,15.33m-1.54-59.89a18.58,18.58,0,0,0-17.52,12.33C576.91,37.4,576,41,576,50.91c0,11.1,1.14,14.32,1.51,15.38a18.58,18.58,0,0,0,17.52,12.33h1.54a18.58,18.58,0,0,0,17.52-12.33c1-2.88,1.51-7.91,1.51-15.38,0-11.06-1.14-14.28-1.51-15.34a18.58,18.58,0,0,0-17.52-12.33Z"/><path d="M540.39,82.14h4.5V0h-4.5V28.74a23.14,23.14,0,0,0-19-10h-1.54A23.09,23.09,0,0,0,498,34.06c-.83,2.33-1.77,6.35-1.77,16.84,0,10.64,1,14.73,1.77,16.88a23.08,23.08,0,0,0,21.76,15.34h1.54a23.14,23.14,0,0,0,19-10Zm-1.52-15.85a18.58,18.58,0,0,1-17.52,12.33h-1.54a18.58,18.58,0,0,1-17.52-12.33c-.38-1.06-1.51-4.28-1.51-15.38,0-9.91.86-13.5,1.51-15.34a18.57,18.57,0,0,1,17.52-12.33h1.54a18.58,18.58,0,0,1,17.52,12.33c.38,1.06,1.51,4.28,1.51,15.34,0,7.47-.49,12.5-1.51,15.38"/><path d="M487.08,36.42c0-11.15-7.69-17.81-20.58-17.81h-1.84c-13.34,0-21.23,5.49-21.89,15.09h4.53c.83-8.69,9.78-10.58,17.36-10.58h1.84c6,0,16.06,1.73,16.06,13.31V46H463.06c-16,0-23.46,5.8-23.46,18.27V65c0,11.67,7.9,18.1,22.24,18.1h1.82a23.15,23.15,0,0,0,18.92-10v9.06h4.51Zm-4.51,14.41h0c0,7.48-.5,12.51-1.52,15.39a18.59,18.59,0,0,1-17.53,12.34h-1.68C450.07,78.58,444.1,74,444.1,65v-.69c0-7.15,2.3-13.76,19-13.76h19.51Z"/><path d="M415.77,35c0-15.84-15.58-14.9-20.41-15.84h22.48c6.45,0,16.78,4.26,16.78,15.84s-8.1,15.83-14.55,15.84H409.52S415.77,50.86,415.77,35Z"/><polygon points="330.58 82.12 357.54 82.12 330.58 54.05 330.58 82.12"/><polygon points="358.99 19.19 384.62 49.82 384.62 19.19 358.99 19.19"/><polygon points="408.37 50.85 385.48 50.85 411.64 82.12 436.08 82.12 408.37 50.85"/><path d="M348.91,35c0,11.94,3.84,14.9,8.62,15.84H344c-6.39,0-14.41-4.26-14.41-15.84s8-15.83,14.41-15.84h13.5C352.75,20.12,348.91,23.09,348.91,35Z"/><path d="M367.61,66.49c0-11.78-3.88-14.71-8.71-15.63h13.64c6.45,0,14.55,4.21,14.55,15.63S379,82.12,372.53,82.13H358.89C363.73,81.21,367.61,78.28,367.61,66.49Z"/></svg>