<?xml version="1.0" standalone="no"?>
<!DOCTYPE svg PUBLIC "-//W3C//DTD SVG 20010904//EN"
 "http://www.w3.org/TR/2001/REC-SVG-20010904/DTD/svg10.dtd">
<svg version="1.0" xmlns="http://www.w3.org/2000/svg"
 width="2224.000000pt" height="1158.000000pt" viewBox="0 0 2224.000000 1158.000000"
 preserveAspectRatio="xMidYMid meet">
<metadata>
Created by potrace 1.16, written by Peter Selinger 2001-2019
</metadata>
<g transform="translate(0.000000,1158.000000) scale(0.100000,-0.100000)"
fill="#000000" stroke="none">
<path d="M0 5790 l0 -5790 11120 0 11120 0 0 5790 0 5790 -11120 0 -11120 0 0
-5790z m6308 1864 c449 -256 842 -480 872 -498 30 -18 81 -47 113 -65 l57 -32
0 -1129 0 -1128 -42 -24 c-24 -14 -122 -70 -218 -125 -96 -55 -260 -149 -365
-208 -104 -59 -230 -132 -280 -160 -49 -29 -285 -164 -523 -300 l-433 -246
-102 59 c-173 100 -289 166 -1034 592 l-723 412 0 1128 0 1128 733 418 c402
230 820 468 927 530 107 62 196 113 198 114 1 0 370 -210 820 -466z m4422
-1109 l0 -485 -80 0 -80 0 -2 485 -3 485 83 0 82 0 0 -485z m2630 298 l0 -187
33 31 c51 49 92 65 167 65 114 0 192 -49 241 -149 23 -46 24 -60 27 -287 2
-131 1 -243 -1 -250 -3 -7 -30 -10 -80 -8 l-76 4 -3 221 c-3 190 -6 227 -21
254 -26 49 -62 68 -127 68 -47 0 -63 -5 -94 -28 -63 -49 -66 -61 -66 -302 l0
-215 -85 0 -85 0 0 485 0 485 85 0 85 0 0 -187z m-4574 24 c23 -67 96 -275
163 -462 67 -187 121 -341 121 -342 0 -2 -40 -3 -89 -3 l-89 0 -32 90 -32 90
-208 0 -208 0 -31 -81 c-17 -44 -31 -85 -31 -90 0 -5 -40 -9 -90 -9 -49 0 -90
2 -90 5 0 4 143 405 242 680 22 61 46 130 55 155 34 100 17 90 155 90 l123 0
41 -123z m2472 -129 c18 -5 55 -27 82 -49 l50 -39 0 40 0 40 85 0 85 0 0 -334
0 -334 -75 -4 c-42 -2 -80 -1 -85 0 -6 2 -10 22 -10 44 l0 40 -37 -32 c-61
-54 -117 -74 -204 -73 -92 1 -163 29 -222 88 -50 50 -75 101 -93 188 -26 123
6 252 82 337 82 91 218 126 342 88z m1635 -4 c91 -30 179 -124 201 -215 6 -26
5 -27 -71 -38 -78 -12 -92 -8 -93 25 0 7 -17 28 -37 48 -96 93 -238 68 -301
-55 -19 -37 -23 -56 -20 -119 3 -65 7 -81 35 -121 42 -60 92 -83 171 -77 71 5
120 37 148 95 l18 38 78 -9 c49 -5 78 -13 78 -21 0 -32 -65 -138 -105 -171
-114 -93 -294 -107 -422 -34 -195 111 -229 409 -66 576 91 95 240 124 386 78z
m1471 11 c56 -9 125 -47 170 -92 59 -59 89 -133 94 -230 l5 -83 -277 0 -277 0
6 -22 c11 -39 59 -101 93 -121 18 -10 58 -21 90 -24 69 -6 135 20 180 72 l29
32 63 -24 c35 -13 66 -26 69 -28 8 -9 -62 -102 -94 -124 -67 -45 -134 -64
-235 -64 -83 -1 -103 3 -157 27 -106 48 -178 141 -203 261 -32 156 37 314 170
384 83 44 158 54 274 36z m-4204 -16 c25 -11 62 -37 83 -57 l37 -36 0 47 0 47
80 0 80 0 -2 -337 -3 -336 -75 0 -75 0 -3 46 -3 47 -33 -34 c-55 -54 -118 -79
-200 -80 -140 0 -238 59 -298 182 -31 63 -33 72 -33 177 0 92 4 118 22 158 35
76 88 133 156 167 52 26 71 30 141 30 60 0 93 -6 126 -21z m2016 -9 c65 -32
114 -93 133 -165 6 -23 11 -138 11 -267 l0 -228 -79 0 -80 0 -3 223 c-2 186
-6 227 -20 253 -25 45 -63 67 -123 68 -61 0 -109 -25 -142 -74 -22 -32 -23
-41 -23 -251 l0 -219 -85 0 -85 0 0 335 0 335 85 0 85 0 0 -36 0 -35 43 35
c57 47 80 55 158 55 54 1 77 -4 125 -29z m-2914 -255 c49 -142 90 -261 92
-262 4 -4 37 88 130 360 30 88 57 161 59 163 2 3 41 4 85 2 l80 -3 -79 -220
c-44 -121 -91 -251 -105 -290 -14 -38 -33 -89 -41 -112 l-15 -43 -113 0 -113
0 -25 73 c-14 39 -51 142 -82 227 -32 85 -75 204 -96 263 l-39 108 87 -3 86
-3 89 -260z m1748 -1130 l0 -485 -80 0 -80 0 0 41 0 41 -45 -40 c-57 -50 -113
-66 -213 -60 -123 7 -213 68 -270 181 -70 140 -36 345 74 447 69 63 123 84
224 84 92 0 146 -19 203 -72 l27 -26 0 187 0 187 80 0 80 0 0 -485z m291 456
c65 -66 20 -171 -73 -171 -96 0 -140 107 -72 175 37 37 105 35 145 -4z m-2536
-11 c112 -43 195 -157 195 -266 l0 -34 -84 0 -83 0 -6 42 c-12 89 -85 138
-204 138 -87 0 -129 -15 -167 -61 -23 -27 -27 -40 -23 -72 10 -71 63 -101 222
-127 268 -44 364 -117 366 -278 1 -79 -18 -135 -63 -187 -82 -94 -253 -136
-423 -104 -170 31 -277 136 -292 285 l-6 54 86 0 87 0 6 -41 c9 -55 41 -99 94
-129 38 -21 58 -25 130 -25 136 0 203 42 202 127 -1 81 -40 107 -212 138 -207
37 -277 66 -333 138 -74 95 -58 251 35 338 75 71 152 94 303 90 87 -2 123 -8
170 -26z m5050 16 c119 -31 235 -118 281 -208 13 -26 24 -49 24 -52 0 -5 -161
-49 -164 -44 -1 2 -12 19 -24 39 -48 80 -132 121 -249 122 -73 0 -90 -4 -147
-32 -71 -35 -112 -79 -149 -158 -31 -68 -32 -227 -1 -294 30 -64 88 -125 148
-157 45 -24 62 -27 151 -27 119 0 168 19 232 88 46 50 67 87 78 135 l7 32
-205 0 -205 0 -4 66 c-1 36 -1 68 1 70 2 2 134 4 292 4 l287 0 6 -22 c9 -37 7
-74 -10 -155 -55 -268 -285 -417 -574 -374 -195 29 -359 181 -399 369 -48 229
45 450 230 547 40 21 93 44 118 51 62 17 214 17 276 0z m-4515 -160 c0 -78 3
-105 14 -109 7 -3 43 -5 80 -4 l66 2 0 -62 0 -62 -77 -3 -78 -3 0 -192 c0
-187 1 -193 23 -215 19 -19 32 -23 82 -21 l60 1 0 -63 c0 -62 0 -63 -31 -69
-67 -13 -153 -7 -194 15 -45 24 -56 37 -85 96 -18 39 -20 62 -20 248 l0 205
-50 0 -50 0 0 60 0 60 40 1 c22 1 46 2 52 3 8 1 17 36 26 96 7 52 15 101 17
108 3 8 25 12 65 12 l60 0 0 -104z m2644 -124 c75 -35 130 -89 165 -162 23
-49 26 -67 26 -165 0 -91 -4 -118 -21 -156 -31 -67 -89 -126 -158 -162 -58
-31 -66 -32 -176 -32 -103 0 -121 3 -170 26 -99 48 -158 120 -186 229 -52 206
64 409 259 450 76 16 193 4 261 -28z m684 19 c33 -10 76 -30 95 -45 42 -32 77
-98 77 -144 l0 -32 -72 0 -73 0 -17 40 c-20 47 -63 70 -132 70 -84 0 -125 -29
-126 -88 0 -28 5 -35 33 -47 18 -7 68 -18 112 -24 169 -24 249 -63 280 -138
48 -115 -16 -239 -143 -277 -81 -25 -247 -19 -312 12 -77 35 -125 101 -137
187 l-6 45 74 0 75 0 14 -42 c18 -52 62 -84 129 -93 96 -13 167 27 159 92 -4
39 -49 58 -176 76 -193 28 -269 92 -259 219 6 71 30 114 84 152 80 56 212 71
321 37z m2612 -17 c70 -31 142 -103 172 -172 30 -66 36 -190 13 -267 -32 -110
-101 -183 -214 -226 -46 -17 -72 -20 -152 -17 -84 3 -104 8 -162 36 -120 59
-187 174 -187 323 0 167 108 308 267 349 67 17 196 4 263 -26z m1582 -1 c72
-34 123 -88 160 -169 19 -41 23 -66 23 -154 0 -97 -2 -110 -31 -170 -59 -123
-146 -182 -278 -188 -95 -5 -140 7 -201 53 l-45 35 0 -185 0 -185 -85 0 -85 0
2 488 3 487 80 0 80 0 3 -38 3 -37 42 35 c84 72 211 83 329 28z m-2141 11 c5
-3 9 -39 9 -81 0 -68 -2 -74 -17 -68 -10 4 -43 10 -73 12 -68 5 -110 -18 -140
-76 -18 -37 -20 -59 -20 -251 l0 -210 -85 0 -85 0 0 334 c0 383 -10 349 100
345 l60 -2 0 -39 0 -40 41 35 c22 20 57 40 77 46 36 10 114 7 133 -5z m-4968
-4 c4 0 7 -100 7 -221 0 -208 1 -224 22 -260 42 -76 157 -86 232 -20 46 40 51
66 56 290 l5 214 75 0 75 0 3 -336 2 -337 -80 0 -80 0 0 35 c0 19 -3 35 -6 35
-3 0 -24 -16 -46 -35 -54 -46 -97 -58 -179 -53 -107 8 -178 60 -225 164 -15
33 -19 75 -22 272 -2 128 -2 239 1 245 4 11 48 13 160 7z m1595 -334 l2 -336
-80 0 -80 0 0 338 0 337 78 -1 77 -1 3 -337z m4382 109 c5 -235 8 -252 48
-289 47 -42 150 -39 199 6 56 51 63 84 63 311 l0 207 80 0 80 0 0 -340 0 -340
-80 0 -80 0 0 41 0 41 -46 -41 c-59 -52 -100 -65 -185 -59 -122 9 -215 93
-239 217 -15 81 -13 468 3 475 6 2 44 4 82 3 l70 -2 5 -230z"/>
<path d="M5465 7821 c-6 -5 -140 -84 -300 -174 -159 -91 -346 -197 -415 -236
-69 -40 -293 -167 -497 -284 l-373 -212 0 -985 0 -985 88 -49 c48 -27 128 -73
177 -101 179 -104 308 -177 735 -420 239 -136 473 -269 520 -296 47 -27 88
-49 91 -49 3 0 138 76 300 168 162 92 522 298 802 457 l507 290 0 986 0 985
-37 21 c-21 11 -148 83 -283 160 -135 77 -409 234 -610 348 -201 114 -434 247
-518 296 -154 90 -170 97 -187 80z m292 -1073 c143 -216 426 -643 629 -948
203 -305 380 -573 394 -594 l23 -39 -154 6 c-165 6 -252 23 -370 72 -93 39
-215 123 -286 196 -73 75 -89 96 -191 249 -42 63 -201 304 -355 534 -164 246
-277 426 -274 435 5 22 309 481 318 481 3 0 123 -177 266 -392z m-428 -844
c76 -20 127 -45 186 -89 45 -34 125 -120 133 -143 1 -5 -26 -3 -60 4 -35 8
-79 14 -98 14 -68 0 -176 -30 -257 -71 -119 -60 -182 -122 -298 -298 l-100
-150 -328 -1 c-260 0 -327 3 -321 13 47 79 259 387 301 434 62 72 190 171 272
212 180 92 397 120 570 75z"/>
<path d="M8541 6612 c-41 -114 -77 -213 -79 -220 -4 -10 28 -13 152 -11 86 0
158 4 160 7 4 9 -146 432 -154 432 -3 0 -38 -93 -79 -208z"/>
<path d="M11121 6599 c-47 -19 -82 -52 -107 -102 -22 -43 -25 -61 -22 -118 5
-84 40 -142 108 -177 66 -34 154 -28 207 14 61 48 85 105 81 191 -3 60 -8 79
-33 115 -51 73 -157 108 -234 77z"/>
<path d="M14210 6609 c-43 -13 -86 -52 -111 -101 l-19 -38 190 0 191 0 -6 23
c-28 89 -146 145 -245 116z"/>
<path d="M10009 6600 c-75 -22 -128 -97 -136 -190 -5 -51 -2 -67 22 -115 36
-75 86 -108 169 -113 91 -5 141 24 184 107 35 70 38 97 20 169 -14 58 -87 135
-137 145 -42 9 -88 8 -122 -3z"/>
<path d="M10565 5385 c-129 -69 -156 -246 -54 -354 59 -62 153 -75 239 -31 63
32 94 89 98 180 3 87 -16 131 -81 184 -33 26 -48 31 -105 34 -48 2 -76 -2 -97
-13z"/>
<path d="M11695 5386 c-74 -33 -118 -107 -118 -201 -1 -172 162 -266 310 -180
104 62 123 241 35 338 -47 52 -158 73 -227 43z"/>
<path d="M14980 5378 c-158 -80 -133 -350 38 -398 58 -16 94 -12 148 15 35 17
58 38 79 72 26 42 30 57 30 119 0 61 -4 77 -30 120 -38 61 -97 94 -170 94 -33
0 -67 -8 -95 -22z"/>
<path d="M16549 5377 c-29 -16 -54 -40 -74 -72 -56 -91 -34 -227 47 -288 76
-56 165 -59 237 -7 58 42 85 100 86 181 0 56 -4 73 -30 114 -38 62 -98 95
-170 95 -35 0 -66 -8 -96 -23z"/>
</g>
</svg>
