<svg id="Lager_1" data-name="Lager 1" xmlns="http://www.w3.org/2000/svg" viewBox="0 0 586.32 211.2"><defs><style>.cls-1{fill:#fee501;}.cls-2{fill:#221e20;}.cls-3{fill:#231e20;}.cls-4{fill:#ec1b24;}.cls-5{fill:#232021;}.cls-6{fill:#221f20;}</style></defs><title>axis</title><path class="cls-1" d="M590.56,476.89H520.49c-.24,0-.48,0-.72,0-.2-.35-.37-.7-.59-1l-25.13-39.2q-6.59-10.28-13.2-20.55c-.23-.36-.66-.83-1-.83-3.28,0-6.55,0-9.83,0-.8,0-1.59-.08-2.39-.08H424.22c-.48,0-1,0-1.43-.07.54-1,1-2,1.62-2.92q6.92-10.84,13.89-21.65c3.24-5,6.54-10,9.76-15.05,4.12-6.44,8.17-12.93,12.29-19.38,3.23-5.06,6.52-10.07,9.78-15.11q5.76-8.91,11.49-17.84c1.71-2.67,3.36-5.37,5-8.05h.48a2.29,2.29,0,0,0,.16.79c1.16,1.82,2.36,3.62,3.53,5.43,3.07,4.74,6.14,9.47,9.18,14.22,3.26,5.09,6.46,10.22,9.72,15.31,2.85,4.46,5.76,8.89,8.62,13.34q4.45,6.92,8.88,13.85c1.82,2.83,3.65,5.66,5.47,8.5l10.58,16.55q3.58,5.6,7.19,11.19l11,17.06c1.91,3,3.85,5.89,5.74,8.86,2.14,3.36,4.22,6.76,6.37,10.12,2.67,4.17,5.38,8.3,8.06,12.46,2.1,3.25,4.15,6.53,6.25,9.78.85,1.31,1.8,2.55,2.71,3.83Z" transform="translate(-4.24 -315.13)"/><path class="cls-2" d="M112.95,476.86a3.33,3.33,0,0,1-.88.25l-26.47,0-1.17-.2c0-2-.08-3.9-.09-5.85,0-3.47,0-6.95,0-10.42a4.65,4.65,0,0,0-.39-1.27,7.55,7.55,0,0,0-1.26-.21q-15.53,0-31.07,0a8.43,8.43,0,0,0-1.27.19,2,2,0,0,0-2,1.17C45,465.79,41.63,471,38.29,476.34a1.84,1.84,0,0,1-1.84.8H4.24v-.72C7,472.2,9.74,468,12.46,463.78q17.23-26.71,34.45-53.44l19.28-29.93Q75.36,366.18,84.55,352a7.86,7.86,0,0,1,.76-.88h7.18l20.46,0a.3.3,0,0,1,.08.17c0,.52,0,1,0,1.56q0,61.16,0,122.32C113,475.75,113,476.31,112.95,476.86Zm-27.66-76.6-.22-1.32a11.35,11.35,0,0,0-.73.94q-3.46,5.54-6.9,11.1L63.07,434.13a3.91,3.91,0,0,0-.25.68c6.94,0,13.77,0,20.6,0,.78,0,.95-.37,1-1,0-1.4,0-2.79.07-4.19l.14-2.49.12-6.4.16-2.52.06-5.87.18-3,0-4.43,0-1.19v-1Z" transform="translate(-4.24 -315.13)"/><path class="cls-2" d="M63.52,526.33a33.61,33.61,0,0,1-5.39-1.8c-4.51-2.37-7-6.22-6.74-11.35.31-5.48,3.46-9.24,8.57-11,5.58-1.94,11.12-1.55,15.83,2.34,7.12,5.89,5.54,16.45-2.95,20.34a37.61,37.61,0,0,1-4.76,1.48Zm1.93-20A7.58,7.58,0,0,0,59,509.63a7.7,7.7,0,0,0,1.67,10c3.35,2.43,9,1.95,11.38-1.06a7.44,7.44,0,0,0,.92-8.22C71.6,507.38,68.92,506.4,65.45,506.32Z" transform="translate(-4.24 -315.13)"/><path class="cls-2" d="M491.44,526.33c-1-.26-2.09-.47-3.1-.8-5.64-1.89-9.25-6.78-9-12.17a12.81,12.81,0,0,1,10.26-11.72,17.14,17.14,0,0,1,10.79.78,12.42,12.42,0,0,1,7.84,12.38c-.44,5.16-4.56,9.69-10,11l-1.93.49Zm2.39-20c-4.56,0-7.8,2.78-7.95,6.87-.17,4.57,2.54,7.65,7.08,7.94,3.17.21,6-.57,7.74-3.49C503.15,513.56,501.52,506.38,493.83,506.33Z" transform="translate(-4.24 -315.13)"/><path class="cls-2" d="M213.52,526.33c-1-.27-2-.49-2.94-.81a9.41,9.41,0,0,1-6.87-9.1c-.11-4.71,0-9.43,0-14.15,0-.66.22-.8.82-.79,1.52,0,3,.05,4.56,0,.79,0,1,.22,1,1,0,4.32,0,8.63,0,13a5.33,5.33,0,0,0,5,5.65,7.66,7.66,0,0,0,4.66-.68,5.36,5.36,0,0,0,2.89-5.13c0-4.16.06-8.32,0-12.47,0-1.15.36-1.39,1.39-1.33,1.39.08,2.8,0,4.2,0,.55,0,.77.13.77.73,0,4.88.08,9.76-.08,14.63s-3.63,8.42-9,9.25c-.35.05-.69.16-1,.24Z" transform="translate(-4.24 -315.13)"/><path class="cls-2" d="M340.72,526.33c-1.23-.3-2.49-.52-3.7-.92a12,12,0,0,1-1.35-22.6,19.54,19.54,0,0,1,16,0,1.34,1.34,0,0,1,1,1.51c-.08,1.43,0,2.88,0,4.45-1-.44-1.93-.86-2.87-1.24a14.26,14.26,0,0,0-8.67-.88c-3.93.87-6.5,3.89-6.29,7.34.22,3.69,3.1,6.52,7.08,7.08,3.53.5,6.71-.54,9.82-2,.29-.14.58-.27.87-.4.06,0,.15,0,.35,0,0,1.58,0,3.16,0,4.74a1.15,1.15,0,0,1-.67.79c-2.07.74-4.17,1.42-6.26,2.12Z" transform="translate(-4.24 -315.13)"/><path class="cls-3" d="M17.2,526.33c-1.23-.31-2.48-.55-3.68-1-5-1.7-8.34-5.88-8.56-10.6a12,12,0,0,1,7.55-12.07,19.67,19.67,0,0,1,15.81.09,1.29,1.29,0,0,1,.93,1.43c-.06,1.47,0,2.94,0,4.3a62.33,62.33,0,0,0-6.26-2,10.77,10.77,0,0,0-8.09,1.23,6.89,6.89,0,0,0,.15,12c3.11,1.79,6.43,1.7,9.74.65,1.58-.5,3.09-1.22,4.77-1.9,0,1.7,0,3.29,0,4.87,0,.3-.47.74-.8.85-2.14.71-4.31,1.36-6.47,2Z" transform="translate(-4.24 -315.13)"/><path class="cls-2" d="M577.84,526.33l-5.73-1.94a1.09,1.09,0,0,1-.8-1.26c.06-1.43,0-2.85,0-4.35a27.6,27.6,0,0,0,4.24,2.1,28.42,28.42,0,0,0,5.25.85,3.26,3.26,0,0,0,1.7-.47,1.73,1.73,0,0,0,.28-3.11,22.07,22.07,0,0,0-3.42-1.66c-1.78-.8-3.64-1.43-5.33-2.38a6.32,6.32,0,0,1-3.23-6.47c.23-2.83,1.92-4.57,4.43-5.57,3.53-1.4,7.12-1.12,10.69-.11,3.06.87,3.06.89,3.06,4,0,.56,0,1.11,0,1.85-1.1-.42-2.06-.83-3-1.16-2.17-.71-4.35-1.38-6.67-.8-.88.22-1.75.52-1.92,1.54s.63,1.69,1.48,2.07c1.6.7,3.25,1.29,4.87,1.95a23.09,23.09,0,0,1,2.28,1c3.1,1.68,4.42,4.07,4.09,7.33-.28,2.78-2.46,5.1-5.63,6l-1.81.5Z" transform="translate(-4.24 -315.13)"/><path class="cls-2" d="M222.09,477.09c-5.6,0-11.2,0-16.8,0a2.23,2.23,0,0,1-2.18-1.26q-11-18.1-22.09-36.16c-.82-1.35-.83-1.35-1.59,0q-10.35,17.92-20.69,35.86a2.74,2.74,0,0,1-2.73,1.61c-10.52-.06-21,0-31.55,0a6.79,6.79,0,0,1-1.12-.19,7.71,7.71,0,0,1,.45-1.06q19.37-31.85,38.76-63.69a2.33,2.33,0,0,0,0-2.67q-17-28.53-33.94-57.09a8.14,8.14,0,0,1-.47-1.17,8.34,8.34,0,0,1,1.25-.19c11,0,21.92,0,32.87,0a1.82,1.82,0,0,1,1.79,1q10,17,20.11,34c.75,1.26.77,1.26,1.55,0q10.35-17,20.68-33.93a1.94,1.94,0,0,1,1.9-1.09c10.2,0,20.4,0,30.59,0a6,6,0,0,1,1.11.21,8.45,8.45,0,0,1-.47,1.06q-15.82,25.61-31.66,51.21c-1.93,3.12-3.83,6.26-5.81,9.35a2.31,2.31,0,0,0,0,2.84q18.88,30,37.69,60a10.13,10.13,0,0,1,.54,1.16,8.11,8.11,0,0,1-1.35.23Q230.55,477.1,222.09,477.09Z" transform="translate(-4.24 -315.13)"/><path class="cls-2" d="M316.67,477.09c-6.64,0-13.28,0-19.92,0-1,0-1.38-.24-1.37-1.33q.07-12.24,0-24.48c0-1,.24-1.27,1.25-1.27,12.12,0,24.24-.07,36.36.06,7.34.07,10.53-5.52,10-11.44a11.18,11.18,0,0,0-6.12-9.43,117,117,0,0,0-11.31-5.12c-6-2.44-12-4.89-17.46-8.56-7.11-4.81-12.44-11-14-19.62-2.57-13.77.25-26.07,11-35.74a37,37,0,0,1,19.37-8.75,76.67,76.67,0,0,1,11.09-.86c9.92-.11,19.84,0,29.76-.05,1,0,1.28.25,1.27,1.26q-.06,12.66,0,25.32c0,1.2-.39,1.42-1.49,1.42-9.6,0-19.2,0-28.8,0a13.94,13.94,0,0,0-6.48,1.44c-4.87,2.5-5.73,8.49-1.56,12a26,26,0,0,0,5.51,3.29c6.7,3.26,13.52,6.26,20.14,9.67A42.49,42.49,0,0,1,368,416.28c5,6.38,7,13.76,6.62,21.74a40.36,40.36,0,0,1-14.45,29.81c-5.66,4.89-12.38,7.42-19.69,8.58-6.24,1-12.52.58-18.79.67C320,477.11,318.35,477.09,316.67,477.09Z" transform="translate(-4.24 -315.13)"/><path class="cls-4" d="M422.79,415.13c.48,0,1,.07,1.43.07h43.42c.8,0,1.59,0,2.39.08l16.1,25.07q10,15.59,20,31.18c1.12,1.75,2.18,3.54,3.27,5.32-.44,0-.88.07-1.31.07H383c1.9-3,3.67-5.76,5.45-8.54q16.76-26.14,33.53-52.26A10.06,10.06,0,0,1,422.79,415.13Z" transform="translate(-4.24 -315.13)"/><path class="cls-2" d="M249,414q0-30.78,0-61.55c0-1.17.34-1.45,1.47-1.45q13.56.06,27.12,0c1,0,1.18.32,1.18,1.23q0,61.79,0,123.59c0,1-.27,1.31-1.28,1.3q-13.62-.05-27.24,0c-1.06,0-1.24-.38-1.24-1.32Q249.06,444.89,249,414Z" transform="translate(-4.24 -315.13)"/><path class="cls-2" d="M509.38,476.85c-1.09-1.77-2.14-3.57-3.27-5.32q-10-15.6-20-31.18L470,415.28c3.28,0,6.55-.07,9.83,0,.34,0,.77.48,1,.83q6.62,10.26,13.2,20.55l25.13,39.2c.21.33.39.69.59,1Z" transform="translate(-4.24 -315.13)"/><path class="cls-2" d="M174.52,510.79l-6.06,6.82c-1,1.16-1.42,1.16-2.45,0l-6-6.8c0,3.1,0,5.92,0,8.74,0,1.88,0,3.76,0,5.64,0,.68-.18.9-.87.88-1.56,0-3.12,0-4.68,0-.62,0-.85-.19-.83-.82,0-1,0-2,0-3,0-6.56,0-13.12,0-19.67,0-.8.2-1,1-1.12a7,7,0,0,1,7.41,3.2,59.64,59.64,0,0,0,4.65,5.31c.43.49.64.46,1.06,0,2.29-2.61,4.59-5.21,6.94-7.77a2.28,2.28,0,0,1,1.4-.66,31.7,31.7,0,0,1,4,0,1,1,0,0,1,.72.72c0,7.68,0,15.35,0,23,0,.68-.28.79-.86.78-1.48,0-3-.06-4.44,0-.88,0-1.06-.29-1-1.09,0-4.2,0-8.4,0-12.6C174.52,512,174.52,511.53,174.52,510.79Z" transform="translate(-4.24 -315.13)"/><path class="cls-2" d="M122.8,510.79l-6.14,6.92c-.92,1-1.36,1-2.29,0l-6-6.8c0,.56-.07.89-.07,1.22,0,4.28,0,8.56,0,12.84,0,.91-.26,1.17-1.15,1.12-1.48-.08-3-.05-4.44,0-.64,0-.8-.2-.8-.82q0-11.52,0-23c0-.6.18-.81.75-.71a.71.71,0,0,0,.24,0c3.33-.63,5.73.62,7.66,3.38a65.81,65.81,0,0,0,5,5.65c2.5-2.8,5-5.58,7.47-8.3a2.47,2.47,0,0,1,1.49-.7c1.23-.1,2.48,0,3.72,0,.65,0,.9.13.9.85q0,11.46,0,22.92c0,.62-.17.83-.81.82-1.48,0-3-.07-4.44,0-.85,0-1.06-.22-1.06-1.06C122.82,520.38,122.8,515.74,122.8,510.79Z" transform="translate(-4.24 -315.13)"/><path class="cls-2" d="M258.36,510.52c0,4.93,0,9.56,0,14.19,0,1.13-.32,1.43-1.4,1.36a40,40,0,0,0-4.08,0c-.7,0-1-.13-1-.91q0-11.4,0-22.79c0-.69.2-1,.88-.87h.12c3.5-.65,5.92.71,8.12,3.51,3,3.89,6.55,7.41,10,11.26,0-.5.09-.83.09-1.15,0-4.12.05-8.24,0-12.35,0-1.12.33-1.34,1.34-1.28,1.39.09,2.8,0,4.2,0,.65,0,.91.14.91.86q0,11.46,0,22.91c0,.65-.23.87-.84.8a1.17,1.17,0,0,0-.36,0c-3,.57-5.06-.65-7-3-3.2-4-6.79-7.74-10.21-11.59C259,511.19,258.78,511,258.36,510.52Z" transform="translate(-4.24 -315.13)"/><path class="cls-3" d="M533.16,510.43c0,5,0,9.75,0,14.47,0,1-.29,1.22-1.21,1.17-1.44-.07-2.88,0-4.32,0-.65,0-.91-.14-.91-.86q0-11.46,0-22.91c0-.65.24-.86.84-.79a1.25,1.25,0,0,0,.36,0c3.35-.6,5.7.65,7.81,3.36,2.88,3.71,6.24,7.06,9.4,10.55.23.26.49.48.89.86,0-2.27,0-4.37,0-6.47,0-2.48,0-5,0-7.44,0-.68.21-.9.89-.88,1.44,0,2.88.07,4.32,0,.88,0,1.15.2,1.14,1.12,0,6.12,0,12.24,0,18.35,0,1.4,0,2.8,0,4.2,0,.64-.13,1-.85.9h-.12c-3.07.54-5.22-.57-7.2-3.07C540.81,518.71,537,514.76,533.16,510.43Z" transform="translate(-4.24 -315.13)"/><path class="cls-2" d="M398.13,526c-2.17,0-4.16,0-6.15,0a1.32,1.32,0,0,1-.93-.65c-.55-1.1-1-2.24-1.47-3.39a1.11,1.11,0,0,0-1.23-.84c-3.16,0-6.31,0-9.47,0a1.06,1.06,0,0,0-1.21.82,30.4,30.4,0,0,1-1.31,3.33,1.4,1.4,0,0,1-1,.71c-1.71.07-3.43,0-5.15,0-.7,0-.8-.15-.53-.81,3.21-7.67,6.38-15.36,9.6-23a1.39,1.39,0,0,1,1-.7c2-.07,3.91-.06,5.87,0a1.33,1.33,0,0,1,1,.59C390.83,510,394.43,517.94,398.13,526Zm-10.79-9.19-4-9.37c-1.16,3-2.23,5.8-3.33,8.57-.2.51-.31.82.43.81C382.66,516.84,384.89,516.85,387.35,516.85Z" transform="translate(-4.24 -315.13)"/><path class="cls-2" d="M422.56,501.5c3.76,0,7.52,0,11.28,0,.75,0,1.08.14,1,1-.09,1.15.36,2.71-.23,3.34s-2.16.24-3.3.26c-1.52,0-3,0-4.56,0-.84,0-1.07.23-1.06,1.07,0,5.92,0,11.84,0,17.75,0,1-.3,1.29-1.27,1.22a32,32,0,0,0-4,0c-.88.05-1.14-.19-1.14-1.11,0-5.88,0-11.76.05-17.63,0-1.07-.27-1.35-1.32-1.31-2.32.08-4.64,0-7,0-.66,0-.93-.15-.88-.86.08-1.19-.35-2.72.24-3.47.46-.58,2.15-.23,3.29-.23C416.73,501.49,419.65,501.5,422.56,501.5Z" transform="translate(-4.24 -315.13)"/><path class="cls-2" d="M307.6,513.79c0,3.76,0,7.51,0,11.27,0,.77-.17,1-1,1-1.52-.07-3,0-4.56,0-.61,0-.84-.16-.84-.8,0-7.67,0-15.35,0-23a1,1,0,0,1,.73-.71c1.56-.07,3.12,0,4.67-.05.73,0,.94.17.93.92C307.58,506.2,307.6,510,307.6,513.79Z" transform="translate(-4.24 -315.13)"/><path class="cls-2" d="M454,513.72c0-3.71,0-7.43,0-11.14,0-.93.25-1.15,1.13-1.1,1.43.08,2.88,0,4.31,0,.63,0,.91.11.91.83q0,11.44,0,22.88c0,.69-.22.88-.89.86-1.52,0-3-.06-4.55,0-.79,0-.91-.28-.9-1C454,521.31,454,517.51,454,513.72Z" transform="translate(-4.24 -315.13)"/><path class="cls-5" d="M401.4,360.77a10.52,10.52,0,1,1-10.48-10.56A10.5,10.5,0,0,1,401.4,360.77Zm-1,0a9.48,9.48,0,1,0-9.43,9.45A9.47,9.47,0,0,0,400.35,360.76Z" transform="translate(-4.24 -315.13)"/><path class="cls-6" d="M387,360.59c0-1.8,0-3.59,0-5.39,0-.24.38-.67.59-.68,1.59,0,3.2-.08,4.79,0a3.33,3.33,0,0,1,3.21,2.59A3.51,3.51,0,0,1,394,361a1,1,0,0,0-.26.88c.51,1.34,1.11,2.64,1.63,4a3.43,3.43,0,0,1,.08,1c-.51-.16-1.29-.16-1.48-.5a24.38,24.38,0,0,1-1.63-3.71,1.37,1.37,0,0,0-1.55-1.07c-2.29.05-2.29,0-2.29,2.34,0,.6,0,1.2,0,1.8s.26,1.22-.79,1.2-.71-.64-.72-1.14c0-.88,0-1.76,0-2.63S387,361.43,387,360.59Zm1.52-2.56a16.29,16.29,0,0,0,0,1.67c0,.2.27.53.41.53a21.41,21.41,0,0,0,3.67-.21,1.94,1.94,0,0,0,1.43-2.4,1.9,1.9,0,0,0-2-1.68c-.48,0-1,0-1.43,0C388.52,355.93,388.52,355.93,388.52,358Z" transform="translate(-4.24 -315.13)"/></svg>