<svg id="Lager_1" data-name="Lager 1" xmlns="http://www.w3.org/2000/svg" viewBox="0 0 750.07 176.42"><defs><style>.cls-1{fill:#03a5e4;}</style></defs><title>etteplan</title><path class="cls-1" d="M129.68,450.56c11.45-5.62,22.37-11.24,33.54-16.35,6.38-2.92,5.8-6,2.35-11.14-5.49-8.22-11.15-10-20.17-4.85-9.36,5.31-19.68,8.91-30.14,13.5L100.32,412l37.92-16.18c-2.34-11.28-9.76-15.62-18.55-12.16-10.36,4.08-20.7,8.21-31.5,12.49l-12.34-16.7L206.4,332.93l13.84,11.22-26.92,11.31c4.48,11,10.86,13.85,20.07,10,6.9-2.89,13.78-5.83,21.11-8.92L250.87,371c-8.9,5.07-18.95,7.24-27,13,5.12,12,12.57,15,23.27,10q9.26-4.37,18.54-8.68a9,9,0,0,1,1.41-.32l9.63,8.19,9.77,8.33L234.1,429.3c-9.55-10-19.32-20.39-29.28-30.6s-20.2-20.34-30.31-30.5c-5.38-5.41-16.37-2.79-19.81,6l61.71,64.48-68.1,36.59Z" transform="translate(-75.85 -332.93)"/><path class="cls-1" d="M569.88,427.44h18.24l.62,6.65c7.58-6.85,16.55-8.2,25.91-8.43,9.95-.24,17.76,3.8,23.61,11.64,8.45,11.32,6.59,31-3.74,41.43-9.89,9.95-31.58,10.23-45.37.14v30.5h-19a23.13,23.13,0,0,1-.28-2.51C569.87,480.55,569.88,454.26,569.88,427.44Zm52.49,28.75c-.13-12.27-5.83-18.61-16.6-18.45-9.83.14-16.26,7.62-16.19,18.82.07,11.4,6.87,18.31,17.9,18.2C616.9,474.65,622.49,467.68,622.37,456.18Z" transform="translate(-75.85 -332.93)"/><path class="cls-1" d="M374,472.65v12.19H314.45V406.61h58.9v11.63H335V438.1h34.67v12.22H335v22.33Z" transform="translate(-75.85 -332.93)"/><path class="cls-1" d="M746,484.9H729.5l-.71-7.31C716.9,488,704,488.61,690.36,483c-6.5-2.67-10.59-7.26-10.57-14.82,0-7.76,4.25-12.45,10.94-15.12,11.86-4.73,24.35-4.8,37.21-3.9.13-6.42-2.65-10.11-8.44-11.39-10.94-2.42-21,1.37-31.24,5.06v-13.6c14.73-3.7,29.47-5.79,44.27-1.28,9.23,2.81,13.35,10,13.44,19.49C746.08,459.77,746,472.08,746,484.9ZM728.1,458.79c-8.69.79-17.09-2.06-25,2-5.8,3-6.71,9.82-1.47,12.68,6,3.28,12.34,1.85,18.14-.94C725.07,470,728.08,465.62,728.1,458.79Z" transform="translate(-75.85 -332.93)"/><path class="cls-1" d="M776.47,484.9H757.42V427.49h18.36l.46,7c9.45-9.72,21.14-9.82,32.72-8.16,9.51,1.36,15.94,7.83,16.53,17.47.83,13.55.21,27.18.21,41H806.14c0-10.57.08-21,0-31.43-.07-7-.19-14.17-9.6-15.36-9.58-1.22-16.46,3.16-18.65,12.5C775.26,461.65,777.53,473.07,776.47,484.9Z" transform="translate(-75.85 -332.93)"/><path class="cls-1" d="M562.25,461.07H511.18c1.94,15,18.44,18.19,45.32,8.87V482c-16.52,5.33-33.1,7.12-49.45-.76-11.38-5.48-16.26-15.07-14.91-27.87A29.85,29.85,0,0,1,514.74,427a50,50,0,0,1,29.07,1.22C557.34,432.95,564.43,445.46,562.25,461.07ZM512,449.8h31a14.32,14.32,0,0,0-14.61-13.51C519,436.25,512.77,441.23,512,449.8Z" transform="translate(-75.85 -332.93)"/><path class="cls-1" d="M486.65,438.8H469.26c0,9-.11,17.66,0,26.26.12,7.7,4.21,10.76,11.74,9.45,1.78-.31,3.59-.43,5.92-.69l.95,11.51c-5.18.32-10,1.06-14.74.84-18.1-.83-23.13-6.26-23.13-24.35,0-7.47,0-14.94,0-23H437.74V427.53H450v-12.1l19.2-4.49v16.23h17.42Z" transform="translate(-75.85 -332.93)"/><path class="cls-1" d="M381.89,438.86V427.34h14.93v-12l19.24-4.72v16.56h14.62v11.37H416.3c0,10.07-.34,19.54.12,29,.32,6.57,5.55,7,10.7,6.75l6.71-.31v11c-8.54,1.23-17.12,2.15-25.58-.38-7.24-2.17-10.93-7.69-11.22-14.94-.41-10.11-.1-20.24-.1-30.8Z" transform="translate(-75.85 -332.93)"/><path class="cls-1" d="M670.76,484.89H652.24V401h18.52Z" transform="translate(-75.85 -332.93)"/></svg>