<svg id="Layer_1" data-name="Layer 1" xmlns="http://www.w3.org/2000/svg" viewBox="0 0 283.46 121.1"><defs><style>.cls-1{fill:#949397;}.cls-2{fill:#dd052b;}.cls-3{fill:#fdeb18;}.cls-4{fill:#020303;}.cls-5{fill:#010202;}.cls-6{fill:#030403;}.cls-7{fill:#010101;}.cls-8{fill:#020202;}.cls-9{fill:#040504;}.cls-10{fill:#050605;}.cls-11{fill:#060706;}.cls-12{fill:#070706;}.cls-13{fill:#070806;}.cls-14{fill:#0b0b07;}.cls-15{fill:#0d0d08;}.cls-16{fill:#090906;}.cls-17{fill:#080806;}.cls-18{fill:#0e0e09;}.cls-19{fill:#13120c;}.cls-20{fill:#17160e;}.cls-21{fill:#10100a;}.cls-22{fill:#090a07;}.cls-23{fill:#11110b;}.cls-24{fill:#272515;}.cls-25{fill:#f7e710;}.cls-26{fill:#f6e50e;}.cls-27{fill:#f4e305;}.cls-28{fill:#f3e207;}.cls-29{fill:#f7e509;}.cls-30{fill:#f1e001;}</style></defs><title>nosp_vs</title><path class="cls-1" d="M73.49,6.74h2.59L90.61,24.51h.06V6.74h2.16v20.8h-2.5L75.7,9.77h-.06V27.54H73.49Z"/><path class="cls-1" d="M107.16,6.22c5.91,0,11.3,3.58,11.3,10.92s-5.39,10.92-11.3,10.92-11.3-3.58-11.3-10.92S101.24,6.22,107.16,6.22Zm0,19.86c4.57,0,9-2.68,9-8.94s-4.4-8.95-9-8.95-9,2.68-9,8.95S102.59,26.08,107.16,26.08Z"/><path class="cls-1" d="M121.84,6.74h11.33c3.53,0,6.76,1.25,6.76,5.62a5.07,5.07,0,0,1-4.08,5v.06c2.94.47,3.55,2.36,3.7,5.77.06,1.31.23,3.84.73,4.31h-2.33c-.38-.44-.52-2-.55-4.25-.06-3.67-1.46-4.9-5-4.9H124v9.15h-2.15ZM124,16.41h9.12c2.36,0,4.48-.87,4.48-4s-2.3-3.64-4.28-3.64H124Z"/><path class="cls-1" d="M143.43,6.74h11.33c3.53,0,6.76,1.25,6.76,5.62a5.07,5.07,0,0,1-4.08,5v.06c2.94.47,3.55,2.36,3.7,5.77.06,1.31.23,3.84.73,4.31h-2.33c-.38-.44-.52-2-.55-4.25-.06-3.67-1.46-4.9-5-4.9h-8.36v9.15h-2.15Zm2.15,9.67h9.12c2.36,0,4.49-.87,4.49-4s-2.3-3.64-4.28-3.64h-9.32Z"/><path class="cls-1" d="M165,6.74h2.15V18L180.59,6.74h3.12L173.4,15.33l11,12.21h-3.06l-9.64-10.75-4.55,3.73v7H165Z"/><path class="cls-1" d="M196.73,6.22c5.91,0,11.3,3.58,11.3,10.92s-5.39,10.92-11.3,10.92-11.3-3.58-11.3-10.92S190.81,6.22,196.73,6.22Zm0,19.86c4.58,0,9-2.68,9-8.94s-4.4-8.95-9-8.95-9,2.68-9,8.95S192.16,26.08,196.73,26.08ZM192.36,2.26h2.16v3.2h-2.16Zm6.58,0h2.16v3.2h-2.16Z"/><path class="cls-1" d="M211.41,6.74h11.21c3.2,0,6.26,1.6,6.26,6,0,3.93-2.59,6.06-7.23,6.06h-8.1v8.74h-2.15Zm2.15,10.08h8.33c3.61,0,4.66-1.66,4.66-4.08,0-3.12-1.74-4-4.22-4h-8.77Z"/><path class="cls-1" d="M231.8,6.74H234v20.8H231.8Z"/><path class="cls-1" d="M238,6.74h2.59l14.54,17.77h.05V6.74h2.16v20.8h-2.5L240.24,9.77h-.06V27.54H238Z"/><path class="cls-1" d="M280.67,23.6h-.06A9.41,9.41,0,0,1,272,28.06c-7,0-10.89-4.43-10.89-10.92,0-6.29,4.23-10.92,11.13-10.92,5.79,0,9.5,3.26,10,7.1h-2.33c-.84-3.52-4-5.13-7.72-5.13-5.68,0-8.79,3.47-8.79,8.95s2.85,8.94,8.39,8.94c6.24,0,8.21-3.55,8.85-7.28H273v-2h9.61V27.54H281Z"/><path class="cls-1" d="M78.57,45.1c.11,2.29,1.53,3,3.69,3,1.53,0,3.11-.54,3.11-2,0-1.72-2.78-2.05-5.6-2.84s-5.71-2-5.71-5.62c0-4.26,4.29-5.92,7.94-5.92,3.88,0,7.78,1.88,7.81,6.28H84.74c.08-1.78-1.59-2.35-3.14-2.35-1.09,0-2.46.38-2.46,1.66,0,1.5,2.81,1.78,5.65,2.57s5.65,2.1,5.65,5.62c0,4.94-4.21,6.53-8.5,6.53-4.48,0-8.44-2-8.47-7Z"/><path class="cls-1" d="M105.77,39.12c-.27-2-1.8-3-3.93-3-3.28,0-4.54,2.9-4.54,5.79s1.26,5.79,4.54,5.79a3.62,3.62,0,0,0,3.93-3.61h5.08c-.27,5-4,8-8.91,8-5.9,0-9.72-4.51-9.72-10.16S96,31.74,101.94,31.74c4.2,0,8.77,2.68,8.91,7.37Z"/><path class="cls-1" d="M113.55,32.15h5.08v19.5h-5.08Z"/><path class="cls-1" d="M122.15,32.15h15.54v4.07H127.23v3.41h9.56v3.93h-9.56v3.72H138v4.37H122.15Z"/><path class="cls-1" d="M140.8,32.15H146l6.77,12h.05v-12h4.78v19.5h-5.22L145.63,39.5h-.05V51.65H140.8Z"/><path class="cls-1" d="M174,39.12c-.27-2-1.8-3-3.93-3-3.28,0-4.54,2.9-4.54,5.79s1.26,5.79,4.54,5.79A3.62,3.62,0,0,0,174,44.08h5.08c-.27,5-4,8-8.9,8-5.9,0-9.72-4.51-9.72-10.16s3.82-10.16,9.72-10.16c4.2,0,8.77,2.68,8.9,7.37Z"/><path class="cls-1" d="M181.82,32.15h15.54v4.07H186.9v3.41h9.56v3.93H186.9v3.72h10.74v4.37H181.82Z"/><path class="cls-1" d="M209.13,32.15h9.26c3.63,0,7,1.67,7,6.28,0,4.83-2.76,6.72-7,6.72h-4.18v6.5h-5.08Zm5.08,9.07h3.41c1.59,0,2.73-.66,2.73-2.43s-1.18-2.57-2.73-2.57h-3.41Z"/><path class="cls-1" d="M231.11,32.15h5.16l7.29,19.5h-5.3l-1.2-3.5h-6.8L229,51.65h-5.21Zm.33,12.24h4.42l-2.15-6.83h-.06Z"/><path class="cls-1" d="M245,32.15H255c3.44,0,6.83,1.56,6.83,5.49a5,5,0,0,1-3.06,4.89v.05c2.08.49,2.68,2.81,2.84,4.67.05.82.14,3.69.82,4.4h-5a9.47,9.47,0,0,1-.57-3.12c-.14-2-.46-4-2.84-4h-3.85v7.1H245Zm5.08,8.47h4.26a2.09,2.09,0,0,0,2.35-2.29c0-1.45-1.15-2.1-2.57-2.1h-4Z"/><path class="cls-1" d="M264.75,32.15h5.08v7.49l6.42-7.49h6.31l-7.21,7.68,8.12,11.83h-6.31l-5.24-8.19-2.07,2.18v6h-5.08Z"/><path class="cls-2" d="M4.36,38.26l1.91-1A48.11,48.11,0,0,1,0,35.77v4.79H.47C2.1,39.54,3.46,38.73,4.36,38.26Z"/><path class="cls-2" d="M37.11,30.35A81.31,81.31,0,0,0,26.59,36c4.12-.38,8.19-.93,12.15-1.47s7.47-1,11-1.34q4.5-.42,8.7-.62v-2.2A94.21,94.21,0,0,0,37.11,30.35Z"/><path class="cls-2" d="M.9,42.23,0,42.8v7.35a93.35,93.35,0,0,0,10.12-1.61c1.82-2.07,3.53-3.92,4.82-5.24C10.46,42.77,5.75,42.36.9,42.23Z"/><path class="cls-2" d="M42,28.24a104.69,104.69,0,0,1,16.47.46V23.58A77.56,77.56,0,0,0,42,28.22Z"/><path class="cls-2" d="M12.85,47.94c3.6-.83,7.16-1.76,10.62-2.68l1.81-.47c-2.63-.43-5.4-.85-8.27-1.23C15.92,44.6,14.46,46.15,12.85,47.94Z"/><path class="cls-2" d="M23.27,36.25a68,68,0,0,1,8.42-5.1A85,85,0,0,0,12.31,36.3,82.83,82.83,0,0,0,23.27,36.25Z"/><path class="cls-2" d="M58.44,48.25v-4.7c-1.16-.17-2.34-.3-3.54-.41a76.65,76.65,0,0,0-21.67,1.43l1.84.36C42.58,46.4,50.63,48,58.44,48.25Z"/><path class="cls-2" d="M9.17,37.69c-1.33.62-2.67,1.29-4,2-.49.26-1.06.59-1.7,1,4.5.21,8.87.63,13,1.15,1.49-1.37,3-2.63,4.44-3.8A73.78,73.78,0,0,1,9.17,37.69Z"/><path class="cls-2" d="M36,28.82l.62-.07c1.47-.67,3-1.35,4.71-2a79.28,79.28,0,0,1,17.07-4.79V0H0V34a47,47,0,0,0,8.93,2C16.68,32.42,24.21,30.48,36,28.82Z"/><path class="cls-2" d="M39,36.14c-4.91.66-10,1.36-15.12,1.72a66.73,66.73,0,0,0-5.25,4.25c2.57.35,5,.74,7.42,1.13,1,.17,2.08.36,3.14.56A80.71,80.71,0,0,1,55,41.5c1.15.1,2.29.23,3.4.39V34.2q-4.14.21-8.55.61C46.39,35.13,42.78,35.62,39,36.14Z"/><path class="cls-2" d="M0,51.76v6.68H2c1.76-2.4,4.07-5.23,6.36-7.89C5.6,51.07,2.8,51.49,0,51.76Z"/><path class="cls-2" d="M29.19,45.48l-.9.22-4.4,1.15C19.8,47.93,15.45,49.08,11,50c-2.42,2.77-5,5.83-6.93,8.42H58.44V49.9c-7.94-.27-16.08-1.87-23.69-3.36C32.84,46.17,31,45.81,29.19,45.48Z"/><path class="cls-3" d="M58.54,106.83v3.7a4.79,4.79,0,0,0-.21-.52,2,2,0,0,0-2.44-.92,2,2,0,0,0-1.27,2.12,2,2,0,0,0,2,1.68,2.08,2.08,0,0,0,1.73-1c.11,2.94.07,5.87,0,8.81,0,0-.08.09-.12.15a3.58,3.58,0,0,1-1,0c.18-.22.46-.31.63-.55a1.56,1.56,0,0,0-1.63-2.47A1.56,1.56,0,0,0,55,119.17a1.77,1.77,0,0,0,.94,1.72H36.27a5.1,5.1,0,0,0,.55-.51,1.61,1.61,0,0,0-.17-2.22,1.68,1.68,0,0,0-2.17,0,1.63,1.63,0,0,0-.13,2.23,4.67,4.67,0,0,0,.48.45,20.85,20.85,0,0,1-2.62,0,5,5,0,0,0,.4-.4,1.66,1.66,0,1,0-1.9.42c.14.07.31.05.42.2H27.48a5.86,5.86,0,0,0,.58-.3,1.7,1.7,0,0,0,.7-1.92,1.73,1.73,0,0,0-1.56-1.19,1.7,1.7,0,0,0-1.64,1.21,1.66,1.66,0,0,0,.71,1.9c.15.1.39.06.45.3H23.48c.11-.26.41-.27.59-.43a1.72,1.72,0,0,0-1.46-3,1.77,1.77,0,0,0-1.38,1.62,2,2,0,0,0,.78,1.56,17.45,17.45,0,0,1-2.44,0,5.45,5.45,0,0,0,.51-.55,1.59,1.59,0,0,0-.1-2,1.68,1.68,0,0,0-1.9-.44,1.65,1.65,0,0,0-.94,1.7,2,2,0,0,0,.83,1.31H0c0-.22,0-.44,0-.67Q0,99.4,0,78.57c0-.22,0-.44,0-.67a6.43,6.43,0,0,0,.46.7,1.91,1.91,0,0,0,2.91,0,1.85,1.85,0,0,0,.46-1.19l.3.24a1.86,1.86,0,0,0,1.61,1.7A2.08,2.08,0,0,0,8,78.27c.63-1.24,0-2.43-1.48-3a2.74,2.74,0,0,0,1.63-1.49c0-.07.14-.1.22-.14A1.7,1.7,0,0,0,9.9,75.11c0,.37-.32.33-.52.46a2.07,2.07,0,0,0-1,2.38,2,2,0,0,0,3.93-.23,2.08,2.08,0,0,0-1.14-2.21c-.22-.11-.48-.15-.63-.38,1.06.08,1.42-.77,1.92-1.46a2,2,0,0,0,2,1.55,2.21,2.21,0,0,0,2.22-1.76c.48,1.33,1.28,1.88,2.41,1.69a2,2,0,0,0,1.7-2,2,2,0,0,0-1.6-2.07c-1.13-.23-2,.3-2.53,1.62a2.22,2.22,0,0,0-2-1.67,2.16,2.16,0,0,0-2.24,1.53A2.18,2.18,0,0,0,10,71.08a1.76,1.76,0,0,0-1.61,1.5c-.37,0-.35-.42-.51-.63a2.14,2.14,0,0,0-2.27-.85A2.24,2.24,0,0,0,4,72.93a2.28,2.28,0,0,0,1.16,2c.22.13.51.06.68.29a1.85,1.85,0,0,0-1.66,1.55c-.14.07-.1.31-.3.32A2,2,0,0,0,1.32,75.5,2.31,2.31,0,0,0,0,76.78V73.61a6.45,6.45,0,0,0,.37.64,1.94,1.94,0,0,0,2.37.6A1.93,1.93,0,0,0,2,71.2a2.06,2.06,0,0,0-2,1.41V63.48l7.44,0,11.06,0a3.46,3.46,0,0,0-.55.35,1.17,1.17,0,0,0,0,1.75,1.19,1.19,0,1,0,1.55-1.81,3.56,3.56,0,0,0-.48-.29h3.28a3.8,3.8,0,0,0-.5.56A1.29,1.29,0,0,0,22,65.69a1.42,1.42,0,0,0,1.59.18,1.38,1.38,0,0,0,.61-1.56,2,2,0,0,0-.61-.82,27.78,27.78,0,0,1,3,0,4.28,4.28,0,0,0-.4.4,1.27,1.27,0,0,0,.14,1.79,1.41,1.41,0,0,0,1.75,0,1.35,1.35,0,0,0,.07-1.81,3.42,3.42,0,0,0-.42-.37h3a3.73,3.73,0,0,0-.46.46,1.26,1.26,0,0,0,.09,1.65,1.33,1.33,0,0,0,2.28-1.2,1.91,1.91,0,0,0-.63-.92,20.84,20.84,0,0,1,2.62,0,3.65,3.65,0,0,0-.43.62,1.54,1.54,0,0,0,.72,1.95,1.53,1.53,0,0,0,2-.76,1.61,1.61,0,0,0-.46-1.81h2.6a3.61,3.61,0,0,0-.44.49,1.37,1.37,0,0,0,.27,1.79,1.36,1.36,0,0,0,1.91-1.92c-.1-.12-.21-.24-.31-.35h3a3.77,3.77,0,0,0-.49.43,1.28,1.28,0,0,0,.1,1.72,1.3,1.3,0,0,0,1.73,0,1.23,1.23,0,0,0,.12-1.71,3.56,3.56,0,0,0-.5-.43c1.05,0,2.1-.05,3.15,0a4.23,4.23,0,0,0-.45.47,1.3,1.3,0,0,0,.06,1.57,1.37,1.37,0,0,0,1.55.32,1.31,1.31,0,0,0,.67-1.43c-.08-.45-.42-.67-.72-.95H52a3.17,3.17,0,0,0-.52.39,1.23,1.23,0,0,0,1.78,1.69,1.19,1.19,0,0,0,0-1.71,3.57,3.57,0,0,0-.53-.39h5.72c0,1.94,0,3.75,0,5.57,0,.31-.1.64.12.92q0,18,0,36c0,.19,0,.38,0,.57a5,5,0,0,0-.25-.7,1.93,1.93,0,0,0-2.44-.88,1.94,1.94,0,0,0,1,3.72C57.73,108.58,58.28,108,58.54,106.83ZM21,86.06a1.94,1.94,0,0,0,2.2,1.71,2,2,0,0,0,1.83-2,2.1,2.1,0,0,0-1.79-2.11A2,2,0,0,0,21,85.37c-.46.16-.32-.27-.41-.44a2,2,0,0,0-3-.75,2,2,0,0,0-.68,2.13,2,2,0,0,0,1.64,1.39,2.05,2.05,0,0,0,2.06-1.07C20.66,86.43,20.45,86,21,86.06Zm25.2,16.61a2,2,0,0,0,2.09,2,2.06,2.06,0,0,0,2-2.12,2,2,0,0,0-1.92-2,1.93,1.93,0,0,0-2.13,1.88c-.37,0-.29-.35-.38-.56a2,2,0,0,0-3.81.79,2,2,0,0,0,1.58,1.88,2,2,0,0,0,2.22-1.21C45.89,103,45.85,102.75,46.17,102.66Zm-27.91-6.4c-.93,0-1.23.81-1.74,1.37a2.12,2.12,0,0,0-2.23-1.35,1.92,1.92,0,0,0-1.69,1.52l-.22.16c-.57-1.2-1.31-1.7-2.27-1.55a1.94,1.94,0,0,0-.68,3.64c1.46.68,2.46.05,2.91-1.4l.25.18c.09.86.7,1.25,1.43,1.56a3.26,3.26,0,0,0-1.6,1.55c-.8-1.23-1.61-1.64-2.6-1.35a1.9,1.9,0,0,0-1.45,1.89,2,2,0,0,0,1.32,2c1,.34,1.83,0,2.73-1.27,1.27,2,2.71,2,4.16.12a3.4,3.4,0,0,0,1.4,1.46c-1.38,1-1.66,2.35-.74,3.35a2,2,0,0,0,1.43.66,2.33,2.33,0,0,0,2-1.18A5,5,0,0,0,21.89,109c-1.26,1.06-1.48,2.44-.59,3.43a2.16,2.16,0,0,0,1.5.72,2.34,2.34,0,0,0,2.2-1.2c.46.54.77,1.13,1.5,1.18.13.25,0,.31-.22.4a1.79,1.79,0,0,0-.86,1,1.89,1.89,0,0,0,3.36,1.72,2,2,0,0,0-.47-2.55c-.19-.16-.63-.08-.54-.53,1-.08,1.39-.87,1.71-1.69.59,1.13,1.3,1.57,2.2,1.39a1.84,1.84,0,0,0,1.55-1.68,1.89,1.89,0,0,0-2.69-1.87,2.56,2.56,0,0,0-1.09,1.26c-.14-.83-.73-1.2-1.12-1.7.62-.5,1.16-1,1.09-1.83.26,0,.28.18.37.35a1.7,1.7,0,0,0,2,1.08A1.65,1.65,0,0,0,33,106.75a1.67,1.67,0,0,0-1.3-1.66,1.7,1.7,0,0,0-2,1.11c-.08.17-.1.37-.36.37.11-1-.6-1.42-1.19-2,.43-.36.92-.63,1-1.23.1-.07.18-.18.32-.15a2,2,0,0,0,2.31,1.2,1.83,1.83,0,0,0,1.4-1.81,1.86,1.86,0,0,0-1.29-1.89,2,2,0,0,0-2.48,1.21c-.27-.06-.19-.39-.38-.51-.15-.5-.67-.65-1-1a4.46,4.46,0,0,0,1.18-1.23,2.26,2.26,0,0,0,2,1.35,2.45,2.45,0,0,0,2.1-1.4c1.25,2,3.13,1.94,4.28-.18.39.63.74,1.29,1.58,1.36l.17.22c-.12.25-.39.16-.57.25a2,2,0,0,0,.79,3.72,1.87,1.87,0,0,0,2-1.44,1.92,1.92,0,0,0-1.22-2.36c-.18-.08-.5,0-.32-.39a1.89,1.89,0,0,0,1.69-1.74,2,2,0,0,0-1.37-2.14c-1-.37-1.77,0-2.76,1.33a2.11,2.11,0,0,0-2-1.58,2.19,2.19,0,0,0-2.21,1.44,2.27,2.27,0,0,0-4.16-.08,2.34,2.34,0,0,0-4.23-.16A2.91,2.91,0,0,0,23.51,96c1.23-.75,1.57-1.42,1.28-2.47a2,2,0,0,0-3.74.14c-.23.94.22,1.71,1.38,2.33a2.8,2.8,0,0,0-1.58,1.29c-.54-.46-.83-1.06-1.54-1-.14-.47.33-.38.51-.52a1.94,1.94,0,0,0,.78-2.08,1.73,1.73,0,0,0-1.39-1.38,1.85,1.85,0,0,0-2,.73,1.91,1.91,0,0,0,.59,2.79C18,95.93,18.36,95.85,18.26,96.26Zm34.11,12.46a2,2,0,0,0,2-1.94,2.07,2.07,0,0,0-2.06-2,2,2,0,0,0-1.94,2A1.88,1.88,0,0,0,52.37,108.72ZM6.1,104.52a2,2,0,0,0,.12-3.93,2,2,0,1,0-.12,3.93ZM21,73.09a1.94,1.94,0,0,0,1.87,2,1.95,1.95,0,1,0-1.87-2Zm31.5,27.52a2,2,0,0,0-2.1,1.88,2,2,0,0,0,1.9,2,1.94,1.94,0,0,0,2-1.85A1.9,1.9,0,0,0,52.49,100.61ZM14.59,91.89A2,2,0,0,0,16.51,90a2,2,0,0,0-2-2,1.95,1.95,0,1,0,.09,3.89Zm6.11-2A1.91,1.91,0,0,0,18.76,88a1.94,1.94,0,1,0,0,3.89A1.9,1.9,0,0,0,20.69,89.93ZM8,98.39a1.8,1.8,0,0,0-1.86-1.95,1.87,1.87,0,0,0-2,1.84,1.9,1.9,0,0,0,1.93,2A1.84,1.84,0,0,0,8,98.39Zm27.59,2.22a1.93,1.93,0,0,0-2,1.87,1.94,1.94,0,1,0,2-1.87ZM27.14,83.85a1.87,1.87,0,0,0-1.91,1.83,2,2,0,0,0,1.9,2A1.85,1.85,0,0,0,29,85.75,1.79,1.79,0,0,0,27.14,83.85Zm-2.3,6.06a1.85,1.85,0,0,0-2-1.86A1.91,1.91,0,0,0,23,91.87,1.87,1.87,0,0,0,24.84,89.91ZM23.05,67.05a1.85,1.85,0,0,0-2,1.8,2,2,0,0,0,1.86,2,1.9,1.9,0,0,0,2-1.8A1.81,1.81,0,0,0,23.05,67.05ZM16.44,94.1a1.85,1.85,0,0,0-1.89-1.85,1.89,1.89,0,0,0-1.92,1.93,2,2,0,0,0,2,1.88A1.92,1.92,0,0,0,16.44,94.1Zm29.4,4.26A1.81,1.81,0,0,0,44,96.48a1.9,1.9,0,0,0-1.93,1.84,2,2,0,0,0,1.93,2A1.87,1.87,0,0,0,45.84,98.36Zm-8.4-12.6a1.83,1.83,0,0,0-1.81-1.91,1.85,1.85,0,0,0-2,1.87,1.88,1.88,0,1,0,3.76,0Zm-21,21a1.85,1.85,0,0,0-1.88-1.85,2,2,0,0,0-1.9,2,2,2,0,0,0,2,1.82A1.88,1.88,0,0,0,16.41,106.73ZM18.7,67.08a1.85,1.85,0,1,0,1.91,1.8A1.82,1.82,0,0,0,18.7,67.08ZM12.21,94.16a1.86,1.86,0,1,0-3.71-.05A1.78,1.78,0,0,0,10.33,96,1.8,1.8,0,0,0,12.21,94.16ZM22.93,117a1.87,1.87,0,0,0,1.88-1.87,2,2,0,0,0-1.9-1.86,1.92,1.92,0,0,0-1.82,1.85A1.86,1.86,0,0,0,22.93,117ZM10.32,88.08a1.84,1.84,0,0,0-1.82,1.83,1.82,1.82,0,0,0,1.83,1.9,1.86,1.86,0,1,0,0-3.73ZM6.11,104.9a1.81,1.81,0,0,0-1.8,1.91,1.79,1.79,0,0,0,1.82,1.8,1.85,1.85,0,1,0,0-3.7Zm31.3,10.29a1.85,1.85,0,1,0-3.7,0,1.85,1.85,0,0,0,3.7,0ZM4.3,94.12A1.82,1.82,0,0,0,6.15,96a1.86,1.86,0,0,0,0-3.73A1.83,1.83,0,0,0,4.3,94.12ZM14.58,75.48a1.87,1.87,0,0,0-1.9,1.83,1.84,1.84,0,0,0,1.86,1.86,1.82,1.82,0,0,0,1.84-1.77A1.84,1.84,0,0,0,14.58,75.48Zm16.76,12.1A1.85,1.85,0,1,0,29.5,85.7,1.81,1.81,0,0,0,31.34,87.58ZM18.79,109.1a1.84,1.84,0,0,0-.05,3.68,1.89,1.89,0,0,0,1.9-1.76A1.92,1.92,0,0,0,18.79,109.1Zm12.56,4.21a1.82,1.82,0,0,0-1.8,1.82A1.76,1.76,0,0,0,31.3,117a1.86,1.86,0,0,0,1.88-1.76A1.89,1.89,0,0,0,31.35,113.31ZM14.57,87.53a1.83,1.83,0,0,0,1.81-1.8,1.9,1.9,0,0,0-1.82-1.82,1.76,1.76,0,0,0-1.8,1.88A1.7,1.7,0,0,0,14.57,87.53ZM1.9,104.33a1.82,1.82,0,0,0,1.87-1.74A1.91,1.91,0,0,0,2,100.71,1.82,1.82,0,0,0,.16,102.5,1.74,1.74,0,0,0,1.9,104.33Zm4.24-21A1.84,1.84,0,0,0,8,81.52a1.89,1.89,0,0,0-1.84-1.81,1.81,1.81,0,0,0,0,3.61ZM1.93,100.13A1.78,1.78,0,0,0,2,96.58a1.78,1.78,0,1,0-.09,3.55Zm23.46-6a1.75,1.75,0,0,0,1.85,1.76A1.8,1.8,0,0,0,29,94.12a1.75,1.75,0,0,0-1.78-1.74A1.71,1.71,0,0,0,25.38,94.17ZM18.7,113.42A1.71,1.71,0,0,0,17,115.17a1.77,1.77,0,0,0,3.54,0A1.71,1.71,0,0,0,18.7,113.42ZM16.25,68.91a1.67,1.67,0,0,0-1.73-1.74,1.75,1.75,0,0,0,0,3.51A1.68,1.68,0,0,0,16.25,68.91Zm-4.2,37.89a1.64,1.64,0,0,0-1.7-1.74,1.71,1.71,0,0,0-1.73,1.65,1.74,1.74,0,0,0,1.73,1.75A1.69,1.69,0,0,0,12.05,106.8ZM28.85,69a1.59,1.59,0,0,0-1.68-1.75,1.7,1.7,0,0,0-1.75,1.63,1.81,1.81,0,0,0,1.73,1.8A1.7,1.7,0,0,0,28.85,69ZM27.16,88.27a1.7,1.7,0,0,0-1.74,1.66,1.78,1.78,0,0,0,1.78,1.75,1.69,1.69,0,0,0,1.65-1.74A1.61,1.61,0,0,0,27.16,88.27ZM3.62,81.54A1.63,1.63,0,0,0,2,79.84,1.72,1.72,0,0,0,.23,81.5a1.76,1.76,0,0,0,1.7,1.72A1.67,1.67,0,0,0,3.62,81.54ZM1.95,105.07a1.69,1.69,0,0,0-1.67,1.62,1.67,1.67,0,1,0,3.35.09A1.69,1.69,0,0,0,1.95,105.07ZM38.14,85.7a1.61,1.61,0,0,0,1.63,1.72,1.66,1.66,0,0,0,1.68-1.6,1.63,1.63,0,0,0-1.61-1.75A1.57,1.57,0,0,0,38.14,85.7ZM14.57,109.27a1.63,1.63,0,0,0-1.68,1.68,1.6,1.6,0,0,0,1.57,1.68A1.67,1.67,0,0,0,16.22,111,1.69,1.69,0,0,0,14.57,109.27Zm43.67,5.87a1.65,1.65,0,1,0-3.3.07,1.65,1.65,0,1,0,3.3-.07ZM12,68.91a1.61,1.61,0,0,0-1.71-1.64A1.64,1.64,0,0,0,8.67,68.9a1.71,1.71,0,0,0,1.68,1.72A1.67,1.67,0,0,0,12,68.91ZM10.35,83.17a1.65,1.65,0,1,0,0-3.3,1.65,1.65,0,1,0,0,3.3ZM46.54,98.34a1.64,1.64,0,1,0,1.61-1.64A1.59,1.59,0,0,0,46.54,98.34ZM18.72,79a1.61,1.61,0,0,0,1.7-1.65,1.69,1.69,0,0,0-1.63-1.65,1.66,1.66,0,0,0-1.7,1.67A1.62,1.62,0,0,0,18.72,79Zm-10,6.82a1.57,1.57,0,0,0,1.64,1.6A1.67,1.67,0,0,0,12,85.73a1.71,1.71,0,0,0-1.64-1.66A1.58,1.58,0,0,0,8.75,85.79ZM.35,111A1.53,1.53,0,0,0,2,112.56,1.61,1.61,0,0,0,3.59,111,1.68,1.68,0,0,0,2,109.29,1.6,1.6,0,0,0,.35,111Zm46.22-4.31a1.57,1.57,0,0,0,1.6,1.72,1.61,1.61,0,0,0,1.65-1.59,1.65,1.65,0,0,0-1.57-1.69A1.63,1.63,0,0,0,46.57,106.67ZM6.16,91.54a1.6,1.6,0,0,0,1.63-1.61A1.73,1.73,0,0,0,6.12,88.3,1.6,1.6,0,0,0,4.55,90,1.48,1.48,0,0,0,6.16,91.54Zm31,2.57a1.67,1.67,0,0,0-1.65-1.61A1.63,1.63,0,0,0,34,94.16a1.56,1.56,0,0,0,1.64,1.58A1.58,1.58,0,0,0,37.19,94.11Zm-4.2,0a1.69,1.69,0,0,0-1.61-1.66,1.61,1.61,0,0,0-1.63,1.61,1.53,1.53,0,0,0,1.58,1.63A1.59,1.59,0,0,0,33,94.16Zm25.2,8.34A1.57,1.57,0,0,0,56.59,101a1.59,1.59,0,1,0,0,3.19A1.56,1.56,0,0,0,58.19,102.5Zm-22.63-11a1.61,1.61,0,0,0,1.63-1.63,1.64,1.64,0,0,0-1.61-1.56A1.58,1.58,0,0,0,34,89.9,1.55,1.55,0,0,0,35.56,91.54ZM1.9,116.74a1.52,1.52,0,0,0,1.64-1.58A1.55,1.55,0,0,0,2,113.58a1.56,1.56,0,0,0-1.64,1.6A1.52,1.52,0,0,0,1.9,116.74Zm39.48-1.55a1.61,1.61,0,0,0-3.21,0,1.61,1.61,0,0,0,3.21,0ZM54,111a1.58,1.58,0,1,0-3.15,0,1.54,1.54,0,0,0,1.55,1.56A1.58,1.58,0,0,0,54,111Zm-37.84,4.18a1.55,1.55,0,0,0-1.52-1.61,1.6,1.6,0,0,0-1.64,1.59,1.53,1.53,0,0,0,1.63,1.59A1.52,1.52,0,0,0,16.11,115.16ZM7.73,69A1.55,1.55,0,0,0,6.2,67.37a1.5,1.5,0,0,0-1.62,1.48,1.53,1.53,0,0,0,1.55,1.66A1.61,1.61,0,0,0,7.73,69Zm21,4.15a1.58,1.58,0,0,0-3.16,0,1.6,1.6,0,0,0,1.58,1.58A1.58,1.58,0,0,0,28.73,73.12ZM44,88.37A1.59,1.59,0,0,0,42.4,90a1.57,1.57,0,0,0,3.13,0A1.58,1.58,0,0,0,44,88.37ZM41.36,90a1.62,1.62,0,0,0-1.56-1.6,1.6,1.6,0,0,0-1.6,1.55,1.56,1.56,0,0,0,1.55,1.59A1.6,1.6,0,0,0,41.36,90ZM32.91,69a1.51,1.51,0,0,0-1.52-1.6,1.53,1.53,0,0,0-1.61,1.52,1.58,1.58,0,0,0,1.53,1.63A1.56,1.56,0,0,0,32.91,69Zm2.65-1.57A1.55,1.55,0,0,0,34,69a1.6,1.6,0,0,0,1.51,1.52A1.56,1.56,0,0,0,37.11,69,1.49,1.49,0,0,0,35.56,67.41ZM24.46,81.5A1.45,1.45,0,0,0,22.9,80a1.55,1.55,0,0,0-1.52,1.52,1.59,1.59,0,0,0,1.56,1.59A1.51,1.51,0,0,0,24.46,81.5Zm23.69,10A1.53,1.53,0,0,0,49.72,90a1.46,1.46,0,0,0-1.46-1.53A1.53,1.53,0,0,0,46.6,89.9,1.64,1.64,0,0,0,48.14,91.51ZM32.86,90a1.45,1.45,0,0,0-1.4-1.59,1.5,1.5,0,0,0-1.65,1.46,1.56,1.56,0,0,0,1.52,1.62A1.49,1.49,0,0,0,32.86,90ZM7.66,110.9a1.47,1.47,0,0,0-1.52-1.48A1.49,1.49,0,0,0,4.61,111a1.53,1.53,0,1,0,3.05-.09ZM6.16,84.23a1.45,1.45,0,0,0-1.55,1.54,1.53,1.53,0,1,0,3.05,0A1.44,1.44,0,0,0,6.16,84.23ZM14.59,80A1.51,1.51,0,0,0,13,81.48,1.54,1.54,0,0,0,14.5,83,1.46,1.46,0,0,0,16,81.57,1.43,1.43,0,0,0,14.59,80Zm42,16.83a1.51,1.51,0,0,0-1.51,1.49,1.55,1.55,0,0,0,1.49,1.53,1.51,1.51,0,0,0,1.54-1.56A1.47,1.47,0,0,0,56.57,96.86Zm-33.67-21a1.45,1.45,0,0,0-1.44,1.44,1.49,1.49,0,1,0,3,0A1.44,1.44,0,0,0,22.9,75.86Zm-2.67,5.8A1.45,1.45,0,0,0,18.87,80a1.48,1.48,0,1,0-.17,3A1.43,1.43,0,0,0,20.23,81.66ZM2,95.6a1.46,1.46,0,0,0,1.47-1.44,1.48,1.48,0,0,0-3-.06A1.45,1.45,0,0,0,2,95.6ZM52.4,92.66a1.42,1.42,0,0,0-1.47,1.41,1.39,1.39,0,0,0,1.41,1.54,1.41,1.41,0,0,0,1.48-1.39A1.45,1.45,0,0,0,52.4,92.66Zm-.08,4.23a1.44,1.44,0,0,0-1.38,1.5,1.39,1.39,0,0,0,1.54,1.41,1.43,1.43,0,0,0,1.35-1.52A1.49,1.49,0,0,0,52.32,96.89ZM41.23,94.12a1.43,1.43,0,0,0-1.44-1.43,1.41,1.41,0,0,0-1.44,1.43,1.43,1.43,0,0,0,1.48,1.49A1.46,1.46,0,0,0,41.23,94.12Zm4.17-8.38a1.47,1.47,0,0,0-1.45-1.44,1.4,1.4,0,0,0-1.38,1.39,1.38,1.38,0,0,0,1.38,1.47A1.41,1.41,0,0,0,45.4,85.74ZM6.08,116.56A1.45,1.45,0,0,0,7.6,115.2a1.47,1.47,0,0,0-1.45-1.45,1.33,1.33,0,0,0-1.41,1.43A1.29,1.29,0,0,0,6.08,116.56Zm22.52-35a1.48,1.48,0,0,0-1.48-1.43,1.39,1.39,0,0,0-1.35,1.42,1.35,1.35,0,0,0,1.34,1.41A1.44,1.44,0,0,0,28.6,81.52Zm8.4,0a1.48,1.48,0,0,0-1.38-1.42,1.41,1.41,0,0,0-1.45,1.43,1.38,1.38,0,0,0,1.36,1.4A1.45,1.45,0,0,0,37,81.51ZM37,111a1.45,1.45,0,0,0-1.37-1.41,1.4,1.4,0,0,0-.11,2.81A1.42,1.42,0,0,0,37,111ZM48.17,95.52a1.37,1.37,0,0,0,1.42-1.34,1.42,1.42,0,1,0-1.42,1.34ZM39.8,70.33a1.46,1.46,0,0,0,1.4-1.39,1.41,1.41,0,0,0-1.38-1.39A1.36,1.36,0,0,0,38.39,69,1.37,1.37,0,0,0,39.8,70.33ZM7.54,119.41A1.37,1.37,0,0,0,6.17,118a1.36,1.36,0,1,0-.06,2.73A1.39,1.39,0,0,0,7.54,119.41ZM3.34,85.76A1.36,1.36,0,0,0,2,84.37,1.33,1.33,0,0,0,.57,85.73a1.39,1.39,0,0,0,2.77,0Zm29.38-4.28a1.38,1.38,0,1,0-2.75.1,1.42,1.42,0,0,0,1.43,1.35A1.4,1.4,0,0,0,32.72,81.48Zm19.66,9.83A1.37,1.37,0,0,0,53.73,90a1.33,1.33,0,0,0-1.37-1.38A1.35,1.35,0,0,0,51,90,1.38,1.38,0,0,0,52.38,91.31Zm-12.57,21a1.37,1.37,0,0,0,1.33-1.34,1.33,1.33,0,0,0-1.43-1.33A1.26,1.26,0,0,0,38.46,111,1.29,1.29,0,0,0,39.81,112.29Zm18.11-18.2a1.27,1.27,0,0,0-1.36-1.27,1.29,1.29,0,0,0-1.31,1.33,1.33,1.33,0,1,0,2.67-.06ZM2,70.29a1.37,1.37,0,0,0,1.28-1.48,1.26,1.26,0,0,0-1.42-1.2A1.29,1.29,0,0,0,.6,69,1.41,1.41,0,0,0,2,70.29Zm1.28,49.07A1.27,1.27,0,0,0,1.88,118a1.34,1.34,0,0,0,0,2.67A1.27,1.27,0,0,0,3.27,119.36Zm7-7.08A1.32,1.32,0,0,0,11.67,111a1.27,1.27,0,0,0-1.23-1.39A1.35,1.35,0,0,0,9,110.93,1.38,1.38,0,0,0,10.31,112.29Zm21-37.86a1.27,1.27,0,0,0,1.32-1.31,1.24,1.24,0,0,0-1.31-1.3A1.26,1.26,0,0,0,30,73.07,1.29,1.29,0,0,0,31.32,74.43Zm9.74,32.38a1.31,1.31,0,0,0-1.28-1.36,1.24,1.24,0,0,0-1.26,1.25A1.19,1.19,0,0,0,39.77,108,1.27,1.27,0,0,0,41.06,106.81ZM15.81,119.36a1.32,1.32,0,0,0-1.26-1.28,1.36,1.36,0,0,0-1.29,1.37,1.32,1.32,0,0,0,1.33,1.23A1.29,1.29,0,0,0,15.81,119.36ZM2,91.21A1.24,1.24,0,0,0,3.24,90,1.35,1.35,0,0,0,2,88.65,1.32,1.32,0,0,0,.66,90,1.24,1.24,0,0,0,2,91.21ZM44,67.65a1.23,1.23,0,0,0-1.25,1.27A1.15,1.15,0,0,0,44,70.16a1.18,1.18,0,0,0,1.27-1.24A1.25,1.25,0,0,0,44,67.65Zm1.26,26.5A1.32,1.32,0,0,0,44,92.85a1.25,1.25,0,0,0-1.26,1.26A1.14,1.14,0,0,0,44,95.36,1.17,1.17,0,0,0,45.24,94.15Zm4.2-8.45a1.29,1.29,0,0,0-1.31-1.22A1.22,1.22,0,0,0,47,85.81,1.16,1.16,0,0,0,48.19,87,1.23,1.23,0,0,0,49.44,85.7ZM35.58,74.33a1.22,1.22,0,0,0,1.22-1.2,1.28,1.28,0,0,0-1.2-1.25,1.21,1.21,0,0,0-1.25,1.27A1.18,1.18,0,0,0,35.58,74.33ZM41,81.54a1.23,1.23,0,0,0-2.45-.09,1.23,1.23,0,1,0,2.45.09Zm8.4-12.59a1.27,1.27,0,0,0-1.18-1.25A1.29,1.29,0,0,0,47,68.86a1.22,1.22,0,1,0,2.45.08ZM11.52,115.19a1.11,1.11,0,0,0-1.1-1.18,1.16,1.16,0,0,0-1.26,1.13,1.18,1.18,0,0,0,1.12,1.19A1.15,1.15,0,0,0,11.52,115.19Zm15.68-39A1.19,1.19,0,0,0,26,77.34a1.17,1.17,0,0,0,1.13,1.16,1.19,1.19,0,0,0,1.22-1.18A1.2,1.2,0,0,0,27.2,76.15ZM11.43,118.86c-.71-.73-1.36-.83-1.89-.31a1.15,1.15,0,0,0,0,1.69c.55.5,1.18.38,1.86-.37A2.34,2.34,0,0,0,11.43,118.86Zm32.49-13.23a1.12,1.12,0,0,0-1.11,1.17,1.15,1.15,0,0,0,1.2,1.1,1.08,1.08,0,0,0,1.07-1.19A1,1,0,0,0,43.91,105.64Zm8.45,12.6a1.13,1.13,0,0,0-1.11,1.18,1.14,1.14,0,0,0,1.09,1.11,1.14,1.14,0,0,0,0-2.29Zm0-48.19a1.09,1.09,0,0,0,1.08-1.17,1.06,1.06,0,0,0-1.17-1.06,1.09,1.09,0,0,0-1.05,1.11A1.12,1.12,0,0,0,52.39,70.05Zm-11.52,49.3a1.09,1.09,0,0,0-1.15-1.11,1.16,1.16,0,0,0-1.08,1.11,1.21,1.21,0,0,0,1.13,1.17A1.11,1.11,0,0,0,40.87,119.35Zm-4.23-12.63a1.1,1.1,0,0,0-1.08-1.08,1.14,1.14,0,0,0-1.12,1.16,1.19,1.19,0,0,0,1.11,1.09A1.13,1.13,0,0,0,36.65,106.72Zm21-37.66a1.07,1.07,0,1,0-2.12-.27A1,1,0,0,0,56.45,70,1,1,0,0,0,57.65,69.06Zm-5.24,47.15a1.06,1.06,0,0,0,1-1.11,1.14,1.14,0,0,0-1.06-1,1.09,1.09,0,0,0-1.06,1.1A1,1,0,0,0,52.41,116.21Zm4.21-52.57a1.07,1.07,0,0,0-1.1,1.06,1,1,0,0,0,1,1.06,1,1,0,0,0,1.14-1A1,1,0,0,0,56.62,63.64ZM39.77,74.17a1.06,1.06,0,0,0,1.08-1.06,1.06,1.06,0,0,0-2.12,0A1,1,0,0,0,39.77,74.17Zm-8.41,4.21a1,1,0,0,0,1.06-1.09,1.08,1.08,0,0,0-1.07-1,1,1,0,0,0-1,1A1,1,0,0,0,31.36,78.37Zm4.25,0a1.05,1.05,0,1,0-.09-2.1,1,1,0,0,0-1,1.06A1,1,0,0,0,35.61,78.37Zm16.76,8.37a1,1,0,0,0,1-1,1.08,1.08,0,0,0-1.08-1.07,1.05,1.05,0,0,0-1,1.07A1,1,0,0,0,52.37,86.74ZM44,80.52a1,1,0,0,0-1,1,1,1,0,0,0,2,0A1,1,0,0,0,44,80.52ZM57.53,90a.92.92,0,0,0-.92-1,.93.93,0,0,0-1,.85,1,1,0,0,0,.88,1A1,1,0,0,0,57.53,90ZM40.61,77.84c.09-.88,0-1.24-.49-1.4a1,1,0,0,0-1.15.41,1,1,0,0,0,.19,1.21C39.57,78.4,39.92,78.36,40.61,77.84Zm-27-13.15c.33.82.56,1,1.12.92a.86.86,0,0,0,.77-.91.83.83,0,0,0-.7-.87C14.21,63.7,14,63.89,13.57,64.69ZM47.3,81.53a.85.85,0,0,0,.86.91.9.9,0,0,0,.91-.87.87.87,0,0,0-.92-.95A.86.86,0,0,0,47.3,81.53Zm-36.54-16c.47-.41.68-.84.3-1.35a.83.83,0,0,0-1.1-.25.81.81,0,0,0-.44,1C9.65,65.45,9.92,65.57,10.76,65.53ZM49.05,110.9a.89.89,0,0,0-.87-.84.87.87,0,0,0-.87.93.87.87,0,1,0,1.74-.09ZM44.83,73.12A.86.86,0,1,0,44,74,.86.86,0,0,0,44.83,73.12Zm4.2,0c-.17-.54-.45-.89-1-.74a.75.75,0,0,0-.62.74.78.78,0,0,0,.65.82C48.6,74,48.88,73.67,49,73.09ZM6.16,63.92a.79.79,0,0,0-.82.74.82.82,0,0,0,.8.86.78.78,0,0,0,.76-.79A.76.76,0,0,0,6.16,63.92Zm41.19,55.5c.17.48.42.85,1,.72a.72.72,0,0,0,.59-.84.7.7,0,0,0-.65-.69C47.72,118.54,47.46,118.88,47.36,119.43Zm4.19-37.87c.17.53.46.84,1,.73a.74.74,0,0,0,.59-.85.66.66,0,0,0-.57-.66C52,80.67,51.69,81,51.55,81.56ZM44,110.22a.71.71,0,0,0-.7.73.71.71,0,1,0,1.41,0A.73.73,0,0,0,44,110.22ZM56.5,85a.66.66,0,0,0-.6.76.69.69,0,1,0,1.39-.08C57.25,85.25,57,85,56.5,85ZM43.4,77.81c.4.26.77.35,1.11,0a.63.63,0,0,0,0-.86.64.64,0,0,0-.83-.23C43.23,76.91,43.23,77.31,43.4,77.81Zm-.06,37c-.06.38-.1.78.44.94a.62.62,0,0,0,.78-.33.57.57,0,0,0-.13-.76C44,114.35,43.7,114.45,43.34,114.85Zm9-42.46c-.45.19-.77.43-.6.93s.56.5,1,.38C53.19,72.94,53.17,72.87,52.35,72.39Zm-4.13,4.25c-.46.1-.77.33-.68.84a.61.61,0,0,0,.61.49.58.58,0,0,0,.64-.44C48.94,77,48.67,76.78,48.22,76.65ZM2.64,64.73c-.11-.4-.3-.73-.77-.67a.61.61,0,0,0-.56.64.59.59,0,0,0,.45.63C2.21,65.45,2.46,65.21,2.64,64.73ZM56,73.15c.14.42.38.66.79.55a.58.58,0,0,0,.43-.66.52.52,0,0,0-.48-.5C56.26,72.47,56.07,72.73,56,73.15ZM52.8,77a.62.62,0,0,0-.77-.09c-.23.26-.33.55-.07.83a.56.56,0,0,0,.84,0A.74.74,0,0,0,52.8,77Zm-4.66,38.76c.32,0,.54-.16.56-.51s-.09-.56-.44-.6a.51.51,0,0,0-.61.54C47.63,115.49,47.83,115.67,48.14,115.72Zm8-34.62c-.22.4-.24.72.19.9a.56.56,0,0,0,.67-.17.57.57,0,0,0-.86-.73ZM43.55,119c-.09.45-.09.81.47.79a.41.41,0,0,0,.44-.49C44.36,118.86,44,118.81,43.55,119ZM57.06,77.33c-.55-.57-.55-.57-.9.1C56.61,77.81,56.61,77.81,57.06,77.33Z"/><path class="cls-4" d="M22,120.88a2,2,0,0,1-.78-1.56,1.77,1.77,0,0,1,1.38-1.62,1.72,1.72,0,0,1,1.46,3c-.18.17-.48.18-.59.43h-1A.64.64,0,0,0,22,120.88Z"/><path class="cls-4" d="M26.72,121.1c-.06-.23-.3-.19-.45-.3a1.66,1.66,0,0,1-.71-1.9,1.7,1.7,0,0,1,1.64-1.21,1.73,1.73,0,0,1,1.56,1.19,1.7,1.7,0,0,1-.7,1.92,5.86,5.86,0,0,1-.58.3Z"/><path class="cls-4" d="M31.11,121.1c-.1-.14-.28-.13-.42-.2a1.66,1.66,0,1,1,1.9-.42,5,5,0,0,1-.4.4c-.17.07-.45-.1-.51.22Z"/><path class="cls-5" d="M36.47,63.48a1.61,1.61,0,0,1,.46,1.81,1.53,1.53,0,0,1-2,.76,1.54,1.54,0,0,1-.72-1.95,3.65,3.65,0,0,1,.43-.62c.13,0,.31,0,.3-.23h1.15C36.14,63.46,36.32,63.44,36.47,63.48Z"/><path class="cls-6" d="M40.5,63.48c.1.12.21.23.31.35a1.36,1.36,0,0,1-1.91,1.92A1.37,1.37,0,0,1,38.64,64a3.61,3.61,0,0,1,.44-.49c.2-.09.48,0,.63-.22h.19C40,63.52,40.3,63.39,40.5,63.48Z"/><path class="cls-7" d="M113.09,96.76h4.65L112,120.67h-3.87l-3.46-12.38-.19,0c-1.22,4.08-2.28,8.22-3.5,12.37H97.08L91.35,96.79H96l3.25,14.91.18,0c1.06-3.91,2-7.86,3-11.79h4.23l3,11.92.14,0Z"/><path class="cls-7" d="M191.47,120.65l-9.35-15-.2.06v15h-4.51V96.77h4.35l9.35,15.07.16-.06v-15h4.53v23.85Z"/><path class="cls-7" d="M138.52,120.69v-24h7.26c4.54,0,7.79,2.27,9.17,6.59a17.27,17.27,0,0,1-.28,11.75,8.44,8.44,0,0,1-6.59,5.58,5.67,5.67,0,0,1-1,.11h-8.1C138.82,120.73,138.7,120.71,138.52,120.69Zm4.54-4h2.64a4.66,4.66,0,0,0,4.83-3.39,12.87,12.87,0,0,0,.61-3.45,13.59,13.59,0,0,0-.66-5.61,4.65,4.65,0,0,0-3.71-3.32,16.8,16.8,0,0,0-3.72,0Z"/><path class="cls-7" d="M128.63,64.15c.26,0,.42-.05.57-.05H133a3,3,0,0,1,.08,1.06q0,7.39,0,14.78a7.73,7.73,0,0,0,.14,1.51A3.05,3.05,0,0,0,135.75,84a5.43,5.43,0,0,0,2.55,0,3.19,3.19,0,0,0,2.45-2.93,8.8,8.8,0,0,0,0-1q0-7.39,0-14.78a3,3,0,0,1,.07-1.08h4.36c.21.19.11.46.11.7q0,7.82,0,15.64a8.7,8.7,0,0,1-.66,3.53,7,7,0,0,1-5.75,4.16,11.62,11.62,0,0,1-4.82-.18,7,7,0,0,1-5.5-6.81c0-.73,0-1.46,0-2.19q0-7,0-14C128.6,64.73,128.62,64.48,128.63,64.15Z"/><path class="cls-7" d="M109.11,80.15l4-.87c.2.67.26,1.33.48,2a4.18,4.18,0,0,0,6,2.47,2.42,2.42,0,0,0,.34-4.27,10.68,10.68,0,0,0-2.22-1.08c-1.41-.58-2.84-1.1-4.22-1.73a5.8,5.8,0,0,1-3.62-4.14,6.91,6.91,0,0,1,5.95-8.43,8.89,8.89,0,0,1,5,.54c2.59,1.16,3.72,3.32,4,6,0,.28,0,.57,0,.93-1.31.37-2.66.61-4,.9a12.41,12.41,0,0,0-.56-2.28,3.16,3.16,0,0,0-4.71-1.6,2.3,2.3,0,0,0-.24,4,7.64,7.64,0,0,0,1.69.86c1.64.68,3.33,1.24,4.93,2a6,6,0,0,1,3.72,6.18,6.4,6.4,0,0,1-4.17,6,10,10,0,0,1-8.14-.13A7.4,7.4,0,0,1,109.11,80.15Z"/><path class="cls-7" d="M83.54,96.64a6.65,6.65,0,0,1,5.91,6c.05.52.35,1,.06,1.66l-4,.85c-.39-.79-.33-1.66-.71-2.42A2.59,2.59,0,0,0,82,100.89a4.34,4.34,0,0,0-1.82.33A2.24,2.24,0,0,0,79,103.27a2.31,2.31,0,0,0,1.32,2.1,49.88,49.88,0,0,0,5.12,2.11,9.88,9.88,0,0,1,3.83,2.61,4.34,4.34,0,0,1,.92,2,7,7,0,0,1-1.64,6.54,7.16,7.16,0,0,1-3.68,2,10.07,10.07,0,0,1-7.11-.65,7.41,7.41,0,0,1-3.8-4.86,8.34,8.34,0,0,1-.19-2.37l3.91-.85c.47.52.32,1.2.54,1.77a4.08,4.08,0,0,0,2.58,2.85A4.31,4.31,0,0,0,84.7,116a2.36,2.36,0,0,0-.22-4,40.9,40.9,0,0,0-4.6-2A10.44,10.44,0,0,1,76.16,108a5.81,5.81,0,0,1-1.68-5.64,6.89,6.89,0,0,1,6.28-5.71Z"/><path class="cls-7" d="M167.39,88.09h-4.75l-1.87-5.69h-7l-1.86,5.68h-4.72l7.91-24c1.47,0,2.86,0,4.4.08ZM157.26,71.54l-2.15,6.6h4.32Z"/><path class="cls-7" d="M124.73,100.81v5.74h6.59v4.13h-6.56v5.87h10.76v4.11H120.19V96.79H135.5v4Z"/><path class="cls-7" d="M159,96.78h15.34v4.09H163.58v5.68h6.58v4.14h-6.56v5.89h10.78v4.1H159Z"/><path class="cls-7" d="M82.86,79.94l5-15.8h4.72L84.76,88.08H81L73.11,64.26a.75.75,0,0,1,.63-.17h4Z"/><path class="cls-7" d="M107.27,67.76h-4.09v16.7h4.09v3.62H94.37V84.52h4.14V67.76H94.37V64.15h12.9Z"/><path class="cls-7" d="M169.8,88.07V64.14h4.48V84h8.53v4.08Z"/><path class="cls-5" d="M58.55,111.37a.74.74,0,0,0-.2.54,2.08,2.08,0,0,1-1.73,1,2,2,0,0,1-2-1.68,2,2,0,0,1,1.27-2.12,2,2,0,0,1,2.44.92,4.79,4.79,0,0,1,.21.52Z"/><path class="cls-5" d="M58.54,106.83c-.26,1.16-.8,1.75-1.71,1.86a1.94,1.94,0,0,1-1-3.72,1.93,1.93,0,0,1,2.44.88,5,5,0,0,1,.25.7Z"/><path class="cls-7" d="M83.54,96.64H80.77A5,5,0,0,1,83.54,96.64Z"/><path class="cls-7" d="M12.59,97.8a1.92,1.92,0,0,1,1.69-1.52,2.12,2.12,0,0,1,2.23,1.35c.51-.56.81-1.39,1.74-1.37h1.05c.7,0,1,.59,1.54,1A2.8,2.8,0,0,1,22.43,96c-1.16-.62-1.61-1.39-1.38-2.33a2,2,0,0,1,3.74-.14c.29,1-.05,1.72-1.28,2.47a2.91,2.91,0,0,1,1.56,1.36,2.34,2.34,0,0,1,4.23.16,2.27,2.27,0,0,1,4.16.08,2.19,2.19,0,0,1,2.21-1.44,2.11,2.11,0,0,1,2,1.58c1-1.36,1.71-1.7,2.76-1.33a2,2,0,0,1,1.37,2.14,1.89,1.89,0,0,1-1.69,1.74h-.81c-.84-.06-1.19-.73-1.58-1.36-1.15,2.11-3,2.2-4.28.18a2.45,2.45,0,0,1-2.1,1.4,2.26,2.26,0,0,1-2-1.35,4.46,4.46,0,0,1-1.18,1.23c.29.37.81.52,1,1-.22.08-.29.22-.16.43l.46.78-.19.74c-.07.6-.56.87-1,1.23.59.56,1.3,1,1.19,2V107c.07.84-.46,1.33-1.09,1.83.4.5,1,.87,1.12,1.7a2.56,2.56,0,0,1,1.09-1.26,1.89,1.89,0,0,1,2.69,1.87,1.84,1.84,0,0,1-1.55,1.68c-.9.18-1.61-.26-2.2-1.39-.33.82-.68,1.61-1.71,1.69H26.49c-.73,0-1-.64-1.5-1.18a2.34,2.34,0,0,1-2.2,1.2,2.16,2.16,0,0,1-1.5-.72c-.89-1-.66-2.37.59-3.43a5,5,0,0,1-1.18-1.36,2.33,2.33,0,0,1-2,1.18,2,2,0,0,1-1.43-.66c-.92-1-.65-2.34.74-3.35a3.4,3.4,0,0,1-1.4-1.46c-1.45,1.9-2.89,1.83-4.16-.12-.9,1.24-1.71,1.62-2.73,1.27a2,2,0,0,1-1.32-2,1.9,1.9,0,0,1,1.45-1.89c1-.29,1.8.12,2.6,1.35a3.26,3.26,0,0,1,1.6-1.55c-.72-.3-1.34-.7-1.43-1.56ZM15,100.42a2.45,2.45,0,0,1,1.58,1.44,3.67,3.67,0,0,1,1.23-1.49c-.6-.26-.85-.84-1.3-1.26A2.35,2.35,0,0,1,15,100.42Zm6.71,4.28-1-1c-.25.59-.75.81-1.23,1.14.58.22.84.7,1.24,1.07A4.14,4.14,0,0,1,21.69,104.71ZM25,110.08a4.3,4.3,0,0,1,1-1.19L25,108a4.37,4.37,0,0,1-1,1A4.06,4.06,0,0,1,25,110.08Zm-4.35-8.81,1-.93-.88-.92a3.6,3.6,0,0,1-1.1,1A4.7,4.7,0,0,1,20.67,101.26Zm4.42.16,1.11-1a4,4,0,0,1-1.13-1.07,4.5,4.5,0,0,1-.88,1.09A4.54,4.54,0,0,1,25.09,101.42Zm1.08,3.16a6.41,6.41,0,0,1-1.07-.91,4.29,4.29,0,0,1-.87,1l.93.94A4.66,4.66,0,0,1,26.17,104.58Z"/><path class="cls-5" d="M8.38,72.58A1.76,1.76,0,0,1,10,71.08a2.18,2.18,0,0,1,2.46,1.51,2.16,2.16,0,0,1,2.24-1.53,2.22,2.22,0,0,1,2,1.67c.56-1.33,1.39-1.86,2.53-1.62a2,2,0,0,1,1.6,2.07,2,2,0,0,1-1.7,2c-1.13.19-1.93-.36-2.41-1.69a2.21,2.21,0,0,1-2.22,1.76,2,2,0,0,1-2-1.55c-.5.69-.87,1.54-1.92,1.46l-.68,0a1.7,1.7,0,0,1-1.52-1.46Z"/><path class="cls-5" d="M8.38,72.58v1.06c-.08,0-.2.08-.22.14a2.74,2.74,0,0,1-1.63,1.49H5.86C5.69,75,5.4,75.1,5.17,75a2.28,2.28,0,0,1-1.16-2A2.24,2.24,0,0,1,5.61,71.1a2.14,2.14,0,0,1,2.27.85C8,72.16,8,72.53,8.38,72.58Z"/><path class="cls-5" d="M46.18,102.37a1.93,1.93,0,0,1,2.13-1.88,2,2,0,0,1,1.92,2,2.06,2.06,0,0,1-2,2.12,2,2,0,0,1-2.09-2Z"/><path class="cls-5" d="M5.86,75.26h.66C8,75.84,8.62,77,8,78.27a2.08,2.08,0,0,1-2.22,1.1,1.86,1.86,0,0,1-1.61-1.7l0-.86A1.85,1.85,0,0,1,5.86,75.26Z"/><path class="cls-5" d="M21,85.37a2,2,0,0,1,2.23-1.69A2.1,2.1,0,0,1,25,85.8a2,2,0,0,1-1.83,2A1.94,1.94,0,0,1,21,86.06Z"/><path class="cls-5" d="M9.9,75.11l.68,0c.15.23.41.27.63.38a2.08,2.08,0,0,1,1.14,2.21,2,2,0,0,1-3.93.23,2.07,2.07,0,0,1,1-2.38C9.58,75.44,9.92,75.47,9.9,75.11Z"/><path class="cls-5" d="M52.37,108.72a1.88,1.88,0,0,1-2-1.95,2,2,0,0,1,1.94-2,2.07,2.07,0,0,1,2.06,2A2,2,0,0,1,52.37,108.72Z"/><path class="cls-5" d="M21,85.37v.68c-.52-.1-.31.38-.42.57a2.05,2.05,0,0,1-2.06,1.07,2,2,0,0,1-1.64-1.39,2,2,0,0,1,.68-2.13,2,2,0,0,1,3,.75C20.66,85.11,20.52,85.53,21,85.37Z"/><path class="cls-4" d="M39.31,100.3h.81c-.18.36.14.31.32.39a1.92,1.92,0,0,1,1.22,2.36,1.87,1.87,0,0,1-2,1.44,2,2,0,0,1-.79-3.72c.18-.1.45,0,.57-.25Z"/><path class="cls-4" d="M46.18,102.37l0,.3c-.31.08-.28.38-.37.6a2,2,0,0,1-2.22,1.21A2,2,0,0,1,42,102.6a2,2,0,0,1,3.81-.79C45.89,102,45.81,102.35,46.18,102.37Z"/><path class="cls-8" d="M6.1,104.52a2,2,0,1,1,.12-3.93,2,2,0,0,1-.12,3.93Z"/><path class="cls-5" d="M12.59,97.8l0,1-.25-.18c-.45,1.45-1.46,2.08-2.91,1.4a1.94,1.94,0,0,1,.68-3.64c1-.15,1.7.35,2.27,1.55Z"/><path class="cls-5" d="M21,73.09a1.95,1.95,0,1,1,1.87,2A1.94,1.94,0,0,1,21,73.09Z"/><path class="cls-5" d="M29.2,103.35l.19-.74-.46-.78c-.13-.21-.06-.35.16-.43.19.12.11.45.38.51a2,2,0,0,1,2.48-1.21,1.86,1.86,0,0,1,1.29,1.89,1.83,1.83,0,0,1-1.4,1.81,2,2,0,0,1-2.31-1.2C29.38,103.17,29.3,103.29,29.2,103.35Z"/><path class="cls-5" d="M52.49,100.61a1.9,1.9,0,0,1,1.82,2,1.94,1.94,0,0,1-2,1.85,2,2,0,0,1-1.9-2A2,2,0,0,1,52.49,100.61Z"/><path class="cls-5" d="M14.59,91.89A1.95,1.95,0,1,1,14.5,88a2,2,0,0,1,2,2A2,2,0,0,1,14.59,91.89Z"/><path class="cls-5" d="M4.19,76.81l0,.86-.3-.24a1.85,1.85,0,0,1-.46,1.19,1.91,1.91,0,0,1-2.91,0,6.43,6.43,0,0,1-.46-.7V76.78a2.31,2.31,0,0,1,1.3-1.28A2,2,0,0,1,3.9,77.13C4.1,77.11,4.05,76.87,4.19,76.81Z"/><path class="cls-5" d="M20.69,89.93a1.9,1.9,0,0,1-1.9,2,1.94,1.94,0,1,1,0-3.89A1.91,1.91,0,0,1,20.69,89.93Z"/><path class="cls-5" d="M8,98.39a1.84,1.84,0,0,1-1.92,1.9,1.9,1.9,0,0,1-1.93-2,1.87,1.87,0,0,1,2-1.84A1.8,1.8,0,0,1,8,98.39Z"/><path class="cls-5" d="M35.63,100.61a2,2,0,0,1,1.88,2,1.94,1.94,0,1,1-3.89-.14A1.93,1.93,0,0,1,35.63,100.61Z"/><path class="cls-8" d="M19.31,96.27H18.26c.1-.41-.3-.34-.47-.45A1.91,1.91,0,0,1,17.2,93a1.85,1.85,0,0,1,2-.73,1.73,1.73,0,0,1,1.39,1.38,1.94,1.94,0,0,1-.78,2.08C19.64,95.89,19.17,95.8,19.31,96.27Z"/><path class="cls-5" d="M0,73.61v-1A2.06,2.06,0,0,1,2,71.2a1.93,1.93,0,0,1,.72,3.66,1.94,1.94,0,0,1-2.37-.6A6.45,6.45,0,0,1,0,73.61Z"/><path class="cls-5" d="M27.14,83.85a1.79,1.79,0,0,1,1.9,1.9,1.85,1.85,0,0,1-1.92,1.92,2,2,0,0,1-1.9-2A1.87,1.87,0,0,1,27.14,83.85Z"/><path class="cls-5" d="M24.84,89.91a1.87,1.87,0,0,1-1.88,2A1.91,1.91,0,0,1,22.88,88,1.85,1.85,0,0,1,24.84,89.91Z"/><path class="cls-8" d="M26.49,113.1h1.25c-.09.44.35.37.54.53a2,2,0,0,1,.47,2.55,1.89,1.89,0,0,1-3.36-1.72,1.79,1.79,0,0,1,.86-1C26.44,113.41,26.62,113.35,26.49,113.1Z"/><path class="cls-5" d="M23.05,67.05a1.81,1.81,0,0,1,1.79,2,1.9,1.9,0,0,1-2,1.8,2,2,0,0,1-1.86-2A1.85,1.85,0,0,1,23.05,67.05Z"/><path class="cls-5" d="M16.44,94.1a1.92,1.92,0,0,1-1.81,2,2,2,0,0,1-2-1.88,1.89,1.89,0,0,1,1.92-1.93A1.85,1.85,0,0,1,16.44,94.1Z"/><path class="cls-5" d="M45.84,98.36A1.87,1.87,0,0,1,44,100.26a2,2,0,0,1-1.93-2A1.9,1.9,0,0,1,44,96.48,1.81,1.81,0,0,1,45.84,98.36Z"/><path class="cls-5" d="M37.44,85.76a1.88,1.88,0,1,1-3.76,0,1.85,1.85,0,0,1,2-1.87A1.83,1.83,0,0,1,37.44,85.76Z"/><path class="cls-5" d="M16.41,106.73a1.88,1.88,0,0,1-1.81,1.93,2,2,0,0,1-2-1.82,2,2,0,0,1,1.9-2A1.85,1.85,0,0,1,16.41,106.73Z"/><path class="cls-5" d="M18.7,67.08a1.85,1.85,0,1,1,.1,3.71,1.85,1.85,0,1,1-.1-3.71Z"/><path class="cls-5" d="M12.21,94.16A1.8,1.8,0,0,1,10.33,96,1.78,1.78,0,0,1,8.5,94.11a1.86,1.86,0,1,1,3.71.05Z"/><path class="cls-5" d="M22.93,117a1.86,1.86,0,0,1-1.85-1.89,1.92,1.92,0,0,1,1.82-1.85,2,2,0,0,1,1.9,1.86A1.87,1.87,0,0,1,22.93,117Z"/><path class="cls-5" d="M10.32,88.08a1.86,1.86,0,1,1,0,3.73,1.82,1.82,0,0,1-1.83-1.9A1.84,1.84,0,0,1,10.32,88.08Z"/><path class="cls-5" d="M6.11,104.9a1.85,1.85,0,1,1,0,3.7,1.79,1.79,0,0,1-1.82-1.8A1.81,1.81,0,0,1,6.11,104.9Z"/><path class="cls-5" d="M37.41,115.2a1.85,1.85,0,0,1-3.7,0,1.85,1.85,0,1,1,3.7,0Z"/><path class="cls-5" d="M4.3,94.12a1.83,1.83,0,0,1,1.88-1.85,1.86,1.86,0,0,1,0,3.73A1.82,1.82,0,0,1,4.3,94.12Z"/><path class="cls-5" d="M14.58,75.48a1.84,1.84,0,0,1,1.8,1.92,1.82,1.82,0,0,1-1.84,1.77,1.84,1.84,0,0,1-1.86-1.86A1.87,1.87,0,0,1,14.58,75.48Z"/><path class="cls-5" d="M31.34,87.58A1.81,1.81,0,0,1,29.5,85.7a1.85,1.85,0,1,1,1.84,1.88Z"/><path class="cls-5" d="M18.79,109.1A1.92,1.92,0,0,1,20.64,111a1.89,1.89,0,0,1-1.9,1.76,1.84,1.84,0,0,1,.05-3.68Z"/><path class="cls-5" d="M31.35,113.31a1.89,1.89,0,0,1,1.83,1.93A1.86,1.86,0,0,1,31.3,117a1.76,1.76,0,0,1-1.75-1.87A1.82,1.82,0,0,1,31.35,113.31Z"/><path class="cls-5" d="M14.57,87.53a1.7,1.7,0,0,1-1.81-1.74,1.76,1.76,0,0,1,1.8-1.88,1.9,1.9,0,0,1,1.82,1.82A1.83,1.83,0,0,1,14.57,87.53Z"/><path class="cls-8" d="M1.9,104.33A1.74,1.74,0,0,1,.16,102.5,1.82,1.82,0,0,1,2,100.71a1.91,1.91,0,0,1,1.78,1.88A1.82,1.82,0,0,1,1.9,104.33Z"/><path class="cls-5" d="M6.14,83.32a1.81,1.81,0,0,1,0-3.61A1.89,1.89,0,0,1,8,81.52,1.84,1.84,0,0,1,6.14,83.32Z"/><path class="cls-5" d="M1.93,100.13A1.78,1.78,0,1,1,2,96.58a1.78,1.78,0,0,1-.09,3.55Z"/><path class="cls-5" d="M25.38,94.17a1.71,1.71,0,0,1,1.8-1.79A1.75,1.75,0,0,1,29,94.12a1.8,1.8,0,0,1-1.73,1.8A1.75,1.75,0,0,1,25.38,94.17Z"/><path class="cls-5" d="M18.7,113.42a1.71,1.71,0,0,1,1.83,1.74,1.77,1.77,0,0,1-3.54,0A1.71,1.71,0,0,1,18.7,113.42Z"/><path class="cls-5" d="M16.25,68.91a1.68,1.68,0,0,1-1.69,1.77,1.75,1.75,0,0,1,0-3.51A1.67,1.67,0,0,1,16.25,68.91Z"/><path class="cls-4" d="M12.05,106.8a1.69,1.69,0,0,1-1.7,1.67,1.74,1.74,0,0,1-1.73-1.75,1.71,1.71,0,0,1,1.73-1.65A1.64,1.64,0,0,1,12.05,106.8Z"/><path class="cls-5" d="M28.85,69a1.7,1.7,0,0,1-1.71,1.68,1.81,1.81,0,0,1-1.73-1.8,1.7,1.7,0,0,1,1.75-1.63A1.59,1.59,0,0,1,28.85,69Z"/><path class="cls-4" d="M27.16,88.27a1.61,1.61,0,0,1,1.68,1.67,1.69,1.69,0,0,1-1.65,1.74,1.78,1.78,0,0,1-1.78-1.75A1.7,1.7,0,0,1,27.16,88.27Z"/><path class="cls-4" d="M29.4,107v-.42c.25,0,.28-.19.36-.37a1.7,1.7,0,0,1,2-1.11,1.67,1.67,0,0,1,1.3,1.66,1.65,1.65,0,0,1-1.28,1.67,1.7,1.7,0,0,1-2-1.08C29.68,107.17,29.65,107,29.4,107Z"/><path class="cls-5" d="M3.62,81.54a1.67,1.67,0,0,1-1.69,1.68A1.76,1.76,0,0,1,.23,81.5,1.72,1.72,0,0,1,2,79.84,1.63,1.63,0,0,1,3.62,81.54Z"/><path class="cls-4" d="M1.95,105.07a1.69,1.69,0,0,1,1.68,1.71,1.67,1.67,0,1,1-1.68-1.71Z"/><path class="cls-5" d="M38.14,85.7a1.57,1.57,0,0,1,1.7-1.63,1.63,1.63,0,0,1,1.61,1.75,1.66,1.66,0,0,1-1.68,1.6A1.61,1.61,0,0,1,38.14,85.7Z"/><path class="cls-5" d="M14.57,109.27A1.69,1.69,0,0,1,16.22,111a1.67,1.67,0,0,1-1.76,1.62,1.6,1.6,0,0,1-1.57-1.68A1.63,1.63,0,0,1,14.57,109.27Z"/><path class="cls-5" d="M58.24,115.13a1.65,1.65,0,1,1-3.3.07,1.65,1.65,0,1,1,3.3-.07Z"/><path class="cls-5" d="M12,68.91a1.67,1.67,0,0,1-1.67,1.71A1.71,1.71,0,0,1,8.67,68.9a1.64,1.64,0,0,1,1.64-1.63A1.61,1.61,0,0,1,12,68.91Z"/><path class="cls-5" d="M10.35,83.17a1.65,1.65,0,1,1,0-3.3,1.65,1.65,0,1,1,0,3.3Z"/><path class="cls-5" d="M46.54,98.34a1.59,1.59,0,0,1,1.61-1.64,1.66,1.66,0,1,1-1.61,1.64Z"/><path class="cls-5" d="M18.72,79a1.62,1.62,0,0,1-1.63-1.62,1.66,1.66,0,0,1,1.7-1.67,1.69,1.69,0,0,1,1.63,1.65A1.61,1.61,0,0,1,18.72,79Z"/><path class="cls-5" d="M8.75,85.79a1.58,1.58,0,0,1,1.63-1.71A1.71,1.71,0,0,1,12,85.73a1.67,1.67,0,0,1-1.63,1.65A1.57,1.57,0,0,1,8.75,85.79Z"/><path class="cls-4" d="M.35,111A1.6,1.6,0,0,1,2,109.29,1.68,1.68,0,0,1,3.59,111,1.61,1.61,0,0,1,2,112.56,1.53,1.53,0,0,1,.35,111Z"/><path class="cls-4" d="M46.57,106.67a1.63,1.63,0,0,1,1.68-1.56,1.65,1.65,0,0,1,1.57,1.69,1.61,1.61,0,0,1-1.65,1.59A1.57,1.57,0,0,1,46.57,106.67Z"/><path class="cls-4" d="M6.16,91.54A1.48,1.48,0,0,1,4.55,90,1.6,1.6,0,0,1,6.12,88.3a1.73,1.73,0,0,1,1.67,1.63A1.6,1.6,0,0,1,6.16,91.54Z"/><path class="cls-5" d="M19.57,120.87a3.17,3.17,0,0,1-1.59,0,2,2,0,0,1-.83-1.31,1.65,1.65,0,0,1,.94-1.7,1.68,1.68,0,0,1,1.9.44,1.59,1.59,0,0,1,.1,2A5.45,5.45,0,0,1,19.57,120.87Z"/><path class="cls-4" d="M37.19,94.11a1.58,1.58,0,0,1-1.6,1.63A1.56,1.56,0,0,1,34,94.16a1.63,1.63,0,0,1,1.59-1.66A1.67,1.67,0,0,1,37.19,94.11Z"/><path class="cls-4" d="M33,94.16a1.59,1.59,0,0,1-1.66,1.58,1.53,1.53,0,0,1-1.58-1.63,1.61,1.61,0,0,1,1.63-1.61A1.69,1.69,0,0,1,33,94.16Z"/><path class="cls-4" d="M58.19,102.5a1.56,1.56,0,0,1-1.61,1.63,1.59,1.59,0,1,1,0-3.19A1.57,1.57,0,0,1,58.19,102.5Z"/><path class="cls-4" d="M35.56,91.54A1.55,1.55,0,0,1,34,89.9a1.58,1.58,0,0,1,1.6-1.55,1.64,1.64,0,0,1,1.61,1.56A1.61,1.61,0,0,1,35.56,91.54Z"/><path class="cls-8" d="M36.27,120.9a3.06,3.06,0,0,1-1.45,0,4.67,4.67,0,0,1-.48-.45,1.63,1.63,0,0,1,.13-2.23,1.68,1.68,0,0,1,2.17,0,1.61,1.61,0,0,1,.17,2.22A5.1,5.1,0,0,1,36.27,120.9Z"/><path class="cls-5" d="M1.9,116.74a1.52,1.52,0,0,1-1.55-1.57A1.56,1.56,0,0,1,2,113.58a1.55,1.55,0,0,1,1.55,1.58A1.52,1.52,0,0,1,1.9,116.74Z"/><path class="cls-4" d="M41.39,115.19a1.61,1.61,0,0,1-3.21,0,1.61,1.61,0,0,1,3.21,0Z"/><path class="cls-4" d="M54,111a1.58,1.58,0,0,1-1.6,1.52,1.57,1.57,0,1,1,.08-3.13A1.56,1.56,0,0,1,54,111Z"/><path class="cls-5" d="M16.11,115.16a1.52,1.52,0,0,1-1.53,1.57,1.53,1.53,0,0,1-1.63-1.59,1.6,1.6,0,0,1,1.64-1.59A1.55,1.55,0,0,1,16.11,115.16Z"/><path class="cls-5" d="M7.73,69a1.61,1.61,0,0,1-1.6,1.55,1.53,1.53,0,0,1-1.55-1.66A1.5,1.5,0,0,1,6.2,67.37,1.55,1.55,0,0,1,7.73,69Z"/><path class="cls-4" d="M57.21,120.88a4.35,4.35,0,0,1-1.25,0,1.77,1.77,0,0,1-.94-1.72,1.56,1.56,0,0,1,1.19-1.31,1.56,1.56,0,0,1,1.63,2.47C57.67,120.57,57.39,120.67,57.21,120.88Z"/><path class="cls-8" d="M28.73,73.12a1.58,1.58,0,0,1-1.58,1.58,1.6,1.6,0,0,1-1.58-1.58,1.58,1.58,0,0,1,3.16,0Z"/><path class="cls-4" d="M44,88.37a1.58,1.58,0,0,1,1.57,1.57,1.57,1.57,0,0,1-3.13,0A1.59,1.59,0,0,1,44,88.37Z"/><path class="cls-4" d="M41.36,90a1.6,1.6,0,0,1-1.61,1.54,1.56,1.56,0,0,1-1.55-1.59,1.6,1.6,0,0,1,1.6-1.55A1.62,1.62,0,0,1,41.36,90Z"/><path class="cls-5" d="M32.91,69a1.56,1.56,0,0,1-1.61,1.54,1.58,1.58,0,0,1-1.53-1.63,1.53,1.53,0,0,1,1.61-1.52A1.51,1.51,0,0,1,32.91,69Z"/><path class="cls-4" d="M35.56,67.41A1.49,1.49,0,0,1,37.11,69a1.56,1.56,0,0,1-1.59,1.53A1.6,1.6,0,0,1,34,69,1.55,1.55,0,0,1,35.56,67.41Z"/><path class="cls-8" d="M24.46,81.5a1.51,1.51,0,0,1-1.52,1.58,1.59,1.59,0,0,1-1.56-1.59A1.55,1.55,0,0,1,22.9,80,1.45,1.45,0,0,1,24.46,81.5Z"/><path class="cls-4" d="M48.14,91.51A1.64,1.64,0,0,1,46.6,89.9a1.53,1.53,0,0,1,1.66-1.47A1.46,1.46,0,0,1,49.72,90,1.53,1.53,0,0,1,48.14,91.51Z"/><path class="cls-4" d="M32.86,90a1.49,1.49,0,0,1-1.53,1.49,1.56,1.56,0,0,1-1.52-1.62,1.5,1.5,0,0,1,1.65-1.46A1.45,1.45,0,0,1,32.86,90Z"/><path class="cls-4" d="M7.66,110.9a1.53,1.53,0,1,1-3.05.09,1.49,1.49,0,0,1,1.54-1.56A1.47,1.47,0,0,1,7.66,110.9Z"/><path class="cls-4" d="M6.16,84.23a1.44,1.44,0,0,1,1.5,1.49,1.53,1.53,0,1,1-3.05,0A1.45,1.45,0,0,1,6.16,84.23Z"/><path class="cls-4" d="M14.59,80A1.43,1.43,0,0,1,16,81.57,1.46,1.46,0,0,1,14.5,83,1.54,1.54,0,0,1,13,81.48,1.51,1.51,0,0,1,14.59,80Z"/><path class="cls-5" d="M56.57,96.86a1.47,1.47,0,0,1,1.52,1.46,1.51,1.51,0,0,1-1.54,1.56,1.55,1.55,0,0,1-1.49-1.53A1.51,1.51,0,0,1,56.57,96.86Z"/><path class="cls-5" d="M22.9,75.86a1.44,1.44,0,0,1,1.53,1.45,1.49,1.49,0,1,1-3,0A1.45,1.45,0,0,1,22.9,75.86Z"/><path class="cls-5" d="M20.23,81.66A1.43,1.43,0,0,1,18.69,83a1.48,1.48,0,1,1,.17-3A1.45,1.45,0,0,1,20.23,81.66Z"/><path class="cls-8" d="M2,95.6a1.45,1.45,0,0,1-1.5-1.5,1.48,1.48,0,0,1,3,.06A1.46,1.46,0,0,1,2,95.6Z"/><path class="cls-4" d="M52.4,92.66a1.45,1.45,0,0,1,1.43,1.55,1.41,1.41,0,0,1-1.48,1.39,1.39,1.39,0,0,1-1.41-1.54A1.42,1.42,0,0,1,52.4,92.66Z"/><path class="cls-4" d="M52.32,96.89a1.49,1.49,0,0,1,1.51,1.39,1.43,1.43,0,0,1-1.35,1.52,1.39,1.39,0,0,1-1.54-1.41A1.44,1.44,0,0,1,52.32,96.89Z"/><path class="cls-4" d="M41.23,94.12a1.46,1.46,0,0,1-1.4,1.48,1.43,1.43,0,0,1-1.48-1.49,1.41,1.41,0,0,1,1.44-1.43A1.43,1.43,0,0,1,41.23,94.12Z"/><path class="cls-6" d="M45.4,85.74a1.41,1.41,0,0,1-1.45,1.42,1.38,1.38,0,0,1-1.38-1.47,1.4,1.4,0,0,1,1.38-1.39A1.47,1.47,0,0,1,45.4,85.74Z"/><path class="cls-4" d="M6.08,116.56a1.29,1.29,0,0,1-1.34-1.39,1.33,1.33,0,0,1,1.41-1.43A1.47,1.47,0,0,1,7.6,115.2,1.45,1.45,0,0,1,6.08,116.56Z"/><path class="cls-4" d="M28.6,81.52a1.44,1.44,0,0,1-1.49,1.4,1.35,1.35,0,0,1-1.34-1.41,1.39,1.39,0,0,1,1.35-1.42A1.48,1.48,0,0,1,28.6,81.52Z"/><path class="cls-6" d="M37,81.51a1.45,1.45,0,0,1-1.47,1.41,1.38,1.38,0,0,1-1.36-1.4,1.41,1.41,0,0,1,1.45-1.43A1.48,1.48,0,0,1,37,81.51Z"/><path class="cls-4" d="M37,111a1.42,1.42,0,0,1-1.48,1.39,1.4,1.4,0,0,1,.11-2.81A1.45,1.45,0,0,1,37,111Z"/><path class="cls-4" d="M48.17,95.52a1.41,1.41,0,0,1-1.4-1.37,1.41,1.41,0,1,1,2.83,0A1.37,1.37,0,0,1,48.17,95.52Z"/><path class="cls-6" d="M39.8,70.33A1.37,1.37,0,0,1,38.39,69a1.36,1.36,0,0,1,1.42-1.43,1.41,1.41,0,0,1,1.38,1.39A1.46,1.46,0,0,1,39.8,70.33Z"/><path class="cls-4" d="M7.54,119.41a1.39,1.39,0,0,1-1.43,1.34A1.36,1.36,0,1,1,6.17,118,1.37,1.37,0,0,1,7.54,119.41Z"/><path class="cls-4" d="M3.34,85.76a1.39,1.39,0,0,1-2.77,0A1.33,1.33,0,0,1,2,84.37,1.36,1.36,0,0,1,3.34,85.76Z"/><path class="cls-4" d="M32.72,81.48a1.4,1.4,0,0,1-1.32,1.44A1.42,1.42,0,0,1,30,81.58a1.38,1.38,0,1,1,2.75-.1Z"/><path class="cls-6" d="M52.38,91.31A1.38,1.38,0,0,1,51,90a1.35,1.35,0,0,1,1.37-1.39A1.33,1.33,0,0,1,53.73,90,1.37,1.37,0,0,1,52.38,91.31Z"/><path class="cls-4" d="M39.81,112.29a1.29,1.29,0,0,1-1.35-1.3,1.26,1.26,0,0,1,1.25-1.37,1.33,1.33,0,0,1,1.43,1.33A1.37,1.37,0,0,1,39.81,112.29Z"/><path class="cls-4" d="M57.91,94.09a1.33,1.33,0,1,1-2.67.06,1.29,1.29,0,0,1,1.31-1.33A1.27,1.27,0,0,1,57.91,94.09Z"/><path class="cls-6" d="M2,70.29A1.41,1.41,0,0,1,.6,69a1.29,1.29,0,0,1,1.25-1.38,1.26,1.26,0,0,1,1.42,1.2A1.37,1.37,0,0,1,2,70.29Z"/><path class="cls-6" d="M3.27,119.36a1.27,1.27,0,0,1-1.36,1.35,1.34,1.34,0,0,1,0-2.67A1.27,1.27,0,0,1,3.27,119.36Z"/><path class="cls-4" d="M22.29,63.48a3.22,3.22,0,0,1,1.32,0,2,2,0,0,1,.61.82,1.38,1.38,0,0,1-.61,1.56A1.42,1.42,0,0,1,22,65.69,1.29,1.29,0,0,1,21.79,64,3.8,3.8,0,0,1,22.29,63.48Z"/><path class="cls-6" d="M10.31,112.29A1.38,1.38,0,0,1,9,110.93a1.35,1.35,0,0,1,1.44-1.3A1.27,1.27,0,0,1,11.67,111,1.32,1.32,0,0,1,10.31,112.29Z"/><path class="cls-6" d="M30.73,63.48a3.34,3.34,0,0,1,1.29,0,1.91,1.91,0,0,1,.63.92,1.33,1.33,0,0,1-2.28,1.2,1.26,1.26,0,0,1-.09-1.65A3.73,3.73,0,0,1,30.73,63.48Z"/><path class="cls-4" d="M31.32,74.43A1.29,1.29,0,0,1,30,73.07a1.26,1.26,0,0,1,1.28-1.25,1.24,1.24,0,0,1,1.31,1.3A1.27,1.27,0,0,1,31.32,74.43Z"/><path class="cls-4" d="M41.06,106.81A1.27,1.27,0,0,1,39.77,108a1.19,1.19,0,0,1-1.24-1.34,1.24,1.24,0,0,1,1.26-1.25A1.31,1.31,0,0,1,41.06,106.81Z"/><path class="cls-9" d="M15.81,119.36a1.29,1.29,0,0,1-1.22,1.31,1.32,1.32,0,0,1-1.33-1.23,1.36,1.36,0,0,1,1.29-1.37A1.32,1.32,0,0,1,15.81,119.36Z"/><path class="cls-4" d="M2,91.21A1.24,1.24,0,0,1,.66,90,1.32,1.32,0,0,1,2,88.65,1.35,1.35,0,0,1,3.24,90,1.24,1.24,0,0,1,2,91.21Z"/><path class="cls-4" d="M47.6,63.5a3.33,3.33,0,0,1,1.12,0c.3.27.64.5.72.95a1.31,1.31,0,0,1-.67,1.43,1.37,1.37,0,0,1-1.55-.32A1.3,1.3,0,0,1,47.15,64,4.23,4.23,0,0,1,47.6,63.5Z"/><path class="cls-5" d="M26.57,63.49a3.17,3.17,0,0,1,1.14,0,3.42,3.42,0,0,1,.42.37,1.35,1.35,0,0,1-.07,1.81,1.41,1.41,0,0,1-1.75,0,1.27,1.27,0,0,1-.14-1.79A4.28,4.28,0,0,1,26.57,63.49Z"/><path class="cls-4" d="M44,67.65a1.25,1.25,0,0,1,1.26,1.27A1.18,1.18,0,0,1,44,70.16a1.15,1.15,0,0,1-1.25-1.24A1.23,1.23,0,0,1,44,67.65Z"/><path class="cls-4" d="M43.49,63.49h1a3.56,3.56,0,0,1,.5.43,1.23,1.23,0,0,1-.12,1.71,1.3,1.3,0,0,1-1.73,0,1.28,1.28,0,0,1-.1-1.72A3.77,3.77,0,0,1,43.49,63.49Z"/><path class="cls-4" d="M45.24,94.15A1.17,1.17,0,0,1,44,95.36a1.14,1.14,0,0,1-1.23-1.24A1.25,1.25,0,0,1,44,92.85,1.32,1.32,0,0,1,45.24,94.15Z"/><path class="cls-6" d="M49.44,85.7A1.23,1.23,0,0,1,48.19,87,1.16,1.16,0,0,1,47,85.81a1.22,1.22,0,0,1,1.17-1.33A1.29,1.29,0,0,1,49.44,85.7Z"/><path class="cls-9" d="M52,63.5h.74a3.57,3.57,0,0,1,.53.39,1.19,1.19,0,0,1,0,1.71,1.23,1.23,0,0,1-1.78-1.69A3.17,3.17,0,0,1,52,63.5Z"/><path class="cls-9" d="M35.58,74.33a1.18,1.18,0,0,1-1.22-1.18,1.21,1.21,0,0,1,1.25-1.27,1.28,1.28,0,0,1,1.2,1.25A1.22,1.22,0,0,1,35.58,74.33Z"/><path class="cls-9" d="M41,81.54a1.23,1.23,0,1,1-2.45-.09,1.23,1.23,0,0,1,2.45.09Z"/><path class="cls-9" d="M49.41,68.95A1.22,1.22,0,1,1,47,68.86a1.29,1.29,0,0,1,1.26-1.17A1.27,1.27,0,0,1,49.41,68.95Z"/><path class="cls-9" d="M18.51,63.48H19a3.56,3.56,0,0,1,.48.29,1.19,1.19,0,1,1-1.53.06A3.46,3.46,0,0,1,18.51,63.48Z"/><path class="cls-4" d="M11.52,115.19a1.15,1.15,0,0,1-1.25,1.14,1.18,1.18,0,0,1-1.12-1.19A1.16,1.16,0,0,1,10.42,114,1.11,1.11,0,0,1,11.52,115.19Z"/><path class="cls-10" d="M27.2,76.15a1.2,1.2,0,0,1,1.13,1.17,1.19,1.19,0,0,1-1.22,1.18A1.17,1.17,0,0,1,26,77.34,1.19,1.19,0,0,1,27.2,76.15Z"/><path class="cls-9" d="M11.43,118.86a2.34,2.34,0,0,1,0,1c-.68.75-1.31.88-1.86.37a1.15,1.15,0,0,1,0-1.69C10.06,118,10.71,118.13,11.43,118.86Z"/><path class="cls-10" d="M43.91,105.64a1,1,0,0,1,1.16,1.08A1.08,1.08,0,0,1,44,107.9a1.15,1.15,0,0,1-1.2-1.1A1.12,1.12,0,0,1,43.91,105.64Z"/><path class="cls-6" d="M52.36,118.24a1.14,1.14,0,0,1,0,2.29,1.14,1.14,0,0,1-1.09-1.11A1.13,1.13,0,0,1,52.36,118.24Z"/><path class="cls-4" d="M52.39,70.05a1.12,1.12,0,0,1-1.15-1.12,1.09,1.09,0,0,1,1.05-1.11,1.06,1.06,0,0,1,1.17,1.06A1.09,1.09,0,0,1,52.39,70.05Z"/><path class="cls-4" d="M40.87,119.35a1.11,1.11,0,0,1-1.1,1.17,1.21,1.21,0,0,1-1.13-1.17,1.16,1.16,0,0,1,1.08-1.11A1.09,1.09,0,0,1,40.87,119.35Z"/><path class="cls-10" d="M36.65,106.72a1.13,1.13,0,0,1-1.09,1.17,1.19,1.19,0,0,1-1.11-1.09,1.14,1.14,0,0,1,1.12-1.16A1.1,1.1,0,0,1,36.65,106.72Z"/><path class="cls-6" d="M57.65,69.06a1,1,0,0,1-1.2.91,1,1,0,0,1-.92-1.18,1.07,1.07,0,1,1,2.12.27Z"/><path class="cls-10" d="M52.41,116.21a1,1,0,0,1-1.09-1,1.09,1.09,0,0,1,1.06-1.1,1.14,1.14,0,0,1,1.06,1A1.06,1.06,0,0,1,52.41,116.21Z"/><path class="cls-4" d="M56.62,63.64a1,1,0,0,1,1,1.13,1,1,0,0,1-1.14,1,1,1,0,0,1-1-1.06A1.07,1.07,0,0,1,56.62,63.64Z"/><path class="cls-6" d="M39.77,74.17a1,1,0,0,1-1-1.09,1.06,1.06,0,0,1,2.12,0A1.06,1.06,0,0,1,39.77,74.17Z"/><path class="cls-10" d="M31.36,78.37a1,1,0,0,1-1-1.08,1,1,0,0,1,1-1,1.08,1.08,0,0,1,1.07,1A1,1,0,0,1,31.36,78.37Z"/><path class="cls-9" d="M35.61,78.37a1,1,0,0,1-1.1-1,1,1,0,0,1,1-1.06,1.05,1.05,0,1,1,.09,2.1Z"/><path class="cls-11" d="M52.37,86.74a1,1,0,0,1-1-1,1.05,1.05,0,0,1,1-1.07,1.08,1.08,0,0,1,1.08,1.07A1,1,0,0,1,52.37,86.74Z"/><path class="cls-11" d="M44,80.52a1,1,0,0,1,1,1,1,1,0,0,1-2,0A1,1,0,0,1,44,80.52Z"/><path class="cls-10" d="M57.53,90a1,1,0,0,1-1,.92,1,1,0,0,1-.88-1,.93.93,0,0,1,1-.85A.92.92,0,0,1,57.53,90Z"/><path class="cls-9" d="M40.61,77.84c-.7.52-1,.57-1.46.22A1,1,0,0,1,39,76.85a1,1,0,0,1,1.15-.41C40.57,76.59,40.71,77,40.61,77.84Z"/><path class="cls-12" d="M13.57,64.69c.38-.8.64-1,1.19-.86a.83.83,0,0,1,.7.87.86.86,0,0,1-.77.91C14.13,65.69,13.9,65.51,13.57,64.69Z"/><path class="cls-6" d="M47.3,81.53a.86.86,0,0,1,.85-.91.87.87,0,0,1,.92.95.9.9,0,0,1-.91.87A.85.85,0,0,1,47.3,81.53Z"/><path class="cls-10" d="M10.76,65.53c-.85,0-1.12-.07-1.24-.57a.81.81,0,0,1,.44-1,.83.83,0,0,1,1.1.25C11.45,64.68,11.23,65.11,10.76,65.53Z"/><path class="cls-13" d="M49.05,110.9a.87.87,0,1,1-1.74.09.87.87,0,0,1,.87-.93A.89.89,0,0,1,49.05,110.9Z"/><path class="cls-14" d="M44.83,73.12A.86.86,0,0,1,44,74a.86.86,0,1,1,.84-.86Z"/><path class="cls-15" d="M49,73.09c-.15.58-.43.94-1,.82a.78.78,0,0,1-.65-.82.75.75,0,0,1,.62-.74C48.58,72.2,48.86,72.55,49,73.09Z"/><path class="cls-16" d="M6.16,63.92a.76.76,0,0,1,.74.81.78.78,0,0,1-.76.79.82.82,0,0,1-.8-.86A.79.79,0,0,1,6.16,63.92Z"/><path class="cls-16" d="M47.36,119.43c.11-.54.36-.89,1-.82a.7.7,0,0,1,.65.69.72.72,0,0,1-.59.84C47.77,120.28,47.52,119.9,47.36,119.43Z"/><path class="cls-13" d="M51.55,81.56c.14-.56.42-.89,1-.78a.66.66,0,0,1,.57.66.74.74,0,0,1-.59.85C52,82.4,51.72,82.09,51.55,81.56Z"/><path class="cls-14" d="M44,110.22a.73.73,0,0,1,.71.72.71.71,0,1,1-1.41,0A.71.71,0,0,1,44,110.22Z"/><path class="cls-17" d="M56.5,85c.5,0,.75.23.78.67a.69.69,0,1,1-1.39.08A.66.66,0,0,1,56.5,85Z"/><path class="cls-17" d="M43.4,77.81c-.18-.5-.18-.9.28-1.12a.64.64,0,0,1,.83.23.63.63,0,0,1,0,.86C44.17,78.16,43.81,78.07,43.4,77.81Z"/><path class="cls-18" d="M43.34,114.85c.36-.4.71-.5,1.09-.15a.57.57,0,0,1,.13.76.62.62,0,0,1-.78.33C43.24,115.63,43.29,115.23,43.34,114.85Z"/><path class="cls-15" d="M52.35,72.39c.82.48.84.54.38,1.31-.41.13-.81.11-1-.38S51.9,72.58,52.35,72.39Z"/><path class="cls-19" d="M48.22,76.65c.45.13.72.39.58.89a.58.58,0,0,1-.64.44.61.61,0,0,1-.61-.49C47.44,77,47.76,76.75,48.22,76.65Z"/><path class="cls-19" d="M2.64,64.73c-.17.49-.43.73-.88.61a.59.59,0,0,1-.45-.63.61.61,0,0,1,.56-.64C2.34,64,2.53,64.33,2.64,64.73Z"/><path class="cls-20" d="M56,73.15c.11-.43.3-.68.74-.61a.52.52,0,0,1,.48.5.58.58,0,0,1-.43.66C56.33,73.81,56.1,73.57,56,73.15Z"/><path class="cls-21" d="M52.8,77a.74.74,0,0,1,0,.74.56.56,0,0,1-.84,0c-.26-.27-.15-.57.07-.83A.62.62,0,0,1,52.8,77Z"/><path class="cls-22" d="M48.14,115.72c-.31-.06-.51-.23-.49-.56a.51.51,0,0,1,.61-.54c.35,0,.45.29.44.6S48.46,115.7,48.14,115.72Z"/><path class="cls-12" d="M56.19,81.1a.57.57,0,0,1,.86.73.56.56,0,0,1-.67.17C55.95,81.82,56,81.5,56.19,81.1Z"/><path class="cls-23" d="M43.55,119c.48-.24.81-.19.91.31a.41.41,0,0,1-.44.49C43.45,119.86,43.45,119.5,43.55,119Z"/><path class="cls-24" d="M57.06,77.33c-.44.47-.44.47-.9.1C56.51,76.76,56.51,76.76,57.06,77.33Z"/><path class="cls-25" d="M15,100.42a2.35,2.35,0,0,0,1.51-1.32c.45.42.69,1,1.3,1.26a3.67,3.67,0,0,0-1.23,1.49A2.45,2.45,0,0,0,15,100.42Z"/><path class="cls-26" d="M21.69,104.71a4.14,4.14,0,0,0-1,1.17c-.4-.36-.67-.85-1.24-1.07.48-.34,1-.56,1.23-1.14Z"/><path class="cls-27" d="M25,110.08A4.06,4.06,0,0,0,24,109a4.37,4.37,0,0,0,1-1l1,.93A4.3,4.3,0,0,0,25,110.08Z"/><path class="cls-28" d="M20.67,101.26a4.7,4.7,0,0,0-1-.86,3.6,3.6,0,0,0,1.1-1l.88.92Z"/><path class="cls-29" d="M25.09,101.42a4.54,4.54,0,0,0-.9-1,4.5,4.5,0,0,0,.88-1.09,4,4,0,0,0,1.13,1.07Z"/><path class="cls-30" d="M26.17,104.58a4.66,4.66,0,0,0-1,1l-.93-.94a4.29,4.29,0,0,0,.87-1A6.41,6.41,0,0,0,26.17,104.58Z"/></svg>