<?xml version="1.0" encoding="utf-8"?>
<!-- Generator: Adobe Illustrator 25.1.0, SVG Export Plug-In . SVG Version: 6.00 Build 0)  -->
<svg version="1.1" id="Layer_1" xmlns="http://www.w3.org/2000/svg" xmlns:xlink="http://www.w3.org/1999/xlink" x="0px" y="0px"
	 viewBox="0 0 297.64 70.87" style="enable-background:new 0 0 297.64 70.87;" xml:space="preserve">
<style type="text/css">
	.st0{fill:#FFFFFF;}
	.st1{fill:#949397;}
	.st2{fill:#DD052B;}
</style>
<rect class="st0" width="297.64" height="70.87"/>
<g>
	<path class="st1" d="M80.54,13.61h2.59l14.54,17.77h0.06V13.61h2.16v20.8h-2.5L82.76,16.64H82.7v17.77h-2.16V13.61z"/>
	<path class="st1" d="M114.22,13.09c5.91,0,11.3,3.58,11.3,10.92c0,7.34-5.39,10.92-11.3,10.92c-5.92,0-11.3-3.58-11.3-10.92
		C102.91,16.67,108.3,13.09,114.22,13.09z M114.22,32.95c4.57,0,8.97-2.68,8.97-8.94c0-6.26-4.4-8.95-8.97-8.95
		c-4.58,0-8.97,2.68-8.97,8.95C105.24,30.27,109.64,32.95,114.22,32.95z"/>
	<path class="st1" d="M128.89,13.61h11.33c3.53,0,6.76,1.25,6.76,5.63c0,2.21-1.37,4.42-4.08,5.03v0.06
		c2.94,0.47,3.55,2.36,3.7,5.77c0.06,1.31,0.23,3.84,0.73,4.31H145c-0.38-0.44-0.52-1.98-0.55-4.25c-0.06-3.67-1.46-4.9-5.04-4.9
		h-8.36v9.15h-2.15V13.61z M131.05,23.28h9.12c2.36,0,4.48-0.87,4.48-4.05c0-3.06-2.3-3.64-4.28-3.64h-9.32V23.28z"/>
	<path class="st1" d="M150.48,13.61h11.33c3.53,0,6.76,1.25,6.76,5.63c0,2.21-1.37,4.42-4.08,5.03v0.06
		c2.94,0.47,3.55,2.36,3.7,5.77c0.06,1.31,0.23,3.84,0.73,4.31h-2.33c-0.38-0.44-0.52-1.98-0.55-4.25c-0.06-3.67-1.46-4.9-5.04-4.9
		h-8.36v9.15h-2.15V13.61z M152.63,23.28h9.12c2.36,0,4.49-0.87,4.49-4.05c0-3.06-2.3-3.64-4.28-3.64h-9.32V23.28z"/>
	<path class="st1" d="M172.06,13.61h2.15v11.25l13.43-11.25h3.12l-10.31,8.59l11.01,12.21h-3.06l-9.64-10.75l-4.55,3.73v7.02h-2.15
		V13.61z"/>
	<path class="st1" d="M203.78,13.09c5.91,0,11.3,3.58,11.3,10.92c0,7.34-5.39,10.92-11.3,10.92s-11.3-3.58-11.3-10.92
		C192.48,16.67,197.87,13.09,203.78,13.09z M203.78,32.95c4.58,0,8.97-2.68,8.97-8.94c0-6.26-4.4-8.95-8.97-8.95
		c-4.57,0-8.97,2.68-8.97,8.95C194.81,30.27,199.21,32.95,203.78,32.95z M199.41,9.13h2.16v3.2h-2.16V9.13z M205.99,9.13h2.16v3.2
		h-2.16V9.13z"/>
	<path class="st1" d="M218.46,13.61h11.21c3.2,0,6.26,1.6,6.26,6c0,3.93-2.59,6.06-7.23,6.06h-8.1v8.74h-2.15V13.61z M220.62,23.69
		h8.33c3.61,0,4.66-1.66,4.66-4.08c0-3.12-1.74-4.02-4.22-4.02h-8.77V23.69z"/>
	<path class="st1" d="M238.85,13.61h2.15v20.8h-2.15V13.61z"/>
	<path class="st1" d="M245.08,13.61h2.59l14.54,17.77h0.05V13.61h2.16v20.8h-2.5L247.3,16.64h-0.06v17.77h-2.15V13.61z"/>
	<path class="st1" d="M287.72,30.47h-0.06c-2.12,3.06-4.57,4.46-8.65,4.46c-7.05,0-10.89-4.43-10.89-10.92
		c0-6.29,4.23-10.92,11.13-10.92c5.79,0,9.5,3.26,10.05,7.1h-2.33c-0.84-3.52-3.99-5.13-7.72-5.13c-5.68,0-8.79,3.47-8.79,8.95
		c0,5.59,2.85,8.94,8.39,8.94c6.24,0,8.21-3.55,8.85-7.28h-7.63v-1.98h9.61v10.72h-1.66L287.72,30.47z"/>
	<path class="st1" d="M85.62,51.97c0.11,2.29,1.53,3.03,3.69,3.03c1.53,0,3.11-0.54,3.11-1.99c0-1.72-2.78-2.05-5.6-2.84
		c-2.79-0.79-5.71-2.05-5.71-5.62c0-4.26,4.29-5.92,7.94-5.92c3.88,0,7.78,1.88,7.81,6.28h-5.08c0.08-1.78-1.59-2.35-3.14-2.35
		c-1.09,0-2.46,0.38-2.46,1.67c0,1.5,2.81,1.78,5.65,2.57c2.81,0.79,5.65,2.1,5.65,5.62c0,4.94-4.21,6.53-8.5,6.53
		c-4.48,0-8.44-1.97-8.47-6.96H85.62z"/>
	<path class="st1" d="M112.82,45.99c-0.27-1.97-1.8-3.01-3.93-3.01c-3.28,0-4.54,2.9-4.54,5.79c0,2.9,1.26,5.79,4.54,5.79
		c2.37,0,3.74-1.37,3.93-3.61h5.08c-0.27,5.03-3.96,7.98-8.91,7.98c-5.9,0-9.72-4.51-9.72-10.16s3.82-10.16,9.72-10.16
		c4.2,0,8.77,2.68,8.91,7.37H112.82z"/>
	<path class="st1" d="M120.6,39.02h5.08v19.5h-5.08V39.02z"/>
	<path class="st1" d="M129.21,39.02h15.54v4.07h-10.46v3.41h9.56v3.93h-9.56v3.72h10.73v4.37h-15.81V39.02z"/>
	<path class="st1" d="M147.86,39.02h5.21l6.77,12.02h0.05V39.02h4.78v19.5h-5.22l-6.77-12.15h-0.05v12.15h-4.77V39.02z"/>
	<path class="st1" d="M181.09,45.99c-0.27-1.97-1.8-3.01-3.93-3.01c-3.28,0-4.54,2.9-4.54,5.79c0,2.9,1.26,5.79,4.54,5.79
		c2.37,0,3.74-1.37,3.93-3.61h5.08c-0.27,5.03-3.96,7.98-8.9,7.98c-5.9,0-9.72-4.51-9.72-10.16s3.82-10.16,9.72-10.16
		c4.2,0,8.77,2.68,8.9,7.37H181.09z"/>
	<path class="st1" d="M188.87,39.02h15.54v4.07h-10.46v3.41h9.56v3.93h-9.56v3.72h10.74v4.37h-15.82V39.02z"/>
	<path class="st1" d="M216.18,39.02h9.26c3.63,0,7.05,1.67,7.05,6.28c0,4.83-2.76,6.72-7.05,6.72h-4.18v6.5h-5.08V39.02z
		 M221.26,48.09h3.41c1.59,0,2.73-0.66,2.73-2.43c0-1.83-1.18-2.57-2.73-2.57h-3.41V48.09z"/>
	<path class="st1" d="M238.17,39.02h5.16l7.29,19.5h-5.3l-1.2-3.5h-6.8l-1.23,3.5h-5.21L238.17,39.02z M238.49,51.26h4.42
		l-2.15-6.83h-0.06L238.49,51.26z"/>
	<path class="st1" d="M252.09,39.02h9.94c3.44,0,6.83,1.56,6.83,5.49c0,2.1-1.01,4.1-3.06,4.89v0.05c2.08,0.49,2.68,2.81,2.84,4.67
		c0.05,0.82,0.14,3.69,0.82,4.4h-5.03c-0.43-0.65-0.52-2.57-0.57-3.12c-0.14-1.96-0.46-3.98-2.84-3.98h-3.85v7.1h-5.08V39.02z
		 M257.17,47.49h4.26c1.53,0,2.35-0.82,2.35-2.29c0-1.45-1.15-2.1-2.57-2.1h-4.04V47.49z"/>
	<path class="st1" d="M271.81,39.02h5.08v7.49l6.42-7.49h6.31l-7.21,7.68l8.12,11.83h-6.31l-5.24-8.19l-2.07,2.18v6.01h-5.08V39.02z
		"/>
	<path class="st2" d="M11.41,45.13c0.64-0.34,1.28-0.67,1.91-0.99c-2.11-0.37-4.2-0.85-6.26-1.5v4.79c0.16,0,0.31,0.01,0.47,0.01
		C9.15,46.41,10.52,45.6,11.41,45.13z"/>
	<path class="st2" d="M44.17,37.22c-4.11,1.87-7.48,3.66-10.53,5.63c4.12-0.38,8.19-0.93,12.15-1.47c3.84-0.52,7.47-1.02,11-1.34
		c3-0.28,5.89-0.48,8.7-0.62v-2.2C58.97,36.59,51.85,36.24,44.17,37.22z"/>
	<path class="st2" d="M7.95,49.1c-0.29,0.19-0.59,0.38-0.9,0.57v7.35c3.36-0.33,6.75-0.9,10.12-1.61c1.82-2.07,3.53-3.92,4.82-5.24
		C17.52,49.64,12.8,49.23,7.95,49.1z"/>
	<path class="st2" d="M49.02,35.11c5.86-0.35,11.35-0.03,16.47,0.46v-5.12c-5.21,0.94-10.76,2.27-16.44,4.64
		C49.04,35.1,49.03,35.1,49.02,35.11z"/>
	<path class="st2" d="M19.9,54.81c3.6-0.83,7.16-1.76,10.62-2.68l1.81-0.47c-2.63-0.43-5.4-0.85-8.27-1.23
		C22.98,51.48,21.51,53.02,19.9,54.81z"/>
	<path class="st2" d="M30.32,43.12c2.56-1.83,5.27-3.47,8.42-5.1c-7.86,1.28-13.71,2.83-19.37,5.16
		C23,43.42,26.66,43.36,30.32,43.12z"/>
	<path class="st2" d="M65.49,55.12v-4.7c-1.16-0.17-2.34-0.3-3.54-0.41c-6.82-0.59-14.09-0.1-21.67,1.43
		c0.61,0.12,1.22,0.23,1.84,0.36C49.64,53.27,57.68,54.85,65.49,55.12z"/>
	<path class="st2" d="M16.23,44.56c-1.33,0.62-2.67,1.29-4.04,2.02c-0.49,0.26-1.06,0.59-1.7,0.97c4.5,0.21,8.87,0.63,13.02,1.15
		c1.49-1.37,2.95-2.63,4.44-3.8C24.02,45.07,20.1,45.01,16.23,44.56z"/>
	<path class="st2" d="M43.09,35.69c0.21-0.02,0.42-0.05,0.62-0.07c1.47-0.67,3.03-1.35,4.71-2.05c5.93-2.48,11.68-3.84,17.07-4.79
		V6.87H7.05v34.02c2.91,0.96,5.9,1.58,8.93,1.96C23.74,39.29,31.27,37.35,43.09,35.69z"/>
	<path class="st2" d="M46.01,43.01c-4.91,0.66-9.99,1.36-15.12,1.72c-1.79,1.3-3.51,2.7-5.25,4.25c2.57,0.35,5.05,0.74,7.42,1.13
		c1.04,0.17,2.08,0.36,3.14,0.56c9.1-2.21,17.8-2.98,25.89-2.29c1.15,0.1,2.29,0.23,3.4,0.39v-7.69c-2.76,0.14-5.61,0.34-8.55,0.61
		C53.44,42,49.84,42.5,46.01,43.01z"/>
	<path class="st2" d="M7.05,58.63v6.68h2.01c1.76-2.4,4.07-5.23,6.36-7.89C12.65,57.94,9.86,58.36,7.05,58.63z"/>
	<path class="st2" d="M36.25,52.35c-0.3,0.07-0.6,0.14-0.9,0.22l-4.4,1.15c-4.09,1.08-8.43,2.23-12.89,3.17
		c-2.42,2.77-4.97,5.83-6.93,8.42h54.37v-8.54c-7.94-0.27-16.08-1.87-23.69-3.36C39.89,53.04,38.05,52.68,36.25,52.35z"/>
</g>
</svg>
