<?xml version="1.0" encoding="utf-8"?>
<!-- Generator: Adobe Illustrator 24.1.2, SVG Export Plug-In . SVG Version: 6.00 Build 0)  -->
<svg version="1.1" id="Layer_1" xmlns="http://www.w3.org/2000/svg" xmlns:xlink="http://www.w3.org/1999/xlink" x="0px" y="0px"
	 viewBox="0 0 525.8 175.4" style="enable-background:new 0 0 525.8 175.4;" xml:space="preserve">
<g>
	<path d="M50.8,111.8c-3.6-0.5-5-3.1-5.1-5.2c-0.1-2.5,1.6-4.8,4-5.4c1.5-0.4,2.9-0.2,4.2,0.6c1.3,0.8,2.1,1.9,2.5,3.5
		c0.8-2.7,2.4-4.4,5.2-4.6c2.7-0.3,4.6,1,5.9,3.5c1-2.2,2.6-3.4,5-3.8c-3.1-0.9-4.7-3-4.3-5.7c0.3-2.4,2.4-4.3,4.9-4.3
		c2.5,0,4.6,1.8,5,4.3c0.4,2.6-1.2,4.8-4.3,5.7c1.2,0.2,2.2,0.6,3.1,1.3c0.9,0.7,1.5,1.5,2,2.6c1.2-2.4,3-3.7,5.7-3.6
		c2.6,0.1,4.3,1.6,5.3,4.1c1.1-2.7,3.1-4.2,6-3.9c2.5,0.2,4,1.7,4.8,4.2c1.2-3.2,3.4-4.8,6.8-4.2c2.6,0.5,4,2.3,4.5,5
		c0.3-1.6,1-2.9,2.2-3.8c1.3-0.9,2.7-1.2,4.2-0.9c2.6,0.5,4.4,2.8,4.3,5.3c-0.1,2.6-2,4.7-4.6,5.1c-1.5,0.2-2.8-0.1-4-1
		c-1.2-0.9-1.8-2.1-2.1-3.7c-0.6,3-2.3,4.7-4.8,5.1c-1.5,0.2-2.8,0-4.1-0.8c-1.2-0.8-2-2-2.5-3.5c-1,2.7-2.7,4.2-5.5,4.3
		c-1.9,0-4.2-1-5.3-3.9c-0.3,0.5-0.5,1.1-0.8,1.5c-0.4,0.5-0.8,1-1.2,1.3c-0.4,0.4-1,0.6-1.5,1c2.3,1,3.7,2.8,3.8,5.3
		c0.1,2.6-1.2,4.4-3.6,5.6c2.3,1.2,3.7,2.9,3.7,5.5c0,2.6-1.2,4.4-3.5,5.6c2.7,1.6,4,3.9,3.2,7c-0.6,2.4-2.3,4-4.8,4.3
		c-3.1,0.4-5.3-1-6.6-3.8c-1.4,2.8-3.5,4.1-6.5,3.5c-2.3-0.4-4.1-2.3-4.4-4.6c-0.3-2,0.3-4.6,3.3-6.2c-0.5-0.3-1-0.6-1.5-1
		c-0.4-0.4-0.9-0.8-1.2-1.3c-0.3-0.5-0.6-1.1-0.9-1.7c-0.6,1.5-1.6,2.6-3.2,3.2c-1,0.4-2.1,0.4-3.2,0.2c-2.1-0.5-3.7-2.3-3.9-4.5
		c-0.2-1.3,0.1-2.5,0.9-3.6c0.7-1.1,1.8-1.8,3-2.2c-1-0.4-2-0.8-2.7-1.6c-0.8-0.7-1.3-1.6-1.6-2.7c-1.6,3.1-3.9,4.4-6.7,3.7
		c-2.5-0.6-4.2-2.9-4.2-5.4C45.7,115.1,47,112.4,50.8,111.8z M56.5,107.6c-0.8,2.5-2.4,3.9-5.1,4.2c2.5,0.3,4.2,1.6,5.1,4
		c0.6-1.9,1.8-3.2,3.7-4C58.2,110.9,57,109.5,56.5,107.6z M67.5,120c-0.9,1.7-2.2,2.7-4,3.2c1.8,0.6,3,1.7,3.7,3.5
		c0.6-1.7,1.6-2.9,3.1-3.8C69,122.2,68.1,121.3,67.5,120z M81.8,133.9c-1.4-0.7-2.3-1.6-3-3c-0.7,1.5-1.8,2.5-3.3,3.2
		c1.5,0.7,2.5,1.8,3.1,3.3C79.2,135.8,80.2,134.6,81.8,133.9z M78.9,114.8c0.8-1.5,1.9-2.4,3.4-3.1c-1.6-0.7-2.7-1.8-3.5-3.4
		c-0.6,1.5-1.5,2.5-2.9,3.3C77.3,112.4,78.2,113.4,78.9,114.8z M67.4,114.6c0.4-0.6,0.8-1.2,1.3-1.6c0.5-0.5,1-0.9,1.5-1.2
		c-0.5-0.5-1.1-0.9-1.5-1.4c-0.4-0.5-0.8-1.1-1.2-1.7c-0.7,1.5-1.7,2.5-3.3,3.1C65.7,112.4,66.7,113.3,67.4,114.6z M76.1,122.9
		c0.6,0.5,1.1,0.8,1.5,1.3c0.4,0.5,0.8,1,1.2,1.6c0.7-1.4,1.7-2.3,3.2-3c-1.4-0.7-2.4-1.6-3.1-2.9C78.2,121.2,77.3,122.2,76.1,122.9
		z"/>
	<path d="M40.2,34.8c3,0,5.5,2.5,5.4,5.5c0,3-2.5,5.4-5.4,5.4c-3,0-5.5-2.5-5.4-5.5C34.7,37.2,37.2,34.8,40.2,34.8z"/>
	<path d="M45.7,40.2c0-3,2.5-5.4,5.5-5.4c3,0,5.4,2.4,5.4,5.4c0,3-2.5,5.5-5.5,5.4C48.1,45.7,45.7,43.2,45.7,40.2z"/>
	<path d="M29.1,45.6c-3,0-5.4-2.4-5.4-5.4c0-3,2.4-5.4,5.4-5.4c3,0,5.4,2.4,5.4,5.4C34.5,43.2,32.1,45.6,29.1,45.6z"/>
	<path d="M133.9,117.3c0-3,2.4-5.4,5.4-5.4c3,0,5.4,2.4,5.4,5.4c0,3-2.5,5.4-5.4,5.4C136.3,122.7,133.9,120.3,133.9,117.3z"/>
	<path d="M23.8,51.3c0-3,2.4-5.4,5.4-5.4c2.9,0,5.4,2.4,5.4,5.4c0,3-2.4,5.4-5.4,5.4C26.1,56.6,23.8,54.2,23.8,51.3z"/>
	<path d="M62.1,45.6c-2.9,0-5.3-2.4-5.3-5.3c0-3,2.4-5.4,5.4-5.4c3,0,5.3,2.4,5.3,5.4C67.5,43.2,65.1,45.6,62.1,45.6z"/>
	<path d="M73.1,78.6c-2.9,0-5.3-2.4-5.3-5.3c0-2.9,2.4-5.3,5.3-5.3c3,0,5.3,2.4,5.3,5.4C78.4,76.3,76.1,78.6,73.1,78.6z"/>
	<path d="M40.3,112.1c2.9,0.1,5.2,2.4,5.2,5.4c0,2.9-2.5,5.2-5.4,5.2c-2.9,0-5.2-2.5-5.1-5.4C35,114.3,37.4,112,40.3,112.1z"/>
	<path d="M35,51.2c0-2.8,2.3-5.2,5.2-5.2c2.9,0,5.2,2.3,5.2,5.2c0,2.9-2.3,5.2-5.2,5.2C37.3,56.5,35,54.1,35,51.2z"/>
	<path d="M150.3,133.5c-2.9,0.1-5.2-2.2-5.3-5.1c-0.1-2.9,2.2-5.2,5-5.3c2.9-0.1,5.3,2.2,5.3,5C155.5,131.1,153.2,133.5,150.3,133.5
		z"/>
	<path d="M67.3,73.3c0,2.8-2.3,5.1-5.1,5.1c-2.8,0-5.1-2.3-5.1-5.1c0-2.8,2.3-5.1,5.1-5.1C65,68.2,67.3,70.4,67.3,73.3z"/>
	<path d="M24,117.2c0.1-2.8,2.4-5.1,5.2-5c2.8,0.1,5.1,2.4,5,5.2c-0.1,2.8-2.4,5-5.2,5C26.2,122.4,24,120.1,24,117.2z"/>
	<path d="M166.4,139.3c0,2.8-2.2,5.1-5.1,5.1c-2.8,0-5.1-2.3-5.1-5.1c0-2.8,2.3-5.2,5.1-5.1C164.1,134.2,166.4,136.5,166.4,139.3z"
		/>
	<path d="M128.3,112.2c2.8,0,5.1,2.3,5.1,5.1c0,2.8-2.3,5.1-5.1,5.1c-2.8,0-5.1-2.3-5.1-5.1C123.2,114.5,125.4,112.2,128.3,112.2z"
		/>
	<path d="M40.1,111.4c-2.8,0-5-2.3-5-5.1c0-2.8,2.3-5,5.1-5c2.8,0,5.1,2.3,5.1,5.1C45.2,109.2,42.9,111.4,40.1,111.4z"/>
	<path d="M122.3,117.3c0,2.8-2.3,5.1-5.1,5.1c-2.8,0-5.1-2.3-5.1-5.1c0-2.8,2.3-5,5.1-5C120,112.2,122.3,114.5,122.3,117.3z"/>
	<path d="M73.1,35.2c2.8,0,5,2.2,5.1,5c0,2.8-2.2,5.1-5,5.1c-2.8,0-5.1-2.2-5.1-5C68.1,37.5,70.3,35.2,73.1,35.2z"/>
	<path d="M51.1,89.4c-2.8-0.1-5-2.3-5-5.1c0-2.8,2.3-5,5.2-5c2.8,0.1,5,2.4,4.9,5.2C56.2,87.2,53.8,89.4,51.1,89.4z"/>
	<path d="M150.2,122.3c-2.8,0-5-2.3-5-5.1c0-2.8,2.3-5,5.1-5c2.8,0,5,2.3,5,5.1C155.3,120.1,153,122.4,150.2,122.3z"/>
	<path d="M34.2,106.4c0,2.8-2.3,5-5.1,5c-2.8,0-5-2.3-5-5.1c0-2.8,2.3-5,5.1-5C32,101.3,34.2,103.6,34.2,106.4z"/>
	<path d="M62.2,89.4c-2.8,0-5-2.3-5-5.1c0-2.8,2.3-5,5.1-5c2.8,0,5,2.3,5,5.1C67.2,87.1,64.9,89.4,62.2,89.4z"/>
	<path d="M161.3,133.4c-2.8,0-5-2.3-5-5.1c0-2.7,2.3-5,5-5c2.7,0,5,2.3,5,5C166.3,131.1,164,133.4,161.3,133.4z"/>
	<path d="M18.2,46.3c2.8,0,5,2.2,5,5c0,2.8-2.3,5.1-5,5.1c-2.8,0-5-2.3-5-5.1C13.2,48.5,15.4,46.3,18.2,46.3z"/>
	<path d="M106.2,122.3c-2.8,0-5-2.2-5-5c0-2.8,2.2-5,5-5c2.8,0,5,2.2,5,5C111.2,120.1,109,122.3,106.2,122.3z"/>
	<path d="M100.1,117.3c0,2.8-2.2,5-5,5c-2.7,0-5-2.3-5-5c0-2.7,2.2-4.9,5-5C97.9,112.3,100.1,114.5,100.1,117.3z"/>
	<path d="M18.1,45.2c-2.7,0-4.9-2.2-4.9-5c0-2.7,2.2-5,5-5c2.8,0,5,2.2,5,5C23.1,43,20.9,45.2,18.1,45.2z"/>
	<path d="M68.2,29.3c0-2.8,2.2-5,4.9-5c2.8,0,5,2.2,5,5c0,2.7-2.2,5-5,5C70.4,34.2,68.2,32,68.2,29.3z"/>
	<path d="M62.2,100.2c-2.7,0-5-2.2-5-4.9c0-2.7,2.2-5,5-5c2.7,0,4.9,2.2,4.9,5C67.1,98,65,100.2,62.2,100.2z"/>
	<path d="M79.2,73.3c0-2.8,2.2-5,4.9-5c2.8,0,5,2.2,5,5c0,2.7-2.2,5-5,5C81.5,78.3,79.3,76.1,79.2,73.3z"/>
	<path d="M68.2,84.3c0-2.8,2.2-5,4.9-5c2.7,0,5,2.2,5,4.9c0,2.7-2.2,5-4.9,5C70.5,89.3,68.2,87.1,68.2,84.3z"/>
	<path d="M56.1,95.3c0,2.7-2.2,4.9-4.9,4.9c-2.7,0-5-2.2-5-4.9c0-2.7,2.2-4.9,4.9-4.9C53.8,90.4,56.1,92.6,56.1,95.3z"/>
	<path d="M106.2,78.2c-2.7,0-4.9-2.2-4.9-4.9c0-2.7,2.2-4.9,4.9-4.9c2.7,0,4.9,2.2,4.9,4.9C111.1,76,108.9,78.2,106.2,78.2z"/>
	<path d="M128.2,101.5c2.7,0,4.9,2.2,4.9,4.9c0,2.7-2.2,4.9-4.9,4.9c-2.7,0-4.8-2.2-4.9-4.9C123.3,103.7,125.5,101.5,128.2,101.5z"
		/>
	<path d="M89.1,150.4c0,2.7-2.2,4.9-4.9,4.9c-2.7,0-4.9-2.2-4.9-4.9c0-2.7,2.2-4.9,4.9-4.9C86.9,145.5,89.1,147.7,89.1,150.4z"/>
	<path d="M51.2,133.2c-2.7,0-4.9-2.1-4.9-4.8c0-2.7,2.2-4.9,4.9-4.9c2.7,0,4.9,2.2,4.9,4.9C56,131,53.8,133.2,51.2,133.2z"/>
	<path d="M90.3,139.3c0-2.7,2.2-4.9,4.8-4.9c2.7,0,4.9,2.2,4.9,4.8c0,2.7-2.2,4.9-4.8,4.9C92.5,144.2,90.3,142,90.3,139.3z"/>
	<path d="M35.3,95.3c0-2.7,2.1-4.8,4.8-4.9c2.7,0,4.9,2.1,4.9,4.8c0,2.7-2.2,4.9-4.8,4.9C37.5,100.1,35.4,98,35.3,95.3z"/>
	<path d="M62.2,24.4c2.7,0,4.8,2.1,4.8,4.8c0,2.7-2.2,4.9-4.8,4.9c-2.6,0-4.8-2.2-4.8-4.8C57.4,26.6,59.5,24.4,62.2,24.4z"/>
	<path d="M40.1,79.5c2.7,0,4.8,2.1,4.9,4.8c0,2.6-2.2,4.8-4.8,4.9c-2.6,0-4.8-2.1-4.8-4.8C35.4,81.7,37.5,79.5,40.1,79.5z"/>
	<path d="M95.2,68.5c2.7,0,4.8,2.2,4.7,4.9c0,2.6-2.2,4.8-4.8,4.7c-2.6,0-4.8-2.2-4.8-4.8C90.4,70.6,92.5,68.5,95.2,68.5z"/>
	<path d="M29.2,123.6c2.6,0,4.8,2.2,4.7,4.8c0,2.6-2.2,4.8-4.9,4.8c-2.7,0-4.8-2.2-4.7-4.9C24.4,125.6,26.5,123.5,29.2,123.6z"/>
	<path d="M106.2,155.2c-2.6,0-4.8-2.1-4.8-4.8c0-2.6,2.2-4.8,4.8-4.8c2.7,0,4.8,2.2,4.8,4.9C111,153,108.8,155.2,106.2,155.2z"/>
	<path d="M29.1,100.1c-2.7,0-4.8-2.2-4.8-4.8c0-2.6,2.2-4.8,4.8-4.8c2.6,0,4.8,2.2,4.8,4.8C34,97.9,31.8,100.1,29.1,100.1z"/>
	<path d="M73.1,155.1c-2.6,0-4.8-2.2-4.7-4.8c0-2.6,2.1-4.8,4.8-4.8c2.7,0,4.8,2.2,4.8,4.8C77.9,153.1,75.8,155.2,73.1,155.1z"/>
	<path d="M55.9,51.3c0,2.6-2.1,4.8-4.8,4.8c-2.7,0-4.8-2.2-4.8-4.8c0-2.6,2.2-4.8,4.8-4.7C53.8,46.5,55.9,48.6,55.9,51.3z"/>
	<path d="M57.4,139.3c0-2.7,2.1-4.8,4.7-4.8c2.6,0,4.8,2.1,4.8,4.8c0,2.6-2.1,4.7-4.7,4.8C59.6,144.1,57.4,142,57.4,139.3z"/>
	<path d="M95.2,145.6c2.6,0,4.7,2.1,4.7,4.7c0,2.6-2.2,4.8-4.8,4.8c-2.6,0-4.7-2.1-4.7-4.8C90.5,147.7,92.6,145.6,95.2,145.6z"/>
	<path d="M55.8,73.3c0,2.6-2.1,4.7-4.8,4.7c-2.6,0-4.6-2.2-4.6-4.7c0-2.6,2.2-4.7,4.8-4.7C53.8,68.6,55.9,70.7,55.8,73.3z"/>
	<path d="M29.1,57.6c2.6,0,4.7,2.1,4.7,4.7c0,2.6-2.2,4.7-4.7,4.7c-2.6,0-4.6-2.1-4.6-4.7C24.5,59.7,26.5,57.6,29.1,57.6z"/>
	<path d="M18.2,112.7c2.6,0,4.7,2.1,4.7,4.7c0,2.6-2.1,4.7-4.7,4.7c-2.5,0-4.6-2.1-4.6-4.7C13.5,114.8,15.6,112.7,18.2,112.7z"/>
	<path d="M22.8,106.4c0,2.6-2.1,4.6-4.7,4.6c-2.6,0-4.6-2.1-4.6-4.7c0-2.6,2.1-4.6,4.6-4.6C20.7,101.7,22.8,103.8,22.8,106.4z"/>
	<path d="M88.8,95.3c0,2.6-2.1,4.6-4.6,4.6c-2.5,0-4.6-2.1-4.6-4.6c0-2.5,2.1-4.6,4.6-4.6C86.7,90.7,88.8,92.7,88.8,95.3z"/>
	<path d="M57.6,150.4c0-2.5,2-4.6,4.6-4.6c2.5,0,4.6,2,4.6,4.6c0,2.5-2.1,4.6-4.6,4.6C59.7,155,57.6,152.9,57.6,150.4z"/>
	<path d="M55.7,29.3c0,2.5-2,4.5-4.5,4.5c-2.5,0-4.6-2.1-4.5-4.6c0-2.5,2.1-4.5,4.6-4.5C53.7,24.8,55.7,26.8,55.7,29.3z"/>
	<path d="M88.6,29.2c0,2.5-2,4.4-4.4,4.4c-2.5,0-4.5-2-4.5-4.4c0-2.4,2-4.5,4.5-4.5C86.6,24.8,88.6,26.8,88.6,29.2z"/>
	<path d="M84.2,79.9c2.4,0,4.4,1.9,4.5,4.4c0,2.4-1.9,4.4-4.3,4.5c-2.5,0-4.5-1.9-4.5-4.4C79.8,81.9,81.7,79.9,84.2,79.9z"/>
	<path d="M35.8,128.3c0.1-2.4,2.1-4.4,4.5-4.3c2.5,0.1,4.4,2.1,4.3,4.5c-0.1,2.4-2.1,4.3-4.5,4.3C37.6,132.7,35.7,130.7,35.8,128.3z
		"/>
	<path d="M99.5,128.3c0,2.4-1.9,4.4-4.4,4.4c-2.4,0-4.4-2-4.4-4.4c0-2.4,2-4.4,4.4-4.4C97.6,124,99.5,125.9,99.5,128.3z"/>
	<path d="M73.1,165.8c-2.4,0-4.4-1.9-4.4-4.3c0-2.4,2-4.4,4.4-4.4c2.4,0,4.4,2,4.4,4.4C77.6,163.8,75.6,165.8,73.1,165.8z"/>
	<path d="M18.2,57.9c2.4,0,4.3,2,4.3,4.4c0,2.4-2,4.4-4.4,4.4c-2.4,0-4.4-2-4.4-4.4C13.8,59.8,15.8,57.9,18.2,57.9z"/>
	<path d="M161.3,146c2.4,0,4.4,1.9,4.4,4.4c0,2.4-1.9,4.3-4.3,4.3c-2.4,0-4.4-1.9-4.4-4.3C156.9,148,158.9,146,161.3,146z"/>
	<path d="M18.1,132.7c-2.4,0-4.3-1.9-4.3-4.3c0-2.4,1.9-4.3,4.3-4.3c2.4,0,4.4,2,4.3,4.4C22.5,130.8,20.5,132.7,18.1,132.7z"/>
	<path d="M44.5,29.3c0,2.4-1.9,4.3-4.3,4.3c-2.4,0-4.3-1.9-4.4-4.3c0-2.4,2-4.4,4.4-4.4C42.6,24.9,44.5,26.9,44.5,29.3z"/>
	<path d="M46.8,139.2c0-2.4,2-4.3,4.4-4.2c2.4,0,4.3,2,4.3,4.4c0,2.4-2,4.3-4.4,4.3C48.7,143.6,46.8,141.7,46.8,139.2z"/>
	<path d="M117.2,77.6c-2.4,0-4.3-1.9-4.3-4.3c0-2.4,1.9-4.3,4.3-4.3c2.4,0,4.4,2,4.3,4.4C121.6,75.7,119.6,77.6,117.2,77.6z"/>
	<path d="M84.2,157.1c2.4,0,4.3,1.9,4.3,4.3c0,2.4-2,4.3-4.3,4.3c-2.4,0-4.3-2-4.3-4.3C79.9,159,81.8,157.1,84.2,157.1z"/>
	<path d="M44.5,62.2c0,2.4-1.9,4.3-4.3,4.3c-2.4,0-4.3-1.9-4.3-4.3c0-2.4,1.9-4.3,4.3-4.3C42.5,57.9,44.5,59.8,44.5,62.2z"/>
	<path d="M143.6,106.3c0,2.4-1.9,4.3-4.3,4.3c-2.3,0-4.3-1.9-4.3-4.3c0-2.4,1.9-4.3,4.3-4.3C141.6,102.1,143.5,104,143.6,106.3z"/>
	<path d="M95.2,165.7c-2.4,0-4.3-1.9-4.3-4.3c0-2.4,1.9-4.3,4.3-4.3c2.4,0,4.3,1.9,4.3,4.3C99.4,163.8,97.5,165.7,95.2,165.7z"/>
	<path d="M62.3,47c2.3,0,4.2,2,4.2,4.4c-0.1,2.4-2,4.2-4.4,4.2c-2.4-0.1-4.2-2-4.2-4.4C57.9,48.8,59.9,47,62.3,47z"/>
	<path d="M35.9,73.3c0-2.4,1.9-4.3,4.2-4.3c2.4,0,4.3,1.9,4.3,4.3c0,2.3-1.9,4.2-4.2,4.3C37.9,77.6,35.9,75.7,35.9,73.3z"/>
	<path d="M18.1,143.5c-2.3,0-4.2-1.9-4.2-4.2c0-2.3,1.9-4.2,4.2-4.2c2.3,0,4.2,1.9,4.2,4.2C22.4,141.7,20.5,143.5,18.1,143.5z"/>
	<path d="M135,128.4c0-2.3,1.9-4.2,4.2-4.2c2.3,0,4.2,1.9,4.2,4.2c0,2.3-1.9,4.2-4.2,4.2C136.9,132.6,135.1,130.7,135,128.4z"/>
	<path d="M66.4,161.4c0,2.3-1.9,4.2-4.2,4.2c-2.3,0-4.2-1.9-4.2-4.2c0-2.3,1.9-4.2,4.2-4.2C64.5,157.2,66.4,159.1,66.4,161.4z"/>
	<path d="M33.3,84.3c0,2.3-1.8,4.2-4.2,4.2c-2.3,0-4.2-1.9-4.2-4.2c0-2.3,1.9-4.2,4.2-4.2C31.4,80.1,33.3,82,33.3,84.3z"/>
	<path d="M91,95.3c0-2.3,1.8-4.2,4.2-4.2c2.3,0,4.2,1.9,4.2,4.2c0,2.3-1.9,4.2-4.2,4.2C92.9,99.5,91,97.6,91,95.3z"/>
	<path d="M102,95.3c0-2.3,1.8-4.2,4.2-4.2c2.3,0,4.2,1.9,4.2,4.2c0,2.3-1.9,4.2-4.2,4.2C103.9,99.5,102,97.6,102,95.3z"/>
	<path d="M106.3,157.3c2.3,0,4.1,1.9,4.1,4.2c0,2.3-1.9,4.1-4.2,4.1c-2.3,0-4.2-1.9-4.1-4.2C102.1,159.1,104,157.2,106.3,157.3z"/>
	<path d="M22.3,150.4c0,2.3-1.8,4.1-4.1,4.1c-2.3,0-4.1-1.9-4.1-4.1c0-2.3,1.9-4.1,4.2-4.1C20.5,146.2,22.3,148.1,22.3,150.4z"/>
	<path d="M110.3,84.3c0,2.3-1.8,4.1-4.1,4.2c-2.3,0-4.1-1.8-4.2-4.1c0-2.3,1.8-4.1,4.1-4.1C108.5,80.2,110.3,82,110.3,84.3z"/>
	<path d="M165.4,117.3c0,2.3-1.9,4.1-4.2,4.1c-2.3,0-4.1-1.9-4.1-4.2c0-2.3,1.9-4.1,4.2-4.1C163.6,113.2,165.4,115,165.4,117.3z"/>
	<path d="M55.2,150.3c0,2.3-1.8,4.1-4.1,4.1c-2.3,0-4.1-1.8-4.1-4.1c0-2.3,1.9-4.1,4.1-4.1C53.4,146.3,55.2,148.1,55.2,150.3z"/>
	<path d="M121.3,150.5c0,2.3-1.9,4-4.2,4c-2.2,0-4-1.9-4-4.1c0-2.2,1.9-4.1,4.1-4.1C119.6,146.3,121.4,148.1,121.3,150.5z"/>
	<path d="M25.1,29.3c0-2.3,1.8-4.1,4.1-4.1c2.3,0,4.1,1.8,4.1,4.1c0,2.2-1.8,4-4,4.1C26.9,33.4,25.1,31.5,25.1,29.3z"/>
	<path d="M95.2,33.3c-2.2,0-4-1.8-4.1-4c0-2.2,1.8-4.1,4-4.1c2.3,0,4.1,1.8,4.1,4.1C99.2,31.5,97.4,33.3,95.2,33.3z"/>
	<path d="M84.2,36.2c2.2,0,4,1.8,4,4c0,2.2-1.8,4.1-4,4.1c-2.3,0-4.1-1.8-4.1-4.1C80.2,38,82,36.2,84.2,36.2z"/>
	<path d="M146.2,139.3c0-2.2,1.8-4,4-4c2.3,0,4.1,1.8,4.1,4.1c0,2.2-1.9,4-4.1,4C148,143.4,146.2,141.6,146.2,139.3z"/>
	<path d="M132.3,84.3c0,2.3-1.8,4-4.1,4c-2.2,0-4-1.8-4-4c0-2.2,1.8-4.1,4-4.1C130.4,80.3,132.3,82.1,132.3,84.3z"/>
	<path d="M157.3,161.4c0-2.3,1.8-4,4-4c2.2,0,4.1,1.8,4,4c0,2.2-1.8,4-4,4C159.1,165.5,157.3,163.7,157.3,161.4z"/>
	<path d="M117.3,88.4c-2.3,0-4-1.8-4-4c0-2.2,1.8-4.1,4-4c2.2,0,4,1.8,4,4C121.3,86.5,119.5,88.3,117.3,88.4z"/>
	<path d="M143.3,84.3c0,2.2-1.8,4-4,4c-2.2,0-4-1.8-4-4c0-2.2,1.8-4,4-4C141.5,80.3,143.3,82.1,143.3,84.3z"/>
	<path d="M77.2,62.2c0,2.2-1.8,4-4,4c-2.2,0-4-1.8-4-4c0-2.2,1.8-4,4-4C75.3,58.2,77.1,60,77.2,62.2z"/>
	<path d="M110.2,29.2c0,2.2-1.7,4-3.9,4c-2.2,0-4-1.8-4-4c0-2.2,1.8-4,4-4C108.4,25.3,110.2,27,110.2,29.2z"/>
	<path d="M99.1,84.3c0,2.2-1.8,4-3.9,4c-2.2,0-4-1.8-4-4c0-2.2,1.8-4,4-4C97.4,80.4,99.1,82.1,99.1,84.3z"/>
	<path d="M29.1,69.3c2.2,0,4,1.8,4,3.9c0,2.2-1.8,4-4,4c-2.2,0-3.9-1.8-3.9-4C25.2,71.1,26.9,69.3,29.1,69.3z"/>
	<path d="M29.1,143.3c-2.2,0-3.9-1.7-4-3.9c0-2.2,1.8-4,4-4c2.2,0,3.9,1.8,3.9,4C33.1,141.5,31.3,143.3,29.1,143.3z"/>
	<path d="M161.3,102.4c2.2,0,3.9,1.7,3.9,3.9c0,2.1-1.8,3.9-3.9,3.9c-2.2,0-3.9-1.7-3.9-3.9C157.4,104.2,159.1,102.4,161.3,102.4z"
		/>
	<path d="M47.3,62.2c0-2.1,1.8-3.9,3.9-3.8c2.1,0,3.9,1.8,3.9,4c0,2.1-1.8,3.8-3.9,3.8C49,66.1,47.2,64.4,47.3,62.2z"/>
	<path d="M62.2,58.4c2.2,0,3.9,1.8,3.8,3.9c0,2.1-1.8,3.8-3.9,3.8c-2.1,0-3.8-1.8-3.8-3.9C58.4,60.1,60.1,58.4,62.2,58.4z"/>
	<path d="M73.1,55.1c-2.1,0-3.8-1.7-3.8-3.8c0-2.1,1.7-3.8,3.8-3.8c2.1,0,3.9,1.8,3.9,3.9C77,53.4,75.3,55.1,73.1,55.1z"/>
	<path d="M106.2,14.4c2.1,0,3.8,1.7,3.8,3.8c0,2.1-1.7,3.8-3.8,3.8c-2.1,0-3.8-1.7-3.8-3.8C102.4,16.1,104.1,14.4,106.2,14.4z"/>
	<path d="M18.1,99.1c-2.1,0-3.8-1.7-3.8-3.8c0-2.1,1.7-3.8,3.8-3.8c2.1,0,3.8,1.7,3.8,3.8C22,97.4,20.3,99.1,18.1,99.1z"/>
	<path d="M150.2,99.1c-2.1,0-3.8-1.7-3.8-3.8c0-2.1,1.7-3.8,3.8-3.8c2.1,0,3.8,1.7,3.8,3.8C154,97.4,152.3,99.1,150.2,99.1z"/>
	<path d="M150.2,102.6c2.1,0,3.7,1.7,3.8,3.7c0,2.1-1.7,3.8-3.8,3.8c-2.1,0-3.7-1.7-3.7-3.8C146.5,104.2,148.2,102.6,150.2,102.6z"
		/>
	<path d="M117.3,91.6c2.1,0,3.7,1.7,3.7,3.7c0,2.1-1.7,3.8-3.8,3.8c-2.1,0-3.7-1.7-3.7-3.8C113.5,93.2,115.2,91.5,117.3,91.6z"/>
	<path d="M29.1,154c-2.1,0-3.7-1.6-3.6-3.7c0-2,1.7-3.7,3.7-3.7c2,0,3.7,1.7,3.7,3.7C32.8,152.4,31.1,154.1,29.1,154z"/>
	<path d="M128.3,69.6c2,0,3.6,1.7,3.6,3.7c0,2-1.7,3.7-3.7,3.6c-2-0.1-3.6-1.7-3.6-3.8C124.6,71.2,126.3,69.6,128.3,69.6z"/>
	<path d="M80.6,62.2c0-2,1.6-3.7,3.6-3.7c2,0,3.6,1.6,3.7,3.6c0,2-1.6,3.7-3.6,3.7C82.2,65.9,80.6,64.3,80.6,62.2z"/>
	<path d="M106.2,65.9c-2,0-3.6-1.6-3.6-3.7c0-2,1.6-3.6,3.6-3.6c2,0,3.6,1.7,3.6,3.7C109.8,64.3,108.2,65.9,106.2,65.9z"/>
	<path d="M102.6,139.3c0-2,1.6-3.6,3.6-3.6c2,0,3.6,1.6,3.6,3.6c0,2-1.6,3.7-3.6,3.7C104.2,143,102.6,141.4,102.6,139.3z"/>
	<path d="M142.9,95.3c0,2-1.6,3.6-3.6,3.6c-2,0-3.6-1.6-3.6-3.6c0-2,1.6-3.6,3.7-3.6C141.3,91.7,142.9,93.3,142.9,95.3z"/>
	<path d="M117.2,32.8c-2,0-3.6-1.6-3.5-3.6c0-1.9,1.6-3.5,3.6-3.5c2,0,3.6,1.6,3.6,3.6C120.8,31.2,119.2,32.9,117.2,32.8z"/>
	<path d="M98.7,62.3c0,2-1.6,3.5-3.6,3.5c-2,0-3.6-1.6-3.5-3.6c0-2,1.6-3.5,3.6-3.5C97.2,58.7,98.7,60.3,98.7,62.3z"/>
	<path d="M21.7,73.3c0,2-1.6,3.6-3.5,3.6c-2,0-3.6-1.6-3.6-3.6c0-2,1.6-3.5,3.6-3.5C20.1,69.7,21.7,71.3,21.7,73.3z"/>
	<path d="M25.6,161.4c0-2,1.6-3.6,3.5-3.6c2,0,3.6,1.6,3.6,3.6c0,2-1.6,3.5-3.6,3.5C27.1,165,25.6,163.4,25.6,161.4z"/>
	<path d="M117.2,21.7c-1.9,0-3.5-1.6-3.5-3.5c0-1.9,1.6-3.5,3.6-3.5c1.9,0,3.4,1.6,3.4,3.5C120.8,20.2,119.2,21.7,117.2,21.7z"/>
	<path d="M14.7,161.4c0-1.9,1.5-3.5,3.4-3.5c1.9,0,3.5,1.6,3.5,3.5c0,1.9-1.6,3.5-3.5,3.4C16.2,164.9,14.7,163.3,14.7,161.4z"/>
	<path d="M150.2,87.8c-1.9,0-3.5-1.5-3.5-3.4c0-1.9,1.6-3.5,3.5-3.5c1.9,0,3.5,1.6,3.4,3.5C153.7,86.3,152.2,87.8,150.2,87.8z"/>
	<path d="M18.2,32.7c-1.9,0-3.5-1.5-3.5-3.5c0-1.9,1.6-3.5,3.5-3.5c1.9,0,3.4,1.6,3.4,3.4C21.6,31.1,20.1,32.7,18.2,32.7z"/>
	<path d="M161.3,91.8c1.9,0,3.5,1.6,3.4,3.5c0,1.9-1.6,3.4-3.5,3.4c-1.9,0-3.5-1.6-3.5-3.5C157.8,93.4,159.4,91.8,161.3,91.8z"/>
	<path d="M117.3,135.9c1.9,0,3.5,1.6,3.5,3.5c0,1.9-1.6,3.4-3.4,3.4c-1.9,0-3.5-1.5-3.5-3.5C113.8,137.4,115.3,135.9,117.3,135.9z"
		/>
	<path d="M43.6,139.3c0,1.9-1.5,3.4-3.4,3.4c-1.9,0-3.4-1.5-3.4-3.4c0-1.9,1.5-3.5,3.5-3.4C42.1,135.9,43.6,137.4,43.6,139.3z"/>
	<path d="M73.2,21.6c-1.9,0-3.4-1.5-3.5-3.4c0-1.9,1.5-3.5,3.4-3.5c1.9,0,3.4,1.5,3.4,3.4C76.6,20.1,75.1,21.6,73.2,21.6z"/>
	<path d="M98.6,18.2c0,1.9-1.5,3.4-3.4,3.4c-1.9,0-3.4-1.5-3.4-3.4c0-1.9,1.5-3.4,3.4-3.4C97,14.8,98.6,16.3,98.6,18.2z"/>
	<path d="M98.5,40.2c0,1.9-1.5,3.4-3.3,3.4c-1.9,0-3.4-1.5-3.4-3.3c0-1.8,1.5-3.4,3.3-3.4C97,36.8,98.5,38.3,98.5,40.2z"/>
	<path d="M117.3,131.7c-1.9,0-3.3-1.4-3.3-3.3c0-1.8,1.5-3.3,3.3-3.3c1.8,0,3.3,1.5,3.3,3.3C120.6,130.2,119.1,131.7,117.3,131.7z"
		/>
	<path d="M87.5,18.2c0,1.9-1.4,3.3-3.3,3.3c-1.8,0-3.3-1.5-3.4-3.3c0-1.8,1.5-3.3,3.3-3.4C86,14.9,87.5,16.4,87.5,18.2z"/>
	<path d="M142.6,18.2c0,1.8-1.4,3.3-3.3,3.3c-1.8,0-3.4-1.5-3.3-3.3c0-1.8,1.5-3.3,3.3-3.3C141.1,14.9,142.6,16.4,142.6,18.2z"/>
	<path d="M18.1,87.6c-1.8,0-3.3-1.5-3.3-3.3c0-1.8,1.5-3.3,3.3-3.3c1.8,0,3.3,1.5,3.3,3.3C21.4,86.2,20,87.6,18.1,87.6z"/>
	<path d="M54.4,161.4c0,1.8-1.5,3.3-3.3,3.2c-1.8,0-3.3-1.5-3.2-3.3c0-1.8,1.5-3.2,3.3-3.2C53,158.1,54.4,159.6,54.4,161.4z"/>
	<path d="M128.2,26c1.8,0,3.3,1.4,3.3,3.3c0,1.8-1.5,3.3-3.3,3.3c-1.8,0-3.2-1.4-3.3-3.2C124.9,27.5,126.4,26,128.2,26z"/>
	<path d="M128.2,98.5c-1.8,0-3.2-1.4-3.2-3.2c0-1.8,1.5-3.3,3.3-3.3c1.8,0,3.2,1.5,3.2,3.3C131.5,97.1,130,98.5,128.2,98.5z"/>
	<path d="M128.2,15c1.8,0,3.2,1.5,3.2,3.3c0,1.8-1.5,3.2-3.2,3.2c-1.8,0-3.2-1.4-3.2-3.2C125,16.4,126.4,15,128.2,15z"/>
	<path d="M142.5,73.3c0,1.8-1.4,3.2-3.2,3.2c-1.8,0-3.2-1.4-3.2-3.2c0-1.8,1.5-3.2,3.2-3.2C141.1,70.1,142.5,71.5,142.5,73.3z"/>
	<path d="M117.2,59.1c1.8,0,3.1,1.4,3.1,3.1c0,1.7-1.4,3.1-3.1,3.1c-1.7,0-3.1-1.4-3.1-3.1C114.1,60.5,115.5,59.1,117.2,59.1z"/>
	<path d="M106.2,43.4c-1.7,0-3.2-1.4-3.2-3.1c0-1.7,1.4-3.1,3.2-3.1c1.7,0,3.1,1.4,3.1,3.1C109.3,42,108,43.3,106.2,43.4z"/>
	<path d="M150.2,15.1c1.8,0,3.1,1.4,3.1,3.1c0,1.7-1.4,3.1-3.2,3.1c-1.7,0-3.1-1.4-3.1-3.1C147.1,16.5,148.5,15.1,150.2,15.1z"/>
	<path d="M136.2,29.2c0-1.7,1.4-3.1,3.1-3.1c1.7,0,3.1,1.4,3.1,3.1c0,1.7-1.5,3.2-3.2,3.1C137.5,32.3,136.2,30.9,136.2,29.2z"/>
	<path d="M62.2,21.3c-1.7,0-3-1.4-3-3.1c0-1.7,1.4-3.1,3.1-3.1c1.7,0,3.1,1.4,3.1,3.1C65.2,19.9,63.9,21.3,62.2,21.3z"/>
	<path d="M43.2,150.3c0,1.7-1.4,3.1-3,3.1c-1.6,0-3-1.4-3-3c0-1.7,1.4-3.1,3.1-3.1C41.9,147.3,43.2,148.7,43.2,150.3z"/>
	<path d="M84.2,54.2c-1.7,0-3-1.4-2.9-3c0-1.6,1.4-2.9,3-2.9c1.6,0,3,1.4,3,3C87.2,52.9,85.8,54.3,84.2,54.2z"/>
	<path d="M40.2,164.4c-1.7,0-3-1.3-3-3c0-1.6,1.4-2.9,3-2.9c1.7,0,3,1.4,3,3C43.1,163.1,41.8,164.4,40.2,164.4z"/>
	<path d="M128.2,125.4c1.6,0,2.9,1.3,2.9,2.9c0,1.6-1.3,2.9-2.9,3c-1.6,0-3-1.3-3-2.9C125.3,126.7,126.6,125.4,128.2,125.4z"/>
	<path d="M147.3,161.4c0-1.6,1.3-2.9,2.9-2.9c1.6,0,2.9,1.3,2.9,2.9c0,1.6-1.3,2.9-2.9,2.9C148.6,164.3,147.3,163,147.3,161.4z"/>
	<path d="M114.4,161.4c0-1.6,1.3-2.9,2.9-2.9c1.6,0,2.9,1.3,2.9,2.9c0,1.6-1.3,2.9-2.9,2.9C115.7,164.3,114.4,163,114.4,161.4z"/>
	<path d="M150.3,32.1c-1.6,0-2.9-1.3-2.9-2.9c0-1.6,1.3-2.9,2.9-2.9c1.6,0,2.9,1.3,2.9,2.9C153.1,30.8,151.8,32.1,150.3,32.1z"/>
	<path d="M106.2,125.5c1.6,0,2.8,1.3,2.8,2.8c0,1.6-1.3,2.8-2.8,2.8c-1.5,0-2.8-1.3-2.8-2.9C103.4,126.8,104.7,125.5,106.2,125.5z"
		/>
	<path d="M161.3,32c-1.6,0-2.8-1.2-2.7-2.8c0-1.5,1.2-2.7,2.7-2.7c1.5,0,2.8,1.3,2.8,2.8C164.1,30.8,162.8,32,161.3,32z"/>
	<path d="M158.5,18.2c0-1.5,1.2-2.7,2.7-2.7c1.5,0,2.7,1.2,2.8,2.7c0,1.5-1.2,2.8-2.8,2.8C159.7,20.9,158.5,19.7,158.5,18.2z"/>
	<path d="M117.2,42.9c-1.5,0-2.7-1.3-2.7-2.8c0-1.5,1.3-2.7,2.8-2.6c1.5,0,2.7,1.3,2.7,2.8C119.9,41.8,118.7,43,117.2,42.9z"/>
	<path d="M153,150.3c0,1.5-1.2,2.7-2.7,2.7c-1.5,0-2.7-1.2-2.7-2.7c0-1.5,1.2-2.8,2.7-2.7C151.7,147.6,152.9,148.8,153,150.3z"/>
	<path d="M97.9,51.3c0,1.5-1.2,2.7-2.8,2.7c-1.5,0-2.7-1.2-2.7-2.7c0-1.5,1.2-2.7,2.8-2.7C96.7,48.6,97.9,49.8,97.9,51.3z"/>
	<path d="M108.9,51.3c0,1.5-1.2,2.7-2.7,2.7c-1.5,0-2.7-1.2-2.7-2.7c0-1.5,1.2-2.7,2.7-2.7C107.7,48.6,108.9,49.8,108.9,51.3z"/>
	<path d="M147.6,73.2c0-1.5,1.2-2.6,2.7-2.6c1.4,0,2.6,1.2,2.6,2.7c0,1.5-1.2,2.6-2.7,2.6C148.7,75.9,147.6,74.7,147.6,73.2z"/>
	<path d="M128.2,59.7c1.4,0,2.6,1.1,2.6,2.5c0,1.4-1.1,2.6-2.6,2.6c-1.4,0-2.6-1.2-2.6-2.6C125.7,60.8,126.8,59.7,128.2,59.7z"/>
	<path d="M119.7,51.3c0,1.4-1.1,2.4-2.4,2.4c-1.3,0-2.4-1.1-2.4-2.4c0-1.3,1.1-2.4,2.4-2.4C118.6,48.8,119.7,49.9,119.7,51.3z"/>
	<path d="M161.3,81.9c1.4,0,2.4,1.1,2.4,2.4c0,1.3-1.1,2.4-2.4,2.4c-1.3,0-2.4-1.1-2.4-2.5C158.9,83,160,81.9,161.3,81.9z"/>
	<path d="M51.1,20.6c-1.3,0-2.3-1-2.4-2.3c0-1.3,1-2.4,2.4-2.4c1.3,0,2.3,1,2.4,2.3C53.5,19.5,52.5,20.6,51.1,20.6z"/>
	<path d="M141.6,62.2c0,1.3-1,2.3-2.3,2.3c-1.3,0-2.3-1-2.3-2.3c0-1.3,1.1-2.3,2.3-2.4C140.5,59.9,141.6,60.9,141.6,62.2z"/>
	<path d="M37.9,18.2c0-1.3,1-2.2,2.3-2.2c1.3,0,2.3,1,2.3,2.3c0,1.2-1.1,2.2-2.3,2.2C38.9,20.5,37.9,19.5,37.9,18.2z"/>
	<path d="M137,139.3c0-1.2,1-2.2,2.3-2.2c1.2,0,2.2,1,2.2,2.2c0,1.2-1,2.2-2.2,2.2C138,141.5,137,140.5,137,139.3z"/>
	<path d="M128.2,38c1.2,0,2.2,0.9,2.2,2.2c0,1.2-1,2.2-2.2,2.2c-1.2,0-2.2-1-2.2-2.2C126,39,127,38,128.2,38z"/>
	<path d="M139.2,38.2c1.2,0,2.1,0.9,2.1,2c0,1.2-0.9,2.1-2,2.1c-1.1,0-2-0.9-2.1-2C137.2,39.2,138.1,38.2,139.2,38.2z"/>
	<path d="M29.1,20.2c-1.1,0-2-0.9-2-2c0-1.1,0.9-2,2-2c1.1,0,2,0.9,2,2C31.2,19.3,30.3,20.2,29.1,20.2z"/>
	<path d="M139.2,163.4c-1.1,0-2-0.9-2-2c0-1.1,0.9-2,2-2c1.1,0,2,0.9,2,2C141.3,162.5,140.4,163.4,139.2,163.4z"/>
	<path d="M150.3,60.3c1.1,0,1.9,0.9,1.9,2c0,1.1-1,2-2,1.9c-1.1,0-2-1-1.9-2.1C148.3,61.1,149.2,60.2,150.3,60.3z"/>
	<path d="M161.3,71.5c1,0,1.8,0.8,1.8,1.8c0,1-0.8,1.8-1.8,1.8c-1,0-1.9-0.8-1.9-1.8C159.5,72.3,160.3,71.5,161.3,71.5z"/>
	<path d="M128.2,141.1c-1,0-1.8-0.8-1.8-1.9c0-1,0.8-1.8,1.8-1.8c1,0,1.8,0.8,1.8,1.8C130.1,140.3,129.2,141.1,128.2,141.1z"/>
	<path d="M130,51.3c0,1-0.8,1.8-1.8,1.8c-1,0-1.7-0.8-1.8-1.8c0-1,0.8-1.8,1.8-1.8C129.2,49.5,130,50.3,130,51.3z"/>
	<path d="M128.2,152c-1,0-1.7-0.8-1.7-1.7c0-0.9,0.8-1.7,1.7-1.7c0.9,0,1.7,0.8,1.7,1.7C129.9,151.3,129.1,152.1,128.2,152z"/>
	<path d="M151.9,40.2c0,1-0.7,1.7-1.7,1.7c-0.9,0-1.7-0.8-1.7-1.7c0-0.9,0.8-1.7,1.7-1.7C151.1,38.5,151.9,39.3,151.9,40.2z"/>
	<path d="M18.2,19.8c-0.9,0-1.7-0.7-1.6-1.6c0-0.9,0.7-1.6,1.6-1.6c0.9,0,1.7,0.7,1.7,1.6C19.8,19.1,19.1,19.8,18.2,19.8z"/>
	<path d="M140.9,51.3c0,0.9-0.7,1.7-1.6,1.7c-0.9,0-1.7-0.8-1.6-1.7c0-0.9,0.7-1.6,1.6-1.6C140.2,49.6,140.9,50.3,140.9,51.3z"/>
	<path d="M159.8,40.2c0-0.8,0.6-1.5,1.5-1.5c0.9,0,1.5,0.7,1.5,1.5c0,0.8-0.7,1.5-1.5,1.5C160.5,41.8,159.8,41.1,159.8,40.2z"/>
	<path d="M150.3,52.7c-0.8,0-1.4-0.6-1.4-1.4c0-0.8,0.7-1.5,1.4-1.4c0.8,0,1.4,0.6,1.4,1.4C151.6,52,151,52.7,150.3,52.7z"/>
	<path d="M139.3,149c0.7,0,1.4,0.6,1.4,1.4c0,0.8-0.7,1.4-1.4,1.4c-0.8,0-1.4-0.6-1.4-1.4C137.9,149.6,138.5,149,139.3,149z"/>
	<path d="M162.7,62.2c0,0.8-0.6,1.4-1.4,1.4c-0.7,0-1.4-0.6-1.4-1.4c0-0.8,0.6-1.4,1.4-1.4C162.1,60.9,162.7,61.5,162.7,62.2z"/>
	<path d="M128.2,160.2c0.7,0,1.2,0.5,1.2,1.2c0,0.7-0.5,1.2-1.2,1.2c-0.7,0-1.3-0.5-1.3-1.2C127,160.7,127.5,160.2,128.2,160.2z"/>
	<path d="M161.3,50.2c0.6,0,1,0.5,1,1.1c0,0.5-0.5,1-1,1c-0.6,0-1-0.4-1-1C160.3,50.7,160.7,50.2,161.3,50.2z"/>
</g>
<g>
	<polygon points="227.7,16.8 214.4,58.5 201,16.8 188.9,16.8 209.6,79.4 219.2,79.4 239.8,16.8 	"/>
	<polygon points="244.4,16.8 244.4,26.1 255.6,26.1 255.6,70.1 244.4,70.1 244.4,79.4 278.4,79.4 278.4,70.1 267.3,70.1 267.3,26.1 
		278.4,26.1 278.4,16.8 	"/>
	<g>
		<path d="M313.8,38.4c-0.8-7.8-4-11.4-9-11.4c-4,0-8.2,2.3-8.2,6.8c0,4.5,4.1,6.2,7.6,7.5l8.7,3.4c7.3,2.9,13.5,6.9,13.5,16.6
			c0,12.1-9.4,18.7-21.1,18.7c-12.9,0-22.2-8-22.2-21.2l10.6-2.3c0.9,8,4.5,12.8,11.4,12.8c4.5,0,9.4-1.9,9.4-7.2
			c0-4.8-4.1-6.3-9.1-8.3l-8.2-3.3c-7.6-3-12.4-7.4-12.4-15.8c0-11.6,9.1-18.4,20.2-18.4c11.6,0,19.4,7.4,19.4,19.9L313.8,38.4z"/>
		<path d="M366.2,16.8h11.7v42.9c0,13-8.5,20.3-21.8,20.3c-13.2,0-21.8-7.3-21.8-20.3V16.8H346V59c0,6.4,3.3,10.2,10.1,10.2
			c6.9,0,10.1-3.8,10.1-10.2V16.8z"/>
	</g>
	<path d="M409.3,35.7l5.9,17.9h-11.7L409.3,35.7z M403.6,16.8L383,79.4h12.1l4.9-15.1h18.5l4.9,15.1h12.2L415,16.8H403.6z"/>
	<polygon points="442.2,16.8 442.2,79.4 476.3,79.4 476.3,68.8 453.9,68.8 453.9,16.8 	"/>
	<g>
		<path d="M221.3,123.9c-0.8-7.8-4-11.4-9-11.4c-4,0-8.2,2.3-8.2,6.8c0,4.5,4.1,6.2,7.6,7.5l8.7,3.4c7.3,2.9,13.5,6.9,13.5,16.6
			c0,12.1-9.4,18.7-21.1,18.7c-12.9,0-22.2-8-22.2-21.2l10.6-2.3c0.9,8,4.5,12.8,11.4,12.8c4.5,0,9.4-1.9,9.4-7.2
			c0-4.8-4.1-6.3-9.1-8.3l-8.2-3.3c-7.6-3-12.4-7.4-12.4-15.8c0-11.6,9.1-18.4,20.2-18.4c11.6,0,19.4,7.4,19.4,19.9L221.3,123.9z"/>
	</g>
	<polygon points="293.7,102.2 284.7,143 276.6,110.5 265.7,110.5 257.5,143 248.6,102.2 236.7,102.2 251.8,164.9 261.7,164.9 
		271.1,131.1 280.6,164.9 290.5,164.9 305.6,102.2 	"/>
	<polygon points="312.1,102.2 312.1,164.9 352.3,164.9 352.3,154.2 323.8,154.2 323.8,138.6 341.4,138.6 341.4,128 323.8,128 
		323.8,112.9 352.3,112.9 352.3,102.2 	"/>
	<g>
		<path d="M380.2,154.2c5.9,0,13.1-3.7,13.1-20.4c0-17.2-7.7-20.9-13.9-20.9H372v41.4H380.2z M360.3,164.9v-62.7h20
			c12.1,0,25,8.4,25,31.4c0,22.7-12.5,31.2-24.1,31.2H360.3z"/>
	</g>
	<polygon points="413.9,102.2 413.9,164.9 454.1,164.9 454.1,154.2 425.6,154.2 425.6,138.6 443.2,138.6 443.2,128 425.6,128 
		425.6,112.9 454.1,112.9 454.1,102.2 	"/>
	<polygon points="498.5,102.2 498.5,142.8 473.3,102.2 462,102.2 462,164.9 473.7,164.9 473.7,124.1 498.9,164.9 510.2,164.9 
		510.2,102.2 	"/>
</g>
</svg>
