<svg id="Lager_1" data-name="Lager 1" xmlns="http://www.w3.org/2000/svg" xmlns:xlink="http://www.w3.org/1999/xlink" viewBox="0 0 221.87 132.49"><defs><style>.cls-1{fill:#fff;}.cls-2{fill:url(#linear-gradient);}.cls-3{fill:url(#linear-gradient-2);}.cls-4{fill:#1b4009;}.cls-5{fill:url(#linear-gradient-3);}.cls-6{fill:url(#radial-gradient);}.cls-7{fill:url(#linear-gradient-4);}.cls-8{fill:url(#radial-gradient-2);}.cls-9{fill:url(#linear-gradient-5);}.cls-10{fill:#3a0200;}.cls-11{fill:url(#linear-gradient-6);}.cls-12{fill:url(#linear-gradient-7);}.cls-13{fill:url(#linear-gradient-8);}</style><linearGradient id="linear-gradient" x1="276.87" y1="242.36" x2="267.01" y2="249.26" gradientUnits="userSpaceOnUse"><stop offset="0" stop-color="#009fe3"/><stop offset="1" stop-color="#0076a7"/></linearGradient><linearGradient id="linear-gradient-2" x1="261.19" y1="277.79" x2="270.87" y2="260.13" gradientUnits="userSpaceOnUse"><stop offset="0" stop-color="#579a28"/><stop offset="1" stop-color="#65b32e"/></linearGradient><linearGradient id="linear-gradient-3" x1="294.79" y1="242.56" x2="308.97" y2="244.28" gradientUnits="userSpaceOnUse"><stop offset="0" stop-color="#85204c"/><stop offset="1" stop-color="#a61f5e"/></linearGradient><radialGradient id="radial-gradient" cx="294.15" cy="246.59" r="22.98" xlink:href="#linear-gradient"/><linearGradient id="linear-gradient-4" x1="275.71" y1="253.74" x2="312.73" y2="253.74" gradientUnits="userSpaceOnUse"><stop offset="0" stop-color="#002337"/><stop offset="1" stop-color="#005b81"/></linearGradient><radialGradient id="radial-gradient-2" cx="253.14" cy="262.35" r="36.75" gradientUnits="userSpaceOnUse"><stop offset="0" stop-color="#ffe700"/><stop offset="1" stop-color="#fdc300"/></radialGradient><linearGradient id="linear-gradient-5" x1="294.47" y1="311.97" x2="307.01" y2="309.99" gradientUnits="userSpaceOnUse"><stop offset="0" stop-color="#a90f09"/><stop offset="1" stop-color="#c70c0f"/></linearGradient><linearGradient id="linear-gradient-6" x1="266.63" y1="302.85" x2="274.49" y2="308.51" xlink:href="#linear-gradient-5"/><linearGradient id="linear-gradient-7" x1="263.07" y1="292.69" x2="250.72" y2="290.68" gradientUnits="userSpaceOnUse"><stop offset="0" stop-color="#ee7203"/><stop offset="1" stop-color="#ea5b0c"/></linearGradient><linearGradient id="linear-gradient-8" x1="282.46" y1="289.37" x2="296.11" y2="295.51" gradientUnits="userSpaceOnUse"><stop offset="0" stop-color="#5a0a00"/><stop offset="1" stop-color="#770f00"/></linearGradient></defs><title>visualiseringscenter_ingentext</title><path class="cls-1" d="M230.44,333h2l6.57,8.48V333h2.12v12.27h-1.81l-6.77-8.73v8.73h-2.12Z" transform="translate(-181.39 -230.59)"/><path class="cls-1" d="M243.75,339.18v0a6.42,6.42,0,0,1,12.83,0v0a6.42,6.42,0,0,1-12.83,0Zm10.57,0v0a4.21,4.21,0,0,0-4.17-4.37,4.15,4.15,0,0,0-4.14,4.33v0a4.21,4.21,0,0,0,4.17,4.37A4.15,4.15,0,0,0,254.32,339.18Z" transform="translate(-181.39 -230.59)"/><path class="cls-1" d="M259.19,333h5.47a4.94,4.94,0,0,1,3.54,1.23,3.71,3.71,0,0,1,1,2.65v0a3.68,3.68,0,0,1-2.93,3.72l3.31,4.65h-2.54L264,341h-2.7v4.28h-2.16Zm5.31,6.08c1.54,0,2.52-.81,2.52-2.05v0c0-1.31-.95-2-2.54-2h-3.14v4.12Z" transform="translate(-181.39 -230.59)"/><path class="cls-1" d="M271.87,333h5.47a4.94,4.94,0,0,1,3.54,1.23,3.71,3.71,0,0,1,1,2.65v0a3.68,3.68,0,0,1-2.93,3.72l3.31,4.65h-2.54l-3-4.28H274v4.28h-2.16Zm5.31,6.08c1.54,0,2.52-.81,2.52-2.05v0c0-1.31-.95-2-2.54-2H274v4.12Z" transform="translate(-181.39 -230.59)"/><path class="cls-1" d="M284.54,333h2.16v6.17l5.84-6.17h2.65l-5.1,5.28,5.33,7H292.8l-4.19-5.52-1.91,2v3.56h-2.16Z" transform="translate(-181.39 -230.59)"/><path class="cls-1" d="M296.7,339.18v0a6.42,6.42,0,0,1,12.83,0v0a6.42,6.42,0,0,1-12.83,0Zm10.57,0v0a4.21,4.21,0,0,0-4.17-4.37,4.15,4.15,0,0,0-4.14,4.33v0a4.21,4.21,0,0,0,4.17,4.37A4.15,4.15,0,0,0,307.28,339.18Zm-7-9.33h2.19v2h-2.19Zm3.61,0H306v2h-2.17Z" transform="translate(-181.39 -230.59)"/><path class="cls-1" d="M312.15,333H317c2.86,0,4.66,1.63,4.66,4.1v0c0,2.75-2.21,4.19-4.91,4.19H314.3v3.94h-2.16Zm4.66,6.38c1.63,0,2.65-.91,2.65-2.19v0c0-1.44-1-2.19-2.65-2.19H314.3v4.42Z" transform="translate(-181.39 -230.59)"/><path class="cls-1" d="M324,333h2.16v12.27H324Z" transform="translate(-181.39 -230.59)"/><path class="cls-1" d="M329.42,333h2l6.58,8.48V333h2.12v12.27H338.3l-6.77-8.73v8.73h-2.12Z" transform="translate(-181.39 -230.59)"/><path class="cls-1" d="M342.72,339.18v0A6.25,6.25,0,0,1,349,332.8a6.62,6.62,0,0,1,4.72,1.67l-1.37,1.63a4.81,4.81,0,0,0-3.44-1.32,4.15,4.15,0,0,0-4,4.33v0a4.1,4.1,0,0,0,4.17,4.38,5,5,0,0,0,3-.93v-2.3H349v-1.88h5.22v5.15a7.83,7.83,0,0,1-5.12,1.91A6.09,6.09,0,0,1,342.72,339.18Z" transform="translate(-181.39 -230.59)"/><path class="cls-1" d="M181.39,350.59h1.54l4.37,10.57,4.38-10.57h1.49L187.89,363h-1.23Z" transform="translate(-181.39 -230.59)"/><path class="cls-1" d="M195.71,350.59h1.39v12.27h-1.39Z" transform="translate(-181.39 -230.59)"/><path class="cls-1" d="M199.88,361.08l.86-1a5.84,5.84,0,0,0,4.21,1.74c1.65,0,2.73-.88,2.73-2.09v0c0-1.14-.61-1.79-3.19-2.33-2.82-.61-4.12-1.53-4.12-3.54v0c0-1.93,1.7-3.35,4-3.35a6.41,6.41,0,0,1,4.31,1.51l-.81,1.07a5.39,5.39,0,0,0-3.54-1.33c-1.6,0-2.61.88-2.61,2v0c0,1.16.63,1.8,3.33,2.38s4,1.6,4,3.47v0c0,2.1-1.75,3.47-4.19,3.47A7.18,7.18,0,0,1,199.88,361.08Z" transform="translate(-181.39 -230.59)"/><path class="cls-1" d="M211.71,357.73v-7.13h1.38v7c0,2.65,1.4,4.14,3.75,4.14s3.7-1.37,3.7-4.05v-7.13h1.39v7c0,3.58-2.05,5.43-5.12,5.43S211.71,361.2,211.71,357.73Z" transform="translate(-181.39 -230.59)"/><path class="cls-1" d="M229.75,350.51H231l5.59,12.36h-1.49l-1.44-3.24H227l-1.46,3.24h-1.42Zm3.42,7.87-2.79-6.26-2.81,6.26Z" transform="translate(-181.39 -230.59)"/><path class="cls-1" d="M239.06,350.59h1.38v11h6.91v1.28h-8.29Z" transform="translate(-181.39 -230.59)"/><path class="cls-1" d="M250,350.59h1.39v12.27H250Z" transform="translate(-181.39 -230.59)"/><path class="cls-1" d="M254.45,361.94l7.94-10.1h-7.68v-1.24h9.57v.93l-8,10.1h8v1.25h-9.84Z" transform="translate(-181.39 -230.59)"/><path class="cls-1" d="M271.7,350.51H273l5.59,12.36H277.1l-1.44-3.24H269l-1.46,3.24h-1.42Zm3.42,7.87-2.79-6.26-2.81,6.26Z" transform="translate(-181.39 -230.59)"/><path class="cls-1" d="M284.25,351.87h-4.12v-1.28h9.64v1.28h-4.12v11h-1.4Z" transform="translate(-181.39 -230.59)"/><path class="cls-1" d="M292.49,350.59h1.38v12.27h-1.38Z" transform="translate(-181.39 -230.59)"/><path class="cls-1" d="M296.92,356.77v0a6.26,6.26,0,1,1,12.52,0v0a6.26,6.26,0,1,1-12.52,0Zm11.08,0v0a4.88,4.88,0,0,0-4.84-5.07,4.82,4.82,0,0,0-4.8,5v0a4.88,4.88,0,0,0,4.84,5.07A4.82,4.82,0,0,0,308,356.77Z" transform="translate(-181.39 -230.59)"/><path class="cls-1" d="M312.37,350.59h1.3l7.73,9.84v-9.84h1.35v12.27h-1.1l-7.92-10.06v10.06h-1.35Z" transform="translate(-181.39 -230.59)"/><path class="cls-1" d="M330.93,356.77v0a6.18,6.18,0,0,1,6.21-6.35,6.39,6.39,0,0,1,4.79,1.95l-.95,1a5.33,5.33,0,0,0-3.86-1.68,4.81,4.81,0,0,0-4.75,5v0a4.84,4.84,0,0,0,4.75,5.07,5.33,5.33,0,0,0,4-1.77l.91.89a6.39,6.39,0,0,1-4.91,2.16A6.12,6.12,0,0,1,330.93,356.77Z" transform="translate(-181.39 -230.59)"/><path class="cls-1" d="M344.41,350.59h8.87v1.26H345.8V356h6.7v1.26h-6.7v4.29h7.57v1.26h-9Z" transform="translate(-181.39 -230.59)"/><path class="cls-1" d="M356.16,350.59h1.3l7.73,9.84v-9.84h1.35v12.27h-1.1l-7.92-10.06v10.06h-1.35Z" transform="translate(-181.39 -230.59)"/><path class="cls-1" d="M373.25,351.87h-4.12v-1.28h9.64v1.28h-4.12v11h-1.4Z" transform="translate(-181.39 -230.59)"/><path class="cls-1" d="M381.36,350.59h8.87v1.26h-7.49V356h6.7v1.26h-6.7v4.29h7.57v1.26h-9Z" transform="translate(-181.39 -230.59)"/><path class="cls-1" d="M393.11,350.59h5.28a4.84,4.84,0,0,1,3.49,1.23,3.39,3.39,0,0,1,.95,2.42v0c0,2-1.4,3.23-3.33,3.58l3.77,5h-1.7L398,358.1h-3.51v4.77h-1.39Zm5.16,6.26c1.84,0,3.16-.95,3.16-2.52v0c0-1.51-1.16-2.42-3.14-2.42h-3.79v5Z" transform="translate(-181.39 -230.59)"/><path class="cls-2" d="M262.8,243.6l2.69,2.69L269.2,250a35.27,35.27,0,0,1,25-10.36v-9.06A44.31,44.31,0,0,0,262.8,243.6Z" transform="translate(-181.39 -230.59)"/><path class="cls-3" d="M294.22,239.64a35.27,35.27,0,0,0-25,10.36l-3.72-3.71A40.51,40.51,0,0,0,253.59,275H268a26.09,26.09,0,0,1,7.67-18.51l-3-3a30.33,30.33,0,0,1,21.52-8.92Z" transform="translate(-181.39 -230.59)"/><path class="cls-4" d="M275.71,256.52A26.09,26.09,0,0,0,268,275h0v0h2.73a23.09,23.09,0,0,1,7-16.43l-2-2.11Z" transform="translate(-181.39 -230.59)"/><path class="cls-5" d="M294.22,234.39v10.2a30.33,30.33,0,0,1,21.52,8.92l3.5-3.5,3.71-3.71A40.51,40.51,0,0,0,294.22,234.39Z" transform="translate(-181.39 -230.59)"/><path class="cls-6" d="M294.22,244.59a30.33,30.33,0,0,0-21.52,8.92l3,3a26.17,26.17,0,0,1,37,0l3-3A30.33,30.33,0,0,0,294.22,244.59Z" transform="translate(-181.39 -230.59)"/><path class="cls-7" d="M294.22,248.85a26.09,26.09,0,0,0-18.51,7.67l2,2.11A23.1,23.1,0,0,1,294,252c8.09,0,15.5,6,15.79,6.23l3-1.71-.17-.16A26.07,26.07,0,0,0,294.22,248.85Z" transform="translate(-181.39 -230.59)"/><path class="cls-8" d="M263.79,275h-10.2a40.51,40.51,0,0,1,11.9-28.73l-2.69-2.69a44.3,44.3,0,0,0-13,31.42h0a44.3,44.3,0,0,0,13,31.43l2.69-2.69,3.71-3.71,3.5-3.5A30.32,30.32,0,0,1,263.79,275Z" transform="translate(-181.39 -230.59)"/><path class="cls-9" d="M323,303.76l-3.71-3.71a35.29,35.29,0,0,1-25,10.36v9.06a44.3,44.3,0,0,0,31.42-13Z" transform="translate(-181.39 -230.59)"/><path class="cls-10" d="M329.61,275h-4.95a30.32,30.32,0,0,1-8.92,21.52l3.5,3.5,3.71,3.71A40.53,40.53,0,0,0,334.86,275Z" transform="translate(-181.39 -230.59)"/><path class="cls-11" d="M265.49,303.76l-2.69,2.69a44.29,44.29,0,0,0,31.42,13v-3.81A40.51,40.51,0,0,1,265.49,303.76Z" transform="translate(-181.39 -230.59)"/><path class="cls-12" d="M315.74,296.55a30.31,30.31,0,0,1-21.52,8.92V301.2A26.17,26.17,0,0,1,268,275h-4.26a30.32,30.32,0,0,0,8.92,21.52l-3.5,3.5-3.71,3.71a40.51,40.51,0,0,0,28.73,11.9v-5.25a35.29,35.29,0,0,0,25-10.36Z" transform="translate(-181.39 -230.59)"/><path class="cls-13" d="M294.22,301.2l-.27-2.85a23.17,23.17,0,0,1-23.18-23.17s0-.08,0-.12H268a26.17,26.17,0,0,0,26.18,26.15Z" transform="translate(-181.39 -230.59)"/></svg>