<svg xmlns="http://www.w3.org/2000/svg" viewBox="0 0 493.39 434.23">
  <defs>
    <style>
      .cls-1 {
        fill: #052330;
      }

      .cls-2, .cls-3 {
        fill: #eb6613;
      }

      .cls-10, .cls-11, .cls-2, .cls-3, .cls-4, .cls-5, .cls-6, .cls-8, .cls-9 {
        stroke: #fff;
        stroke-miterlimit: 10;
      }

      .cls-11, .cls-2, .cls-3 {
        stroke-width: 0.75px;
      }

      .cls-3, .cls-6 {
        fill-rule: evenodd;
      }

      .cls-10, .cls-11, .cls-4, .cls-5, .cls-6, .cls-8, .cls-9 {
        fill: none;
      }

      .cls-4 {
        stroke-width: 3px;
      }

      .cls-5 {
        stroke-width: 2px;
      }

      .cls-6, .cls-8 {
        stroke-width: 0.5px;
      }

      .cls-7 {
        fill: #fff;
      }

      .cls-9 {
        stroke-width: 0.25px;
      }
    </style>
  </defs>
  <title>Plan4</title>
  <g id="Lager_2" data-name="Lager 2">
    <polyline class="cls-1" points="492.38 433.23 1 433.1 1 2.42 492.38 2.42 491.24 60.67"/>
  </g>
  <g id="Lager_3" data-name="Lager 3">
    <rect class="cls-2" x="1.81" y="126.06" width="105.3" height="99.27"/>
  </g>
  <g id="Lager_4" data-name="Lager 4">
    <polyline class="cls-3" points="0.74 287.21 1.99 225.33 107.11 225.33 107.11 323.96 0.95 323.96"/>
    <polygon class="cls-3" points="489.31 160.24 397.57 160.24 397.57 61.16 492.67 61.16 492.67 160.24 489.31 160.24"/>
    <rect class="cls-2" x="397.57" y="160.24" width="94.1" height="97.75"/>
    <rect class="cls-2" x="397.57" y="257.99" width="94.25" height="99.87"/>
    <rect class="cls-2" x="1.81" y="65.13" width="105.3" height="60.93"/>
  </g>
  <g id="Lager_5" data-name="Lager 5">
    <line class="cls-4" x1="0.01" y1="1.5" x2="492.67" y2="1.5"/>
    <line class="cls-5" x1="492.39" y1="1.63" x2="492.39" y2="59.18"/>
    <line class="cls-5" x1="492.39" y1="433.23" x2="492.39" y2="59.18"/>
    <line class="cls-5" x1="0.03" y1="433.1" x2="493.39" y2="433.23"/>
    <line class="cls-5" x1="1" y1="1.5" x2="1" y2="433.1"/>
    <path class="cls-6" d="M106.22,216h12.34s-.82-12.71-12.34-12.71Z" transform="translate(1 1.5)"/>
    <path class="cls-6" d="M105.88,117.13h12.35s-.83-12.72-12.35-12.72Z" transform="translate(1 1.5)"/>
    <path class="cls-6" d="M106.68,289.62H119s-.83-12.71-12.35-12.71Z" transform="translate(1 1.5)"/>
    <path class="cls-6" d="M396.57,285.57H384.22s.83,12.72,12.35,12.72Z" transform="translate(1 1.5)"/>
    <path class="cls-6" d="M396.57,190.27H384.22S385.05,203,396.57,203Z" transform="translate(1 1.5)"/>
    <path class="cls-6" d="M396.57,97.33H384.22s.83,12.72,12.35,12.72Z" transform="translate(1 1.5)"/>
  </g>
  <g id="Layer_9" data-name="Layer 9">
    <g>
      <path class="cls-7" d="M430.28,200.66v2.68H425v14.87h-3.27V203.34h-5.3v-2.68Z" transform="translate(1 1.5)"/>
      <path class="cls-7" d="M435.68,212v6.18h-3.26V200.66h5.71a10.19,10.19,0,0,1,3.05.41,5.81,5.81,0,0,1,2.12,1.15,4.63,4.63,0,0,1,1.24,1.77,6.14,6.14,0,0,1,.4,2.26,6.32,6.32,0,0,1-.42,2.34,4.9,4.9,0,0,1-1.28,1.83,5.79,5.79,0,0,1-2.12,1.18,9.29,9.29,0,0,1-3,.43Zm0-2.55h2.45a5,5,0,0,0,1.57-.22,2.92,2.92,0,0,0,1.1-.65,2.73,2.73,0,0,0,.66-1,4,4,0,0,0,.22-1.34,3.64,3.64,0,0,0-.22-1.27,2.54,2.54,0,0,0-.66-1,3,3,0,0,0-1.1-.62,5.28,5.28,0,0,0-1.57-.21h-2.45Z" transform="translate(1 1.5)"/>
      <path class="cls-7" d="M457.09,211.59h2.21v1.74a.6.6,0,0,1-.16.42.6.6,0,0,1-.46.17h-1.59v4.29h-2.62v-4.29h-7.41a.78.78,0,0,1-.53-.19.81.81,0,0,1-.29-.46l-.3-1.52,8.31-11.11h2.84Zm-2.62-5.74c0-.26,0-.54,0-.84s.05-.61.09-.93l-5.45,7.51h5.34Z" transform="translate(1 1.5)"/>
      <path class="cls-7" d="M467.27,200.46a6.53,6.53,0,0,1,2.19.35,5,5,0,0,1,1.67,1,4.14,4.14,0,0,1,1.06,1.44,4.24,4.24,0,0,1,.37,1.78,5.5,5.5,0,0,1-.18,1.48,3.6,3.6,0,0,1-.55,1.11,3.5,3.5,0,0,1-.87.8,5.57,5.57,0,0,1-1.18.54,4.57,4.57,0,0,1,2.36,1.52,4.09,4.09,0,0,1,.78,2.56,5.35,5.35,0,0,1-.49,2.32,5,5,0,0,1-1.31,1.69,5.79,5.79,0,0,1-1.91,1,7.58,7.58,0,0,1-2.3.35,8,8,0,0,1-2.31-.3,5,5,0,0,1-1.71-.9,5.52,5.52,0,0,1-1.24-1.46,9.39,9.39,0,0,1-.87-2l1.32-.54a1.72,1.72,0,0,1,.69-.15,1.33,1.33,0,0,1,.57.13,1,1,0,0,1,.38.39q.22.43.48.84a3.28,3.28,0,0,0,1.48,1.26,3.18,3.18,0,0,0,1.17.2,3.44,3.44,0,0,0,1.34-.25,3,3,0,0,0,1-.65,2.75,2.75,0,0,0,.57-.89,2.68,2.68,0,0,0,.19-1,4.53,4.53,0,0,0-.14-1.15,1.65,1.65,0,0,0-.55-.88,3.15,3.15,0,0,0-1.22-.57,8.65,8.65,0,0,0-2.13-.21v-2.14a7.24,7.24,0,0,0,1.83-.2,3.21,3.21,0,0,0,1.16-.54,1.8,1.8,0,0,0,.6-.83,3.29,3.29,0,0,0,.17-1.07,2.5,2.5,0,0,0-.68-1.89,2.62,2.62,0,0,0-1.86-.63,2.78,2.78,0,0,0-1.77.56,2.92,2.92,0,0,0-1,1.45,1.31,1.31,0,0,1-.4.66,1.09,1.09,0,0,1-.67.2,2,2,0,0,1-.41,0l-1.58-.27a6.73,6.73,0,0,1,.7-2.22,5.52,5.52,0,0,1,1.31-1.59,5.61,5.61,0,0,1,1.79-1A7.37,7.37,0,0,1,467.27,200.46Z" transform="translate(1 1.5)"/>
    </g>
    <g>
      <path class="cls-7" d="M430.28,99.58v2.68H425v14.87h-3.27V102.26h-5.3V99.58Z" transform="translate(1 1.5)"/>
      <path class="cls-7" d="M435.68,111v6.18h-3.26V99.58h5.71a10.19,10.19,0,0,1,3.05.41,6,6,0,0,1,2.12,1.15,4.59,4.59,0,0,1,1.24,1.78,6.08,6.08,0,0,1,.4,2.25,6.32,6.32,0,0,1-.42,2.34,4.9,4.9,0,0,1-1.28,1.83,6,6,0,0,1-2.12,1.19,9.59,9.59,0,0,1-3,.42Zm0-2.55h2.45a5,5,0,0,0,1.57-.22,2.92,2.92,0,0,0,1.1-.65,2.58,2.58,0,0,0,.66-1,4,4,0,0,0,.22-1.34,3.64,3.64,0,0,0-.22-1.27,2.62,2.62,0,0,0-.66-1,2.86,2.86,0,0,0-1.1-.61,5,5,0,0,0-1.57-.22h-2.45Z" transform="translate(1 1.5)"/>
      <path class="cls-7" d="M457.09,110.51h2.21v1.74a.6.6,0,0,1-.16.42.57.57,0,0,1-.46.17h-1.59v4.29h-2.62v-4.29h-7.41a.82.82,0,0,1-.82-.65l-.3-1.52,8.31-11.1h2.84Zm-2.62-5.74c0-.26,0-.53,0-.83s.05-.62.09-.94l-5.45,7.51h5.34Z" transform="translate(1 1.5)"/>
      <path class="cls-7" d="M463,114.88h3.56V104.65c0-.39,0-.81,0-1.25L464,105.51a1.08,1.08,0,0,1-.32.19,1.22,1.22,0,0,1-.32,0,1,1,0,0,1-.45-.1.79.79,0,0,1-.29-.24l-.95-1.29L467,99.55h2.47v15.33h3.15v2.25H463Z" transform="translate(1 1.5)"/>
    </g>
    <g>
      <path class="cls-7" d="M430.28,299.32V302H425v14.87h-3.27V302h-5.3v-2.68Z" transform="translate(1 1.5)"/>
      <path class="cls-7" d="M435.68,310.7v6.17h-3.26V299.32h5.71a9.86,9.86,0,0,1,3.05.42,5.81,5.81,0,0,1,2.12,1.15,4.49,4.49,0,0,1,1.24,1.77,6.14,6.14,0,0,1,.4,2.26,6.23,6.23,0,0,1-.42,2.33,4.9,4.9,0,0,1-1.28,1.83,5.81,5.81,0,0,1-2.12,1.19,9.58,9.58,0,0,1-3,.43Zm0-2.55h2.45a5,5,0,0,0,1.57-.23,2.91,2.91,0,0,0,1.1-.64,2.73,2.73,0,0,0,.66-1,4,4,0,0,0,.22-1.34,3.69,3.69,0,0,0-.22-1.28,2.62,2.62,0,0,0-.66-1,3,3,0,0,0-1.1-.61,5.28,5.28,0,0,0-1.57-.21h-2.45Z" transform="translate(1 1.5)"/>
      <path class="cls-7" d="M457.09,310.26h2.21V312a.57.57,0,0,1-.16.42.57.57,0,0,1-.46.18h-1.59v4.28h-2.62v-4.28h-7.41a.78.78,0,0,1-.53-.19.8.8,0,0,1-.29-.47l-.3-1.51,8.31-11.11h2.84Zm-2.62-5.74c0-.26,0-.54,0-.84s.05-.61.09-.94l-5.45,7.52h5.34Z" transform="translate(1 1.5)"/>
      <path class="cls-7" d="M471.69,300.6a1.36,1.36,0,0,1-.41,1,1.86,1.86,0,0,1-1.35.4H465.1l-.63,3.67a10.4,10.4,0,0,1,2.17-.25,6.47,6.47,0,0,1,2.43.42,4.91,4.91,0,0,1,1.77,1.14,4.66,4.66,0,0,1,1.08,1.7,6.08,6.08,0,0,1,.37,2.11,6.41,6.41,0,0,1-.5,2.55,5.7,5.7,0,0,1-1.36,2,6.05,6.05,0,0,1-2.07,1.27,7.36,7.36,0,0,1-2.6.45,7.2,7.2,0,0,1-1.57-.17,8.39,8.39,0,0,1-1.39-.46,8.57,8.57,0,0,1-1.2-.65,7.3,7.3,0,0,1-1-.79l.92-1.27a.9.9,0,0,1,.78-.41,1.12,1.12,0,0,1,.61.19l.72.43a7.26,7.26,0,0,0,1,.42,4,4,0,0,0,1.33.19,3.64,3.64,0,0,0,1.45-.26,2.88,2.88,0,0,0,1.05-.75,3.16,3.16,0,0,0,.63-1.14,4.73,4.73,0,0,0,.21-1.44,3,3,0,0,0-.83-2.24,3.35,3.35,0,0,0-2.44-.8,7.45,7.45,0,0,0-2.56.46l-1.87-.54,1.45-8.52h8.67Z" transform="translate(1 1.5)"/>
    </g>
    <g>
      <path class="cls-7" d="M38.39,165.37v2.68H33.11v14.87H29.85V168.05H24.54v-2.68Z" transform="translate(1 1.5)"/>
      <path class="cls-7" d="M43.79,176.74v6.18H40.53V165.37h5.71a10.19,10.19,0,0,1,3,.41,5.74,5.74,0,0,1,2.12,1.16,4.39,4.39,0,0,1,1.24,1.77,6.14,6.14,0,0,1,.4,2.26,6.23,6.23,0,0,1-.42,2.33,4.79,4.79,0,0,1-1.28,1.83,5.81,5.81,0,0,1-2.12,1.19,9.55,9.55,0,0,1-3,.42Zm0-2.54h2.45a5,5,0,0,0,1.57-.23,2.91,2.91,0,0,0,1.1-.64,2.61,2.61,0,0,0,.66-1,3.81,3.81,0,0,0,.22-1.34,3.47,3.47,0,0,0-.22-1.28,2.5,2.5,0,0,0-.66-1,2.86,2.86,0,0,0-1.1-.61,5.28,5.28,0,0,0-1.57-.21H43.79Z" transform="translate(1 1.5)"/>
      <path class="cls-7" d="M65.2,176.31h2.21V178a.6.6,0,0,1-.16.42.57.57,0,0,1-.46.18H65.2v4.28H62.58v-4.28h-7.4a.89.89,0,0,1-.54-.19.84.84,0,0,1-.29-.47l-.3-1.51,8.31-11.11H65.2Zm-2.62-5.74q0-.39,0-.84c0-.3,0-.61.08-.94l-5.45,7.52h5.34Z" transform="translate(1 1.5)"/>
      <path class="cls-7" d="M75.11,165.18a6.54,6.54,0,0,1,2.22.36,4.83,4.83,0,0,1,1.72,1,4.59,4.59,0,0,1,1.12,1.58,5.2,5.2,0,0,1,.4,2.05,5.42,5.42,0,0,1-.29,1.79,7.41,7.41,0,0,1-.76,1.58A11.58,11.58,0,0,1,78.4,175c-.43.47-.88,1-1.35,1.43l-4,4a10.29,10.29,0,0,1,1.14-.26,6.72,6.72,0,0,1,1.07-.09h4.5a1.06,1.06,0,0,1,.77.27,1,1,0,0,1,.29.73v1.79h-12v-1a1.58,1.58,0,0,1,.13-.63,1.79,1.79,0,0,1,.4-.61l5.33-5.34c.45-.45.84-.89,1.2-1.3a8.53,8.53,0,0,0,.88-1.23,5.59,5.59,0,0,0,.55-1.23,4.66,4.66,0,0,0,.19-1.31,3,3,0,0,0-.19-1.12,2.17,2.17,0,0,0-.52-.8,2.11,2.11,0,0,0-.8-.49,3.21,3.21,0,0,0-1-.17,2.76,2.76,0,0,0-1.78.55,2.83,2.83,0,0,0-1,1.47,1.26,1.26,0,0,1-.4.66,1.12,1.12,0,0,1-.68.2,2,2,0,0,1-.4,0l-1.58-.28a6.38,6.38,0,0,1,.71-2.21,5.1,5.1,0,0,1,1.3-1.59,5.2,5.2,0,0,1,1.8-1A7,7,0,0,1,75.11,165.18Z" transform="translate(1 1.5)"/>
    </g>
    <g>
      <path class="cls-7" d="M38.39,264.87v2.68H33.11v14.87H29.85V267.55H24.54v-2.68Z" transform="translate(1 1.5)"/>
      <path class="cls-7" d="M43.79,276.24v6.18H40.53V264.87h5.71a10.19,10.19,0,0,1,3,.41,5.74,5.74,0,0,1,2.12,1.16,4.39,4.39,0,0,1,1.24,1.77,6.14,6.14,0,0,1,.4,2.26,6.23,6.23,0,0,1-.42,2.33,4.9,4.9,0,0,1-1.28,1.83,5.81,5.81,0,0,1-2.12,1.19,9.59,9.59,0,0,1-3,.42Zm0-2.54h2.45a5,5,0,0,0,1.57-.23,2.91,2.91,0,0,0,1.1-.64,2.61,2.61,0,0,0,.66-1,4,4,0,0,0,.22-1.34,3.69,3.69,0,0,0-.22-1.28,2.5,2.5,0,0,0-.66-1,2.86,2.86,0,0,0-1.1-.61,5.28,5.28,0,0,0-1.57-.21H43.79Z" transform="translate(1 1.5)"/>
      <path class="cls-7" d="M65.2,275.81h2.21v1.73a.6.6,0,0,1-.16.42.57.57,0,0,1-.46.18H65.2v4.28H62.58v-4.28h-7.4a.87.87,0,0,1-.54-.19.84.84,0,0,1-.29-.47l-.3-1.51,8.31-11.11H65.2Zm-2.62-5.74q0-.39,0-.84c0-.3,0-.61.08-.94l-5.45,7.52h5.34Z" transform="translate(1 1.5)"/>
      <path class="cls-7" d="M79.23,275.81h2.21v1.73a.6.6,0,0,1-.16.42.57.57,0,0,1-.46.18H79.23v4.28H76.61v-4.28h-7.4a.87.87,0,0,1-.54-.19.84.84,0,0,1-.29-.47l-.3-1.51,8.31-11.11h2.84Zm-2.62-5.74c0-.26,0-.54,0-.84s.05-.61.09-.94l-5.45,7.52h5.34Z" transform="translate(1 1.5)"/>
    </g>
    <g>
      <path class="cls-7" d="M38.37,88v2.3H33.85v12.74h-2.8V90.32H26.5V88Z" transform="translate(1 1.5)"/>
      <path class="cls-7" d="M43,97.77v5.29h-2.8V88h4.9a8.72,8.72,0,0,1,2.61.35,5,5,0,0,1,1.82,1,3.81,3.81,0,0,1,1.06,1.52,5.31,5.31,0,0,1,.35,1.94,5.2,5.2,0,0,1-.37,2,4.08,4.08,0,0,1-1.09,1.57,5.24,5.24,0,0,1-1.82,1,8.2,8.2,0,0,1-2.56.36Zm0-2.19h2.1a4.17,4.17,0,0,0,1.34-.19,2.46,2.46,0,0,0,.95-.55,2.21,2.21,0,0,0,.56-.87,3.27,3.27,0,0,0,.19-1.15,3,3,0,0,0-.19-1.1,2.14,2.14,0,0,0-.56-.83,2.41,2.41,0,0,0-.95-.52,4.48,4.48,0,0,0-1.34-.18H43Z" transform="translate(1 1.5)"/>
      <path class="cls-7" d="M61.31,97.39H63.2v1.49a.52.52,0,0,1-.13.36.51.51,0,0,1-.4.15H61.31v3.67H59.06V99.39H52.72a.68.68,0,0,1-.46-.16.74.74,0,0,1-.25-.4l-.26-1.3L58.88,88h2.43Zm-2.25-4.92c0-.22,0-.46,0-.71s0-.53.08-.81l-4.67,6.44h4.57Z" transform="translate(1 1.5)"/>
      <path class="cls-7" d="M75.06,95.54A12.4,12.4,0,0,1,74.64,99a7.07,7.07,0,0,1-1.16,2.4,4.75,4.75,0,0,1-1.76,1.41,5.21,5.21,0,0,1-2.19.46,5.14,5.14,0,0,1-2.18-.46,4.69,4.69,0,0,1-1.74-1.41A6.89,6.89,0,0,1,64.45,99a14.47,14.47,0,0,1,0-6.84,6.92,6.92,0,0,1,1.16-2.39,4.69,4.69,0,0,1,1.74-1.41,5.14,5.14,0,0,1,2.18-.47,5.22,5.22,0,0,1,2.19.47,4.75,4.75,0,0,1,1.76,1.41,7.1,7.1,0,0,1,1.16,2.39A12.3,12.3,0,0,1,75.06,95.54Zm-2.65,0a12.6,12.6,0,0,0-.24-2.7,5.32,5.32,0,0,0-.64-1.71,2.35,2.35,0,0,0-.92-.89A2.44,2.44,0,0,0,69.53,90a2.2,2.2,0,0,0-2,1.14,5.58,5.58,0,0,0-.63,1.71,13.37,13.37,0,0,0-.23,2.7,13.54,13.54,0,0,0,.23,2.71,5.61,5.61,0,0,0,.63,1.7,2.33,2.33,0,0,0,.91.89,2.41,2.41,0,0,0,1.07.26,2.45,2.45,0,0,0,1.08-.26,2.29,2.29,0,0,0,.92-.89,5.35,5.35,0,0,0,.64-1.7A12.76,12.76,0,0,0,72.41,95.54Z" transform="translate(1 1.5)"/>
    </g>
  </g>
  <g id="Layer_6" data-name="Layer 6">
    <path class="cls-8" d="M198.06,100.78l25,4.57" transform="translate(1 1.5)"/>
    <path class="cls-8" d="M198.7,97.65l25,4.58" transform="translate(1 1.5)"/>
    <line class="cls-9" x1="165.77" y1="130.99" x2="165.77" y2="130.99"/>
    <line class="cls-9" x1="165.77" y1="130.57" x2="165.77" y2="130.57"/>
    <line class="cls-9" x1="165.77" y1="117.26" x2="165.77" y2="117.26"/>
    <line class="cls-9" x1="165.77" y1="116.84" x2="165.77" y2="116.84"/>
    <line class="cls-8" x1="197.39" y1="111.43" x2="222.36" y2="116.01"/>
    <line class="cls-8" x1="197.81" y1="108.52" x2="222.78" y2="112.68"/>
    <line class="cls-8" x1="198.64" y1="105.19" x2="223.61" y2="109.77"/>
    <line class="cls-9" x1="167.85" y1="71.07" x2="167.85" y2="138.48"/>
    <line class="cls-8" x1="167.85" y1="138.48" x2="218.2" y2="138.48"/>
    <line class="cls-8" x1="217.37" y1="75.64" x2="217.37" y2="75.64"/>
    <line class="cls-8" x1="167.87" y1="92.7" x2="193.23" y2="92.7"/>
    <line class="cls-8" x1="204.88" y1="69.4" x2="197.39" y2="113.09"/>
    <line class="cls-8" x1="193.23" y1="71.07" x2="193.23" y2="68.99"/>
    <line class="cls-9" x1="167.85" y1="71.07" x2="167.85" y2="68.99"/>
    <line class="cls-8" x1="167.85" y1="73.98" x2="193.23" y2="73.98"/>
    <line class="cls-8" x1="167.85" y1="71.07" x2="193.23" y2="71.07"/>
    <line class="cls-8" x1="193.23" y1="111.43" x2="167.85" y2="111.43"/>
    <line class="cls-8" x1="182" y1="109.35" x2="182" y2="109.35"/>
    <line class="cls-8" x1="167.85" y1="98.95" x2="187.65" y2="98.95"/>
    <line class="cls-8" x1="193.23" y1="71.07" x2="193.23" y2="113.09"/>
    <path class="cls-8" d="M192.23,104.1" transform="translate(1 1.5)"/>
    <path class="cls-9" d="M166.85,93.7" transform="translate(1 1.5)"/>
    <path class="cls-8" d="M192.23,100.36" transform="translate(1 1.5)"/>
    <path class="cls-9" d="M166.85,89.54" transform="translate(1 1.5)"/>
    <line class="cls-8" x1="182" y1="94.79" x2="182" y2="94.79"/>
    <line class="cls-8" x1="169.1" y1="95.62" x2="193.23" y2="95.62"/>
    <line class="cls-8" x1="180.33" y1="71.07" x2="180.33" y2="101.03"/>
    <line class="cls-8" x1="180.33" y1="100.61" x2="180.33" y2="111.43"/>
    <line class="cls-8" x1="167.85" y1="105.19" x2="193.25" y2="105.19"/>
    <line class="cls-8" x1="167.85" y1="101.86" x2="193.46" y2="101.86"/>
    <line class="cls-9" x1="169.1" y1="95.62" x2="167.85" y2="95.62"/>
    <line class="cls-8" x1="185.74" y1="98.95" x2="193.23" y2="98.95"/>
    <line class="cls-9" x1="234.43" y1="73.98" x2="233.6" y2="76.89"/>
    <line class="cls-8" x1="202.8" y1="81.05" x2="227.77" y2="85.21"/>
    <line class="cls-8" x1="203.43" y1="77.93" x2="228.39" y2="82.09"/>
    <line class="cls-8" x1="204.05" y1="74.81" x2="229.02" y2="78.97"/>
    <line class="cls-8" x1="204.49" y1="71.9" x2="229.45" y2="76.06"/>
    <path class="cls-8" d="M192.23,106.6H166.85m0-18.72h25.38M166.85,85h25.38m-25.38-3.33h25.38m-25.38-2.91h25.38m-25.38-3.33h25.38" transform="translate(1 1.5)"/>
    <line class="cls-8" x1="202.39" y1="83.97" x2="227.35" y2="88.54"/>
    <line class="cls-8" x1="216.53" y1="73.98" x2="209.46" y2="113.51"/>
    <line class="cls-8" x1="214.87" y1="74.81" x2="214.87" y2="74.81"/>
    <line class="cls-8" x1="200.31" y1="96.03" x2="225.27" y2="100.61"/>
    <line class="cls-8" x1="200.72" y1="93.12" x2="225.69" y2="97.7"/>
    <line class="cls-8" x1="201.14" y1="90.21" x2="226.11" y2="94.37"/>
    <line class="cls-8" x1="201.97" y1="86.88" x2="226.94" y2="91.46"/>
    <line class="cls-8" x1="234.43" y1="73.56" x2="222.36" y2="141.81"/>
    <line class="cls-8" x1="229.85" y1="73.15" x2="218.2" y2="138.48"/>
    <line class="cls-9" x1="229.85" y1="73.15" x2="234.43" y2="73.56"/>
  </g>
  <g id="Layer_7" data-name="Layer 7">
    <line class="cls-10" x1="165.79" y1="68.99" x2="165.79" y2="299.52"/>
    <line class="cls-10" x1="197.41" y1="299.1" x2="165.79" y2="299.1"/>
    <line class="cls-10" x1="197.83" y1="333.64" x2="197.83" y2="298.69"/>
    <line class="cls-10" x1="308.31" y1="333.64" x2="197.83" y2="333.64"/>
    <line class="cls-10" x1="308.1" y1="299.1" x2="308.1" y2="333.64"/>
    <line class="cls-10" x1="340.56" y1="299.73" x2="308.52" y2="299.73"/>
    <line class="cls-10" x1="340.14" y1="76.48" x2="340.14" y2="299.73"/>
    <line class="cls-10" x1="234.66" y1="76.06" x2="340.14" y2="76.06"/>
    <line class="cls-9" x1="166.2" y1="141.81" x2="222.38" y2="141.81"/>
    <line class="cls-11" x1="168.7" y1="431.96" x2="168.7" y2="376.92"/>
    <line class="cls-11" x1="224.88" y1="376.92" x2="168.7" y2="376.92"/>
    <line class="cls-11" x1="224.88" y1="432.4" x2="224.88" y2="376.92"/>
    <line class="cls-11" x1="225.08" y1="431.96" x2="225.08" y2="376.92"/>
    <line class="cls-11" x1="281.26" y1="376.92" x2="225.08" y2="376.92"/>
    <line class="cls-11" x1="281.26" y1="432.4" x2="281.26" y2="376.92"/>
    <line class="cls-11" x1="281.26" y1="431.96" x2="281.26" y2="376.92"/>
    <line class="cls-11" x1="337.44" y1="376.92" x2="281.26" y2="376.92"/>
    <line class="cls-11" x1="337.44" y1="432.4" x2="337.44" y2="376.92"/>
  </g>
  <g id="Layer_8" data-name="Layer 8">
    <g>
      <rect class="cls-11" x="169.14" y="6.48" width="17.22" height="15.82"/>
      <path class="cls-7" d="M176.5,10.52h0l-1.36.73-.2-.8,1.7-.91h.9v7.79h-1Z" transform="translate(1 1.5)"/>
    </g>
    <g>
      <rect class="cls-11" x="232.14" y="6.48" width="17.22" height="15.82"/>
      <path class="cls-7" d="M237.21,17.33v-.65l.83-.8c2-1.89,2.89-2.9,2.9-4.08a1.39,1.39,0,0,0-1.55-1.52,2.66,2.66,0,0,0-1.65.66l-.34-.74a3.41,3.41,0,0,1,2.21-.8A2.2,2.2,0,0,1,242,11.67c0,1.44-1.05,2.6-2.69,4.19l-.62.57v0h3.5v.87Z" transform="translate(1 1.5)"/>
    </g>
    <g>
      <rect class="cls-11" x="266.65" y="55.25" width="17.22" height="15.82"/>
      <path class="cls-7" d="M272,64.89a3.57,3.57,0,0,0,1.73.49c1.35,0,1.77-.87,1.76-1.51,0-1.09-1-1.56-2-1.56h-.59v-.79h.59c.76,0,1.74-.4,1.74-1.32,0-.63-.4-1.18-1.37-1.18a2.86,2.86,0,0,0-1.56.52l-.28-.77a3.71,3.71,0,0,1,2-.6c1.54,0,2.23.91,2.23,1.86a1.93,1.93,0,0,1-1.44,1.83v0a2,2,0,0,1,1.74,2c0,1.25-1,2.34-2.84,2.34a4,4,0,0,1-2-.53Z" transform="translate(1 1.5)"/>
    </g>
    <g>
      <rect class="cls-11" x="309.35" y="55.25" width="17.22" height="15.82"/>
      <path class="cls-7" d="M317.68,66.1V64h-3.62v-.69l3.48-5h1.14v4.85h1.09V64h-1.09V66.1Zm0-2.95V60.54c0-.4,0-.81,0-1.22h0c-.24.46-.43.79-.64,1.15l-1.91,2.65v0Z" transform="translate(1 1.5)"/>
    </g>
    <g>
      <rect class="cls-11" x="358.74" y="6.48" width="17.22" height="15.82"/>
      <path class="cls-7" d="M368.46,10.42h-3l-.3,2a3.48,3.48,0,0,1,.63,0,3.28,3.28,0,0,1,1.68.42,2.21,2.21,0,0,1,1.12,2,2.7,2.7,0,0,1-2.9,2.66,3.87,3.87,0,0,1-2-.48l.27-.8a3.5,3.5,0,0,0,1.66.43,1.72,1.72,0,0,0,1.85-1.69c0-1-.68-1.73-2.24-1.73a7.42,7.42,0,0,0-1.08.09l.5-3.74h3.73Z" transform="translate(1 1.5)"/>
    </g>
    <g>
      <rect class="cls-11" x="375.96" y="51.09" width="17.22" height="15.82"/>
      <path class="cls-7" d="M385.48,54.88a3.8,3.8,0,0,0-.79,0A3.17,3.17,0,0,0,382,57.7h0a2.35,2.35,0,0,1,1.89-.9,2.32,2.32,0,0,1,2.35,2.52,2.61,2.61,0,0,1-2.59,2.75c-1.67,0-2.76-1.3-2.76-3.32a4.9,4.9,0,0,1,1.32-3.52,4.25,4.25,0,0,1,2.49-1.15,4.84,4.84,0,0,1,.77-.06Zm-.3,4.5a1.59,1.59,0,0,0-1.61-1.79,1.75,1.75,0,0,0-1.51,1,.93.93,0,0,0-.12.47c0,1.28.61,2.23,1.72,2.23C384.57,61.25,385.18,60.5,385.18,59.38Z" transform="translate(1 1.5)"/>
    </g>
    <g>
      <rect class="cls-11" x="375.96" y="79.59" width="17.22" height="15.82"/>
      <path class="cls-7" d="M386.09,82.64v.7l-3.39,7.1h-1.09l3.38-6.9v0h-3.82v-.88Z" transform="translate(1 1.5)"/>
    </g>
    <g>
      <rect class="cls-11" x="375.96" y="130.57" width="17.22" height="15.82"/>
      <path class="cls-7" d="M380.93,139.44a2.23,2.23,0,0,1,1.55-2.09v0a1.92,1.92,0,0,1-1.24-1.75,2.19,2.19,0,0,1,2.41-2.07,2,2,0,0,1,2.27,1.92,2,2,0,0,1-1.28,1.82v0a2.15,2.15,0,0,1,1.57,2,2.4,2.4,0,0,1-2.65,2.27C381.92,141.55,380.93,140.58,380.93,139.44Zm4.2-.05c0-.95-.66-1.4-1.71-1.7a1.68,1.68,0,0,0-1.41,1.6,1.45,1.45,0,0,0,1.56,1.49A1.41,1.41,0,0,0,385.13,139.39Zm-2.9-3.9c0,.78.59,1.2,1.49,1.44a1.53,1.53,0,0,0,1.18-1.41,1.21,1.21,0,0,0-1.32-1.28A1.24,1.24,0,0,0,382.23,135.49Z" transform="translate(1 1.5)"/>
    </g>
    <g>
      <rect class="cls-11" x="375.96" y="174.26" width="17.22" height="15.82"/>
      <path class="cls-7" d="M381.64,184.37a4.43,4.43,0,0,0,.85,0,2.88,2.88,0,0,0,1.63-.76,3.41,3.41,0,0,0,1-2.07h0a2.29,2.29,0,0,1-1.84.84A2.26,2.26,0,0,1,381,180a2.68,2.68,0,0,1,2.66-2.77c1.6,0,2.58,1.3,2.58,3.29a4.94,4.94,0,0,1-1.34,3.66,4,4,0,0,1-2.27,1,5,5,0,0,1-1,.06Zm.38-4.49a1.51,1.51,0,0,0,1.5,1.66,1.75,1.75,0,0,0,1.54-.82.71.71,0,0,0,.1-.38c0-1.33-.5-2.35-1.6-2.35C382.66,178,382,178.78,382,179.88Z" transform="translate(1 1.5)"/>
    </g>
    <g>
      <rect class="cls-11" x="375.96" y="216.71" width="17.22" height="15.82"/>
      <g>
        <path class="cls-7" d="M380.24,220.74h0l-1.36.73-.2-.8,1.7-.91h.9v7.79h-1Z" transform="translate(1 1.5)"/>
        <path class="cls-7" d="M389.29,223.57c0,2.65-1,4.12-2.71,4.12-1.52,0-2.56-1.43-2.58-4s1.13-4.05,2.71-4.05S389.29,221.09,389.29,223.57Zm-4.23.12c0,2,.62,3.18,1.58,3.18s1.59-1.26,1.59-3.25-.49-3.18-1.58-3.18C385.73,220.44,385.06,221.57,385.06,223.69Z" transform="translate(1 1.5)"/>
      </g>
    </g>
    <g>
      <rect class="cls-11" x="375.96" y="264.71" width="17.22" height="15.82"/>
      <g>
        <path class="cls-7" d="M380.24,268.74h0l-1.36.73-.2-.8,1.7-.91h.9v7.79h-1Z" transform="translate(1 1.5)"/>
        <path class="cls-7" d="M389.29,271.57c0,2.65-1,4.12-2.71,4.12-1.52,0-2.56-1.43-2.58-4s1.13-4.05,2.71-4.05S389.29,269.09,389.29,271.57Zm-4.23.12c0,2,.62,3.18,1.58,3.18s1.59-1.26,1.59-3.25-.49-3.18-1.58-3.18C385.73,268.44,385.06,269.57,385.06,271.69Z" transform="translate(1 1.5)"/>
      </g>
    </g>
    <g>
      <rect class="cls-11" x="375.96" y="322.71" width="17.22" height="15.82"/>
      <g>
        <path class="cls-7" d="M380.24,326.75h0l-1.36.73-.2-.8,1.7-.92h.9v7.8h-1Z" transform="translate(1 1.5)"/>
        <path class="cls-7" d="M386.4,326.75h0l-1.35.73-.21-.8,1.71-.92h.9v7.8h-1Z" transform="translate(1 1.5)"/>
      </g>
    </g>
    <g>
      <rect class="cls-11" x="350.13" y="375.6" width="17.22" height="15.82"/>
      <g>
        <path class="cls-7" d="M354.41,379.64h0l-1.36.73-.2-.81,1.7-.91h.9v7.8h-1Z" transform="translate(1 1.5)"/>
        <path class="cls-7" d="M358.28,386.45v-.65l.83-.8c2-1.9,2.89-2.91,2.9-4.08a1.39,1.39,0,0,0-1.55-1.52,2.63,2.63,0,0,0-1.65.66l-.34-.75a3.46,3.46,0,0,1,2.21-.79,2.19,2.19,0,0,1,2.38,2.27c0,1.44-1,2.6-2.68,4.18l-.63.58v0h3.51v.88Z" transform="translate(1 1.5)"/>
      </g>
    </g>
    <g>
      <rect class="cls-11" x="326.57" y="319.24" width="17.22" height="15.82"/>
      <g>
        <path class="cls-7" d="M330.85,323.28h0l-1.35.73-.21-.81,1.7-.91h.9v7.8h-1Z" transform="translate(1 1.5)"/>
        <path class="cls-7" d="M338,330.09V328h-3.62v-.69l3.48-5H339v4.85h1.09V328H339v2.13Zm0-2.95v-2.61c0-.4,0-.81,0-1.22h0c-.24.46-.43.79-.65,1.15l-1.9,2.65v0Z" transform="translate(1 1.5)"/>
      </g>
    </g>
    <g>
      <rect class="cls-11" x="130.42" y="376.92" width="17.22" height="15.82"/>
      <g>
        <path class="cls-7" d="M134.7,381h0l-1.36.74-.2-.81,1.7-.91h.9v7.8h-1Z" transform="translate(1 1.5)"/>
        <path class="cls-7" d="M143.22,380.86h-3l-.3,2a4.58,4.58,0,0,1,.63-.05,3.38,3.38,0,0,1,1.68.42,2.24,2.24,0,0,1,1.12,2,2.71,2.71,0,0,1-2.91,2.66,3.8,3.8,0,0,1-1.94-.48l.26-.8a3.54,3.54,0,0,0,1.67.43,1.72,1.72,0,0,0,1.85-1.69c0-1-.68-1.73-2.24-1.73a9.09,9.09,0,0,0-1.08.08l.5-3.74h3.73Z" transform="translate(1 1.5)"/>
      </g>
    </g>
    <g>
      <rect class="cls-11" x="163.69" y="310.34" width="17.22" height="15.82"/>
      <g>
        <path class="cls-7" d="M168,314.37h0l-1.36.73-.2-.8,1.7-.91h.9v7.8h-1Z" transform="translate(1 1.5)"/>
        <path class="cls-7" d="M176.28,314.13a3.83,3.83,0,0,0-.79.05,3.18,3.18,0,0,0-2.71,2.77h0a2.37,2.37,0,0,1,4.23,1.62,2.61,2.61,0,0,1-2.59,2.75c-1.67,0-2.76-1.3-2.76-3.33a4.89,4.89,0,0,1,1.32-3.51,4.28,4.28,0,0,1,2.5-1.15,4.73,4.73,0,0,1,.76-.06Zm-.3,4.5a1.58,1.58,0,0,0-1.6-1.79,1.73,1.73,0,0,0-1.51,1,.84.84,0,0,0-.12.47c0,1.28.61,2.23,1.71,2.23C175.37,320.5,176,319.75,176,318.63Z" transform="translate(1 1.5)"/>
      </g>
    </g>
    <g>
      <rect class="cls-11" x="110.35" y="298.69" width="17.22" height="15.82"/>
      <g>
        <path class="cls-7" d="M114.64,302.72h0l-1.35.73-.21-.8,1.71-.91h.9v7.79h-1Z" transform="translate(1 1.5)"/>
        <path class="cls-7" d="M123.56,301.74v.7l-3.39,7.09h-1.09l3.38-6.89v0h-3.81v-.87Z" transform="translate(1 1.5)"/>
      </g>
    </g>
    <g>
      <rect class="cls-11" x="110.35" y="249.03" width="17.22" height="15.82"/>
      <g>
        <path class="cls-7" d="M114.64,253.07h0l-1.35.73-.21-.8,1.71-.91h.9v7.79h-1Z" transform="translate(1 1.5)"/>
        <path class="cls-7" d="M118.41,257.9a2.21,2.21,0,0,1,1.54-2.08v0a1.93,1.93,0,0,1-1.23-1.75,2.18,2.18,0,0,1,2.41-2.08,2,2,0,0,1,2.26,1.92,2,2,0,0,1-1.28,1.83v0a2.16,2.16,0,0,1,1.57,2A2.4,2.4,0,0,1,121,260C119.39,260,118.41,259,118.41,257.9Zm4.19,0c0-.94-.66-1.4-1.71-1.7a1.69,1.69,0,0,0-1.4,1.61,1.44,1.44,0,0,0,1.55,1.49A1.41,1.41,0,0,0,122.6,257.85ZM119.7,254c0,.78.59,1.2,1.49,1.44a1.55,1.55,0,0,0,1.19-1.42,1.22,1.22,0,0,0-1.32-1.27A1.24,1.24,0,0,0,119.7,254Z" transform="translate(1 1.5)"/>
      </g>
    </g>
    <g>
      <rect class="cls-11" x="110.94" y="179.43" width="17.22" height="15.82"/>
      <g>
        <path class="cls-7" d="M115.22,183.46h0l-1.36.73-.2-.8,1.7-.91h.9v7.79h-1Z" transform="translate(1 1.5)"/>
        <path class="cls-7" d="M119.7,189.53a4.46,4.46,0,0,0,.85,0,2.9,2.9,0,0,0,1.63-.75,3.38,3.38,0,0,0,1-2.08h0a2.34,2.34,0,0,1-4.13-1.54,2.66,2.66,0,0,1,2.66-2.77c1.59,0,2.58,1.29,2.58,3.28a5,5,0,0,1-1.34,3.66,3.85,3.85,0,0,1-2.27,1,4.38,4.38,0,0,1-1,.06Zm.38-4.48a1.5,1.5,0,0,0,1.5,1.65,1.72,1.72,0,0,0,1.53-.82.66.66,0,0,0,.1-.38c0-1.33-.49-2.35-1.59-2.35C120.72,183.15,120.08,183.94,120.08,185.05Z" transform="translate(1 1.5)"/>
      </g>
    </g>
    <g>
      <rect class="cls-11" x="110.35" y="153.29" width="17.22" height="15.82"/>
      <g>
        <path class="cls-7" d="M112.35,164.14v-.65l.82-.81c2-1.89,2.89-2.9,2.91-4.07a1.4,1.4,0,0,0-1.55-1.53,2.66,2.66,0,0,0-1.66.66l-.33-.74a3.41,3.41,0,0,1,2.21-.79,2.19,2.19,0,0,1,2.38,2.26c0,1.44-1,2.61-2.68,4.19l-.63.58v0h3.5v.88Z" transform="translate(1 1.5)"/>
        <path class="cls-7" d="M123.68,160.15c0,2.65-1,4.12-2.71,4.12-1.52,0-2.55-1.43-2.58-4s1.13-4,2.71-4S123.68,157.67,123.68,160.15Zm-4.23.12c0,2,.62,3.18,1.58,3.18s1.6-1.26,1.6-3.25S122.14,157,121,157C120.12,157,119.45,158.15,119.45,160.27Z" transform="translate(1 1.5)"/>
      </g>
    </g>
    <g>
      <rect class="cls-11" x="110.35" y="125.34" width="17.22" height="15.82"/>
      <g>
        <path class="cls-7" d="M112.35,136.19v-.65l.82-.8c2-1.9,2.89-2.9,2.91-4.08a1.39,1.39,0,0,0-1.55-1.52,2.66,2.66,0,0,0-1.66.66l-.33-.75a3.46,3.46,0,0,1,2.21-.79,2.19,2.19,0,0,1,2.38,2.27c0,1.44-1,2.6-2.68,4.19l-.63.57v0h3.5v.87Z" transform="translate(1 1.5)"/>
        <path class="cls-7" d="M120.79,129.38h0l-1.36.73-.2-.8,1.7-.91h.9v7.79h-1Z" transform="translate(1 1.5)"/>
      </g>
    </g>
    <g>
      <rect class="cls-11" x="110.35" y="87.5" width="17.22" height="15.82"/>
      <g>
        <path class="cls-7" d="M112.35,98.35V97.7l.82-.8c2-1.9,2.89-2.91,2.91-4.08a1.4,1.4,0,0,0-1.55-1.53,2.66,2.66,0,0,0-1.66.66l-.33-.74a3.46,3.46,0,0,1,2.21-.79,2.19,2.19,0,0,1,2.38,2.27c0,1.44-1,2.6-2.68,4.18l-.63.58v0h3.5v.88Z" transform="translate(1 1.5)"/>
        <path class="cls-7" d="M118.5,98.35V97.7l.83-.8c2-1.9,2.89-2.91,2.9-4.08a1.39,1.39,0,0,0-1.54-1.53A2.66,2.66,0,0,0,119,92l-.34-.74a3.46,3.46,0,0,1,2.21-.79,2.2,2.2,0,0,1,2.39,2.27c0,1.44-1.05,2.6-2.69,4.18l-.62.58v0h3.5v.88Z" transform="translate(1 1.5)"/>
      </g>
    </g>
    <g>
      <rect class="cls-11" x="110.35" y="57.84" width="17.22" height="15.82"/>
      <g>
        <path class="cls-7" d="M112.35,68.69V68l.82-.8c2-1.9,2.89-2.9,2.91-4.08a1.39,1.39,0,0,0-1.55-1.52,2.66,2.66,0,0,0-1.66.66l-.33-.75a3.46,3.46,0,0,1,2.21-.79A2.19,2.19,0,0,1,117.13,63c0,1.44-1,2.6-2.68,4.19l-.63.57v0h3.5v.87Z" transform="translate(1 1.5)"/>
        <path class="cls-7" d="M118.75,67.48a3.57,3.57,0,0,0,1.73.49c1.36,0,1.78-.86,1.76-1.51,0-1.09-1-1.56-2-1.56h-.59v-.79h.59c.77,0,1.74-.4,1.74-1.32,0-.62-.4-1.18-1.37-1.18a2.89,2.89,0,0,0-1.56.52l-.27-.77a3.68,3.68,0,0,1,2-.6c1.54,0,2.24.92,2.24,1.86a1.94,1.94,0,0,1-1.44,1.84v0a2,2,0,0,1,1.74,2c0,1.25-1,2.34-2.85,2.34a4,4,0,0,1-2-.52Z" transform="translate(1 1.5)"/>
      </g>
    </g>
    <g>
      <rect class="cls-11" x="130.42" y="6.48" width="17.22" height="15.82"/>
      <g>
        <path class="cls-7" d="M132.41,17.33v-.65l.83-.8c2-1.89,2.89-2.9,2.9-4.08a1.39,1.39,0,0,0-1.55-1.52,2.66,2.66,0,0,0-1.65.66l-.34-.74a3.41,3.41,0,0,1,2.21-.8,2.2,2.2,0,0,1,2.39,2.27c0,1.44-1,2.6-2.69,4.19l-.62.57v0h3.5v.87Z" transform="translate(1 1.5)"/>
        <path class="cls-7" d="M141.83,17.33V15.21h-3.62v-.7l3.48-5h1.13v4.84h1.1v.83h-1.1v2.12Zm0-2.95v-2.6c0-.41,0-.82,0-1.22h0c-.24.45-.43.79-.65,1.15l-1.91,2.65v0Z" transform="translate(1 1.5)"/>
      </g>
    </g>
  </g>
</svg>
