<svg xmlns="http://www.w3.org/2000/svg" viewBox="0 0 556.97 372.73">
  <defs>
    <style>
      .cls-1 {
        fill: #14293d;
      }

      .cls-1, .cls-10, .cls-11, .cls-12, .cls-13, .cls-4, .cls-5, .cls-6, .cls-7, .cls-9 {
        stroke: #fff;
        stroke-miterlimit: 10;
      }

      .cls-1, .cls-4 {
        stroke-width: 0.5px;
      }

      .cls-1, .cls-2, .cls-4, .cls-6 {
        fill-rule: evenodd;
      }

      .cls-2 {
        fill: #255477;
      }

      .cls-3 {
        fill: #fff;
      }

      .cls-10, .cls-11, .cls-12, .cls-13, .cls-4, .cls-9 {
        fill: none;
      }

      .cls-5, .cls-6 {
        fill: #eb6711;
      }

      .cls-13, .cls-5, .cls-6, .cls-7 {
        stroke-width: 0.25px;
      }

      .cls-7 {
        fill: #d54c95;
      }

      .cls-8 {
        fill: #a34817;
      }

      .cls-9 {
        stroke-width: 0.75px;
      }

      .cls-10 {
        stroke-width: 3px;
      }

      .cls-11 {
        stroke-width: 2px;
      }
    </style>
  </defs>
  <title>Plan5</title>
  <g id="Lager_2" data-name="Lager 2">
    <polygon class="cls-1" points="556.72 371.73 182.41 371.73 182.41 100.94 1.52 101.34 1.52 2.71 100.15 2.71 100.15 53.86 182.41 54.31 556.72 54.31 556.72 371.73"/>
    <polyline class="cls-2" points="439.48 305.29 413.08 305.36 413.08 278.19 439.22 277.69 439.22 241.03 475.19 241.03 475.19 305.36"/>
    <g>
      <path class="cls-3" d="M416.46,292.25a2.6,2.6,0,0,1-1.14-.91,2.4,2.4,0,0,1-.4-1.37v-.23a.12.12,0,0,1,0-.1.14.14,0,0,1,.1-.05h1.67a.18.18,0,0,1,.15.15v.14a.85.85,0,0,0,.39.69,1.74,1.74,0,0,0,1.07.29,1.15,1.15,0,0,0,.78-.22.7.7,0,0,0,.25-.53.53.53,0,0,0-.15-.39,1.19,1.19,0,0,0-.4-.25c-.17-.07-.43-.17-.78-.29l-.14-.05-.14,0a8.77,8.77,0,0,1-1.35-.55,3,3,0,0,1-1-.81,2,2,0,0,1-.4-1.29,2.2,2.2,0,0,1,.39-1.3,2.44,2.44,0,0,1,1.08-.86,4,4,0,0,1,1.57-.3,4.08,4.08,0,0,1,1.67.33,2.77,2.77,0,0,1,1.15.95,2.44,2.44,0,0,1,.42,1.41v.16a.12.12,0,0,1,0,.1.14.14,0,0,1-.1.05h-1.67a.14.14,0,0,1-.1-.05.12.12,0,0,1,0-.1v-.08A1,1,0,0,0,419,286a1.45,1.45,0,0,0-1-.33,1.27,1.27,0,0,0-.73.19.63.63,0,0,0-.27.54.62.62,0,0,0,.17.44,1.55,1.55,0,0,0,.52.33c.24.09.6.22,1.09.38s1,.37,1.31.51a2.66,2.66,0,0,1,.88.7,1.89,1.89,0,0,1,.41,1.28,2.28,2.28,0,0,1-.39,1.34,2.55,2.55,0,0,1-1.11.87,4.1,4.1,0,0,1-1.66.31A4.39,4.39,0,0,1,416.46,292.25Z" transform="translate(1.52 1.5)"/>
      <path class="cls-3" d="M428.46,284.11a.15.15,0,0,1,0,.11v1.42a.15.15,0,0,1,0,.11.18.18,0,0,1-.1,0h-2.1a.05.05,0,0,0-.06.06v6.48a.13.13,0,0,1,0,.1.14.14,0,0,1-.1,0h-1.71a.14.14,0,0,1-.14-.14v-6.48a.05.05,0,0,0-.06-.06h-2a.15.15,0,0,1-.1,0,.15.15,0,0,1,0-.11v-1.42a.15.15,0,0,1,0-.11.15.15,0,0,1,.1,0h6.24A.18.18,0,0,1,428.46,284.11Z" transform="translate(1.52 1.5)"/>
      <path class="cls-3" d="M433.88,292.35l-.31-1.07a.07.07,0,0,0-.06,0h-2.74a.07.07,0,0,0-.06,0l-.31,1.07a.16.16,0,0,1-.17.12H428.4a.12.12,0,0,1-.11,0s0-.07,0-.13l2.56-8.11a.16.16,0,0,1,.16-.12h2.27a.14.14,0,0,1,.15.12L436,292.3a.14.14,0,0,1,0,.06c0,.08,0,.11-.14.11h-1.83A.16.16,0,0,1,433.88,292.35Zm-2.64-2.65H433c.05,0,.06,0,.05-.07l-.92-3.08s0-.05,0-.05a.07.07,0,0,0,0,.05l-.9,3.08C431.18,289.68,431.2,289.7,431.24,289.7Z" transform="translate(1.52 1.5)"/>
      <path class="cls-3" d="M441.22,292.36l-1.41-3.19a.08.08,0,0,0-.07,0h-.8s-.06,0-.06.05v3.15a.14.14,0,0,1-.14.14H437a.15.15,0,0,1-.11,0,.18.18,0,0,1,0-.1v-8.11a.14.14,0,0,1,.15-.15h3.56a2.83,2.83,0,0,1,1.39.33,2.26,2.26,0,0,1,.93.91,2.8,2.8,0,0,1,.33,1.37,2.46,2.46,0,0,1-.39,1.39,2.25,2.25,0,0,1-1.11.85.06.06,0,0,0,0,.09l1.58,3.29a.15.15,0,0,1,0,.08c0,.06,0,.09-.13.09h-1.8A.17.17,0,0,1,441.22,292.36Zm-2.34-6.52v1.7a.05.05,0,0,0,.06.06h1.34a1,1,0,0,0,.72-.25.83.83,0,0,0,.27-.65A.87.87,0,0,0,441,286a1,1,0,0,0-.72-.25h-1.34A.05.05,0,0,0,438.88,285.84Z" transform="translate(1.52 1.5)"/>
      <path class="cls-3" d="M450.41,284.11a.15.15,0,0,1,0,.11v1.42a.15.15,0,0,1,0,.11.18.18,0,0,1-.1,0h-2.1a.05.05,0,0,0-.06.06v6.48a.18.18,0,0,1,0,.1.15.15,0,0,1-.11,0h-1.7a.14.14,0,0,1-.14-.14v-6.48a.05.05,0,0,0-.06-.06h-2a.15.15,0,0,1-.1,0,.16.16,0,0,1-.05-.11v-1.42a.16.16,0,0,1,.05-.11.15.15,0,0,1,.1,0h6.24A.18.18,0,0,1,450.41,284.11Z" transform="translate(1.52 1.5)"/>
      <path class="cls-3" d="M452.8,292.2a2.69,2.69,0,0,1-1.13-1,3,3,0,0,1-.4-1.55v-5.4a.15.15,0,0,1,0-.11.18.18,0,0,1,.1,0h1.71a.18.18,0,0,1,.1,0,.15.15,0,0,1,0,.11v5.4a1.23,1.23,0,0,0,.33.9,1.3,1.3,0,0,0,1.75,0,1.23,1.23,0,0,0,.33-.9v-5.4a.14.14,0,0,1,.15-.15h1.7a.18.18,0,0,1,.1,0,.15.15,0,0,1,0,.11v5.4a3.05,3.05,0,0,1-.39,1.55,2.72,2.72,0,0,1-1.12,1,3.64,3.64,0,0,1-1.68.37A3.57,3.57,0,0,1,452.8,292.2Z" transform="translate(1.52 1.5)"/>
      <path class="cls-3" d="M463.81,284.41a2.4,2.4,0,0,1,1,.94,2.9,2.9,0,0,1,.34,1.4,2.63,2.63,0,0,1-.36,1.38,2.29,2.29,0,0,1-1,.92,3.25,3.25,0,0,1-1.5.33h-1.46a.05.05,0,0,0-.06.06v2.89a.18.18,0,0,1,0,.1.15.15,0,0,1-.11,0h-1.7a.13.13,0,0,1-.1,0,.14.14,0,0,1-.05-.1v-8.11a.16.16,0,0,1,.05-.11.18.18,0,0,1,.1,0h3.47A3,3,0,0,1,463.81,284.41Zm-1,3.11a1,1,0,0,0,.31-.72,1,1,0,0,0-.31-.74,1.12,1.12,0,0,0-.8-.28h-1.23a.05.05,0,0,0-.06.06v1.89a.05.05,0,0,0,.06.06H462A1.16,1.16,0,0,0,462.84,287.52Z" transform="translate(1.52 1.5)"/>
      <path class="cls-3" d="M467.28,292.25a2.6,2.6,0,0,1-1.14-.91,2.4,2.4,0,0,1-.4-1.37v-.23a.12.12,0,0,1,0-.1.14.14,0,0,1,.1-.05h1.67a.18.18,0,0,1,.15.15v.14a.85.85,0,0,0,.39.69,1.72,1.72,0,0,0,1.07.29,1.15,1.15,0,0,0,.78-.22.7.7,0,0,0,.25-.53.53.53,0,0,0-.15-.39,1.19,1.19,0,0,0-.4-.25c-.17-.07-.43-.17-.78-.29l-.15-.05-.13,0a8.77,8.77,0,0,1-1.35-.55,2.88,2.88,0,0,1-1-.81,2,2,0,0,1-.4-1.29,2.19,2.19,0,0,1,.38-1.3,2.47,2.47,0,0,1,1.09-.86,3.92,3.92,0,0,1,1.57-.3,4,4,0,0,1,1.66.33,2.74,2.74,0,0,1,1.16.95,2.44,2.44,0,0,1,.42,1.41v.16a.12.12,0,0,1,0,.1.14.14,0,0,1-.1.05h-1.67a.14.14,0,0,1-.1-.05.12.12,0,0,1,0-.1v-.08a1,1,0,0,0-.38-.74,1.43,1.43,0,0,0-1-.33,1.27,1.27,0,0,0-.73.19.63.63,0,0,0-.27.54.62.62,0,0,0,.17.44,1.55,1.55,0,0,0,.52.33c.24.09.6.22,1.09.38s1,.37,1.31.51a2.66,2.66,0,0,1,.88.7,2,2,0,0,1,.41,1.28,2.28,2.28,0,0,1-.39,1.34,2.55,2.55,0,0,1-1.11.87,4.11,4.11,0,0,1-1.67.31A4.38,4.38,0,0,1,467.28,292.25Z" transform="translate(1.52 1.5)"/>
    </g>
  </g>
  <g id="Layer_4" data-name="Layer 4">
    <path class="cls-4" d="M261.73,211.43h9.17s-.61-8.71-9.17-8.71Z" transform="translate(1.52 1.5)"/>
    <path class="cls-4" d="M261.73,138h9.17s-.61-8.72-9.17-8.72Z" transform="translate(1.52 1.5)"/>
    <path class="cls-4" d="M98.63,56.21h9.17c-.19,2.66-.43,8.71-9.17,8.71Z" transform="translate(1.52 1.5)"/>
    <path class="cls-4" d="M261.73,278.35h9.17s-.61-8.71-9.17-8.71Z" transform="translate(1.52 1.5)"/>
    <path class="cls-4" d="M477.7,253.44h-9.18s.62,8.72,9.18,8.72Z" transform="translate(1.52 1.5)"/>
    <path class="cls-4" d="M477.7,181.06h-9.18s.62,8.72,9.18,8.72Z" transform="translate(1.52 1.5)"/>
    <path class="cls-4" d="M477.7,119.16h-9.18s.62,8.71,9.18,8.71Z" transform="translate(1.52 1.5)"/>
    <rect class="cls-5" x="183.14" y="219.32" width="80.23" height="74.04"/>
    <rect class="cls-5" x="1.52" y="2.71" width="98.63" height="98.63"/>
    <rect class="cls-5" x="183.14" y="147.32" width="80.23" height="72"/>
    <polyline class="cls-6" points="478.76 253.37 478.76 243.07 556.72 243.07 556.72 293.48 556.72 293.48 556.72 296.43 555.62 296.48 555.5 318.82 478.82 318.82 478.82 260.66"/>
    <polyline class="cls-6" points="478.88 180.72 478.88 170.03 552.54 170.03 552.54 170.03 555.31 170.03 555.21 231.93 555.42 232.74 555.42 234.94 555.08 235.21 555.08 243.07 479.14 243.07 478.88 187.73"/>
    <polyline class="cls-6" points="478.75 121.19 478.82 97.66 548.17 97.54 548.17 97.54 555.12 97.54 555.12 97.54 555.13 100.89 555.58 170.4 555.3 171.13 551.9 171.13 478.76 171.13 478.76 127.82"/>
    <g>
      <path class="cls-3" d="M21.92,40.72h2.5a.21.21,0,0,1,.21.21v12a.25.25,0,0,1-.06.16.2.2,0,0,1-.15.06H21.91a.2.2,0,0,1-.15-.06.21.21,0,0,1-.07-.16V45.78c0-.05,0-.07,0-.07a.1.1,0,0,0-.07,0L20.07,48.2a.26.26,0,0,1-.25.15H18.56a.26.26,0,0,1-.25-.15l-1.54-2.46s0-.05-.07-.05,0,0,0,.07v7.13a.21.21,0,0,1-.22.22H13.94a.2.2,0,0,1-.15-.06.25.25,0,0,1-.06-.16v-12a.21.21,0,0,1,.21-.21h2.5a.25.25,0,0,1,.24.14l2.47,3.86c0,.07.07.07.1,0l2.43-3.86A.23.23,0,0,1,21.92,40.72Z" transform="translate(1.52 1.5)"/>
      <path class="cls-3" d="M34.56,52.93l-.46-1.58a.11.11,0,0,0-.09-.07H30a.11.11,0,0,0-.09.07l-.46,1.58a.24.24,0,0,1-.25.18H26.47a.21.21,0,0,1-.16-.06.21.21,0,0,1,0-.19l3.79-12a.21.21,0,0,1,.22-.17h3.35a.21.21,0,0,1,.23.17l3.81,12a.22.22,0,0,1,0,.09c0,.1-.06.16-.19.16H34.81A.24.24,0,0,1,34.56,52.93ZM30.67,49h2.64c.07,0,.09,0,.07-.11L32,44.36s0-.07-.05-.06a.1.1,0,0,0-.05.06L30.6,48.91C30.59,49,30.61,49,30.67,49Z" transform="translate(1.52 1.5)"/>
      <path class="cls-3" d="M48.47,40.78a.2.2,0,0,1,.06.15V43a.2.2,0,0,1-.06.15.18.18,0,0,1-.15.07h-3.1a.08.08,0,0,0-.09.09v9.55a.25.25,0,0,1-.06.16.2.2,0,0,1-.15.06H42.41a.2.2,0,0,1-.15-.06.21.21,0,0,1-.07-.16V43.34c0-.06,0-.09-.08-.09h-3a.18.18,0,0,1-.15-.07A.2.2,0,0,1,38.9,43v-2.1a.21.21,0,0,1,.21-.21h9.21A.2.2,0,0,1,48.47,40.78Z" transform="translate(1.52 1.5)"/>
      <path class="cls-3" d="M52.1,52.78a3.67,3.67,0,0,1-1.68-1.35,3.49,3.49,0,0,1-.6-2v-.34a.18.18,0,0,1,.07-.15.2.2,0,0,1,.15-.06H52.5a.21.21,0,0,1,.21.21v.21a1.25,1.25,0,0,0,.58,1,2.6,2.6,0,0,0,1.58.44A1.7,1.7,0,0,0,56,50.4a1,1,0,0,0,.37-.78.78.78,0,0,0-.22-.58,2,2,0,0,0-.59-.37c-.25-.1-.64-.24-1.15-.41a.65.65,0,0,0-.22-.08L54,48.12a13.36,13.36,0,0,1-2-.81,4.3,4.3,0,0,1-1.45-1.2A3,3,0,0,1,50,44.2a3.3,3.3,0,0,1,.58-1.92A3.62,3.62,0,0,1,52.14,41a5.75,5.75,0,0,1,2.32-.45,5.83,5.83,0,0,1,2.45.5,4,4,0,0,1,1.71,1.4,3.58,3.58,0,0,1,.62,2.07v.25A.21.21,0,0,1,59,45H56.57a.21.21,0,0,1-.21-.21v-.13a1.42,1.42,0,0,0-.55-1.09,2.17,2.17,0,0,0-1.47-.48,1.8,1.8,0,0,0-1.08.28.94.94,0,0,0-.39.8.86.86,0,0,0,.25.64,2.32,2.32,0,0,0,.77.48c.34.15.88.34,1.6.58s1.47.53,1.93.74a3.85,3.85,0,0,1,1.3,1,2.76,2.76,0,0,1,.61,1.88,3.4,3.4,0,0,1-.58,2,3.74,3.74,0,0,1-1.64,1.29,6.19,6.19,0,0,1-2.45.45A6.46,6.46,0,0,1,52.1,52.78Z" transform="translate(1.52 1.5)"/>
      <path class="cls-3" d="M69,52.93l-.46-1.58a.11.11,0,0,0-.09-.07h-4s-.06,0-.08.07l-.46,1.58a.24.24,0,0,1-.25.18H60.87a.21.21,0,0,1-.16-.06.2.2,0,0,1,0-.19l3.79-12a.22.22,0,0,1,.23-.17h3.35a.22.22,0,0,1,.23.17l3.8,12a.2.2,0,0,1,0,.09c0,.1-.07.16-.19.16H69.21A.23.23,0,0,1,69,52.93ZM65.06,49H67.7c.07,0,.1,0,.07-.11l-1.34-4.55s0-.07-.06-.06a.1.1,0,0,0-.05.06L65,48.91C65,49,65,49,65.06,49Z" transform="translate(1.52 1.5)"/>
      <path class="cls-3" d="M73.82,53.05a.25.25,0,0,1-.06-.16v-12a.21.21,0,0,1,.21-.21h2.51a.2.2,0,0,1,.15.06.21.21,0,0,1,.07.15v9.58c0,.05,0,.08.08.08h5.65a.18.18,0,0,1,.15.07.2.2,0,0,1,.06.15v2.08a.25.25,0,0,1-.06.16.2.2,0,0,1-.15.06H74A.2.2,0,0,1,73.82,53.05Z" transform="translate(1.52 1.5)"/>
    </g>
    <rect class="cls-5" x="183.45" y="101.9" width="79.61" height="45.88"/>
    <g>
      <path class="cls-3" d="M191.37,127.41a2.63,2.63,0,0,1-1.2-1,2.55,2.55,0,0,1-.42-1.45v-.24a.14.14,0,0,1,.15-.15h1.76a.12.12,0,0,1,.1,0,.16.16,0,0,1,.05.11v.15a.9.9,0,0,0,.42.73,1.8,1.8,0,0,0,1.12.31,1.18,1.18,0,0,0,.82-.24.73.73,0,0,0,.27-.56.54.54,0,0,0-.16-.41,1.31,1.31,0,0,0-.42-.26c-.18-.08-.45-.18-.82-.3l-.16-.06-.14,0a9.7,9.7,0,0,1-1.42-.58,3,3,0,0,1-1-.86,2.11,2.11,0,0,1-.43-1.36,2.36,2.36,0,0,1,.41-1.37,2.64,2.64,0,0,1,1.14-.9,4.2,4.2,0,0,1,1.66-.32,4.12,4.12,0,0,1,1.75.36,2.8,2.8,0,0,1,1.22,1,2.54,2.54,0,0,1,.45,1.48v.18a.16.16,0,0,1,0,.11.14.14,0,0,1-.11,0h-1.75a.14.14,0,0,1-.11,0,.16.16,0,0,1-.05-.11v-.09a1,1,0,0,0-.39-.78,1.53,1.53,0,0,0-1.05-.34,1.26,1.26,0,0,0-.77.2.67.67,0,0,0-.28.57.63.63,0,0,0,.18.46,1.63,1.63,0,0,0,.55.34c.25.11.63.24,1.14.41s1.05.38,1.38.53a2.74,2.74,0,0,1,.93.74,2,2,0,0,1,.44,1.35,2.41,2.41,0,0,1-.42,1.42,2.69,2.69,0,0,1-1.17.91,4.31,4.31,0,0,1-1.75.32A4.67,4.67,0,0,1,191.37,127.41Z" transform="translate(1.52 1.5)"/>
      <path class="cls-3" d="M200.93,122.74a.14.14,0,0,1-.11.05h-1.15a.05.05,0,0,0-.06.06v2.3c0,.48.19.72.58.72h.47a.16.16,0,0,1,.11,0,.13.13,0,0,1,0,.1v1.47a.16.16,0,0,1-.15.17l-.89,0a3,3,0,0,1-1.63-.35,1.5,1.5,0,0,1-.54-1.32v-3.16a.05.05,0,0,0-.06-.06h-.72a.14.14,0,0,1-.11-.05.14.14,0,0,1-.05-.1v-1.38a.16.16,0,0,1,.05-.11.14.14,0,0,1,.11,0h.72s.06,0,.06-.07v-1.53a.12.12,0,0,1,0-.1.16.16,0,0,1,.11,0h1.71a.16.16,0,0,1,.11,0,.12.12,0,0,1,0,.1V121s0,.07.06.07h1.15a.14.14,0,0,1,.11,0,.16.16,0,0,1,0,.11v1.38A.14.14,0,0,1,200.93,122.74Z" transform="translate(1.52 1.5)"/>
      <path class="cls-3" d="M205.56,121.15a.15.15,0,0,1,.11,0h1.79a.14.14,0,0,1,.15.15v6.23a.14.14,0,0,1-.15.15h-1.79a.14.14,0,0,1-.15-.15v-.44a0,0,0,0,0,0,0s0,0-.05,0a1.81,1.81,0,0,1-1.59.72,2.11,2.11,0,0,1-1.56-.6,2.32,2.32,0,0,1-.59-1.7v-4.18a.14.14,0,0,1,.15-.15h1.79a.14.14,0,0,1,.11,0,.16.16,0,0,1,.05.11V125a1.06,1.06,0,0,0,.22.71.78.78,0,0,0,.62.27.86.86,0,0,0,.59-.22.92.92,0,0,0,.29-.57v-3.89A.15.15,0,0,1,205.56,121.15Z" transform="translate(1.52 1.5)"/>
      <path class="cls-3" d="M212.67,118.84a.14.14,0,0,1,.1,0h1.8a.16.16,0,0,1,.11,0,.13.13,0,0,1,0,.1v8.55a.14.14,0,0,1-.15.15h-1.8a.13.13,0,0,1-.1,0,.16.16,0,0,1,0-.11v-.42s0,0,0,0,0,0,0,0a1.71,1.71,0,0,1-1.46.69,2.42,2.42,0,0,1-1.52-.51,2.79,2.79,0,0,1-.94-1.42,5,5,0,0,1-.21-1.47,4.42,4.42,0,0,1,.27-1.59,2.68,2.68,0,0,1,.93-1.26,2.49,2.49,0,0,1,1.55-.48,1.66,1.66,0,0,1,1.38.59,0,0,0,0,0,0,0s0,0,0-.05v-2.63A.14.14,0,0,1,212.67,118.84Zm0,5.54a2.25,2.25,0,0,0-.24-1.14.87.87,0,0,0-1.52,0,2.27,2.27,0,0,0-.25,1.12,2.29,2.29,0,0,0,.23,1.09.88.88,0,0,0,1.57,0A2.36,2.36,0,0,0,212.62,124.38Z" transform="translate(1.52 1.5)"/>
      <path class="cls-3" d="M221.81,124.8a.14.14,0,0,1-.16.15h-3.86l0,0s0,0,0,0a1.66,1.66,0,0,0,.13.37,1.1,1.1,0,0,0,.45.43,1.54,1.54,0,0,0,.75.16,1.58,1.58,0,0,0,1.25-.51.13.13,0,0,1,.11-.07.11.11,0,0,1,.1,0l1,1.12a.11.11,0,0,1,.05.1.19.19,0,0,1-.05.1,2.91,2.91,0,0,1-1.1.73,3.82,3.82,0,0,1-1.42.25,3.54,3.54,0,0,1-1.95-.5,2.78,2.78,0,0,1-1.16-1.39,4,4,0,0,1-.26-1.58,3.88,3.88,0,0,1,.2-1.27,2.92,2.92,0,0,1,2.87-2,3.07,3.07,0,0,1,1.49.36,3,3,0,0,1,1.07,1,3.89,3.89,0,0,1,.54,1.45A5.09,5.09,0,0,1,221.81,124.8Zm-4-1.38a.9.9,0,0,0-.07.27s0,.06,0,.06h1.8a0,0,0,0,0,0,0,1.05,1.05,0,0,0,0-.26.87.87,0,0,0-.32-.48,1,1,0,0,0-.59-.16A.84.84,0,0,0,217.81,123.42Z" transform="translate(1.52 1.5)"/>
      <path class="cls-3" d="M227.87,121.63a2.29,2.29,0,0,1,.63,1.7v4.16a.14.14,0,0,1-.15.15h-1.79a.14.14,0,0,1-.11,0,.16.16,0,0,1,0-.11v-3.7a1,1,0,0,0-.24-.71.76.76,0,0,0-.62-.28.8.8,0,0,0-.63.27,1,1,0,0,0-.24.72v3.7a.14.14,0,0,1-.15.15h-1.8a.13.13,0,0,1-.1,0,.16.16,0,0,1-.05-.11v-6.23a.16.16,0,0,1,.05-.11.13.13,0,0,1,.1,0h1.8a.14.14,0,0,1,.15.15v.47s0,0,0,0,0,0,.05,0a1.65,1.65,0,0,1,1.51-.74A2.19,2.19,0,0,1,227.87,121.63Z" transform="translate(1.52 1.5)"/>
      <path class="cls-3" d="M233.42,122.74a.16.16,0,0,1-.11.05h-1.15s-.07,0-.07.06v2.3c0,.48.2.72.59.72h.46a.14.14,0,0,1,.11,0,.14.14,0,0,1,.05.1v1.47a.17.17,0,0,1-.16.17l-.88,0a2.92,2.92,0,0,1-1.63-.35,1.48,1.48,0,0,1-.55-1.32v-3.16a.05.05,0,0,0-.06-.06h-.72a.16.16,0,0,1-.11-.05.13.13,0,0,1,0-.1v-1.38a.14.14,0,0,1,.15-.15H230s.06,0,.06-.07v-1.53a.12.12,0,0,1,0-.1.14.14,0,0,1,.11,0h1.7a.16.16,0,0,1,.11,0,.12.12,0,0,1,0,.1V121a.06.06,0,0,0,.07.07h1.15a.15.15,0,0,1,.11,0,.21.21,0,0,1,0,.11v1.38A.18.18,0,0,1,233.42,122.74Z" transform="translate(1.52 1.5)"/>
      <path class="cls-3" d="M234.26,127.6a.15.15,0,0,1,0-.11v-8.55a.13.13,0,0,1,0-.1.16.16,0,0,1,.11,0h1.8a.18.18,0,0,1,.15.15v3.94s0,0,0,0a0,0,0,0,0,0,0l1.38-1.71a.27.27,0,0,1,.19-.08H240c.09,0,.13,0,.13.08a.21.21,0,0,1,0,.11l-1.66,2.13a.14.14,0,0,0,0,.09l1.89,4a.11.11,0,0,1,0,.07c0,.07,0,.1-.14.1h-1.87a.18.18,0,0,1-.17-.11L237,124.84a.1.1,0,0,0-.05,0l0,0-.6.85a.31.31,0,0,0,0,.08v1.74a.16.16,0,0,1,0,.11.13.13,0,0,1-.1,0h-1.8A.15.15,0,0,1,234.26,127.6Z" transform="translate(1.52 1.5)"/>
      <path class="cls-3" d="M242.07,127.14a3,3,0,0,1-1.06-1.65,4,4,0,0,1-.15-1.13,4.12,4.12,0,0,1,.16-1.23,2.8,2.8,0,0,1,1.08-1.56A3.2,3.2,0,0,1,244,121a3.06,3.06,0,0,1,1.88.56,2.91,2.91,0,0,1,1.08,1.55,4.31,4.31,0,0,1,.17,1.21,4,4,0,0,1-.14,1.11,2.92,2.92,0,0,1-1.06,1.68,3,3,0,0,1-1.94.62A3.13,3.13,0,0,1,242.07,127.14Zm-.21-7a1.09,1.09,0,0,1-.31-.79,1.1,1.1,0,1,1,2.19,0,1.06,1.06,0,0,1-1.09,1.1A1.06,1.06,0,0,1,241.86,120.11Zm2.75,5.61a1.47,1.47,0,0,0,.36-.64,3.26,3.26,0,0,0,.07-.72,3,3,0,0,0-.09-.74,1.18,1.18,0,0,0-.34-.61.88.88,0,0,0-.6-.21,1,1,0,0,0-1,.82,3.15,3.15,0,0,0-.07.74,3.26,3.26,0,0,0,.07.72,1.37,1.37,0,0,0,.35.64.9.9,0,0,0,.62.23A.85.85,0,0,0,244.61,125.72Zm-.09-5.61a1,1,0,0,1-.31-.79,1,1,0,0,1,.31-.79,1,1,0,0,1,.79-.31,1,1,0,0,1,.78.31,1.07,1.07,0,0,1,.31.79,1.09,1.09,0,0,1-.31.79,1.15,1.15,0,0,1-1.57,0Z" transform="translate(1.52 1.5)"/>
      <path class="cls-3" d="M248,127.6a.16.16,0,0,1-.05-.11v-8.55a.18.18,0,0,1,.15-.15h1.8a.16.16,0,0,1,.11,0,.13.13,0,0,1,0,.1v3.94s0,0,0,0,0,0,.05,0l1.38-1.71a.26.26,0,0,1,.19-.08h2.06c.08,0,.12,0,.12.08a.21.21,0,0,1,0,.11l-1.65,2.13a.07.07,0,0,0,0,.09l1.88,4a.13.13,0,0,1,0,.07c0,.07-.05.1-.14.1h-1.87a.18.18,0,0,1-.18-.11l-1.15-2.69a.08.08,0,0,0,0,0,.06.06,0,0,0-.05,0l-.59.85a.16.16,0,0,0,0,.08v1.74a.14.14,0,0,1-.15.15h-1.8A.13.13,0,0,1,248,127.6Z" transform="translate(1.52 1.5)"/>
    </g>
    <rect class="cls-7" x="108.08" y="75.56" width="107.56" height="21.15"/>
    <g>
      <path class="cls-3" d="M127.21,81.43a.18.18,0,0,1-.1,0h-3.76a.05.05,0,0,0-.06.06V83a.05.05,0,0,0,.06.06h2.42a.14.14,0,0,1,.1,0,.12.12,0,0,1,0,.1v1.4a.12.12,0,0,1,0,.1.14.14,0,0,1-.1.05h-2.42a.05.05,0,0,0-.06.06V88a.14.14,0,0,1-.14.14h-1.7a.15.15,0,0,1-.11,0,.18.18,0,0,1,0-.1V79.91a.15.15,0,0,1,0-.1.16.16,0,0,1,.11,0h5.66a.14.14,0,0,1,.1,0,.12.12,0,0,1,0,.1v1.41A.15.15,0,0,1,127.21,81.43Z" transform="translate(1.52 1.5)"/>
      <path class="cls-3" d="M128.18,81.11a1.11,1.11,0,0,1,0-1.5,1.05,1.05,0,0,1,.75-.29,1,1,0,0,1,.75.29,1,1,0,0,1,.3.75,1,1,0,0,1-.3.75,1,1,0,0,1-.75.3A1,1,0,0,1,128.18,81.11Zm-.21,7a.13.13,0,0,1,0-.1V82.1a.14.14,0,0,1,.14-.14h1.7a.15.15,0,0,1,.11,0,.18.18,0,0,1,0,.1V88a.18.18,0,0,1,0,.1.15.15,0,0,1-.11,0h-1.7A.13.13,0,0,1,128,88.12Z" transform="translate(1.52 1.5)"/>
      <path class="cls-3" d="M131,88.12a.13.13,0,0,1,0-.1V79.91a.12.12,0,0,1,0-.1.14.14,0,0,1,.1,0h1.71a.14.14,0,0,1,.1,0,.12.12,0,0,1,0,.1v3.73s0,0,0,0a0,0,0,0,0,0,0L134.32,82a.25.25,0,0,1,.18-.08h2c.08,0,.12,0,.12.08a.16.16,0,0,1,0,.1l-1.57,2a.06.06,0,0,0,0,.08L136.76,88a.25.25,0,0,1,0,.07c0,.06,0,.09-.13.09h-1.78a.15.15,0,0,1-.16-.11l-1.1-2.55s0,0,0,0,0,0,0,0l-.56.8a.17.17,0,0,0,0,.07V88a.14.14,0,0,1-.14.14h-1.71A.13.13,0,0,1,131,88.12Z" transform="translate(1.52 1.5)"/>
      <path class="cls-3" d="M141.22,82.13a2.47,2.47,0,0,1,1,.75,1.62,1.62,0,0,1,.37,1.05V88a.14.14,0,0,1-.14.14h-1.7a.15.15,0,0,1-.11,0,.18.18,0,0,1,0-.1V87.6s0,0,0,0,0,0,0,0a1.73,1.73,0,0,1-1.56.67,2.4,2.4,0,0,1-1.53-.45,1.59,1.59,0,0,1-.57-1.33,1.72,1.72,0,0,1,.64-1.43,3,3,0,0,1,1.87-.5h1.16a.05.05,0,0,0,.06-.06v-.23a.66.66,0,0,0-.21-.51.93.93,0,0,0-.6-.18,1,1,0,0,0-.5.11A.51.51,0,0,0,139,84c0,.09-.1.13-.17.12l-1.73-.23c-.09,0-.14,0-.14-.1a1.69,1.69,0,0,1,.41-1,2.48,2.48,0,0,1,1-.67,3.75,3.75,0,0,1,1.37-.25A3.71,3.71,0,0,1,141.22,82.13Zm-.89,4.47a.77.77,0,0,0,.29-.62v-.29a.05.05,0,0,0-.06-.06h-.72a1.25,1.25,0,0,0-.7.16.53.53,0,0,0-.25.47.54.54,0,0,0,.18.42.78.78,0,0,0,.51.15A1.22,1.22,0,0,0,140.33,86.6Z" transform="translate(1.52 1.5)"/>
      <path class="cls-3" d="M143.44,85.49a.12.12,0,0,1-.05-.1V84a.14.14,0,0,1,.05-.11.15.15,0,0,1,.1,0h4.08a.18.18,0,0,1,.1,0,.14.14,0,0,1,0,.11v1.41a.12.12,0,0,1,0,.1.14.14,0,0,1-.1.05h-4.08A.12.12,0,0,1,143.44,85.49Z" transform="translate(1.52 1.5)"/>
      <path class="cls-3" d="M152.61,82.13a2.47,2.47,0,0,1,1,.75,1.62,1.62,0,0,1,.37,1.05V88a.14.14,0,0,1-.14.14h-1.71A.14.14,0,0,1,152,88V87.6s0,0,0,0,0,0-.05,0a1.76,1.76,0,0,1-1.56.67,2.4,2.4,0,0,1-1.53-.45,1.59,1.59,0,0,1-.57-1.33,1.72,1.72,0,0,1,.64-1.43,3,3,0,0,1,1.87-.5H152a.05.05,0,0,0,.06-.06v-.23a.64.64,0,0,0-.22-.51.9.9,0,0,0-.6-.18,1,1,0,0,0-.49.11.51.51,0,0,0-.27.27c0,.09-.1.13-.17.12l-1.73-.23c-.1,0-.14,0-.14-.1a1.69,1.69,0,0,1,.41-1,2.44,2.44,0,0,1,1-.67,3.81,3.81,0,0,1,1.38-.25A3.75,3.75,0,0,1,152.61,82.13Zm-.89,4.47A.77.77,0,0,0,152,86v-.29a.05.05,0,0,0-.06-.06h-.72a1.25,1.25,0,0,0-.7.16.51.51,0,0,0-.25.47.54.54,0,0,0,.18.42.78.78,0,0,0,.51.15A1.22,1.22,0,0,0,151.72,86.6Z" transform="translate(1.52 1.5)"/>
      <path class="cls-3" d="M156.39,88l-1.88-5.92a.14.14,0,0,1,0-.06c0-.08,0-.11.14-.11h1.87a.16.16,0,0,1,.17.12l.79,3.3s0,0,0,0,0,0,0,0l.8-3.3a.16.16,0,0,1,.17-.12l1.86,0a.16.16,0,0,1,.11,0,.14.14,0,0,1,0,.13L158.61,88a.15.15,0,0,1-.16.12h-1.9A.15.15,0,0,1,156.39,88Z" transform="translate(1.52 1.5)"/>
      <path class="cls-3" d="M164.64,79.81a.14.14,0,0,1,.1,0h1.71a.14.14,0,0,1,.1,0,.12.12,0,0,1,0,.1V88a.14.14,0,0,1-.14.14h-1.71a.14.14,0,0,1-.14-.14v-.4s0,0,0,0a0,0,0,0,0,0,0,1.6,1.6,0,0,1-1.38.66,2.27,2.27,0,0,1-1.45-.49,2.62,2.62,0,0,1-.89-1.35,4.76,4.76,0,0,1-.2-1.39,4.23,4.23,0,0,1,.26-1.51,2.49,2.49,0,0,1,.88-1.2,2.39,2.39,0,0,1,1.47-.46,1.57,1.57,0,0,1,1.31.57s0,0,0,0a0,0,0,0,0,0,0V79.91A.12.12,0,0,1,164.64,79.81Zm0,5.26a2.12,2.12,0,0,0-.23-1.08.78.78,0,0,0-.71-.42.77.77,0,0,0-.73.43,2.09,2.09,0,0,0-.24,1.07,2.07,2.07,0,0,0,.22,1,.8.8,0,0,0,.75.45.78.78,0,0,0,.73-.46A2.15,2.15,0,0,0,164.6,85.07Z" transform="translate(1.52 1.5)"/>
      <path class="cls-3" d="M173.42,85.46a.14.14,0,0,1-.16.15H169.6a.06.06,0,0,0,0,0s0,0,0,0a2,2,0,0,0,.12.34,1.06,1.06,0,0,0,.43.41,1.43,1.43,0,0,0,.71.16,1.49,1.49,0,0,0,1.19-.49.14.14,0,0,1,.11-.06.09.09,0,0,1,.09,0l.93,1a.12.12,0,0,1,0,.19,2.7,2.7,0,0,1-1,.7,3.68,3.68,0,0,1-1.35.24,3.46,3.46,0,0,1-1.85-.47,2.67,2.67,0,0,1-1.1-1.33,3.85,3.85,0,0,1-.25-1.5,3.68,3.68,0,0,1,.19-1.2,2.75,2.75,0,0,1,2.72-1.91,3,3,0,0,1,1.42.34,2.87,2.87,0,0,1,1,1,3.54,3.54,0,0,1,.51,1.37A5.34,5.34,0,0,1,173.42,85.46Zm-3.81-1.3a1.14,1.14,0,0,0-.06.25s0,.06,0,.06h1.71s0,0,0,0a.94.94,0,0,0-.35-.7,1,1,0,0,0-.56-.15A.81.81,0,0,0,169.61,84.16Z" transform="translate(1.52 1.5)"/>
      <path class="cls-3" d="M174.28,88.12a.14.14,0,0,1-.05-.1V79.91a.18.18,0,0,1,.15-.15h1.7a.18.18,0,0,1,.15.15V88a.14.14,0,0,1,0,.1.12.12,0,0,1-.1,0h-1.7A.12.12,0,0,1,174.28,88.12Z" transform="translate(1.52 1.5)"/>
      <path class="cls-3" d="M182.25,82.46a2.15,2.15,0,0,1,.6,1.61v4a.14.14,0,0,1-.14.14H181a.14.14,0,0,1-.14-.14V84.5a1,1,0,0,0-.23-.67.76.76,0,0,0-.59-.26.73.73,0,0,0-.6.26,1,1,0,0,0-.23.67V88a.14.14,0,0,1-.14.14h-1.7a.15.15,0,0,1-.11,0,.18.18,0,0,1,0-.1V82.1a.18.18,0,0,1,0-.1.15.15,0,0,1,.11,0h1.7a.14.14,0,0,1,.14.14v.45s0,0,0,0,0,0,0,0a1.61,1.61,0,0,1,1.44-.71A2.08,2.08,0,0,1,182.25,82.46Z" transform="translate(1.52 1.5)"/>
      <path class="cls-3" d="M184.1,81.11a1.11,1.11,0,0,1,0-1.5,1.05,1.05,0,0,1,.75-.29,1,1,0,0,1,.75.29,1,1,0,0,1,.3.75,1,1,0,0,1-.3.75,1,1,0,0,1-.75.3A1,1,0,0,1,184.1,81.11Zm-.21,7a.13.13,0,0,1,0-.1V82.1A.14.14,0,0,1,184,82h1.7a.15.15,0,0,1,.11,0,.18.18,0,0,1,0,.1V88a.18.18,0,0,1,0,.1.15.15,0,0,1-.11,0H184A.13.13,0,0,1,183.89,88.12Z" transform="translate(1.52 1.5)"/>
      <path class="cls-3" d="M191.9,82.46a2.15,2.15,0,0,1,.6,1.61v4a.18.18,0,0,1,0,.1.15.15,0,0,1-.11,0h-1.7a.14.14,0,0,1-.14-.14V84.5a1,1,0,0,0-.23-.67.76.76,0,0,0-.59-.26.73.73,0,0,0-.6.26,1,1,0,0,0-.23.67V88a.14.14,0,0,1-.14.14H187a.14.14,0,0,1-.14-.14V82.1A.14.14,0,0,1,187,82h1.71a.14.14,0,0,1,.14.14v.45s0,0,0,0,0,0,0,0a1.61,1.61,0,0,1,1.44-.71A2.08,2.08,0,0,1,191.9,82.46Z" transform="translate(1.52 1.5)"/>
      <path class="cls-3" d="M197.28,82a.13.13,0,0,1,.1,0h1.71a.14.14,0,0,1,.14.14v5.37a2.75,2.75,0,0,1-.95,2.35,3.91,3.91,0,0,1-2.4.71,6.6,6.6,0,0,1-1.14-.1.13.13,0,0,1-.12-.15l.06-1.49a.14.14,0,0,1,0-.12.13.13,0,0,1,.12,0,4.41,4.41,0,0,0,.91.11,1.67,1.67,0,0,0,1.08-.32,1.14,1.14,0,0,0,.4-1l-.09.08a1.66,1.66,0,0,1-1.24.44,3.12,3.12,0,0,1-1.46-.35,2,2,0,0,1-.94-1.23,4.39,4.39,0,0,1-.2-1.41,4.24,4.24,0,0,1,.23-1.51,2.54,2.54,0,0,1,.88-1.19,2.33,2.33,0,0,1,1.41-.45,1.72,1.72,0,0,1,1.34.53,0,0,0,0,0,0,0s0,0,0,0V82.1A.13.13,0,0,1,197.28,82Zm0,3a3.3,3.3,0,0,0,0-.51,1.06,1.06,0,0,0-.09-.36.92.92,0,0,0-.31-.41.85.85,0,0,0-.51-.15.83.83,0,0,0-.8.56,1.9,1.9,0,0,0-.18.89,1.86,1.86,0,0,0,.15.86,1,1,0,0,0,.33.41.8.8,0,0,0,.51.16.81.81,0,0,0,.82-.55A2.78,2.78,0,0,0,197.24,85Z" transform="translate(1.52 1.5)"/>
    </g>
    <rect class="cls-8" x="492.53" y="60.19" width="58" height="33.45"/>
    <g>
      <path class="cls-3" d="M498,71.52a2.6,2.6,0,0,1-1.14-.91,2.4,2.4,0,0,1-.4-1.38V69a.15.15,0,0,1,0-.11.18.18,0,0,1,.1,0h1.67a.18.18,0,0,1,.1,0,.15.15,0,0,1,0,.11v.14a.85.85,0,0,0,.4.69,1.72,1.72,0,0,0,1.07.29,1.15,1.15,0,0,0,.78-.22.74.74,0,0,0,.25-.53.53.53,0,0,0-.15-.39,1.14,1.14,0,0,0-.4-.25c-.17-.07-.43-.17-.78-.29l-.15,0-.13,0a9.36,9.36,0,0,1-1.36-.55,2.94,2.94,0,0,1-1-.81,2.05,2.05,0,0,1-.41-1.29,2.25,2.25,0,0,1,.39-1.31,2.47,2.47,0,0,1,1.09-.85,3.92,3.92,0,0,1,1.57-.3,4,4,0,0,1,1.66.33,2.8,2.8,0,0,1,1.16,1,2.43,2.43,0,0,1,.42,1.4v.17a.15.15,0,0,1,0,.1.14.14,0,0,1-.1,0H501a.18.18,0,0,1-.15-.15V66a1,1,0,0,0-.37-.75,1.49,1.49,0,0,0-1-.32,1.23,1.23,0,0,0-.74.19.65.65,0,0,0-.26.54.58.58,0,0,0,.17.44,1.45,1.45,0,0,0,.52.32c.24.1.6.23,1.09.39s1,.36,1.3.51a2.6,2.6,0,0,1,.89.7,1.93,1.93,0,0,1,.41,1.28,2.22,2.22,0,0,1-.4,1.34,2.44,2.44,0,0,1-1.11.87,4.06,4.06,0,0,1-1.66.31A4.38,4.38,0,0,1,498,71.52Z" transform="translate(1.52 1.5)"/>
      <path class="cls-3" d="M507.54,67.09a.12.12,0,0,1-.1,0h-1.09a.05.05,0,0,0-.06.06v2.19c0,.45.18.68.55.68h.45a.18.18,0,0,1,.1,0,.15.15,0,0,1,0,.11V71.6a.14.14,0,0,1-.14.15l-.84,0a2.86,2.86,0,0,1-1.55-.33,1.42,1.42,0,0,1-.52-1.26v-3a.05.05,0,0,0-.06-.06h-.68a.12.12,0,0,1-.1,0,.14.14,0,0,1-.05-.1V65.68a.14.14,0,0,1,.05-.1.12.12,0,0,1,.1,0h.68a.05.05,0,0,0,.06-.06V64a.14.14,0,0,1,.15-.15h1.62a.18.18,0,0,1,.1,0,.15.15,0,0,1,0,.11v1.45a.05.05,0,0,0,.06.06h1.09a.12.12,0,0,1,.1,0,.14.14,0,0,1,0,.1V67A.14.14,0,0,1,507.54,67.09Z" transform="translate(1.52 1.5)"/>
      <path class="cls-3" d="M512,65.58a.13.13,0,0,1,.1,0h1.71a.14.14,0,0,1,.1,0,.13.13,0,0,1,0,.1V71.6a.13.13,0,0,1,0,.1.14.14,0,0,1-.1,0h-1.71a.14.14,0,0,1-.14-.14v-.42a0,0,0,0,0,0-.05s0,0-.05,0a1.7,1.7,0,0,1-1.51.69,1.94,1.94,0,0,1-1.47-.58,2.18,2.18,0,0,1-.57-1.61v-4a.18.18,0,0,1,0-.1.15.15,0,0,1,.11,0h1.7a.14.14,0,0,1,.14.14V69.2a1,1,0,0,0,.22.67.74.74,0,0,0,.59.25.83.83,0,0,0,.56-.2,1,1,0,0,0,.27-.54v-3.7A.13.13,0,0,1,512,65.58Z" transform="translate(1.52 1.5)"/>
      <path class="cls-3" d="M518.86,63.38a.18.18,0,0,1,.1,0h1.71a.18.18,0,0,1,.1,0,.15.15,0,0,1,0,.11V71.6a.14.14,0,0,1-.14.14H519a.14.14,0,0,1-.14-.14v-.4s0,0,0,0a0,0,0,0,0,0,0,1.6,1.6,0,0,1-1.38.66,2.33,2.33,0,0,1-1.45-.49A2.62,2.62,0,0,1,515,70a4.76,4.76,0,0,1-.2-1.39,4.23,4.23,0,0,1,.26-1.51,2.49,2.49,0,0,1,.88-1.2,2.32,2.32,0,0,1,1.47-.46,1.57,1.57,0,0,1,1.31.57s0,0,0,0a0,0,0,0,0,0,0V63.49A.15.15,0,0,1,518.86,63.38Zm0,5.27a2.12,2.12,0,0,0-.23-1.08.78.78,0,0,0-.71-.42.77.77,0,0,0-.73.43,2.51,2.51,0,0,0,0,2.1.8.8,0,0,0,.75.45.78.78,0,0,0,.73-.46A2.15,2.15,0,0,0,518.82,68.65Z" transform="translate(1.52 1.5)"/>
      <path class="cls-3" d="M527.64,69a.14.14,0,0,1-.16.15h-3.71s0,0,0,0a2.39,2.39,0,0,0,.12.34,1.06,1.06,0,0,0,.43.41,1.43,1.43,0,0,0,.71.16,1.52,1.52,0,0,0,1.19-.49.14.14,0,0,1,.11-.06.1.1,0,0,1,.09,0l.93,1.06a.12.12,0,0,1,0,.1.14.14,0,0,1,0,.09,2.7,2.7,0,0,1-1,.7,3.68,3.68,0,0,1-1.35.24,3.37,3.37,0,0,1-1.85-.48A2.6,2.6,0,0,1,522,70a3.85,3.85,0,0,1-.25-1.5,3.68,3.68,0,0,1,.19-1.2,2.75,2.75,0,0,1,2.72-1.91,2.77,2.77,0,0,1,2.43,1.29,3.48,3.48,0,0,1,.51,1.37A5.29,5.29,0,0,1,527.64,69Zm-3.81-1.31a1.38,1.38,0,0,0-.06.26s0,.06.05.06h1.71s0,0,0,0a.75.75,0,0,0,0-.24.84.84,0,0,0-.31-.46,1,1,0,0,0-.56-.15A.81.81,0,0,0,523.83,67.73Z" transform="translate(1.52 1.5)"/>
      <path class="cls-3" d="M533.48,66a2.15,2.15,0,0,1,.6,1.61V71.6a.14.14,0,0,1-.14.14h-1.71a.14.14,0,0,1-.14-.14V68.08a1,1,0,0,0-.23-.67.73.73,0,0,0-.59-.26.79.79,0,0,0-.6.25,1,1,0,0,0-.22.68V71.6a.14.14,0,0,1-.05.1.12.12,0,0,1-.1,0h-1.7a.12.12,0,0,1-.1,0,.14.14,0,0,1,0-.1V65.68a.14.14,0,0,1,0-.1.12.12,0,0,1,.1,0h1.7a.12.12,0,0,1,.1,0,.14.14,0,0,1,.05.1v.45s0,.05,0,.05,0,0,0,0a1.61,1.61,0,0,1,1.45-.71A2.07,2.07,0,0,1,533.48,66Z" transform="translate(1.52 1.5)"/>
      <path class="cls-3" d="M538.84,67.09a.13.13,0,0,1-.1,0h-1.1s0,0,0,.06v2.19c0,.45.18.68.55.68h.44a.18.18,0,0,1,.1,0,.15.15,0,0,1,0,.11V71.6a.13.13,0,0,1-.14.15l-.84,0a2.88,2.88,0,0,1-1.55-.33,1.41,1.41,0,0,1-.51-1.26v-3a.05.05,0,0,0-.06-.06h-.69a.14.14,0,0,1-.14-.14V65.68a.14.14,0,0,1,.14-.14h.69a.05.05,0,0,0,.06-.06V64a.15.15,0,0,1,0-.11.18.18,0,0,1,.1,0h1.62a.18.18,0,0,1,.1,0,.16.16,0,0,1,.05.11v1.45s0,.06,0,.06h1.1a.14.14,0,0,1,.14.14V67A.13.13,0,0,1,538.84,67.09Z" transform="translate(1.52 1.5)"/>
      <path class="cls-3" d="M539.47,69.07a.18.18,0,0,1,0-.1V67.55a.18.18,0,0,1,0-.1.15.15,0,0,1,.11,0h4.08a.14.14,0,0,1,.14.14V69a.14.14,0,0,1-.14.14h-4.08A.15.15,0,0,1,539.47,69.07Z" transform="translate(1.52 1.5)"/>
      <path class="cls-3" d="M502.35,83.44a.14.14,0,0,1-.15.15h-3.71s0,0,0,.05a1.16,1.16,0,0,0,.12.34,1,1,0,0,0,.43.41,1.41,1.41,0,0,0,.71.16,1.54,1.54,0,0,0,1.19-.49A.12.12,0,0,1,501,84a.12.12,0,0,1,.1,0l.92,1.06a.11.11,0,0,1,.05.1.11.11,0,0,1-.05.09,2.66,2.66,0,0,1-1,.7,3.76,3.76,0,0,1-1.35.24,3.43,3.43,0,0,1-1.86-.48,2.65,2.65,0,0,1-1.1-1.32,4,4,0,0,1-.25-1.5,4,4,0,0,1,.19-1.2,2.82,2.82,0,0,1,1-1.4,3.09,3.09,0,0,1,3.11-.17,2.82,2.82,0,0,1,1,1,3.48,3.48,0,0,1,.51,1.37A4.6,4.6,0,0,1,502.35,83.44Zm-3.8-1.3a1.14,1.14,0,0,0-.06.25s0,.06.05.06h1.7a0,0,0,0,0,.05,0,.93.93,0,0,0-.05-.24.83.83,0,0,0-.3-.46,1,1,0,0,0-.56-.15A.8.8,0,0,0,498.55,82.14Z" transform="translate(1.52 1.5)"/>
      <path class="cls-3" d="M502.57,86.09a.13.13,0,0,1,0-.13l1.92-2.89a0,0,0,0,0,0-.07l-1.92-2.88a.2.2,0,0,1,0-.09c0-.06,0-.09.11-.09h1.83a.19.19,0,0,1,.17.09l.91,1.43s0,0,.05,0,0,0,0,0l.91-1.43a.2.2,0,0,1,.17-.09h1.95c.06,0,.1,0,.11,0a.13.13,0,0,1,0,.13L506.88,83a.09.09,0,0,0,0,.07L508.8,86a.24.24,0,0,1,0,.09c0,.06,0,.09-.11.09h-1.83a.2.2,0,0,1-.17-.09l-.91-1.43s0,0,0,0l-.05,0-.91,1.43a.19.19,0,0,1-.17.09h-1.95C502.62,86.14,502.59,86.13,502.57,86.09Z" transform="translate(1.52 1.5)"/>
      <path class="cls-3" d="M515.58,83.06a4.38,4.38,0,0,1-.25,1.51,2.65,2.65,0,0,1-.89,1.21,2.32,2.32,0,0,1-1.47.46,1.56,1.56,0,0,1-1.3-.56s0,0-.05,0a.05.05,0,0,0,0,0v2.49a.15.15,0,0,1,0,.11.18.18,0,0,1-.1,0h-1.7a.21.21,0,0,1-.11,0,.15.15,0,0,1,0-.11V80.08a.13.13,0,0,1,0-.1.15.15,0,0,1,.11,0h1.7a.14.14,0,0,1,.14.14v.4s0,0,0,0a.06.06,0,0,0,.05,0,1.58,1.58,0,0,1,1.37-.66,2.28,2.28,0,0,1,1.44.49,2.63,2.63,0,0,1,.9,1.34A4.76,4.76,0,0,1,515.58,83.06Zm-2.08,0a2.09,2.09,0,0,0-.21-1,.82.82,0,0,0-.76-.45.79.79,0,0,0-.73.45,2.25,2.25,0,0,0-.21,1,2.22,2.22,0,0,0,.23,1.08.78.78,0,0,0,.71.42.77.77,0,0,0,.73-.43A2.11,2.11,0,0,0,513.5,83Z" transform="translate(1.52 1.5)"/>
      <path class="cls-3" d="M517.44,85.66a2.71,2.71,0,0,1-1-1.56,3.67,3.67,0,0,1-.14-1.08,4,4,0,0,1,.15-1.16,2.69,2.69,0,0,1,1-1.48,3,3,0,0,1,1.82-.54,2.9,2.9,0,0,1,1.78.54,2.7,2.7,0,0,1,1,1.47,3.6,3.6,0,0,1,.17,1.15,4,4,0,0,1-.13,1,2.78,2.78,0,0,1-1,1.6,2.93,2.93,0,0,1-1.85.59A2.88,2.88,0,0,1,517.44,85.66Zm2.41-1.35a1.29,1.29,0,0,0,.33-.6,3,3,0,0,0,.08-.69,2.61,2.61,0,0,0-.09-.69,1.13,1.13,0,0,0-.32-.58.82.82,0,0,0-.58-.2.9.9,0,0,0-.91.78,2.77,2.77,0,0,0-.07.69,3,3,0,0,0,.07.69,1.21,1.21,0,0,0,.33.6.81.81,0,0,0,.58.22A.79.79,0,0,0,519.85,84.31Z" transform="translate(1.52 1.5)"/>
    </g>
    <g>
      <path class="cls-3" d="M210.32,251.69a.2.2,0,0,1,.06.15V254a.21.21,0,0,1-.21.21h-3.1a.08.08,0,0,0-.09.09v9.56a.21.21,0,0,1-.21.21h-2.51a.2.2,0,0,1-.15-.06.18.18,0,0,1-.07-.15v-9.56c0-.06,0-.09-.08-.09h-3a.21.21,0,0,1-.21-.21v-2.11a.21.21,0,0,1,.21-.21h9.21A.2.2,0,0,1,210.32,251.69Z" transform="translate(1.52 1.5)"/>
      <path class="cls-3" d="M219.42,252.12a3.48,3.48,0,0,1,1.43,1.39,4.13,4.13,0,0,1,.51,2.07,3.91,3.91,0,0,1-.53,2,3.4,3.4,0,0,1-1.47,1.36,4.9,4.9,0,0,1-2.22.48H215c-.06,0-.08,0-.08.09v4.27a.21.21,0,0,1-.07.15.2.2,0,0,1-.15.06h-2.51a.21.21,0,0,1-.21-.21v-12a.21.21,0,0,1,.21-.21h5.11A4.47,4.47,0,0,1,219.42,252.12ZM218,256.71a1.34,1.34,0,0,0,.46-1.06,1.39,1.39,0,0,0-.46-1.09,1.65,1.65,0,0,0-1.17-.42H215c-.06,0-.08,0-.08.09V257c0,.06,0,.09.08.09h1.83A1.69,1.69,0,0,0,218,256.71Z" transform="translate(1.52 1.5)"/>
      <path class="cls-3" d="M231.31,260a4.67,4.67,0,0,1-.32,1.7,3.78,3.78,0,0,1-1.53,1.76,5,5,0,0,1-4.94,0,3.81,3.81,0,0,1-1.54-1.76,5.88,5.88,0,0,1-.28-1.06v0c0-.13.07-.19.21-.19h2.59a.28.28,0,0,1,.25.17.89.89,0,0,0,.12.29,1.12,1.12,0,0,0,1.08.72,1.27,1.27,0,0,0,.67-.18,1.4,1.4,0,0,0,.48-.54,1.83,1.83,0,0,0,.2-.89,1.87,1.87,0,0,0-.18-.85,1,1,0,0,0-.42-.5,1.14,1.14,0,0,0-.66-.19,1.54,1.54,0,0,0-.76.2,1,1,0,0,0-.48.49.22.22,0,0,1-.23.18h-2.64a.21.21,0,0,1-.21-.21v-7.28a.21.21,0,0,1,.21-.21h7.76a.24.24,0,0,1,.15.06.2.2,0,0,1,.06.15v2.09a.2.2,0,0,1-.06.15.24.24,0,0,1-.15.06h-4.94a.08.08,0,0,0-.09.09v2.07s0,.06,0,.07.05,0,.07,0a3.27,3.27,0,0,1,1.65-.42,3.83,3.83,0,0,1,2.21.64A3.53,3.53,0,0,1,231,258.3,5.09,5.09,0,0,1,231.31,260Z" transform="translate(1.52 1.5)"/>
      <path class="cls-3" d="M242.36,258.38a.2.2,0,0,1,.06.15v2.18a.21.21,0,0,1-.21.21h-.76a.08.08,0,0,0-.09.09v2.8a.21.21,0,0,1-.21.21h-2.52a.21.21,0,0,1-.21-.21V261a.08.08,0,0,0-.09-.09h-5.52a.21.21,0,0,1-.21-.21V259a.69.69,0,0,1,.05-.26l3-6.94a.25.25,0,0,1,.25-.16h2.69a.19.19,0,0,1,.17.06s0,.1,0,.19L236,258.21a.08.08,0,0,0,0,.07s0,0,.06,0h2.26a.08.08,0,0,0,.09-.09v-2a.21.21,0,0,1,.21-.21h2.52a.21.21,0,0,1,.21.21v2a.08.08,0,0,0,.09.09h.76A.2.2,0,0,1,242.36,258.38Z" transform="translate(1.52 1.5)"/>
    </g>
    <g>
      <path class="cls-3" d="M504.89,275.06a.2.2,0,0,1,.06.15v2.1a.25.25,0,0,1-.06.16.2.2,0,0,1-.15.06h-3.1a.08.08,0,0,0-.09.09v9.55a.25.25,0,0,1-.06.16.2.2,0,0,1-.15.06h-2.51a.2.2,0,0,1-.15-.06.21.21,0,0,1-.07-.16v-9.55c0-.06,0-.09-.08-.09h-3a.2.2,0,0,1-.15-.06.25.25,0,0,1-.06-.16v-2.1a.21.21,0,0,1,.21-.21h9.21A.2.2,0,0,1,504.89,275.06Z" transform="translate(1.52 1.5)"/>
      <path class="cls-3" d="M514,275.49a3.42,3.42,0,0,1,1.43,1.39,4.09,4.09,0,0,1,.51,2.06,4,4,0,0,1-.52,2,3.54,3.54,0,0,1-1.48,1.36,4.9,4.9,0,0,1-2.22.48h-2.16c-.05,0-.08,0-.08.09v4.26a.21.21,0,0,1-.07.16.2.2,0,0,1-.15.06h-2.51a.2.2,0,0,1-.15-.06.25.25,0,0,1-.06-.16v-12a.21.21,0,0,1,.21-.21h5.12A4.46,4.46,0,0,1,514,275.49Zm-1.44,4.59a1.49,1.49,0,0,0,0-2.15,1.65,1.65,0,0,0-1.17-.42h-1.83c-.05,0-.08,0-.08.09v2.79c0,.06,0,.09.08.09h1.83A1.68,1.68,0,0,0,512.55,280.08Z" transform="translate(1.52 1.5)"/>
      <path class="cls-3" d="M525.88,283.37a4.67,4.67,0,0,1-.32,1.7,3.78,3.78,0,0,1-1.53,1.76,5,5,0,0,1-4.93,0,3.78,3.78,0,0,1-1.55-1.76,5.09,5.09,0,0,1-.28-1.07v0a.18.18,0,0,1,.21-.2h2.59a.28.28,0,0,1,.25.18.78.78,0,0,0,.12.28,1.12,1.12,0,0,0,1.08.73,1.19,1.19,0,0,0,.67-.19,1.27,1.27,0,0,0,.48-.54,1.79,1.79,0,0,0,.2-.88,1.87,1.87,0,0,0-.18-.85,1,1,0,0,0-.42-.51,1.21,1.21,0,0,0-.66-.18,1.53,1.53,0,0,0-.76.19,1,1,0,0,0-.48.5.22.22,0,0,1-.23.18H517.5a.18.18,0,0,1-.15-.07.2.2,0,0,1-.06-.15v-7.27a.21.21,0,0,1,.21-.21h7.76a.24.24,0,0,1,.15.06.2.2,0,0,1,.06.15v2.09a.2.2,0,0,1-.06.15.24.24,0,0,1-.15.06h-4.94a.08.08,0,0,0-.09.09v2.07a.08.08,0,0,0,0,.07s0,0,.07,0a3.27,3.27,0,0,1,1.65-.42,3.9,3.9,0,0,1,2.21.63,3.6,3.6,0,0,1,1.38,1.74A4.86,4.86,0,0,1,525.88,283.37Z" transform="translate(1.52 1.5)"/>
      <path class="cls-3" d="M535.91,283.37a4.47,4.47,0,0,1-.32,1.7,3.67,3.67,0,0,1-1.53,1.76,4.58,4.58,0,0,1-2.47.66,4.65,4.65,0,0,1-2.46-.64,3.76,3.76,0,0,1-1.54-1.76,5.09,5.09,0,0,1-.28-1.07v0a.18.18,0,0,1,.21-.2h2.59a.27.27,0,0,1,.24.18,1.1,1.1,0,0,0,.13.28,1.11,1.11,0,0,0,1.08.73,1.19,1.19,0,0,0,.67-.19,1.27,1.27,0,0,0,.48-.54,1.79,1.79,0,0,0,.19-.88,2,2,0,0,0-.17-.85,1.16,1.16,0,0,0-.42-.51,1.23,1.23,0,0,0-.66-.18,1.6,1.6,0,0,0-.77.19,1,1,0,0,0-.47.5.23.23,0,0,1-.23.18h-2.64a.18.18,0,0,1-.15-.07.2.2,0,0,1-.06-.15v-7.27a.21.21,0,0,1,.21-.21h7.75a.21.21,0,0,1,.21.21v2.09a.21.21,0,0,1-.21.21h-4.94c-.06,0-.08,0-.08.09v2.07a.08.08,0,0,0,0,.07.05.05,0,0,0,.07,0,3.24,3.24,0,0,1,1.65-.42,3.92,3.92,0,0,1,2.21.63,3.6,3.6,0,0,1,1.38,1.74A5.08,5.08,0,0,1,535.91,283.37Z" transform="translate(1.52 1.5)"/>
    </g>
    <g>
      <path class="cls-3" d="M504.87,200.71a.2.2,0,0,1,.06.15V203a.2.2,0,0,1-.06.15.21.21,0,0,1-.15.07h-3.1c-.06,0-.08,0-.08.08v9.56a.24.24,0,0,1-.22.22h-2.51a.21.21,0,0,1-.15-.07.2.2,0,0,1-.06-.15v-9.56c0-.06,0-.08-.09-.08h-3a.21.21,0,0,1-.15-.07.18.18,0,0,1-.07-.15v-2.1a.24.24,0,0,1,.22-.22h9.2A.18.18,0,0,1,504.87,200.71Z" transform="translate(1.52 1.5)"/>
      <path class="cls-3" d="M514,201.14a3.51,3.51,0,0,1,1.44,1.39,4.19,4.19,0,0,1,.5,2.06,3.92,3.92,0,0,1-.52,2,3.48,3.48,0,0,1-1.48,1.36,4.89,4.89,0,0,1-2.21.48h-2.16a.08.08,0,0,0-.09.09v4.26a.2.2,0,0,1-.06.15.26.26,0,0,1-.15.07h-2.52a.21.21,0,0,1-.15-.07.2.2,0,0,1-.06-.15v-12a.2.2,0,0,1,.06-.15.18.18,0,0,1,.15-.07h5.12A4.47,4.47,0,0,1,514,201.14Zm-1.43,4.58a1.35,1.35,0,0,0,.45-1.06,1.42,1.42,0,0,0-.45-1.09,1.71,1.71,0,0,0-1.18-.41h-1.82a.08.08,0,0,0-.09.09V206a.08.08,0,0,0,.09.09h1.82A1.66,1.66,0,0,0,512.54,205.72Z" transform="translate(1.52 1.5)"/>
      <path class="cls-3" d="M525.86,209a4.71,4.71,0,0,1-.32,1.7,3.78,3.78,0,0,1-1.53,1.76,5,5,0,0,1-4.93,0,3.78,3.78,0,0,1-1.54-1.77,5,5,0,0,1-.29-1.06v0c0-.13.08-.2.22-.2h2.58a.27.27,0,0,1,.25.18.85.85,0,0,0,.12.28,1.13,1.13,0,0,0,1.08.73,1.25,1.25,0,0,0,.68-.19,1.19,1.19,0,0,0,.47-.54,1.79,1.79,0,0,0,.2-.88,1.84,1.84,0,0,0-.18-.85,1,1,0,0,0-.42-.51,1.21,1.21,0,0,0-.66-.18,1.56,1.56,0,0,0-.76.19,1,1,0,0,0-.48.5.21.21,0,0,1-.23.17h-2.64a.22.22,0,0,1-.15-.06.2.2,0,0,1-.06-.15v-7.27a.2.2,0,0,1,.06-.15.19.19,0,0,1,.15-.07h7.76a.18.18,0,0,1,.15.07.2.2,0,0,1,.06.15v2.08a.25.25,0,0,1-.06.16.2.2,0,0,1-.15.06H520.3a.08.08,0,0,0-.09.09v2.07a.07.07,0,0,0,0,.07s0,0,.07,0A3.2,3.2,0,0,1,522,205a4,4,0,0,1,2.22.63,3.72,3.72,0,0,1,1.38,1.74A5,5,0,0,1,525.86,209Z" transform="translate(1.52 1.5)"/>
      <path class="cls-3" d="M535.77,208.91a4.64,4.64,0,0,1-.35,1.79,3.72,3.72,0,0,1-1.51,1.81,4.4,4.4,0,0,1-2.46.67,4.46,4.46,0,0,1-2.44-.68,4,4,0,0,1-1.54-1.85,5.22,5.22,0,0,1-.34-1.56.19.19,0,0,1,.21-.21h2.55a.2.2,0,0,1,.23.21,2.81,2.81,0,0,0,.22.85,1.14,1.14,0,0,0,.42.54,1.22,1.22,0,0,0,.67.18,1.2,1.2,0,0,0,1.12-.67,2.42,2.42,0,0,0,.25-1.17,3,3,0,0,0-.25-1.24,1.23,1.23,0,0,0-1.13-.65.91.91,0,0,0-.44.13,6.74,6.74,0,0,0-.61.4.34.34,0,0,1-.14,0,.17.17,0,0,1-.16-.1l-1.26-1.77a.37.37,0,0,1,0-.15.16.16,0,0,1,.09-.15l2.73-2.08a.06.06,0,0,0,0-.07s0,0-.06,0h-3.88a.2.2,0,0,1-.15-.06.25.25,0,0,1-.06-.16v-2.08a.2.2,0,0,1,.06-.15.18.18,0,0,1,.15-.07h7.72a.18.18,0,0,1,.15.07.2.2,0,0,1,.06.15v2.35a.34.34,0,0,1-.12.27l-2.14,1.68a.06.06,0,0,0,0,.07.1.1,0,0,0,.06.05,3,3,0,0,1,2.06,1.81A4.76,4.76,0,0,1,535.77,208.91Z" transform="translate(1.52 1.5)"/>
    </g>
    <g>
      <path class="cls-3" d="M210.82,175.52a.21.21,0,0,1,.07.15v2.11a.26.26,0,0,1-.07.15.2.2,0,0,1-.15.06h-3.09a.08.08,0,0,0-.09.09v9.56a.21.21,0,0,1-.07.15.2.2,0,0,1-.15.06h-2.51a.2.2,0,0,1-.15-.06.24.24,0,0,1-.06-.15v-9.56a.08.08,0,0,0-.09-.09h-3a.2.2,0,0,1-.15-.06.24.24,0,0,1-.06-.15v-2.11a.21.21,0,0,1,.21-.21h9.2A.2.2,0,0,1,210.82,175.52Z" transform="translate(1.52 1.5)"/>
      <path class="cls-3" d="M219.92,176a3.57,3.57,0,0,1,1.44,1.39,4.22,4.22,0,0,1,.5,2.06,3.92,3.92,0,0,1-.52,2,3.48,3.48,0,0,1-1.48,1.36,4.86,4.86,0,0,1-2.21.48h-2.16a.08.08,0,0,0-.09.09v4.27a.24.24,0,0,1-.06.15.2.2,0,0,1-.15.06h-2.52a.2.2,0,0,1-.15-.06.24.24,0,0,1-.06-.15v-12a.21.21,0,0,1,.21-.21h5.12A4.46,4.46,0,0,1,219.92,176Zm-1.43,4.59a1.37,1.37,0,0,0,.45-1.07,1.4,1.4,0,0,0-.45-1.08,1.67,1.67,0,0,0-1.18-.42h-1.82a.08.08,0,0,0-.09.09v2.8s0,.08.09.08h1.82A1.71,1.71,0,0,0,218.49,180.54Z" transform="translate(1.52 1.5)"/>
      <path class="cls-3" d="M231.81,183.83a4.67,4.67,0,0,1-.32,1.7,3.78,3.78,0,0,1-1.53,1.76,5,5,0,0,1-4.93,0,3.76,3.76,0,0,1-1.54-1.76,5.09,5.09,0,0,1-.28-1.07v0a.18.18,0,0,1,.21-.2H226a.27.27,0,0,1,.25.18.78.78,0,0,0,.12.28,1.13,1.13,0,0,0,1.08.73,1.22,1.22,0,0,0,.68-.19,1.27,1.27,0,0,0,.48-.54,1.91,1.91,0,0,0,.19-.88,1.87,1.87,0,0,0-.18-.85,1.08,1.08,0,0,0-.41-.51,1.27,1.27,0,0,0-.67-.18,1.56,1.56,0,0,0-.76.19,1.1,1.1,0,0,0-.48.5.22.22,0,0,1-.23.18h-2.63a.2.2,0,0,1-.15-.06.21.21,0,0,1-.07-.16v-7.27a.18.18,0,0,1,.07-.15.2.2,0,0,1,.15-.06h7.75a.21.21,0,0,1,.21.21v2.09a.21.21,0,0,1-.21.21h-4.94a.08.08,0,0,0-.09.09v2.07s0,.06,0,.07,0,0,.07,0a3.21,3.21,0,0,1,1.65-.42,3.94,3.94,0,0,1,2.21.63,3.6,3.6,0,0,1,1.38,1.74A5.08,5.08,0,0,1,231.81,183.83Z" transform="translate(1.52 1.5)"/>
      <path class="cls-3" d="M237.26,185.3a.08.08,0,0,0,.07,0h4.52a.18.18,0,0,1,.15.07.2.2,0,0,1,.06.15v2.09a.24.24,0,0,1-.06.15.2.2,0,0,1-.15.06h-8.31a.2.2,0,0,1-.15-.06.24.24,0,0,1-.06-.15v-2a.39.39,0,0,1,.11-.27c.71-.66,1.64-1.61,2.81-2.85l1.06-1.11q1.62-1.66,1.62-2.43a1.09,1.09,0,0,0-.39-.85,1.43,1.43,0,0,0-1-.33,1.41,1.41,0,0,0-1,.33,1.14,1.14,0,0,0-.37.89v.42a.21.21,0,0,1-.22.22h-2.54a.2.2,0,0,1-.15-.06.21.21,0,0,1-.07-.16v-.88a3.15,3.15,0,0,1,.66-1.74,3.82,3.82,0,0,1,1.54-1.14,5.56,5.56,0,0,1,2.12-.4,5.19,5.19,0,0,1,2.3.49,3.73,3.73,0,0,1,1.5,1.32,3.39,3.39,0,0,1,.52,1.84,3.48,3.48,0,0,1-.35,1.47,7.65,7.65,0,0,1-1.06,1.58c-.33.4-.71.8-1.12,1.22s-1,1-1.72,1.66l-.35.34A.07.07,0,0,0,237.26,185.3Z" transform="translate(1.52 1.5)"/>
    </g>
    <g>
      <path class="cls-3" d="M506.74,127.27a.2.2,0,0,1,.06.15v2.1a.2.2,0,0,1-.06.15.18.18,0,0,1-.15.07h-3.1c-.06,0-.09,0-.09.08v9.56a.2.2,0,0,1-.06.15.18.18,0,0,1-.15.07h-2.51a.24.24,0,0,1-.22-.22v-9.56c0-.06,0-.08-.08-.08h-3a.18.18,0,0,1-.15-.07.2.2,0,0,1-.06-.15v-2.1a.2.2,0,0,1,.06-.15.18.18,0,0,1,.15-.07h9.21A.18.18,0,0,1,506.74,127.27Z" transform="translate(1.52 1.5)"/>
      <path class="cls-3" d="M515.84,127.7a3.42,3.42,0,0,1,1.43,1.39,4.09,4.09,0,0,1,.51,2.06,3.92,3.92,0,0,1-.53,2,3.46,3.46,0,0,1-1.47,1.36,4.9,4.9,0,0,1-2.22.48H511.4c-.06,0-.08,0-.08.09v4.26a.21.21,0,0,1-.07.15.18.18,0,0,1-.15.07h-2.51a.18.18,0,0,1-.15-.07.2.2,0,0,1-.06-.15v-12a.2.2,0,0,1,.06-.15.18.18,0,0,1,.15-.07h5.12A4.47,4.47,0,0,1,515.84,127.7Zm-1.44,4.58a1.33,1.33,0,0,0,.46-1.06,1.39,1.39,0,0,0-.46-1.09,1.69,1.69,0,0,0-1.17-.41H511.4c-.06,0-.08,0-.08.09v2.79c0,.06,0,.09.08.09h1.83A1.64,1.64,0,0,0,514.4,132.28Z" transform="translate(1.52 1.5)"/>
      <path class="cls-3" d="M527.72,135.58a4.7,4.7,0,0,1-.31,1.7,3.78,3.78,0,0,1-1.53,1.76,5,5,0,0,1-4.93,0,3.75,3.75,0,0,1-1.55-1.77,5,5,0,0,1-.28-1.06v0a.18.18,0,0,1,.21-.2h2.59a.28.28,0,0,1,.25.18.78.78,0,0,0,.12.28,1.11,1.11,0,0,0,1.08.73A1.19,1.19,0,0,0,524,137a1.27,1.27,0,0,0,.48-.54,1.79,1.79,0,0,0,.2-.88,1.84,1.84,0,0,0-.18-.85,1,1,0,0,0-.42-.51,1.21,1.21,0,0,0-.66-.18,1.53,1.53,0,0,0-.76.19,1,1,0,0,0-.48.5.22.22,0,0,1-.23.17h-2.64a.21.21,0,0,1-.21-.21v-7.27a.2.2,0,0,1,.06-.15.18.18,0,0,1,.15-.07h7.76a.21.21,0,0,1,.15.07.2.2,0,0,1,.06.15v2.09a.21.21,0,0,1-.21.21h-4.94a.08.08,0,0,0-.09.09v2.07a.08.08,0,0,0,0,.07.06.06,0,0,0,.07,0,3.27,3.27,0,0,1,1.65-.42,3.9,3.9,0,0,1,2.21.63,3.6,3.6,0,0,1,1.38,1.74A4.8,4.8,0,0,1,527.72,135.58Z" transform="translate(1.52 1.5)"/>
      <path class="cls-3" d="M531.28,127.2h2.59a.18.18,0,0,1,.15.07.2.2,0,0,1,.06.15v12a.2.2,0,0,1-.06.15.18.18,0,0,1-.15.07h-2.52a.18.18,0,0,1-.15-.07.2.2,0,0,1-.06-.15V130a.11.11,0,0,0,0-.07s-.05,0-.07,0l-1.74.41h-.07c-.11,0-.16-.06-.16-.19l0-1.86a.26.26,0,0,1,.15-.25l1.83-.79A.65.65,0,0,1,531.28,127.2Z" transform="translate(1.52 1.5)"/>
    </g>
  </g>
  <g id="Layer_6" data-name="Layer 6">
    <g>
      <rect class="cls-9" x="309.06" y="60.19" width="12.93" height="11.88"/>
      <g>
        <path class="cls-3" d="M309.78,68v-.49l.62-.6c1.5-1.42,2.17-2.18,2.18-3.06a1,1,0,0,0-1.16-1.14,2,2,0,0,0-1.24.49l-.26-.56a2.61,2.61,0,0,1,1.66-.59,1.64,1.64,0,0,1,1.79,1.7c0,1.08-.78,1.95-2,3.14l-.47.43v0h2.63V68Z" transform="translate(1.52 1.5)"/>
        <path class="cls-3" d="M317.9,62.77h-2.24l-.22,1.51a2.77,2.77,0,0,1,.48,0,2.4,2.4,0,0,1,1.25.32,1.66,1.66,0,0,1,.84,1.5,2,2,0,0,1-2.18,2,2.8,2.8,0,0,1-1.45-.36l.19-.6a2.7,2.7,0,0,0,1.25.32,1.3,1.3,0,0,0,1.39-1.27c0-.76-.51-1.3-1.68-1.3a5.3,5.3,0,0,0-.81.07l.38-2.81h2.8Z" transform="translate(1.52 1.5)"/>
      </g>
    </g>
    <g>
      <rect class="cls-9" x="345.26" y="60.19" width="12.93" height="11.88"/>
      <g>
        <path class="cls-3" d="M346,68v-.49l.62-.6c1.5-1.42,2.17-2.18,2.18-3.06a1,1,0,0,0-1.16-1.14,2,2,0,0,0-1.24.49l-.25-.56a2.56,2.56,0,0,1,1.65-.59,1.64,1.64,0,0,1,1.79,1.7c0,1.08-.78,1.95-2,3.14l-.47.43v0h2.63V68Z" transform="translate(1.52 1.5)"/>
        <path class="cls-3" d="M353.94,62.67a3.14,3.14,0,0,0-.59,0,2.4,2.4,0,0,0-2,2.08h0A1.79,1.79,0,0,1,354.52,66a2,2,0,0,1-1.94,2.06c-1.26,0-2.08-1-2.08-2.49a3.65,3.65,0,0,1,1-2.64,3.15,3.15,0,0,1,1.87-.87,4.54,4.54,0,0,1,.57,0ZM353.72,66a1.19,1.19,0,0,0-1.21-1.34,1.3,1.3,0,0,0-1.13.72.63.63,0,0,0-.09.35c0,1,.46,1.68,1.29,1.68S353.72,66.88,353.72,66Z" transform="translate(1.52 1.5)"/>
      </g>
    </g>
    <g>
      <rect class="cls-9" x="381.42" y="60.19" width="12.93" height="11.88"/>
      <g>
        <path class="cls-3" d="M382.14,68v-.49l.62-.6c1.5-1.42,2.17-2.18,2.18-3.06a1,1,0,0,0-1.16-1.14,2,2,0,0,0-1.24.49l-.25-.56a2.56,2.56,0,0,1,1.65-.59,1.64,1.64,0,0,1,1.79,1.7c0,1.08-.78,1.95-2,3.14l-.47.43v0h2.63V68Z" transform="translate(1.52 1.5)"/>
        <path class="cls-3" d="M390.56,62.11v.52L388,68h-.81l2.53-5.18h-2.86v-.66Z" transform="translate(1.52 1.5)"/>
      </g>
    </g>
    <g>
      <rect class="cls-9" x="453.25" y="60.19" width="12.93" height="11.88"/>
      <g>
        <path class="cls-3" d="M454,68v-.49l.62-.6c1.49-1.42,2.17-2.18,2.18-3.06a1,1,0,0,0-1.16-1.14,2,2,0,0,0-1.25.49l-.25-.56a2.59,2.59,0,0,1,1.66-.59,1.64,1.64,0,0,1,1.79,1.7c0,1.08-.78,1.95-2,3.14l-.46.43v0h2.62V68Z" transform="translate(1.52 1.5)"/>
        <path class="cls-3" d="M458.53,66.47a1.66,1.66,0,0,1,1.16-1.56v0a1.45,1.45,0,0,1-.93-1.31A1.64,1.64,0,0,1,460.56,62a1.51,1.51,0,0,1,1.7,1.44,1.49,1.49,0,0,1-1,1.37v0a1.61,1.61,0,0,1,1.18,1.51,1.8,1.8,0,0,1-2,1.7C459.27,68.06,458.53,67.33,458.53,66.47Zm3.15,0c0-.71-.5-1-1.29-1.28a1.28,1.28,0,0,0-1.05,1.21,1.08,1.08,0,0,0,1.17,1.11A1.06,1.06,0,0,0,461.68,66.44Zm-2.18-2.93c0,.59.44.9,1.12,1.08a1.15,1.15,0,0,0,.89-1.06.91.91,0,0,0-1-1A.93.93,0,0,0,459.5,63.51Z" transform="translate(1.52 1.5)"/>
      </g>
    </g>
    <g>
      <rect class="cls-9" x="439.22" y="111.36" width="12.93" height="11.88"/>
      <g>
        <path class="cls-3" d="M439.94,119.13v-.49l.62-.6c1.5-1.43,2.17-2.18,2.18-3.07a1,1,0,0,0-1.16-1.14,2,2,0,0,0-1.24.5l-.25-.56a2.56,2.56,0,0,1,1.65-.59,1.65,1.65,0,0,1,1.8,1.7c0,1.08-.79,2-2,3.14l-.47.43v0h2.63v.66Z" transform="translate(1.52 1.5)"/>
        <path class="cls-3" d="M445,118.57a3,3,0,0,0,.64,0,2.19,2.19,0,0,0,1.23-.57,2.54,2.54,0,0,0,.77-1.55h0a1.72,1.72,0,0,1-1.37.63,1.7,1.7,0,0,1-1.73-1.8,2,2,0,0,1,2-2.07c1.2,0,1.93,1,1.93,2.46a3.73,3.73,0,0,1-1,2.75,3,3,0,0,1-1.71.78,4.05,4.05,0,0,1-.73,0Zm.29-3.37a1.12,1.12,0,0,0,1.13,1.24,1.31,1.31,0,0,0,1.15-.61.56.56,0,0,0,.07-.29c0-1-.37-1.76-1.2-1.76C445.79,113.78,445.31,114.37,445.31,115.2Z" transform="translate(1.52 1.5)"/>
      </g>
    </g>
    <g>
      <rect class="cls-9" x="439.22" y="140.38" width="12.93" height="11.88"/>
      <g>
        <path class="cls-3" d="M440.13,147.24a2.61,2.61,0,0,0,1.3.37c1,0,1.33-.65,1.32-1.13,0-.82-.75-1.17-1.51-1.17h-.44v-.6h.44c.58,0,1.3-.3,1.3-1,0-.47-.29-.88-1-.88a2.14,2.14,0,0,0-1.17.39l-.21-.58a2.83,2.83,0,0,1,1.53-.45c1.15,0,1.68.68,1.68,1.4a1.45,1.45,0,0,1-1.08,1.37v0a1.52,1.52,0,0,1,1.3,1.5c0,.94-.73,1.76-2.13,1.76a2.92,2.92,0,0,1-1.52-.4Z" transform="translate(1.52 1.5)"/>
        <path class="cls-3" d="M448.45,145.16c0,2-.73,3.09-2,3.09-1.14,0-1.92-1.07-1.94-3s.85-3,2-3S448.45,143.3,448.45,145.16Zm-3.17.09c0,1.52.46,2.39,1.18,2.39s1.2-.95,1.2-2.44-.37-2.39-1.19-2.39S445.28,143.66,445.28,145.25Z" transform="translate(1.52 1.5)"/>
      </g>
    </g>
    <g>
      <rect class="cls-9" x="439.22" y="166.71" width="12.93" height="11.88"/>
      <g>
        <path class="cls-3" d="M440.13,173.57a2.72,2.72,0,0,0,1.3.37c1,0,1.33-.65,1.32-1.14,0-.82-.75-1.17-1.51-1.17h-.44V171h.44c.58,0,1.3-.3,1.3-1,0-.47-.29-.89-1-.89a2.14,2.14,0,0,0-1.17.39l-.21-.58a2.83,2.83,0,0,1,1.53-.45c1.15,0,1.68.69,1.68,1.4a1.46,1.46,0,0,1-1.08,1.38v0a1.51,1.51,0,0,1,1.3,1.5c0,.94-.73,1.75-2.13,1.75a2.93,2.93,0,0,1-1.52-.39Z" transform="translate(1.52 1.5)"/>
        <path class="cls-3" d="M446.29,169.36h0l-1,.55-.15-.6,1.28-.69h.67v5.86h-.76Z" transform="translate(1.52 1.5)"/>
      </g>
    </g>
    <g>
      <rect class="cls-9" x="439.22" y="190.31" width="12.93" height="11.88"/>
      <g>
        <path class="cls-3" d="M440.13,197.18a2.73,2.73,0,0,0,1.3.36c1,0,1.33-.64,1.32-1.13,0-.82-.75-1.17-1.51-1.17h-.44v-.6h.44c.58,0,1.3-.29,1.3-1,0-.46-.29-.88-1-.88a2.14,2.14,0,0,0-1.17.39l-.21-.58a2.83,2.83,0,0,1,1.53-.45c1.15,0,1.68.69,1.68,1.4a1.47,1.47,0,0,1-1.08,1.38h0a1.53,1.53,0,0,1,1.3,1.51c0,.93-.73,1.75-2.13,1.75a2.93,2.93,0,0,1-1.52-.39Z" transform="translate(1.52 1.5)"/>
        <path class="cls-3" d="M444.57,198.08v-.48l.62-.61c1.49-1.42,2.17-2.17,2.18-3.06a1,1,0,0,0-1.17-1.14,2,2,0,0,0-1.24.5l-.25-.56a2.57,2.57,0,0,1,1.66-.6,1.65,1.65,0,0,1,1.79,1.7c0,1.09-.79,2-2,3.15l-.47.43v0h2.63v.65Z" transform="translate(1.52 1.5)"/>
      </g>
    </g>
    <g>
      <path class="cls-3" d="M287.76,262.72c-.05-.85-.1-1.87-.09-2.62h0c-.21.71-.46,1.46-.77,2.3l-1.07,3h-.59l-1-2.89c-.29-.86-.53-1.64-.7-2.36h0c0,.75-.07,1.77-.12,2.68l-.16,2.6h-.75l.42-6.07h1l1,2.94c.25.75.46,1.41.61,2h0c.15-.61.37-1.28.64-2l1.08-2.94h1l.37,6.07h-.76Z" transform="translate(1.52 1.5)"/>
      <path class="cls-3" d="M291,260H289.1v-.67h4.5V260h-1.86v5.4H291Z" transform="translate(1.52 1.5)"/>
      <path class="cls-3" d="M294.28,259.39a11.42,11.42,0,0,1,1.66-.12,3.5,3.5,0,0,1,2.46.75,2.8,2.8,0,0,1,.85,2.18,3.2,3.2,0,0,1-.87,2.36,3.72,3.72,0,0,1-2.68.87,11.48,11.48,0,0,1-1.42-.07Zm.78,5.37a4.54,4.54,0,0,0,.79,0,2.32,2.32,0,0,0,2.58-2.57,2.16,2.16,0,0,0-2.45-2.34,4.86,4.86,0,0,0-.92.08Z" transform="translate(1.52 1.5)"/>
    </g>
    <rect class="cls-9" x="282.75" y="257.61" width="19.1" height="11.88"/>
    <g>
      <rect class="cls-9" x="288.92" y="228.41" width="12.93" height="11.88"/>
      <g>
        <path class="cls-3" d="M289.83,235.27a2.69,2.69,0,0,0,1.3.37c1,0,1.33-.65,1.32-1.14,0-.82-.75-1.17-1.51-1.17h-.44v-.59h.44c.57,0,1.3-.3,1.3-1,0-.47-.3-.88-1-.88a2.19,2.19,0,0,0-1.17.38l-.2-.57a2.72,2.72,0,0,1,1.53-.45c1.15,0,1.67.68,1.67,1.39A1.46,1.46,0,0,1,292,233v0a1.52,1.52,0,0,1,1.31,1.5c0,.94-.73,1.76-2.14,1.76a3,3,0,0,1-1.52-.4Z" transform="translate(1.52 1.5)"/>
        <path class="cls-3" d="M294.45,235.27a2.72,2.72,0,0,0,1.3.37c1,0,1.33-.65,1.32-1.14,0-.82-.75-1.17-1.51-1.17h-.44v-.59h.44c.57,0,1.3-.3,1.3-1,0-.47-.29-.88-1-.88a2.14,2.14,0,0,0-1.17.38l-.21-.57a2.75,2.75,0,0,1,1.53-.45c1.15,0,1.68.68,1.68,1.39a1.47,1.47,0,0,1-1.09,1.38v0a1.52,1.52,0,0,1,1.31,1.5c0,.94-.73,1.76-2.13,1.76a3,3,0,0,1-1.53-.4Z" transform="translate(1.52 1.5)"/>
      </g>
    </g>
    <g>
      <rect class="cls-9" x="288.92" y="196.25" width="12.93" height="11.88"/>
      <g>
        <path class="cls-3" d="M289.83,203.11a2.58,2.58,0,0,0,1.3.37c1,0,1.33-.65,1.32-1.13,0-.82-.75-1.17-1.51-1.17h-.44v-.6h.44c.57,0,1.3-.29,1.3-1,0-.47-.3-.88-1-.88a2.2,2.2,0,0,0-1.17.39l-.2-.58a2.81,2.81,0,0,1,1.53-.45c1.15,0,1.67.69,1.67,1.4a1.45,1.45,0,0,1-1.08,1.37v0a1.54,1.54,0,0,1,1.31,1.51c0,.93-.73,1.75-2.14,1.75a3,3,0,0,1-1.52-.4Z" transform="translate(1.52 1.5)"/>
        <path class="cls-3" d="M296.71,204v-1.59H294v-.52l2.61-3.74h.86v3.64h.82v.62h-.82V204Zm0-2.21v-2c0-.3,0-.61,0-.92h0c-.18.35-.32.6-.49.87l-1.43,2v0Z" transform="translate(1.52 1.5)"/>
      </g>
    </g>
    <g>
      <rect class="cls-9" x="288.92" y="164.1" width="12.93" height="11.88"/>
      <g>
        <path class="cls-3" d="M289.83,171a2.69,2.69,0,0,0,1.3.37c1,0,1.33-.65,1.32-1.14,0-.82-.75-1.17-1.51-1.17h-.44v-.59h.44c.57,0,1.3-.3,1.3-1,0-.47-.3-.88-1-.88a2.19,2.19,0,0,0-1.17.38l-.2-.57a2.72,2.72,0,0,1,1.53-.45c1.15,0,1.67.68,1.67,1.39a1.45,1.45,0,0,1-1.08,1.38v0a1.52,1.52,0,0,1,1.31,1.5c0,.94-.73,1.76-2.14,1.76a3,3,0,0,1-1.52-.4Z" transform="translate(1.52 1.5)"/>
        <path class="cls-3" d="M297.75,166.68h-2.23l-.22,1.51a2.74,2.74,0,0,1,.47,0,2.44,2.44,0,0,1,1.26.32,1.66,1.66,0,0,1,.84,1.5,2,2,0,0,1-2.18,2,2.87,2.87,0,0,1-1.46-.36l.2-.61a2.57,2.57,0,0,0,1.25.33,1.3,1.3,0,0,0,1.39-1.27c0-.76-.51-1.3-1.68-1.3a5.3,5.3,0,0,0-.81.07L295,166h2.79Z" transform="translate(1.52 1.5)"/>
      </g>
    </g>
    <g>
      <rect class="cls-9" x="288.92" y="133.21" width="12.93" height="11.88"/>
      <g>
        <path class="cls-3" d="M289.83,140.07a2.69,2.69,0,0,0,1.3.37c1,0,1.33-.65,1.32-1.14,0-.82-.75-1.17-1.51-1.17h-.44v-.59h.44c.57,0,1.3-.3,1.3-1,0-.47-.3-.89-1-.89a2.2,2.2,0,0,0-1.17.39l-.2-.58a2.81,2.81,0,0,1,1.53-.45c1.15,0,1.67.69,1.67,1.4A1.46,1.46,0,0,1,292,137.8v0a1.52,1.52,0,0,1,1.31,1.5c0,.94-.73,1.75-2.14,1.75a3,3,0,0,1-1.52-.39Z" transform="translate(1.52 1.5)"/>
        <path class="cls-3" d="M297.6,135.68a2.54,2.54,0,0,0-.59,0,2.38,2.38,0,0,0-2,2.08h0a1.78,1.78,0,0,1,3.18,1.21,2,2,0,0,1-1.95,2.06c-1.25,0-2.07-1-2.07-2.49a3.72,3.72,0,0,1,1-2.64,3.25,3.25,0,0,1,1.88-.86,3.37,3.37,0,0,1,.57-.05Zm-.22,3.38a1.19,1.19,0,0,0-1.21-1.34,1.27,1.27,0,0,0-1.13.72.61.61,0,0,0-.09.35c0,1,.46,1.67,1.28,1.67S297.38,139.9,297.38,139.06Z" transform="translate(1.52 1.5)"/>
      </g>
    </g>
    <g>
      <rect class="cls-9" x="288.92" y="105.97" width="12.93" height="11.88"/>
      <g>
        <path class="cls-3" d="M289.83,112.83a2.69,2.69,0,0,0,1.3.37c1,0,1.33-.65,1.32-1.14,0-.82-.75-1.17-1.51-1.17h-.44v-.59h.44c.57,0,1.3-.3,1.3-1,0-.47-.3-.88-1-.88a2.19,2.19,0,0,0-1.17.38l-.2-.57a2.72,2.72,0,0,1,1.53-.45c1.15,0,1.67.68,1.67,1.39a1.46,1.46,0,0,1-1.08,1.38v0a1.52,1.52,0,0,1,1.31,1.5c0,.94-.73,1.76-2.14,1.76a3,3,0,0,1-1.52-.4Z" transform="translate(1.52 1.5)"/>
        <path class="cls-3" d="M298.06,107.89v.52l-2.55,5.33h-.82l2.54-5.18v0h-2.86v-.65Z" transform="translate(1.52 1.5)"/>
      </g>
    </g>
    <g>
      <rect class="cls-9" x="279.98" y="60.19" width="12.93" height="11.88"/>
      <g>
        <path class="cls-3" d="M280.89,67.05a2.72,2.72,0,0,0,1.3.37c1,0,1.33-.65,1.32-1.13,0-.82-.74-1.17-1.51-1.17h-.44v-.6H282c.58,0,1.31-.3,1.31-1,0-.47-.3-.88-1-.88a2.14,2.14,0,0,0-1.17.39l-.21-.58a2.75,2.75,0,0,1,1.53-.45c1.16,0,1.68.68,1.68,1.39A1.45,1.45,0,0,1,283,64.78v0a1.51,1.51,0,0,1,1.3,1.5c0,.94-.73,1.76-2.13,1.76a3,3,0,0,1-1.52-.4Z" transform="translate(1.52 1.5)"/>
        <path class="cls-3" d="M285.26,66.47a1.66,1.66,0,0,1,1.16-1.56v0a1.45,1.45,0,0,1-.93-1.31A1.64,1.64,0,0,1,287.29,62a1.51,1.51,0,0,1,1.7,1.44,1.49,1.49,0,0,1-1,1.37v0a1.61,1.61,0,0,1,1.18,1.51,1.8,1.8,0,0,1-2,1.7C286,68.06,285.26,67.33,285.26,66.47Zm3.15,0c0-.71-.5-1-1.29-1.28a1.28,1.28,0,0,0-1.05,1.21,1.08,1.08,0,0,0,1.17,1.11A1.06,1.06,0,0,0,288.41,66.44Zm-2.18-2.93c0,.59.44.9,1.11,1.08a1.15,1.15,0,0,0,.9-1.06.91.91,0,0,0-1-1A.93.93,0,0,0,286.23,63.51Z" transform="translate(1.52 1.5)"/>
      </g>
    </g>
  </g>
  <g id="Layer_5" data-name="Layer 5">
    <path class="cls-9" d="M329.57,128.42,348,131.8" transform="translate(1.52 1.5)"/>
    <path class="cls-9" d="M330.05,126.11l18.47,3.39" transform="translate(1.52 1.5)"/>
    <line class="cls-9" x1="306.46" y1="151.16" x2="306.46" y2="151.16"/>
    <line class="cls-9" x1="306.46" y1="150.85" x2="306.46" y2="150.85"/>
    <line class="cls-9" x1="306.46" y1="141" x2="306.46" y2="141"/>
    <line class="cls-9" x1="306.46" y1="140.69" x2="306.46" y2="140.69"/>
    <line class="cls-9" x1="329.86" y1="136.69" x2="348.33" y2="140.08"/>
    <line class="cls-9" x1="330.17" y1="134.54" x2="348.64" y2="137.62"/>
    <line class="cls-9" x1="330.79" y1="132.07" x2="349.26" y2="135.46"/>
    <line class="cls-9" x1="308" y1="106.83" x2="308" y2="156.7"/>
    <line class="cls-9" x1="308" y1="156.7" x2="345.26" y2="156.7"/>
    <line class="cls-9" x1="344.64" y1="110.21" x2="344.64" y2="110.21"/>
    <line class="cls-9" x1="308.02" y1="122.84" x2="326.78" y2="122.84"/>
    <line class="cls-9" x1="335.4" y1="105.59" x2="329.86" y2="137.92"/>
    <line class="cls-9" x1="326.78" y1="106.83" x2="326.78" y2="105.29"/>
    <line class="cls-9" x1="308" y1="106.83" x2="308" y2="105.29"/>
    <line class="cls-9" x1="308" y1="108.98" x2="326.78" y2="108.98"/>
    <line class="cls-9" x1="308" y1="106.83" x2="326.78" y2="106.83"/>
    <line class="cls-9" x1="326.78" y1="136.69" x2="308" y2="136.69"/>
    <line class="cls-9" x1="318.47" y1="135.15" x2="318.47" y2="135.15"/>
    <line class="cls-9" x1="308" y1="127.45" x2="322.65" y2="127.45"/>
    <line class="cls-9" x1="326.78" y1="106.83" x2="326.78" y2="137.92"/>
    <path class="cls-9" d="M325.26,130.88" transform="translate(1.52 1.5)"/>
    <path class="cls-9" d="M306.48,123.18" transform="translate(1.52 1.5)"/>
    <path class="cls-9" d="M325.26,128.11" transform="translate(1.52 1.5)"/>
    <path class="cls-9" d="M306.48,120.1" transform="translate(1.52 1.5)"/>
    <line class="cls-9" x1="318.47" y1="124.38" x2="318.47" y2="124.38"/>
    <line class="cls-9" x1="308.93" y1="124.99" x2="326.78" y2="124.99"/>
    <line class="cls-9" x1="317.24" y1="106.83" x2="317.24" y2="128.99"/>
    <line class="cls-9" x1="317.24" y1="128.69" x2="317.24" y2="136.69"/>
    <line class="cls-9" x1="308" y1="132.07" x2="326.8" y2="132.07"/>
    <line class="cls-9" x1="308" y1="129.61" x2="326.95" y2="129.61"/>
    <line class="cls-9" x1="308.93" y1="124.99" x2="308" y2="124.99"/>
    <line class="cls-9" x1="321.24" y1="127.45" x2="326.78" y2="127.45"/>
    <line class="cls-9" x1="357.26" y1="108.98" x2="356.65" y2="111.14"/>
    <line class="cls-9" x1="333.86" y1="114.22" x2="352.34" y2="117.29"/>
    <line class="cls-9" x1="334.33" y1="111.91" x2="352.8" y2="114.99"/>
    <line class="cls-9" x1="334.79" y1="109.6" x2="353.26" y2="112.68"/>
    <line class="cls-9" x1="335.11" y1="107.44" x2="353.58" y2="110.52"/>
    <path class="cls-9" d="M325.26,132.73H306.48m0-13.86h18.78m-18.78-2.15h18.78m-18.78-2.46h18.78m-18.78-2.16h18.78m-18.78-2.46h18.78" transform="translate(1.52 1.5)"/>
    <line class="cls-9" x1="333.56" y1="116.37" x2="352.03" y2="119.76"/>
    <line class="cls-9" x1="344.02" y1="108.98" x2="338.79" y2="138.23"/>
    <line class="cls-9" x1="342.79" y1="109.6" x2="342.79" y2="109.6"/>
    <line class="cls-9" x1="332.02" y1="125.3" x2="350.49" y2="128.69"/>
    <line class="cls-9" x1="332.32" y1="123.14" x2="350.8" y2="126.53"/>
    <line class="cls-9" x1="332.63" y1="120.99" x2="351.11" y2="124.07"/>
    <line class="cls-9" x1="333.25" y1="118.53" x2="351.72" y2="121.91"/>
    <line class="cls-9" x1="357.26" y1="108.67" x2="348.33" y2="159.17"/>
    <line class="cls-9" x1="353.88" y1="108.37" x2="345.26" y2="156.7"/>
    <line class="cls-9" x1="353.88" y1="108.37" x2="357.26" y2="108.67"/>
  </g>
  <g id="Layer_3" data-name="Layer 3">
    <line class="cls-10" x1="182.39" y1="54.31" x2="556.18" y2="54.31"/>
    <line class="cls-11" x1="555.96" y1="54.4" x2="555.96" y2="96.71"/>
    <line class="cls-11" x1="555.96" y1="371.73" x2="555.96" y2="96.71"/>
    <line class="cls-11" x1="182.41" y1="371.64" x2="556.72" y2="371.73"/>
    <line class="cls-11" x1="183.14" y1="101.34" x2="183.14" y2="371.64"/>
    <line class="cls-12" x1="306.18" y1="105.29" x2="306.18" y2="275.34"/>
    <line class="cls-12" x1="329.51" y1="275.03" x2="306.18" y2="275.03"/>
    <line class="cls-12" x1="329.82" y1="300.51" x2="329.82" y2="274.73"/>
    <line class="cls-12" x1="411.32" y1="300.51" x2="329.82" y2="300.51"/>
    <line class="cls-12" x1="411.16" y1="275.03" x2="411.16" y2="300.51"/>
    <line class="cls-12" x1="435.11" y1="275.49" x2="411.47" y2="275.49"/>
    <line class="cls-12" x1="434.8" y1="110.81" x2="434.8" y2="275.49"/>
    <line class="cls-12" x1="356.99" y1="110.51" x2="434.8" y2="110.51"/>
    <line class="cls-13" x1="306.49" y1="159" x2="347.93" y2="159"/>
    <line class="cls-10" x1="2.28" y1="101.04" x2="184.08" y2="101.04"/>
    <line class="cls-10" x1="1.52" y1="2.71" x2="1.52" y2="102.61"/>
    <line class="cls-10" x1="165.55" y1="1.5" y2="1.5"/>
    <line class="cls-10" x1="171.69" y1="54.25" x2="100.15" y2="54.61"/>
    <line class="cls-10" x1="182.39" y1="54.31" x2="166.16" y2="54.31"/>
  </g>
</svg>
