<svg id="Lager_1" data-name="Lager 1" xmlns="http://www.w3.org/2000/svg" xmlns:xlink="http://www.w3.org/1999/xlink" viewBox="0 0 224.96 132.49"><defs><style>.cls-1{fill:#1d1d1b;}.cls-2{fill:url(#linear-gradient);}.cls-3{fill:url(#linear-gradient-2);}.cls-4{fill:#42771e;}.cls-5{fill:url(#linear-gradient-3);}.cls-6{fill:url(#radial-gradient);}.cls-7{fill:url(#linear-gradient-4);}.cls-8{fill:url(#radial-gradient-2);}.cls-9{fill:url(#linear-gradient-5);}.cls-10{fill:#3a0200;opacity:0.07;}.cls-11{fill:url(#linear-gradient-6);}.cls-12{fill:url(#linear-gradient-7);}.cls-13{fill:url(#linear-gradient-8);}</style><linearGradient id="linear-gradient" x1="279.57" y1="242.36" x2="269.71" y2="249.26" gradientUnits="userSpaceOnUse"><stop offset="0" stop-color="#009fe3"/><stop offset="1" stop-color="#0076a7"/></linearGradient><linearGradient id="linear-gradient-2" x1="263.89" y1="277.79" x2="273.58" y2="260.13" gradientUnits="userSpaceOnUse"><stop offset="0" stop-color="#579a28"/><stop offset="1" stop-color="#65b32e"/></linearGradient><linearGradient id="linear-gradient-3" x1="297.5" y1="242.56" x2="311.68" y2="244.28" gradientUnits="userSpaceOnUse"><stop offset="0" stop-color="#85204c"/><stop offset="1" stop-color="#a61f5e"/></linearGradient><radialGradient id="radial-gradient" cx="296.86" cy="246.59" r="22.98" xlink:href="#linear-gradient"/><linearGradient id="linear-gradient-4" x1="278.38" y1="253.74" x2="315.44" y2="253.74" gradientUnits="userSpaceOnUse"><stop offset="0" stop-color="#004461"/><stop offset="1" stop-color="#007399"/></linearGradient><radialGradient id="radial-gradient-2" cx="255.84" cy="262.35" r="36.75" gradientUnits="userSpaceOnUse"><stop offset="0" stop-color="#ffe700"/><stop offset="1" stop-color="#fdc300"/></radialGradient><linearGradient id="linear-gradient-5" x1="297.18" y1="311.97" x2="309.71" y2="309.99" gradientUnits="userSpaceOnUse"><stop offset="0" stop-color="#a90f09"/><stop offset="1" stop-color="#c70c0f"/></linearGradient><linearGradient id="linear-gradient-6" x1="269.34" y1="302.85" x2="277.2" y2="308.51" xlink:href="#linear-gradient-5"/><linearGradient id="linear-gradient-7" x1="265.78" y1="292.69" x2="253.43" y2="290.68" gradientUnits="userSpaceOnUse"><stop offset="0" stop-color="#ee7203"/><stop offset="1" stop-color="#ea5b0c"/></linearGradient><linearGradient id="linear-gradient-8" x1="285.17" y1="289.37" x2="298.82" y2="295.51" gradientUnits="userSpaceOnUse"><stop offset="0" stop-color="#a51008"/><stop offset="1" stop-color="#b70e0c"/></linearGradient></defs><title>visualiseringscenter_text</title><path class="cls-1" d="M225.08,333h2l6.57,8.48V333h2.12v12.27H234l-6.77-8.73v8.73h-2.12Z" transform="translate(-182.5 -230.59)"/><path class="cls-1" d="M238.39,339.18v0a6.42,6.42,0,0,1,12.83,0v0a6.42,6.42,0,0,1-12.83,0Zm10.57,0v0a4.21,4.21,0,0,0-4.17-4.37,4.15,4.15,0,0,0-4.14,4.33v0a4.21,4.21,0,0,0,4.17,4.37A4.15,4.15,0,0,0,249,339.18Z" transform="translate(-182.5 -230.59)"/><path class="cls-1" d="M253.83,333h5.47a4.94,4.94,0,0,1,3.54,1.23,3.71,3.71,0,0,1,1,2.65v0a3.68,3.68,0,0,1-2.93,3.72l3.31,4.65h-2.54l-3-4.28H256v4.28h-2.16Zm5.31,6.08c1.54,0,2.52-.81,2.52-2.05v0c0-1.31-.95-2-2.54-2H256v4.12Z" transform="translate(-182.5 -230.59)"/><path class="cls-1" d="M266.51,333H272a4.94,4.94,0,0,1,3.54,1.23,3.71,3.71,0,0,1,1,2.65v0a3.68,3.68,0,0,1-2.93,3.72l3.31,4.65h-2.54l-3-4.28h-2.7v4.28h-2.16Zm5.31,6.08c1.54,0,2.52-.81,2.52-2.05v0c0-1.31-.95-2-2.54-2h-3.14v4.12Z" transform="translate(-182.5 -230.59)"/><path class="cls-1" d="M279.18,333h2.16v6.17l5.84-6.17h2.65l-5.1,5.28,5.33,7h-2.61l-4.19-5.52-1.91,2v3.56h-2.16Z" transform="translate(-182.5 -230.59)"/><path class="cls-1" d="M291.35,339.18v0a6.42,6.42,0,0,1,12.83,0v0a6.42,6.42,0,0,1-12.83,0Zm10.57,0v0a4.21,4.21,0,0,0-4.17-4.37,4.15,4.15,0,0,0-4.14,4.33v0a4.21,4.21,0,0,0,4.17,4.37A4.15,4.15,0,0,0,301.92,339.18Zm-7-9.33h2.19v2h-2.19Zm3.61,0h2.17v2h-2.17Z" transform="translate(-182.5 -230.59)"/><path class="cls-1" d="M306.79,333h4.84c2.86,0,4.66,1.63,4.66,4.1v0c0,2.75-2.21,4.19-4.91,4.19h-2.44v3.94h-2.16Zm4.66,6.38c1.63,0,2.65-.91,2.65-2.19v0c0-1.44-1-2.19-2.65-2.19h-2.51v4.42Z" transform="translate(-182.5 -230.59)"/><path class="cls-1" d="M318.62,333h2.16v12.27h-2.16Z" transform="translate(-182.5 -230.59)"/><path class="cls-1" d="M324.06,333h2l6.58,8.48V333h2.12v12.27h-1.81l-6.77-8.73v8.73h-2.12Z" transform="translate(-182.5 -230.59)"/><path class="cls-1" d="M337.36,339.18v0a6.25,6.25,0,0,1,6.33-6.35,6.62,6.62,0,0,1,4.72,1.67L347,336.09a4.81,4.81,0,0,0-3.44-1.32,4.15,4.15,0,0,0-4,4.33v0a4.1,4.1,0,0,0,4.17,4.38,5,5,0,0,0,3-.93v-2.3h-3.14v-1.88h5.22v5.15a7.83,7.83,0,0,1-5.12,1.91A6.09,6.09,0,0,1,337.36,339.18Z" transform="translate(-182.5 -230.59)"/><path class="cls-1" d="M350.82,343.49l1.3-1.54a5.65,5.65,0,0,0,3.87,1.59c1.33,0,2.17-.61,2.17-1.54v0c0-.88-.49-1.35-2.77-1.88-2.61-.63-4.08-1.4-4.08-3.66v0c0-2.1,1.75-3.56,4.19-3.56a6.8,6.8,0,0,1,4.45,1.54L358.8,336a5.57,5.57,0,0,0-3.33-1.26c-1.26,0-2,.65-2,1.46v0c0,.95.56,1.37,2.91,1.93,2.59.63,3.95,1.56,3.95,3.59v0c0,2.3-1.81,3.66-4.38,3.66A7.56,7.56,0,0,1,350.82,343.49Z" transform="translate(-182.5 -230.59)"/><path class="cls-1" d="M182.5,350.59H184l4.37,10.57,4.38-10.57h1.49L189,363h-1.23Z" transform="translate(-182.5 -230.59)"/><path class="cls-1" d="M196.82,350.59h1.39v12.27h-1.39Z" transform="translate(-182.5 -230.59)"/><path class="cls-1" d="M201,361.08l.86-1a5.84,5.84,0,0,0,4.21,1.74c1.65,0,2.73-.88,2.73-2.09v0c0-1.14-.61-1.79-3.19-2.33-2.82-.61-4.12-1.53-4.12-3.54v0c0-1.93,1.7-3.35,4-3.35a6.41,6.41,0,0,1,4.31,1.51L209,353a5.39,5.39,0,0,0-3.54-1.33c-1.6,0-2.61.88-2.61,2v0c0,1.16.63,1.8,3.33,2.38s4,1.6,4,3.47v0c0,2.1-1.75,3.47-4.19,3.47A7.18,7.18,0,0,1,201,361.08Z" transform="translate(-182.5 -230.59)"/><path class="cls-1" d="M212.82,357.73v-7.13h1.38v7c0,2.65,1.4,4.14,3.75,4.14s3.7-1.37,3.7-4.05v-7.13H223v7c0,3.58-2.05,5.43-5.12,5.43S212.82,361.2,212.82,357.73Z" transform="translate(-182.5 -230.59)"/><path class="cls-1" d="M230.86,350.51h1.3l5.59,12.36h-1.49l-1.44-3.24h-6.68l-1.46,3.24h-1.42Zm3.42,7.87-2.79-6.26-2.81,6.26Z" transform="translate(-182.5 -230.59)"/><path class="cls-1" d="M240.17,350.59h1.38v11h6.91v1.28h-8.29Z" transform="translate(-182.5 -230.59)"/><path class="cls-1" d="M251.14,350.59h1.39v12.27h-1.39Z" transform="translate(-182.5 -230.59)"/><path class="cls-1" d="M255.31,361.08l.86-1a5.84,5.84,0,0,0,4.21,1.74c1.65,0,2.73-.88,2.73-2.09v0c0-1.14-.61-1.79-3.19-2.33-2.82-.61-4.12-1.53-4.12-3.54v0c0-1.93,1.7-3.35,4-3.35a6.41,6.41,0,0,1,4.31,1.51l-.81,1.07a5.39,5.39,0,0,0-3.54-1.33c-1.6,0-2.61.88-2.61,2v0c0,1.16.63,1.8,3.33,2.38s4,1.6,4,3.47v0c0,2.1-1.75,3.47-4.19,3.47A7.18,7.18,0,0,1,255.31,361.08Z" transform="translate(-182.5 -230.59)"/><path class="cls-1" d="M267.34,350.59h8.87v1.26h-7.49V356h6.7v1.26h-6.7v4.29h7.57v1.26h-9Z" transform="translate(-182.5 -230.59)"/><path class="cls-1" d="M279.09,350.59h5.28a4.84,4.84,0,0,1,3.49,1.23,3.39,3.39,0,0,1,.95,2.42v0c0,2-1.4,3.23-3.33,3.58l3.77,5h-1.7L284,358.1h-3.51v4.77h-1.38Zm5.15,6.26c1.84,0,3.16-.95,3.16-2.52v0c0-1.51-1.16-2.42-3.14-2.42h-3.79v5Z" transform="translate(-182.5 -230.59)"/><path class="cls-1" d="M291.88,350.59h1.38v12.27h-1.38Z" transform="translate(-182.5 -230.59)"/><path class="cls-1" d="M296.86,350.59h1.3l7.73,9.84v-9.84h1.35v12.27h-1.1l-7.92-10.06v10.06h-1.35Z" transform="translate(-182.5 -230.59)"/><path class="cls-1" d="M310.17,356.77v0a6.16,6.16,0,0,1,6.15-6.35,6.47,6.47,0,0,1,4.58,1.63l-.89,1.05a5.23,5.23,0,0,0-3.74-1.4,4.79,4.79,0,0,0-4.66,5v0c0,2.93,1.88,5.1,4.86,5.1A5.78,5.78,0,0,0,320,360.6v-3.05h-3.74v-1.25h5.07v4.89a7.44,7.44,0,0,1-4.93,1.88A6,6,0,0,1,310.17,356.77Z" transform="translate(-182.5 -230.59)"/><path class="cls-1" d="M323.65,361.08l.86-1a5.84,5.84,0,0,0,4.21,1.74c1.65,0,2.74-.88,2.74-2.09v0c0-1.14-.61-1.79-3.19-2.33-2.82-.61-4.12-1.53-4.12-3.54v0c0-1.93,1.7-3.35,4-3.35a6.41,6.41,0,0,1,4.31,1.51l-.81,1.07a5.39,5.39,0,0,0-3.54-1.33c-1.6,0-2.61.88-2.61,2v0c0,1.16.63,1.8,3.33,2.38s4,1.6,4,3.47v0c0,2.1-1.75,3.47-4.19,3.47A7.18,7.18,0,0,1,323.65,361.08Z" transform="translate(-182.5 -230.59)"/><path class="cls-1" d="M335.13,356.77v0a6.18,6.18,0,0,1,6.21-6.35,6.39,6.39,0,0,1,4.79,1.95l-.95,1a5.33,5.33,0,0,0-3.86-1.68,4.81,4.81,0,0,0-4.75,5v0a4.84,4.84,0,0,0,4.75,5.07,5.33,5.33,0,0,0,4-1.77l.91.89a6.39,6.39,0,0,1-4.91,2.16A6.12,6.12,0,0,1,335.13,356.77Z" transform="translate(-182.5 -230.59)"/><path class="cls-1" d="M348.61,350.59h8.87v1.26H350V356h6.7v1.26H350v4.29h7.57v1.26h-9Z" transform="translate(-182.5 -230.59)"/><path class="cls-1" d="M360.35,350.59h1.3l7.73,9.84v-9.84h1.35v12.27h-1.1L361.7,352.8v10.06h-1.35Z" transform="translate(-182.5 -230.59)"/><path class="cls-1" d="M377.44,351.87h-4.12v-1.28H383v1.28h-4.12v11h-1.4Z" transform="translate(-182.5 -230.59)"/><path class="cls-1" d="M385.56,350.59h8.87v1.26h-7.49V356h6.7v1.26h-6.7v4.29h7.57v1.26h-9Z" transform="translate(-182.5 -230.59)"/><path class="cls-1" d="M397.3,350.59h5.28a4.84,4.84,0,0,1,3.49,1.23,3.39,3.39,0,0,1,.95,2.42v0c0,2-1.4,3.23-3.33,3.58l3.77,5h-1.7l-3.56-4.77h-3.51v4.77H397.3Zm5.16,6.26c1.84,0,3.16-.95,3.16-2.52v0c0-1.51-1.16-2.42-3.14-2.42h-3.79v5Z" transform="translate(-182.5 -230.59)"/><path class="cls-2" d="M265.5,243.6l2.69,2.69,3.72,3.71a35.27,35.27,0,0,1,25-10.36v-9.06A44.31,44.31,0,0,0,265.5,243.6Z" transform="translate(-182.5 -230.59)"/><path class="cls-3" d="M296.93,239.64a35.27,35.27,0,0,0-25,10.36l-3.72-3.71A40.51,40.51,0,0,0,256.29,275h14.46a26.09,26.09,0,0,1,7.67-18.51l-3-3a30.33,30.33,0,0,1,21.52-8.92Z" transform="translate(-182.5 -230.59)"/><path class="cls-4" d="M270.75,275h0v0h2.73a23.09,23.09,0,0,1,7-16.43l-2.07-2.07A26.09,26.09,0,0,0,270.75,275Z" transform="translate(-182.5 -230.59)"/><path class="cls-5" d="M296.93,234.39v10.2a30.33,30.33,0,0,1,21.52,8.92L322,250l3.71-3.71A40.51,40.51,0,0,0,296.93,234.39Z" transform="translate(-182.5 -230.59)"/><path class="cls-6" d="M296.93,244.59a30.33,30.33,0,0,0-21.52,8.92l3,3a26.17,26.17,0,0,1,37,0l3-3A30.33,30.33,0,0,0,296.93,244.59Z" transform="translate(-182.5 -230.59)"/><path class="cls-7" d="M278.42,256.52l0,0,2.07,2.07A23.1,23.1,0,0,1,296.66,252c8.09,0,15.5,6,15.79,6.23l3-1.71a26.17,26.17,0,0,0-37,0Z" transform="translate(-182.5 -230.59)"/><path class="cls-8" d="M266.49,275h-10.2a40.51,40.51,0,0,1,11.9-28.73l-2.69-2.69a44.3,44.3,0,0,0-13,31.42h0a44.3,44.3,0,0,0,13,31.43l2.69-2.69,3.71-3.71,3.5-3.5A30.32,30.32,0,0,1,266.49,275Z" transform="translate(-182.5 -230.59)"/><path class="cls-9" d="M325.67,303.76,322,300.05a35.29,35.29,0,0,1-25,10.36v9.06a44.3,44.3,0,0,0,31.42-13Z" transform="translate(-182.5 -230.59)"/><path class="cls-10" d="M332.32,275h-4.95a30.32,30.32,0,0,1-8.92,21.52l3.5,3.5,3.71,3.71A40.53,40.53,0,0,0,337.57,275Z" transform="translate(-182.5 -230.59)"/><path class="cls-11" d="M268.2,303.76l-2.69,2.69a44.29,44.29,0,0,0,31.42,13v-3.81A40.51,40.51,0,0,1,268.2,303.76Z" transform="translate(-182.5 -230.59)"/><path class="cls-12" d="M318.45,296.55a30.31,30.31,0,0,1-21.52,8.92V301.2A26.17,26.17,0,0,1,270.75,275h-4.26a30.32,30.32,0,0,0,8.92,21.52l-3.5,3.5-3.71,3.71a40.51,40.51,0,0,0,28.73,11.9v-5.25a35.29,35.29,0,0,0,25-10.36Z" transform="translate(-182.5 -230.59)"/><path class="cls-13" d="M270.75,275.06a26.17,26.17,0,0,0,26.18,26.15l-.27-2.85a23.17,23.17,0,0,1-23.18-23.17s0-.08,0-.12Z" transform="translate(-182.5 -230.59)"/></svg>