<?xml version="1.0" encoding="UTF-8" standalone="no"?>
<svg
   xmlns:dc="http://purl.org/dc/elements/1.1/"
   xmlns:cc="http://creativecommons.org/ns#"
   xmlns:rdf="http://www.w3.org/1999/02/22-rdf-syntax-ns#"
   xmlns:svg="http://www.w3.org/2000/svg"
   xmlns="http://www.w3.org/2000/svg"
   viewBox="0 0 547.8667 463.14667"
   height="463.14667"
   width="547.8667"
   xml:space="preserve"
   id="svg2"
   version="1.1"><metadata
     id="metadata8"><rdf:RDF><cc:Work
         rdf:about=""><dc:format>image/svg+xml</dc:format><dc:type
           rdf:resource="http://purl.org/dc/dcmitype/StillImage" /></cc:Work></rdf:RDF></metadata><defs
     id="defs6" /><g
     transform="matrix(1.3333333,0,0,-1.3333333,0,463.14667)"
     id="g10"><g
       transform="scale(0.1)"
       id="g12"><path
         id="path14"
         style="fill:#2ca380;fill-opacity:1;fill-rule:nonzero;stroke:none"
         d="M 1580.38,693.262 H 943.488 L 2445.95,3443.84 c 10.04,18.3 29.25,29.67 50.11,29.67 h 636.9 L 1630.5,722.922 c -10.04,-18.293 -29.25,-29.66 -50.12,-29.66" /><path
         id="path16"
         style="fill:#64c9a7;fill-opacity:1;fill-rule:nonzero;stroke:none"
         d="m 3086.54,693.262 h -540.3 c -43.46,0 -71.03,46.57 -50.12,84.668 l 935.06,1299.41 c 10.35,18.86 9.24,41.93 -2.88,59.71 l -572.94,828.25 277.38,508.21 966.29,-1336.46 c 12.12,-17.78 13.23,-40.85 2.88,-59.71 L 3136.65,722.922 c -10.04,-18.293 -29.25,-29.66 -50.11,-29.66" /><path
         id="path18"
         style="fill:#64c9a7;fill-opacity:1;fill-rule:nonzero;stroke:none"
         d="m 2202.39,3473.5 -764.34,-11.11 H 801.156 c -20.871,0 -40.078,-11.37 -50.121,-29.67 L 7.05469,2077.21 c -10.03516,-18.28 -9.32032,-40.58 1.86719,-58.18 L 942.871,693.262 1247.85,1250.46 799.285,1861.93 1395.3,1861.72 c 20.66,0.2 39.6,11.54 49.55,29.66 l 200.55,374.8 c 21.02,38.3 -6.95,85.07 -50.64,84.67 l -770.627,-7 276.857,504.42 c 9.96,18.16 28.96,29.5 49.67,29.66 l 797.11,6.23 c 20.86,0.17 39.99,11.68 49.88,30.05 l 255.9,475.01 c 20.7,38.41 -7.53,84.92 -51.16,84.28" /><path
         id="path20"
         style="fill:#94cdb1;fill-opacity:1;fill-rule:nonzero;stroke:none"
         d="m 1628.97,720.34 -96.46,505.44 32.17,-7.05 86.97,-457.082 -22.68,-41.308 m -70.38,530.43 -32.19,7.06 -21.5,112.64 19.63,59.26 34.06,-178.96 m -64.76,177.72 -38.51,201.79 23.03,42.16 35.32,-185.6 -19.84,-58.35" /><path
         id="path22"
         style="fill:#ffffff;fill-opacity:1;fill-rule:nonzero;stroke:none"
         d="m 1478.35,1672.45 v 0 l 7.86,14.38 -7.86,-14.38" /><path
         id="path24"
         style="fill:#94cdb1;fill-opacity:1;fill-rule:nonzero;stroke:none"
         d="m 1478.35,1672.45 v 0 l 7.86,14.38 6.01,11.01 -13.87,-25.4 m 13.87,25.4 41.6,76.14 110.2,96.23 -19.26,-56.64 -132.54,-115.73 m 170.43,148.81 18.57,56.04 374.74,327.21 -7.15,-46.07 -386.16,-337.18" /><path
         id="path26"
         style="fill:#ffffff;fill-opacity:1;fill-rule:nonzero;stroke:none"
         d="m 2774.71,2817.66 18.08,33.1 v 0 l 0.02,0.04 36.57,66.95 v 0 l -54.67,-100.09" /><path
         id="path28"
         style="fill:#94cdb1;fill-opacity:1;fill-rule:nonzero;stroke:none"
         d="m 2083.94,2214.5 7.16,46.08 618.77,540.29 82.92,49.89 -18.08,-33.1 -690.77,-603.16 m 708.87,636.3 27.72,51.07 -16.33,-9.82 -596.8,115.07 15.09,27.63 597.47,-115.19 5.02,-9.5 -0.18,-0.32 0.18,0.32 4.19,7.73 0.21,-0.04 -36.57,-66.95 m 31.99,58.94 -4.27,-7.87 v 0 l 4.27,7.87" /><path
         id="path30"
         style="fill:#ffffff;fill-opacity:1;fill-rule:nonzero;stroke:none"
         d="m 1203.96,693.25 v 0 l 30.03,0.012 v 0 l -30.03,-0.012" /><path
         id="path32"
         style="fill:#94cdb1;fill-opacity:1;fill-rule:nonzero;stroke:none"
         d="m 1233.99,693.262 h -30.03 l 25.09,522.768 32.92,60.28 -27.98,-583.048" /><path
         id="path34"
         style="fill:#ffffff;fill-opacity:1;fill-rule:nonzero;stroke:none"
         d="m 1880.41,1180.44 17.46,31.97 -0.05,-0.32 -17.41,-31.65" /><path
         id="path36"
         style="fill:#5fb796;fill-opacity:1;fill-rule:nonzero;stroke:none"
         d="m 1880.3,1180.25 -0.06,0.01 17.65,32.27 -0.02,-0.12 -17.46,-31.97 -0.11,-0.19" /><path
         id="path38"
         style="fill:#aed9c2;fill-opacity:1;fill-rule:nonzero;stroke:none"
         d="m 2820.53,2901.87 v 0 l 4.27,7.87 -4.27,-7.87" /><path
         id="path40"
         style="fill:#aed9c2;fill-opacity:1;fill-rule:nonzero;stroke:none"
         d="m 2824.8,2909.74 0.18,0.32 v 0 l -0.18,-0.32" /><path
         id="path42"
         style="fill:#ffffff;fill-opacity:1;fill-rule:nonzero;stroke:none"
         d="m 2561.13,3473.51 h -33.92 l -0.04,0.08 33.95,-0.06 0.01,-0.02" /><path
         id="path44"
         style="fill:#5fb796;fill-opacity:1;fill-rule:nonzero;stroke:none"
         d="m 2829.17,2917.79 -9.21,1.77 -292.75,553.95 h 33.92 l 280.92,-532 -12.88,-23.72" /><path
         id="path46"
         style="fill:#aed9c2;fill-opacity:1;fill-rule:nonzero;stroke:none"
         d="m 2824.98,2910.06 -5.02,9.5 9.21,-1.77 -4.19,-7.73" /><path
         id="path48"
         style="fill:#ffffff;fill-opacity:1;fill-rule:nonzero;stroke:none"
         d="m 1243.83,693.25 v 0 l 31.69,0.012 -31.69,-0.012 m 22.42,590.9 h -0.04 l 9.43,17.18 -9.39,-17.18" /><path
         id="path50"
         style="fill:#5fb796;fill-opacity:1;fill-rule:nonzero;stroke:none"
         d="m 1275.52,693.262 h -31.68 l 188.53,554.468 -166.12,36.42 9.39,17.18 5.61,10.23 160.83,-35.25 51.75,152.18 11.07,-58.02 -33.33,-100.63 54.83,-12.01 6.11,-32.05 -70.66,15.49 -186.33,-548.008 m 589.73,459.578 -300.57,65.89 -6.09,32.04 321.65,-70.51 -14.99,-27.42 m 32.64,59.69 150.92,971.3 35.13,30.67 -143.63,-924.4 -42.42,-77.57 m -373.36,217.2 -10.86,57.11 111.09,326.73 37.89,33.08 -138.12,-416.92" /><path
         id="path52"
         style="fill:#ffffff;fill-opacity:1;fill-rule:nonzero;stroke:none"
         d="m 1781.86,2228.08 40.19,73.61 0.03,0.02 -40.22,-73.63" /><path
         id="path54"
         style="fill:#5fb796;fill-opacity:1;fill-rule:nonzero;stroke:none"
         d="m 1644.02,1870.21 95,279.41 42.84,78.46 40.22,73.63 270.29,162.47 72.16,464.47 42.42,77.56 -81.09,-521.9 678.34,407.74 8.27,-1.59 -102.6,-89.59 -589.98,-354.97 -28.79,-185.32 -35.14,-30.68 30.43,195.85 -286.46,-164.73 -118.71,-358.33 -37.2,-32.48" /><path
         id="path56"
         style="fill:#aed9c2;fill-opacity:1;fill-rule:nonzero;stroke:none"
         d="m 1564.68,1218.73 -32.17,7.05 -6.11,32.05 32.19,-7.06 6.09,-32.04 m -59.78,151.74 -11.07,58.02 19.84,58.35 10.86,-57.11 -19.63,-59.26 m 119.86,443.1 19.26,56.64 37.2,32.48 -18.57,-56.04 -37.89,-33.08 m 424.05,370.26 7.15,46.07 35.14,30.68 -7.16,-46.08 -35.13,-30.67" /><path
         id="path58"
         style="fill:#ffffff;fill-opacity:1;fill-rule:nonzero;stroke:none"
         d="m 2792.79,2850.76 0.02,0.04 -0.02,-0.04" /><path
         id="path60"
         style="fill:#aed9c2;fill-opacity:1;fill-rule:nonzero;stroke:none"
         d="m 2709.87,2800.87 102.6,89.59 -8.27,1.59 16.33,9.82 -27.72,-51.07 -0.02,-0.04 -82.92,-49.89" /><path
         id="path62"
         style="fill:#231f20;fill-opacity:1;fill-rule:nonzero;stroke:none"
         d="M 1399.26,259.43 H 1153.19 V 44.8008 h 282.92 V 7.21875 H 1108.75 V 533.32 h 325.56 V 495.738 H 1153.19 V 297.012 h 246.07 V 259.43" /><path
         id="path64"
         style="fill:#231f20;fill-opacity:1;fill-rule:nonzero;stroke:none"
         d="m 1539.09,198.73 c 0,-49.871 10,-89.191 29.99,-117.9683 19.99,-28.7929 48.17,-43.1914 84.55,-43.1914 53.23,0 91.06,23.4883 113.46,70.4607 V 291.59 c -22.4,50.82 -59.98,76.242 -112.74,76.242 -36.37,0 -64.67,-14.281 -84.91,-42.812 -20.23,-28.559 -30.35,-70.649 -30.35,-126.29 z m -43.72,7.579 c 0,60.711 13.55,109.07 40.65,145.07 27.1,36.019 63.89,54.031 110.38,54.031 52.76,0 92.98,-20.84 120.69,-62.512 v 219.321 h 43 V 7.21875 h -40.47 L 1767.81,59.25 C 1740.11,19.7383 1699.4,0 1645.68,0 c -45.05,0 -81.36,18.1211 -108.94,54.3711 -27.58,36.2578 -41.37,85.2189 -41.37,146.8909 v 5.047" /><path
         id="path66"
         style="fill:#231f20;fill-opacity:1;fill-rule:nonzero;stroke:none"
         d="M 2045.67,66.8398 2164.55,398.18 H 2209 L 2063.02,7.21875 h -35.05 L 1881.27,398.18 h 44.44 L 2045.67,66.8398" /><path
         id="path68"
         style="fill:#231f20;fill-opacity:1;fill-rule:nonzero;stroke:none"
         d="m 2328.24,7.21875 h -43.36 V 398.18 h 43.36 z M 2277.29,511.09 c 0,8.14 2.64,15.031 7.95,20.648 5.29,5.633 12.52,8.442 21.68,8.442 9.15,0 16.43,-2.809 21.85,-8.442 5.42,-5.617 8.14,-12.508 8.14,-20.648 0,-8.141 -2.72,-14.961 -8.14,-20.461 -5.42,-5.508 -12.7,-8.258 -21.85,-8.258 -9.16,0 -16.39,2.75 -21.68,8.258 -5.31,5.5 -7.95,12.32 -7.95,20.461" /><path
         id="path70"
         style="fill:#231f20;fill-opacity:1;fill-rule:nonzero;stroke:none"
         d="m 2626.33,361.32 c -9.16,1.68 -18.91,2.532 -29.27,2.532 -26.98,0 -49.8,-7.532 -68.47,-22.582 -18.67,-15.051 -31.98,-36.918 -39.92,-65.579 V 7.21875 h -43 V 398.18 h 42.27 l 0.73,-62.149 c 22.88,46.25 59.61,69.379 110.2,69.379 12.04,0 21.55,-1.582 28.55,-4.699 l -1.09,-39.391" /><path
         id="path72"
         style="fill:#231f20;fill-opacity:1;fill-rule:nonzero;stroke:none"
         d="m 2791.1,38.3008 c 28.9,0 54.73,6.9805 77.5,20.9492 22.76,13.9688 39.32,32.6406 49.68,56.012 v 86 h -77.32 c -43.12,-0.492 -76.85,-8.371 -101.17,-23.672 -24.34,-15.301 -36.5,-36.32 -36.5,-63.051 0,-21.9296 8.13,-40.1093 24.39,-54.5585 16.26,-14.461 37.4,-21.6797 63.42,-21.6797 z M 2926.96,7.21875 c -4.34,12.29295 -7.11,30.47265 -8.31,54.56255 -15.18,-19.75 -34.52,-34.9922 -58,-45.711 C 2837.16,5.35938 2812.29,0 2786.04,0 c -37.58,0 -68,10.4688 -91.24,31.4297 -23.24,20.9609 -34.87,47.4492 -34.87,79.4923 0,38.058 15.84,68.168 47.51,90.34 31.68,22.148 75.83,33.238 132.44,33.238 h 78.4 v 44.441 c 0,27.938 -8.61,49.918 -25.84,65.938 -17.22,16.019 -42.33,24.031 -75.33,24.031 -30.11,0 -55.05,-7.711 -74.79,-23.121 -19.76,-15.418 -29.63,-33.969 -29.63,-55.648 l -43.36,0.359 c 0,31.082 14.45,57.988 43.36,80.77 28.91,22.75 64.43,34.14 106.59,34.14 43.59,0 77.98,-10.898 103.15,-32.699 25.18,-21.813 38.13,-52.223 38.85,-91.242 V 96.4688 c 0,-37.8204 3.98,-66.1172 11.93,-84.9102 V 7.21875 h -46.25" /></g></g></svg>