<?xml version="1.0" encoding="utf-8"?>
<!-- Generator: Adobe Illustrator 21.1.0, SVG Export Plug-In . SVG Version: 6.00 Build 0)  -->
<svg version="1.1" id="Lager_1" xmlns="http://www.w3.org/2000/svg" xmlns:xlink="http://www.w3.org/1999/xlink" x="0px" y="0px"
	 viewBox="0 0 224.3 322.5" style="enable-background:new 0 0 224.3 322.5;" xml:space="preserve">
<g>
	<path d="M0,224.3c0-30,0-60,0-90c5.3-0.2,10.8,0,16-0.7c48.9-6.8,84.2-32.6,106.1-76.6C131,39.1,134.5,19.8,135,0
		c29.8,0,59.5,0,89.3,0c0,4,0,8,0,12c-0.8,7-1.4,14.1-2.5,21.1c-8.6,54.4-33.6,100-75.1,136.1C112.6,198.8,72.9,216.5,28,222
		C18.7,223.2,9.3,223.5,0,224.3z"/>
	<path d="M224.3,232.5c0,30,0,59.9,0,90c-74.8,0-149.5,0-224.3,0c0-30,0-60,0-90c1.4,0.1,2.7,0.3,4.1,0.3c72,0,144.1,0,216.1,0
		C221.5,232.8,222.9,232.6,224.3,232.5z"/>
</g>
</svg>
