<?xml version="1.0" encoding="utf-8"?>
<!-- Generator: Adobe Illustrator 21.1.0, SVG Export Plug-In . SVG Version: 6.00 Build 0)  -->
<svg version="1.1" id="Layer_1" xmlns="http://www.w3.org/2000/svg" xmlns:xlink="http://www.w3.org/1999/xlink" x="0px" y="0px"
	 viewBox="0 0 397.3 536.7" style="enable-background:new 0 0 397.3 536.7;" xml:space="preserve">
<style type="text/css">
	.st0{fill:#1A171B;}
</style>
<title>ericsson</title>
<path class="st0" d="M394.5,35.6c-4.4-13.3-14-24.4-26.6-30.6c-12.1-6-26.5-7.5-50.4,0.5L46.2,95.9c-23.9,8-34.6,17.8-40.7,29.9
	c-13.1,26.1-2.5,57.9,23.7,71c12.1,6.1,26.5,7.5,50.5-0.5L351,106c23.9-8,34.6-17.8,40.7-29.9C397.9,63.5,399,49,394.5,35.6z"/>
<path class="st0" d="M394.5,203.1c-4.4-13.3-14-24.3-26.5-30.6c-12.1-6.1-26.5-7.5-50.5,0.5L46.2,263.3c-23.9,8-34.6,17.8-40.7,29.9
	c-13,26.1-2.4,57.9,23.7,71c12.1,6,26.5,7.5,50.5-0.5L351,273.3c23.9-8,34.6-17.8,40.7-29.9C397.9,230.9,399,216.4,394.5,203.1z"/>
<path class="st0" d="M394.5,370.5c-4.4-13.3-14-24.4-26.5-30.6c-12.1-6.1-26.5-7.5-50.5,0.5L46.2,430.8c-23.9,8-34.6,17.8-40.7,29.9
	c-13.1,26.1-2.5,57.9,23.7,71c12.1,6.1,26.5,7.5,50.5-0.5L351,440.8c23.9-8,34.6-17.8,40.7-29.9C397.9,398.4,399,383.8,394.5,370.5z
	"/>
</svg>
