<?xml version="1.0" encoding="utf-8"?>
<!-- Generator: Adobe Illustrator 21.1.0, SVG Export Plug-In . SVG Version: 6.00 Build 0)  -->
<svg version="1.1" id="Lager_1" xmlns="http://www.w3.org/2000/svg" xmlns:xlink="http://www.w3.org/1999/xlink" x="0px" y="0px"
	 viewBox="0 0 604 148.7" style="enable-background:new 0 0 604 148.7;" xml:space="preserve">
<style type="text/css">
	.st0{fill:#0BB60B;}
	.st1{fill:#013A14;}
</style>
<g>
	<path class="st0" d="M57.5,146.8c-7.8-2.2-15.5-4.8-22.1-9.6c-3.9-2.8-6.5-2.2-9.4,1.3c-2,2.4-4.3,4.6-6.7,6.7
		c-4.9,4.4-11.1,4.2-15.3-0.3c-4-4.2-4.6-11.1,0.4-14.7c9.8-7.2,9-13.4,3.8-24c-13.9-28.2-9.9-56,10.5-79.8
		C39.2,2.4,66.2-5.4,96.2,3.6c30.2,9.1,48.2,30.5,52.4,62c5.4,41.1-26.4,79.6-67.6,82.9C79.7,148.7,66.4,149.2,57.5,146.8 M75,19.3
		C44.3,19.4,19.5,44,19.5,74.2c0,30.1,25.6,55.6,55.7,55.7c30.6,0.1,55.5-25,55.3-55.7C130.4,43.8,105.4,19.2,75,19.3z"/>
	<path class="st1" d="M203.3,112.5c-6,0-11.1,0-16.1,0c-1-4.8-1.2-76.3-0.2-82.8c0.9-0.1,1.8-0.2,2.8-0.2c4.1,0,8.2,0,13,0
		c0,11,0,21.7,0,32.7c11.8,0,22.9,0,34.6,0c0-9.4,0.2-18.6-0.1-27.8c-0.1-4,1.1-5.2,5-4.9c3.9,0.3,7.8,0.1,12.1,0.1
		c0,27.8,0,55.3,0,82.7c-0.5,0.2-0.9,0.5-1.2,0.5c-15.8,1.1-15.8,1.1-15.8-14.5c0-6.2,0-12.5,0-19c-11.6,0-22.6,0-34.1,0
		C203.3,90,203.3,100.9,203.3,112.5z"/>
	<path class="st1" d="M371.2,112.8c0-12.4,0.1-24,0-35.6c0-4.7-2.5-7.9-7.2-8.8c-4.9-1-9,0.5-11.5,5.1c-1.2,2.3-1.4,4.9-1.4,7.5
		c0,8.5,0,17,0,25.4c0,1.9,0,3.8,0,6.3c-4.9,0-9.1-0.1-13.4,0c-2.3,0-3.1-1-3.1-3.2c0-17.9,0-35.8,0-53.6
		c11.2-2.3,15.3-1.5,16.5,3.7c5.7-4.9,12-7.4,19.6-6c5.4,1,9.5,3.5,12.8,8.3c5.9-7.2,13.3-9.9,22.5-8.2c8.5,1.6,14.8,7.3,15.9,16
		c1.7,14.1,0.4,28.3,0.8,42.7c-5.4,0-10.3,0-15.9,0c0-8.6,0-17.2,0-25.8c0-2.8,0.1-5.5,0-8.3c-0.2-6.8-3.6-10.4-9.5-10.3
		c-5.7,0.1-9.6,4-9.7,10.4c-0.2,9.5-0.3,18.9,0,28.4c0.1,4.5-0.9,6.6-5.8,5.9C378.5,112.4,375.3,112.8,371.2,112.8z"/>
	<path class="st1" d="M557.5,88.1c-13.4,0-26.5,0-39.9,0c0.9,6.4,4.5,9.9,10.1,11.3c5.1,1.3,10.7,1,13.3-3.6c3-5.3,6.3-3.8,10.2-2.6
		c2,0.7,4.1,1.4,6,2.1c-2.7,13.3-18.3,21.9-34.3,17.7c-15.9-4.3-25-21-20.7-38.3c3.9-15.7,18.7-24.6,35-21.1
		C552.4,56.9,560.8,70.9,557.5,88.1z M541.4,76.4c-1.5-7.4-5.4-10.3-12.6-9.9c-6.1,0.3-9.9,3.8-10.7,9.9
		C525.8,76.4,533.4,76.4,541.4,76.4z"/>
	<path class="st1" d="M282.5,88.5c1,6.4,4.9,9.9,10.8,11.1c5.6,1.2,10.8-0.1,13.9-5.3c1.6-2.6,3-3,5.6-2c3.1,1.2,6.3,2,9.6,3
		c-3.7,10.7-10.8,16.7-21.5,18.3c-11.4,1.7-21.1-1.7-28.4-10.6c-8.1-9.8-8.7-26.1-1.6-37.1c7-10.9,19-15.4,32.5-12.1
		c13.2,3.2,22.4,18.1,19.9,31.5c-0.7,3.5-3,2.5-4.9,2.5c-11.6,0.1-23.2,0.1-34.8,0.1C283.5,88.1,283.3,88.2,282.5,88.5z M283.3,75.9
		c5.8,1,19,0.9,23.4-0.3c-1.9-6.8-5.3-9.3-12.2-9.2C288.3,66.6,284.6,69.7,283.3,75.9z"/>
	<path class="st1" d="M490.1,112.5c-5.8,0-10.8,0-16.4,0c0-11.1,0-21.8,0-32.6c0-4.3-0.8-8.3-5-10.6c-6.9-3.7-14.7,0.8-15,9.1
		c-0.3,9-0.1,18.1-0.1,27.2c0,2.1,0,4.3,0,6.7c-5.5,0.9-10.7,0.5-16.2,0.4c0-19.2,0-38,0-56.9c11.7-2.2,15.6-1.4,16.5,3.8
		c3.5-2.3,6.6-4.9,10.8-5.7c13.7-2.6,24.4,4.9,25.3,19.3C490.7,86,490.1,99,490.1,112.5z"/>
	<path class="st1" d="M603.6,69.1c-3.5,0-6.8,0-10.7,0c0,8.3-0.4,16.3,0.1,24.3c0.5,6.8,6.3,4,10.9,4.7c0,3.7-0.1,7.6,0,11.4
		c0.1,2.5-1.5,3.1-3.2,3.3c-12.1,1.8-24.4-1.4-24.6-18.2c-0.1-8.2,0-16.5,0-25.1c-3.5-0.2-6.8-0.3-10.2-0.5c0-4.6,0-8.8,0-13.1
		c10.6-2.7,10.6-2.7,12.2-17.9c4.6-0.7,9.2-0.5,14.4,0c0,5.6,0,11.1,0,17c4,0,7.4,0,11.1,0C603.6,59.9,603.6,64.3,603.6,69.1z"/>
	<path class="st0" d="M107,79c0,5.9-0.1,11.8,0,17.7c0.1,3.2-1,4.7-4.4,4.6c-4.9-0.2-9.9-0.1-14.8,0c-3.1,0.1-4.3-1.2-4.2-4.2
		c0.1-5.1-0.1-10.3,0-15.4c0.1-2.9-0.8-4.4-4-4.3c-18,0.4-14.3-2.7-14.7,13.8c-0.2,11.9,0.9,9.9-10.1,10c-13,0.1-13,0-13-12.9
		c0-8.7,0.1-17.3-0.1-26c-0.1-3.5,0.9-5.8,4-7.7c8.3-5.3,16.5-10.7,24.5-16.5c3.1-2.3,5.3-2.1,8.4,0c8,5.7,16.2,11.2,24.5,16.5
		c3.1,2,4.1,4.2,4,7.8C106.8,68,107,73.5,107,79z"/>
</g>
</svg>
