<?xml version="1.0" encoding="utf-8"?>
<!-- Generator: Adobe Illustrator 21.1.0, SVG Export Plug-In . SVG Version: 6.00 Build 0)  -->
<svg version="1.1" xmlns="http://www.w3.org/2000/svg" xmlns:xlink="http://www.w3.org/1999/xlink" x="0px" y="0px"
	 viewBox="0 0 708.4 330.1" style="enable-background:new 0 0 708.4 330.1;" xml:space="preserve">
<style type="text/css">
	.st0{fill:#F5C00A;}
	.st1{fill:#172C43;}
</style>
<g id="Lager_1">
	<g>
		<g>
			<path class="st0" d="M522.2,170.5c4.3-0.6,4.3-0.6,5.6,3c1.5,4.2,3.1,8.4,4.8,12.9c1.9-3.3,3.6-6.2,1.6-10c-1-1.8-1.8-3.8-2-5.9
				c3.8-0.5,3.3-0.9,4.5,2.6c0.3,0.9,0.7,1.9,1,2.8c0,0.1,0.1,0.2,0.3,0.3c1.3-0.6,1.2-2.1,1.6-3.2c1.1-2.9,1.1-2.9,4.6-2.5
				c-0.1,1.9-0.9,3.7-1.7,5.2c-2.1,3.9-0.9,7.1,1.3,10.8c1.7-4.6,3.3-8.8,4.8-13c1.3-3.5,1.3-3.5,5.4-3.1c-0.3,2.2-1.5,4.2-2.3,6.2
				c-1.8,4.5-3.6,9-5.5,13.5c-0.4,1-0.8,1.9-2.4,1.9c-1.5-0.1-2.2-0.5-2.8-1.9c-0.9-2.1-1.5-4.4-3.1-6.9c-1.2,2.8-2.1,5.2-3.2,7.5
				c-0.8,1.7-3.7,1.9-4.4,0.2C527.7,184.1,525,177.3,522.2,170.5z"/>
			<path class="st0" d="M693.7,178.6c0,3.9-0.1,7.5,0,11.2c0,1.5-0.4,2.2-2.1,2.2c-1.6,0-2.2-0.5-2.2-2.1c0.1-5.7,0-11.5,0-17.2
				c0-0.9-0.5-2.2,0.9-2.5c1.2-0.3,2.4-0.2,3.3,1.1c1.5,2,3.1,3.9,4.6,5.9c1.7,2.1,3.4,4.2,5.7,6.2c0-3.6,0.1-7.3,0-10.9
				c-0.1-1.7,0.4-2.4,2.3-2.4c2,0,2.2,0.9,2.2,2.5c-0.1,5.6,0,11.2-0.1,16.8c0,0.9,0.5,2.2-0.9,2.4c-1.2,0.2-2.4,0.3-3.4-0.9
				c-2.5-3.1-5-6.2-7.5-9.3C695.9,180.6,695.3,179.5,693.7,178.6z"/>
			<path class="st0" d="M612,180.8c0-2.7,0.1-5.5,0-8.2c-0.1-2.1,0.7-2.6,2.6-2.5c2.1,0.1,4.2,0,6.4,0.1c5.8,0.3,9.6,4.2,9.8,10.1
				c0.2,6.5-3.2,10.9-9.1,11.6c-2.6,0.3-5.2,0-7.9,0.1c-1.3,0-1.7-0.5-1.7-1.8C612,187,612,183.9,612,180.8z M616.3,181.1
				c0,1.9,0,3.7,0,5.6c0,0.6,0,1.2,0.8,1.4c3.5,1.2,8-1.1,9-4.7c1.6-5.9-1.5-9.8-7.7-9.6c-1.5,0-2.3,0.4-2.2,2.1
				C616.4,177.6,616.3,179.4,616.3,181.1z"/>
			<path class="st0" d="M652.5,180.9c0-2.9,0.1-5.7,0-8.6c0-1.5,0.3-2.3,2-2.3c3.7,0.1,7.5,0.1,11.2,0c1.3,0,1.8,0.4,1.7,1.7
				c0,1.3-0.2,2.1-1.8,2.1c-2-0.1-4,0.1-6-0.1c-1.9-0.1-3,0.2-2.8,2.5c0.2,2.7,0,2.7,3,2.7c1.4,0,2.7,0,4.1,0
				c1.3-0.1,2.1,0.2,2.1,1.8c0,1.4-0.8,1.6-1.9,1.6c-1.5,0-3,0-4.5,0c-2.8,0-2.8,0.1-2.8,3c0,2.7,0,2.8,2.9,2.8c2.1,0,4.2,0,6.4,0
				c1.3,0,1.8,0.5,1.8,1.8c0,1.4-0.4,2-1.9,2c-3.9-0.1-7.7-0.1-11.6,0c-1.5,0-1.9-0.7-1.9-2C652.5,186.9,652.5,183.9,652.5,180.9z"
				/>
			<path class="st0" d="M575.1,181c0-3,0.1-6,0-9c0-1.5,0.5-2,1.9-2c3.7,0.1,7.5,0,11.2,0c1.2,0,1.9,0.2,1.8,1.6
				c-0.1,1.2,0,2.2-1.7,2.2c-2.4-0.1-4.7,0.1-7.1,0c-2-0.1-1.8,1.2-1.8,2.4c0.1,1.2-0.6,2.9,1.8,2.8c1.7-0.1,3.5,0,5.2,0
				c1.2,0,2.2,0,2.1,1.7c0,1.8-1.1,1.6-2.2,1.6c-1.2,0-2.5-0.1-3.7,0c-1,0.1-2.6-0.7-2.9,0.7c-0.4,1.4-0.2,3-0.1,4.4
				c0.1,0.6,1,0.5,1.6,0.5c2.4,0,4.7,0.1,7.1,0c1.5-0.1,1.9,0.5,1.9,1.9c0,1.5-0.7,1.9-2,1.8c-3.7-0.1-7.5-0.1-11.2,0
				c-1.4,0-2-0.5-1.9-1.9C575.2,187,575.1,184,575.1,181z"/>
			<path class="st0" d="M486.1,189.3c0.4-1.3,0.8-2.4,1.8-3.4c2.4,1.2,4.8,2.6,7.7,2.3c1.3-0.1,2.6-0.3,2.9-1.8
				c0.3-1.6-0.9-2.2-2.1-2.7c-1.8-0.6-3.6-1-5.3-1.7c-3.1-1.2-4.5-3.1-4.3-5.8c0.2-2.9,2-5.2,4.9-5.9c2.6-0.7,5.2-0.6,7.7,0.4
				c3.3,1.3,3.3,1.3,1,4.7c-2-0.9-4-1.9-6.3-1.7c-1.3,0.1-2.5,0.5-2.8,1.9c-0.3,1.6,0.8,2.3,2,2.7c1.8,0.6,3.6,1,5.3,1.6
				c3.5,1.3,4.7,3.1,4.4,6.4c-0.3,2.9-2.3,5.1-5.6,5.5C493.4,192.4,489.5,191.9,486.1,189.3z"/>
			<path class="st0" d="M395.2,192.1c-2.3,0.1-4.8-0.6-7.2-1.7c-1.6-0.7-1.3-1.7-0.7-3c0.7-1.4,1.4-1.4,2.6-0.7
				c1.6,1,3.4,1.6,5.3,1.6c1.5,0,3.2,0.2,3.7-1.7c0.4-2-1.2-2.5-2.6-3c-1.4-0.5-2.9-0.9-4.3-1.4c-3.7-1.3-4.9-3-4.6-6.2
				c0.3-3.1,2.4-5.3,5.8-5.8c2.8-0.4,5.5-0.1,8,1.2c0.9,0.5,1.9,0.9,1,2.2c-0.6,0.9-0.7,2.6-2.6,1.3c-1.6-1-3.5-1.3-5.4-1.1
				c-1.2,0.1-2.2,0.7-2.4,1.9c-0.2,1.3,0.6,2.2,1.7,2.5c2,0.7,4.1,1.1,6.1,1.9c3.5,1.4,4.9,4.4,3.7,7.9
				C402.4,190.6,399.6,192,395.2,192.1z"/>
			<path class="st0" d="M312.4,180.7c0-2.7,0.1-5.5,0-8.2c-0.1-1.7,0.3-2.5,2.3-2.4c3.5,0.1,7,0.1,10.5,0c1.2,0,2.2,0.1,2.2,1.7
				c0,1.7-0.8,2.1-2.3,2c-2.2-0.1-4.5,0-6.7,0c-2,0-1.7,1.4-1.7,2.6c0,1.2-0.4,2.7,1.6,2.7c2,0,4,0,6,0c1,0,1.6,0.3,1.7,1.5
				c0,1.2-0.4,1.9-1.7,1.9c-1.9,0-3.8,0.1-5.6,0c-2.5-0.1-2,1.7-2,3.1c0,1.3-0.3,2.8,1.9,2.7c2.5-0.1,5,0,7.5,0
				c1.4,0,1.6,0.6,1.6,1.8c0,1.1-0.1,1.9-1.6,1.9c-4,0-8,0-12,0c-1.4,0-1.6-0.7-1.6-1.9C312.4,187,312.4,183.8,312.4,180.7
				C312.4,180.7,312.4,180.7,312.4,180.7z"/>
			<path class="st0" d="M367.4,191.6c-4,0.5-4.1,0.5-5.5-3.1c-0.6-1.5-1.4-2.2-3-2c-1.1,0.1-2.3,0.1-3.4,0c-1.7-0.2-2.4,0.7-2.9,2.1
				c-1.3,3.4-1.3,3.3-5.2,3.1c-0.1-1.6,0.8-3,1.3-4.4c1.9-5.1,3.9-10.2,5.8-15.3c0.5-1.3,1.2-2,2.7-1.9c1.2,0.1,2,0.3,2.5,1.7
				C362.3,178.3,364.9,184.9,367.4,191.6z M354.2,183.4c2.3,0.1,4,0.5,6-0.4c-1.2-2.6-1.4-5.2-3.1-7.6
				C356.2,178,355.3,180.4,354.2,183.4z"/>
			<path class="st0" d="M430.3,183c0-1.1,0-2.2,0-3.4c0-1.7,0.5-3.8-0.3-5.1c-0.9-1.5-3.2-0.5-4.9-0.6c-1.6-0.1-1.8-0.9-1.8-2.2
				c0-1.4,0.7-1.7,1.8-1.6c4.9,0,9.7,0,14.6,0c1.1,0,1.9,0.2,1.8,1.6c0,1.2-0.1,2.3-1.8,2.1c-0.2,0-0.5,0-0.7,0
				c-4.5,0.2-4.5,0.2-4.5,4.6c0,3.7-0.1,7.5,0,11.2c0.1,1.8-0.6,2.3-2.4,2.3c-1.8,0-2-0.9-1.9-2.3
				C430.3,187.4,430.3,185.2,430.3,183z"/>
		</g>
		<g>
			<path class="st1" d="M192.6,101.6c1.1,1.4,2.9,2.5,3.1,4.5c0.1,0.6,0.1,1.4-0.5,1.7c-0.7,0.4-1.1-0.2-1.4-0.8
				c-1.2-2.4-3.1-3.7-5.7-4.5c-3.2-1-5.5-3.4-7.2-6.2c-3.4,1.9-4.2,3.6-2.8,7c0.5,1.3,0.4,1.8-0.6,2.7c-3.3,3.1-3.2,7.5,0.3,10.3
				c1.2,1,1.4,1.8,1.2,3.1c-0.2,1,0,2,0.4,2.9c1.1,2.9,3.9,5.1,6.1,4.6c2.2-0.4,4.7-3.9,4.7-6.6c0-2.8-1.5-4.6-4.7-5.4
				c-0.4-0.1-0.7-0.1-1.1-0.2c-0.7-0.1-1.1-0.5-1-1.3c0.1-0.8,0.8-0.9,1.4-0.9c3.5-0.3,7,2.3,7.7,5.8c0.7,3.4-0.4,6.4-2.7,9
				c-1.8,2-1.9,3.2,0.5,4.1c3,1.1,2.9,3.1,2.9,5.5c-0.1,11.4,0,22.7,0,34.1c0,0.7,0.2,1.5-0.5,2.3c-2.6,0.2-5.1-0.7-7.6-1.4
				c-27.1-7.5-47-29.9-50.3-57.7c-4.6-38.9,21.9-70.4,56.4-76.5c14.1-2.5,27.9-0.7,40.9,5.4c2.1,1,3.4,1,5.1-0.7
				c5.9-5.9,12-11.7,18-17.5c0.4-0.4,1-0.7,1.1-1.4c-0.3-0.9-1.2-1.2-2-1.7C234.7,9.3,213.1,4.5,189.7,7.3
				c-38.8,4.5-73.4,33.6-83,74.5c-6.9,29.4-0.5,56.1,16.9,80.5c5,7.1,11.2,13.1,16.8,19.7c4.5,5.2,8.9,10.5,13.3,15.7
				c1.4,1.7,2.8,3.5,4.1,5.4c2.8,4.1,4.3,8.6,4.3,13.7c0,5.7-0.6,11.5,0.4,17.2c1.7,10.3,7.6,17.4,17.1,21.6c1.5,0.6,3.1,1,4.7,1
				c1.4,0,2.8,0.1,4.1,0.3c5.6,0.7,8.9,4.2,8.6,9.3c-0.3,4.8-4,8.1-9.4,8.2c-3.9,0.1-7.7,0-11.6,0c-0.9,0-1.8,0-2.6,0.1
				c-1.3,0.1-2,0.9-2,2.2c0,1.3,0.6,2.2,1.9,2.3c1,0.1,2,0.1,3,0.1c17.4,0,34.7,0,52.1,0c1.5,0,3,0,4.5,0.4c4,1.2,6.4,4.5,6.3,8.7
				c-0.1,4.1-2.8,7.3-6.9,8.2c-1.5,0.3-3,0.3-4.5,0.3c-17,0-34,0-51,0c-1.1,0-2.3,0-3.4,0.1c-1.3,0.1-2.1,0.9-2.1,2.2
				c0,1.5,0.8,2.3,2.3,2.4c1,0.1,2,0,3,0c15.2,0,30.5,0,45.7,0c1.5,0,3-0.1,4.4,0.5c3.9,1.4,6.6,5.4,6,9.3c-0.6,4.2-3.8,7.2-8.1,7.6
				c-1.1,0.1-2.2,0-3.4,0c-12.9,0-25.7,0-38.6,0c-3.6,0-5.1,0.7-5.1,2.4c-0.1,1.8,1.4,2.6,5,2.6c10.6,0,21.2,0,31.9,0c1,0,2,0,3,0.1
				c1.8,0.3,2.6,1.5,2.6,3.2c-0.1,1.5-0.9,2.6-2.5,2.8c-0.5,0.1-1,0.1-1.5,0.1c-12.1,0-24.3,0.1-36.4,0c-4.9,0-8.4-3.9-8.3-8.8
				c0.1-4.7,3.5-8.3,8.2-8.6c1.1-0.1,2.2,0,3.4,0c13,0,26,0,39,0c3.3,0,4.6-0.7,4.5-2.6c-0.1-1.7-1.2-2.3-4.4-2.3c-15,0-30,0-45,0
				c-1.2,0-2.5,0-3.7,0c-4.8-0.3-8.2-3.8-8.4-8.4c-0.1-4.5,3.2-8.4,7.9-9c1.1-0.1,2.2-0.1,3.4-0.1c17.2,0,34.5,0,51.7,0
				c1,0,2,0.1,3-0.1c1.3-0.2,2-1.1,2-2.3c0-1.2-0.7-2.1-2.1-2.2c-1-0.1-2-0.1-3-0.1c-17.4,0-34.7,0-52.1,0c-1.6,0-3.2,0-4.8-0.5
				c-3.7-1.3-6.1-4.7-6-8.6c0.1-3.7,2.6-6.9,6.2-8c1.5-0.4,2.9-0.5,4.5-0.5c4.1,0,8.2,0,12.4,0c1.6,0,2.8-0.7,2.8-2.3
				c0-1.7-1.1-2.4-2.8-2.4c-4.3,0.1-8.5-0.6-12.4-2.5c-12.6-6.2-19.1-16.4-19.8-30.3c-0.2-4,0-8,0-12c0-4.6-1.3-8.8-4.1-12.6
				c-7.3-9.9-15.3-19.1-23.8-27.9c-15.5-16-25.3-34.9-28.9-56.8c-8.2-50.3,21.5-99.3,69.9-115.6c59-19.8,122.8,16.5,135.2,77.5
				c7.2,35.4-2.1,66.7-26.6,93.4c-8.1,8.8-16.2,17.7-23.5,27.2c-3.7,4.8-5.6,9.8-5.3,15.9c0.3,6.2,0.4,12.5-1.2,18.6
				c-3.7,14.4-16.8,24.9-31.7,25c-2.5,0-5,0.2-7.5-0.4c-4.9-1.1-7.9-4.3-8.3-9.3c-0.2-1.9-0.1-3.7-0.1-5.6c0-52.7,0-105.5,0-158.2
				c0-1.9,0.3-3.8-1.9-4.9c-2-1-3.9-0.8-5.7,0.2c-0.4,0.2-0.9,0.5-1.1,1c-0.7,1.7-2.1,1.7-3.6,1.8c-4.3,0.3-6,3.5-4,7.4
				c0.4,0.9,1,1.8,1.6,2.5c2.4,2.8,4.5,2.9,7.4,0.5c1-0.8,1.9-2.9,3.2-1.8c1.4,1.3-0.6,2.5-1.5,3.6
				C193.6,100.5,192.8,100.8,192.6,101.6z M224.8,96c-0.8,1-1.6,2.3-2.6,3.1c-3.4,2.7-8.5,1.5-10.3-2.1c-0.4-0.8-0.5-1.6,0.1-2.1
				c0.9-0.7,1.3,0.3,1.7,0.8c1.5,2,3.2,3.1,5.8,2c2.6-1.1,4.1-3.3,3.8-5.8c-0.4-2.8-2.2-4.2-5.6-4.3c-1,0-1.8,0-2.6-0.9
				c-2.5-2.8-3.8-3.1-6.4-2.2c-2.8,1-2.7,3.2-2.7,5.5c0,53.2,0,106.5,0,159.7c0,1-0.1,2,0.1,3c0.3,1.9,1.2,3.5,3.2,3.7
				c4.2,0.3,8.5,0.8,12.7-0.4c11.8-3.2,19.9-13.5,20.2-25.8c0.1-3.4,0.2-6.8,0-10.1c-0.6-8.2,2.2-15.2,7.4-21.4
				c7.1-8.5,14.2-17.1,21.8-25.3c10.5-11.3,18.5-24.1,23.6-38.7c4.1-12,5.5-24.3,4.9-36.9c-0.1-2.1-0.9-2.8-2.9-2.7
				c-2.1,0.1-4.2,0-6.4,0c-14.1,0-28.2,0-42.4,0c-2.9,0-3,0-3,2.7c0,7.2,0.1,14.5-0.1,21.7c0,2.2,0.8,2.9,2.8,2.6
				c0.9-0.1,1.7,0,2.6,0c6.4,0,12.7,0,18.9,0c0.5,1,0.2,1.7,0,2.4c-3.8,12.9-10.8,23.8-20.9,32.7c-9.7,8.5-21,13.8-33.7,16
				c-2.1,0.4-2.6-0.2-2.6-2.2c0.1-12.1,0-24.2,0-36.4c0-1.6,0.3-2.6,2.1-2.9c1.4-0.2,2.5-1.2,3.2-2.5c0.9-1.7,1.9-2.8,4.2-3
				c2-0.1,3.5-1.8,4.3-3.7c1-2.4,0.3-3.7-2.2-4.4c-1.2-0.3-2.4-0.5-3.7-0.5c-4.1,0.1-4.9,1-4.3,5.1c0,0.2-0.2,0.4-0.4,0.7
				c-1.6-0.5-1.8-1.7-2-3.1c-0.2-2.1,0.9-3.4,2.9-4.1c-1.3-1-2.2-1.6-3-2.4c-1.6-1.6-1.8-4.2-0.8-6.3c1.1-2.1,3-3.3,5.1-3
				c0.7,0.1,1.7,0.2,1.7,1.1c0,1-1,1-1.7,0.9c-1.9,0-3.1,0.8-3.4,2.7c-0.3,2,0.7,3.3,2.5,4.1c2.4,1.1,5,1.7,7.5,2.1
				c4.3,0.8,7-2.2,6.1-6.4c-0.3-1.4-0.9-2.6-2.1-3.4c-1.2-0.7-1.3-1.4-0.7-2.7C228.6,100.5,228.1,97.9,224.8,96z"/>
			<path class="st1" d="M344.8,111.7c-5.8,0-11.7,0-17.5,0c0.3,9.2,7.2,17.7,16.6,21.1c8.5,3.1,20.8,1.9,29.6-9.5
				c0.2,0,0.5-0.1,0.7,0c5.2,3.5,5.3,3.6,0.8,7.9c-9.5,9.1-20.8,11.8-33.2,7.5c-12.2-4.3-19.4-13.3-21.1-26.2
				c-2.3-17.8,10-33.5,28.5-35.6c17.5-2.1,32.7,11,34.8,27.4c1,7.5,1.1,7.5-6.5,7.5c-4.7,0-9.5,0-14.2,0c-1.1,0-2.2,0.3-3.4-0.5
				c0.1-1.7-0.4-4.1,0.5-5.2c1.1-1.3,3.5-0.4,5.3-0.5c4-0.1,7.9,0,11.9,0c-1.1-13-12.4-22.7-25.8-22.5
				c-12.7,0.2-23.9,10.3-24.5,22.5c4.4,0,8.7,0,13.1,0c0.9,0,1.8,0,2.6,0c1.4-0.1,2.1,0.3,1.9,1.9
				C344.7,108.7,344.8,110.1,344.8,111.7z"/>
			<path class="st1" d="M528.9,140.5c-17.8,0.1-31.9-13.9-32-31.7c-0.1-17.7,14-32.1,31.6-32.2c17.7-0.1,32.3,14.3,32.3,32
				C560.8,126.2,546.5,140.4,528.9,140.5z M528.9,83c-14.3-0.1-25.8,11.3-25.8,25.5c0,14,11.4,25.6,25.3,25.7
				c14.4,0.1,25.8-11.1,25.9-25.3C554.4,94.5,543.2,83.1,528.9,83z"/>
			<path class="st1" d="M676.6,140.5c-5,0-10,0-15,0c-2.6,0-2.6-0.1-2.6-3.2c0-3,0-3.1,2.6-3.1c9.7,0,19.5,0,29.2,0
				c4.9,0,9-3.1,10.5-7.6c1.5-4.3,0.1-9.3-3.5-12.2c-2.2-1.8-4.7-2.7-7.6-2.6c-6.5,0-13,0-19.5,0c-10.4,0-18-7.5-18-17.5
				c0-10,7.6-17.6,17.9-17.7c9.5-0.1,19,0,28.5,0c2.7,0,2.7,0.1,2.8,3c0,3.3,0,3.4-2.8,3.4c-9.5,0-19,0-28.5,0
				c-5.6,0-9.4,2.9-11.1,7.8c-1.9,6,1.6,12.5,7.7,14.1c1.6,0.4,3.2,0.5,4.8,0.5c6.4,0,12.7-0.1,19.1,0c9,0.2,16,6.6,17.1,15.8
				c0.9,7.9-4.1,15.9-12.3,18.4c-2.1,0.6-4.2,0.7-6.3,0.7C685.4,140.5,681,140.5,676.6,140.5z"/>
			<path class="st1" d="M455.9,121.9c0-4.6,0.1-9.2,0-13.9c-0.3-14.2-11.6-25.1-25.9-25c-14,0.1-25.1,11.2-25.3,25.3
				c-0.1,9.6,0,19.2,0,28.9c0,1,0.6,2.6-0.7,3c-1.6,0.6-3.5,0.6-5.1-0.1c-1.1-0.5-0.6-1.8-0.6-2.7c0-8.7,0-17.5,0-26.2
				c0-2.3,0.1-4.5,0.4-6.7c1.8-15.5,15.4-27.7,31.2-27.9c15.9-0.2,29.7,11.5,32,27c0.3,2.4,0.5,4.7,0.5,7.1c0,9,0,18,0,27
				c0,2.8-0.1,2.8-3.4,2.8c-2.9,0-3,0-3-2.8C455.9,132.4,455.9,127.2,455.9,121.9C455.9,121.9,455.9,121.9,455.9,121.9z"/>
			<path class="st1" d="M574.8,95.4c0-5.4,0.1-10.7,0-16.1c0-2.1,0.6-2.9,2.7-2.8c3.5,0.1,3.5,0,3.5,3.4c0,9.5,0,19,0,28.5
				c0.1,13.2,9.8,24.2,22.6,25.7c12.8,1.5,24.5-6.7,27.9-19.3c0.6-2.3,0.7-4.7,0.7-7.1c0-9.2,0-18.5,0-27.7c0-1.1-0.5-2.6,0.6-3.1
				c1.6-0.7,3.5-0.6,5.1-0.1c1.1,0.3,0.6,1.8,0.6,2.7c0,9.5,0,19,0,28.5c0,2-0.2,4-0.5,6c-2.5,14.8-14.8,25.8-29.7,26.5
				c-15.4,0.7-28.9-9-32.7-23.7c-0.7-2.7-0.9-5.4-1-8.2C574.8,104.2,574.8,99.8,574.8,95.4z"/>
			<path class="st1" d="M20.6,121.3c0-4.5-0.1-9,0-13.5c0.4-16.7,13.3-30.2,30-31.1c17.9-1,31.2,12.1,33.4,26.6
				c0.3,1.9,0.5,3.7,0.5,5.6c0,9.6,0,19.2,0,28.9c0,2.8-0.1,2.8-3,2.8c-3.3,0-3.4,0-3.4-2.8c0-9.7,0.1-19.5,0-29.2
				c-0.1-12-7.7-21.6-19.2-24.7c-15.8-4.2-31.8,7.8-32,24.1c-0.1,9.9,0,19.7-0.1,29.6c0,1,0.7,2.5-0.9,2.9c-1.6,0.3-3.3,0.5-4.8-0.2
				c-0.9-0.4-0.5-1.6-0.6-2.4C20.6,132.3,20.6,126.8,20.6,121.3C20.6,121.3,20.6,121.3,20.6,121.3z"/>
			<path class="st1" d="M6.5,101.1c-2.3,0-4.2,0-6,0c-0.8-0.9-0.5-2-0.5-2.9c0-6.2,0-12.5,0-18.7c0-2.9,0.1-2.9,2.9-2.9
				c3.5-0.1,3.5-0.1,3.5,3.3C6.5,86.9,6.5,93.8,6.5,101.1z"/>
			<path class="st1" d="M482.8,88.8c0,3.5,0,7,0,10.5c0,1.4-0.3,1.9-1.9,1.9c-4.6-0.1-4.6,0-4.6-4.5c0-5.9,0-11.7,0-17.6
				c0-2.6,0.1-2.6,3.2-2.6c3.1,0,3.2,0,3.2,2.6C482.8,82.4,482.8,85.6,482.8,88.8z"/>
			<path class="st1" d="M0,116.2c2.3-0.3,4.3,0.3,6.5-0.5c0,7.9,0,15.4,0,22.9c0,1.5-0.7,2-2,1.9c-0.9,0-1.7,0-2.6,0
				c-1.2,0-1.8-0.6-1.8-1.8C0,131.2,0,123.8,0,116.2z"/>
			<path class="st1" d="M476.3,116.2c2.3-0.1,4.3,0.2,6.5-0.4c0,7.8,0,15.3,0,22.8c0,1.5-0.7,2-2,1.9c-0.9,0-1.7,0-2.6,0
				c-1.2,0-1.8-0.6-1.8-1.8C476.3,131.2,476.3,123.8,476.3,116.2z"/>
			<path class="st1" d="M6.4,108.4c0.1,1.6-1.3,3.2-3,3.3c-1.6,0.1-3.2-1.3-3.3-2.9c-0.1-1.7,1.2-3.1,2.9-3.2
				C4.8,105.5,6.3,106.8,6.4,108.4z"/>
			<path class="st1" d="M355.4,108.4c0.1,1.7-1.2,3.2-2.8,3.3c-1.7,0.1-3.1-1.2-3.2-2.9c-0.1-1.7,1.1-3.1,2.9-3.2
				C354,105.5,355.3,106.6,355.4,108.4z"/>
			<path class="st1" d="M482.7,108.7c-0.1,1.6-1.6,3-3.2,3c-1.7-0.1-3-1.5-2.9-3.2c0.1-1.8,1.4-3,3.2-2.9
				C481.4,105.7,482.8,107.1,482.7,108.7z"/>
		</g>
	</g>
</g>
<g id="Lager_2">
</g>
</svg>
