<svg id="Paf" xmlns="http://www.w3.org/2000/svg" viewBox="0 0 793.53 300"><defs><style>.cls-1{fill:#fff;}.cls-2{fill:#f04149;}.cls-3{fill:#25ac61;}</style></defs><title>paf</title><path class="cls-1" d="M240.85,30.43C149.76-16.84,47.31,0,12,68c-34.92,67.25,8.84,159.31,97.77,207.08,1.06.57,2.1,1.17,3.17,1.73a240.15,240.15,0,0,0,71.52,24c68,11.12,131.13-11.13,157.34-61.6C377.12,171.17,331.93,77.7,240.85,30.43Z" transform="translate(0 -3.6)"/><path class="cls-2" d="M240.85,30.43C149.76-16.84,47.31,0,12,68c-34.92,67.25,8.84,159.31,97.77,207.08C87.28,230.41,59.06,174.15,47.3,149.87c-10.1-20.12-13.41-40.13-10.92-58.2a68.8,68.8,0,0,1,4.29-16.88c10-26.95,34.63-47.49,70.25-54.23,64.76-12.22,141.31,25.83,170.92,85s1.17,117.06-63.59,129.3c-19.61,3.7-40.3,2.78-60.38-1.92-8.81-1.75-3.26,8.19-3.26,8.19l29.87,59.65c68,11.12,131.13-11.13,157.34-61.6C377.12,171.17,331.93,77.7,240.85,30.43Z" transform="translate(0 -3.6)"/><path class="cls-3" d="M203.8,185c-12.52,3.92-24.35,4.07-36.84,2.57-27.5-3.83-51.93-22-63.95-43.52-15.34-27.44-11.81-61.9,22-74.82,35.05-13.4,73.54,7,91.47,35.59a72.23,72.23,0,0,1,9.65,23.43c-.44-11.08-4.29-22.6-10.85-33.06a88.45,88.45,0,0,0-47.77-36.62c25.67,3.83,49.15,20.45,62.25,41.2C249.52,131.09,245.69,171.87,203.8,185Z" transform="translate(0 -3.6)"/><path class="cls-3" d="M756.93,63.8V75.16h36.45v29.47H756.93V221H726.29V104.63h-20V75.16h20V64.38c0-16,5.09-29.62,14.71-39.24,9.37-9.38,22.31-14.34,37.41-14.34h15.12V40.27H781.9C765.34,40.27,756.93,48.19,756.93,63.8Zm-57.09,77.4V221H669.19V207.31a4.22,4.22,0,0,1-1.59,2.51c-6.73,5.66-19.59,13.73-41.79,13.73-35.11,0-72.91-24-72.91-76.78,0-19.94,7.11-38.42,20-52.07,13.5-14.26,32.6-22.12,53.77-22.12C671.13,72.58,699.84,99.51,699.84,141.2Zm-30.65-1.79c0-23.32-15.9-37.25-42.53-37.25-29.36,0-42.51,23.13-42.51,46,0,27,17.14,45.93,41.67,45.93,15.29,0,26.9-4.91,32.68-9.51,8.1-6.45,10.69-12,10.69-22.69ZM524.09,94.7c12.9,13.65,20,32.13,20,52.07,0,52.76-37.79,76.78-72.91,76.78-22.19,0-35.06-8.07-41.78-13.73a4.24,4.24,0,0,1-1.6-2.51V282.7H397.16V141.2c0-41.69,28.71-68.62,73.15-68.62C491.49,72.58,510.59,80.44,524.09,94.7Zm-11.24,53.5c0-22.91-13.15-46-42.51-46-26.63,0-42.53,13.93-42.53,37.25v22.52c0,10.73,2.6,16.24,10.69,22.69,5.78,4.6,17.39,9.51,32.68,9.51C495.71,194.13,512.85,175.24,512.85,148.2Z" transform="translate(0 -3.6)"/></svg>