<?xml version="1.0" encoding="utf-8"?>
<!-- Generator: Adobe Illustrator 21.1.0, SVG Export Plug-In . SVG Version: 6.00 Build 0)  -->
<svg version="1.1" id="Lager_1" xmlns="http://www.w3.org/2000/svg" xmlns:xlink="http://www.w3.org/1999/xlink" x="0px" y="0px"
	 viewBox="0 0 406.4 66.9" style="enable-background:new 0 0 406.4 66.9;" xml:space="preserve">
<style type="text/css">
	.st0{fill:#FCD843;}
	.st1{fill:#242021;}
</style>
<g>
	<path class="st0" d="M0,6.8C0.3,5.4,0.8,4,1.7,2.9C3.3,1.1,5.2,0,7.5,0c17.3,0,34.6,0,51.9,0c4,0,7.5,3.5,7.5,7.6
		c0,17.3,0,34.5,0,51.8c0,3.7-2.8,6.9-6.4,7.5c-0.1,0-0.2,0.1-0.4,0.1c-17.8,0-35.6,0-53.3,0c-0.1,0-0.2-0.1-0.2-0.1
		c-2.5-0.4-4.4-1.7-5.6-3.9c-0.5-0.9-0.7-1.9-1-2.8C0,42.4,0,24.6,0,6.8z M33.4,48.7C33.4,48.7,33.4,48.7,33.4,48.7
		c3.2,0,6.4,0,9.5,0c0.6,0,0.8,0.2,0.7,0.7c0,0.5,0,1,0,1.4c0.1,1.9,1.4,3.3,3.3,3.4c2,0.1,3.7-1.1,3.9-3c0.1-0.7,0.1-1.4,0-2.1
		c0-0.4,0.1-0.6,0.5-0.7c1.8-0.6,3.2-2.3,3.2-4.2c0-3,0.1-6.1,0-9.1c-0.1-2.9-1.7-5-4.5-5.7c-0.4-0.1-0.7-0.2-1.1-0.2
		c-0.4-0.1-0.6-0.2-0.6-0.6c-0.1-1.3-0.3-2.6-0.5-4c-0.3-2.4-1-4.6-2.5-6.6c-1.3-1.6-2.9-2.6-5.1-2.5c-0.5,0-1.1,0-1.6,0
		c-0.4,0-0.6-0.1-0.5-0.5c0-0.4,0-0.8,0-1.2c-0.1-0.7-0.5-1.2-1.2-1.2c-2.4,0-4.8,0-7.3,0c-0.7,0-1.1,0.4-1.2,1.1c0,0.3,0,0.5,0,0.8
		c0,1.2,0.1,1-1,1c-0.5,0-0.9,0-1.4,0c-1.6,0-3,0.6-4.2,1.7c-1,1-1.7,2.2-2.3,3.6c-1,2.5-1,5.1-1.4,7.7c-0.1,0.5-0.3,0.6-0.7,0.7
		c-0.8,0.2-1.7,0.4-2.4,0.7c-2.1,1.1-3,3-3.1,5.2c-0.1,2.9,0,5.7,0,8.6c0,2.3,1.1,3.9,3.3,4.7c0.2,0.1,0.4,0.3,0.4,0.5
		c0,0.6,0,1.2,0,1.8c0.1,1.8,1.5,3.2,3.2,3.4c2.1,0.2,3.6-0.9,4-2.8c0.1-0.7,0.1-1.4,0.1-2.1c0-0.5,0.1-0.6,0.6-0.6
		C27,48.7,30.2,48.7,33.4,48.7z"/>
	<path class="st1" d="M260.5,18.4c-1.5-0.5-2.9-1.1-4.4-1.5c-5.8-1.5-11.7-1.9-17.6-0.4c-5.1,1.3-8.6,4.4-10.2,9.5
		c-1,3.1-1,6.3-0.8,9.5c0.2,2.4,0.7,4.8,1.7,7c1.9,4.2,5.2,6.7,9.6,7.9c4.7,1.3,9.5,1.1,14.3,0.2c2.4-0.5,4.8-1.3,7.2-2
		c0,0,0,0.1,0,0.3c0,2.5,0,5.1,0,7.6c0,0.4-0.2,0.6-0.5,0.7c-4.8,1.7-9.8,2.3-14.9,2.3c-4.3,0-8.6-0.5-12.6-1.9
		c-7.2-2.5-11.8-7.6-13.6-14.9c-1.8-6.9-1.9-13.8,0.4-20.7c2.1-6.6,6.7-10.7,13.2-12.9c5.4-1.8,10.9-2.1,16.5-1.8
		c3.7,0.2,7.4,0.9,10.9,2.1c0.6,0.2,0.8,0.5,0.8,1.1C260.5,13.2,260.5,15.8,260.5,18.4z"/>
	<path class="st1" d="M300.6,45.9c0,4.2,0,8.4,0,12.6c0,0.5-0.1,0.8-0.7,0.7c-1.4-0.1-2.9,0-4.3,0c-0.3,0-0.7-0.2-1-0.4
		c-0.9-0.8-1.7-1.7-2.5-2.5c-0.3-0.3-0.5-0.3-0.9-0.1c-5.3,3.4-11.1,3.9-17,2.2c-4.5-1.3-7-4.7-7.3-9.3c-0.1-2-0.1-4,0.7-5.9
		c1.2-3,3.7-4.7,6.6-5.7c3.1-1,6.3-1.3,9.6-1.2c2.2,0.1,4.5,0.4,6.7,0.6c0.2,0,0.5,0.2,0.5-0.2c0-1.2,0-2.5-0.1-3.6
		c-0.3-1.9-1.6-3-3.4-3.5c-1.4-0.3-2.8-0.5-4.3-0.5c-4.3,0-8.5,0.7-12.7,1.7c-0.6,0.1-0.6,0-0.6-0.5c0-2.1,0-4.3,0-6.4
		c0-0.4,0.1-0.6,0.5-0.7c4.6-1,9.2-1.7,14-1.7c3.4,0.1,6.8,0.4,10,1.9c3.7,1.8,5.8,4.8,6.2,8.9c0.1,0.9,0.1,1.7,0.1,2.6
		C300.6,38.5,300.6,42.2,300.6,45.9z M291,46.4c0-0.8,0-1.7,0-2.5c0-0.4-0.1-0.6-0.6-0.7c-2.4-0.2-4.8-0.5-7.1-0.6
		c-1.3,0-2.6,0.2-3.8,0.5c-2.3,0.6-3.2,2.2-3.1,4.7c0.1,2.2,1.3,3.8,3.5,4.3c4,0.8,7.5-0.3,10.8-2.5c0.2-0.1,0.3-0.4,0.3-0.6
		C291.1,48.2,291,47.3,291,46.4z"/>
	<path class="st1" d="M151.9,45.8c0,4.2,0,8.5,0,12.7c0,0.6-0.2,0.7-0.7,0.7c-1.4,0-2.8,0-4.2,0c-0.5,0-0.8-0.1-1.1-0.5
		c-0.8-0.9-1.7-1.7-2.5-2.5c-0.3-0.4-0.6-0.4-1-0.1c-5.3,3.4-11,3.9-16.9,2.2c-4.6-1.3-7.1-4.8-7.3-9.6c-0.1-2.1,0-4.2,1-6.2
		c1.4-2.9,3.9-4.4,6.8-5.3c3.8-1.2,7.7-1.2,11.6-1c1.5,0.1,2.9,0.3,4.3,0.5c0.3,0,0.4,0.1,0.4-0.3c0-1,0-2.1-0.1-3.1
		c-0.2-2.2-1.5-3.5-3.5-4c-1.4-0.3-2.8-0.5-4.3-0.5c-4.3,0-8.6,0.7-12.8,1.7c-0.5,0.1-0.5,0-0.5-0.4c0-2.2,0-4.4,0-6.5
		c0-0.4,0.2-0.6,0.5-0.6c5.2-1.2,10.5-1.9,15.9-1.6c2.3,0.1,4.6,0.5,6.8,1.3c4.8,1.8,7.4,5.4,7.5,10.6
		C151.9,37.5,151.9,41.7,151.9,45.8C151.9,45.8,151.9,45.8,151.9,45.8z M142.3,46.5c0-0.8,0-1.7,0-2.5c0-0.5-0.1-0.7-0.6-0.7
		c-2.3-0.2-4.7-0.5-7-0.6c-1.3,0-2.6,0.1-3.8,0.5c-2.3,0.6-3.3,2.2-3.2,4.6c0.1,2.3,1.3,3.9,3.6,4.4c4,0.8,7.5-0.3,10.8-2.5
		c0.2-0.1,0.2-0.4,0.3-0.6C142.3,48.2,142.3,47.3,142.3,46.5z"/>
	<path class="st1" d="M367.2,43.7c-4,0-8,0-12,0c-0.5,0-0.6,0.1-0.6,0.6c0.2,3.1,1.8,5.2,4.7,6.3c2.3,0.9,4.8,1.1,7.2,1.1
		c3.6,0,7.2-0.3,10.7-1c0.4-0.1,0.6-0.1,0.6,0.5c0,2.2,0,4.4,0,6.5c0,0.4-0.1,0.5-0.5,0.6c-5.8,1-11.7,1.4-17.5,0.5
		c-3.8-0.6-7.3-2-10.1-4.8c-2.3-2.3-3.6-5.2-4.2-8.4c-0.8-4.4-0.8-8.9,0.4-13.3c1.6-5.7,5.4-9.2,11.2-10.4c4-0.8,7.9-0.8,11.8,0.1
		c5.5,1.4,8.9,4.8,10.3,10.3c0.9,3.6,0.9,7.2,0.5,10.8c0,0.4-0.2,0.5-0.6,0.5C375.2,43.7,371.2,43.7,367.2,43.7z M362.7,37
		c2.2,0,4.4,0,6.5,0c1.6,0,1.6,0,1.5-1.7c-0.3-3.3-2-5.4-5-6.1c-1.2-0.3-2.5-0.4-3.8-0.3c-2.8,0.1-5.1,1.3-6.3,4
		c-0.5,1.1-0.7,2.4-1,3.6c-0.1,0.5,0.1,0.6,0.5,0.6C357.6,37,360.1,37,362.7,37z"/>
	<path class="st1" d="M96.5,37.6c0-7,0-14,0-21c0-0.5-0.1-0.7-0.7-0.7c-4.5,0-9,0-13.5,0c-0.5,0-0.6-0.2-0.6-0.6c0-2.4,0-4.7,0-7.1
		c0-0.5,0.1-0.6,0.6-0.6c12.7,0,25.3,0,38,0c0.5,0,0.6,0.1,0.6,0.6c0,2.4,0,4.7,0,7.1c0,0.5-0.2,0.6-0.6,0.6c-4.5,0-9,0-13.5,0
		c-0.6,0-0.8,0.1-0.8,0.7c0,13.9,0,27.9,0,41.8c0,0.6-0.1,0.8-0.8,0.8c-2.7,0-5.4,0-8.1,0c-0.6,0-0.7-0.1-0.7-0.7
		C96.5,51.6,96.5,44.6,96.5,37.6z"/>
	<path class="st1" d="M195.4,59.3c-3.5,0-6.9,0-10.3,0c-0.3,0-0.6-0.3-0.7-0.5c-2.7-3.6-5.4-7.2-8.1-10.8c-0.1-0.2-0.3-0.3-0.4-0.5
		c-2.8,3.8-5.6,7.5-8.4,11.2c-0.3,0.4-0.6,0.6-1.2,0.6c-3,0-6.1,0-9.1,0c-0.2,0-0.4,0-0.7,0c0.2-0.2,0.3-0.4,0.4-0.6
		c4.4-5.9,8.9-11.9,13.3-17.8c0.3-0.4,0.3-0.7,0-1.1c-4.5-5.9-8.9-11.9-13.3-17.8c-0.1-0.2-0.2-0.3-0.4-0.6c0.3,0,0.5,0,0.7,0
		c3,0,6.1,0,9.1,0c0.6,0,1,0.2,1.3,0.7c2.7,3.7,5.5,7.4,8.3,11.2c0.2-0.3,0.4-0.5,0.6-0.8c2.6-3.5,5.3-7,7.9-10.6
		c0.3-0.4,0.6-0.5,1-0.5c3.1,0,6.2,0,9.3,0c0.2,0,0.4,0,0.7,0c-0.2,0.3-0.3,0.5-0.5,0.7c-4.4,5.9-8.8,11.8-13.2,17.7
		c-0.4,0.5-0.3,0.7,0,1.2c4.4,5.9,8.8,11.8,13.3,17.7C195,58.8,195.2,59,195.4,59.3z"/>
	<path class="st1" d="M319.2,33.5c0,8.3,0,16.7,0,25c0,0.6-0.1,0.7-0.7,0.7c-2.8,0-5.5,0-8.3,0c-0.4,0-0.6-0.1-0.6-0.6
		c0-16.8,0-33.7,0-50.5c0-0.5,0.2-0.6,0.6-0.6c2.8,0,5.5,0,8.3,0c0.5,0,0.7,0.1,0.7,0.7C319.2,16.7,319.2,25.1,319.2,33.5z"/>
	<path class="st1" d="M328.2,33.4c0-8.3,0-16.7,0-25c0-0.6,0.2-0.8,0.7-0.7c2.7,0,5.4,0,8.2,0c0.6,0,0.7,0.2,0.7,0.7
		c0,16.8,0,33.5,0,50.3c0,0.5-0.2,0.6-0.6,0.6c-2.8,0-5.5,0-8.3,0c-0.5,0-0.6-0.1-0.6-0.6C328.2,50.2,328.2,41.8,328.2,33.4z"/>
	<path class="st1" d="M395.8,26.2c1.5-1.4,3.1-2.6,4.9-3.5c1.6-0.8,3.3-1.2,5.1-1.3c0.4,0,0.5,0,0.5,0.5c0,2.3,0,4.5,0,6.8
		c0,0.4-0.1,0.5-0.5,0.5c-3.5,0.1-6.3,1.7-8.8,4.1c-0.2,0.2-0.3,0.6-0.3,0.9c0,8.1,0,16.2,0,24.4c0,0.6-0.2,0.8-0.8,0.8
		c-2.7,0-5.5,0-8.2,0c-0.5,0-0.6-0.1-0.6-0.6c0-12.2,0-24.5,0-36.7c0-0.5,0.1-0.6,0.6-0.6c2.1,0,4.2,0,6.3,0c0.4,0,0.6,0.1,0.7,0.5
		C395.1,23.3,395.5,24.7,395.8,26.2z"/>
	<path class="st1" d="M199.9,40.3c0-6.1,0-12.2,0-18.3c0-0.5,0.2-0.7,0.7-0.7c2.8,0,5.5,0,8.3,0c0.5,0,0.6,0.1,0.6,0.6
		c0,12.2,0,24.4,0,36.7c0,0.5-0.2,0.6-0.7,0.6c-2.8,0-5.5,0-8.3,0c-0.5,0-0.6-0.1-0.6-0.6C199.9,52.5,199.9,46.4,199.9,40.3z"/>
	<path class="st1" d="M204.7,7.6c1.4,0,2.8,0,4.2,0c0.4,0,0.6,0.1,0.6,0.5c0,2.2,0,4.4,0,6.5c0,0.4-0.1,0.5-0.6,0.5
		c-2.8,0-5.7,0-8.5,0c-0.4,0-0.6-0.1-0.6-0.5c0-2.2,0-4.4,0-6.5c0-0.4,0.1-0.6,0.6-0.5C201.8,7.7,203.2,7.6,204.7,7.6z"/>
	<path class="st1" d="M33.4,48.7c-3.2,0-6.4,0-9.6,0c-0.5,0-0.6,0.1-0.6,0.6c0,0.7,0,1.4-0.1,2.1c-0.3,1.9-1.9,2.9-4,2.8
		c-1.8-0.1-3.2-1.6-3.2-3.4c0-0.6,0-1.2,0-1.8c0-0.2-0.2-0.5-0.4-0.5c-2.2-0.8-3.3-2.4-3.3-4.7c0-2.9,0-5.7,0-8.6
		c0.1-2.3,1-4.2,3.1-5.2c0.7-0.4,1.6-0.5,2.4-0.7c0.4-0.1,0.6-0.2,0.7-0.7c0.4-2.6,0.4-5.3,1.4-7.7c0.5-1.3,1.2-2.6,2.3-3.6
		c1.2-1.1,2.5-1.7,4.2-1.7c0.5,0,0.9,0,1.4,0c1.1,0,0.9,0.2,1-1c0-0.3,0-0.5,0-0.8c0.1-0.7,0.5-1.1,1.2-1.1c2.4,0,4.8,0,7.3,0
		c0.7,0,1.2,0.4,1.2,1.2c0,0.4,0,0.8,0,1.2c0,0.4,0.1,0.5,0.5,0.5c0.5,0,1.1,0,1.6,0c2.1,0,3.8,0.9,5.1,2.5c1.5,1.9,2.2,4.2,2.5,6.6
		c0.2,1.3,0.4,2.6,0.5,4c0,0.5,0.2,0.6,0.6,0.6c0.4,0,0.7,0.1,1.1,0.2c2.7,0.7,4.4,2.8,4.5,5.7c0.1,3,0,6.1,0,9.1
		c0,1.9-1.4,3.6-3.2,4.2c-0.4,0.1-0.5,0.3-0.5,0.7c0,0.7,0,1.4,0,2.1c-0.2,1.9-1.9,3.1-3.9,3c-1.9-0.1-3.2-1.5-3.3-3.4
		c0-0.5,0-1,0-1.4c0.1-0.6-0.1-0.7-0.7-0.7C39.8,48.7,36.6,48.7,33.4,48.7C33.4,48.7,33.4,48.7,33.4,48.7z M33.4,28.6
		c3.4,0,6.9,0,10.3,0c0.7,0,0.9-0.2,0.8-0.9c-0.3-1.8-0.5-3.5-0.9-5.3c-0.6-2.3-1.9-3.2-4.3-3.2c-0.1,0-0.3,0-0.4,0
		c-4,0-7.9,0-11.9,0c-1.5,0-2.6,0.7-3.3,1.9c-0.3,0.5-0.5,1-0.6,1.6c-0.3,1.6-0.6,3.2-0.8,4.8c-0.1,0.9,0,1.1,1,1.1
		C26.7,28.6,30.1,28.6,33.4,28.6z M19.2,35.4c-1.8,0-3.2,1.4-3.2,3.2c0,1.8,1.4,3.2,3.2,3.2c1.8,0,3.2-1.4,3.2-3.2
		C22.5,36.8,21.1,35.4,19.2,35.4z M47.8,41.7c1.8,0,3.3-1.4,3.3-3.2c0-1.8-1.4-3.2-3.2-3.3c-1.8,0-3.3,1.4-3.3,3.2
		C44.6,40.3,46,41.7,47.8,41.7z M33.4,37.7c2,0,4.1,0,6.1,0c0.2,0,0.5,0.1,0.7-0.1c0.2-0.2,0.6-0.4,0.6-0.7c0-0.2-0.3-0.6-0.5-0.7
		c-0.2-0.1-0.5-0.1-0.8-0.1c-4,0-8.1,0-12.1,0c-0.3,0-0.6-0.1-0.8,0.1c-0.3,0.2-0.6,0.5-0.6,0.8c0,0.2,0.4,0.5,0.7,0.7
		c0.1,0.1,0.4,0,0.6,0C29.3,37.7,31.4,37.7,33.4,37.7z M33.5,39.3c-2,0-4,0-5.9,0c-0.3,0-0.7-0.1-0.9,0.1c-0.3,0.1-0.6,0.4-0.6,0.7
		c0,0.2,0.3,0.5,0.5,0.7c0.2,0.1,0.5,0.1,0.7,0.1c4.1,0,8.2,0,12.3,0c0.2,0,0.5,0,0.6-0.1c0.3-0.2,0.6-0.5,0.6-0.8
		c0-0.3-0.4-0.5-0.7-0.7c-0.2-0.1-0.4,0-0.6,0C37.5,39.3,35.5,39.3,33.5,39.3z"/>
	<path class="st0" d="M33.4,28.6c-3.4,0-6.7,0-10.1,0c-0.9,0-1.1-0.1-1-1.1c0.2-1.6,0.5-3.2,0.8-4.8c0.1-0.5,0.4-1.1,0.6-1.6
		c0.7-1.3,1.8-2,3.3-1.9c4,0,7.9,0,11.9,0c0.1,0,0.3,0,0.4,0c2.4,0,3.7,0.8,4.3,3.2c0.4,1.7,0.7,3.5,0.9,5.3
		c0.1,0.7-0.1,0.9-0.8,0.9C40.3,28.6,36.9,28.6,33.4,28.6z"/>
	<path class="st0" d="M19.2,35.4c1.8,0,3.2,1.4,3.2,3.2c0,1.8-1.5,3.2-3.2,3.2c-1.8,0-3.2-1.4-3.2-3.2C16,36.8,17.4,35.4,19.2,35.4z
		"/>
	<path class="st0" d="M47.8,41.7c-1.8,0-3.2-1.4-3.2-3.2c0-1.8,1.5-3.2,3.3-3.2c1.8,0,3.2,1.5,3.2,3.3
		C51.1,40.3,49.7,41.7,47.8,41.7z"/>
	<path class="st0" d="M33.4,37.7c-2,0-4.1,0-6.1,0c-0.2,0-0.4,0.1-0.6,0c-0.3-0.2-0.7-0.4-0.7-0.7c0-0.3,0.3-0.6,0.6-0.8
		c0.2-0.1,0.5-0.1,0.8-0.1c4,0,8.1,0,12.1,0c0.3,0,0.6,0,0.8,0.1c0.2,0.2,0.5,0.5,0.5,0.7c0,0.2-0.3,0.5-0.6,0.7
		c-0.2,0.1-0.5,0.1-0.7,0.1C37.5,37.7,35.5,37.7,33.4,37.7z"/>
	<path class="st0" d="M33.5,39.3c2,0,4,0,6,0c0.2,0,0.5-0.1,0.6,0c0.3,0.2,0.7,0.4,0.7,0.7c0,0.2-0.3,0.6-0.6,0.8
		c-0.1,0.1-0.4,0.1-0.6,0.1c-4.1,0-8.2,0-12.3,0c-0.2,0-0.5,0-0.7-0.1c-0.2-0.2-0.6-0.5-0.5-0.7c0-0.3,0.4-0.6,0.6-0.7
		c0.2-0.1,0.6-0.1,0.9-0.1C29.6,39.3,31.6,39.3,33.5,39.3z"/>
</g>
</svg>
