<svg id="Lager_1" data-name="Lager 1" xmlns="http://www.w3.org/2000/svg" viewBox="0 0 283.46 90.26"><defs><style>.cls-1{fill:#d6dde0;}.cls-2{fill:#002659;}.cls-3{fill:#dbb052;}.cls-4{fill:#da2032;}</style></defs><title>saab</title><path class="cls-1" d="M45.13,90.26A45.13,45.13,0,1,0,0,45.13,45.12,45.12,0,0,0,45.13,90.26Z"/><path class="cls-2" d="M45.13,1.86A43.27,43.27,0,1,0,88.4,45.13,43.27,43.27,0,0,0,45.13,1.86Z"/><path class="cls-1" d="M69,13.35a33.81,33.81,0,0,0-57.72,24v16.3h0a33.82,33.82,0,0,0,67.62-.07V37.32A33.7,33.7,0,0,0,69,13.35ZM68.4,76.22A32.91,32.91,0,0,1,12.23,53.58a32.78,32.78,0,0,1,1.16-6.95,34,34,0,0,0,63.37-.06A32.7,32.7,0,0,1,78,53.39,32.75,32.75,0,0,1,68.4,76.22Zm-54.51-31a32.19,32.19,0,0,1,8.65-13.43,33.18,33.18,0,0,1,22.7-8.86,32.75,32.75,0,0,1,22.45,9,33.44,33.44,0,0,1,8.68,13.28,33.07,33.07,0,0,1-62.48,0ZM78,47.86A34.13,34.13,0,0,0,68.25,31.3a33.64,33.64,0,0,0-23.07-9.24,34.1,34.1,0,0,0-23.33,9.1,33.09,33.09,0,0,0-9.62,16.39V37.35a32.91,32.91,0,1,1,65.81,0Z"/><path class="cls-3" d="M37.51,10.49a32.22,32.22,0,0,1,4.28-.66l3.34,6.84,3.33-6.84a39.48,39.48,0,0,1,4.29.66l3,8.93.68-7.91a32.49,32.49,0,0,1,6.76,2.83c2.22,1.19,2.59,2.53,2.42,3.92,0,0-.2,1.4-1.85.81,0,0,2.87,1.52,2.23,4.38-.24,1-1.26,1.54-2.8.67a34.22,34.22,0,0,0-4.73-2.32A31.34,31.34,0,0,0,53,20.15l-.65-1.89a37.56,37.56,0,0,0-4.45-.58l-.76,1.68c-1.12-.05-2.85,0-4,0l-.76-1.68a38.4,38.4,0,0,0-4.46.58l-.64,1.89c-1.06.22-2.11.48-3.37.85l.19-.58a19.92,19.92,0,0,1-3.82,2.39c-1.34.65-5,2.5-5.89.71a2.72,2.72,0,0,1-.25-1.27c1.08-.72,2.64-1.52,3.76-2.14,0,0-.56,2.26,1.72,1a4.08,4.08,0,0,0,2-1.82c.53-1.48-1.09-1.19-1.7-1-1,.3-4.85,1.6-4.86-1,0-1.84,2.47-3.71,5.12-4.81,4-1.63,5.35-.14,5.24,1.1-1.61.44-2,.57-3.32,1,0-.46-.31-1.15-2-.46s-2.06,1.44-1.83,2.14c.3.93,2.87-.06,3.51-.2,3.6-.77,3.13,1.66,3.12,1.72S37.49,10.49,37.51,10.49Zm1,6A29.21,29.21,0,0,1,41.6,16l-1.71-3.75ZM58.85,19.7a29.23,29.23,0,0,1,3.32,1.59s.8.59,1.2.08.08-1.21-1.26-1.92A30.33,30.33,0,0,0,59,18ZM59.18,16s1.38.58,2.31,1a2.15,2.15,0,0,0,1,.36.5.5,0,0,0,.49-.39C63,16,62,15.6,61.65,15.42c-1-.51-1.32-.64-2.33-1.06C59.32,14.38,59.18,16,59.18,16ZM48.65,16a25.57,25.57,0,0,1,3.1.44s-1.38-4.19-1.38-4.19Z"/><path class="cls-1" d="M28.6,44.43a5.19,5.19,0,0,0,2.93.71c2.19-.31,2.84-1.17,4.84-.58a4.13,4.13,0,0,1,1.62,1,4.8,4.8,0,0,0-1.08-.22c-2.13-.12-3.84,1.52-5.93,1A3.36,3.36,0,0,1,28.6,44.43Z"/><path class="cls-1" d="M40.48,44.72c-.7.6-2.23,3.87-6.1,2a4.21,4.21,0,0,0,.75,2.54A3.27,3.27,0,0,0,38,50.38h0c-1.2,1.11-.41,2.79-.3,5.29a4.6,4.6,0,0,1,1.89-2,10.72,10.72,0,0,0-1.24,3.42c-.08,1.88,1.86,3.52,3.55,6,.5-2.91.38-4,.92-5.67a29.8,29.8,0,0,1,.76,7.94c2.92-2.34,6.27-2.4,4.79-8.56a12.87,12.87,0,0,1,2,4.63h0c1.38-2.23,4.62-3.67,2.14-9.58,1.35,1.11,1.84,3,2.38,3.74.4-2.83,2-7.16-1.52-10.43l0,0a5.66,5.66,0,0,1,2.63,2c0-2.54,1.6-4-2-8.38a10.13,10.13,0,0,0,1.34-3.71,12.55,12.55,0,0,0-4.12,1,1.16,1.16,0,0,0-1-.66H40c-.72,0-1.37,1-1.78,2.8a3.71,3.71,0,0,0-.81-.46c-1.25-.48-4.2-.51-5.07,2.18a8.33,8.33,0,0,0-.1,3.48s3.23-2.42,4.8.39m2.39-2.82c-.51-.31-.88-1.28-.26-1.77.44-.35,1.72.31.76,1.33A.94.94,0,0,0,41.36,40l.31,0C41.55,40.58,40.66,41.87,39.42,41.06Z"/><path class="cls-3" d="M50.25,34.85a1.14,1.14,0,0,1,.63.22l4-8.78c-4.37,0-2.8,2.9-2.73,3.07s-.22.09-.22.09a1.5,1.5,0,0,0-1-.42,1.51,1.51,0,1,0,0,3,1.2,1.2,0,0,0,.38,0A3.3,3.3,0,0,1,46,31.18c-.18-.28.25.32.94.32a1.51,1.51,0,1,0,0-3,1.54,1.54,0,0,0-.87.27v0a1.52,1.52,0,0,0-.94-2.7h0a1.52,1.52,0,0,0-1.51,1.51,1.5,1.5,0,0,0,.58,1.19v0a1.43,1.43,0,0,0-.86-.28,1.51,1.51,0,1,0,0,3c.68,0,1.11-.59.93-.32a3.3,3.3,0,0,1-5.32.83,1.6,1.6,0,0,0,.39,0,1.51,1.51,0,1,0-1-2.61s-.3.08-.23-.08,1.64-3.08-2.73-3.08l4.05,8.79a1.14,1.14,0,0,1,.63-.22Z"/><path class="cls-4" d="M55.1,44.75c.23-1,.12-2.3-1.93-4.5a20.6,20.6,0,0,1-2.12,2c.26,2.69.37,6.82-1.89,9a8.47,8.47,0,0,0-1-3.66,8,8,0,0,1-3.35,6.34,16.77,16.77,0,0,0,.12-4.6,4.07,4.07,0,0,1-2.53,2.63l-.55-3s1.08-.77,1.08-.8.35,1.72.35,1.72c1.15-1.09.24-2.83,1.33-3.22.58-.19.89.25,1.07.61a6.55,6.55,0,0,1,.54,3.09,9.06,9.06,0,0,0,.47-5,.86.86,0,0,1,.57-1,1,1,0,0,1,1,.45,8.35,8.35,0,0,1,1.4,3,9.4,9.4,0,0,0,0-5.18c-.06-.29-.16-.61-.16-.61A13.38,13.38,0,0,0,53.31,37a27.47,27.47,0,0,0-5.08,2.39l-.6-.63L49.91,37c.15-.11.21-.27-.2-.28H41.29c-.79,0-1.58.25-1.59,1.59l1,.89a3,3,0,0,1,2.53.37l-.17.72s-.54-.37-.82-.17c-.69,1.79-1.85,2-2.8,1.7s-1.2-1.67-1.37-2.32c-1.8-1.05-4.63-1.22-4.84,2a3.52,3.52,0,0,1,4.43,1.28l5,1.45c-1.71,1.27-4,5.32-6.83,4,2,2.12,4.15-.54,4.85.57s-2.58,1.49-2,4.5c.48-.49,1.47-1.54,2.14-.91a.77.77,0,0,1,.08,1c-1.43,3-2,4.41.28,6.8.5-3.68.7-4.68,1.68-4.72,1.42,0,1.88,6.19,1.95,7.73,2.82-1.84,3.26-2.16,2.35-6.68-.18-.81-.06-1.27.49-1.49a1.15,1.15,0,0,1,1.35.57A15.13,15.13,0,0,1,50.75,59c.72-1.19,2.61-2,.55-7-.34-.61-.28-1.14.18-1.43,1-.69,2.42,1,2.91,1.85-.1-1.76.76-4-2-6.76-.45-.54-.45-.94-.08-1.31C52.91,43.75,54.33,44.29,55.1,44.75Z"/><path class="cls-1" d="M42.39,43c1.49-.29,1.23,1,2.93,1.37-1.42.53-2.07-1.14-2.93-1.37h0"/><path class="cls-1" d="M51.47,38.55A4.12,4.12,0,0,1,49,40.46,3.75,3.75,0,0,1,51.47,38.55Z"/><path class="cls-1" d="M21.19,63.34a6.26,6.26,0,0,1-.88-.85V61.08a22.05,22.05,0,0,0,2.79,2.45V64.9c-.34-.26-.68-.54-1-.81v8.4c-.28-.22-.63-.5-.9-.73Z"/><path class="cls-1" d="M23.79,64.06a20.49,20.49,0,0,0,2.51,1.66v1.34a14.58,14.58,0,0,1-1.61-1l0,2.59c.58.38,1.06.68,1.47.92V70.7c-.5-.29-.92-.53-1.48-.92V73.1c.56.37,1,.62,1.73,1.07v1.42c-1.32-.82-1.48-.92-2.66-1.75Z"/><path class="cls-1" d="M30.3,77.12c-2.66,1.45-4.19-4.56-2.88-9.15.24-.87,1-2,2.76,0v1.24c-1.37-2-2-1.38-2.1,1.74-.1,5.54,1.18,5.46,2.22,4.76Z"/><path class="cls-1" d="M31.14,68.19a11.14,11.14,0,0,0,1.07.43v4.29a13.54,13.54,0,0,0,1.54.44V69.14a7.68,7.68,0,0,0,1,.32v9.8l-1-.3V74.54c-.52-.15-1.05-.32-1.56-.5V78.4a11.49,11.49,0,0,1-1.07-.46Z"/><path class="cls-1" d="M36.27,69.88c.4.11.6.15.92.22.58,1.86,1.31,4.61,1.89,6.46h0v-6.1c.34.07.71.15,1,.19V80.4l-.81-.13c-.58-1.86-1.42-4.41-2-6.29h0l0,5.91-1.09-.22Z"/><path class="cls-1" d="M47.36,70.87c.38,0,.69-.07,1.11-.13v8.51A19.1,19.1,0,0,0,50.82,79v1.28c-1.13.19-2.32.33-3.45.41Z"/><path class="cls-1" d="M60.94,76.57c-2.07,2.6-4.45,1.38-4.27-3.41.12-3.15,1.6-6,4.21-5.38v1.3c-3.55-1.6-3.31,5.24-2.88,6.68s1.24,1.1,1.87.68V73.53c-.25.11-.51.25-.75.35V72.71a15.16,15.16,0,0,0,1.82-.85Z"/><path class="cls-1" d="M62.14,66.61l1-.54,0,9.83-1,.54Z"/><path class="cls-1" d="M64.47,65.29A28,28,0,0,0,67,63.52l0,1.36c-.52.39-1,.74-1.56,1.1v2.73a10.8,10.8,0,0,0,1.46-1l0,1.14a12.73,12.73,0,0,1-1.44,1v3.25c.66-.43,1.14-.78,1.69-1.19V73.2a25.1,25.1,0,0,1-2.66,1.94Z"/><path class="cls-1" d="M67.81,71.11c.6.42,1.61-.7,1.3-2.07s-1.49-2.8-1.34-4.63c0,0,.26-2.57,2-3.17v1.15c-1.14.21-1.19,1.51-1.19,1.56a2.63,2.63,0,0,0,.13.9c.27.7.66,1.47,1,2.15,1.24,2.93-.38,5.39-1.83,5.38Z"/><path class="cls-1" d="M46,75.83c0,2.8-.49,5.08-2.31,5.07-1.63,0-2.3-2.27-2.3-5.07s.67-5.08,2.3-5.08S46,73,46,75.83ZM43.66,72c-.84,0-1.27,1.78-1.27,3.86s.43,3.78,1.27,3.78,1.28-1.69,1.28-3.78S44.5,72,43.66,72Z"/><path class="cls-1" d="M55.69,74.65c0,2.77-.49,5-2.3,5-1.63,0-2.31-2.25-2.31-5s.68-5,2.31-5S55.69,71.88,55.69,74.65Zm-2.3-3.78c-.84,0-1.28,1.76-1.28,3.83s.44,3.73,1.28,3.73,1.27-1.67,1.27-3.73S54.22,70.86,53.39,70.87Z"/><path class="cls-2" d="M276.52,43.59v-.11c2.85-1.07,4.93-4.32,4.93-8.07s-1.68-9.87-11.38-9.87H237V60.43L222,25.54H205.64L192.78,55.17,180,25.54H163.73L150.41,56.22a13.14,13.14,0,0,0,.36-3.11c0-7.06-4.48-10.08-11.94-11.37-3.92-.67-14.17-2.19-17.54-2.75-2-.33-3-1.12-3-2.46,0-2.64,2.47-3.93,7-3.93,6.11,0,8.3,1.91,8.69,4.65h15.13c-.84-9.47-9.58-12.94-24.1-12.94-17.54,0-20.79,7.45-20.79,12.72,0,5.94,3.19,10.09,11.43,11.32l13.34,2c4.65.73,6.33,1.45,6.33,3.58,0,3.42-3.64,4.21-7,4.21-7,0-8.63-1.91-9-4.93h-15.8c.78,11.15,10.59,13.56,24.15,13.56,4.39,0,16.52-.08,21.2-7l-2.52,5.81h14.29l2.41-6.51h17.49L183,65.56h19.6L205,59.05h17.49l2.41,6.51H269c12.27,0,14.51-7.18,14.51-11.94C283.46,48,280.72,44.54,276.52,43.59ZM166.2,50.76l5.55-15.13h.11l5.55,15.13Zm41.91,0,5.55-15.13h.11l5.55,15.13Zm42.18-16.59h13.28c2.86,0,4.09,1.57,4.09,3.36S266.43,41,263.57,41H250.29Zm14.34,22.75H250.29V48.8h14.34c2.81,0,4.71,1.34,4.71,4S267.44,56.92,264.63,56.92Z"/></svg>