<?xml version="1.0" encoding="utf-8"?>
<!-- Generator: Adobe Illustrator 23.0.2, SVG Export Plug-In . SVG Version: 6.00 Build 0)  -->
<svg version="1.1" id="cmyk_x5F_neg" xmlns="http://www.w3.org/2000/svg" xmlns:xlink="http://www.w3.org/1999/xlink" x="0px"
	 y="0px" viewBox="0 0 847.1 496.3" style="enable-background:new 0 0 847.1 496.3;" xml:space="preserve">
<style type="text/css">
	.st0{fill:#FFFFFF;}
</style>
<polygon class="st0" points="523.7,125 432.8,368.7 341.9,125 267.8,125 395.8,468.1 469.9,468.1 597.9,125 "/>
<path class="st0" d="M142.1,475.1c-53.5,0-98.5-28.1-124.7-65.5l54.2-39.2c21,25.8,45.3,40,68.5,40c27.8,0,51.2-14.2,51.2-38.3
	c0-25.2-28.6-36.8-44.9-43.7c-14-6-20.9-8.9-36.7-15.7c-48.9-20.9-73.8-53.7-73.8-96.7c0-62.4,51.3-97.5,106-97.5
	c42.1,0,81.4,19.8,103.1,51.8l-51.4,37.3c-15.5-16.5-31.6-24.6-49.4-24.6c-20.9,0-39.5,11.7-39.5,33.3c0,16.1,13.4,29.6,40.9,41.2
	c5.5,2.3,34.2,15.1,41.1,18.3c49.7,22.8,73.9,54,73.9,95.2C260.7,434,208.7,475.1,142.1,475.1z"/>
<path class="st0" d="M748.7,475.4c-41.1,0-88.8-22.1-109.1-78.1c-6.9-19.1-6.7-33.8-6.7-49.3V25.7h69.2V125h106.3l-25.2,67.6h-81.1
	v155.5c0.1,10.8,0.6,23.9,5.3,33.8c7.9,16.5,24.1,27.4,41.2,27.4c12.2,0,25.6-5.1,36.2-13.7l43.3,49.4
	C806.8,464.3,778,475.4,748.7,475.4z"/>
</svg>
