<?xml version="1.0" standalone="no"?>
<!DOCTYPE svg PUBLIC "-//W3C//DTD SVG 20010904//EN"
 "http://www.w3.org/TR/2001/REC-SVG-20010904/DTD/svg10.dtd">
<svg version="1.0" xmlns="http://www.w3.org/2000/svg"
 width="896.000000pt" height="896.000000pt" viewBox="0 0 896.000000 896.000000"
 preserveAspectRatio="xMidYMid meet">
<metadata>
Created by potrace 1.11, written by Peter Selinger 2001-2013
</metadata>
<g transform="translate(0.000000,896.000000) scale(0.100000,-0.100000)"
fill="#000000" stroke="none">
<path d="M3784 8865 c-128 -44 -200 -128 -240 -280 -11 -41 -13 -754 -11
-4110 1 -2233 6 -4073 10 -4090 11 -44 64 -146 90 -175 77 -85 168 -119 312
-116 83 2 110 7 156 28 104 47 163 116 205 236 l23 67 0 4055 c1 4377 4 4095
-50 4207 -43 88 -145 169 -239 189 -73 16 -193 11 -256 -11z"/>
<path d="M2705 8078 c-136 -30 -241 -136 -282 -285 -4 -16 -8 -1596 -8 -3513
l0 -3485 27 -64 c15 -35 42 -83 60 -107 102 -134 337 -174 511 -87 26 13 47
27 47 31 0 5 10 14 23 21 31 17 75 88 103 169 l23 67 0 3455 1 3455 -23 76
c-24 76 -64 146 -108 185 -36 33 -113 72 -155 80 -60 10 -174 12 -219 2z"/>
<path d="M1569 7273 c-106 -27 -184 -92 -233 -197 -15 -32 -31 -68 -34 -80 -4
-11 -8 -1313 -9 -2892 -3 -2830 -3 -2873 17 -2935 59 -192 189 -282 400 -275
77 2 106 8 152 28 109 50 179 138 214 271 11 44 14 517 14 2897 l0 2845 -23
76 c-45 145 -139 238 -267 265 -60 13 -175 11 -231 -3z"/>
<path d="M4656 7282 c-3 -3 -6 -1440 -6 -3194 0 -2543 3 -3188 13 -3189 15 -1
769 -1 780 0 4 1 7 1438 7 3195 l0 3195 -394 -1 c-217 0 -397 -3 -400 -6z"/>
<path d="M5770 4092 l0 -3197 392 2 c216 1 396 2 401 2 4 1 7 1438 7 3195 l0
3195 -400 0 -400 0 0 -3197z"/>
<path d="M6890 4090 l0 -3200 400 0 400 0 0 3200 0 3200 -400 0 -400 0 0
-3200z"/>
</g>
</svg>
