<svg id="Layer_1" data-name="Layer 1" xmlns="http://www.w3.org/2000/svg" xmlns:xlink="http://www.w3.org/1999/xlink" viewBox="0 0 1093.46 796.8"><defs><style>.cls-1{fill:url(#New_Gradient_Swatch_copy_2);}.cls-2{fill:url(#linear-gradient);}.cls-3{fill:#fff;}.cls-4{fill:#00c7b1;}.cls-5{fill:url(#New_Gradient_Swatch_copy);}</style><linearGradient id="New_Gradient_Swatch_copy_2" x1="318.78" y1="228.4" x2="775.58" y2="228.4" gradientUnits="userSpaceOnUse"><stop offset="0" stop-color="#00c7b1"/><stop offset="1" stop-color="#4698cb"/></linearGradient><linearGradient id="linear-gradient" x1="609.5" y1="329.63" x2="444.75" y2="219.53" gradientUnits="userSpaceOnUse"><stop offset="0" stop-color="#fff"/><stop offset="1" stop-color="#cecdce"/></linearGradient><linearGradient id="New_Gradient_Swatch_copy" x1="680.61" y1="260.62" x2="438.33" y2="260.62" xlink:href="#linear-gradient"/></defs><title>cruitive</title><circle class="cls-1" cx="547.18" cy="228.4" r="228.4"/><polygon class="cls-2" points="681.1 296.65 559.88 366.46 438.82 296.39 438.96 156.51 681.1 296.65"/><polygon class="cls-3" points="681.24 156.76 560.17 86.7 438.96 156.51 438.82 296.39 681.24 156.76"/><path class="cls-4" d="M90.57,616.75q43.2,0,72.73,37.36l.92,1.54Q135.93,677,135,677q-17.07-24.45-45.67-24.45-27.23,0-45.67,26Q35.82,693,35.83,706.85q0,29.07,28,47.21a56.7,56.7,0,0,0,26.3,6.76q27.21,0,45.36-24.45l28.75,21.38q-2.61,5.54-17.37,18.76-25.38,20.15-56,20.14H89.8q-42.28,0-71.35-35.06Q0,736.22,0,706.54q0-38,29.52-66.58Q56.13,616.76,90.57,616.75Zm89,0h35.82V637.2h.47q28.59-20.46,71.5-20.45v35.82q-52,0-67.66,36.29a52.63,52.63,0,0,0-4.31,19.68v88.11H179.6Zm123.16,0h35.83v63q.3,58.43,32.29,76.73a50.06,50.06,0,0,0,19.22,4.3h2.46q18.92,0,36.6-16.14a64.44,64.44,0,0,0,15.37-30.76q2.78-10,2.77-36.9V616.75H483v57.81q0,45.21-8.14,63.51A109.37,109.37,0,0,1,461,762.82Q444.07,785,412.55,793.88a63.81,63.81,0,0,1-18.14,2.77h-6.15q-25.85,0-49.21-18.45-36.29-31.83-36.29-100.41Zm230.8-65.88a17.92,17.92,0,1,0,17.91,17.91A17.91,17.91,0,0,0,533.56,550.87ZM516,616.75H551.8v179.9H516Zm80.42-62.68h35.83v62.68H663v35.82H632.22V796.65H596.39Zm115.17-3.2a17.92,17.92,0,1,0,17.91,17.91A17.91,17.91,0,0,0,711.56,550.87Zm-17.89,65.88h35.82v179.9H693.67Zm51.2-.31h40.9l47.05,96.72h.62L881,616.44h40.9L833.44,796.8h-.62L767,662Zm258.94.31q39.68,0,68.43,31.82,21.21,26.76,21.22,58a112.82,112.82,0,0,1-1.85,18h-139q6.6,19.85,26.44,30.45a53.62,53.62,0,0,0,24.3,5.84q21.23,0,38.29-15.68l25.06,25.06v.46q-27.21,26-62.89,26H1003q-40.12,0-68.58-31.83-21.21-26.6-21.22-58,0-40,31.83-68.89Q970.9,616.75,1003.81,616.75Zm-51.2,72.11h101.48q-6-18-24.29-29.52-13.69-6.76-26.76-6.77-28.59,0-46.9,27.53Z"/><polygon class="cls-5" points="680.61 295.78 559.39 365.6 438.33 295.53 438.47 155.65 680.61 295.78"/><polygon class="cls-3" points="680.8 155.81 559.73 85.75 438.52 155.56 438.37 295.44 680.8 155.81"/></svg>