<?xml version="1.0" encoding="utf-8"?>
<!-- Generator: Adobe Illustrator 21.1.0, SVG Export Plug-In . SVG Version: 6.00 Build 0)  -->
<svg version="1.1" id="Lager_1" xmlns="http://www.w3.org/2000/svg" xmlns:xlink="http://www.w3.org/1999/xlink" x="0px" y="0px"
	 viewBox="0 0 465.7 97.4" style="enable-background:new 0 0 465.7 97.4;" xml:space="preserve">
<style type="text/css">
	.st0{fill:#FBC203;}
	.st1{fill:#20201E;}
	.st2{fill:#1F1F1D;}
	.st3{fill:#1E1E1C;}
	.st4{fill:#21211F;}
	.st5{fill:#039EE1;}
	.st6{fill:#ED7E03;}
	.st7{fill:#E4037F;}
	.st8{fill:#332983;}
	.st9{fill:#E10915;}
	.st10{fill:#1D1D1B;}
	.st11{fill:#30302E;}
</style>
<g>
	<path class="st0" d="M52.6,1.4c2.9,2.3,2.9,6.1,0.5,8.7c-2.4,2.5-6.3,2.5-8.7,0C42,7.5,42,3.7,44.9,1.4C47-0.2,49.4-0.7,52.6,1.4"
		/>
	<path class="st1" d="M465.7,41.2c-7.9,2.3-9,3.8-9,12.4c0,2.5,0,5,0,7.5c0,1.1-0.1,1.9-1.5,1.9c-1.5,0-1.5-0.9-1.5-1.9
		c0-6.5,0-13,0-19.4c0-0.9-0.8-2.4,1.1-2.6c2.1-0.2,1.6,1.4,1.7,2.5c0,0.5,0.1,1,0.2,1.9c2.5-3,5.1-5.3,9-4.4
		C465.7,39.7,465.7,40.5,465.7,41.2z"/>
	<path class="st2" d="M122.1,63.6c-7.3,0-11.8-2.9-12.9-8.3c-0.2-1.2-1.2-2.8,1-3.3c1.9-0.4,1.9,1.1,2.1,2.3c0.6,4,3.4,5.7,7,6.2
		c4.1,0.6,8.4,0.7,11.3-3.1c2.1-2.8,1.1-6.4-2.4-8c-3.3-1.6-6.9-2-10.4-2.9c-5.9-1.6-8.1-4.1-7.7-8.9c0.4-4.7,4.1-8,9.4-8.4
		c6.7-0.6,12,2.1,13.6,6.9c0.4,1.1,1.2,2.6-0.3,3.3c-1.7,0.8-2.2-0.5-2.7-2c-2-5.3-9.9-7.4-14.5-4c-1.9,1.4-2.5,3.3-2.4,5.6
		c0.2,2.4,1.8,3.5,3.8,4.1c3,0.9,6,1.6,9,2.4c6.4,1.8,9.2,4.8,8.8,9.4c-0.5,5.1-4.5,8.3-10.9,8.8C123.3,63.7,122.7,63.6,122.1,63.6z
		"/>
	<path class="st2" d="M329.8,58.6c-4.9,5-10.8,5.4-14.9,1.5c-4.5-4.3-4.6-13.8-0.3-18.6c4.1-4.4,9.6-4.2,15.2,0.6
		c0-0.6,0.2-1,0.1-1.5c-0.1-1.3,0.3-1.8,1.7-1.7c1.3,0,1.4,0.7,1.4,1.6c-0.1,7.6,0.1,15.2-0.2,22.9c-0.2,3.9-2,7.3-6.2,8.5
		c-4.4,1.3-8.7,1-12.2-2.3c-1.1-1.1-2.6-2.8-1.2-4.1c1.6-1.3,2.3,0.8,3.1,2c2,2.7,4.8,2.7,7.8,2.4c2.6-0.3,4.3-1.8,5.2-4.2
		C330.1,63.5,330.1,61.2,329.8,58.6z M330,50.8c0.1-5.9-3.1-10-7.8-10c-4.5,0-7.7,3.9-7.9,9.6c-0.1,5.6,3,9.6,7.6,9.8
		C326.7,60.3,329.9,56.5,330,50.8z"/>
	<path class="st2" d="M219.9,58.6c-5.4,5-11.3,5.4-15.3,1.3c-4.3-4.4-4.2-14.1,0.2-18.6c4.1-4.2,9.9-3.9,14.5,0.8
		c0.9-0.4,0.5-1.3,0.5-1.9c0-1.4,0.9-1.2,1.8-1.2c1.1-0.1,1.2,0.6,1.2,1.4c-0.1,8,0.1,16-0.4,24c-0.2,4.2-2.8,7.1-7.3,7.9
		c-4.4,0.7-8.5,0.3-11.6-3.4c-0.7-0.9-2.1-2.4-0.5-3.5c1.2-0.8,2,0.3,2.8,1.6c2,3.4,5.3,3.3,8.6,2.8c3.2-0.5,4.6-2.9,5.1-5.7
		C219.8,62.4,219.7,60.8,219.9,58.6z M219.8,50.7c0-6-3.1-10-7.8-9.9c-4.6,0.1-7.9,4.3-7.7,10.1c0.1,2.1,0.5,4.2,1.7,6
		c2.7,4.1,8.5,4.4,11.6,0.8C219.2,55.7,219.8,53.3,219.8,50.7z"/>
	<path class="st2" d="M348.3,51.8c-2.1,0-4.3,0.1-6.4,0c-2.5-0.2-3.4,0.5-2.5,3.1c1.1,3.4,2.9,5.9,6.6,6.3c3.6,0.4,6.4-1,7.8-4.4
		c0.5-1.3,1.3-2,2.5-1.5c1.5,0.7,0.4,1.9,0,2.8c-1.8,4-5.1,5.6-9.3,5.7c-4.2,0-7.6-1.6-9.4-5.5c-2.2-4.7-2.2-9.4,0-14.1
		c2.3-4.8,7.5-6.9,12.6-5.2c4.2,1.4,7.8,7.2,7.3,11.6c-0.2,1.6-1.2,1.3-2.1,1.3C353,51.8,350.6,51.8,348.3,51.8
		C348.3,51.8,348.3,51.8,348.3,51.8z M339.1,49.4c4.3,0,8.4,0,12.5,0c0.4,0,0.7,0,1.1,0c1.1,0,1.8,0,1.7-1.6
		c-0.4-4.2-4.3-7.5-8.6-6.8C342.2,41.5,340.3,43.9,339.1,49.4z"/>
	<path class="st2" d="M441,51.8c-1.9,0-3.7,0-5.6,0c-3.9,0-4.2,0.5-2.8,4.3c1.2,3.1,3.4,5,6.7,5.1c3.1,0.1,5.6-1,7-4
		c0.6-1.3,1.4-2.8,2.9-1.9c1.4,0.9,0,2.3-0.5,3.2c-2.3,4.6-8.4,6.5-13.6,4.3c-4.6-1.9-6.9-7.2-6.2-14.1c0.6-5.6,3.8-9.4,8.7-10.3
		c6.8-1.3,13.4,5.1,12.4,11.9c-0.2,1.5-1,1.4-2,1.4C445.7,51.8,443.4,51.8,441,51.8C441,51.8,441,51.8,441,51.8z M439.5,49.4
		c1.7,0,3.5-0.2,5.2,0c2.7,0.3,2.6-1.2,2-2.9c-1.1-3.2-3.1-5.4-6.7-5.6c-3.5-0.2-5.9,1.6-7.3,4.7c-1.5,3.2-1.2,3.8,2.3,3.8
		C436.6,49.4,438.1,49.4,439.5,49.4z"/>
	<path class="st2" d="M167.8,51.8c-2.1,0-4.3,0.2-6.4,0c-2.8-0.3-2.8,1.2-2.3,3.1c1,3.4,2.9,5.9,6.6,6.3c3.4,0.4,6.2-0.8,7.7-4.1
		c0.6-1.2,1.2-2.5,2.7-1.8c1.8,0.9,0.2,2.3-0.2,3.1c-1.8,3.8-5.1,5.3-9.1,5.3c-4.2,0-7.5-1.6-9.4-5.6c-2-4.2-2-8.5-0.5-12.8
		c1.8-5.3,6.9-8.1,12.2-6.8c4.9,1.2,8.6,6.5,8.2,11.6c-0.1,1.4-0.7,1.6-1.8,1.6C172.8,51.8,170.3,51.8,167.8,51.8
		C167.8,51.8,167.8,51.8,167.8,51.8z M166.3,49.4c1.9,0,3.7-0.1,5.6,0c2.3,0.2,2.6-0.9,2-2.7c-1-3-2.7-5.3-6.1-5.8
		c-3.3-0.5-5.8,0.8-7.5,3.7c-0.7,1.3-1.8,2.8-1.1,4.1c0.7,1.3,2.5,0.4,3.7,0.5C164,49.5,165.2,49.4,166.3,49.4z"/>
	<path class="st2" d="M237.9,51.8c-2,0-4,0.2-6,0c-3.1-0.4-3.7,0.9-2.8,3.6c1.1,3.2,3,5.5,6.6,5.8c3.4,0.3,6.2-0.9,7.6-4.2
		c0.6-1.3,1.4-2.4,2.7-1.7c1.6,0.8,0.2,2-0.2,2.9c-1.7,3.8-4.9,5.5-9,5.6c-4.2,0.1-7.7-1.4-9.5-5.3c-2.2-4.6-2.3-9.4-0.2-14.1
		c2.3-5,7.3-7,12.5-5.4c4.4,1.4,7.8,6.9,7.3,11.5c-0.2,1.5-0.9,1.5-2,1.5C242.6,51.8,240.2,51.8,237.9,51.8
		C237.9,51.8,237.9,51.8,237.9,51.8z M236.2,49.4c1.7,0,3.5-0.1,5.2,0c2.4,0.2,2.8-0.9,2.2-2.8c-1-3-2.8-5.3-6.2-5.7
		c-3.4-0.4-5.8,1-7.4,3.9c-2.2,3.8-1.7,4.6,2.5,4.6C233.7,49.4,235,49.4,236.2,49.4z"/>
	<path class="st1" d="M391.2,50.6c0.2-7.5,5-12.6,11.7-12.3c6.6,0.2,11.2,5.8,10.9,13.1c-0.3,7.5-5,12.5-11.8,12.3
		C395.4,63.5,391,58.2,391.2,50.6z M410.9,51c0-6-3.7-10.3-8.6-10.2c-4.8,0.1-8.3,4.4-8.2,10.2c0,5.8,3.5,10.1,8.2,10.2
		C407.1,61.4,410.9,56.9,410.9,51z"/>
	<path class="st1" d="M258.7,63.7c-4.7,0-7.9-1.9-9.1-5.7c-0.3-0.8-1.4-1.9,0.1-2.5c1.1-0.4,1.8-0.1,2.5,1.3
		c1.9,4.1,6.2,5.6,10.3,3.8c1.7-0.7,3-1.9,2.9-3.9c0-1.9-1.2-3-2.9-3.5c-2.6-0.8-5.3-1.4-7.9-2.2c-2.9-0.9-4.9-2.6-4.9-5.8
		c0.1-3.3,2.1-5.2,5.1-6.1c5.4-1.7,10.6,0.1,12,4.4c0.3,0.8,1.3,1.9-0.2,2.6c-1.3,0.5-1.9-0.1-2.5-1.4c-1.7-3.3-5.4-4.6-8.8-3.2
		c-1.5,0.6-2.6,1.6-2.7,3.3c-0.1,1.7,0.9,2.9,2.4,3.4c2,0.7,4,1.2,6.1,1.7c5.1,1.2,7.4,3.6,7.2,7.2c-0.2,3.6-3.5,6.3-8.2,6.7
		C259.7,63.7,259.2,63.7,258.7,63.7z"/>
	<path class="st2" d="M292.1,41.9c2-2.2,4.3-3.6,7.2-3.7c5.6-0.2,8.7,2.6,8.9,8.2c0.2,4.7,0.1,9.5,0,14.2c0,1,0.5,2.3-1.4,2.3
		c-1.9,0-1.5-1.2-1.5-2.2c0-4.1,0-8.2,0-12.3c0-5.2-1.8-7.5-5.7-7.6c-4.2-0.2-7.5,2.7-7.7,7.4c-0.2,4.1,0,8.2-0.1,12.3
		c0,1.1,0.5,2.6-1.6,2.5c-1.9-0.1-1.3-1.5-1.3-2.4c0-6.1-0.1-12.2,0-18.3c0-1.1-1.1-2.8,1.1-3.3C292.5,38.4,291.3,40.9,292.1,41.9z"
		/>
	<path class="st3" d="M364.3,42c2.3-2.9,5.3-4,8.9-3.6c4.5,0.5,6.8,2.8,7,7.3c0.2,5.1,0.1,10.2,0.1,15.3c0,1,0.2,1.9-1.4,2
		c-1.9,0.1-1.6-1.1-1.6-2.2c0-4.2,0-8.5,0-12.7c-0.1-4.9-1.8-7.1-5.6-7.2c-4.3-0.2-7.4,2.4-7.7,6.9c-0.3,4.1,0,8.2-0.1,12.3
		c0,1.1,0.9,3-1.6,2.9c-2.2-0.1-1.3-1.7-1.3-2.7c-0.1-6.1-0.1-12.2,0-18.3c0-1.1-1-2.9,1.5-3C364.9,38.9,363,41.1,364.3,42z"/>
	<path class="st4" d="M145.8,60.1c2.4-6.7,4.5-12.7,6.6-18.7c0.6-1.8,1.3-3.3,3.8-2c-2.8,7.3-5.6,14.6-8.3,22
		c-0.4,1.1-0.9,1.6-2.1,1.6c-1.2,0-1.8-0.4-2.2-1.5c-2.8-7.4-5.6-14.8-8.5-22.2c2.3-0.9,3.3-0.1,4,2
		C141.2,47.3,143.4,53.3,145.8,60.1z"/>
	<path class="st5" d="M20.4,26.2c-3.2,0.1-6-2.6-6.1-5.8c-0.1-3.4,2.7-6.2,6-6.2c3.2,0,5.9,2.7,5.9,5.9
		C26.3,23.4,23.6,26.1,20.4,26.2z"/>
	<path class="st6" d="M54.7,20.1c0,3.2-2.6,6-5.8,6.1c-3.2,0.1-6-2.5-6.1-5.7c-0.1-3.3,2.7-6.3,6-6.2C52,14.2,54.7,16.9,54.7,20.1z"
		/>
	<path class="st7" d="M83.2,20.2c0,3.2-2.7,5.9-5.9,5.9c-3.3,0-6.2-2.9-6-6.2c0.1-3.2,2.9-5.8,6.1-5.8C80.6,14.3,83.3,17,83.2,20.2z
		"/>
	<path class="st8" d="M40.5,34.4c0,3.2-2.7,6-5.9,6c-3.3,0.1-6.2-2.8-6.1-6.1c0.1-3.2,2.8-5.9,6-5.8C37.8,28.5,40.5,31.2,40.5,34.4z
		"/>
	<path class="st9" d="M54.7,34.3c0.1,3.2-2.5,6-5.8,6.1c-3.2,0.1-6-2.5-6.2-5.7c-0.2-3.3,2.6-6.3,5.9-6.3
		C51.9,28.4,54.6,31.1,54.7,34.3z"/>
	<path class="st9" d="M63.1,28.5c3.2,0.1,5.9,2.8,5.9,6c0,3.4-3,6.1-6.3,5.9c-3.2-0.2-5.8-3-5.7-6.2C57.1,31,59.9,28.4,63.1,28.5z"
		/>
	<path class="st2" d="M83.2,77.2c0,3.2-2.7,5.9-5.9,6c-3.4,0-6.2-2.9-6.1-6.2c0.1-3.2,2.9-5.8,6.1-5.8C80.6,71.3,83.2,74,83.2,77.2z
		"/>
	<path class="st2" d="M48.6,97.4c-3.2-0.1-5.9-2.8-5.8-6.1c0-3.4,3-6.1,6.3-5.9c3.2,0.2,5.8,3,5.6,6.2
		C54.6,94.9,51.8,97.5,48.6,97.4z"/>
	<path class="st2" d="M34.4,57c3.2-0.1,6,2.6,6.1,5.8c0.1,3.4-2.7,6.2-6.1,6.2c-3.2-0.1-5.9-2.8-5.9-6C28.5,59.7,31.2,57,34.4,57z"
		/>
	<path class="st5" d="M6,42.7c3.2,0,5.9,2.7,6,5.9c0.1,3.3-2.8,6.2-6.2,6.1c-3.2-0.1-5.9-2.9-5.8-6.1C0.1,45.4,2.8,42.7,6,42.7z"/>
	<path class="st8" d="M26.2,48.7c0,3.2-2.7,6-5.9,6c-3.3,0.1-6.2-2.8-6.1-6.1c0.1-3.2,2.8-5.9,6-5.9C23.5,42.7,26.2,45.4,26.2,48.7z
		"/>
	<path class="st8" d="M34.4,54.7c-3.2-0.1-5.9-2.8-5.9-6c0-3.4,2.9-6.1,6.3-6c3.2,0.2,5.8,3,5.7,6.2C40.4,52.1,37.6,54.8,34.4,54.7z
		"/>
	<path class="st9" d="M48.6,54.7c-3.2-0.1-5.9-2.8-5.9-6c0-3.4,2.9-6.1,6.3-6c3.2,0.2,5.8,3,5.7,6.2C54.6,52.1,51.8,54.8,48.6,54.7z
		"/>
	<path class="st7" d="M69,48.6c0.1,3.2-2.6,6-5.8,6.1c-3.2,0.1-6-2.5-6.2-5.7c-0.2-3.3,2.6-6.3,6-6.3C66.2,42.7,68.9,45.4,69,48.6z"
		/>
	<path class="st0" d="M77.3,42.7c3.2,0,5.9,2.7,6,5.9c0,3.4-2.9,6.2-6.2,6.1c-3.2-0.1-5.8-2.9-5.8-6.1C71.3,45.4,74,42.7,77.3,42.7z
		"/>
	<path class="st0" d="M91.6,54.7c-3.2,0.1-6-2.6-6.1-5.8c-0.1-3.2,2.5-6,5.7-6.2c3.3-0.2,6.3,2.6,6.3,6
		C97.5,51.9,94.8,54.6,91.6,54.7z"/>
	<path class="st8" d="M54.7,63.1c-0.1,3.2-2.9,5.9-6,5.8c-3.4,0-6.1-3-5.9-6.3c0.2-3.2,3-5.8,6.2-5.7C52.2,57.1,54.8,59.9,54.7,63.1
		z"/>
	<path class="st7" d="M57,63c0-3.2,2.7-5.9,5.9-6c3.4-0.1,6.2,2.8,6.1,6.2c-0.1,3.2-2.9,5.9-6.1,5.8C59.7,68.9,57,66.2,57,63z"/>
	<path class="st2" d="M20.3,83.2c-3.2,0-6-2.6-6-5.9c-0.1-3.4,2.8-6.2,6.1-6.1c3.2,0.1,5.9,2.8,5.9,6C26.2,80.5,23.5,83.2,20.3,83.2
		z"/>
	<path class="st8" d="M54.7,77.3c-0.1,3.2-2.8,5.9-6,5.9c-3.4,0-6.1-3-6-6.3c0.2-3.2,3-5.8,6.2-5.7C52.2,71.3,54.8,74.1,54.7,77.3z"
		/>
	<path class="st2" d="M384.7,53.7c0-4.2,0-8.5,0-12.7c0-0.9-0.3-2,1.3-2.1c1.7-0.1,1.7,0.9,1.7,2.1c0,8.4,0.1,16.7-0.1,25.1
		c-0.1,3.8-2.3,6-5.4,5.8c-0.7,0-1.6,0.1-1.8-0.9c-0.2-0.9,0.2-1.5,1.1-1.5c3.1-0.1,3.1-2.2,3.1-4.5
		C384.7,61.2,384.7,57.5,384.7,53.7z"/>
	<path class="st1" d="M419.9,43.6c2.1-2.5,3.9-4.4,6.7-4.7c0.9-0.1,2.1-0.6,2.3,1c0.2,1.2-0.5,1.6-1.6,1.9c-5.6,1.6-7.2,3.8-7.2,9.6
		c0,3.2,0,6.5,0,9.7c0,1.1,0,1.9-1.5,1.9c-1.5,0-1.5-0.8-1.5-1.9c0-6.6,0-13.2,0-19.8c0-0.9-0.7-2.4,1.3-2.4c1.9,0,1.3,1.4,1.4,2.4
		C419.8,41.8,419.8,42.3,419.9,43.6z"/>
	<path class="st4" d="M183.7,43.4c2-2.4,3.8-4.4,6.8-4.6c0.8-0.1,1.8-0.5,2.1,0.8c0.2,1.1-0.2,1.7-1.4,2.1c-6.3,2-7.4,3.7-7.5,10.1
		c0,2.9,0,5.7,0,8.6c0,1.1,0.6,2.7-1.6,2.6c-2.2-0.1-1.3-1.8-1.3-2.7c-0.1-6.2-0.1-12.4,0-18.7c0-0.9-0.8-2.4,1-2.6
		c2.1-0.2,1.6,1.3,1.7,2.5C183.5,42,183.6,42.4,183.7,43.4z"/>
	<path class="st10" d="M280.5,46.1c0-4.6,0-9.2,0-13.9c0-1-0.4-2.3,1.5-2.3c1.9,0,1.5,1.3,1.5,2.3c0,9.5,0,19,0,28.5
		c0,1,0.4,2.3-1.5,2.3c-1.9,0-1.5-1.3-1.5-2.3C280.5,55.8,280.5,51,280.5,46.1z"/>
	<path class="st10" d="M198,51.2c0,2.7,0.2,5.5-0.1,8.2c-0.1,1.2,1.3,3.4-1.3,3.4c-3,0.1-1.5-2.4-1.5-3.6c-0.2-5.6-0.2-11.2,0-16.9
		c0-1.1-1.3-3.4,1.3-3.4c3,0,1.4,2.4,1.5,3.6C198.2,45.5,198,48.4,198,51.2z"/>
	<path class="st11" d="M408.1,32.4c0,1.3,0.3,2.7-1.8,2.6c-1.9-0.1-1.4-1.4-1.4-2.4c0-1.2-0.4-2.6,1.7-2.5
		C408.5,30.2,408,31.5,408.1,32.4z"/>
	<path class="st11" d="M396.7,32.4c0-1.2-0.3-2.4,1.6-2.4c2.1,0,1.5,1.5,1.6,2.6c0.1,1.1,0.2,2.3-1.6,2.3
		C396.2,35,396.9,33.5,396.7,32.4z"/>
	<path class="st10" d="M195,32.2c-0.1-1.4-0.1-2.3,1.4-2.3c2.2,0,1.4,1.6,1.5,2.6c0.1,1,0.1,1.9-1.4,1.9
		C194.2,34.5,195.3,32.8,195,32.2z"/>
	<path class="st10" d="M387.7,32.2c-0.2,0.8,0.6,2.2-1.4,2.2c-1.8,0.1-1.7-1-1.6-2.2c0.1-1-0.6-2.3,1.4-2.4
		C387.9,29.9,387.8,31,387.7,32.2z"/>
</g>
</svg>
