<?xml version="1.0" encoding="utf-8"?>
<!-- Generator: Adobe Illustrator 21.1.0, SVG Export Plug-In . SVG Version: 6.00 Build 0)  -->
<svg version="1.1" id="Lager_1" xmlns="http://www.w3.org/2000/svg" xmlns:xlink="http://www.w3.org/1999/xlink" x="0px" y="0px"
	 viewBox="0 0 1383 1080" style="enable-background:new 0 0 1383 1080;" xml:space="preserve">
<style type="text/css">
	.st0{fill:#231F20;}
	.st1{fill:#FBFAD5;}
	.st2{fill:#F6924B;}
	.st3{fill:#F1633A;}
	.st4{fill:#241F20;}
	.st5{fill:#242020;}
	.st6{fill:#D5D4D5;}
	.st7{fill:#B9B7B8;}
	.st8{fill:#C2C1C2;}
	.st9{fill:#FDC168;}
	.st10{fill:#FBE26E;}
	.st11{fill:#767474;}
	.st12{fill:#EC1F24;}
	.st13{fill:#9A9899;}
</style>
<g>
	<path class="st0" d="M448.1,1080c-1.9-1.8-3.8-3.6-5.8-5.6c11.9-17.5,23.8-34.8,36-52.7c-24.1,13.4-49.6,20.9-75.9,27.5
		c6.8-7.6,13.5-14.5,19.6-22c13.1-16.1,23.1-34,31.1-53.1c1.7-4,3.5-7.8,5.4-12c-2.8,0.3-5.8,0.7-8.8,1.1
		c-13.2,1.7-26.5,2.3-39.8,1.2c-7.1-0.6-14.3-0.3-21.5-0.4c-6-0.1-11.9-0.4-18.7-0.6c3.2-3.9,6.8-6,10-8.7c3.3-2.8,6.8-5.4,9.9-8.6
		c-3.5,1.6-7,3.3-10.6,4.8c-17.4,7.1-35.5,11.8-54.1,14.3c-12.6,1.7-25.2,2.3-37.8,1.7c-9.8-0.5-19.5-2.1-28.6-5.8
		c-0.6-0.2-1.2-0.6-1.7-0.9c-0.1-0.1-0.1-0.3-0.3-0.7c17-10.5,34.7-19.7,52.5-29.3c-2.1-4.6-4-8.9-6-13.3
		c-2.6-5.8-5.2-11.5-7.6-17.3c-0.9-2.4-2.3-3.2-4.7-3.5c-10.1-1.2-20.1-2.3-30.1-4c-9.8-1.7-19.4-4.1-29.4-6.2
		c0.5-0.9,0.6-1.5,0.9-1.7c22.3-13.4,44.2-27.7,67.8-38.9c22.7-10.8,40-27,53.6-47.7c1.5-2.3,3.9-4.2,4-7.3c2.2-3,4.4-5.9,6.6-8.9
		c1.1-1.2,2.2-2.4,3.2-3.7c7.7-10.5,15.8-20.6,26.3-28.5c1.4-1.1,2.9-2.1,4.3-3c11.1,11.7,16.2,34.8,4.5,52.6c0.5,0.1,1,0.3,1.3,0.2
		c9-5.6,18.4-5,27.7-1c7.2,3,14.1,6.5,21.2,9.8c1,0.5,2.1,0.7,3.2,1.1c0,0,0.2-0.2,0.2-0.3c0-0.2-0.1-0.3-0.2-0.5
		c1.2,1,2.4,2.1,3.5,3.1c-2.7-0.5-5.5-0.8-8.2-1.6c-7.6-2.2-15.1-4.7-22.7-6.7c-3.9-1-7.9-2.1-12.2-1.2c-6.1,1.2-10.5,4.7-13.9,9.6
		c-2.7,3.7-5.9,6.7-10.2,8.5c-4.2,1.8-8.5,3.6-12.7,5.5c-4.1,1.8-8.3,3.7-13.4,6c23.2,10.1,45.7,18.1,70.2,18.8
		c20.7,0.6,41.2-2.3,47.9-6.3c-8.3-10.9-16.6-21.7-24.9-32.6c1,0.5,2.1,0.9,3.1,1.5c4.8,3,9.5,6.1,14.3,9.1c2.2,1.4,4.7,2.6,6.9,4
		c19.9,13.4,37.4,29.4,51.3,49.1c9.3,13.1,16.3,27.3,20.6,42.8c2.2,8,3.4,16.2,4.4,24.4c1.3,11.4,0.5,22.6-0.8,33.8
		c-0.9,8.1-2.3,16.1-3.5,24.1c-1.3,8.7-2.6,17.4-3.8,26.1c-0.3,1.9-0.3,3.9-0.6,6.4c8-4.2,15.5-7.9,22.7-11.9
		c6.5-3.6,13.1-7.3,19.3-11.4c6-4,9.9-9.9,11.1-17.1c0.7-4.1,0.9-8.3,1-12.4c0.3-14.5,0.5-28.9-1.7-43.3
		c-2.3-15.7-6.3-30.8-12.8-45.2c-14.6-32.5-38.3-56.7-68.8-74.7c-9.1-5.4-18.6-10.3-27.7-15.8c-18-10.8-33.7-24.3-46.6-41
		c-12.8-16.6-22-35-26.6-55.6c-2.9-12.7-4.7-25.4-4.8-38.4c-0.1-12.3,1-24.5,2.9-36.7c2.2-14.4,5.3-28.7,10.3-42.4
		c3.9-10.7,8.9-21,13.3-31.5c0.6-1.4,1.2-2.9,1.8-4.3c-0.9,0-1.3,0.2-1.5,0.6c-6.6,9.6-13.2,19.2-19.8,28.7
		c-11.1,16-20.4,32.9-26.7,51.5c-7.3,21.9-10.5,44.1-7.4,67.2c1.6,11.8,4.9,23,9.7,33.8c6.9,15.5,16.8,29,27.8,41.7
		c8.6,9.9,17.5,19.6,26.3,29.4c1,1.2,1.7,2.7,2.5,4.1c-16.9-16.8-34.4-32.9-48.5-52.3c-11.9-16.4-19.9-34.5-23.3-54.4
		c-2.2-12.8-2.1-25.8-0.6-38.8c2.3-19.5,8.2-37.8,16.3-55.5c5.8-12.6,13.7-23.9,21.5-35.2c6-8.6,12-17.2,18.1-25.7
		c1.9-2.6,4.5-4.9,6.8-7.2c2.2-2.1,4.7-2.9,7.8-1.8c1.1,0.4,2.3,0.4,3.8,0.7c-0.6,1.5-1.1,2.8-1.8,4c-5.8,11.9-11.7,23.8-17.4,35.8
		c-7.1,14.7-11,30.5-14.7,46.3c-0.2,0.8,0,1.6,0.2,2.4c3.6-11.6,8.3-22.7,17.5-32.3c0.1,2.4,0.2,4.1,0.3,5.8c0.8,19,3,37.7,9.8,55.6
		c0.8,2.2,1.4,4.5,2.5,6.5c5.1,9.6,6,20,5.2,30.5c-0.7,8.1,0.4,15.9,1.9,23.7c3.4,18.4,9.2,36.3,14.9,54.1c0.4,1.2,0.8,2.5,1.3,4
		c-5.3,0.2-9.6-2.4-15-4.3c1.2,2.5,2.8,3.5,4.1,4.8c1.3,1.3,2.6,2.6,4,3.8c11.1,9.1,23,17,35.7,23.7c10.9,5.7,21.8,11.2,32.1,18
		c24.9,16.5,44.7,37.6,58,64.5c7,14.2,11.6,29.2,14.6,44.7c3.5,17.9,3.6,36.1,2.9,54.2c-0.2,4.3-0.5,8.7-1.6,12.8
		c-2.1,8.4-7.1,15.1-14.2,19.8c-6.8,4.5-13.9,8.5-21,12.3c-11.5,6.1-23.3,12-35.6,18.2c0.6-4.9,1.1-9.2,1.8-13.5
		c2.2-14.3,4.5-28.5,6.8-42.7c1.2-7.7,2.7-15.4,3.6-23.1c0.7-5.8,0.7-11.6,1-16.9c-2.7,7.1-5.4,14.7-8.5,22.1
		c-6.5,15.6-13.3,31.1-19.8,46.6c-1.9,4.6-3.7,9.2-5.4,13.9c-3.6,9.9-10,16.8-19.5,21.5c-15.7,7.9-31.1,16.4-46.6,24.6
		c-0.4,0.2-0.6,0.7-0.8,1C451.5,1080,449.8,1080,448.1,1080z M353.2,897.7c0,0.3,0.1,0.6,0.1,0.9c3.4,0.5,6.8,1.1,10.2,1.6
		c9.3,1.5,18.5,3.2,27.8,4.6c10.2,1.5,20.5,1.3,30.9,1.2c12.3-0.1,24.3-2.4,36.1-5.8c16.2-4.6,31.1-12,45.7-20
		c2.5-1.3,4.8-2.9,7.1-4.6c4.4-3.4,4.2-6.5,1-10.1c-2.6-3-5.5-5.8-8.5-8.5c-3.3-3-7.3-3.8-11.6-3.1c-2.4,0.4-4.9,0.9-7.3,1.2
		c-9.7,1.3-19.3,3-29,3.5c-10.8,0.6-21.6,0.1-32.5,0.1c-2.2,0-4.3-0.1-6.5-0.1c-2.6,0-4.7,0.8-6.3,3.2c-1.4,2.2-3.3,4.2-5.1,6.1
		c-11.4,12.4-25.2,20.8-41.1,25.9C360.6,895.3,356.9,896.5,353.2,897.7z M399.6,854.5c-2.6-0.6-4.7-1.1-6.7-1.6
		c-9.6-2.3-19.2-4.6-28.1-9.2c-13.1-6.8-26.4-6.6-39.8-1.2c-7.9,3.2-15.7,6.9-23.3,10.8c-19.3,9.7-38.5,19.7-57.7,29.6
		c-0.6,0.3-1,0.8-1.9,1.4c14.2,4.9,28.3,7.7,42.7,8.4c7.6,0.4,15.2-0.4,22.9-0.7c12.1-0.4,24-2.5,35.7-5.2
		c15.4-3.5,30-8.9,42.6-18.9C390.9,864.2,395.3,859.8,399.6,854.5z M521.2,884.7c-0.8,0.3-1.5,0.4-2,0.7c-18.6,9-37.2,18-55.8,27
		c-4.5,2.2-9.1,3.9-14,4.8c-5.9,1.1-11.3,3.2-16.3,6.8c-13.3,9.9-26.9,19.4-40.4,29.1c-2.4,1.8-4.9,3.5-7.9,5.8
		c8.7,0.9,16.5,1.5,24.2,2.4c13.1,1.5,26.2,1.6,39.1-1.2c20.7-4.4,38.2-14.7,53-29.7c7.5-7.6,13-16.8,20.9-24
		c0.5-0.4,0.7-1.1,1.1-1.6C527.6,898.9,527.7,890.5,521.2,884.7z M317.8,933.3c-19.5,9.6-39,18-59,26.2c1.5,0.5,2.5,1.2,3.6,1.3
		c3.9,0.5,7.9,1,11.9,1.1c12.1,0.4,24.2,0.1,36.2-1.8c8.7-1.3,17.2-2.8,25.8-4.8c13.5-3.1,26.7-7.2,39.6-12.2
		c9.6-3.7,18.8-8.1,27.5-13.5c3.4-2.1,6.4-4.8,10.4-7.8c-6-1.5-10.9-2.6-15.8-3.9c-12.4-3.2-24.9-6.3-37.3-9.8
		c-9.1-2.6-18.1-5.3-27.5-6c-8.4-0.6-17-0.2-25.5-0.1c-1.2,0-2.3,0.7-3.4,1.1C309,913.4,313.3,923.2,317.8,933.3z M532.6,910.9
		c-7,9.2-13.3,18.1-20.2,26.6c-11.2,14-25.4,23.7-43.2,27.3c-4.1,0.8-6.4,2.8-8.1,6.3c-8.1,17.3-18.6,33.2-30.1,48.5
		c-5.6,7.5-11.6,14.7-17.6,22.3c0.7-0.1,1.2-0.1,1.6-0.3c18-7.5,35.9-15,53.9-22.5c3.9-1.6,6.4-4.7,8.9-7.7
		c7.2-8.7,14.2-17.5,21.4-26.2c4.6-5.5,9.4-10.8,13.9-16.3c7.2-8.9,14.3-17.9,21.2-27c2.3-3,4.3-6.3,6-9.6c3-5.8,1.7-11.3-2.6-16
		C536.3,914.3,534.4,912.6,532.6,910.9z M547.5,943.6c-1.5,0.6-1.8,0.6-2.1,0.8c-9.1,7-18.1,14-27.1,21.2c-1.6,1.3-2.9,3.2-3.9,5
		c-5,9.7-9.8,19.5-14.8,29.2c-3.9,7.5-7.7,15.1-12.3,22.2c-9.6,14.9-19.7,29.5-29.6,44.2c-0.5,0.8-0.8,1.8-1.2,2.5
		c15.1-6.4,30.1-12.6,44.9-19c6.1-2.6,11-6.8,13.9-13c1.5-3.1,3-6.3,4.2-9.5c8.7-24.8,17.2-49.6,25.8-74.4
		C546.2,950.1,546.7,947.2,547.5,943.6z M471.2,768.8c-0.1-1.2,0-2.2-0.3-3.1c-3.6-13.1-7-26.2-11.1-39.1
		c-4.5-14.1-7.8-28.4-7.8-43.3c0-5.3-1.3-10.5-3.3-15.5c-2.5-6.1-4.7-12.4-6.5-18.7c-2-7-2.9-14.2-3.4-21.6
		c-0.5-6.7-0.8-13.2,0.1-19.9c0.2-1.5,0.2-3,0.2-4.5c0-1.3,0-2.6,0-4.8c-1,1.4-1.5,1.8-1.8,2.4c-0.8,1.6-1.5,3.3-2.3,5
		c-6.5,14.7-8.3,30.3-8.7,46.1c-0.3,11.1,0.9,22.2,2.5,33.2c1.8,12.3,4.4,24.4,8.4,36.2c4.2,12.5,9.5,24.4,17.8,34.8
		C459.4,761.4,464.2,766.1,471.2,768.8z M341.6,824.5c14.2-3.7,27.5-9,40.2-16.3c13.8-7.9,20.3-19.8,21.2-35.2
		c0.5-7.3-1.1-14.4-3.6-21.3c-0.5-1.3-1-2.5-1.7-4c-0.8,0.7-1.1,1-1.5,1.4c-8.2,8.8-14.5,18.9-20.8,29
		C365.6,794.5,356,811.2,341.6,824.5z M503.1,888.4c0.1,0.2,0.2,0.5,0.3,0.7c0.9-0.2,1.9-0.4,2.7-0.7c3.9-1.3,7.9-2.5,11.7-4
		c2.9-1.1,5-0.4,7.1,1.8c3.8,4.1,5.1,8.8,4.4,14.3c0.6-0.1,1.2-0.4,1.5-0.2c5.7,4.1,11.2,8.3,14.7,14.6c3.4,6.1,3.7,12.3,0.8,18.6
		c-0.4,1-0.8,2-1.6,4.1c3.1-3,5.4-5.1,7.5-7.1c-0.4-1.5-0.8-2.7-0.9-3.8c-2.2-13.6-7.1-26.2-13.5-38.2
		c-6.6-12.4-15.1-23.5-24.8-33.6c-11.2-11.7-22.9-22.8-36.7-31.3c-0.9-0.5-1.8-1-2.7-1.5c6.9,8.2,14.2,15.9,21.3,24.7
		c-6.4,2.5-12.2,4.9-18.1,7.2c5.2-0.6,10.4-1.5,15.5-2.6c3-0.6,6-0.5,8.7,0.8c6.2,3,11.6,7.2,15.8,12.7c3.5,4.5,3.3,9.4-0.7,13.6
		c-2.4,2.5-5.3,4.5-8.1,6.6C506.6,886.2,504.8,887.3,503.1,888.4z M401.3,854.5c-3.3,4.6-6,9.2-9.5,13.1
		c-11.7,13.3-26.9,20.9-43.7,25.4c-7.4,1.9-14.9,3.1-22.6,4.7c9.7,1.2,19.1,3.3,28.3,6.2c17.8,5.7,36,8.8,54.4,11.2
		c6.2,0.8,12.4,2.1,18.9,3.2c1.4-1.1,3.1-2.4,5.7-4.4c-15.5,0.7-29.7-0.6-43.7-3.6c-16.9-3.6-34.2-8.8-40.3-12.2
		c0.2-0.3,0.3-0.6,0.6-0.7c1.8-0.8,3.6-1.6,5.5-2.4c19.8-8.6,37.6-19.8,50.4-37.7c2.1-3,5.1-4.7,8.7-5.3c1-0.2,2-0.7,3.1-1.2
		c-15.8-3.5-31.3-7-47.3-10.5C379.8,846.6,390.9,849.1,401.3,854.5z M395,807.9c-19.4,8.8-39.8,14.2-58.4,23.4
		c3.1,0.2,6.3,0.4,9.6,0.5c0.9,0,1.9-0.3,2.7-0.7c1.7-0.9,3.2-2.2,4.9-3c11.5-5.4,23.1-10.7,34.6-16.2
		C390.8,810.9,392.8,809.3,395,807.9z M418.7,657.3c-0.7,18.9,0.9,37.4,7.3,55.4c-1.2-9.1-4-17.9-4.9-27.2
		C420.1,676.2,418.9,666.8,418.7,657.3z"/>
	<path class="st0" d="M212.2,430.9c1.1,0.5,2.1,1.1,3.2,1.6c-0.1,0.3-0.2,0.6-0.2,0.9c-2.4,0.4-4.7,1-7.1,1.3
		c-7.9,0.8-15.9,1.8-23.8,2.3c-10.6,0.6-21.3,1.1-31.9,0.8c-21.3-0.6-42.3-3.4-62.5-10.7c-19.5-7-37.4-17-54.2-28.9
		c-11.6-8.2-22-17.7-32.2-27.5c-0.7-0.7-1.6-1.1-3.4-2.3c4.6-0.9,7.8-1.6,11.1-2.1c10.2-1.5,20.4-2.7,30.6-4.3
		c11.6-1.9,23.2-3.7,34.7-6.3c11.3-2.5,21.7-1.1,31.6,4.6c0.5,0.3,1,0.5,1.7,0.6c-30.1-28.6-57.9-58.9-75.7-98
		c25.4,4.4,50.2,8.4,74.6,14.7c-0.5-0.8-1.2-2-2-3.1c-20-26.9-35.9-56.2-49.5-86.7c-15-33.6-26.2-68.6-36.1-104
		C14.6,60.4,8.2,37.1,2,13.8C0.8,9.3,0.7,4.6,0.1,0c0.7,0,1.3,0,2,0c0.1,0.6,0,1.3,0.3,1.9C12.8,23,23,44.3,33.7,65.2
		C46,89,60.6,111.4,75.5,133.6c17.2,25.6,36,49.9,57.7,71.9c12.7,12.8,26.2,24.6,41,34.9c4.7,3.3,7.9,7.4,10,12.6
		c7.8,19,15.7,37.9,23.8,56.8c9.2,21.5,18.5,42.9,27.8,64.3c0.4,1,0.7,2,1.2,3.2c-25.4-4.7-51.7-20.7-81.2-47.8
		c2.1,4.4,5.2,6.6,7.3,9.5c2.3,3.1,4.8,5.9,7,9c2.2,3.1,4,6.5,5.7,9.2c4.2,1.5,7.9,2.6,11.6,4.1c16.7,6.8,33.4,13.7,50.2,20.4
		c5,2,8.8,5.2,12,9.4c2.6,3.4,5.2,6.9,7.9,10.3c1,1.2,2.1,2.3,3.5,3.3c-36.6-52.3-60.5-109.6-70.1-172.9c0.7,1.4,1.5,2.8,2.1,4.2
		c14.9,33.3,35.1,63.2,58.5,91.1c13.5,16.1,28.1,31.2,43,46c5.6,5.5,11.6,10.5,18.6,14.2c13.4,7.1,21.7,18.2,26.1,32.5
		c3.5,11.4,7,22.8,10.8,34.1c3.4,10.2,7.8,20.1,12.9,29.6c0.5,0.9,1,1.7,2,2.4c-0.2-0.8-0.4-1.6-0.7-2.4
		c-8.5-19.3-14.4-39.5-18.2-60.3c-3-16.8-6.1-33.6-8.7-50.5c-2.4-15.4-4.3-30.9-6.4-46.4c-1.6-11.5-3.2-23-4.7-34.5
		c-0.2-1.5,0-3,0-5.6c2.2,5.9,4.1,10.7,5.8,15.6c13.2,37.6,29.2,73.9,48.1,109.1c18.2,34,38.7,66.6,60.7,98.3c4,5.7,8,11.4,12,17.1
		c-1.3-1-2.8-1.7-3.9-2.9c-4.5-5.1-9.2-10.1-13.3-15.5c-9.5-12.5-18.9-25.1-28.2-37.7c-14.5-19.9-27.2-41-38.6-62.7
		c-12.6-23.9-23-48.7-32.6-75c0,3.2-0.2,5.5,0,7.8c0.5,5.1,1.2,10.1,1.8,15.2c0.4,4.1,0.6,8.3,1.2,12.3c1.5,9.7,3.2,19.4,4.8,29.2
		c2.1,12.5,5.2,24.7,8.9,36.8c4.1,13.5,9,26.8,14.4,39.8c7.2,17.2,17.2,32.4,32.4,43.7c10.9,8.1,21.5,16.5,32.5,24.9
		c3.7-2.6,7.4-5.4,11.3-7.8c3-1.9,5.4-5,9.3-5.2c-6.7,5.8-13.3,11.5-20.4,17.7c-18.9-13.1-39-24.4-55.1-41.2
		c7.9,12,18,21.8,29.1,31.1c-1,1.2-1.8,2.2-2.6,3.2c-24.5-16.7-47.8-34.6-69.7-54.4c-1.3-1.1-2.3-3.1-5-2c9.1,8.4,17.8,17,27.2,24.7
		c12.8,10.6,26.1,20.6,39.3,30.7c4.5,3.5,4.6,3.5,1,9.2c-12.4-6.8-24.9-13.5-37.3-20.6c-22.9-13.2-45-27.6-66.1-43.5
		c-24.5-18.5-47.4-38.9-67.9-61.7c-8.8-9.8-16.8-20.2-25.2-30.3c-0.8-1-1.6-2-2.8-2.7c2.7,5.8,6.6,10.8,10.1,16
		c3.5,5.4,7.4,10.6,11.5,16.6c-9.8-1.7-18.7-3.7-27.7-6.5c0.6,0.6,1.2,1.2,1.9,1.6c5.3,3.7,10.7,7.3,16,11.1
		C210.2,428.9,211.2,430,212.2,430.9c-1.4-0.5-3-0.9-4.4-1.6c-21.5-11.2-42.6-23.1-63.2-35.7c-12.1-7.4-23.9-15.4-35.7-23.2
		c-9.6-6.3-19.8-9.6-31.3-7.3c-8.2,1.7-16.4,3.3-24.8,4c-8.5,0.7-17,1.9-25.5,2.8c-5.6,0.5-11.2,0.8-17.8,1.3
		c4.7,4.6,8.7,8.7,12.9,12.6c7.5,7.2,15.9,13.4,24.8,18.9c14.5,9.1,30.3,15,46.7,19.3c10,2.6,20.1,4.5,30.3,6.2
		c9.9,1.7,19.9,2.5,29.9,3.6c6.6,0.7,13.2,0.9,19.8,1c13,0.1,25.9,0,39,0C212.5,432.1,212.4,431.5,212.2,430.9z M230.1,371.7
		c-0.6-2.1-0.7-3.1-1.1-4c-8.6-20.9-17.2-41.8-25.9-62.7c-4.4-10.6-8.9-21.2-13.4-31.7c-3.1-7.1-6.4-14.1-9.4-21.1
		c-1.5-3.3-3.9-5.8-6.7-7.8c-3.2-2.3-6.7-4.2-9.9-6.5c-11.3-8.1-22.4-16.5-32.4-26.2c-10.7-10.4-21.5-20.8-30.7-32.7
		c-7.3-9.4-14.7-18.7-21.5-28.4c-8.1-11.6-15.8-23.5-23.3-35.6c-6.8-11.1-13.3-22.4-19.5-33.8c-4.8-8.8-8.9-18-13.1-27.1
		c-3.5-7.8-6.8-15.7-10.1-23.5c-3.5-8.3-7-16.7-10.4-25c-0.5,2.3-0.3,4.4,0.4,6.4C9.7,32,16.3,52.2,22.9,72.4
		c10.4,31.8,20.6,63.6,33.9,94.3c7,16.1,14,32.2,22.3,47.7c12.7,23.8,26.9,46.5,43.4,67.8c8.1,10.5,16.9,20.4,25.8,30.2
		c5.5,6,11.7,11.3,17.6,17c7.7,7.5,16,14.3,24.8,20.7c10.5,7.7,21.4,14.8,33.8,19.1C226.2,369.8,227.7,370.6,230.1,371.7z
		 M208.2,414.2c-1-2-1.6-3.4-2.4-4.7c-12.3-19.1-24.6-38.2-37-57.3c-1.3-1.9-2.7-3.8-4.3-5.4c-11.7-12.1-23.5-24-35.1-36.1
		c-7.9-8.3-15.6-16.8-23.2-25.3c-2-2.2-4.3-3.6-7.1-4.2c-19.7-4.7-39.4-9.7-58.7-15.9c-1-0.3-2.1,0-3.4,0c0.3,0.9,0.4,1.3,0.6,1.8
		c0.4,0.7,0.8,1.5,1.2,2.1c10.9,17.2,23.9,32.9,37.8,47.7c12,12.9,24.8,25,38.1,36.6c11.1,9.7,22.4,19.1,34.2,27.9
		c14.7,11,30.1,20.8,46.7,28.5C199.5,411.5,203.3,413.5,208.2,414.2z M379.3,515.1c0.3-0.4,0.6-0.6,0.5-0.6c-0.9-1.4-1.9-2.7-2.9-4
		c-10.8-14.1-18.7-29.9-25.8-46c-6.2-14.1-10.8-28.9-15.9-43.4c-4.5-12.7-12.3-22.5-24.8-28.2c-7.9-3.7-14.6-9-20.9-15
		c-13.4-12.7-26-26.2-37.8-40.4c-8.4-10.2-16.7-20.5-24.1-31.5c-10.6-15.7-20.4-31.9-27.8-49.5c-1-2.4-2.1-4.7-3.2-7
		c0.1,3.6,0.8,6.9,1.9,10.1c6.7,21.1,14.3,41.9,23.6,62.1c9.3,20.2,20.2,39.6,32.4,58.3c10.4,16,21.6,31.2,33.8,45.9
		c8.9,10.7,18.1,21.2,27.7,31.3c13.4,14.1,27.6,27.4,42.2,40.3c4.9,4.3,9.8,8.5,14.7,12.6C375,511.8,377.2,513.4,379.3,515.1z
		 M181.7,360.9c-0.2,0.2-0.4,0.5-0.7,0.7c0.3,0.5,0.6,1.1,1,1.6c7,8.4,14,16.7,20.9,25.2c9.6,11.7,20.3,22.4,30.7,33.3
		c3,3.1,6.3,5.9,9.5,8.8c6.8,6.1,13.5,12.2,20.3,18.4c11.8,10.7,24.3,20.4,37,30c23.8,18.1,48.5,34.8,74.1,50.3c2,1.2,4,2.6,6,3.8
		c0.3-0.3,0.5-0.7,0.8-1c-0.7-0.4-1.4-0.8-2-1.3c-8.4-7-16.8-14-25.1-21.1c-5.9-5.1-11.7-10.3-17.5-15.5
		c-10.1-9.1-20.3-18.1-30.2-27.5c-12.7-12-24.7-24.6-35.6-38.3c-9.1-11.4-17.9-22.9-26.8-34.4c-2-2.5-4.2-4.6-7.1-6
		c-6.7-3.1-13.4-6.4-20-9.6c-10.6-5.2-21.3-10.6-31.9-15.8C184,361.9,182.9,361.4,181.7,360.9z"/>
	<path d="M1101.7,825.5c6.3-1.6,11.3-4,15.1-8.4c3.4-3.9,4.8-8.4,3.9-13.4c-2.5-13.7-5.3-27.3-7.9-41c-1.9-9.9-3.7-19.9-5.7-29.8
		c-1.9-9.4-4.1-18.8-6.1-28.2c-2-9.6-4-19.2-6-28.8c-0.2-1.1-0.7-2.1-1.3-3.9c-0.8,1.6-1.4,2.4-1.6,3.2c-4.1,20-8.1,40-12.2,59.9
		c-2.4,11.9-4.9,23.7-7.2,35.6c-2.2,11.4-4.3,22.8-6.5,34.2c-0.5,2.5,0.5,4.5,1.8,6.5c3.1,4.6,7.1,8.5,12,11.1
		c3.8,2.1,5.6,4.8,5.7,9c0,0.5,0,1,0,1.6c-1.2,1.4-2.6,2.1-4.7,1.5c-1.6-0.4-3.5,0-5.2,0.1c-15.2,0-30.3,0-45.5,0.1
		c-2.4,0-4.7-1.1-7.3-0.1c-1.5,0.6-2.7-1-2.9-2.6c-0.4-3.3,0.5-6.3,2.7-8.8c0.6-0.7,1.4-1.3,2-1.8c-7.9-0.5-15.7-1-23.5-1.4
		c-2.6-0.1-4.4-1.1-5.7-3.4c-5.9-10.4-12.4-20.5-17.5-31.3c-3.6-7.7-5.7-16.2-8-24.5c-2.7-10.1-4.8-20.3-7.2-30.5
		c-0.3-1.5-0.6-2.9-1.1-4.3c-1.1-2.8-2.9-3.8-5.9-3.3c-2.6,0.4-3.8,1.7-3.8,4.9c0,16.2,0,32.3,0.1,48.5c0,1.2,0.6,2.6,1.4,3.5
		c2.3,2.4,4.7,4.7,7.2,6.9c1.3,1.1,2.4,2.2,2.3,4.1c-0.2,2.4-0.5,3.2-2.8,3.1c-9.6-0.2-19.3-0.5-28.9-0.9c-1,0-1.9-0.5-2.8-0.8
		c-1.4-0.4-1.9-1.6-1.5-2.7c0.4-0.9,1.5-2.3,2.1-2.2c2.8,0.3,4.6-1.5,6.9-2.6c0.3-6.8,0.7-13.4,0.7-20c0.2-33.7,0.4-67.3,0.6-101
		c0-3,0.2-6,0.6-8.9c0.6-4.2-0.9-7.2-4.6-9.1c-3.1-1.6-6.3-3.1-9.4-4.6c-1.6-0.8-3.3-1.5-3.8-4.2c1.6-0.2,3.1-0.6,4.7-0.7
		c13.2-0.6,26.3-0.8,39.4,0.9c4.3,0.5,7.7,2.8,11.3,4.9c7.7,4.6,11.7,11.9,13.2,20.3c2.1,12,2.3,24.1-0.5,36.2
		c-1.7,7.3-5.2,13.7-9.9,19.3c-1.9,2.2-2.8,4.5-2.3,7.2c0.7,4.1,1.2,8.2,2.3,12.2c1.9,6.9,3.9,13.7,6.2,20.4
		c8.3,23.6,22.4,42.9,43.4,56.8c1.4,0.9,2.8,1.8,4.4,2.8c2.8-2.2,4.8-5.1,6.3-8.1c0.7-1.5,0.6-3.6,0.3-5.3
		c-1.3-7.9-2.7-15.7-4.3-23.5c-4.1-20.7-8.3-41.3-12.5-62c-3.1-15.3-6.3-30.5-9.4-45.8c-2-9.9-3.4-19.9-5.7-29.8
		c-1.8-7.7-4.4-15.2-6.7-22.8c-1-3.2-3-5.5-5.8-7.2c-3-1.8-5.8-3.9-8.6-6c-0.8-0.6-1.4-1.7-2.1-2.6c4.7-1.7,45.4-1.2,54.8,0.4
		c1.1,1.5-0.1,2.4-1.1,3.3c-4,3.6-7.9,7.1-12,10.8c8.2,45.1,17.5,89.8,26.8,135.7c0.9-1.6,1.4-2.2,1.6-2.9
		c2.9-14.1,5.9-28.2,8.7-42.4c1.8-9.1,3.5-18.2,5.2-27.3c1.9-9.8,3.8-19.5,5.7-29.3c2-10.2,4.1-20.5,6.2-30.7
		c0.5-2.3-0.1-3.7-1.9-5.1c-3-2.3-6-4.8-8.7-7.4c-1.5-1.4-3.3-2.9-3.4-5.3c3.6-0.9,47.7-1.2,54.9-0.4c1,1.8-0.1,3.1-1.3,4.2
		c-2.5,2.4-5.1,4.8-7.7,7.1c-1.4,1.2-2.8,2.3-4.2,3.5c-0.2,5,24.9,131.6,28.2,142.1c1.5-6.9,2.9-13,4.2-19.1c2.6-13,5.1-26,7.7-39
		c2.4-11.9,5-23.7,7.4-35.5c2.7-13.3,5.3-26.6,8-40c1.6-7.8,1.5-7.8-4.4-13c-2.6-2.3-5.2-4.7-7.7-7.1c-0.3-0.3-0.5-0.8-0.8-1.5
		c0.6-0.3,1.1-0.8,1.7-0.8c11.5-0.4,22.9-0.9,34.4-1.2c5.3-0.1,10.7-0.1,16,0c1.1,0,2.1,0.3,4.3,0.6c-2.2,2-3.7,3.5-5.3,4.9
		c-2.9,2.5-6,4.7-8.8,7.3c-1.4,1.3-3,2.9-3.4,4.7c-2.1,7.7-3.8,15.4-5.7,23.1c-0.1,0.4,0.1,0.9,0.2,1.7c2.2,0.2,4.3,0.4,6.4,0.5
		c10.7,0.2,21.3,0.3,32,0.6c7.8,0.2,15.6,0.4,23.3,0.8c2.5,0.1,4.9,0.7,7.7,1.2c0.9,3,1.6,6.1,2.6,9c3.5,9.8,7.3,19.5,10.6,29.4
		c2.7,8.2,4.7,16.6,7.2,24.8c1.5,5.1,3.5,10,5.3,15c1.1,3.1,3.6,4.5,6.6,5.8c2.6-2.7,2.8-6.2,2.7-9.4c-0.4-20.8-1-41.6-1.6-62.4
		c-0.1-2.3-0.8-3.7-3.4-4.7c-3.3-1.3-6.7-2.8-8.8-6.1c5.3-3.8,31.2-4.8,38.2-2.5c0.1,2-1.4,3-2.6,3.9c-5.8,4.7-7.4,10.5-7.3,17.9
		c0.4,31.7,0.2,63.3,0.2,95c0,3.5,0.5,7,0.5,10.4c0,4.3,1.4,7.7,4.5,10.7c1,1,2.6,2,1.8,3.7c-0.9,1.8-2.6,2.3-4.6,2.2
		c-7.3-0.4-14.6-0.7-21.9-1.1c-2.4-0.1-4.8-0.8-5.3-3.6c-1.3-7.8-4.6-14.9-7.4-22.1c-4.9-13-8.7-26.4-12.6-39.7
		c-1.1-3.8-2.6-7.5-4.3-11.1c-1.1-2.3-2.8-4.4-4.3-6.5c-4.1,1.2-5.4,3.6-5.3,7.2c0.4,18.8,0.6,37.6,0.9,56.5c0,1.2,0.3,2.3,0.3,3.5
		c0,4.3,1.3,7.4,6,8.8c2.4,0.7,4.4,2.7,6.8,4.3c-1.6,2.5-3.9,2.4-5.9,2.7c-7.4,0.9-14.9,1.4-22.3,2.3c-15.6,1.9-31.2,1.2-46.8,0.8
		c-4.4-0.1-8.8-1.2-13.4-1.9c1.4-2.8,3.8-2.2,5.5-2.9c3.8-1.6,7.8-2.7,11.5-4.4c4.6-2.1,6.2-6.1,6.2-11c0-10.5,0-21,0-31.5
		c0-25.8-0.3-51.7,0-77.5c0.1-7.7-3.9-11.8-9.8-15.6c-1.3,6.1-2.4,12-3.7,17.8c-2,9.4-4,18.8-6,28.2c-3.9,18.3-7.7,36.6-11.6,55
		c-2.9,13.9-5.8,27.9-8.6,41.8c-0.8,4.1-1.5,8.2-2.1,12.3c-1,6,0.7,11.2,5.4,15.3c3.8,3.3,8,5.9,13.4,7.1c-0.8,2.8-1.3,5.3-2.2,7.8
		c-0.5,1.4-1.8,2.4-3.1,1.8c-2.6-1.3-5.2-0.1-7.7-0.1c-13.7-0.1-27.3-0.1-41,0c-2.7,0-5.5-1.3-8.3-0.1c-0.5,0.2-2.1-1-2.5-1.8
		C1103.3,830.7,1102.7,828.3,1101.7,825.5z M1221.6,786.4c1.3-1.4,2.5-2.9,3.8-4.1c2.8-2.6,3.6-5.6,3.6-9.4
		c-0.1-32.6-0.1-65.2-0.1-97.9c0-4.8-0.3-9.6-0.7-14.4c-0.1-1.6-0.5-3.4-1.4-4.7c-1.8-2.5-4-4.7-6.3-7.4c-3,2.1-5.6,4.2-8.5,5.7
		c-1.9,1.1-2.4,2.6-2.5,4.4c-0.1,1.2,0,2.3,0,3.5c0,15.1-0.1,30.3-0.1,45.4c0,21.3,0.1,42.6,0.2,63.9c0,1.5,0,3.1,0.7,4.3
		C1212.8,780.3,1215.6,784.7,1221.6,786.4z M952,650.6c-0.2,4.5-0.7,8.8-0.7,13.1c0.1,12.4,0.4,24.9,0.7,37.3c0.1,6,2.5,7.6,8.3,6.1
		c2.7-0.7,4.9-2.2,6.4-4.5c1.4-2.2,2.7-4.6,3.4-7.1c3.1-10,4.1-20.1,1.7-30.4c-1-4.2-2-8.4-4.4-12c-2.2-3.2-4.9-4.8-8.9-3.7
		C956.6,649.8,954.7,650,952,650.6z"/>
	<path class="st1" d="M455.3,807.5c-0.8-1.4-1.4-2.9-2.5-4.1c-8.7-9.8-17.7-19.5-26.3-29.4c-11-12.7-20.9-26.2-27.8-41.7
		c-4.8-10.8-8.1-22-9.7-33.8c-3.1-23,0.1-45.3,7.4-67.2c6.2-18.6,15.6-35.5,26.7-51.5c6.6-9.6,13.2-19.2,19.8-28.7
		c0.2-0.3,0.6-0.6,1.5-0.6c-0.6,1.4-1.2,2.9-1.8,4.3c-4.5,10.5-9.5,20.8-13.3,31.5c-5,13.7-8,28-10.3,42.4
		c-1.9,12.2-3,24.4-2.9,36.7c0.1,13,1.9,25.7,4.8,38.4c4.6,20.6,13.8,39,26.6,55.6c12.9,16.6,28.6,30.1,46.6,41
		c9.1,5.5,18.5,10.4,27.7,15.8c30.4,18,54.2,42.1,68.8,74.7c6.5,14.4,10.4,29.6,12.8,45.2c2.2,14.4,2,28.9,1.7,43.3
		c-0.1,4.1-0.3,8.3-1,12.4c-1.2,7.2-5.1,13-11.1,17.1c-6.2,4.1-12.7,7.8-19.3,11.4c-7.3,4-14.7,7.7-22.7,11.9
		c0.2-2.5,0.3-4.5,0.6-6.4c1.2-8.7,2.5-17.4,3.8-26.1c1.2-8,2.6-16.1,3.5-24.1c1.3-11.2,2.1-22.5,0.8-33.8
		c-0.9-8.3-2.1-16.4-4.4-24.4c-4.3-15.5-11.3-29.7-20.6-42.8c-13.9-19.7-31.3-35.7-51.3-49.1c-2.2-1.5-4.6-2.6-6.9-4
		c-4.8-3-9.5-6.1-14.3-9.1c-1-0.6-2-1-3.1-1.5l0.1,0.1c-1.2-1-2.4-2.1-3.5-3.1C455.4,807.9,455.3,807.8,455.3,807.5z"/>
	<path d="M842.9,722c8,3.2,12,10.1,16.3,16.6c1.5,2.3,2.4,5.2,2.7,7.9c1,9.2,0.3,18.3-3.9,26.8c-2.3,4.6-4.6,9.2-8.5,12.8
		c-4.2,3.7-8.6,6.2-14.7,6.2c-13.6-0.1-27.3,0.6-41,0.9c-1.6,0-3.3,0-5.4,0c-0.1-1.9-0.3-3.5-0.4-5.3c3.8-1.5,7.3-2.8,11.2-4.3
		c0.3-4.6,0.9-9,0.9-13.5c0.1-31.2,0.1-62.3,0-93.5c0-4.1-0.6-8.3-0.9-12.4c-0.2-2-0.3-4.2-2.6-5c-2.4-0.8-4.9,0.1-6.4,1.8
		c-3.3,3.7-6.1,7.5-6,13.1c0.1,54.3-0.1,108.7-0.2,163c0,0.8,0,1.6,0,2.7c4.6,2.7,9,5.6,12.2,10.2c-1.1,2.4-3.3,2.8-5.4,3
		c-7.3,0.7-14.6,1.6-21.9,1.8c-4.1,0.1-8.2-0.9-12.3-1.6c-1.2-0.2-2.3-1-3.7-1.6c1.5-3.4,4.2-5.3,6.7-7.1c3.7-2.8,4.8-6,4.8-10.6
		c-0.2-36-0.1-72-0.2-108c0-3.8-0.3-7.6-1.1-11.4c-0.7-3.7-2.1-4.8-4.7-4.8c-2.8-0.1-5.4,1.9-6.3,4.8c-0.5,1.6-0.6,3.3-1,4.9
		c-2.3,10.2-4.6,20.4-7,30.5c-0.7,3-1.5,6.2-4.5,8c-3.3-1.3-4.7-4.3-5.8-7.3c-1.7-4.6-3.4-9.4-4.4-14.2c-1.6-7.7-4.2-15-7.3-22.1
		c-0.5-1.1-1.1-2-1.6-3.1c-1-1.9-2.6-2.4-4.6-2.1c-2.1,0.4-3.1,1.8-3.6,3.7c-0.2,0.9-0.1,2-0.1,3c0.1,13.2,0.1,26.3,0.3,39.5
		c0.1,6.8,0.6,13.6,0.8,20.5c0.1,3.2,1.1,5.5,4.4,7c2.9,1.3,6.2,2.3,8.3,5.1c-6.8,4.2-31.5,5.9-39.3,2.6c2.2-2.4,4.2-4.8,6.4-6.9
		c3.2-2.9,4.1-6.3,4.1-10.6c-0.2-34-0.1-68-0.1-102c0-1.5-0.1-3,0-4.5c0.3-5.6-1.1-10.5-5.4-14.4c-0.6-0.5-1.1-1.2-1.6-1.8
		c0.6-2,1.9-3.2,3.6-3.2c7.6,0.2,15.3,0.6,22.9,0.8c3.6,0.1,5.1,2.4,6.1,5.5c5.6,16.8,11,33.7,14.4,51.1c0.4,2.1,1,4.2,1.7,6.2
		c0.2,0.7,1.1,1.1,1.7,1.7c2.4-1.2,2.7-3.6,3.4-5.5c1.8-5,3.2-10.1,4.9-15.1c3.4-10.5,6.9-21.1,10.4-31.6c1.5-4.5,2.5-5.1,7.3-5.1
		c7,0,14,0,20.9,0c1.4-4,1.4-4.1,5.5-4c14.5,0.3,29,0.7,43.5,0.9c3.5,0.1,6.5,1.1,9.2,3.2c13.8,10.7,19.2,29,15.6,45.6
		c-0.2,1.1-0.5,2.3-1.1,3.3C855.4,710.7,851.6,718.4,842.9,722z M816.2,714c5.4,0,10,0,14.4,0c1-1.1,1.7-2,2.6-2.8
		c8.4-7.3,11-16.7,9.9-27.4c-1.5-14.4-12.1-23.9-26.9-21.3C816.2,679.5,816.2,696.4,816.2,714z M816.2,730.3c0,17.3,0,34.4,0,51.7
		c1.7,0,3.4,0.1,5,0c8.2-0.4,14.9-3.7,18.5-11.3c5.1-10.7,5.5-21.7-1.4-31.8c-6.9-10-6.6-9.8-18.3-9
		C818.9,730,817.7,730.2,816.2,730.3z"/>
	<path d="M611.2,792.3c-1.7,8.6-3.3,16.9-4.9,25.2c-0.4,1.8,0.2,3.1,1.6,4.4c3.3,2.8,6.5,5.8,9.6,8.7c1.1,1.1,2.8,1.9,2.5,4.2
		c-0.5,0.2-1,0.7-1.6,0.7c-17.5,0.4-35,0.8-52.4,1c-0.9,0-1.8-0.7-3.2-1.2c1.1-1.2,1.9-2.3,2.8-3.1c3.4-2.9,6.8-5.9,10.5-8.5
		c2.8-2,4.2-4.6,5.1-7.7c3.1-10.7,5.4-21.5,7-32.5c0.6-3.8,1.3-7.5,2.1-11.3c2.2-10.4,4.6-20.7,6.8-31c3.1-14.4,6.1-28.8,9.1-43.2
		c2.4-11.5,4.9-23,7.2-34.5c2.2-11.1,4.2-22.2,6.4-33.2c1.3-6.2,0.2-11.6-4.7-15.8c-3.1-2.7-6.2-5.7-9.7-7.7
		c-3.6-2.1-5.1-4.9-5.2-8.8c0-0.8-0.1-1.6-0.1-2.9c1.3-0.3,2.5-0.9,3.7-0.9c2.6,0,5.2,0.5,7.8,0.5c16.8,0.1,33.6,0.1,50.5,0.2
		c1.1,0,2.2-0.4,3.4-0.6c2.1-0.3,3.5,0.8,3.5,3c0.1,5.5-2.4,9.1-7.9,11.2c-3.6,1.4-5.7,4.5-8.2,7.2c-3.6,3.9-4.8,8.2-3.7,13.6
		c5,24.4,9.8,48.8,14.7,73.2c5.4,26.5,10.9,53,16.4,79.5c1.3,6.2,2.3,12.4,3.8,18.5c1.4,5.6,3.4,11.1,5.1,16.6
		c3.8,12.9,8.1,25.6,13.9,37.7c1.6,3.4,3.3,6.3,7.1,7.8c2,0.8,3.5,2.8,5.2,4.2c-1.3,2.8-3.3,2.2-5,2.2c-11.2,0-22.3-0.1-33.5-0.2
		c-5-0.1-10-0.4-15-0.7c-1.1-0.1-2.2-0.4-4-0.7c3.2-6.9,10.3-9.7,14.4-15.2c-4.8-20-9.5-39.9-14.3-59.9
		C642.3,792.3,627,792.3,611.2,792.3z M652.6,767.9c-5.9-29.5-11.7-58.7-17.6-88c-0.3,0-0.7,0-1,0c-5.8,29.3-11.7,58.5-17.6,88
		C628.6,767.9,640.4,767.9,652.6,767.9z"/>
	<path class="st2" d="M117.7,652c-1.3-1.5-0.5-2,1.1-2.1c4.8,2.1,9.5,4.3,14.4,6.1c20.3,7.4,41.4,12.1,62.9,13.6
		c10,0.7,20.1,1.6,30.3,0.6c8.1-0.8,16.2-0.6,24.2-2.2c6.8-1.4,13.7-2,20.4-3.6c15.1-3.4,29.7-8.4,44-14.3
		c23.7-9.7,46.3-21.5,68.3-34.7c1.5-0.9,3-1.6,4.8-2.6c0,0.9,0.1,1.5,0,1.9c-3.4,9.2-6.4,18.7-10.4,27.7c-4,9.1-9.5,17.5-17.9,23.4
		c-7.1,5.1-14.4,10-21.8,14.7c-17.6,11.2-36.1,20.4-56,26.9c-17.3,5.6-34.8,10.1-53.3,9.5c-10.9-0.4-21.3-2.4-30.9-7.6
		c-10.3-5.6-20.5-11.4-30.5-17.5c-13.3-8.1-26.1-17-37.1-28.2c-3.3-3.3-6.5-6.7-9.8-10C119.7,653.1,118.6,652.6,117.7,652z"/>
	<path class="st2" d="M376.2,664.8c0.7-1,1.3-1.1,1.8,0.2c-0.3,0.4-0.8,0.7-0.8,1.1c-0.4,9.3-0.7,18.6-1.1,27.8c0,0.7,0.1,1.4-0.1,2
		c-0.7,3.4-1.4,6.5-4.7,8.8c-5.8,4.1-11.1,8.9-16.6,13.4c-14.2,11.5-29.5,21.2-45.5,29.9c-12.8,6.9-26,12.8-39.7,17.7
		c-8.5,3.1-17.1,5.6-26,7.5c-8.1,1.7-16.1,3.4-24.3,3.9c-7.7,0.5-15.5,1.4-23.2,1.6c-5.9,0.1-11.9-0.5-17.9-0.8c-0.5,0-1,0-1.5-0.1
		c-8.3-1.3-16.6-2.5-24.9-3.9c-4.9-0.8-9.8-1.7-15.2-3.7c3.9-3.6,7.3-6.7,10.6-9.9c7.7-7.6,15.3-15.3,23-22.9
		c1.3-1.3,2.7-2.4,4.2-3.5c9.2-7.2,19.8-6.5,30.4-5.6c7.7,0.7,15.4,2,23.1,2.4c5.8,0.3,11.6-0.2,17.4-0.7c6.9-0.6,13.9-1,20.7-2.3
		c15.1-2.8,29.5-7.9,43.4-14.4c24.7-11.6,46-28,65.7-46.7C375.4,666.2,375.8,665.4,376.2,664.8z"/>
	<path class="st0" d="M200.3,555.8c8,0.3,16,1,23.9,0.9c12.5-0.2,24.9-0.9,37.3-2.5c9.3-1.2,18.6-0.2,27.7,2.2
		c6.6,1.7,13.2,3,19.9,4.4c1.3,0.3,2.7,0.1,4,0.1c5.8,1,11.5,2.1,17.3,3.1c0.9,1.9,2.6,0.7,3.9,1c11.2,2.2,22.4,4.1,33.6,6.3
		c11.3,2.2,22.6,4.6,35,7.1c-5.1,2.6-10.1,2.9-14.6,4.3c-4.5,1.5-9.2,2.5-13.8,4c7.8,0.1,15.2-2.3,22.8-3c0.1,0.1,0.3,0.2,0.4,0.3
		c0.1,0.1,0.1,0.4,0.1,0.4c-1.5,0.5-3,1-4.5,1.4c-13.1,3.2-26.1,6.5-39.2,9.7c-10.5,2.5-21,5.2-31.7,7.3c-11.9,2.4-24,4.1-36,6.2
		c-10,1.8-20,3.9-30,5.8c-11.3,2.2-22.4,5.2-33.1,9.4c-5,2-10.1,4-15,6.2c-9.7,4.3-19.9,6-30.3,6.3c-9.8,0.3-19.6,0.8-29.3-0.8
		c-6-0.9-12.1-1.4-18.2-2c-4.2-0.4-8.5-0.8-13-1.3c0.4,0.6,0.5,1,0.7,1.1c27.3,16.5,57,24.7,88.8,24.9c6.9,0,13.8-1,20.7-1.7
		c5.9-0.6,11.9-1,17.6-2.3c13.6-3.1,27.2-6.3,40.4-10.7c16.1-5.4,32.1-10.7,47.7-17.5c11.8-5.1,23.7-9.9,35.4-15
		c6.4-2.7,12.7-5.6,18.8-8.7c7.9-3.9,11.9-10.6,12.4-19.3c1.9,1.2,1.1,3,0.9,4.5c-1.1,7.1-4.5,12.8-10.4,16.8
		c-2.6,1.8-5.3,3.4-8.1,4.9c-23.4,12-47.1,23.5-71.7,33.1c-16.4,6.4-33.2,11.4-50.5,14.8c-19.3,3.9-38.9,5.3-58.6,4.1
		c-34.7-2.2-67-12.4-96.7-30.6c-2.3-1.4-4.5-2.8-6.8-4.2c-0.3-0.2-0.4-0.5-0.9-1c9.1-1,17.8,1.6,26.6,0.7
		c-15.1-3.7-29.6-8.4-42.3-18.9c4.3-2.2,8.5-2.8,12.5-3.7c13-2.8,26-5.4,39-7.8c7.5-1.4,15.1-2.5,22.7-3.1c4.6-0.4,9.3,0.4,13.9,0.6
		c1.1,0.1,2.2,0,4.4,0c-26-10.4-48.8-24.1-69.1-41.9c-8.1-7.2-15.3-15.2-21.8-24.9c1.5,0.3,2.5,0.3,3.4,0.7
		c14.4,4.9,28.8,10,43.2,14.7c11.8,3.9,23.9,6.8,36.2,8.8c0.7,0.3,1.4,0.7,2.2,0.9c6,1,11.9,2.1,17.9,2.8
		C190.8,555.4,195.5,555.5,200.3,555.8z M294,600.8c4.4-0.6,8.8-1.1,13.2-1.7c7.6-1.1,15.2-2.2,22.8-3.3c-4.1-0.5-8.2-0.2-12.2,0.2
		c-8.7,1-17.3,2-26,3c-0.6,0.1-1.1,0.5-1.7,0.8c-5.1,0.5-10.2,0.9-15.4,1.4c-10.9,0.9-21.8,2.2-32.7,2.7c-8.6,0.4-17.2,1.5-25.8,0.4
		c-0.5-0.1-0.9,0.1-1.8,0.2c5.4,1.1,10.4,2,16,3.1c-2.4,2.5-4.6,4.7-6.9,7C246.6,607.5,270.2,603.7,294,600.8z M384.9,578.9
		c-0.1-0.2-0.2-0.5-0.3-0.7c-6.1-1.4-12.1-3-18.2-4.2c-9.2-1.9-18.4-3.6-27.6-5.2c-9.6-1.7-19.1-3.2-28.7-4.8
		c-7.1-1.2-14.3-2.4-21.4-3.7c-10-1.8-20-1.9-30.1-0.1c-6.3,1.1-12.7,2.3-19.1,2.5c-9.1,0.4-18.2,0.9-27.3,0.4
		c-4.2-0.2-8.4,0.1-12.5-0.4c-8.5-1-16.9-2.5-25.4-3.7c-10.1-1.4-20-4-29.7-6.9c-16.3-4.9-32-11.1-47.3-18.5
		c-3.5-1.7-7.1-3.1-11.6-5.1c6,6.1,10.8,11.8,16.4,16.6c13.3,11.3,28,20.5,43.5,28.5c15.7,8.1,31.9,14.8,49.2,18.7
		c6.1,1.4,12.2,3.2,18.4,3.5c15.9,0.9,31.8,0.1,47.7-1.7c8.5-0.9,17.1-1.3,25.7-2.1c10.5-0.9,21.1-2,31.6-3c9.7-1,19.4-2.1,29.1-2.9
		c10.5-0.9,20.7-3.6,31-5.7C380.5,580,382.7,579.4,384.9,578.9z M221.2,610.6c-0.1-0.4-0.2-0.7-0.3-1.1c-3-0.8-6-1.7-9-2.4
		c-11.3-2.9-22.6-5.6-34.2-7.3c-7.1-1-14.1-1.4-21.2,0c-4.4,0.9-8.7,1.6-13.1,2.2c-6,0.8-12.1,1.5-18.2,2.2c-8,0.9-16,2-24.1,2.8
		c-5.3,0.5-10.5,0.7-16.5,1.1c1.4,0.9,2.2,1.4,3.1,1.8c1.6,0.8,3.3,1.5,5,2.1c17.6,6.7,36.1,8.9,54.7,9.8
		c11.7,0.6,23.5,0.7,35.3-0.6c9.9-1.1,19.6-2.6,28.8-6.2C214.8,613.7,218,612.1,221.2,610.6z"/>
	<path class="st2" d="M400,583.5c-0.5,8.8-4.4,15.4-12.4,19.3c-6.2,3.1-12.5,6-18.8,8.7c-11.8,5.1-23.7,9.9-35.4,15
		c-15.6,6.7-31.6,12.1-47.7,17.5c-13.3,4.4-26.9,7.6-40.4,10.7c-5.8,1.3-11.7,1.7-17.6,2.3c-6.9,0.7-13.8,1.8-20.7,1.7
		c-31.8-0.2-61.5-8.4-88.8-24.9c-0.2-0.1-0.3-0.5-0.7-1.1c4.5,0.4,8.8,0.8,13,1.3c6.1,0.6,12.2,1.1,18.2,2
		c9.8,1.5,19.6,1.1,29.3,0.8c10.4-0.3,20.6-2,30.3-6.3c5-2.2,10-4.2,15-6.2c10.7-4.2,21.8-7.2,33.1-9.4c10-1.9,20-4,30-5.8
		c12-2.2,24-3.9,36-6.2c10.6-2.1,21.1-4.8,31.7-7.3c13.1-3.2,26.1-6.4,39.2-9.7c1.5-0.4,3-0.9,4.5-1.4c0,0,0-0.3-0.1-0.4
		c-0.1-0.1-0.2-0.2-0.4-0.3C398.1,582.7,399,582.7,400,583.5z"/>
	<path class="st0" d="M376.2,664.8c-0.4,0.7-0.8,1.4-1.3,1.9c-19.7,18.7-41,35.1-65.7,46.7c-13.9,6.5-28.3,11.6-43.4,14.4
		c-6.8,1.3-13.8,1.7-20.7,2.3c-5.8,0.5-11.6,1-17.4,0.7c-7.7-0.4-15.4-1.8-23.1-2.4c-10.6-0.9-21.3-1.6-30.4,5.6
		c-1.4,1.1-2.9,2.2-4.2,3.5c-7.7,7.6-15.3,15.3-23,22.9c-3.3,3.2-6.7,6.3-10.6,9.9c5.3,2,10.3,2.8,15.2,3.7
		c8.3,1.4,16.6,2.6,24.9,3.9c0.5,0.1,1,0,1.5,0.1c6,0.3,11.9,1,17.9,0.8c7.7-0.2,15.5-1.1,23.2-1.6c8.2-0.5,16.3-2.2,24.3-3.9
		c8.9-1.9,17.5-4.5,26-7.5c13.6-4.9,26.9-10.8,39.7-17.7c16-8.7,31.3-18.4,45.5-29.9c5.5-4.5,10.9-9.2,16.6-13.4
		c3.2-2.3,4-5.5,4.7-8.8c0.1-0.6,0-1.3,0.1-2c0.3-9.3,0.7-18.6,1.1-27.8c0-0.4,0.5-0.7,0.8-1.1c0.5,10.4,1,20.9,1.5,31.3
		c0.2,4.8-1.6,8.5-5.1,11.9c-18.2,17.5-38,32.7-60.1,44.9c-2,1.1-4,2.2-6,3.3c-9.4,3.9-18.9,7.8-28.3,11.8c-0.4,0.2-0.6,0.9-0.9,1.4
		c-1,0.2-1.9,0.3-2.9,0.5c-1.3,0.2-2.6,0.2-3.9,0.6c-12.7,4-25.7,6.4-38.9,8.2c-17.8,2.4-35.8,2.9-53.8,2c-14.1-0.7-28.1-2.5-42-4.9
		c-3.3-0.5-5.8-2.4-8.3-4.5c0.1-0.4,0.2-0.9,0.4-1.2c11.2-12.1,22.4-24.2,33.6-36.3c5.4-5.8,11.7-10.2,19.5-12.4
		c5-1.5,10.1-1.6,15.3-1.6c1.2,0,2.5,0,4.5,0c-17.3-8.8-32.8-19-47.8-30c-13.5-9.9-25.5-21.4-35.3-35c-0.7-0.9-1.3-1.9-1.9-2.9
		c0.9,0.6,2,1.1,2.7,1.8c3.3,3.3,6.5,6.6,9.8,10c11,11.2,23.8,20.1,37.1,28.2c10,6.1,20.2,11.8,30.5,17.5c9.6,5.2,20,7.3,30.9,7.6
		c18.4,0.6,36-3.8,53.3-9.5c19.8-6.5,38.4-15.7,56-26.9c7.4-4.7,14.6-9.7,21.8-14.7c8.3-5.9,13.8-14.3,17.9-23.4
		c4-9,7-18.4,10.4-27.7c0.2-0.4,0-0.9,0-1.9c-1.8,1-3.4,1.7-4.8,2.6c-22,13.1-44.6,25-68.3,34.7c-14.3,5.9-28.9,10.8-44,14.3
		c-6.7,1.5-13.6,2.2-20.4,3.6c-8,1.6-16.1,1.4-24.2,2.2c-10.2,0.9-20.3,0.1-30.3-0.6c-21.5-1.6-42.6-6.2-62.9-13.6
		c-4.9-1.8-9.6-4.1-14.4-6.1c3.5,0.8,7.1,1.4,10.6,2.4c16.6,4.6,33.5,8,50.6,10c13.8,1.6,27.5,2.2,41.3,1.6
		c9.6-0.4,19.2-1.7,28.7-2.7c14.4-1.4,28.4-4.6,42.4-8.3c25.2-6.7,49.3-16.4,72-29.4c9.8-5.6,19.4-11.5,29.5-17.6
		c-0.6,2.3-1.2,4.3-1.8,6.2c-3.7,12.2-6.6,24.6-11.9,36.3c-4.6,10-11,18.5-19.8,25.2c-1.5,1.1-2.8,2.3-4.2,3.5
		c-0.3,0.1-0.7,0.1-0.9,0.3c-12.4,8.8-25.2,17.1-38.8,24.1c-0.5,0.3-0.9,0.7-1.3,1c1,0.3,1.7,0.1,2.4-0.2c5.8-3.1,11.9-5.9,17.5-9.4
		c7.6-4.7,14.8-9.9,22.2-14.8c5.2-3.8,10.4-7.5,15.6-11.3C373.9,666,375.1,665.4,376.2,664.8z"/>
	<path d="M1367.5,674.2c-4.9-2.7-8.9-6.8-13.4-10c-4.5-3.1-9-6.3-13.2-9.2c-7,1.7-9.8,5.7-10.8,12.4c-1.9,12.8-1.6,25.5-1.4,38.3
		c0.3,15.3,0.1,30.7,0.1,46c0,6.7,0.4,13.3,2.4,19.7c1.1,3.5,3,6.1,6.7,7.4c4,1.3,6.3-1.3,8.9-3.2c2.4-1.7,5.6-2.9,5.3-7.1
		c-0.3-4.5-0.1-9-0.1-13.5c0-12.7-0.3-25.3,0.1-38c0.2-5.9-2.3-9.8-6.8-13c-1.4-1-2.9-2-4.3-2.9c0.5-2.1,2-2.1,3.2-2
		c9.5,0.1,19,0.2,28.5,0.3c3.1,0.1,6.2,0.3,9.6,0.5c-0.6,3.6-3.7,3.9-5.7,5.3c-2.1,1.6-4.3,3.1-6.6,4.8c0,1.5,0,3,0,4.5
		c-0.1,19.8-0.2,39.7-0.2,59.5c0,18,0.2,36,0.1,54c0,4.2,1.3,7.5,4.1,10.3c1.9,1.9,3.9,3.6,5.9,5.3c3.3,2.8,3.5,3.6,1.7,8
		c-9.1,0-18.1,0.1-27.2,0c-4.8-0.1-9.6-0.4-14.4-0.7c-1.6-0.1-3.2-0.7-4.6-1.1c-1.2-2.6-0.5-4.1,1.8-5c2.2-0.8,4.3-1.8,6.5-2.5
		c4.8-1.6,7-5.2,8.1-9.8c0.2-0.8,0.3-1.7,0.3-2.5c0-12.5,0-24.9,0-37.5c-4.2,0.2-7.9,0.3-11.6,0.5c-8.3,0.5-14.3-3.5-18.9-10
		c-3.9-5.5-6.1-11.8-7.4-18.3c-0.9-4.2-1.4-8.5-1.4-12.8c-0.1-21.5-0.1-43-0.1-64.5c0-8.7,0.4-17.3,3.4-25.6c3-8.5,8.4-15,16.7-18.8
		c0.7-0.3,1.5-0.9,2.3-0.9c6.5,0,13-0.9,19.3,1.4c2.8,1,4.7,2.6,6,5.4c2.9,6.3,5.4,12.8,7.1,19.6c0.4,1.6,0.6,3.2,0.9,4.7
		C1368.2,673.6,1367.8,673.9,1367.5,674.2z"/>
	<path class="st3" d="M452.9,529c-4,0.2-6.3,3.4-9.3,5.2c-3.9,2.4-7.6,5.2-11.3,7.8c-11-8.4-21.6-16.8-32.5-24.9
		c-15.2-11.3-25.2-26.5-32.4-43.7c-5.4-13-10.3-26.2-14.4-39.8c-3.6-12.1-6.7-24.3-8.9-36.8c-1.7-9.7-3.3-19.4-4.8-29.2
		c-0.6-4.1-0.7-8.2-1.2-12.3c-0.6-5.1-1.3-10.1-1.8-15.2c-0.2-2.3,0-4.6,0-7.8c9.6,26.3,20.1,51.1,32.6,75
		c11.5,21.8,24.1,42.8,38.6,62.7c9.3,12.7,18.6,25.3,28.2,37.7c4.1,5.4,8.8,10.4,13.3,15.5c1,1.2,2.6,1.9,3.9,2.9
		C453.6,527.1,455.1,528.1,452.9,529z"/>
	<path d="M915.8,702.2c1.8,11.7,1.5,28.4-0.7,35.5c-1.8-0.7-2.9-2.1-3.8-3.6c-4.3-6.7-10.3-8.4-17.7-6.4c-0.9,0.3-1.9,0.3-3.4,0.6
		c-0.3,2-0.9,4.1-1,6.1c0,10.2,0,20.3,0.2,30.5c0.1,3.8,0.5,7.6,0.9,11.4c0.2,1.4,0.7,2.8,1.1,4c5,2,9.9,1.9,14.7,1.5
		c5-0.5,8.5-3.7,10.8-8c1.7-3.2,4.3-5.4,7.6-8.6c-0.4,8.6-0.7,16-1.4,23.4c-0.1,1.1-1.6,2.7-2.8,3.1c-3.1,1-6.4,1.8-9.7,1.9
		c-13,0.4-26,0.4-39,0.5c-0.6,0-1.2-0.3-2-0.5c-0.8-3-0.6-5.3,1.9-7.6c2.8-2.6,3.4-6.4,3.7-10.1c2.2-28.8,2.6-57.6,1.8-86.4
		c-0.2-8.3-1.2-16.6-1.7-24.9c-0.2-2.5-1.2-4.5-3-6.1c-1.9-1.7-3.8-3.3-5.7-4.9c-1.1-0.9-2.2-1.8-4.1-3.3
		c15.5-0.1,29.9-0.3,44.3-0.4c4.1,0,8.1,1.4,12.3,1.1c2.6-0.2,4.7,2.4,4.9,5.1c0.1,1.7,0.1,3.3,0.1,5c0,2.7-0.1,5.3-0.2,8
		c-0.1,2.5-0.3,5.1-0.5,8.2c-0.9-0.8-1.6-1.3-2-1.9c-1.3-1.5-2.6-3-3.7-4.7c-4.8-7.6-12-8.7-20.1-7.5c-1.3,0.2-2.6,0.4-3.9,0.6
		c-0.5,0.1-1-0.1-1.6-0.1c-1.6,1.5-1.4,3.5-1.4,5.5c-0.2,12.2-0.4,24.3-0.6,36.5c-0.1,5.5,5.8,9.7,11,7.5c4.2-1.7,8-4.1,10.4-8.2
		C912.2,703.7,913.4,702.3,915.8,702.2z"/>
	<path class="st0" d="M330.3,564.1c-5.8-1-11.5-2.1-17.3-3.1c-2.8-2.5-6.4-2.1-9.6-2.8c-33.9-7.3-66.1-19.1-96.2-36.5
		c-22.4-12.9-43.1-28.1-63.5-44c-16.3-12.7-32.3-25.7-48.4-38.6c-0.6-0.5-1.2-1.1-2.1-1.8c8.8,1.2,17.3,2.4,25.9,3.4
		c5.6,0.6,11.3,1.1,16.9,1.1c12.2,0.2,24.3,0.5,36.5-0.1c13.3-0.7,26.5-2.4,39.7-3.5c5.6-0.5,11.1-1.9,16.8-0.4
		c3.7,1,7.3,2.2,10.2,4.9c29.2,28,62,51.3,96,72.8c18.9,12,38.1,23.6,57.1,35.5c1.4,0.8,2.6,1.9,3.8,2.9c-1.2-0.4-2.5-0.7-3.7-1.3
		c-16.2-8.5-32.5-16.8-48.4-25.7c-15.2-8.5-30.2-17.5-45.1-26.8c-11.5-7.2-22.4-15.1-33.1-23.6c-10.5-8.3-20.9-16.9-30.6-26.1
		c-4-3.8-8.7-5.1-13.5-5.1c-6.7,0-13.5,1.1-20.2,1.7c-8.1,0.7-16.1,1.7-24.2,1.8c-11.8,0.1-23.5,0.4-35.4-0.6
		c-9.5-0.8-19-1.6-28.5-3.2c-1.3-0.2-2.7,0-5.1,0c11,9.2,21,17.8,31.2,26.2c13.8,11.4,28.2,21.8,43.2,31.5
		c14.5,9.3,29.7,17.1,45.5,23.8c16.7,7.2,33.8,13.5,51.3,18.5c4.4,1.3,8.7,2.8,13.2,3.9c11.1,2.7,22.3,5.4,33.5,7.8
		c8,1.7,16.1,3,24.2,4.3c5.2,0.9,10.5,1.3,15.6,2.3c6,1.2,12,1.9,18.2,1.9c4,0,7.2-1.2,9-5c1-2,1.7-4.2,2.6-6.3
		c0.3,0.3,0.9,0.7,0.9,1c-1.4,8.6-6.6,13.4-14.2,13.1c-8.8-0.3-17.6-1-26.3-1.7C347.8,565.7,339,564.8,330.3,564.1z"/>
	<path class="st4" d="M276.2,770c1-0.2,1.9-0.3,2.9-0.5c4.3-1.5,8.7-2.9,12.9-4.6c5.9-2.4,11.6-5.1,17.4-7.7
		c24.1-10.4,46.4-23.8,67.5-39.3c0.8-0.6,1.6-3.2,3.4-0.9c-4.6,3.8-9.2,7.5-13.8,11.4c-14.8,12.5-30.9,22.8-47.9,31.9
		c-20,10.7-41,18.9-62.7,25.6c-4.3,1.3-7,3.6-8.9,7.7c-2.8,6-5.9,11.8-9.3,17.5c-11.8,19.5-26.4,36.6-44.9,50.1
		c-3.1,2.3-6.2,4.6-10.1,7.5c8.1-0.6,15.2-1.2,22.3-1.7c11.9-0.9,23.5-3.6,34.9-6.9c16.4-4.7,31.9-11.5,47.3-18.9
		c21.5-10.3,39.4-25.2,55-42.9c13.5-15.4,25-32.2,36.4-49.2c2-3,3.5-6.4,4.9-9.7c1.6-3.9,2.6-7.9,1-12c-1.4-3.5-2.7-7-4.1-10.5
		c7.5,6.5,8.5,14.9,6.5,23.9c-1.3,5.5-4.2,10.4-7.2,15.2c-4.7,7.4-9.4,14.8-14,22.3c-0.6,0.9-0.9,2.1-1.4,3.1
		c-2.2,3-4.4,5.9-6.6,8.9c-4,4.8-8,9.7-12.1,14.5c-14.2,16.7-31,29.8-51.4,38.5c-20.7,8.8-41.8,16.7-63.7,22.1
		c-12.7,3.2-25.6,5.7-38.6,6.8c-8.3,0.7-16.6,1.3-25.3,1.9c0.8-2.1,2.3-2.6,3.5-3.5c13-8.8,25.3-18.4,35.9-30
		c5.7-6.3,10.8-13.1,16.1-19.7c0.8-1,1.1-2.3,1.6-3.5c2.8-4.4,5.5-8.9,8.3-13.3c2.5-4.6,5.5-9,7.5-13.8c2.8-6.6,7.4-10.6,14.3-12.5
		c7.1-2,14.1-4.5,21.2-6.8C275.3,770.8,275.7,770.3,276.2,770z"/>
	<path class="st0" d="M167.1,550.1c-16.3-3.5-31.7-9.4-46.8-16.3c-22.1-10.2-44-20.7-66.9-31.5c4.2-1.3,7.6-2.4,11-3.4
		c22.3-6.4,44.5-12.7,66.8-19.2c6.1-1.8,11.5-0.6,16.3,3.3c16.8,13.6,34.5,25.9,53.1,36.9c15.4,9.1,31.4,17.2,47.5,25
		c1.8,0.9,3.5,1.7,5.4,2.7c-4.2,2.9-19,5.7-33.3,6.6c-4.6,0-9.3,0-13.9,0c-8.9,0-17.8-0.3-26.6-2.1
		C175.5,551.2,171.3,550.8,167.1,550.1z M64.6,503.3c1.4,0.9,2.1,1.4,2.8,1.7c10.6,5.3,21.1,10.9,31.8,16
		c16.7,7.9,34.3,13.3,52.1,18c11.3,2.9,22.6,5.8,34.2,7.2c7.5,0.9,15,2.3,22.6,2.6c10.5,0.5,21,0.2,31.5,0c3.4-0.1,6.8-0.8,10.8-1.2
		c-7.7-2.8-14.6-5.1-21.5-7.8c-15.2-5.9-29.9-13-44.1-21.1c-14.8-8.4-29-17.9-42-29c-3.3-2.8-6.5-3.4-10.5-2.4
		c-9.8,2.6-19.7,5.1-29.6,7.4C90.2,497.8,77.9,500.4,64.6,503.3z"/>
	<path class="st5" d="M296.5,1032c6.1-4.4,11.5-8.3,16.9-12c13-8.9,26-17.8,39.1-26.6c4.7-3.2,8.9-6.9,12.2-11.6
		c7.6-10.5,18-16,31-15.9c5,0,9.9,0.7,14.9,1c5.7,0.2,11.3,0.4,17,0.3c6.5,0,13-0.3,19.5-0.4c2,0,3.9,0,6.7,0
		c-1.7,4.3-3.1,7.9-4.6,11.5c-3.6,8.6-7.8,16.9-13.6,24.2c-5.3,6.6-11.7,11.8-19.4,15.3c-10.6,4.8-21.7,8.1-33.1,10.2
		c-13.1,2.4-26.3,3.9-39.6,4.2c-13,0.3-25.9,0.5-38.9,0.6C302.2,1032.8,299.8,1032.3,296.5,1032z M452.6,967.7
		c-8.4,1.3-15.6,2.3-22.8,3.6c-7.4,1.4-14.8,2.1-22.3,1.4c-4-0.4-7.8-0.3-11.8,0c-10.3,0.9-18.4,5.5-24.2,13.8
		c-3.9,5.5-8.7,9.9-14.4,13.5c-11.3,7-22.5,14-33.8,20.9c-4.1,2.5-8.2,4.9-12.8,7.7c9.7,2,18.8,1.4,27.9,1.4
		c9.5,0.1,18.8-1.6,28-3.6c14.2-3.1,27.9-7.9,41.6-12.8c11.6-4.1,21.1-11.1,28.2-21.1C441.8,984.8,446.8,976.6,452.6,967.7z"/>
	<path class="st4" d="M231.7,804.1c-2.8,4.4-5.5,8.9-8.3,13.3c-2.5,2.9-5,5.8-7.5,8.6c-2.6,2.8-5.2,5.6-7.9,8.4
		c-2.4,2.5-5.4,3.9-8.7,4.5c-9.1,1.6-18.2,1.5-27.3,0.5c-7.3-0.8-14.5-1.5-21.8-2.4c-15.8-2.1-31.7-3.3-47-8
		c-1.3-0.4-2.5-0.8-4.3-1.4c4.2-3.4,7.9-6.5,11.9-9.5c14.5-10.9,29-21.8,43.5-32.7c3.1-2.3,6.4-3.4,10.2-3.2
		c14,0.6,27.9,1.1,41.9,1.7c6.8,0.3,13.6,0.7,20.4,1.2c3.6,0.2,7.2,0.7,11.4,1c-1.5,4.3-3,8.1-4.3,11.9
		C233.1,800,232.4,802,231.7,804.1z M109.5,826.2c17,6,33.6,8.2,50.5,8.5c11.1,0.2,22.2-1,33.2-1.9c4.8-0.4,9-2.2,12.7-5.9
		c7.6-7.7,15-15.6,21.1-24.5c3.3-4.8,6.5-9.7,9.2-15.3c-2.1,0-3.8-0.1-5.4,0c-6.1,0.5-12.2,1.3-18.3,1.7
		c-10.3,0.5-20.6,0.9-30.8,1.2c-5.2,0.2-10.3,0.2-15.5,0.2c-2.9,0-5.4,0.8-7.8,2.5c-10.5,7.5-21.2,14.7-31.8,22
		C121.2,818.5,115.7,822.1,109.5,826.2z"/>
	<path class="st6" d="M357.3,678.1c-7.4,5-14.7,10.2-22.2,14.8c-5.6,3.5-11.6,6.3-17.5,9.4c-0.7,0.3-1.4,0.5-2.4,0.2
		c0.4-0.3,0.8-0.8,1.3-1c13.6-7,26.3-15.3,38.8-24.1c0.3-0.2,0.6-0.2,0.9-0.3C356.5,677.4,356.9,677.7,357.3,678.1z"/>
	<path class="st7" d="M167.1,550.1c4.2,0.6,8.4,1.1,12.6,2c8.8,1.8,17.7,2.1,26.6,2.1c4.6,0,9.3,0,13.9,0c-0.9,0.3-1.7,0.8-2.6,0.8
		c-4.9,0.1-9.8,0.1-14.8,0.2c-0.9,0-1.7,0.5-2.6,0.7c-4.7-0.3-9.5-0.4-14.2-1c-6-0.7-11.9-1.8-17.9-2.8c-0.7-0.1-1.4-0.6-2.2-0.9
		C166.4,550.8,166.7,550.5,167.1,550.1z"/>
	<path class="st8" d="M309.4,757.2c-5.8,2.6-11.5,5.3-17.4,7.7c-4.2,1.7-8.6,3.1-12.9,4.6c0.3-0.5,0.4-1.3,0.9-1.4
		c9.4-4,18.9-7.9,28.3-11.8C308.7,756.6,309,756.9,309.4,757.2z"/>
	<path class="st9" d="M353.2,897.7c3.7-1.2,7.3-2.4,11-3.6c15.9-5.2,29.8-13.6,41.1-25.9c1.8-2,3.6-3.9,5.1-6.1
		c1.6-2.4,3.7-3.2,6.3-3.2c2.2,0,4.3,0.1,6.5,0.1c10.8,0,21.7,0.5,32.5-0.1c9.7-0.5,19.3-2.3,29-3.5c2.5-0.3,4.9-0.8,7.3-1.2
		c4.3-0.8,8.3,0.1,11.6,3.1c3,2.7,5.9,5.5,8.5,8.5c3.2,3.6,3.4,6.8-1,10.1c-2.2,1.7-4.6,3.3-7.1,4.6c-14.7,8-29.6,15.4-45.7,20
		c-11.8,3.4-23.7,5.7-36.1,5.8c-10.3,0.1-20.6,0.2-30.9-1.2c-9.3-1.3-18.6-3-27.8-4.6c-3.4-0.6-6.8-1.1-10.2-1.6
		C353.3,898.4,353.3,898,353.2,897.7z"/>
	<path class="st9" d="M399.6,854.5c-4.3,5.2-8.6,9.7-13.6,13.6c-12.6,9.9-27.2,15.4-42.6,18.9c-11.8,2.7-23.6,4.8-35.7,5.2
		c-7.6,0.3-15.3,1-22.9,0.7c-14.5-0.7-28.6-3.5-42.7-8.4c0.9-0.7,1.3-1.1,1.9-1.4c19.2-9.9,38.4-19.8,57.7-29.6
		c7.7-3.9,15.4-7.6,23.3-10.8c13.3-5.4,26.7-5.6,39.8,1.2c8.9,4.6,18.5,6.9,28.1,9.2C394.9,853.4,396.9,853.9,399.6,854.5z"/>
	<path class="st10" d="M521.2,884.7c6.5,5.9,6.4,14.2,1.9,20c-0.4,0.5-0.7,1.2-1.1,1.6c-7.9,7.2-13.5,16.5-20.9,24
		c-14.8,15-32.2,25.3-53,29.7c-13,2.8-26,2.7-39.1,1.2c-7.7-0.9-15.5-1.5-24.2-2.4c3.1-2.2,5.5-4,7.9-5.8
		c13.5-9.7,27.1-19.2,40.4-29.1c5-3.7,10.4-5.7,16.3-6.8c4.9-0.9,9.5-2.7,14-4.8c18.6-9,37.2-18,55.8-27
		C519.8,885.1,520.4,884.9,521.2,884.7z"/>
	<path class="st9" d="M317.8,933.3c-4.5-10.1-8.8-19.9-13.3-30c1.1-0.4,2.2-1.1,3.4-1.1c8.5-0.1,17-0.5,25.5,0.1
		c9.4,0.7,18.4,3.4,27.5,6c12.4,3.5,24.8,6.6,37.3,9.8c4.9,1.3,9.8,2.4,15.8,3.9c-4,3-7,5.7-10.4,7.8c-8.7,5.4-17.9,9.8-27.5,13.5
		c-13,4.9-26.1,9-39.6,12.2c-8.5,2-17.1,3.5-25.8,4.8c-12.1,1.8-24.1,2.1-36.2,1.8c-4-0.1-7.9-0.7-11.9-1.1
		c-1.1-0.1-2.1-0.8-3.6-1.3C278.8,951.3,298.3,942.8,317.8,933.3z"/>
	<path class="st10" d="M532.6,910.9c1.8,1.8,3.7,3.4,5.4,5.3c4.3,4.8,5.5,10.2,2.6,16c-1.7,3.4-3.7,6.6-6,9.6
		c-7,9.1-14,18.1-21.2,27c-4.5,5.6-9.3,10.8-13.9,16.3c-7.2,8.7-14.3,17.5-21.4,26.2c-2.5,3.1-5.1,6.1-8.9,7.7
		c-18,7.5-35.9,15-53.9,22.5c-0.4,0.2-0.9,0.2-1.6,0.3c6-7.6,11.9-14.8,17.6-22.3c11.5-15.2,22-31.1,30.1-48.5
		c1.7-3.5,4-5.5,8.1-6.3c17.8-3.6,32-13.3,43.2-27.3C519.3,929,525.6,920.1,532.6,910.9z"/>
	<path class="st9" d="M459.1,810.9c8.3,10.9,16.6,21.7,24.9,32.6c-6.8,4-27.2,7-47.9,6.3c-24.4-0.7-47-8.7-70.2-18.8
		c5.1-2.3,9.2-4.1,13.4-6c4.2-1.9,8.5-3.6,12.7-5.5c4.2-1.8,7.5-4.8,10.2-8.5c3.5-4.8,7.9-8.4,13.9-9.6c4.3-0.9,8.2,0.2,12.2,1.2
		c7.6,2,15.1,4.6,22.7,6.7c2.7,0.8,5.5,1.1,8.2,1.6L459.1,810.9z"/>
	<path class="st10" d="M547.5,943.6c-0.8,3.5-1.3,6.5-2.2,9.2c-8.5,24.8-17.1,49.6-25.8,74.4c-1.1,3.3-2.7,6.4-4.2,9.5
		c-2.9,6.2-7.8,10.3-13.9,13c-14.8,6.5-29.8,12.6-44.9,19c0.4-0.8,0.6-1.7,1.2-2.5c9.9-14.7,20-29.3,29.6-44.2
		c4.6-7.1,8.4-14.7,12.3-22.2c5.1-9.7,9.8-19.5,14.8-29.2c1-1.9,2.3-3.7,3.9-5c9-7.2,18-14.1,27.1-21.2
		C545.7,944.3,546,944.2,547.5,943.6z"/>
	<path class="st1" d="M471.2,768.8c-6.9-2.7-11.8-7.4-16-12.8c-8.3-10.4-13.6-22.3-17.8-34.8c-3.9-11.8-6.6-23.9-8.4-36.2
		c-1.6-11-2.8-22.1-2.5-33.2c0.4-15.8,2.2-31.4,8.7-46.1c0.7-1.7,1.5-3.3,2.3-5c0.3-0.6,0.8-1,1.8-2.4c0,2.2,0,3.5,0,4.8
		c0,1.5,0,3-0.2,4.5c-0.9,6.6-0.6,13.2-0.1,19.9c0.5,7.3,1.4,14.5,3.4,21.6c1.8,6.3,4,12.6,6.5,18.7c2,5,3.3,10.2,3.3,15.5
		c0,14.9,3.2,29.2,7.8,43.3c4.1,12.9,7.5,26.1,11.1,39.1C471.2,766.6,471.1,767.6,471.2,768.8z"/>
	<path class="st9" d="M341.6,824.5c14.4-13.3,23.9-30,34-46.4c6.2-10.2,12.6-20.3,20.8-29c0.3-0.4,0.7-0.7,1.5-1.4
		c0.6,1.5,1.2,2.7,1.7,4c2.4,6.9,4,14,3.6,21.3c-1,15.4-7.5,27.3-21.2,35.2C369.2,815.5,355.8,820.8,341.6,824.5z"/>
	<path class="st11" d="M418.7,657.3c0.2,9.5,1.5,18.8,2.4,28.2c0.9,9.2,3.7,18,4.9,27.2C419.6,694.8,418,676.2,418.7,657.3z"/>
	<path class="st12" d="M230.1,371.7c-2.4-1-3.9-1.8-5.6-2.4c-12.4-4.3-23.3-11.4-33.8-19.1c-8.7-6.3-17-13.1-24.8-20.7
		c-5.8-5.7-12.1-11-17.6-17c-8.9-9.8-17.7-19.7-25.8-30.2c-16.5-21.3-30.7-44.1-43.4-67.8c-8.3-15.5-15.3-31.6-22.3-47.7
		C43.6,136,33.3,104.2,22.9,72.4C16.3,52.2,9.7,32,3.1,11.8c-0.6-2-0.8-4.1-0.4-6.4c3.5,8.3,6.9,16.7,10.4,25
		c3.3,7.9,6.5,15.8,10.1,23.5c4.2,9.1,8.3,18.3,13.1,27.1c6.2,11.4,12.7,22.7,19.5,33.8c7.4,12.1,15.2,24,23.3,35.6
		c6.8,9.7,14.2,19,21.5,28.4c9.2,11.8,20,22.3,30.7,32.7c10,9.7,21.1,18.1,32.4,26.2c3.2,2.3,6.7,4.2,9.9,6.5c2.9,2,5.3,4.5,6.7,7.8
		c3.1,7.1,6.4,14.1,9.4,21.1c4.5,10.5,9,21.1,13.4,31.7c8.7,20.9,17.3,41.8,25.9,62.7C229.4,368.6,229.5,369.6,230.1,371.7z"/>
	<path class="st3" d="M212.2,430.9c0.2,0.6,0.4,1.2,0.6,2c-13,0-26,0.1-39,0c-6.6-0.1-13.3-0.3-19.8-1c-10-1.1-20-1.9-29.9-3.6
		c-10.2-1.8-20.3-3.6-30.3-6.2c-16.4-4.3-32.2-10.2-46.7-19.3c-8.9-5.6-17.2-11.7-24.8-18.9c-4.1-4-8.2-8.1-12.9-12.6
		c6.6-0.5,12.2-0.7,17.8-1.3c8.5-0.8,17-2,25.5-2.8c8.4-0.7,16.6-2.3,24.8-4c11.5-2.4,21.7,1,31.3,7.3c11.8,7.8,23.6,15.8,35.7,23.2
		c20.7,12.7,41.8,24.5,63.2,35.7C209.1,430,210.7,430.4,212.2,430.9L212.2,430.9z"/>
	<path class="st12" d="M208.2,414.2c-4.9-0.7-8.7-2.6-12.5-4.4c-16.7-7.7-32.1-17.5-46.7-28.5c-11.8-8.9-23.1-18.2-34.2-27.9
		c-13.3-11.6-26.1-23.7-38.1-36.6c-13.9-14.9-26.9-30.5-37.8-47.7c-0.4-0.7-0.8-1.4-1.2-2.1c-0.2-0.4-0.3-0.9-0.6-1.8
		c1.3,0,2.5-0.3,3.4,0c19.3,6.2,39,11.2,58.7,15.9c2.7,0.7,5.1,2,7.1,4.2c7.6,8.5,15.3,17.1,23.2,25.3
		c11.6,12.1,23.4,24.1,35.1,36.1c1.6,1.7,3.1,3.5,4.3,5.4c12.4,19.1,24.7,38.2,37,57.3C206.7,410.7,207.2,412.1,208.2,414.2z"/>
	<path class="st3" d="M379.3,515.1c-2.1-1.6-4.4-3.2-6.4-5c-4.9-4.2-9.9-8.4-14.7-12.6c-14.6-12.9-28.8-26.1-42.2-40.3
		c-9.6-10.1-18.8-20.6-27.7-31.3c-12.1-14.7-23.4-29.9-33.8-45.9c-12.1-18.7-23-38.1-32.4-58.3c-9.3-20.1-16.9-40.9-23.6-62.1
		c-1-3.2-1.8-6.6-1.9-10.1c1.1,2.3,2.2,4.7,3.2,7c7.4,17.5,17.2,33.7,27.8,49.5c7.4,11,15.7,21.3,24.1,31.5
		c11.8,14.2,24.4,27.7,37.8,40.4c6.2,5.9,13,11.3,20.9,15c12.4,5.8,20.3,15.5,24.8,28.2c5.1,14.5,9.7,29.3,15.9,43.4
		c7.1,16.2,15.1,31.9,25.8,46c1,1.3,1.9,2.7,2.9,4C379.9,514.5,379.7,514.7,379.3,515.1z"/>
	<path class="st3" d="M181.7,360.9c1.1,0.5,2.3,1,3.4,1.6c10.6,5.3,21.2,10.6,31.9,15.8c6.6,3.3,13.3,6.5,20,9.6
		c2.9,1.4,5.1,3.5,7.1,6c8.9,11.5,17.7,23.1,26.8,34.4c10.9,13.7,22.9,26.3,35.6,38.3c9.9,9.4,20.1,18.4,30.2,27.5
		c5.8,5.2,11.6,10.4,17.5,15.5c8.3,7.1,16.7,14.1,25.1,21.1c0.6,0.5,1.3,0.9,2,1.3c-0.3,0.3-0.5,0.7-0.8,1c-2-1.3-3.9-2.6-6-3.8
		c-25.6-15.4-50.3-32.2-74.1-50.3c-12.6-9.6-25.2-19.4-37-30c-6.8-6.1-13.6-12.2-20.3-18.4c-3.2-2.9-6.5-5.7-9.5-8.8
		c-10.4-11-21.1-21.6-30.7-33.3c-6.9-8.5-14-16.8-20.9-25.2c-0.4-0.5-0.6-1.1-1-1.6C181.3,361.4,181.5,361.2,181.7,360.9z"/>
	<path class="st2" d="M384.9,578.9c-2.2,0.5-4.4,1.1-6.6,1.5c-10.3,2.1-20.5,4.8-31,5.7c-9.7,0.8-19.4,2-29.1,2.9
		c-10.5,1-21,2.1-31.6,3c-8.6,0.8-17.2,1.2-25.7,2.1c-15.9,1.7-31.8,2.6-47.7,1.7c-6.2-0.4-12.3-2.1-18.4-3.5
		c-17.3-3.9-33.5-10.6-49.2-18.7c-15.5-8-30.2-17.2-43.5-28.5c-5.6-4.8-10.4-10.5-16.4-16.6c4.5,2,8.1,3.5,11.6,5.1
		c15.3,7.3,31,13.6,47.3,18.5c9.8,2.9,19.6,5.5,29.7,6.9c8.5,1.2,16.9,2.7,25.4,3.7c4.1,0.5,8.3,0.1,12.5,0.4
		c9.1,0.5,18.2,0,27.3-0.4c6.4-0.3,12.8-1.4,19.1-2.5c10.1-1.8,20.1-1.8,30.1,0.1c7.1,1.3,14.3,2.5,21.4,3.7
		c9.6,1.6,19.2,3.1,28.7,4.8c9.2,1.6,18.4,3.4,27.6,5.2c6.1,1.2,12.2,2.8,18.2,4.2C384.7,578.5,384.8,578.7,384.9,578.9z"/>
	<path class="st2" d="M221.2,610.6c-3.2,1.5-6.4,3.2-9.7,4.4c-9.3,3.5-19,5.1-28.8,6.2c-11.8,1.3-23.6,1.2-35.3,0.6
		c-18.6-0.9-37.1-3.1-54.7-9.8c-1.7-0.6-3.4-1.3-5-2.1c-0.9-0.4-1.6-1-3.1-1.8c6-0.4,11.3-0.6,16.5-1.1c8-0.8,16-1.8,24.1-2.8
		c6.1-0.7,12.1-1.4,18.2-2.2c4.4-0.6,8.8-1.3,13.1-2.2c7.1-1.4,14.1-1.1,21.2,0c11.6,1.7,22.9,4.4,34.2,7.3c3,0.8,6,1.6,9,2.4
		C221,609.8,221.1,610.2,221.2,610.6z"/>
	<path class="st13" d="M294,600.8c-1.3-0.3-2.7-0.7-4-1c0.6-0.3,1.1-0.7,1.7-0.8c8.7-1,17.3-2.1,26-3c4-0.4,8.1-0.8,12.2-0.2
		c-7.6,1.1-15.2,2.3-22.8,3.3C302.8,599.8,298.4,600.3,294,600.8z"/>
	<path class="st3" d="M396.2,553.9c-0.8,2.1-1.6,4.3-2.6,6.3c-1.8,3.7-5,5-9,5c-6.1,0-12.2-0.7-18.2-1.9c-5.2-1-10.4-1.4-15.6-2.3
		c-8.1-1.3-16.2-2.6-24.2-4.3c-11.2-2.4-22.4-5.1-33.5-7.8c-4.5-1.1-8.8-2.6-13.2-3.9c-17.5-5-34.6-11.3-51.3-18.5
		c-15.7-6.8-31-14.5-45.5-23.8c-15.1-9.6-29.5-20.1-43.2-31.5c-10.2-8.4-20.3-17-31.2-26.2c2.3,0,3.7-0.2,5.1,0
		c9.4,1.6,19,2.3,28.5,3.2c11.8,1,23.6,0.7,35.4,0.6c8.1-0.1,16.1-1.1,24.2-1.8c6.7-0.6,13.5-1.7,20.2-1.7c4.8,0,9.5,1.3,13.5,5.1
		c9.7,9.2,20,17.8,30.6,26.1c10.7,8.4,21.6,16.4,33.1,23.6c14.8,9.2,29.8,18.2,45.1,26.8c15.9,8.9,32.3,17.2,48.4,25.7
		C393.7,553.3,395,553.6,396.2,553.9C396.2,554,396.2,553.9,396.2,553.9z"/>
	<path class="st9" d="M380.1,716.9c1.4,3.5,2.8,7,4.1,10.5c1.6,4.2,0.7,8.2-1,12c-1.4,3.3-2.9,6.7-4.9,9.7
		c-11.4,17-22.9,33.8-36.4,49.2c-15.5,17.8-33.4,32.6-55,42.9c-15.4,7.4-30.9,14.2-47.3,18.9c-11.4,3.3-23,6-34.9,6.9
		c-7.1,0.5-14.2,1.1-22.3,1.7c3.9-2.9,7-5.3,10.1-7.5c18.5-13.6,33.1-30.6,44.9-50.1c3.4-5.6,6.6-11.5,9.3-17.5
		c1.9-4.1,4.6-6.4,8.9-7.7c21.6-6.7,42.7-14.9,62.7-25.6c17-9.1,33.2-19.4,47.9-31.9C371,724.5,375.6,720.8,380.1,716.9L380.1,716.9
		z"/>
	<path class="st2" d="M64.6,503.3c13.3-2.9,25.6-5.6,38-8.5c9.9-2.3,19.8-4.8,29.6-7.4c4-1,7.3-0.4,10.5,2.4
		c13.1,11,27.2,20.5,42,29c14.2,8.1,28.9,15.2,44.1,21.1c6.9,2.7,13.9,5,21.5,7.8c-4,0.5-7.4,1.2-10.8,1.2c-10.5,0.2-21,0.4-31.5,0
		c-7.5-0.3-15-1.7-22.6-2.6c-11.6-1.4-22.9-4.3-34.2-7.2c-17.8-4.7-35.4-10.1-52.1-18c-10.7-5.1-21.2-10.6-31.8-16
		C66.7,504.7,66,504.2,64.6,503.3z"/>
	<path class="st10" d="M452.6,967.7c-5.8,8.9-10.8,17.1-16.4,24.9c-7.1,10-16.6,16.9-28.2,21.1c-13.7,4.8-27.3,9.7-41.6,12.8
		c-9.2,2-18.5,3.7-28,3.6c-9.1-0.1-18.2,0.6-27.9-1.4c4.6-2.8,8.7-5.2,12.8-7.7c11.3-6.9,22.5-13.9,33.8-20.9
		c5.7-3.5,10.5-7.9,14.4-13.5c5.8-8.3,14-12.9,24.2-13.8c4-0.4,7.8-0.4,11.8,0c7.5,0.7,14.9-0.1,22.3-1.4
		C437,970,444.2,969,452.6,967.7z"/>
	<path class="st9" d="M109.5,826.2c6.2-4.1,11.7-7.7,17.1-11.4c10.7-7.3,21.3-14.6,31.8-22c2.4-1.7,4.9-2.5,7.8-2.5
		c5.2,0,10.3,0,15.5-0.2c10.3-0.3,20.6-0.6,30.8-1.2c6.1-0.3,12.2-1.1,18.3-1.7c1.6-0.1,3.3,0,5.4,0c-2.7,5.6-5.9,10.5-9.2,15.3
		c-6.2,8.9-13.6,16.7-21.1,24.5c-3.7,3.7-7.9,5.5-12.7,5.9c-11.1,0.9-22.2,2.1-33.2,1.9C143.2,834.4,126.5,832.2,109.5,826.2z"/>
</g>
</svg>
