<?xml version="1.0" encoding="utf-8"?>
<!-- Generator: Adobe Illustrator 23.0.2, SVG Export Plug-In . SVG Version: 6.00 Build 0)  -->
<svg version="1.1" id="Layer_1" xmlns="http://www.w3.org/2000/svg" xmlns:xlink="http://www.w3.org/1999/xlink" x="0px" y="0px"
	 viewBox="0 0 508.6 208.3" style="enable-background:new 0 0 508.6 208.3;" xml:space="preserve">
<style type="text/css">
	.st0{clip-path:url(#SVGID_3_);}
	.st1{clip-path:url(#SVGID_4_);}
</style>
<g>
	<g>
		<defs>
			<rect id="SVGID_1_" x="94.7" y="47.6" width="323" height="124"/>
		</defs>
		<defs>
			<path id="SVGID_2_" d="M407.7,47.6c-5.5,0-10,4.5-10,10c0,5.5,4.5,10,10,10c5.5,0,10-4.5,10-10C417.7,52.1,413.2,47.6,407.7,47.6
				L407.7,47.6L407.7,47.6z M302.5,109.6c0-11-9-20-20-20c-11,0-20,9-20,20c0,11,9,20,20,20C293.5,129.6,302.5,120.6,302.5,109.6
				L302.5,109.6L302.5,109.6z M308.5,79.6h6v30c0,17.6-14.4,32-32,32c-17.6,0-32-14.4-32-32c0-17.6,14.4-32,32-32
				c7.8,0,15,2.8,20.5,7.5L308.5,79.6L308.5,79.6z M228.7,109.6c0,11-9,20-20,20c-11,0-20-9-20-20v-15c0-10.5-3.5-20.5-9.8-28.7
				l-8.6,8.6c4.1,5.9,6.4,12.8,6.4,20.1v15c0,5.7,1.5,11,4.1,15.6c2.9,5.1,7.2,9.4,12.3,12.3c4.6,2.6,9.9,4.1,15.6,4.1
				c7.6,0,14.5-2.7,20-7.1v5.1c0,11-9,20-20,20c-5.3,0-10.4-2.1-14.1-5.9l-8.5,8.5c6,6,14.1,9.4,22.6,9.4c17.6,0,32-14.4,32-32v-60
				h-12V109.6L228.7,109.6z M401.7,139.6h12v-60h-12V139.6L401.7,139.6z M358.1,77.6c-7.7,0-14.7,2.8-20.2,7.4l-5.4-5.4h-6v30v0v30
				h12v-30c0-11,8.8-20,19.6-20c10.8,0,19.6,9,19.6,20v30h12v-30C389.7,92,375.5,77.6,358.1,77.6L358.1,77.6L358.1,77.6z
				 M282.5,159.6c-5.3,0-10.4-2.1-14.1-5.9l-8.5,8.5c6,6,14.1,9.4,22.6,9.4c17.6,0,32-14.4,32-32h-12
				C302.5,150.6,293.5,159.6,282.5,159.6L282.5,159.6L282.5,159.6z M161.8,123.3l8.6,8.6c-8.2,6.3-18.3,9.8-28.7,9.8
				c-25.9,0-47-21.1-47-47c0-25.9,21.1-47,47-47c10.4,0,20.5,3.5,28.7,9.8l-8.6,8.6c-5.9-4.1-12.9-6.4-20.1-6.4
				c-19.3,0-35,15.7-35,35c0,19.3,15.7,35,35,35C149,129.6,156,127.4,161.8,123.3L161.8,123.3L161.8,123.3z"/>
		</defs>
		<clipPath id="SVGID_3_">
			<use xlink:href="#SVGID_1_"  style="overflow:visible;"/>
		</clipPath>
		<clipPath id="SVGID_4_" class="st0">
			<use xlink:href="#SVGID_2_"  style="overflow:visible;"/>
		</clipPath>
		<rect x="89.7" y="42.6" class="st1" width="333" height="134"/>
	</g>
</g>
</svg>
