<svg xmlns="http://www.w3.org/2000/svg" viewBox="0 0 212.6 56.69"><defs><style>.cls-1{fill:#a71680;}.cls-2{fill:#fff;}</style></defs><title>dataton</title><g id="Layer_1" data-name="Layer 1"><path class="cls-1" d="M212.6,28.35a28.34,28.34,0,0,1-28.35,28.34H28.35A28.34,28.34,0,0,1,0,28.35H0A28.35,28.35,0,0,1,28.35,0h155.9A28.35,28.35,0,0,1,212.6,28.35Z"/><path class="cls-2" d="M113.85,20.76s0,7.93,0,7.93c0,4,2,7.25,6.84,7.67v3.18c-6.36,0-10-4.62-10-10.82v-8h-2.47V17.71h2.47V12.36h3.19v5.35h6.5v3.05Z"/><path class="cls-2" d="M91.32,21V17.8c7.55-2,12.81,1.62,14.81,7L111.36,39h-3.43l-2.16-5.73a12,12,0,0,1-10.93,6.6,7.44,7.44,0,0,1-6-2.92,7.1,7.1,0,0,1-.91-5.54A6.85,6.85,0,0,1,93.13,27c2.32-.3,10.37-.14,10.35-.16C102.18,23.47,99,17.85,91.32,21Zm-.1,13.8c1.41,2.11,3.84,2.3,6,1.82a10.82,10.82,0,0,0,7.37-7c-3.15.15-7.73-.11-10.49.25C89.86,30.43,90.72,33.93,91.22,34.82Z"/><path class="cls-2" d="M147.76,20.76s0,7.93,0,7.93c0,4,2,7.25,6.84,7.67v3.18c-6.36,0-10-4.62-10-10.82v-8H142.1V17.71h2.47V12.36h3.19v5.35h6.5v3.05Z"/><path class="cls-2" d="M174,28.35a8.24,8.24,0,1,1-8.24-8.25A8.24,8.24,0,0,1,174,28.35Zm-8.24-11.44a11.44,11.44,0,1,0,11.44,11.44A11.44,11.44,0,0,0,165.79,16.91Z"/><path class="cls-2" d="M125.23,21V17.8c7.56-2,12.4,1.43,14.67,6.87L145.28,39h-3.43l-2-5.73a12.19,12.19,0,0,1-11.06,6.6,7.43,7.43,0,0,1-6-2.92,7.06,7.06,0,0,1-.91-5.54A6.82,6.82,0,0,1,127.05,27c2.31-.3,10.37-.14,10.34-.16C137,24,132.89,17.85,125.23,21Zm-.1,13.8c1.41,2.11,3.84,2.3,6,1.82a10.83,10.83,0,0,0,7.38-7c-3.15.15-7.73-.11-10.5.25C123.77,30.43,124.63,33.93,125.13,34.82Z"/><path class="cls-2" d="M83.28,6.32V20.43a11.42,11.42,0,1,0,3.2,7.92v-22ZM75,36.59a8.25,8.25,0,1,1,8.24-8.24A8.24,8.24,0,0,1,75,36.59Z"/><path class="cls-2" d="M31.16,8.58h-.07V22.87l-.1-.14a17.91,17.91,0,0,0-3.21-3.58,6.23,6.23,0,0,0-4-1.6,6.67,6.67,0,0,0-4,1.63l-.1.09a20.2,20.2,0,0,0-3.08,3.46c-.79,1-2.83,4.31-3.06,4.68l0,.06,2.72,1.68,0,0c.6-1,2.29-3.65,2.89-4.43a18.25,18.25,0,0,1,2.66-3l.11-.09a3.53,3.53,0,0,1,1.9-.81,3.24,3.24,0,0,1,1.95.84,15.32,15.32,0,0,1,2.73,3.08c.89,1.17,2.14,3.2,2.64,4V47.93h1.14a19.68,19.68,0,1,0,0-39.35Zm3.13,3.33A16.5,16.5,0,0,1,48.2,24.41a9.68,9.68,0,0,1,.23,2.14,10.05,10.05,0,0,1-.14,1.69,13,13,0,0,1-1.67,3.94c-2.53,3.72-4.14,3.63-4.83,3.59h-.18a3.21,3.21,0,0,1-1.94-.84,15,15,0,0,1-2.73-3.08c-.9-1.17-2.14-3.2-2.65-4Zm0,21.73.1.14a17.85,17.85,0,0,0,3.22,3.58,6.21,6.21,0,0,0,4,1.6,6.62,6.62,0,0,0,4-1.63l.11-.09.6-.56A16.53,16.53,0,0,1,34.29,44.6Z"/><path class="cls-2" d="M179.12,39V24.78a7.88,7.88,0,0,1,15.76,0V39h-3.2V24.78a4.69,4.69,0,0,0-9.37,0V39Z"/></g></svg>