<?xml version="1.0" encoding="utf-8"?>
<!-- Generator: Adobe Illustrator 21.1.0, SVG Export Plug-In . SVG Version: 6.00 Build 0)  -->
<svg version="1.1" id="Lager_1" xmlns="http://www.w3.org/2000/svg" xmlns:xlink="http://www.w3.org/1999/xlink" x="0px" y="0px"
	 viewBox="0 0 878.4 486.1" style="enable-background:new 0 0 878.4 486.1;" xml:space="preserve">
<g>
	<path d="M441.1,235.8c26.9-35.4,53.7-70.8,81.1-106.9c2.9,2.9,5.6,5.3,8,7.9c5,5.2,9.4,11,14.9,15.4c3.7,2.9,6.5,5.9,8.7,10.5
		c-7.8,4.4-6.9,12.8-8.7,20c-6.8,26.9-13,53.8-19.8,82.2c3.6-3.9,6.4-6.8,9.1-9.8c10.6-11.8,21-23.6,31.7-35.4
		c2.6-2.8,3.6-5.6,2.9-9.5c-2.9-17-5.6-34.1-8.2-51.2c-2.5-16.6-4.9-33.2-7.3-49.8c0-0.2,0-0.3,0-0.5c-1.4-10.8-1.4-10,9.6-10.9
		c11.5-1,20,2.5,27.4,11.3c3.7,4.4,5.1,8.2,4.1,13.7c-2.7,16.1-5,32.2-7.5,48.3c-1.4,9.3-2.8,18.6-4.2,28c0.6,0.4,1.1,0.9,1.7,1.3
		c0.7-1.3,1.1-2.8,2.1-3.8c10.8-12.2,21.8-24.3,32.6-36.5c2.5-2.8,4.1-3.1,6.8-0.3c8.4,9,16.9,18,25.5,26.7c2.8,2.8,2.3,4.4-0.5,6.7
		c-12.2,9.8-24.3,19.8-36.4,29.7c-1,0.8-2,1.7-2.7,3.6c5.9-0.8,11.8-1.5,17.7-2.3c15.2-2.1,30.3-4.3,45.4-6.5
		c5.4-0.8,10.8-1.8,16.3-2.3c2.1-0.2,4.8,0.3,6.2,1.7c11.4,11,22.5,22.2,33.7,33.5c0.6,0.6,1,1.6,2,3.2c-8.9-1.2-16.9-2.2-24.9-3.3
		c-13.7-1.9-27.3-4-41-6c-19.1-2.8-38.2-5.4-57.3-8.3c-6.6-1-11.9-0.5-17.4,4.3c-17.3,14.9-35.2,29-52.9,43.5
		c-1.1,0.9-2.2,2-3.3,2.9c0.2,0.4,0.3,0.8,0.5,1.2c45.9-11.9,91.8-23.7,139-35.9c0.4,15.7,4.6,29.9,16,42.2
		c-49.9,24.2-98.5,47.7-148,71.7c8,0,14.9,0.2,21.8,0c11.8-0.4,23.6-1.1,35.4-1.6c9.5-0.4,18.9-1,28.4-1.1c3,0,4.5-1.2,5.8-3.6
		c8.4-14.6,16.9-29.1,25.3-43.6c1.6-2.8,2.9-3.3,5.1-0.8c8.6,9.8,17.2,19.5,25.7,29.3c0.6,0.7,1,1.7,1.9,3.3
		c-10.1,4.3-20,8.6-30,12.8c0.1,0.3,0.2,0.7,0.2,1c6.9-0.3,13.7-0.6,20.6-0.9c9.1-0.4,18.3-0.9,27.4-1c5.5-0.1,9.6-1.6,13.3-6.1
		c15.3-18.7,30.9-37.1,46.4-55.6c1.6-1.9,3-4.2,5.9-1.3c9.1,9.3,18.4,18.4,27.5,27.6c0.4,0.4,0.7,1.1,1.4,2.4
		c-20.2,10.1-40.3,20.2-61.3,30.7c6.6,0,12.2,0.1,17.7,0c3.8-0.1,7.6-0.6,11.4-0.8c19-0.7,37.9-1.5,56.9-2c2.1-0.1,4.8,0.7,6.2,2.1
		c12.4,12.3,24.7,24.8,36.9,37.3c0.3,0.3,0.5,0.9,1.2,2.4c-3.3,0-5.9,0.1-8.6,0c-15.1-0.7-30.2-1.6-45.3-2.3
		c-28.7-1.4-57.5-2.8-86.2-4c-20.8-0.9-41.6-1.5-62.4-2.3c-27.1-1.1-54.2-2.2-81.3-3.4c-22.3-1-44.5-2-66.8-3
		c-24.1-1.1-48.2-2.4-72.3-3.4c-7.8-0.3-15.6,0.2-23.3,0c-10.4-0.2-20.8-1.2-31.2-0.9c-19.3,0.5-38.5,1.8-57.8,2.8
		c-31.2,1.6-62.4,3.2-93.6,4.9c-24.1,1.3-48.1,2.8-72.2,4.1c-18.1,1-36.2,1.9-54.3,2.9c-24.4,1.3-48.8,2.7-73.2,4.1
		c-13.1,0.8-26.2,1.8-39.3,2.4c-1.9,0.1-3.8-1.1-5.7-1.7c0.8-1.8,1.2-4.1,2.4-5.5c9-9.8,18.3-19.4,27.4-29c1.3-1.3,2.8-2.5,3.8-4
		c2.6-3.8,6.1-4.6,10.4-4.3c17.9,1.1,35.9,1.9,53.8,2.9c9,0.5,18.1,1.2,27.1,1.8c0.1-0.4,0.3-0.8,0.4-1.3
		c-8.2-6.2-16.4-12.3-24.5-18.5c-8.4-6.3-16.7-12.7-25.1-19c-1.8-1.3-3.5-2.6-1.2-4.7c7.8-7.2,15.8-14.3,23.6-21.4
		c7.4,11.3,15.8,24,24.2,36.7c5.7,8.6,11.3,17.3,17.1,25.8c1,1.5,2.9,3.2,4.5,3.3c13.6,0.9,27.2,1.4,40.8,2c0.5,0,0.9-0.2,2.6-0.5
		c-9.3-5.1-17.7-9.7-27-14.8c5-4,9.1-7.3,13.2-10.5c6.8-5.4,13.6-10.7,20.4-16.1c2.9-2.3,4.4-1.5,5.2,1.9c3.3,12.5,6.9,25,9.8,37.6
		c0.8,3.6,2.5,4.1,5.3,4.3c13.1,0.6,26.3,1.2,39.4,1.9c16.1,0.9,32.2,2.1,48.3,3.1c0.7,0,1.3,0,3-0.1c-1.5-1.1-2.2-1.8-3-2.2
		c-43.8-21.2-87.7-42.5-131.5-63.7c-3.4-1.7-6.8-3.4-10.3-4.9c-3.2-1.4-4.7-3.1-1.9-6.3c8.6-10,11.9-22,12.5-34.9
		c0-0.8,0.4-1.6,0.8-3.5c52.5,13,104.9,26,157.3,38.9c0.2-0.3,0.4-0.6,0.5-1c-1.9-1.5-3.8-3-5.6-4.5c-14.9-12.5-29.8-25.2-44.7-37.6
		c-1.8-1.5-4.3-2.8-6.5-3.1c-12.3-1.7-24.7-3.2-37.1-4.7c-16.5-2-33-3.9-49.5-5.9c-7.4-0.9-14.9-1.7-22.3-2.6
		c-2.4-0.3-4.8-0.7-8.3-1.2c4.3-5.4,7.4-10.5,14.2-11.8c19.6-3.5,39.2-7.3,58.8-11c0.4-0.1,0.8-0.5,1.7-1.2
		c-9.6-8.2-19-16.2-29.1-24.8c10.1-10.7,19.9-21,30.3-32c9.3,10.4,18.4,20.6,27.8,31c4.8-25.4,9.5-50.3,14.4-75.1
		c0.1-0.6,1.2-1,2.6-2.2c1.2,5.5,2.5,10.4,3.4,15.3c3.1,17,6.1,34,9.3,51c3.1,16.3,6.8,32.5,9.2,48.9c0.9,6.2,4,10.2,7.8,14.3
		c8.4,9.4,16.8,18.8,26.1,29.2c-1.3-7.9-2.3-14.6-3.5-21.1c-2.7-14.4-5.5-28.7-8.2-43c-2.5-13.4-4.8-26.8-7.3-40.2
		c-1-5.4-0.9-5.6,4.8-5.6c6,0,12-0.2,18,0.1c4.7,0.2,8.4-0.7,11.1-4.8c2.3-3.5,4.3-3.5,7,0.3c21.2,28.8,42.6,57.5,63.9,86.2
		c0.2,0.2,0.5,0.4,1.4,1c-0.3-5.7-0.6-11-0.9-16.2c-1-16.9-1.9-33.9-2.9-50.8c-1.3-21.9-2.8-43.8-3.9-65.7c-0.2-3.5-1.7-4.8-4.6-6.1
		c-28.3-12.5-56.5-25.1-84.7-37.7c-0.6-0.3-1.1-0.7-2.2-1.4c3.3-3.6,6.3-7,9.4-10.4c4.6-4.9,9.5-9.4,13.7-14.5
		c3-3.7,5.1-3.4,8.4-0.4C372,49,390.6,65.5,409,82c0.9,0.8,1.9,1.6,3.5,3c-0.4-8.9-0.8-17-1.2-25c-1-17.8-2.1-35.5-3.3-53.3
		c-0.4-6.5-0.4-6.7,6.2-6.7c11.5,0,23,0,34.5,0c1.8,0,3.6,0.2,5.8,0.4c-1.8,28.9-3.5,57.4-5.2,85.9c0.4,0.2,0.8,0.5,1.2,0.7
		c18.7-20.5,37.4-40.9,55.1-60.2c9.2,8.9,18,17.4,27.3,26.3c-5.3,3-10.8,6.1-16.3,9c-21.5,11.6-43.1,23.2-64.5,34.9
		c-1.7,0.9-3.6,3.2-3.7,5c-2.1,30.5-3.8,61.1-5.7,91.6c-0.8,13.9-1.7,27.9-2.5,41.8C440.5,235.6,440.8,235.7,441.1,235.8z
		 M352.9,198.6c-4.2,22-8.2,43.3-12.3,64.7c-0.7,3.8-0.3,7.1,2.7,10.4c26.1,28.9,51.9,58,77.8,87.1c2.2,2.4,4.4,4.7,6.6,7.1
		c0.7-6.1,0.4-11.8,0.1-17.6c-2-33.7-4.1-67.3-5.7-101c-0.3-6-1.9-9.8-7.4-13C394.1,224.2,373.8,211.4,352.9,198.6z M508.7,194.4
		c-22.8,15.8-44.8,31.1-66.7,46.5c-1.2,0.9-2.2,2.9-2.3,4.5c-1,14.2-1.9,28.5-2.8,42.8c-1.3,20.4-2.8,40.8-3.9,61.2
		c-0.4,6-0.1,12-0.1,18.6c1-0.9,1.5-1.3,2-1.7c26.4-29.5,52.8-59,79-88.7c1.1-1.3,1.8-3.6,1.7-5.4c-1.1-14.6-2.5-29.1-3.8-43.7
		C510.8,217.5,509.8,206.4,508.7,194.4z M237.2,299.3c-0.1,0.4-0.2,0.8-0.3,1.2c26.6,22.2,53.1,44.4,79.7,66.5
		c1.4,1.1,3.6,1.6,5.5,1.7c8.8,0.6,17.6,1.1,26.4,1.5c19.4,0.9,38.7,1.9,58.1,2.5c6.5,0.2,13.1-0.7,20.1-1.1
		c-0.6-0.9-0.7-1.4-1.1-1.6c-26.9-22.6-53.7-45.2-80.7-67.6c-2.1-1.7-5.3-2.8-8-2.8c-31.6-0.2-63.3-0.2-94.9-0.2
		C240.4,299.3,238.8,299.3,237.2,299.3z M434.6,370.6c0.1,0.4,0.1,0.8,0.2,1.1c1.6,0,3.2,0.1,4.7,0c19.1-0.9,38.2-1.9,57.3-2.8
		c10.1-0.5,20.3-0.6,30.4-1.3c3-0.2,6.5-1,8.7-2.8c25.1-20.8,50-41.9,75-62.9c0.9-0.7,1.6-1.7,2.9-3.2c-30.3,0-59.6,0-88.9,0.1
		c-1.8,0-3.9,1-5.4,2.1C491.1,324.2,462.9,347.4,434.6,370.6z"/>
	<path d="M439.2,412.2c-100.1,0-200.3,0-300.4,0c-43.3,0-86.6,0.2-130,0.1c-2.3,0-6.5-1.7-6.5-2.3c0.3-4.4,4.1-2.8,6.6-2.8
		c206.1,0,412.2,0.1,618.4,0.1c80.1,0,160.3,0,240.4-0.1c1,0,2.1-0.3,3,0.1c1.6,0.6,3,1.7,4.5,2.5c-1.5,0.8-3.1,2.4-4.6,2.4
		c-34.3,0.1-68.7,0.1-103,0.1c-106.6,0-213.3-0.1-319.9-0.1C444.9,412.2,442,412.2,439.2,412.2z"/>
	<path d="M149.3,470.8c3.7-8.1,6.9-15.3,10.2-22.5c4.3-9.5,8.6-19.1,13-28.6c0.5-1.2,1.9-2,2.9-2.9c0.7,1.3,1.9,2.5,2.1,3.9
		c2.3,18.1,4.5,36.3,6.6,54.4c0.4,3.6,2,5.8,5.6,6.6c1.1,0.3,1.9,1.6,2.8,2.5c-1.1,0.6-2.1,1.6-3.2,1.7c-5.7,0.2-11.3,0.2-17,0
		c-0.9,0-1.8-1-2.7-1.5c0.7-0.9,1.4-1.8,2.1-2.8c0.9-1.3,2.8-2.7,2.7-4c-0.9-12.1-2.1-24.2-3.2-36.2c0-0.3-0.4-0.5-0.9-1.3
		c-3.9,8.5-7.7,16.6-11.3,24.9c-2.9,6.5-5.3,13.2-8.1,19.8c-0.4,1-1.6,2.4-2.4,2.4c-0.9,0-2.1-1.3-2.6-2.3
		c-5.8-12.4-11.4-24.8-17.1-37.1c-0.9-1.9-1.8-3.7-3.7-5.4c-0.8,7.5-1.6,15-2.3,22.5c-0.3,3.1-0.5,6.3-0.6,9.5
		c-0.1,3.1-1.9,6.9,3.3,7.8c0.4,0.1,1.1,1.5,0.8,2c-0.3,0.7-1.3,1.7-2,1.7c-5.5,0.1-11,0.2-16.5,0c-0.8,0-1.6-1.2-2.5-1.9
		c0.7-0.8,1.4-2.1,2.1-2.2c4.8-0.5,6.3-3.6,6.7-7.8c1.4-12.6,2.9-25.1,4.4-37.7c0.6-5.3,1.1-10.6,1.9-15.8c0.2-1.3,1.2-2.5,1.8-3.7
		c1.1,1,2.7,1.8,3.3,3.1c7.1,15.2,14.1,30.4,21.2,45.7C147.3,466.9,148.1,468.4,149.3,470.8z"/>
	<path d="M842.7,487.3c-21.3,0-35.2-13.9-35.2-35.1c0-21.4,14.3-35.8,35.5-35.8c20.8,0,35.4,14.7,35.4,35.6
		C878.4,473.3,864.2,487.3,842.7,487.3z M868.4,452c-0.9-4.5-1.4-9.2-2.9-13.5c-3-9.1-11.7-15.6-21-15.8
		c-10.3-0.2-18.3,3.8-23.1,13.4c-3.9,7.6-4,15.8-2.7,23.8c1.5,9,6.1,16.1,15,19.7c9.4,3.8,18.1,2.2,25.5-4.4
		C865.9,469.2,867.9,461,868.4,452z"/>
	<path d="M0,484.3c0.9-0.4,2.1-0.6,2.7-1.3c1.5-1.7,3.8-3.6,3.9-5.5c0.3-16.8,0.1-33.6,0.2-50.5c0-3.1-1.4-4.4-4.3-5
		c-1-0.2-1.7-1.6-2.5-2.4c1.1-0.6,2.1-1.6,3.2-1.6c11.5,0,23-0.4,34.5,0.3c18.5,1.1,31.3,16.3,30.3,35.3
		c-1,19.8-14.3,32.4-34.3,32.4c-9.7,0-19.3,0-29,0c-1.5,0-3-0.3-4.5-0.4C0.1,485.1,0,484.7,0,484.3z M16.1,479.8c5.1,0,9.5-0.1,14,0
		c16.4,0.6,25.6-8.6,28-23.6c1.7-10.9-3.5-23.5-12-28.3c-9.6-5.4-19.8-3.2-30-3.3C16.1,443.3,16.1,461.2,16.1,479.8z"/>
	<path d="M345.6,487.3c-21.2,0-35.2-14-35.3-35.2c-0.1-20.8,15.3-36.4,35.8-35.8c20.8,0.6,35.1,14.9,35,36
		C381,473.5,366.9,487.3,345.6,487.3z M370.7,450.7c-0.1-1.2-0.1-3.2-0.4-5.2c-1.4-12.3-10.6-21.7-22.1-22.9
		c-11.8-1.2-22.3,5.5-25.5,17.8c-1.7,6.6-2,14-0.9,20.6c3.3,19.3,25.4,27.1,39.9,14.4C369,469.2,370.8,460.6,370.7,450.7z"/>
	<path d="M699.2,483.9c6.9-0.7,7.3-5.1,7.2-10.4c-0.2-14.7-0.1-29.3,0-44c0-3.8-0.1-7.1-5-7.6c-0.7-0.1-1.7-1.2-1.7-1.9
		c0-0.6,1.2-1.8,1.8-1.8c14.8,0.5,29.9-0.6,44.2,2.3c16,3.2,23.6,19.1,21.4,38c-1.7,14.2-14.1,26.4-28.9,27.3c-12,0.7-24,0.2-36,0.2
		c-0.8,0-1.7-0.5-2.5-0.8C699.5,484.7,699.4,484.3,699.2,483.9z M715.9,425.1c0,18.2,0,36.3,0,54.7c4.7,0,9-0.2,13.3,0
		c16.6,0.8,25.7-8.9,28-21.8c2.1-12-2.4-30.1-19.3-32.7C730.8,424.2,723.4,425.1,715.9,425.1z"/>
	<path d="M280.6,456.1c11.5,18.1,13,19.7,27.6,28.5c-6.1,3.5-16.8,1.6-22-4.7c-5.1-6.1-9.3-13-14.2-19.3c-2-2.6-4.7-4.5-7.1-6.7
		c-0.7,0.3-1.3,0.7-2,1c0,3.4,0,6.8,0,10.1c0,2.5,0,5,0,7.5c0,8.4,0,8.4,6.7,11.8c-2.6,2.1-18.1,2.4-22.4,0.5
		c0.1-0.3,0.1-0.9,0.2-0.9c5.7-1,6.6-4.7,6.4-9.8c-0.3-14-0.1-28-0.1-42c0-8.7,0-8.7-7.7-13.2c2.3-0.4,3.7-1,5.2-1
		c7.3,0,14.7,0.1,22,0.1c10.9,0.1,17.2,4.5,19.7,14c2.3,8.7-1.9,17.9-10.3,22.8C282.1,455.3,281.5,455.6,280.6,456.1z M262.8,424.4
		c0,7.5,0,14.1,0,20.7c0,6.3,0.9,7.2,7.2,6.3c1-0.1,1.9-0.5,2.9-0.6c5.1-0.7,8.9-3.3,9.8-8.4c1.1-5.8,1.4-11.7-4-16
		c-1.2-1-2.9-1.8-4.5-1.9C270.7,424.2,267,424.4,262.8,424.4z"/>
	<path d="M676.9,446.1c0-5.7-0.1-11.3,0-17c0-3.2-0.3-6-4.3-6.6c-0.8-0.1-1.4-1.4-2.1-2.2c0.9-0.7,1.9-2,2.8-2
		c4.8-0.2,9.7-0.2,14.5,0c0.9,0,1.8,1,2.8,1.6c-0.7,0.9-1.4,2.5-2.3,2.6c-3.7,0.5-3.9,3-3.9,5.8c0,10.7,0,21.3,0,32
		c0,11.7-4.2,21.5-15.7,25.3c-17.4,5.8-37.8,0.1-39-23.1c-0.6-11-0.1-22-0.1-33c0-3.3,0.3-6.5-4.3-7.1c-0.7-0.1-1.4-1.6-1.5-2.6
		c0-0.5,1.3-1.5,2.1-1.5c5.7-0.1,11.3-0.2,17,0c0.8,0,1.6,1.2,2.4,1.9c-0.7,0.8-1.3,1.6-2,2.4c-1.5,1.5-4.3,3-4.3,4.5
		c0,13.8,0,27.6,1,41.4c0.6,8.1,7.1,13.4,14.9,14.7c7.5,1.2,16.4-2.6,19.3-9.5c1.8-4.1,2.2-9,2.6-13.5
		C677.3,455.5,676.9,450.8,676.9,446.1z"/>
	<path d="M549.8,431c-0.9-1.4-1.7-2.3-2-3.3c-1.4-4.4-4.4-6.7-8.8-6.8c-4.4-0.1-7.6,2-9.5,6.1c-1.9,4.2-0.5,7.9,2.4,10.9
		c5.5,5.6,11.1,11,16.9,16.3c6.4,5.9,8.3,12.9,5.7,21.2c-2.2,7-8.5,12-15.9,11.8c-4.9-0.2-9.8-0.8-14.6-1.5c-3.7-0.6-5.2-3.4-5-6.9
		c0.1-2.7,0.2-5.4,0.8-7.9c0.3-1.1,1.8-2,2.7-2.9c0.5,1.1,1.4,2.1,1.5,3.2c1.1,9.8,7.8,14.3,16.1,10.9c7.8-3.2,9.8-12.3,3.8-18.3
		c-5.9-5.9-12.2-11.3-18-17.2c-9.2-9.4-6-24.3,6.2-29.1c6.5-2.6,12.8-0.2,19,1.4C553.3,419.4,552.6,427.4,549.8,431z"/>
	<path d="M421.8,419.1c0,2.6,0.2,5.4-0.1,8.2c-0.1,1.1-1.2,2.1-1.8,3.1c-0.8-0.9-1.9-1.6-2.4-2.7c-3-6.2-7.8-8.3-13.2-5.8
		c-6.8,3.3-7.9,10.7-2.2,16.5c5.7,5.8,11.8,11.3,17.6,17c9.7,9.6,7.3,25.5-5.3,30.6c-7.3,3-15.6,2.4-23-1.5c-1.2-0.6-2.3-2.6-2.4-4
		c-0.2-3.3,0.2-6.6,0.7-9.9c0.2-1,1.5-1.8,2.3-2.7c0.6,1,1.6,1.9,1.7,3c0.5,4.7,1.7,8.7,6.5,11c5.3,2.5,11.3,1.2,14.7-3.5
		c3.2-4.3,2.8-10.7-1.1-14.6c-5.9-5.8-12.3-11.3-18.1-17.2c-9.3-9.5-6.2-24.5,6.1-29c3.4-1.3,7.5-0.9,11.3-0.7
		C415.8,417,418.5,418.2,421.8,419.1z"/>
	<path d="M463.7,424.4c0,18.4-0.2,35.9,0.3,53.4c0.1,2.5,3.6,4.8,5.8,7.6c-6.8,1.2-14.3,0.6-21.9,0.2c0.1-1,0.1-1.6,0.2-1.6
		c5.5-1.1,6.5-4.7,6.4-9.8c-0.3-16.3-0.1-32.6-0.1-49.6c-5.7,0-11.1-0.2-16.5,0.2c-1.2,0.1-2.2,2.4-3.3,3.7
		c-0.8,0.9-1.6,1.7-2.4,2.5c-0.6-1-1.7-2-1.7-3c-0.2-3.5-0.1-6.9-0.1-10.4c19.2,0,38,0,57.4,0c0,3.5,0.1,7.3-0.1,11.1
		c0,0.8-1.2,1.6-1.8,2.4c-0.7-0.7-2-1.4-2.1-2.2c-0.4-3.5-2.5-4.3-5.6-4.2C473.5,424.5,468.9,424.4,463.7,424.4z"/>
	<path d="M600.6,485.4c-7.5,0-15,0-22.6,0c0.1-0.8,0.1-1.3,0.2-1.3c6-1.1,6.5-5,6.4-10.3c-0.3-16.1-0.1-32.3-0.1-49.2
		c-5.6,0-11-0.3-16.4,0.2c-1.3,0.1-2.3,2.7-3.5,4c-0.7,0.8-1.5,1.4-2.2,2.1c-0.6-0.8-1.7-1.6-1.8-2.5c-0.2-3.8-0.1-7.5-0.1-11
		c19.3,0,38,0,57.4,0c0,3.4,0.1,7.2-0.1,11c0,0.8-1.2,1.6-1.8,2.4c-0.8-0.7-2.1-1.4-2.2-2.1c-0.3-3.9-2.8-4.4-5.9-4.3
		c-4.5,0.1-8.9,0-14.1,0c0,2,0,3.6,0,5.2c0,14.5,0.1,29,0,43.5c0,5.2-0.6,10.5,7.9,10.5C601.3,484.2,601,484.8,600.6,485.4z"/>
	<path d="M240.8,417.6c0,2.5,0.1,5.5-0.1,8.4c-0.1,0.9-1,1.7-1.6,2.6c-0.7-0.6-1.9-1.1-2-1.8c-0.5-4.2-3.4-4.2-6.6-4.2
		c-4.8,0.1-9.6,0-14.7,0c0,9.4,0,18.3,0,28c4.6,0,9.2,0.3,13.7-0.2c1.3-0.1,2.2-2.7,3.6-3.9c0.8-0.7,2.7-1.4,3.1-1
		c1.7,1.5,0.5,13.8-1.8,16.2c-3.1-11-11.6-5-18.6-6.7c0,8-0.2,15.2,0.2,22.5c0.1,1.5,2.7,2.7,4.2,4.1c0.8,0.8,1.6,1.6,2.4,2.5
		c-0.9,0.6-1.7,1.7-2.6,1.7c-6,0.2-12,0.2-18,0c-0.9,0-1.8-1.1-2.7-1.7c0.8-0.8,1.5-2.2,2.4-2.4c3.6-0.9,4.7-3.2,4.7-6.6
		c0-15.8-0.1-31.6,0-47.5c0-3-0.8-5.1-4.2-5.7c-1-0.2-1.9-1.3-2.9-2c1.2-0.6,2.3-1.6,3.5-1.8c1.6-0.3,3.3,0,5,0
		C218.6,418,229.2,417.8,240.8,417.6z"/>
	<path d="M88.4,485.9c-3,0-6,0.1-9-0.1c-0.9-0.1-1.6-1.2-2.5-1.9c0.7-0.8,1.3-2.1,2-2.2c4.5-0.6,5-3.6,4.9-7.2
		c-0.1-15.1-0.2-30.3-0.1-45.4c0-3.4-0.7-5.8-4.6-6.5c-0.9-0.2-1.6-1.6-2.4-2.5c1-0.7,2-1.9,3-1.9c5.8-0.2,11.7-0.2,17.5,0
		c1,0,2.1,1.2,3.1,1.8c-0.9,0.9-1.7,2.3-2.8,2.6c-3.1,0.9-4.2,2.8-4.2,5.9c0,15.6,0,31.3-0.1,46.9c0,3.2,0.9,5.4,4.4,6.2
		c1,0.2,1.7,1.5,2.6,2.3c-1.1,0.7-2.2,1.8-3.4,2C94.1,486.2,91.2,486,88.4,485.9C88.4,485.9,88.4,485.9,88.4,485.9z"/>
	<path d="M789.7,485.9c-3,0-6,0.1-9-0.1c-0.8-0.1-1.6-1.2-2.4-1.9c0.7-0.8,1.2-2.1,2-2.2c4.4-0.7,5-3.7,5-7.3
		c-0.1-14.8,0-29.7,0-44.5c0-3.6-0.5-6.7-5-7.3c-0.8-0.1-1.4-1.4-2.1-2.2c0.9-0.7,1.8-2.1,2.7-2.1c6-0.2,12-0.2,18,0
		c0.9,0,1.7,1.1,2.6,1.8c-0.8,0.9-1.4,2.4-2.3,2.5c-3.8,0.7-4.7,3-4.7,6.4c0.1,15.5,0.1,31,0,46.5c0,3.3,1,5.4,4.4,6.2
		c1,0.2,1.7,1.5,2.6,2.2c-1.1,0.7-2.2,1.8-3.3,2C795.4,486.2,792.5,486,789.7,485.9C789.7,485.9,789.7,485.9,789.7,485.9z"/>
</g>
</svg>
