<?xml version="1.0" encoding="utf-8"?>
<!-- Generator: Adobe Illustrator 21.1.0, SVG Export Plug-In . SVG Version: 6.00 Build 0)  -->
<svg version="1.1" id="Lager_1" xmlns="http://www.w3.org/2000/svg" xmlns:xlink="http://www.w3.org/1999/xlink" x="0px" y="0px"
	 viewBox="0 0 110 42.2" style="enable-background:new 0 0 110 42.2;" xml:space="preserve">
<style type="text/css">
	.st0{fill:#EB922D;}
	.st1{fill:#6BC6E3;}
</style>
<g>
	<path class="st0" d="M85.1,0c1.4,0.7,1.7,1.8,1.7,3.2c0,8.7,0,17.4,0,26c0,0.4,0,0.8-0.1,1.2c-0.3,1.3-1.2,1.8-2.6,1.8
		c-8,0-16.1,0-24.1,0c-0.7,0-1.4,0-2,0c-1.4,0-2.3-0.9-2.3-2.3c0-0.1,0-0.1,0-0.2c0-9.1,0-18.2,0-27.3c0-1.2,0.7-1.9,1.5-2.5
		C66.4,0,75.7,0,85.1,0z M55.8,24.7c0.9,1.5,1.4,2.2,2.4,2.9c2.4,1.7,5,1.8,7.7,0.9c2.1-0.7,3.6-2.1,4.4-4.1c1-2.3,1-4.7,0-7
		c-0.8-2-2.3-3.4-4.4-4.1c-1.3-0.4-2.6-0.6-4-0.4c-2.5,0.3-4.4,1.5-5.8,3.6c-0.3,0.4-0.4,0.9-0.4,1.4C55.8,20.2,55.8,22.5,55.8,24.7
		z M81.6,17.3c0,2.2,0,4.3,0,6.4c0,0.5,0,0.9-0.2,1.4c-0.4,1-1,1.4-2.2,1.4c-1,0-1.8-0.6-2.1-1.5c-0.1-0.5-0.2-1-0.2-1.6
		c0-1.8,0-3.5,0-5.3c0-0.3,0.1-0.6-0.2-0.8c-0.7,0-1.4-0.1-2.2,0c0,2.7-0.1,5.4,0,8c0.1,1.6,1,2.8,2.6,3.3c1.2,0.4,2.5,0.4,3.7,0.2
		c1.5-0.3,2.6-1.2,3-2.7c0.2-0.6,0.3-1.3,0.3-2c0-2,0-3.9,0-5.9c0-0.3,0.1-0.6-0.1-0.9C83.3,17.3,82.5,17.3,81.6,17.3z"/>
	<path class="st0" d="M0,9.5c0.6-1,1.5-1.3,2.7-1.3c6.4,0,12.8,0,19.2,0c1.2,0,2,0.5,2.3,1.5c0.1,0.3,0.1,0.6,0.1,0.8
		c0,7.2,0,14.5,0,21.7c0,1.4-0.8,2.4-2.4,2.4c-6.5,0-13,0-19.6,0c-1.1,0-1.8-0.4-2.4-1.3C0,25.4,0,17.4,0,9.5z M10.2,16.3
		c2.1,0,4.2,0,6.2,0c0-0.9,0-1.8,0-2.6l-8.9,0.1v14.9l2.7,0c0-2,0-3.9,0-6c1.5,0,2.8,0,4.2,0c0-1,0-1.8,0-2.8c-1.4,0-2.8,0-4.2,0
		C10.2,18.8,10.2,17.6,10.2,16.3z M19,17.3l0.1,11.5h2.4V17.3H19z"/>
	<path class="st1" d="M52.1,14.4c1,0.6,1.4,1.4,1.4,2.4c0,7.6,0,15.3,0,22.9c0,1.6-0.8,2.4-2.4,2.4c-7.3,0-14.6,0-21.8,0
		c-1.4,0-2.5-1-2.5-2.4c0.1-3.6,0-7.2,0-10.8l2.4-0.2c0-1.9,0-3.8,0-5.9c2.5,2.2,4.7,4.2,7,6.2c0.4,0,0.3-0.3,0.3-0.6
		c0-3.6,0-7.2,0-10.9c0-0.1,0-0.1-0.1-0.2c-0.8,0-1.5,0-2.4,0c0,1,0,2,0,2.9c0,1,0,1.9,0,3.1C31.4,21.1,29,19,26.7,17
		c0-0.5-0.1-0.9,0.1-1.3c0.3-0.7,1.1-1.4,2-1.3c2.9,0.1,5.9,0,8.8,0c4.3,0,8.7,0,13,0C51.1,14.4,51.6,14.4,52.1,14.4z M40.5,28.6
		l0,0.2c0,0,4.6,0.4,6.6-0.4c1-0.4,2-1,2.6-1.9c1.1-1.7,1.3-3.5,0.7-5.4c-0.5-1.6-1.6-2.6-3.1-3.2c-1.7-0.7-3.4-0.6-5.2-0.6
		c-0.6,0-1.1,0.1-1.7,0.3C40.5,21.2,40.5,24.9,40.5,28.6z"/>
	<path class="st1" d="M92.4,27.9c0,0.3-0.1,0.6,0.1,0.9c0.7,0,1.5,0,2.3,0c0-3,0-6,0-8.8l0-0.1c0.9,0,1.9,0,2.8,0l0.8,0l0.1-2.5
		c-3,0-5.9,0-8.9,0c-0.3-1.2-0.1-2.3,0.2-3.4c0.1-0.6,0.6-0.8,1.2-0.9c0.2,0,0.4,0,0.6,0c5.5,0,11,0,16.5,0c0.6,0,1.1,0,1.6,0.5
		c0.4,0.4,0.5,0.9,0.5,1.5c0,3.6,0,7.2,0,10.9c0,2.3,0,4.6,0,6.9c0,1.1-0.1,1.2-1.1,2c-0.3,0-0.7,0-1.1,0c-5.4,0-10.8,0-16.1,0
		c-1.8,0-2.2-0.4-2.3-2.1c0-0.2,0-0.4,0-0.5c0-3.7,0-7.3,0-11c0-0.4,0,0.7,0-1.2h3.2"/>
	<path class="st0" d="M67.9,20.7c0,2.4-0.8,4-2.5,5.2c-1.8,1.1-4.3,0.8-5.8-0.9c-1.7-2-1.8-4.9-0.7-7c0.8-1.4,2-2.4,3.6-2.6
		c1.2-0.2,2.3,0.2,3.3,1C67.2,17.5,67.9,19,67.9,20.7z"/>
	<path class="st1" d="M42.9,26.3c0.1-2.2-0.1-4.4,0.1-6.6c1.1-0.2,2.1-0.2,3.1,0.2c1.3,0.5,2.2,1.9,1.9,3.5c-0.1,0.3,0,0.6-0.1,0.8
		c-0.3,0.9-0.8,1.6-1.7,2C45.4,26.6,43.8,26.6,42.9,26.3z"/>
</g>
</svg>
