<?xml version="1.0" encoding="utf-8"?>
<!-- Generator: Adobe Illustrator 21.1.0, SVG Export Plug-In . SVG Version: 6.00 Build 0)  -->
<svg version="1.1" id="Lager_1" xmlns="http://www.w3.org/2000/svg" xmlns:xlink="http://www.w3.org/1999/xlink" x="0px" y="0px"
	 viewBox="0 0 512.1 427.1" style="enable-background:new 0 0 512.1 427.1;" xml:space="preserve">
<g>
	<path d="M30,427.1c0-54.5,0-108.9,0-164c8.6-1.6,17-3.2,26-5c0,21.5,0,42.7,0,64.5c4.8-1.6,7-4.2,7.9-8.5
		c3.9-18.5,8.2-37,12.1-55.6c0.7-3.2,1.9-4.8,5.3-5.3c7.7-1.2,15.4-2.7,23.8-4.2c-0.2,2,0.2,3.9-0.5,5.4
		c-7.5,14.8-9.1,31.2-13.5,46.8c-1.7,5.9-3,11.9-4.3,18c-1.1,5.3-3.5,9.7-9.5,12.3c7.6,3.3,10.8,8.8,12.3,15.9
		c4.3,20.5,8.9,41,13.3,61.5c0.3,1.3,0.4,2.6,0.7,4.6c-8,1.5-15.9,3-24.1,4.5c-5.8-26.4-11.5-52.3-17.2-78.3c-4.5,2-5.9,4.8-5.9,9.3
		c0.2,22.5,0.1,45,0.1,67.5c0,1.8,0,3.6,0,5.6c-8.1,1.8-15.8,3.5-23.5,5.2C32,427.1,31,427.1,30,427.1z"/>
	<path d="M0,108.1C4.6,97.2,12.9,92,24.5,90.7c8.4-0.9,16.7-2.9,25.1-4.4c9.9-1.7,17.2,4.2,17.3,14.2c0.1,7.7,0.2,15.3,0,23
		c0,1.5-0.8,3.7-2,4.4c-6.2,3.6-12.5,6.9-18.9,10.2c-1.1,0.6-2.3,1.2-4.2,2.1c0-11.1,0-21.4,0-32.2c-5.5,1-10.4,1.9-15.5,2.8
		c0,40.4,0,80.6,0,121.1c4.3-0.8,8.4-1.3,12.4-2.3c1.1-0.3,2.5-2.2,2.6-3.4c0.2-18.5,0.2-37-0.1-55.5c0-1.7-2.2-3.8-3.9-5.1
		c-3.1-2.3-3.8-3.9,0.2-6c9.6-5.1,19.2-10.4,29.2-15.9c0,34.2,0,67.6,0,101.6c-8,1.5-16.1,3-24.7,4.6c0.6-2.1,1.1-3.7,1.8-6.1
		c-8.3,6.2-16.9,9.4-26.6,10.1c-8.1,0.6-14.4-1.8-17.3-10.1C0,198.7,0,153.4,0,108.1z"/>
	<path d="M512,2.1c-1.7,5.5-3.5,11-5,16.5c-0.7,2.8-2.1,4.1-5,4.5c-7.5,1.2-15,2.8-22.8,4.3c0,14,0,28,0,42.2
		c6.4-1.1,12.6-2.2,19.4-3.4c0,6.5,0.2,12.7-0.2,18.8c-0.1,1-2.3,2.5-3.7,2.8c-5,1.2-10.1,1.9-15.4,2.9c0,19.1,0,38,0,57.3
		c8.7-1.5,17.4-3,26.3-4.6c0,6.9,0,13.5,0,20.7c-17.5,3.3-35,6.5-53,9.9c0-54.3,0-108.2,0-162.6c12.8-2.4,25.7-4.8,38.5-7.3
		c6-1.2,11.9-2.6,17.8-4C510.3,0.3,512.6-1,512,2.1z"/>
	<path d="M211.2,229.3c5.7,19.5,11.2,38.6,16.8,57.7c0.4,0,0.8,0,1.3,0c0-1.6,0-3.2,0-4.9c0-17.3,0.1-34.6-0.1-52
		c0-3.3,1-4.7,4.3-5.2c6.9-1,13.7-2.4,21.1-3.8c0.1,1.9,0.3,3.4,0.3,5c0,51.3,0,102.6,0.1,153.9c0,3.9-0.8,5.6-5,6.1
		c-6.7,0.8-13.4,2.4-20.8,3.8c0-4.9-0.3-9.3,0.1-13.7c2.1-24.3-1.8-47.7-11.6-70c-0.7-1.6-1.2-3.3-2.6-4.9c0,30.3,0,60.6,0,91.2
		c-9.1,1.7-17.7,3.2-27.1,5c0-2.2,0-4,0-5.7c0-50.8,0.1-101.6-0.1-152.4c0-4.4,0.6-6.6,5.6-7.1C199.3,232,205.1,230.5,211.2,229.3z"
		/>
	<path d="M364.4,101.6c9.1,3.7,11.7,10,11.5,18.6c-0.4,15.6-0.1,31.3-0.1,46.9c0,14.5-6.3,22.3-20.5,25c-13.5,2.6-27.1,5.2-40.7,7.7
		c-1.4,0.3-2.9,0.3-5,0.6c-0.1-2-0.3-3.7-0.3-5.5c0-50.6,0-101.2-0.1-151.8c0-4.2,1.1-5.6,5.3-6.3c13.6-2.2,27.2-4.9,40.7-7.4
		c12.9-2.4,20.7,4,20.7,17.2c0,10.7-0.4,21.3,0.1,32C376.4,88.2,373.8,95.9,364.4,101.6z M336,174.6c4.7-0.9,8.7-1.7,12.6-2.5
		c0-20.3,0-40,0-60.6c-4,2-7.6,3.6-11.1,5.4c-0.8,0.4-1.5,1.8-1.5,2.7C335.9,137.8,336,155.7,336,174.6z M336.1,97.7
		c12.3-5,12.3-5,12.3-17.2c0-3.2,0-6.3,0-9.5c0-6.4,0-12.9,0-19.8c-4.6,0.8-8.4,1.6-12.3,2.3C336.1,68.4,336.1,82.9,336.1,97.7z"/>
	<path d="M150,404.7c0-27.7,0-54.6,0-82.5c-4.3,2.2-8,3.9-11.4,6.2c-1.1,0.7-1.4,3.2-1.5,4.8c-0.1,23-0.1,46,0,69
		c0,3.8-0.8,5.6-5,6.1c-7.2,0.9-14.4,2.6-22.1,4c0-2.3,0-4.1,0-5.9c0-45.7,0-91.3,0-137c0-15.4,6.5-22.8,21.8-25.4
		c8.4-1.4,16.7-3.2,25-4.7c12.6-2.3,19.8,3.5,19.9,16.2c0.2,47,0.2,94,0.3,141c0,1-0.2,1.9-0.3,3.2C168,401.4,159.4,403,150,404.7z
		 M137.7,262.3c0,15.5,0,30.6,0,46.3c2.5-1.4,4.3-2.6,6.3-3.3c4.2-1.7,5.9-4.4,5.6-9.1c-0.5-7.3-0.1-14.6-0.1-21.9
		c0-4.6,0-9.2,0-14.2C145,260.9,141.3,261.6,137.7,262.3z"/>
	<path d="M376.3,280.4c-4.1,2.2-7.6,3.6-10.4,5.8c-1.3,1-2.1,3.6-2.1,5.5c-0.1,22.5-0.1,45-0.1,67.5c0,1.8,0,3.6,0,5.9
		c-8.9,1.7-17.5,3.3-26.8,5.1c-0.1-2-0.2-3.8-0.2-5.5c0-45.8,0.1-91.6,0.1-137.4c0-15.3,6.3-22.6,21.3-25.2
		c8.2-1.4,16.3-3.1,24.5-4.7c13.3-2.6,20.5,3.2,20.6,16.8c0.2,46.1,0.3,92.3,0.4,138.4c0,1.6,0,3.3,0,5.1
		c-9.3,1.7-18.1,3.3-27.3,4.9C376.3,335.2,376.3,308.4,376.3,280.4z M364.2,220.3c0,15.6,0,30.8,0,46.6c2.7-1.4,4.8-2.8,7-3.7
		c3.7-1.5,5.1-3.7,4.9-7.9c-0.4-8.1-0.1-16.3-0.1-24.4c0-4.2,0-8.4,0-12.9c-2.6,0.5-4.4,0.8-6.2,1.1
		C368,219.5,366.3,219.9,364.2,220.3z"/>
	<path d="M144,150.5c0,20,0,40,0,60c0,13.9-7.2,22.5-20.8,24.9c-9.5,1.7-19,3.6-28.5,5.1c-10.4,1.6-17.5-4.1-17.6-14.6
		c-0.2-42.7-0.2-85.3,0-128c0-9.8,7.1-17.9,16.7-19.8c10.6-2.1,21.2-4.1,31.9-6c11.1-1.9,18.1,4.1,18.2,15.4
		C144,108.5,143.9,129.5,144,150.5C143.9,150.5,144,150.5,144,150.5z M116.3,94.5c-2.2,0.3-3.8,0.4-5.4,0.7
		c-6.8,1.2-6.8,1.3-6.8,8.4c0,36.1,0,72.2,0,108.4c0,1.7,0,3.5,0,5.4c1.9-0.2,3.1-0.2,4.2-0.5c9.3-2.2,8,0.5,8-9.4
		c0.1-35.6,0-71.2,0-106.9C116.3,98.8,116.3,96.8,116.3,94.5z"/>
	<path d="M231.9,215.2c0-54.4,0-108.3,0-162.9c8.7-1.6,17.6-3.3,26.5-5c7-1.3,14.1-2.5,21.1-3.8c11.2-2,18.5,4.1,18.5,15.5
		c0.1,40.8,0.1,81.7,0.1,122.5c0,13.6-6.5,22-19.8,24.8C263.1,209.5,247.7,212.2,231.9,215.2z M270.7,66c-1.5,0.1-2.8,0.1-4.1,0.4
		c-7.7,1.4-7.7,1.4-7.7,9.2c0,35.8,0,71.6,0,107.3c0,2,0,3.9,0,6.2c4.3-0.8,8-1.6,11.8-2.3C270.7,146.3,270.7,106.3,270.7,66z"/>
	<path d="M221.4,135.7c0,19.7,0,39.3,0,59c0,15.3-6.8,23.6-21.7,26.3c-8.3,1.5-16.7,3.2-25,4.7c-13.6,2.6-20.4-2.9-20.4-16.9
		c-0.1-40.7-0.1-81.3-0.1-122c0-12.3,7.4-21.4,19.4-23.7c10-2,20-3.7,30-5.5c10.2-1.8,17.6,4.3,17.6,15c0.2,21,0,42,0,63
		C221.3,135.7,221.3,135.7,221.4,135.7z M193.5,201.2c0-40.8,0-80.8,0-121.2c-4.3,0.8-8.1,1.5-12,2.3c0,40.4,0,80.5,0,121.2
		C185.7,202.6,189.6,201.9,193.5,201.2z"/>
	<path d="M304.1,232c-0.7-0.2-0.8-0.3-0.9-0.3c-11.8,1-11.8,1-11.8,12.5c0,9-0.1,18-0.1,27c0,6.6,1.2,7.5,7.8,6.7
		c2.8-0.4,5.6-0.9,8.4-1.2c11.3-1.2,18.9,4.4,19.2,15.8c0.6,21,0.5,42,0.1,62.9c-0.2,9.4-7,17.2-16.2,19.3c-9.6,2.2-19.2,4-28.9,5.3
		c-10.5,1.4-16.6-4.3-16.7-14.8c-0.1-13.2-0.1-26.3,0-39.5c0-1.3,0.4-3.3,1.3-3.9c7.5-4.5,15.2-8.7,23.6-13.5c0,17.2,0,33.4,0,49.4
		c0.7,0.3,0.8,0.4,0.9,0.4c10.3-0.7,10.3-0.7,10.3-10.7c0-13.8,0.1-27.6,0.1-41.5c0-7.1-0.6-7.6-7.4-6.4c-2.6,0.4-5.3,0.9-7.9,1.2
		c-11.2,1.4-19.5-5.2-19.8-16.5c-0.4-16-0.4-32-0.2-48c0.2-10.9,6.3-18,17-20.4c8.3-1.8,16.6-3.4,25-4.7c11.1-1.7,18.6,4.5,19,15.7
		c0.3,9.2,0.1,18.3,0.1,27.5c0,1.2-0.4,2.9-1.3,3.4c-6.8,4-13.8,7.8-21.5,12.1C304.1,256.6,304.1,244.2,304.1,232z"/>
	<path d="M452.9,242.6c0-13.7,0-26.1,0-39c-3.6,0.6-7,0.8-10.1,1.7c-1.1,0.3-2.5,2.2-2.5,3.4c-0.1,12.3,0,24.7,0.1,37
		c0,4.1,2.1,5.6,6.1,5c4.1-0.7,8.2-1.4,12.4-1.6c8.8-0.4,14.6,4.3,16.1,13c0.5,2.8,0.8,5.6,0.8,8.4c0,17.2-0.1,34.3-0.1,51.5
		c-0.1,15.9-9,25-22.4,26.4c-7.6,0.8-15.1,2.7-22.6,4c-9.4,1.5-16.6-4.4-16.6-13.8c0-13.3,0-26.7,0.4-40c0.1-2,1.7-4.6,3.4-5.7
		c6.4-4.1,13.2-7.6,20.7-11.9c0,16.9,0,33.1,0,49.3c1.1,0.2,1.5,0.4,1.9,0.3c9.9-1.7,9.9-1.7,9.8-11.9c-0.1-13.8-0.2-27.7-0.1-41.5
		c0-4.5-1.6-5.9-5.9-5.3c-4.6,0.6-9.3,1.2-13.9,1.1c-9.2-0.2-15.3-6.4-15.4-15.6c-0.1-15.8-0.2-31.7,0.1-47.5
		c0.2-11.8,7.4-19.9,19.1-22.1c7.4-1.4,14.7-2.8,22.1-4.1c10.8-1.9,19,4.3,19.5,15.2c0.5,9.5,0.2,19,0.1,28.5c0,1.1-0.7,2.8-1.6,3.3
		C467.5,234.7,460.7,238.4,452.9,242.6z"/>
	<path d="M413.1,79.6c1.6-15.5,3.2-31.1,4.8-46.6c0.5-5-0.7-11.3,2-14.5c2.6-3,9.1-2.8,13.9-3.8c3.7-0.8,7.5-1.4,12-2.2
		c-1.8,10.3-3.5,20-5.3,29.7c-4.6,25.5-9.5,51-13.5,76.7c-1.5,9.8-0.9,19.9-1.1,29.9c-0.2,10,0,19.9,0,30.2c-8.6,1.6-16.5,3-25,4.6
		c-0.1-1.9-0.4-3.4-0.3-4.8c3.8-42.9-5.9-84-16.2-125c-2.3-9.3-4.3-18.7-6.6-28.6c8.8-1.7,17.2-3.3,26.4-5c2.7,20.1,5.3,39.9,8,59.7
		C412.5,79.7,412.8,79.7,413.1,79.6z"/>
</g>
</svg>
