<?xml version="1.0" encoding="utf-8"?>
<!-- Generator: Adobe Illustrator 21.1.0, SVG Export Plug-In . SVG Version: 6.00 Build 0)  -->
<svg version="1.1" id="Lager_1" xmlns="http://www.w3.org/2000/svg" xmlns:xlink="http://www.w3.org/1999/xlink" x="0px" y="0px"
	 viewBox="0 0 1898 542" style="enable-background:new 0 0 1898 542;" xml:space="preserve">
<style type="text/css">
	.st0{fill:#0B2545;}
	.st1{fill:#8794A3;}
	.st2{fill:#BEC4CD;}
	.st3{fill:#BFC6CE;}
	.st4{fill:#C1C7CF;}
	.st5{fill:#435770;}
	.st6{fill:#828F9F;}
</style>
<g>
	<path class="st0" d="M283.1,0.8C384,8.1,459.8,55.6,509,143.9c27.1,48.6,36.3,101.4,30.2,156.7c-13,116.5-97.9,210.4-212.6,235
		c-14.3,3.1-28.9,4.8-43.5,5.5c-2.7,0-5.3,0-8,0c-3.4,0-6.7-0.1-10.1-0.1c-2.3,0-4.7,0.1-7,0.1c-8.6-0.8-17.3-1.2-25.8-2.4
		c-61.4-9.2-114-35.9-157-80.8c-39.9-41.7-64-91.3-72.4-148.6C1.9,303.6,2.3,297.6,0,292c0-0.7,0-1.3,0-2c2-1.7,0.7-3.9,0.8-5.8
		c0-2.4,1.1-4.9-0.8-7.2c0-4,0-8,0-12c1.9-2.2,0.8-4.7,0.8-7.2c-0.1-2,1.2-4.1-0.8-5.8c0-0.7,0-1.3,0-2c2.4-5.7,1.9-11.9,2.8-17.9
		C11.6,172.6,37.3,121.3,80,79.1C129.2,30.5,188.8,4.6,257.9,0.8c2.7,0,5.3,0,8,0c3.4,0,6.8,0.1,10.1,0.1
		C278.4,0.9,280.7,0.8,283.1,0.8z M261.3,177.1c-0.5-16.2-7.6-27.9-21.4-34.8c-13.8-6.8-27.6-5.4-39.9,4c-12.1,9.3-17,21.9-14.2,37
		c2.5,13.7,10.7,22.9,23.3,28.5c7.2,3.2,9.9,8.9,7.8,15.7c-1.4,4.5-5,6.6-9.1,8.5c-20.5,9.4-28.4,32.9-18,53
		c4.4,8.3,11.1,13.9,19.7,17.6c5.1,2.2,7.9,5.9,8,11.6c0.1,5.6-2.8,9.4-7.8,11.7c-1.5,0.7-3,1.3-4.5,2.1
		c-15.5,8.2-23.3,26.2-18.9,43.3c4.3,16.5,20.5,28.9,37.3,28.5c18.2-0.4,33.7-13.4,37.2-31.1c3.4-17.1-5.9-34.7-22.4-42
		c-5.4-2.4-9.4-5.7-9.5-12.1c-0.1-6.6,3.8-10.2,9.5-12.6c7.7-3.3,13.7-8.6,17.8-16.1c11.1-20.2,3.3-43.9-17.7-53.7
		c-4.6-2.1-8.5-4.7-9.4-10.1c-1.1-6.7,1.7-11.1,8.8-14.4C252.8,204.7,260.5,192.9,261.3,177.1z M374.2,363.3
		c-0.1,18.3,10.3,32.9,25.8,38.2c15.4,5.3,32.4,0.2,42.5-12.7c10-12.8,10.6-30.7,1.6-44.3c-4.5-6.7-10.6-11.4-17.9-14.6
		c-5-2.1-8-5.8-8.1-11.5c-0.1-5.9,3-9.6,8.2-12c1.4-0.6,2.7-1.2,4.1-1.9c15.1-8,23.1-25.6,19-42.3c-3-12.5-10.4-21.3-22.2-26.5
		c-6.8-3-9.6-7.3-9-13.4c0.5-5.6,4.1-8.6,9-10.9c16.8-7.7,25.2-22.9,23-40.7c-2.5-20.5-22.4-35-43.8-32c-20,2.9-34.9,23-31.6,42.7
		c2.4,14.3,10.3,24.2,23.3,30.2c7.5,3.4,10.6,9.5,8,16.4c-1.5,4.1-4.9,6.1-8.6,7.8c-16.8,7.9-25.4,23.5-22.4,41.4
		c2.2,13.4,9.9,23,22.4,28.6c3.8,1.7,7.1,3.7,8.6,7.8c2.5,6.9-0.5,13-8,16.4C382.9,337.1,375.2,349,374.2,363.3z M128.8,233
		c-25.6,0-44,24.2-36.8,48.6c3.5,11.9,11.4,19.9,22.7,25c9,4,11.1,14,4.7,20.4c-1.9,1.9-4.4,2.9-6.8,4c-15.3,7.1-23.9,23-21.7,40.1
		c2.1,15.8,15,29.2,30.8,31.9c16.6,2.9,32.9-5.1,40.6-19.8c7.8-14.8,5-32.7-6.9-44.6c-3.9-4-8.6-6.6-13.7-8.9
		c-4.8-2.1-7.6-6-7.6-11.4c0-5.3,2.6-9.1,7.4-11.4c1.8-0.9,3.6-1.7,5.4-2.6c15-8.2,22.8-25.9,18.6-42.5
		C161.3,244.9,146.2,233,128.8,233z M279.8,266.6c0,20,8.6,33.6,23.1,39.4c15.2,6.1,29.1,3.4,41.2-7.7c11.2-10.2,14.6-26.3,9.1-40.8
		c-3.8-10.2-10.8-17.4-20.9-21.6c-5.3-2.3-8.9-5.8-8.9-11.9c-0.1-6.1,3.1-9.9,8.6-12.1c1.5-0.6,3-1.4,4.4-2.3
		c14.5-8.1,21.8-24.5,18.5-41.2c-3.3-16.3-17-28-35-29.9c-14.8-1.6-30.8,8.3-37.1,22.8c-8.5,19.6,0.1,41.2,20.2,50.4
		c5.7,2.6,9.3,6.3,8.9,12.9c-0.3,6.2-4.3,9.2-9.4,11.6C287.9,242.9,280.5,254.6,279.8,266.6z M128.3,214.5
		c21,0.1,38.3-16.9,38.5-37.8c0.2-20.6-17.2-38.2-38-38.5c-20.6-0.3-38.1,17.1-38.4,38C90.3,197.1,107.4,214.4,128.3,214.5z"/>
	<path class="st0" d="M1898,353c-1.6,0.4-1.2,1.9-1.4,2.9c-5.1,22.8-19.4,36.9-41.5,42.5c-26.3,6.7-52.5,4.9-78.1-3.6
		c-3.3-1.1-6.4-2.9-9.3-4.7c-10.9-6.8-12.4-21.5-3-30.3c3.8-3.6,8.3-5.3,13.7-4.3c6.6,1.2,12.9,3.3,19.1,5.5c12,4.2,24.3,5.7,36.8,3
		c4.4-0.9,8.5-2.8,12.2-5.5c11.4-8.4,11.4-23.9-0.2-32.1c-10.9-7.7-23.6-11.4-36-15.4c-14.8-4.7-28.4-11.4-38.4-23.8
		c-24-29.8-9.3-78.1,27.7-90c23.5-7.6,47.2-6.3,70.7,1.1c4.8,1.5,9.1,4,12.9,7.3c6.4,5.5,8.6,12.4,7.1,20.6
		c-1.2,6.4-5.5,10.7-11.9,11.8c-5.5,1-10.9,0.7-16.2-1.5c-13.3-5.5-26.9-8.7-41.4-5.5c-7.9,1.7-14.7,5.3-16.4,14
		c-1.8,9,1.3,16.2,9.1,21.5c11.7,8,25.2,11.9,38.2,16.7c14.9,5.5,28.3,13.1,37.7,26.5c4.6,6.5,6,14.1,8.5,21.4
		C1898,338.3,1898,345.7,1898,353z"/>
	<path class="st1" d="M276,0.9c-3.4,0-6.8-0.1-10.1-0.1c0-0.3,0-0.5,0.1-0.8c3.3,0,6.7,0,10,0C276,0.3,276,0.6,276,0.9z"/>
	<path class="st1" d="M265,541.1c3.4,0,6.7,0.1,10.1,0.1c0,0.3,0,0.5-0.1,0.8c-3.3,0-6.7,0-10,0C265,541.7,265,541.4,265,541.1z"/>
	<path class="st2" d="M266,0c-0.1,0.3-0.1,0.5-0.1,0.8c-2.7,0-5.3,0-8,0c0-0.3,0-0.5,0.1-0.8C260.7,0,263.3,0,266,0z"/>
	<path class="st3" d="M275,542c0-0.3,0.1-0.5,0.1-0.8c2.7,0,5.3,0,8,0c0,0.3,0,0.5-0.1,0.8C280.3,542,277.7,542,275,542z"/>
	<path class="st4" d="M276,0.9C276,0.6,276,0.3,276,0c2.3,0,4.7,0,7,0c0,0.3,0,0.5,0.1,0.8C280.7,0.8,278.4,0.9,276,0.9z"/>
	<path class="st5" d="M0.8,257.8c0,2.4,1.1,4.9-0.8,7.2c0-2.3,0-4.7,0-7C0.3,257.9,0.5,257.8,0.8,257.8z"/>
	<path class="st5" d="M0,277c1.9,2.2,0.8,4.7,0.8,7.2c-0.3,0-0.5-0.1-0.8-0.2C0,281.7,0,279.3,0,277z"/>
	<path class="st4" d="M265,541.1c0.1,0.3,0.1,0.6,0,0.9c-2.3,0-4.7,0-7,0c0-0.3,0-0.5-0.1-0.8C260.3,541.2,262.6,541.1,265,541.1z"
		/>
	<path class="st6" d="M0.8,257.8c-0.3,0-0.5,0-0.8,0.2c0-2,0-4,0-6C2,253.7,0.7,255.9,0.8,257.8z"/>
	<path class="st6" d="M0,284c0.3,0.1,0.5,0.2,0.8,0.2c-0.1,2,1.2,4.1-0.8,5.8C0,288,0,286,0,284z"/>
	<path class="st0" d="M757,217.5c0,1.9,0,3.7,0,5.5c0,52.8,0,105.7,0,158.5c0,9.8-5.9,17.6-15.6,20.8c-9.6,3.2-19.3,0.3-25.1-7.4
		c-3-4-4.2-8.7-4.2-13.6c0-82.3,0-164.7,0-247c0-11.4,6.6-20,16.4-22.3c13.1-3.1,24.5,1.7,30,12.9c6.8,13.9,13.5,27.8,20.2,41.7
		c17.5,36.2,35,72.4,52.5,108.6c0.6,1.2,1.3,2.3,2.2,4.1c5.9-12.2,11.5-23.9,17.2-35.6c19.1-39.7,38.4-79.2,57.1-119.1
		c7.1-15.2,32.2-18.5,42.4-4.3c3.3,4.6,4.1,9.6,4.1,15.1c-0.1,57.2,0,114.3,0,171.5c0,24.7,0,49.3,0,74c0,10.5-5.8,18.7-15.2,21.6
		c-9.7,3-20.7-1-26.3-9.5c-2.7-4.1-3.1-8.7-3.1-13.4c0-52.3,0-104.7,0-157c0-1.6,0-3.2,0-4.7c-0.3-0.1-0.6-0.1-0.9-0.2
		c-5.8,11.8-11.6,23.7-17.4,35.5c-12.1,25-24.2,49.9-36.3,74.9c-4.4,9.2-11.6,13.9-21.7,13.9c-10.4,0.1-17.6-4.7-22.1-14.1
		c-17.3-36.1-34.7-72.2-52.1-108.2C758.6,219,758.4,218,757,217.5z"/>
	<path class="st0" d="M1152.2,310.4c0,15.2,0,30.3,0,45.5c0,9.3,1.4,11.1,10.5,13.5c8,2.1,11.4,6.2,11.7,14
		c0.3,7.7-3.1,13.3-10.5,15.7c-14,4.5-32.5,2.4-43-12.3c-2.3-3.2-3.5-2.9-6.4-0.8c-25.8,18.7-54.3,21.1-83.5,10.6
		c-21.4-7.6-31.3-25.4-33.7-47.3c-1.1-10.6-0.9-21.3,2.2-31.7c6.3-20.9,21.6-31.7,41.8-36.4c20.9-4.9,42-4.5,62.9,0.4
		c3.8,0.9,4.7,0.1,4.5-3.5c-0.3-5.8-0.1-11.7-0.4-17.5c-0.9-17.9-11.6-28.8-29.5-30.5c-11.2-1.1-21.8,0.8-32.1,5.3
		c-2.9,1.3-5.7,2.6-8.7,3.6c-9.3,3.1-17.9,0.9-21.9-5.6c-5.2-8.4-3.9-19.3,3.2-26.1c4.7-4.4,10.3-7.3,16.3-9.3
		c16.2-5.3,32.9-6.3,49.8-5.3c8.5,0.5,16.9,1.9,24.9,4.6c22.3,7.6,33.5,24.5,38.7,46.4c2.3,9.8,3.2,19.7,3.2,29.7
		C1152.2,285.7,1152.2,298,1152.2,310.4z M1108.5,334c0-5.2,0-10.3,0-15.5c0-1.5,0.1-3-2-3.4c-16.2-2.9-32.4-6.3-48.9-2.1
		c-7.9,2-13.9,6.5-16.1,14.7c-1.6,6-2.1,12.1-1,18.3c1.9,10.8,7.2,16.6,18,18.6c15.3,2.8,29.7,0.4,43.1-7.9c5-3.1,8-6.5,7-12.8
		C1108.1,340.7,1108.5,337.3,1108.5,334z"/>
	<path class="st0" d="M1205.2,245.5c0-29.8,0-59.7,0-89.5c0-14.2,7.8-22.1,21.8-22.2c14-0.1,22.1,8.1,22.1,22.5
		c0,14.5,0.1,29-0.1,43.5c-0.1,3.6,1,4.4,4.4,4.3c10.5-0.2,21-0.1,31.5-0.1c11.9,0.1,20.6,8.5,20.7,19.8
		c0.1,11.1-8.8,19.4-20.9,19.4c-10.7,0-21.3,0-32,0c-2.3,0-3.7,0.1-3.6,3.1c0.6,30.3-1,60.6,1,90.9c0.2,2.6,0.6,5.3,1.3,7.9
		c2.8,10.9,10.2,16.6,21.7,17c7.3,0.2,14.6-0.9,21.9,0.6c11.4,2.4,15.8,7,16,17c0.2,10.5-5.3,18.4-15.7,20
		c-19.4,2.9-38.6,2.1-56.8-6.1c-18.2-8.2-26.9-23.5-30.3-42.4c-2-11-2.8-22.1-2.8-33.3C1205.1,293.8,1205.2,269.7,1205.2,245.5z"/>
	<path class="st0" d="M1586.7,297.9c0.7-14.5-0.9-29,1.1-43.4c5-35,29.2-57.8,64.5-60.4c17-1.3,33.9-0.5,50.3,4.9
		c7.2,2.4,13.8,5.7,19.2,11.1c5.5,5.5,6.6,12.2,4.3,19.4c-2.3,7.2-7.8,10.4-15.1,10.9c-5.9,0.4-11.6-0.3-16.9-3.1
		c-11.3-5.8-23.3-7.8-35.8-5.7c-16.7,2.8-26.1,12.2-27.1,29c-1.5,24.8-1.5,49.6,0,74.4c1.1,18.6,12.9,29,31.6,30.2
		c11.5,0.7,22.1-1.5,32.3-6.7c5.1-2.6,10.5-3.9,16.4-3.1c7.8,1,13.2,5,15.1,12.5c2,7.6,0.1,14.5-6.2,19.8
		c-7.7,6.5-16.9,9.7-26.7,11.7c-17.8,3.7-35.6,4.9-53.5,0.7c-29.2-6.8-48.2-28-52.4-57.8C1585.9,327.6,1587.5,312.7,1586.7,297.9z"
		/>
	<path class="st0" d="M1347,314.5c0-22.3,0.1-44.6,0-67c0-6.4-1.2-12.8-5.6-17.7c-5.5-6.1-5-17.9,1-23.8c7.1-7,18.7-8.5,26.6-3.2
		c1.6,1.1,3.5,2.3,4.5,3.9c2.8,4.6,5.6,3.5,9.6,1.3c15.4-8.1,31.5-14.4,49.3-14c3,0.1,6,0.4,8.9,0.9c11.1,2.1,16.6,9.8,15.8,21.7
		c-0.7,9.8-8.8,17.4-18.9,17.8c-7.2,0.2-14.3,0.1-21.5,0.4c-8.7,0.4-16.5,3.6-24.1,7.6c-1.4,0.7-2.3,1.4-2.2,3.4
		c1.3,22.1,0.4,44.3,0.6,66.4c0.2,23.3,0.1,46.6,0,70c-0.1,11.5-8.5,19.7-20.8,20.6c-10.9,0.8-20.7-6.5-22.7-16.9
		c-0.3-1.8-0.3-3.6-0.3-5.5c0-22,0-44,0-66C1347.1,314.5,1347.1,314.5,1347,314.5z"/>
	<path class="st0" d="M1537,298.3c0,28,0.1,55.9,0,83.9c0,10.7-7.9,18.9-18.5,19.9c-13.1,1.2-22.9-5.1-24.9-16.2
		c-0.3-1.8-0.3-3.6-0.3-5.5c0-54.9,0-109.9,0-164.8c0-13,8.8-22,21.8-22.1c13-0.1,22.1,9,22.1,22.3
		C1537,243.3,1537,270.8,1537,298.3z"/>
	<path class="st0" d="M655,298.1c0,27.3-0.4,54.6,0.1,81.9c0.4,21-21.2,26.5-34,19.3c-7.1-4-10.1-10.3-10.1-18.2c0-14.7,0-29.3,0-44
		c0-40.6,0-81.3,0-121.9c0-10.2,5.7-17.9,14.8-20.7c9.7-3,20.1,0.4,25.7,8.4c2.6,3.8,3.5,8.1,3.5,12.8
		C655,243.2,655,270.6,655,298.1z"/>
	<path class="st0" d="M632.9,110.8c14.2,0,25.7,10.7,25.6,23.8c-0.1,13.4-11.3,24.1-25.4,24.2c-14.2,0.1-25.7-10.7-25.6-24.3
		C607.5,121,618.5,110.8,632.9,110.8z"/>
	<path class="st0" d="M1515.5,110.8c14,0.2,25.2,10.8,25.1,23.7c-0.1,13.6-11.7,24.5-25.8,24.3c-14.2-0.3-25.4-11.1-25.3-24.2
		C1489.7,120.7,1500.7,110.6,1515.5,110.8z"/>
</g>
</svg>
