<?xml version="1.0" encoding="utf-8"?>
<!-- Generator: Adobe Illustrator 21.1.0, SVG Export Plug-In . SVG Version: 6.00 Build 0)  -->
<svg version="1.1" id="Lager_1" xmlns="http://www.w3.org/2000/svg" xmlns:xlink="http://www.w3.org/1999/xlink" x="0px" y="0px"
	 viewBox="0 0 293.1 164.7" style="enable-background:new 0 0 293.1 164.7;" xml:space="preserve">
<g>
	<path d="M164.7,149.8c18-0.6,35.4-4,53.5-8.2c0.3,2.5,0.5,4.7,0.8,7.3c-16.8,2.6-33,5.7-49.3,7.6c-24.5,2.8-49.1,4.7-73.6,7.1
		c-1.8,0.2-3.6,0.6-5.4,0.8c-6.3,1-8.4-1-8.3-8.3c3.1-0.6,6.4-1.2,9.6-1.9c3.2-0.6,6.4-1.3,9.6-2.8c-7.1,0.5-14.1,1.1-21.2,1.6
		c-5.8,0.4-11.6,0.8-17.4,1.1c-0.9,0-2.5-0.6-2.8-1.4c-1.7-4.1-5.2-4.3-8.8-4.1c-4.6,0.4-8.9-0.2-13.1-2.7c0.7-0.9,1.4-1.8,2.1-2.6
		c-0.3-0.2-0.5-0.6-0.7-0.6c-2.3,0-4.7-0.1-7,0c-2.8,0.1-5.1-0.2-6.5-3.4c-0.4-1-3.1-1.6-4.7-1.6c-5.2-0.1-10.3,0.1-15.5,0.1
		c-2.7,0-5.5,0.1-5.9-3.7c-0.4-3.8,2.7-3.3,4.7-3.7c6.3-1.3,12.7-2.3,19-3.5c0-4.9-1-5.9-6.2-5.7c-5.5,0.2-7.3-1.5-7.1-7.2
		c2.9-0.6,5.9-1.3,8.9-1.9c0-0.3,0-0.6,0-0.9c-4.2-0.2-8.5-0.2-12.7-0.6c-4.7-0.4-5.1-1-5.2-6.6c2.3-0.6,4.7-1.2,7.2-1.9
		C8.3,99.3,8,97,5,95.5c-1.6-0.8-2.4-3.2-3.6-4.8c1.8-1,3.5-2.6,5.4-2.9C18.5,86.2,30.2,85,42,83.6c3.2-0.4,6.3-1,9.5-1.5
		c0-0.4-0.1-0.9-0.1-1.3c-1.2-0.1-2.3-0.3-3.5-0.3C33.8,81,19.7,81.4,5.6,81.8c-1,0-2.3,0-2.9-0.6c-1.1-1-2.2-2.4-2.5-3.9
		c-0.1-0.7,1.6-2.2,2.8-2.5c6-1.4,12.1-2.5,19.2-3.8c-3.1-0.5-5.4-0.6-7.4-1.3c-3.9-1.3-4.1-4-0.7-6.8c-0.1-0.3-0.2-0.7-0.4-0.8
		c-2.3-1.1-5.3-2.2-4.2-5.1c0.6-1.6,3.5-3,5.5-3.3c11.5-1.9,23-3.4,34.5-5.2c1.3-0.2,2.4-1.1,3.6-1.7c-1.3-0.6-2.5-1.7-3.8-1.8
		c-4.8-0.3-9.6-0.3-14.4-0.4c-3-0.1-4.3-2.1-4.3-4.5c0-0.9,2.5-2.2,4-2.5c7.1-1.3,14.3-2.3,21.5-3.4c0-0.4,0-0.7,0-1.1
		c-3.8,0-7.5,0.1-11.3,0c-1.5,0-3.2,0.1-4.3-0.7c-1.3-1-2.1-2.7-3.1-4.2c1.3-0.8,2.5-2.3,3.8-2.5c13-1.9,26.1-3.5,39.1-5.2
		c3.9-0.5,7.7-1.1,11.6-1.6c0-0.5,0-0.9,0-1.4c-1.9-0.2-3.8-0.7-5.6-0.6c-8.3,0.4-16.6,1.1-24.9,1.5c-3.1,0.2-6.4,0.2-8.9-3.6
		c3.8-0.5,7.1-1.1,10.5-1.4c15.4-1.5,30.8-2.6,46.1-4.6c15.5-2.1,30.8-5,46.2-7.6c5.1-0.9,10.3-2,13.9,3.6c0.5,0.7,2.4,0.8,3.6,0.7
		c17.6-1.7,35.1-3.4,52.7-5.1c1.9-0.2,4.3-1.4,4.7,1.7c0.3,3-2.3,2.2-3.9,2.5c-10.2,1.6-20.3,3.1-30.5,4.7c0,0.4,0.1,0.9,0.1,1.3
		c6.6-0.4,13.2-0.8,19.8-1.3c9-0.6,17.9-1.3,26.9-1.9c0.8-0.1,2.2-0.3,2.4,0c2.6,4.3,6.9,3,10.7,3.5c0.9,0.1,2.3,0.4,2.7,1.1
		c1.4,2.5,2.1,5.6,6,5.2c0.3,0,0.8,0.7,0.9,1.1c1,5.2,2,10.3,3.1,16c2,0.4,5.9-1.3,8.1,2.8c0.4,0.7,2.8,0.4,4.3,0.4c3,0,6-0.2,9,0.1
		c1.2,0.1,2.2,1.4,3.4,2.1c-0.9,0.9-1.7,2.4-2.8,2.7c-4.3,1-8.7,1.7-13.1,2.5c-0.2,0.4-0.4,0.8-0.5,1.2c1.3,0.9,2.5,1.9,3.9,2.5
		c1,0.4,2.5-0.2,3.4,0.3c1,0.6,1.9,1.8,2.2,2.9c0.1,0.5-1.2,1.6-2.1,2c-0.9,0.5-2.1,0.7-3.5,1.1c4.2,1.8,9.9-2,12.1,4.8
		c-1.8,0.6-3.3,1.2-5.9,2.1c1.5,1.7,2.7,2.9,3.8,4.3c0.7,0.9,1.6,2,1.5,2.9c-0.2,0.8-1.6,1.7-2.6,1.8c-7.6,1-15.2,1.9-22.8,2.9
		c-3.6,0.4-7.2,0.9-10.8,2.1c3.8-0.2,7.6-0.5,11.5-0.6c6.7-0.2,13.3-0.4,20-0.5c1.1,0,2.5,0,3.4,0.5c1,0.6,1.6,1.8,2.4,2.7
		c-0.8,0.6-1.6,1.6-2.6,1.8c-3.7,0.9-7.4,1.5-12.3,2.5c4.3,0.5,8.5,0.1,6.4,5.6c-0.1,0.2,0.7,0.6,1,1c2.1,3,1.7,4.1-2.2,4.8
		c-6.5,1.2-13.2,2.1-19.7,3c-7.2,1-14.4,2-21.5,3.5c9.7,0,19.5,0,29.2,0.1c0.5,0,1.1,1.5,2.2,3.3c-6,1.1-11.3,2.2-16.8,3.2
		c3.8,2,9.2-1.8,11.9,5.1c-11.9,1.6-23.3,3.2-34.6,4.7c0,0.4,0.1,0.8,0.1,1.2c7.8,1.1,15.8-2.4,24.2,0.9c-1.2,0.9-1.6,1.4-2.2,1.6
		c-3.8,1.1-6,3.3-6.7,7.4c-0.6,4-3.2,6-7.4,6.7c-16.1,2.6-32.2,5.3-48.2,8.3c-9.3,1.7-18.5,4.2-27.7,6.3
		C165.8,149.1,165.3,149.5,164.7,149.8z M242.9,46c-24.6,0-48.8,0-73.1,0c0,2.6,0,4.9,0,7.2c24.5,0,48.7,0,73.1,0
		C242.9,50.7,242.9,48.6,242.9,46z M170.1,43.1c24.5,0,48.6,0,72.7,0c0-2.7,0-4.9,0-7.2c-24.4,0-48.5,0-72.7,0
		C170.1,38.4,170.1,40.7,170.1,43.1z M110.3,112.5c19.6,0,38.6,0,57.8,0c0-2.6,0-4.8,0-7.1c-19.5,0-38.6,0-57.8,0
		C110.3,108,110.3,110.1,110.3,112.5z M165.2,53.3c0-2.6,0-5,0-7.7c-2.1,0-3.7,0-5.3,0c-15,0-30,0-45,0c-6.9,0-7.2,0.4-6,7.7
		C127.5,53.3,146.3,53.3,165.2,53.3z M167.9,83.5c-0.8-6.4-2.2-7.9-7.9-7.9c-15.5,0-31,0-46.5,0c-1.4,0-2.8,0.2-5.1,0.4
		c2.8,3.1,2.7,7.5,7.5,7.5C133.2,83.5,150.5,83.5,167.9,83.5z M110.9,43.2c18.4,0,36.2,0,54.3,0c0-2.6,0-4.9,0-7.5
		c-14.3,0-28.3-0.2-42.2,0.1C118.2,35.9,113.9,38.2,110.9,43.2z M110.3,122.7c15.1,0,29.7,0.2,44.2-0.1c4.7-0.1,8.7-2.5,12.1-7.1
		c-19.2,0-37.7,0-56.3,0C110.3,118,110.3,120.1,110.3,122.7z M101.2,35.9c-11.6,0-23,0-34.5,0c0,2.7,0,5,0,7.3c11.7,0,23,0,34.5,0
		C101.2,40.6,101.2,38.4,101.2,35.9z M66.5,53.3c11.8,0,23.2,0,34.6,0c0-2.6,0-5,0-7.3c-11.8,0-23.1,0-34.6,0
		C66.5,48.5,66.5,50.7,66.5,53.3z M66.6,113.2c11.9,0,23.1,0,34.6,0c0-2.5,0-4.8,0-7.1c-11.7,0-23.2,0-34.6,0
		C66.6,108.6,66.6,110.7,66.6,113.2z M189.2,113.2c11.8,0,23.1,0,34.6,0c0-2.5,0-4.8,0-7.3c-11.6,0-22.9,0-34.6,0
		C189.2,108.3,189.2,110.6,189.2,113.2z M108.5,73.2c17.4,0,34.5,0,51.6,0c-8.9-4.8-18.5-1.4-27.7-3.1c-0.4-1.5-0.8-2.8-1.1-4.1
		c-7.7,0-15.2,0-22.8,0C108.5,68.5,108.5,70.6,108.5,73.2z M101.2,115.9c-11.7,0-23.2,0-34.6,0c0,2.5,0,4.6,0,6.8
		c11.7,0,23,0,34.6,0C101.2,120.2,101.2,118.1,101.2,115.9z M223.7,122.8c0-2.7,0-4.8,0-7.1c-11.6,0-23,0-34.5,0c0,2.5,0,4.7,0,7.1
		C200.9,122.8,212.1,122.8,223.7,122.8z M168.2,85.8c-16.8,0-33.4,0-49.9,0c0,0.4,0,0.7-0.1,1.1c8.5,2.1,17.3,0.1,26,1.2
		c0.3,1.6,0.7,3,1,4.4c7.8,0,15.3,0,23,0C168.2,90.1,168.2,88,168.2,85.8z M131.6,56c-8,0-15.4,0-23,0c0,2.6,0,5,0,7.1
		c7.9,0,15.5,0,23,0C131.6,60.6,131.6,58.5,131.6,56z M194.6,63.2c8.1,0,15.7,0,23.2,0c0-2.6,0-4.9,0-7.1c-7.9,0-15.5,0-23.2,0
		C194.6,58.5,194.6,60.7,194.6,63.2z M95.1,66c-7.9,0-15.5,0-23.2,0c0,2.6,0,5,0,7.3c8,0,15.5,0,23.2,0C95.1,70.8,95.1,68.6,95.1,66
		z M217.9,73.4c0-2.7,0-5,0-7.3c-8,0-15.6,0-23.2,0c0,2.7,0,4.9,0,7.3C202.6,73.4,210,73.4,217.9,73.4z M71.9,75.9c0,2.6,0,5,0,7.3
		c8,0,15.5,0,23.1,0c0-2.6,0-4.9,0-7.3C87.1,75.9,79.6,75.9,71.9,75.9z M194.8,75.9c0,2.5,0,4.9,0,7.3c8,0,15.6,0,23.1,0
		c0-2.6,0-4.9,0-7.3C210.1,75.9,202.7,75.9,194.8,75.9z M218,86c-8.1,0-15.7,0-23.4,0c0,2.5,0,4.8,0,7.1c8,0,15.6,0,23.4,0
		C218,90.6,218,88.4,218,86z M217.9,103.2c0-2.7,0-4.9,0-7.2c-7.9,0-15.6,0-23.2,0c0,2.6,0,4.8,0,7.2
		C202.5,103.2,209.9,103.2,217.9,103.2z M71.8,55.9c0,2.8,0,5,0,7.4c7.9,0,15.4,0,23,0c0-2.6,0-4.9,0-7.4
		C87.1,55.9,79.7,55.9,71.8,55.9z M71.7,93.2c8.1,0,15.6,0,23.3,0c0-2.6,0-4.8,0-7.1c-7.9,0-15.6,0-23.3,0
		C71.7,88.6,71.7,90.7,71.7,93.2z M71.7,103.1c8.1,0,15.6,0,23.3,0c0-2.6,0-4.8,0-7.1c-7.9,0-15.5,0-23.3,0
		C71.7,98.5,71.7,100.6,71.7,103.1z M145.1,102.7c7.8,0,15.3,0,23,0c0-2.5,0-4.7,0-6.9c-7.9,0-15.4,0-23,0
		C145.1,98.3,145.1,100.4,145.1,102.7z M165.5,56.1c-7,0-13.6,0-20.2,0c0,2.3,0,4.1,0,6.1c6.9,0,13.4,0,20.2,0
		C165.5,60,165.5,58.1,165.5,56.1z M110.3,102.6c7.5,0,14.6,0,21.7,0c0-2.1,0-3.9,0-5.7c-7.4,0-14.6,0-21.7,0
		C110.3,98.9,110.3,100.6,110.3,102.6z M169.6,56c0,2,0,3.8,0,5.8c5.4,0,10.6,0,15.8,0c0-2.2,0-3.9,0-5.8C180,56,174.9,56,169.6,56z
		 M227.3,56c0,2.3,0,4,0,6c5.4,0,10.4,0,15.5,0c0-2.2,0-4,0-6C237.5,56,232.6,56,227.3,56z"/>
</g>
</svg>
