<svg id="Layer_1" data-name="Layer 1" xmlns="http://www.w3.org/2000/svg" viewBox="0 0 2053.1 360.2"><defs><style>.cls-1{fill:#a5a5a4;}.cls-2{fill:#ee7e32;}</style></defs><title>mindroad</title><g id="Original"><path class="cls-1" d="M342.9,350.8a5.66,5.66,0,0,1-.8,2.8,5.33,5.33,0,0,1-2.7,2,32.36,32.36,0,0,1-4.8,1.3,49.06,49.06,0,0,1-7.5.5,48.28,48.28,0,0,1-7.1-.5,20.33,20.33,0,0,1-4.8-1.3,5.18,5.18,0,0,1-2.5-2,5.38,5.38,0,0,1-.8-2.8V55h-.5l-129,297.6a5.25,5.25,0,0,1-1.5,1.9,8.18,8.18,0,0,1-2.8,1.5,21.61,21.61,0,0,1-4.2,1,31.77,31.77,0,0,1-5.7.4,35.9,35.9,0,0,1-6.1-.4,26.1,26.1,0,0,1-4.2-1,8.65,8.65,0,0,1-2.7-1.5,3.84,3.84,0,0,1-1.3-1.9L31.2,55h-.3V350.8a5.66,5.66,0,0,1-.8,2.8,5.33,5.33,0,0,1-2.7,2,32.36,32.36,0,0,1-4.8,1.3,51,51,0,0,1-7.7.5,46.7,46.7,0,0,1-7.2-.5A20.78,20.78,0,0,1,3,355.6a4.48,4.48,0,0,1-2.4-2,6.39,6.39,0,0,1-.6-2.8V43.9c0-6.1,1.6-10.3,4.8-12.5A16,16,0,0,1,14.2,28H30.9a42.34,42.34,0,0,1,11.2,1.4,26.83,26.83,0,0,1,8.5,4.1A25.6,25.6,0,0,1,56.8,40a53.36,53.36,0,0,1,4.6,8.6L169.7,309.2H171L283.8,49.4a51.77,51.77,0,0,1,5.5-10.3,30.87,30.87,0,0,1,6.1-6.7,17.68,17.68,0,0,1,6.8-3.5,28.74,28.74,0,0,1,8-1h18.5a17.2,17.2,0,0,1,4.8.8,11.42,11.42,0,0,1,4.6,2.7,14.77,14.77,0,0,1,3.4,4.9,18.75,18.75,0,0,1,1.4,7.6V350.8Z"/><path class="cls-1" d="M467.9,44.1c0,8.1-1.4,13.6-4.3,16.5s-8.1,4.3-15.7,4.3c-7.4,0-12.6-1.4-15.3-4.2s-4.2-8.2-4.2-16.3,1.4-13.6,4.3-16.5,8.1-4.3,15.7-4.3c7.4,0,12.6,1.4,15.3,4.2S467.9,36,467.9,44.1Zm-4.5,306.7a5.66,5.66,0,0,1-.8,2.8,5.39,5.39,0,0,1-2.4,2,22,22,0,0,1-4.6,1.3,49.06,49.06,0,0,1-7.5.5,46.7,46.7,0,0,1-7.2-.5,20.78,20.78,0,0,1-4.7-1.3,4.48,4.48,0,0,1-2.4-2,6.39,6.39,0,0,1-.6-2.8V121.4a6.71,6.71,0,0,1,.6-2.8,5.21,5.21,0,0,1,2.4-2.2,15.7,15.7,0,0,1,4.7-1.3,49.25,49.25,0,0,1,7.2-.4,52.85,52.85,0,0,1,7.5.4,15,15,0,0,1,4.6,1.3,5.74,5.74,0,0,1,2.4,2.2,5.38,5.38,0,0,1,.8,2.8Z"/><path class="cls-1" d="M734,350.8a5.66,5.66,0,0,1-.8,2.8,5.39,5.39,0,0,1-2.4,2,22,22,0,0,1-4.6,1.3,47.68,47.68,0,0,1-7.2.5,51.06,51.06,0,0,1-7.5-.5,18.42,18.42,0,0,1-4.6-1.3,5.13,5.13,0,0,1-3.2-4.8V214.7c0-14.2-1.1-25.7-3.3-34.6a67.88,67.88,0,0,0-9.9-22.8,45.26,45.26,0,0,0-16.9-14.7c-6.8-3.5-14.8-5.2-24-5.2-11.7,0-23.3,4.1-35,12.4s-23.9,20.4-36.8,36.5V350.8a5.66,5.66,0,0,1-.8,2.8,5.39,5.39,0,0,1-2.4,2,22,22,0,0,1-4.6,1.3,49.06,49.06,0,0,1-7.5.5,46.7,46.7,0,0,1-7.2-.5,20.78,20.78,0,0,1-4.7-1.3,4.48,4.48,0,0,1-2.4-2,6.39,6.39,0,0,1-.6-2.8V121.4a6.71,6.71,0,0,1,.6-2.8,5.21,5.21,0,0,1,2.4-2.2,16.35,16.35,0,0,1,4.4-1.3,44.7,44.7,0,0,1,7-.4,46.94,46.94,0,0,1,7.1.4,12.18,12.18,0,0,1,4.3,1.3,5.8,5.8,0,0,1,2.2,2.2,6.39,6.39,0,0,1,.6,2.8v32.4Q596,131.75,615,121.9t37.8-9.9c15,0,27.7,2.5,38,7.6a68.22,68.22,0,0,1,25,20.5,82.67,82.67,0,0,1,13.7,30.2c2.8,11.5,4.2,25.3,4.2,41.6V350.8Z"/><path class="cls-1" d="M1002.8,350.8a6.68,6.68,0,0,1-.6,3,4.62,4.62,0,0,1-2.3,2,14.18,14.18,0,0,1-4.2,1.1,37.68,37.68,0,0,1-6.3.4,42.18,42.18,0,0,1-6.7-.4,17.75,17.75,0,0,1-4.3-1.1,6.34,6.34,0,0,1-2.5-2,5.07,5.07,0,0,1-.9-3V317.9q-18.3,19.8-37.8,31a83.8,83.8,0,0,1-42.6,11.3c-16.6,0-30.7-3.2-42.4-9.6a79.42,79.42,0,0,1-28.5-26.1c-7.4-11-12.7-23.9-16.1-38.7a209.64,209.64,0,0,1-5.1-47c0-19.4,2.1-37,6.3-52.6s10.5-28.9,18.8-39.9A83.42,83.42,0,0,1,858.3,121c12.2-5.9,26.3-8.9,42.4-8.9a78.6,78.6,0,0,1,38,9.3q17.25,9.3,34,27.2V10.4a6.71,6.71,0,0,1,.6-2.8,4.48,4.48,0,0,1,2.4-2,25.32,25.32,0,0,1,4.7-1.3,47.68,47.68,0,0,1,7.2-.5,51.06,51.06,0,0,1,7.5.5,18.42,18.42,0,0,1,4.6,1.3,5.39,5.39,0,0,1,2.4,2,5.38,5.38,0,0,1,.8,2.8V350.8ZM972.6,185.3q-19.05-23.1-36.6-35.2c-11.8-8.1-24.1-12.2-36.9-12.2-11.7,0-21.6,2.8-29.9,8.4a65.48,65.48,0,0,0-20.3,22.1,105.14,105.14,0,0,0-11.4,30.9,171.11,171.11,0,0,0-3.6,35,224.42,224.42,0,0,0,3,37,107.14,107.14,0,0,0,10.4,32.1A62.25,62.25,0,0,0,866.8,326c8.1,5.7,18.3,8.5,30.4,8.5A62.75,62.75,0,0,0,915,332a71.16,71.16,0,0,0,17.8-8.4,126,126,0,0,0,18.9-15.1,247.49,247.49,0,0,0,20.9-22.9V185.3Z"/><path class="cls-1" d="M1298.5,350.3a6.68,6.68,0,0,1-.6,3,5.21,5.21,0,0,1-2.4,2.2,16,16,0,0,1-4.9,1.4,57.67,57.67,0,0,1-8,.5,48.38,48.38,0,0,1-7.2-.4,15.72,15.72,0,0,1-4.9-1.5,9.6,9.6,0,0,1-3.3-3,25.08,25.08,0,0,1-2.3-4.9L1234.2,268c-3.6-9-7.4-17.4-11.4-25.3a87.68,87.68,0,0,0-14.7-20.7,64.08,64.08,0,0,0-20.8-13.8c-8.1-3.4-17.8-5.1-29.2-5.1h-34V350.9a5,5,0,0,1-3.3,4.8,25.32,25.32,0,0,1-4.7,1.3,49.06,49.06,0,0,1-7.5.5,51.65,51.65,0,0,1-7.4-.5,20.33,20.33,0,0,1-4.8-1.3,5.18,5.18,0,0,1-2.5-2,5.38,5.38,0,0,1-.8-2.8V43.9c0-6.1,1.6-10.3,4.8-12.5a16,16,0,0,1,9.4-3.4h61.6c8.1,0,14.8.2,20.2.6s10.2,1,14.6,1.6c12.5,2.2,23.4,5.7,32.7,10.6a76.51,76.51,0,0,1,23.1,18.1,72.79,72.79,0,0,1,13.6,24.3,92.28,92.28,0,0,1,4.4,29.3c0,10.8-1.5,20.5-4.6,29a72,72,0,0,1-12.9,22.6,86.59,86.59,0,0,1-20,16.9,133.65,133.65,0,0,1-25.6,11.9,66.2,66.2,0,0,1,15.1,9.4,72.74,72.74,0,0,1,12.4,13.4,127.29,127.29,0,0,1,10.8,18.1c3.4,6.8,6.8,14.5,10.1,22.9l30.7,76.5c2.2,5.9,3.6,10,4.2,12.2A27.76,27.76,0,0,1,1298.5,350.3ZM1244,115.8c0-14-3.1-25.9-9.4-35.6s-16.7-16.7-31.4-20.9a93.07,93.07,0,0,0-16-2.9c-5.8-.6-13.3-.9-22.6-.9H1124V175.9h47.2c12.7,0,23.6-1.6,32.7-4.7a64.73,64.73,0,0,0,22.7-12.8,48.76,48.76,0,0,0,13.2-19A65.08,65.08,0,0,0,1244,115.8Z"/><path class="cls-1" d="M1555.7,233.7a171.47,171.47,0,0,1-7.1,50.4,113.57,113.57,0,0,1-21.2,40,97.73,97.73,0,0,1-35.1,26.5c-14,6.3-30.3,9.5-48.9,9.5-17.9,0-33.6-2.8-47-8.5a90.17,90.17,0,0,1-33.7-24.3c-9-10.6-15.8-23.4-20.3-38.4s-6.7-32-6.7-50.9c0-18.2,2.3-35.1,7-50.4a111.89,111.89,0,0,1,21-39.9,95.87,95.87,0,0,1,35.1-26.2c14-6.2,30.4-9.4,49.2-9.4,17.9,0,33.6,2.8,47,8.4a87.45,87.45,0,0,1,33.6,24.2c9,10.6,15.7,23.4,20.3,38.4S1555.7,214.9,1555.7,233.7Zm-32,2.8a180.75,180.75,0,0,0-3.8-37.3,91.2,91.2,0,0,0-12.7-31.3,64.19,64.19,0,0,0-23.8-21.5c-10-5.3-22.4-8-37.3-8-13.7,0-25.5,2.5-35.5,7.3a65.83,65.83,0,0,0-24.5,20.4,91.76,91.76,0,0,0-14.1,30.8,155.22,155.22,0,0,0-4.6,38.3,182.25,182.25,0,0,0,3.8,37.6,90.39,90.39,0,0,0,12.7,31.3,62.86,62.86,0,0,0,23.8,21.3c10,5.2,22.4,7.9,37.3,7.9,13.7,0,25.5-2.4,35.5-7.4a66.53,66.53,0,0,0,24.5-20.3,89.46,89.46,0,0,0,14.1-30.7A150.28,150.28,0,0,0,1523.7,236.5Z"/><path class="cls-1" d="M1784.2,350.8a5,5,0,0,1-1.6,3.9,10.11,10.11,0,0,1-4.3,2,34.51,34.51,0,0,1-7.2.6,39.5,39.5,0,0,1-7.4-.6,10.77,10.77,0,0,1-4.7-2,4.72,4.72,0,0,1-1.6-3.9V325.2a115.57,115.57,0,0,1-34.1,25.9,86.58,86.58,0,0,1-38.7,9.1,104,104,0,0,1-32.3-4.7,67.49,67.49,0,0,1-24.2-13.4,57.79,57.79,0,0,1-15.2-21.2c-3.6-8.3-5.3-17.6-5.3-27.9,0-12.7,2.6-23.7,7.9-33.1a65.58,65.58,0,0,1,22.3-23.4c9.6-6.2,21.2-10.9,34.7-14.1a202.17,202.17,0,0,1,45.1-4.7h36.5V197.9a101.53,101.53,0,0,0-3-26,45,45,0,0,0-9.9-18.9,41.5,41.5,0,0,0-17.8-11.4c-7.3-2.5-16.1-3.8-26.6-3.8a93.16,93.16,0,0,0-27.4,3.7,146.29,146.29,0,0,0-21.3,8.2c-6.1,3-11.1,5.8-15.1,8.2s-6.8,3.7-8.5,3.7a8.68,8.68,0,0,1-2.8-.5,4.91,4.91,0,0,1-2.2-1.9,10.24,10.24,0,0,1-1.3-3.5,26.16,26.16,0,0,1-.4-5.2,38.21,38.21,0,0,1,.8-8.5,13.61,13.61,0,0,1,3.9-6.3c2.1-2.1,5.9-4.6,11.3-7.5a136.57,136.57,0,0,1,18.6-8,174.33,174.33,0,0,1,22.7-6,133.26,133.26,0,0,1,24.3-2.3c15.7,0,29,1.9,39.8,5.7s19.6,9.3,26.2,16.3a60.24,60.24,0,0,1,14.3,26.2c2.9,10.4,4.3,22.2,4.3,35.4V350.8ZM1754,242.6h-41.8a138.1,138.1,0,0,0-32,3.3q-13.65,3.3-22.8,9.6a40.88,40.88,0,0,0-13.6,15.2,44.25,44.25,0,0,0-4.4,20.3c0,13.2,4.2,23.7,12.6,31.6s20.2,11.8,35.4,11.8a64.48,64.48,0,0,0,33.6-9.3q15.6-9.3,33.1-28.5v-54Z"/><path class="cls-1" d="M2053,350.8a6.68,6.68,0,0,1-.6,3,4.62,4.62,0,0,1-2.3,2,14.18,14.18,0,0,1-4.2,1.1,37.68,37.68,0,0,1-6.3.4,42.18,42.18,0,0,1-6.7-.4,17.75,17.75,0,0,1-4.3-1.1,6.34,6.34,0,0,1-2.5-2,5.07,5.07,0,0,1-.9-3V317.9q-18.3,19.8-37.8,31a83.8,83.8,0,0,1-42.6,11.3c-16.6,0-30.7-3.2-42.4-9.6a79.42,79.42,0,0,1-28.5-26.1c-7.4-11-12.7-23.9-16.1-38.7a209.64,209.64,0,0,1-5.1-47c0-19.4,2.1-37,6.3-52.6s10.5-28.9,18.8-39.9a83.42,83.42,0,0,1,30.7-25.3c12.2-5.9,26.3-8.9,42.4-8.9a78.6,78.6,0,0,1,38,9.3q17.25,9.3,34,27.2V10.4a6.71,6.71,0,0,1,.6-2.8,4.48,4.48,0,0,1,2.4-2,25.32,25.32,0,0,1,4.7-1.3,47.68,47.68,0,0,1,7.2-.5,51.06,51.06,0,0,1,7.5.5,18.42,18.42,0,0,1,4.6,1.3,5.39,5.39,0,0,1,2.4,2,5.38,5.38,0,0,1,.8,2.8V350.8Zm-30.2-165.5q-19-23.1-36.6-35.2c-11.8-8.1-24.1-12.2-36.9-12.2-11.7,0-21.6,2.8-29.9,8.4a64.49,64.49,0,0,0-20.3,22.1,105.14,105.14,0,0,0-11.4,30.9,171.11,171.11,0,0,0-3.6,35,224.42,224.42,0,0,0,3,37,107.14,107.14,0,0,0,10.4,32.1A62.25,62.25,0,0,0,1917,326c8.1,5.7,18.3,8.5,30.4,8.5a62.75,62.75,0,0,0,17.8-2.5,71.16,71.16,0,0,0,17.8-8.4,126,126,0,0,0,18.9-15.1,247.49,247.49,0,0,0,20.9-22.9Z"/><path class="cls-2" d="M491.8,44.1A44.1,44.1,0,1,1,447.7,0,44.11,44.11,0,0,1,491.8,44.1ZM447.3,14.6c-16.6,0-30.1,13-30.1,29.1s13.5,29.1,30.1,29.1,30.1-13,30.1-29.1S464,14.6,447.3,14.6Z"/><ellipse class="cls-2" cx="447.2" cy="43.8" rx="24.5" ry="23.7"/></g></svg>