<svg id="Lager_1" data-name="Lager 1" xmlns="http://www.w3.org/2000/svg" xmlns:xlink="http://www.w3.org/1999/xlink" viewBox="0 0 128.13 50.96"><defs><style>.cls-1{fill:#002b49;}.cls-2{fill:#006b87;}.cls-3{fill:url(#Namnlös_övertoning_5);}.cls-4{fill:#e11b22;}.cls-5{fill:#f15a29;}.cls-6{fill:#33647e;}</style><radialGradient id="Namnlös_övertoning_5" cx="17.7" cy="28.42" r="17.57" gradientUnits="userSpaceOnUse"><stop offset="0" stop-color="#fff203"/><stop offset="0.12" stop-color="#feed06"/><stop offset="0.26" stop-color="#fcdd10"/><stop offset="0.43" stop-color="#f9c41f"/><stop offset="0.6" stop-color="#f5a135"/><stop offset="0.67" stop-color="#f3903f"/><stop offset="0.89" stop-color="#ed683c"/><stop offset="1" stop-color="#e93e3a"/></radialGradient></defs><polygon class="cls-1" points="17.65 40.77 0 30.58 17.65 50.96 17.65 40.77"/><polygon class="cls-2" points="17.66 40.77 35.31 30.58 17.65 50.96 17.66 40.77"/><polygon class="cls-3" points="0 30.58 17.65 20.39 35.31 30.58 17.65 40.77 0 30.58"/><polygon class="cls-4" points="17.65 0 0 20.39 17.65 30.58 17.65 0"/><polyline class="cls-5" points="17.65 30.58 17.65 0 35.31 20.39"/><path class="cls-5" d="M43.79,21.8H42.68V15.09h1.11Z"/><path class="cls-5" d="M53.67,16H50.59v5.8H49.47V16H46.4v-.91h7.27Z"/><path class="cls-5" d="M57.05,18.81H54.22v-.95h2.83Z"/><path class="cls-5" d="M66.81,20.48q0,1.32-1.86,1.32H60V15.09h5.4a1.62,1.62,0,0,1,1.08.3,1.26,1.26,0,0,1,.34,1v.78c0,.67-.37,1.06-1.12,1.14a1.19,1.19,0,0,1,1.16,1.32Zm-1.18-3.23v-.68a.53.53,0,0,0-.17-.47.87.87,0,0,0-.52-.11H61.06v1.85h3.88C65.4,17.84,65.63,17.65,65.63,17.25Zm.05,2.83v-.56a.92.92,0,0,0-.16-.62.74.74,0,0,0-.58-.18H61.06v2.15h3.88a.75.75,0,0,0,.58-.17A.91.91,0,0,0,65.68,20.08Z"/><path class="cls-5" d="M77.74,20.21a1.87,1.87,0,0,1-.32,1.26,1.76,1.76,0,0,1-1.24.33H71.54a1.77,1.77,0,0,1-1.24-.33A1.81,1.81,0,0,1,70,20.21V16.67a1.78,1.78,0,0,1,.33-1.25,1.77,1.77,0,0,1,1.24-.33h4.64a1.76,1.76,0,0,1,1.24.33,1.84,1.84,0,0,1,.32,1.25Zm-1.1.65V16H71.09v4.86Z"/><path class="cls-5" d="M87.31,21.8h-6.2V15.09h1.11v5.77h5.09Z"/><path class="cls-5" d="M98.05,21.8H96.81L96,20.15H91.42l-.86,1.65H89.45l3.67-6.71h1.2ZM95.5,19.29l-1.81-3.43-1.81,3.43Z"/><path class="cls-5" d="M108.06,20.21a1.81,1.81,0,0,1-.33,1.26,1.76,1.76,0,0,1-1.24.33h-4.34a1.76,1.76,0,0,1-1.24-.33,1.81,1.81,0,0,1-.34-1.26V16.67a1.78,1.78,0,0,1,.34-1.25,1.76,1.76,0,0,1,1.24-.33h4.34a1.72,1.72,0,0,1,1.27.35,2.13,2.13,0,0,1,.3,1.33l-1.12.22V16h-5.25v4.86h5.25v-2h-2.71V18h3.83Z"/><path class="cls-5" d="M117.84,21.8h-6.52V15.09h6.47V16h-5.35v1.87h3.27v.88h-3.27v2.13h5.4Z"/><path class="cls-5" d="M127.28,16H124.2v5.8h-1.12V16H120v-.91h7.27Z"/><path class="cls-6" d="M52.3,30.38a1.72,1.72,0,0,1-.48,1.38,2.21,2.21,0,0,1-1.49.42H44.4V35.8H42.85V26.51h7.48a2.27,2.27,0,0,1,1.49.41,1.76,1.76,0,0,1,.48,1.39ZM50.73,30V28.69a1,1,0,0,0-.22-.77,1.17,1.17,0,0,0-.79-.2H44.4V31h5.32a1.17,1.17,0,0,0,.79-.21A1,1,0,0,0,50.73,30Z"/><path class="cls-6" d="M64.85,35.8h-9V26.51h9v1.24h-7.4v2.59H61.9v1.23H57.38v3h7.47Z"/><path class="cls-6" d="M78.7,35.8H76.39l-3.78-3.62H69.88V35.8H68.33V26.51h7.49a2.25,2.25,0,0,1,1.48.41,1.76,1.76,0,0,1,.48,1.39v2.07a1.53,1.53,0,0,1-1.08,1.69,12.38,12.38,0,0,1-2.25.11ZM76.21,30V28.67a1,1,0,0,0-.22-.75,1.16,1.16,0,0,0-.79-.2H69.88V31H75.2a1.16,1.16,0,0,0,.79-.2A1,1,0,0,0,76.21,30Z"/><path class="cls-6" d="M89.61,35.8H88.22l-1.38-1.13-.75.72a1.22,1.22,0,0,1-.55.34,1.9,1.9,0,0,1-.63.07h-2.2q-1.08,0-1.38-.51a3.71,3.71,0,0,1-.19-1.52,1.4,1.4,0,0,1,.18-.76,2.43,2.43,0,0,1,.6-.49l1.29-.82a1.43,1.43,0,0,1-.47-.62,2.61,2.61,0,0,1-.08-.77,1.09,1.09,0,0,1,.44-1,2.14,2.14,0,0,1,1.13-.22h1.26c.68,0,1.11.12,1.3.36a2.26,2.26,0,0,1,.26,1.34l-.88.17V29.91H83.61v1l3.25,2.67,1.56-1.47.57.55-1.51,1.42Zm-3.4-1.67L83.8,32.21l-1.71,1.22v1.51h3.25Z"/><path class="cls-6" d="M101.73,30.38a1.75,1.75,0,0,1-.47,1.38,2.23,2.23,0,0,1-1.49.42H93.83V35.8H92.28V26.51h7.49a2.28,2.28,0,0,1,1.49.41,1.79,1.79,0,0,1,.47,1.39Zm-1.56-.4V28.69a1,1,0,0,0-.23-.77,1.14,1.14,0,0,0-.78-.2H93.83V31h5.33a1.14,1.14,0,0,0,.78-.21A1,1,0,0,0,100.17,30Z"/><path class="cls-6" d="M114.29,35.8h-9V26.51h8.94v1.24h-7.4v2.59h4.52v1.23h-4.52v3h7.48Z"/><path class="cls-6" d="M128.13,35.8h-2.3l-3.78-3.62h-2.74V35.8h-1.55V26.51h7.49a2.28,2.28,0,0,1,1.49.41,1.79,1.79,0,0,1,.47,1.39v2.07a1.53,1.53,0,0,1-1.08,1.69,12.21,12.21,0,0,1-2.25.11ZM125.65,30V28.67a1,1,0,0,0-.23-.75,1.14,1.14,0,0,0-.78-.2h-5.33V31h5.33a1.14,1.14,0,0,0,.78-.2A1,1,0,0,0,125.65,30Z"/></svg>