<svg id="Layer_1" data-name="Layer 1" xmlns="http://www.w3.org/2000/svg" viewBox="0 0 431.59 126.75"><defs><style>.cls-1{fill:#009748;}.cls-2{fill:#54565b;}.cls-3{fill:#565656;}</style></defs><title>qlik</title><path class="cls-1" d="M299.33,61.44c0-31.5,22.86-57.28,53.46-61,32.75-4,63.24,19.5,67.5,52a60,60,0,0,1-7.73,39c-.91,1.55-.67,2.22.61,3.27,4.9,4,9.71,8.07,14.54,12.15,2.61,2.21,2.72,3.82.5,6.48-3.12,3.74-6.24,7.49-9.39,11.21-2.37,2.8-3.76,2.92-6.64.52-5.23-4.34-10.45-8.68-15.61-13.11a2.22,2.22,0,0,0-3.22-.25A60.77,60.77,0,0,1,300,71,43.07,43.07,0,0,1,299.33,61.44Zm23.52-.67a37.24,37.24,0,1,0,37.21-37.12A37.29,37.29,0,0,0,322.85,60.77Z"/><path class="cls-2" d="M53.17,8.36c20.2.75,36.06,9.36,46,27.12s9.3,35.75-.82,53.36c-1,1.68-1.12,2.53.56,3.85,3.57,2.82,6.92,5.92,10.33,8.94,2.07,1.82,2.16,3.22.36,5.32q-4.36,5.1-8.81,10.13c-1.81,2-3.22,2.15-5.33.35q-6-5.13-11.94-10.37c-1-.9-1.71-1.16-3-.37C48.54,125.53,8.8,108.09,1.12,71.9c-6.28-29.56,14.65-59.09,44.6-63C48.19,8.59,50.65,8.47,53.17,8.36Zm0,22.64A30.47,30.47,0,0,0,22.53,61.25a30.48,30.48,0,1,0,61,.31A30.22,30.22,0,0,0,53.22,31Z"/><path class="cls-2" d="M201.22,61.31q0-23.52,0-47a17.72,17.72,0,0,1,.23-3.09,2.92,2.92,0,0,1,3.15-2.67c5.28,0,10.56,0,15.84,0,2.52,0,3.59,1.39,3.59,4.31q0,22.44,0,44.87c0,1.11-.61,2.72.79,3.2,1.17.41,1.82-1.05,2.56-1.84,6.1-6.43,12.23-12.85,18.26-19.35a11.15,11.15,0,0,1,8.92-3.81c5.83.12,11.67,0,17.51,0,1.17,0,2.63-.32,3.17,1,.46,1.13-.79,1.79-1.48,2.51q-10,10.37-20,20.69c-3,3.09-3.21,4.48-1,8.18l24.77,41c.12.21.25.41.36.62.56,1.1,1.74,2.15.93,3.48s-2.28.87-3.52.9c-1.75,0-3.51,0-5.27,0H258.33a7.5,7.5,0,0,1-7-4.07c-5.39-9.24-10.93-18.4-16.37-27.62-.81-1.37-1.19-2.06-2.81-.55-9.43,8.86-8,6.77-8.13,18.71,0,3,0,5.92,0,8.88,0,3.5-1.13,4.61-4.59,4.64-4.08,0-8.16,0-12.24,0-5.08,0-5.91-.81-5.91-5.81Z"/><path class="cls-2" d="M145.73,61.24v48c0,4.09-1,5.15-5,5.17-4.47,0-9,0-13.43,0-3.64,0-4.74-1.12-4.74-4.72q0-48.21,0-96.42c0-3.72,1-4.71,4.65-4.72h13.91c3.63,0,4.66,1,4.66,4.74Q145.75,37.26,145.73,61.24Z"/><path class="cls-2" d="M162.34,75.17V40.87c0-4,.93-5,4.89-5,4.56,0,9.12,0,13.67,0,3.13,0,4.33,1.2,4.34,4.37q0,34.77,0,69.55c0,3.37-1.15,4.54-4.41,4.57q-7,.06-13.91,0c-3.44,0-4.57-1.2-4.57-4.66Q162.32,92.43,162.34,75.17Z"/><path class="cls-2" d="M173.52,8.44c2.48,0,4.95,0,7.42,0s3.63,1.1,3.71,3.45c.12,3.43.07,6.86,0,10.29,0,2.38-1.57,3.45-3.73,3.49-5,.08-10.06.07-15.08,0a3.16,3.16,0,0,1-3.42-3.27q-.18-5.39,0-10.77c.06-2.09,1.41-3.14,3.46-3.18,2.55-.05,5.11,0,7.66,0Z"/><path class="cls-2" d="M384,61a23.77,23.77,0,0,1-24.18,23.84A24,24,0,1,1,384,61Z"/><path class="cls-3" d="M424.81,24.94a6.79,6.79,0,1,1,6.78-6.81A6.78,6.78,0,0,1,424.81,24.94Zm-5.42-6.78a5.41,5.41,0,1,0,5.4-5.41A5.39,5.39,0,0,0,419.39,18.16Z"/><path class="cls-3" d="M421.84,21.53V14.44h1.53a11.37,11.37,0,0,1,2.33.1c1.05.21,1.51.66,1.61,1.6a1.75,1.75,0,0,1-1.17,2s0,0-.07.08a4.39,4.39,0,0,1,1.18,1.45c.32.63.65,1.18,1,1.85h-1.84c-.15,0-.17-.13-.22-.23-.25-.5-.49-1-.75-1.51-.42-.84-.76-1-1.76-.92v2.64Zm1.82-3.93a4.65,4.65,0,0,0,1.3-.07c.37-.11.53-.36.53-.82s-.13-.73-.5-.85a4.52,4.52,0,0,0-1.33-.07Z"/></svg>