<?xml version="1.0" encoding="utf-8"?>
<!-- Generator: Adobe Illustrator 21.1.0, SVG Export Plug-In . SVG Version: 6.00 Build 0)  -->
<svg version="1.1" id="Lager_1" xmlns="http://www.w3.org/2000/svg" xmlns:xlink="http://www.w3.org/1999/xlink" x="0px" y="0px"
	 viewBox="0 0 284.3 107" style="enable-background:new 0 0 284.3 107;" xml:space="preserve">
<g>
	<path d="M105,107c-4.5-1.2-9.2-2.3-13.6-3.8c-2.9-1-5.5-2.8-8.5-4.3c3.1-4.4,5.9-8.4,8.8-12.6c5.1,3.8,10.5,6.3,16.8,6.5
		c11.4,0.3,17.1-5.8,16-16.5c-4.3,1.7-8.7,4.4-13.4,5c-15,2-25.9-7.2-28.3-23.2c-2.3-15.4,7-29.3,21.2-31.7c7.8-1.3,14.7,1.1,21,7.7
		c0.2-2.3,0.3-4.1,0.4-6.3c5.2,0,10.5,0,16.1,0c0.1,0.8,0.3,1.6,0.3,2.4c0,15.9,0.2,31.7-0.2,47.6c-0.2,5.1-1.6,10.4-3.7,15.1
		c-3.5,7.7-10.4,11.5-18.5,13.2c-1.1,0.2-2.1,0.6-3.2,0.9C112.5,107,108.8,107,105,107z M125.2,54.2c0.1-7.7-5.6-13.7-12.8-13.8
		c-7.4-0.1-12.6,5.3-12.7,13.2c-0.1,8.2,4.9,14.1,12.1,14.3C119.2,68,125.2,61.9,125.2,54.2z"/>
	<path d="M0,74c3.3-3.1,6.6-6.2,9.5-8.9c3.5,1.7,6.6,3.5,9.9,4.7c1.9,0.6,4.3,0.6,6.2-0.1c1.5-0.5,3.4-2.4,3.4-3.6
		c0-1.5-1.6-3.7-3-4.3c-4.2-1.8-8.8-2.7-13.1-4.3c-5.4-2-8.9-6-9.6-11.9c-0.7-6,1.3-11.1,6.2-14.8c0.7-0.5,1.4-1,2.2-1.4
		c10-5.9,26.2-4,34.8,4c-3.3,3-6.7,5.9-10.2,9.1c-2.8-2.1-6.7-4.5-11.7-3.7c-2.2,0.4-4.6,0.7-5,3.6c-0.4,3,1.8,3.8,4,4.5
		c3.8,1.2,7.7,2,11.5,3.4c7.4,2.7,11.2,7.9,11.2,14.7c0,7.4-3.9,13.4-11.4,15.9c-12.6,4.3-24.3,2.3-34.8-6C0,74.5,0,74.3,0,74z"/>
	<path d="M284.3,40.3c-4.1,0.2-8.1,0.5-12.5,0.7c0,7.6-0.3,15,0.1,22.5c0.2,4,2.4,5.4,6.7,5.3c1.5,0,3-0.3,4.9-0.5
		c0,3.6,0.1,7.2-0.1,10.8c-0.1,0.9-1.3,2.3-2.1,2.3c-4.4,0.4-9,1.1-13.4,0.5c-8-1.1-12.2-5.7-13-13.7c-0.6-6.1-0.4-12.2-0.6-18.3
		c-0.1-2.8,0-5.7,0-8.9c-2.9-0.1-5.4-0.3-8.3-0.4c0-4.2,0-8.3,0-12.7c2.5,0,5,0,8,0c0-4.9,0-9.5,0-14.2c5.9,0,11.4,0,17.1,0
		c0,4.5,0,9,0,13.9c4.5,0,8.7,0,12.9,0C284.3,31.8,284.3,36,284.3,40.3z"/>
	<path d="M151.2,0c5.7,0,11.2,0,17.3,0c0,10.8,0,21.6,0,33.3c6.1-5.8,12.6-8.1,20.1-6.9c11.4,1.7,20,11.3,21.4,23.4
		c0.7,6.7,0,13.2-3.2,19.3c-8.6,16.7-29.8,17.4-39.4,5.5c-0.2,2.3-0.3,4-0.5,6.2c-5.1,0-10.2,0-15.7,0C151.2,54,151.2,27.2,151.2,0z
		 M180.6,68.2c7.3,0.1,12.7-5.7,12.8-13.7c0.1-7.8-5.4-14-12.6-14c-7.2-0.1-12.9,5.9-13,13.7C167.7,62.1,173.1,68.1,180.6,68.2z"/>
	<path d="M73.2,80.9c-5.7,0-11.1,0-16.9,0c0-17.7,0-35.2,0-53c5.5,0,11,0,16.9,0C73.2,45.3,73.2,63,73.2,80.9z"/>
	<path d="M225.2,20c-5.5,0-9.9-4.1-10-9.4c-0.1-5.4,4.4-9.9,10-9.9c5.3,0,9.9,4.3,10.1,9.5C235.4,15.6,230.9,20,225.2,20z"/>
</g>
</svg>
