<svg id="Lager_1" data-name="Lager 1" xmlns="http://www.w3.org/2000/svg" viewBox="0 0 129.01 37.2">
  <defs>
    <style>
      .cls-1 {
        fill: #133250;
      }
    </style>
  </defs>
  <title>logo</title>
  <g>
    <g>
      <path class="cls-1" d="M46.8,16V14.6c0-5.1,2.9-8.7,9.5-8.7s9.5,3.6,9.5,8.7v0.5a1.61,1.61,0,0,1-1.7,1.8H62.6a1.61,1.61,0,0,1-1.8-1.7V14.7c0-2.6-1.1-4.4-4.5-4.4s-4.5,1.8-4.5,4.4v0.9c0,2.5,1.2,3.9,3.5,5.4l5.8,3.7c3,2,4.9,4.5,4.9,8.2v1.6c0,5-3.2,8.6-9.7,8.6s-9.6-3.7-9.6-8.7V33.6a1.61,1.61,0,0,1,1.7-1.8h1.5a1.53,1.53,0,0,1,1.7,1.7v0.8c0,2.7,1.3,4.4,4.7,4.4s4.8-1.7,4.8-4.4V33.6c-0.1-2.6-1-3.8-3.3-5.3L52,24.6C49,22.6,46.8,19.8,46.8,16Z" transform="translate(-6.39 -5.9)"/>
      <g>
        <path class="cls-1" d="M83.3,8.5L76.3,24l7.5,16.6c0.5,1.2,0,2-1.3,2H80.6a2,2,0,0,1-2-1.3l-7-16a3,3,0,0,1,0-2.3L78.3,7.8a1.91,1.91,0,0,1,2-1.3H82C83.3,6.5,83.9,7.3,83.3,8.5Z" transform="translate(-6.39 -5.9)"/>
        <path class="cls-1" d="M88.8,40.9V8.2a1.56,1.56,0,0,1,1.8-1.7h1.5a1.53,1.53,0,0,1,1.7,1.7V40.9a1.61,1.61,0,0,1-1.7,1.8H90.6A1.68,1.68,0,0,1,88.8,40.9Z" transform="translate(-6.39 -5.9)"/>
        <path class="cls-1" d="M114.5,42.6H102.7a1.63,1.63,0,0,1-1.8-1.8V8.2a1.56,1.56,0,0,1,1.8-1.7h1.5a1.53,1.53,0,0,1,1.7,1.7V38.3h8.6a1.56,1.56,0,0,1,1.7,1.8v0.8A1.49,1.49,0,0,1,114.5,42.6Z" transform="translate(-6.39 -5.9)"/>
        <path class="cls-1" d="M133.7,42.6H121.9a1.63,1.63,0,0,1-1.8-1.8V8.2a1.56,1.56,0,0,1,1.8-1.7h1.5a1.53,1.53,0,0,1,1.7,1.7V38.3h8.6a1.56,1.56,0,0,1,1.7,1.8v0.8A1.53,1.53,0,0,1,133.7,42.6Z" transform="translate(-6.39 -5.9)"/>
      </g>
    </g>
    <g>
      <g>
        <g>
          <circle class="cls-1" cx="16.11" cy="3.8" r="3.2"/>
          <circle class="cls-1" cx="16.11" cy="33.6" r="3.2"/>
        </g>
        <g>
          <circle class="cls-1" cx="35.51" cy="17.09" r="3.2" transform="translate(-10.18 14.14) rotate(-30)"/>
          <circle class="cls-1" cx="9.6" cy="31.99" r="3.2" transform="translate(-21.1 3.18) rotate(-30)"/>
        </g>
        <g>
          <circle class="cls-1" cx="9.59" cy="17.09" r="3.2" transform="translate(-16.39 10.95) rotate(-60)"/>
          <circle class="cls-1" cx="35.43" cy="32.02" r="3.2" transform="translate(-16.41 40.79) rotate(-60)"/>
        </g>
      </g>
      <path class="cls-1" d="M30.4,24.6a2.28,2.28,0,0,1,1-1.9h0l1.1-.9a0.84,0.84,0,0,0,.3-1.2l-1.6-2.8a0.84,0.84,0,0,0-1.2-.3l-1.4.5h0a2.24,2.24,0,0,1-2.1-.1,2.11,2.11,0,0,1-1.1-1.8h0L25,14.6a0.9,0.9,0,0,0-.9-0.9H20.9a0.9,0.9,0,0,0-.9.9L19.8,16h0a2.65,2.65,0,0,1-1.1,1.8,2.24,2.24,0,0,1-2.1.1h0l-1.4-.5a0.93,0.93,0,0,0-1.2.3l-1.6,2.8a0.93,0.93,0,0,0,.3,1.2l1.1,0.9h0a2.3,2.3,0,0,1,0,3.8h0l-1.1.9a0.84,0.84,0,0,0-.3,1.2L14,31.3a0.84,0.84,0,0,0,1.2.3l1.4-.5h0a2.24,2.24,0,0,1,2.1.1A2.11,2.11,0,0,1,19.8,33h0l0.3,1.4a0.9,0.9,0,0,0,.9.9h3.2a0.9,0.9,0,0,0,.9-0.9L25.4,33h0a2.65,2.65,0,0,1,1.1-1.8,2.24,2.24,0,0,1,2.1-.1h0L30,31.6a0.93,0.93,0,0,0,1.2-.3l1.6-2.8a0.93,0.93,0,0,0-.3-1.2l-1.1-.9h0A2.1,2.1,0,0,1,30.4,24.6Zm-7.9,5.5A5.5,5.5,0,1,1,28,24.6,5.42,5.42,0,0,1,22.5,30.1Z" transform="translate(-6.39 -5.9)"/>
    </g>
  </g>
</svg>
