<?xml version="1.0" encoding="utf-8"?>
<!-- Generator: Adobe Illustrator 21.1.0, SVG Export Plug-In . SVG Version: 6.00 Build 0)  -->
<svg version="1.1" id="Lager_1" xmlns="http://www.w3.org/2000/svg" xmlns:xlink="http://www.w3.org/1999/xlink" x="0px" y="0px"
	 viewBox="0 0 449.7 88.1" style="enable-background:new 0 0 449.7 88.1;" xml:space="preserve">
<style type="text/css">
	.st0{fill:#0C0B0B;}
	.st1{fill:#0D0D0C;}
	.st2{fill:#0C0C0C;}
	.st3{fill:#0D0C0C;}
	.st4{fill:#0E0E0D;}
	.st5{fill:#161616;}
</style>
<g>
	<path class="st0" d="M339.4,81.6c-6.1,3.8-12.3,5.6-19,4.9c-10.3-1-16.5-8.3-16.9-20.1c-0.3-8.7-0.2-17.5,0-26.2
		c0.1-2.8-0.4-3.9-3.6-3.8c-7.9,0.3-15.9,0.2-23.9,0c-2.7-0.1-3.5,0.8-3.4,3.4c0.2,9.2,0,18.5,0.1,27.7c0.1,7.9,3.5,11.1,11.5,11.2
		c0.8,0,1.6,0,2.4-0.1c2.5-0.1,5.7-0.7,5.7,3c0,3.4-3.2,3.4-5.7,3.5c-13.7,0.6-20.3-5.8-20.4-19.6c0-8.6-0.1-17.2,0.1-25.8
		c0.1-2.7-0.8-3.5-3.4-3.4c-8.7,0.2-17.5,0.2-26.2,0c-3.1-0.1-4,0.7-4,3.9c0.2,13.7,0.1,27.4,0.1,41c0,2.2,0.4,4.9-2.9,5
		c-3.6,0.2-3.3-2.7-3.3-5.1c0-13.4-0.2-26.7,0.1-40.1c0.1-4.1-1.2-5.2-5-4.8c-3.6,0.3-7.3,0.1-11,0.1c-2.1,0-3.9-0.8-3.8-3.2
		c0-2.5,1.8-3.1,3.9-3.2c4.3,0,8.6-0.1,12.9,0c2.3,0.1,3.1-0.7,3-3c-0.1-3-0.1-6.1,0.1-9.1c0.7-8.5,6-13.9,14.5-15
		c5-0.7,9.8-0.1,14.7,1c1.6,0.4,4.1-0.1,3.4,2.7c-0.5,2-1.7,3.8-4.4,3.4c-3.3-0.5-6.5-1.3-9.9-1.3c-9.5,0.1-13,3.4-13.1,12.8
		c-0.1,8.4-0.1,8.4,8.4,8.4c7.3,0,14.6-0.1,22,0.1c2.5,0.1,3.3-0.7,3.2-3.2c-0.2-4-0.1-8,0-11.9c0-2.2,0.6-4.3,3.4-4.1
		c2.4,0.2,2.9,2,2.9,4.1c0,3.8,0.2,7.6-0.1,11.5c-0.2,2.9,0.6,3.8,3.6,3.7c9.2-0.2,18.5,0.1,27.7-0.2c4.7-0.1,6.1,1.7,6,6.2
		c-0.2,9.7-0.1,19.4-0.1,29.1c0,8.2,3,13.2,8.6,14.9c6.6,2,17.3-1.4,20.8-6.5c1.1-1.6,1-3.3,1-5c0-11.8,0-23.5,0-35.3
		c0-2.3-0.7-5.3,2.9-5.4c3.5-0.1,3.8,2.6,3.8,5.4c0,15.9,0,31.8,0,47.7c0,2.4,0.3,5.2-3.1,5.5C340.1,86.8,339.9,84.2,339.4,81.6z"/>
	<path class="st1" d="M360.7,35.7c5.2-4.8,10.9-7,17.5-6.5c10.2,0.7,16.9,6,19.6,15.8c2.7,9.6,2.5,19.2-0.8,28.6
		C393.4,84,385.3,89,374.1,88c-11.2-1-17-6.4-19.3-17.6c-0.9-4.6-0.9-9.2-0.8-13.8c0.2-17.2,0.6-34.3,0.9-51.5c0-2.2-0.4-5,2.8-5.1
		c3.5-0.1,3,3,3,5.3C360.7,15.2,360.7,25.2,360.7,35.7z M360.1,59.2c0.2,2.5,0.3,5.4,0.6,8.2c0.8,8.6,4.5,13,11.7,13.9
		c9.8,1.3,16.1-2,18.9-10.4c2.9-8.6,2.6-17.3-0.2-25.8c-2.2-6.7-7-9.9-14-10.1c-7.3-0.2-12,3-14.8,9.7
		C360.4,49.3,360.5,54.1,360.1,59.2z"/>
	<path class="st2" d="M128.3,87.2c-9.1-0.3-16.6-1.8-24-4.6c-2.1-0.8-3.2-2-2.6-4.3c0.7-2.7,2.8-2.3,4.6-1.7
		c6.4,2,12.7,3.9,19.5,4.1c5.1,0.1,10.2-0.3,14.8-2.7c8.5-4.4,11-13.1,6.2-21.3c-4-6.8-10.2-10.7-17.3-13.5
		c-5.9-2.3-11.9-4.6-16.7-8.9c-5.5-5-8.8-11.1-6.9-18.7c1.8-7.3,7-11.4,14-13.5c10-3,19.5-0.9,28.9,2.4c2.1,0.8,3.2,2.2,2.3,4.4
		c-0.8,2-2.6,2.2-4.4,1.5c-5.4-2.1-10.8-3.6-16.7-3.5c-9.6,0.1-16.4,3.9-18.1,10.3c-1.5,5.7,3.1,12.7,11.3,17
		c2.5,1.3,5.2,2.3,7.9,3.3c6.3,2.4,12,5.8,16.8,10.6c6.1,6.3,9.5,13.6,7,22.5c-2.6,8.9-9.5,13.2-17.9,15.4
		C133.8,86.8,130.5,87.4,128.3,87.2z"/>
	<path class="st3" d="M429.7,60.4c-5.2,0-10.5,0-15.7,0c-1.3,0-3-0.5-2.7,2c1.9,12.8,10.4,20.8,22.5,17.1c3.9-1.2,6.5-3.8,8.6-7.1
		c1.1-1.8,2.4-3.3,4.6-2c2.5,1.5,1.5,3.4,0.3,5.3c-4.7,7.2-11.2,11.1-19.9,10.9c-8.8-0.2-15.1-4.6-19-12.2
		c-5.7-11.3-5.8-23-0.9-34.5c3.5-8.3,10.3-12.1,19.3-12.1c9.2,0,15.9,3.8,19.8,12.2c2.4,5.1,3.1,10.6,3.2,16.2
		c0,3.1-1.3,4.3-4.3,4.2C440.2,60.4,434.9,60.4,429.7,60.4z M426.6,54c4.6,0,9.2,0.1,13.8,0c1,0,2.5,0.7,2.9-1.4
		c1-6.1-4.5-15.7-10.4-17.9c-11.6-4.3-23.5,5.2-22.3,17.6c0.2,2.2,1.6,1.6,2.7,1.6C417.7,54,422.1,54,426.6,54z"/>
	<path class="st1" d="M208.9,55.6c0.1,6.4-0.8,12-3,17.4c-3,7.5-8.5,12.2-16.7,13.1c-8.3,0.9-15.3-1.9-20.3-8.9
		c-7.4-10.4-7.9-30.2-0.8-40.8c5.4-8.1,13.3-10.2,22.5-8.6c9.9,1.7,14.8,8.4,17.1,17.6C208.5,48.9,209.1,52.5,208.9,55.6z
		 M202.3,57.1c0.1-5.3-0.4-10.5-2.8-15.3c-2.7-5.6-7.3-8.1-13.4-8.1c-6.1,0-11.1,2.2-13.5,7.9c-4.3,9.9-4.5,20.1,0,30
		c2.8,6.1,8.1,9,14.7,8.7c6.5-0.3,10.8-4.1,13.1-10.1C202,65.9,202.4,61.5,202.3,57.1z"/>
	<path class="st4" d="M42.2,79.3c-17-0.6-29.6-10.8-38.7-26.1c-1.1-1.9-2-3.9-3-6c-0.8-1.8-0.7-3.5,1.2-4.4c1.9-0.9,3.5-0.2,4.5,1.5
		c2,3.2,3.6,6.7,5.8,9.8c8.3,11.8,19.1,19.5,34.3,18.8c11.4-0.5,20.1-6.4,27.4-14.6c3.5-3.9,6.4-8.3,8.7-13.1c0.9-2,2.5-2.6,4.2-1.7
		c1.5,0.8,1.8,2.2,1.2,4.1C82.6,64.1,61.5,79.4,42.2,79.3z"/>
	<path class="st5" d="M49.7,43.2C49.5,46,48.1,48,45,48c-3.2,0.1-5.1-1.9-5.1-5c0.1-2.8,1.9-4.7,4.9-4.7
		C47.9,38.4,49.4,40.2,49.7,43.2z"/>
</g>
</svg>
