<svg xmlns="http://www.w3.org/2000/svg" viewBox="0 0 393.66 59.77"><defs><style>.cls-1{fill-rule:evenodd;}</style></defs><title>Logo Text Lato</title><g id="Logo"><path class="cls-1" d="M41.87.32.79,28.38a1.83,1.83,0,0,0,0,3L41.87,59.45a1.82,1.82,0,0,0,2.85-1.51V51a1.83,1.83,0,0,0-.79-1.5L17.46,31.39a1.83,1.83,0,0,1,0-3L43.93,10.26a1.83,1.83,0,0,0,.79-1.5V1.83A1.82,1.82,0,0,0,41.87.32Z" transform="translate(0 0)"/><path class="cls-1" d="M50.92,49.51a1.81,1.81,0,0,0-.79,1.5v6.93A1.82,1.82,0,0,0,53,59.45l10.11-6.91-2-10ZM94.05,28.38,53,.32a1.82,1.82,0,0,0-2.85,1.51V8.76a1.81,1.81,0,0,0,.79,1.5L77.38,28.38a1.82,1.82,0,0,1,0,3L73.1,34.32l8.62,5.49,12.33-8.42A1.82,1.82,0,0,0,94.05,28.38Z" transform="translate(0 0)"/><polygon class="cls-1" points="63.91 33.65 67.17 49.79 70.94 43.91 77.78 42.51 63.91 33.65"/></g><g id="Text"><g id="Lato"><path d="M117.94,20.74h4.5a1.86,1.86,0,0,1,1.16.35,1.83,1.83,0,0,1,.61.84l6.23,21c.17.77.33,1.52.48,2.24s.28,1.44.39,2.16c.17-.72.36-1.45.58-2.16s.44-1.47.67-2.24l6.88-21.08A1.67,1.67,0,0,1,140,21a1.55,1.55,0,0,1,1-.32h2.48a1.64,1.64,0,0,1,1.64,1.12l6.71,21.08q.36,1.13.63,2.22c.18.73.36,1.45.53,2.15.11-.7.25-1.44.42-2.21s.35-1.49.54-2.16l6.37-21a1.61,1.61,0,0,1,.61-.85,1.68,1.68,0,0,1,1.06-.34h4.3L155.76,53.29h-4.53c-.56,0-.94-.36-1.15-1.09l-7.2-22.08a13.22,13.22,0,0,1-.42-1.49c-.11-.5-.22-1-.32-1.49-.11.49-.22,1-.32,1.51a13.55,13.55,0,0,1-.42,1.51l-7.3,22a1.33,1.33,0,0,1-1.31,1.09h-4.31Z" transform="translate(0 0)"/><path d="M184.3,20.23a14.41,14.41,0,0,1,5.4,1A12.06,12.06,0,0,1,194,24a12.92,12.92,0,0,1,2.81,4.57,17.49,17.49,0,0,1,1,6.18,3.76,3.76,0,0,1-.29,1.8,1.22,1.22,0,0,1-1.1.45H174.76a18,18,0,0,0,.83,5.37,11.1,11.1,0,0,0,2.12,3.81,8.4,8.4,0,0,0,3.22,2.28,11.06,11.06,0,0,0,4.17.75,12.26,12.26,0,0,0,3.71-.49,17.07,17.07,0,0,0,2.69-1.08,20.45,20.45,0,0,0,1.88-1.08,2.49,2.49,0,0,1,1.3-.49,1.26,1.26,0,0,1,1.09.54l1.61,2.09A10.72,10.72,0,0,1,194.84,51a15.06,15.06,0,0,1-3.17,1.56,19.37,19.37,0,0,1-3.48.92,21.68,21.68,0,0,1-3.57.3,16.59,16.59,0,0,1-6.22-1.14,13.61,13.61,0,0,1-4.91-3.34,15.18,15.18,0,0,1-3.23-5.45,21.87,21.87,0,0,1-1.16-7.45,19.11,19.11,0,0,1,1-6.36,15.08,15.08,0,0,1,3-5.13,13.85,13.85,0,0,1,4.79-3.41A15.75,15.75,0,0,1,184.3,20.23Zm.13,4.21a8.78,8.78,0,0,0-6.53,2.39,11.28,11.28,0,0,0-3,6.64h17.7a11.7,11.7,0,0,0-.54-3.65A8.18,8.18,0,0,0,190.5,27a7.19,7.19,0,0,0-2.59-1.87A8.85,8.85,0,0,0,184.43,24.44Z" transform="translate(0 0)"/><path d="M211,6V33.82h1.47a2.66,2.66,0,0,0,1.06-.18,3,3,0,0,0,.94-.72l10.28-11a5.55,5.55,0,0,1,1-.84,2.35,2.35,0,0,1,1.29-.32h5.21l-12,12.76c-.3.36-.6.68-.88,1a5.14,5.14,0,0,1-1,.74,5.9,5.9,0,0,1,1,.89,8.16,8.16,0,0,1,.88,1.14l12.73,16.06h-5.14A2.52,2.52,0,0,1,226.7,53a3.22,3.22,0,0,1-.95-.85l-10.7-13.34a2.48,2.48,0,0,0-1-.88,3.79,3.79,0,0,0-1.45-.21H211V53.29h-5.76V6Z" transform="translate(0 0)"/><path d="M238.77,53.29V20.74h3.4a1.47,1.47,0,0,1,1.55,1.19l.45,3.53a18.36,18.36,0,0,1,4.74-3.79A12.33,12.33,0,0,1,255,20.23a11.74,11.74,0,0,1,4.71.88,9.16,9.16,0,0,1,3.41,2.51,11,11,0,0,1,2.07,3.9,17,17,0,0,1,.71,5.05V53.29h-5.72V32.57a8.73,8.73,0,0,0-1.69-5.74,6.3,6.3,0,0,0-5.16-2A9.67,9.67,0,0,0,248.55,26a15.85,15.85,0,0,0-4.06,3.31v24Z" transform="translate(0 0)"/><path d="M287.68,20.23a16.54,16.54,0,0,1,6.44,1.19A13.51,13.51,0,0,1,299,24.79a15,15,0,0,1,3.08,5.29A20.89,20.89,0,0,1,303.17,37a20.89,20.89,0,0,1-1.08,6.94A14.88,14.88,0,0,1,299,49.21a13.37,13.37,0,0,1-4.89,3.36,18.31,18.31,0,0,1-12.88,0,13.4,13.4,0,0,1-4.9-3.36,15,15,0,0,1-3.12-5.27A20.63,20.63,0,0,1,272.13,37a20.63,20.63,0,0,1,1.09-6.92,15,15,0,0,1,3.12-5.29,13.55,13.55,0,0,1,4.9-3.37A16.54,16.54,0,0,1,287.68,20.23Zm0,29.05q4.81,0,7.2-3.23c1.58-2.16,2.38-5.16,2.38-9s-.8-6.89-2.38-9.06-4-3.24-7.2-3.24a9.93,9.93,0,0,0-4.24.83,8,8,0,0,0-3,2.41,10.83,10.83,0,0,0-1.8,3.87A21.16,21.16,0,0,0,278,37a20.91,20.91,0,0,0,.59,5.18,10.68,10.68,0,0,0,1.8,3.84,8.08,8.08,0,0,0,3,2.39A9.93,9.93,0,0,0,287.68,49.28Z" transform="translate(0 0)"/><path d="M306,20.74h4.5a1.83,1.83,0,0,1,1.15.35,1.76,1.76,0,0,1,.61.84l6.24,21c.17.77.33,1.52.48,2.24s.28,1.44.38,2.16c.18-.72.37-1.45.58-2.16s.44-1.47.68-2.24L327.5,21.8a1.61,1.61,0,0,1,.56-.8,1.51,1.51,0,0,1,1-.32h2.47a1.63,1.63,0,0,1,1.06.32,1.59,1.59,0,0,1,.58.8l6.72,21.08q.35,1.13.63,2.22c.18.73.35,1.45.53,2.15.1-.7.24-1.44.41-2.21s.36-1.49.55-2.16l6.36-21a1.67,1.67,0,0,1,.61-.85,1.7,1.7,0,0,1,1.06-.34h4.31L343.82,53.29h-4.53c-.56,0-.94-.36-1.16-1.09l-7.2-22.08a11.36,11.36,0,0,1-.41-1.49l-.33-1.49c-.1.49-.21,1-.32,1.51a11.64,11.64,0,0,1-.41,1.51l-7.3,22a1.34,1.34,0,0,1-1.32,1.09h-4.3Z" transform="translate(0 0)"/><path d="M367.12,10.52a3.71,3.71,0,0,1-.34,1.56,4.83,4.83,0,0,1-.9,1.29,4.27,4.27,0,0,1-1.3.88,4,4,0,0,1-1.58.32,3.84,3.84,0,0,1-1.55-.32,4.22,4.22,0,0,1-1.29-.88,4.35,4.35,0,0,1-.88-1.29,3.69,3.69,0,0,1-.32-1.56,3.9,3.9,0,0,1,.32-1.59,4.12,4.12,0,0,1,2.17-2.2A3.84,3.84,0,0,1,363,6.41a4,4,0,0,1,1.58.32,4.27,4.27,0,0,1,1.3.88,4.68,4.68,0,0,1,.9,1.32A3.91,3.91,0,0,1,367.12,10.52Zm-1.29,10.22V53.29h-5.72V20.74Z" transform="translate(0 0)"/><path d="M385.79,53.81a7.83,7.83,0,0,1-5.93-2.16,8.58,8.58,0,0,1-2.07-6.2V25.53h-3.92a1.24,1.24,0,0,1-.87-.31,1.16,1.16,0,0,1-.36-.94V22l5.34-.67,1.32-10.06a1.25,1.25,0,0,1,.41-.79,1.36,1.36,0,0,1,.9-.3h2.9V21.38h9.32v4.15h-9.32V45.07a4.16,4.16,0,0,0,1,3,3.51,3.51,0,0,0,2.57,1,4.57,4.57,0,0,0,1.56-.24,7.65,7.65,0,0,0,1.14-.53c.32-.2.6-.37.82-.53a1,1,0,0,1,.6-.25,1,1,0,0,1,.8.55l1.67,2.73A10.49,10.49,0,0,1,390.09,53,12,12,0,0,1,385.79,53.81Z" transform="translate(0 0)"/></g></g></svg>