<?xml version="1.0" encoding="utf-8"?>
<!-- Generator: Adobe Illustrator 21.1.0, SVG Export Plug-In . SVG Version: 6.00 Build 0)  -->
<svg version="1.1" id="Lager_1" xmlns="http://www.w3.org/2000/svg" xmlns:xlink="http://www.w3.org/1999/xlink" x="0px" y="0px"
	 viewBox="0 0 491.5 165.9" style="enable-background:new 0 0 491.5 165.9;" xml:space="preserve">
<style type="text/css">
	.st0{fill:#2EC4F3;}
	.st1{fill:#34393D;}
</style>
<g>
	<path class="st0" d="M135.6,121.4c0.5,0,1,0,1.4,0c117.6,0,235.2,0,352.8,0c2,0,1.7-0.3,1.7,1.7c0,13.4,0,26.9,0,40.3
		c0,1.3-0.4,1.5-1.5,1.5c-108.3,0-216.5,0-324.8,0c-0.9,0-1.4-0.2-1.9-1c-9-13.8-18-27.6-27-41.3C135.9,122.3,135.7,122,135.6,121.4
		z"/>
	<path class="st1" d="M76.1,103.2c-5.6,9-11,18-16.5,26.9c-7.2,11.6-14.3,23.3-21.5,34.9c-0.3,0.5-0.5,0.9-1.2,0.9
		c-12.3,0-24.6,0-36.9,0c0-0.5,0.4-0.9,0.6-1.3C18.4,137,36.2,109.3,54,81.7c0.7-1,0.7-1.7,0-2.7C37.4,53.1,20.7,27.1,4.1,1.2
		c-0.2-0.3-0.4-0.7-0.6-1C3.9-0.1,4.3,0,4.7,0C16.8,0,28.9,0,41,0c1,0,1.4,0.4,1.8,1.1c11.4,19.1,22.9,38.2,34.3,57.3
		c0.2,0.3,0.4,0.7,0.7,1.1c1-1.6,1.9-3.1,2.8-4.7c10.5-17.9,21-35.8,31.5-53.7c0.5-0.9,1.1-1.2,2.2-1.2c11.7,0,23.4,0,35,0
		c0.4,0,0.9,0,1.3,0c0.1,0.5-0.2,0.7-0.4,1c-16.8,26.6-33.6,53.1-50.5,79.6c-0.8,1.2-0.9,2,0,3.2c18.1,26.9,36.1,53.8,54.1,80.7
		c0.2,0.4,0.5,0.7,0.7,1.1c-0.2,0.4-0.6,0.2-0.9,0.2c-12.8,0-25.5,0-38.3,0c-0.8,0-1.1-0.3-1.5-0.9c-12.4-20.1-24.8-40.3-37.1-60.4
		C76.7,104.2,76.4,103.8,76.1,103.2z"/>
	<path class="st1" d="M279.8,30.2c-0.5,3-1,6-1.5,9c-1.9,11.3-3.8,22.7-5.7,34c-1.5,9.3-3.1,18.5-4.6,27.8c-0.1,0.8-0.3,1.1-1.2,1.1
		c-5,0-9.9,0-14.9,0c-0.7,0-0.9-0.2-1.1-0.9c-4-22-8-44.1-12-66.1c-0.2-1.3-0.5-2.6-0.8-3.9c-0.3,0.5-0.2,0.9-0.2,1.4
		c0,22.8,0,45.5,0,68.3c0,1-0.2,1.3-1.3,1.3c-4.4-0.1-8.7-0.1-13.1,0c-0.8,0-1-0.2-1-1.1c0-33.3,0-66.6,0-99.9c0-0.9,0.2-1,1.1-1
		c7.5,0,15,0,22.4,0c0.9,0,1.1,0.3,1.3,1.1c2.9,16.3,5.9,32.7,8.8,49c1.2,6.9,2.5,13.8,3.7,20.8c0,0.2,0.1,0.4,0.4,0.6
		c0.3-2,0.7-4,1-6c2-11.9,4-23.9,6-35.8c1.6-9.4,3.1-18.8,4.6-28.3c0.2-1.1,0.6-1.4,1.7-1.4c7.3,0.1,14.6,0,22,0
		c0.9,0,1.2,0.2,1.2,1.2c0,33.2,0,66.5,0,99.7c0,1-0.3,1.2-1.2,1.2c-4.8,0-9.6-0.1-14.4,0c-1,0-1.1-0.3-1.1-1.2c0-23,0-46.1,0-69.1
		c0-0.5,0-1,0-1.6C279.9,30.2,279.9,30.2,279.8,30.2z"/>
	<path class="st1" d="M409.9,52.2c7.5,3,10.5,9.1,11.2,16.5c0.7,7.1,0.1,14.2,0.3,21.3c0.1,3.1,0.1,6.2,1,9.3
		c0.3,0.9,0.6,1.7,0.9,2.6c-0.2,0.2-0.4,0.1-0.6,0.1c-5.4,0-10.9,0-16.3,0c-0.7,0-1-0.2-1.3-0.9c-1.1-3-1.2-6.1-1.2-9.2
		c-0.1-6.7,0-13.4-0.1-20.2c0-1.1-0.1-2.2-0.4-3.3c-1.1-5.1-4-7.6-9.2-7.9c-2.4-0.1-4.8,0-7.2-0.1c-0.7,0-0.8,0.3-0.8,0.9
		c0,1.8,0,3.7,0,5.5c0,11.3,0,22.6,0,34c0,1.1-0.3,1.3-1.3,1.3c-5.1-0.1-10.2,0-15.2,0c-0.9,0-1.1-0.2-1.1-1.1c0-33.3,0-66.6,0-99.8
		c0-0.9,0.2-1.2,1.1-1.1C378.7,0,388,0,397.2,0c3.8,0,7.5,0.6,11.1,1.9c6.5,2.3,10.7,6.8,12,13.5c1.6,7.9,1.5,15.8,0.1,23.7
		c-1.1,5.9-4.5,10.2-10,12.8C410.2,51.9,410.1,52,409.9,52.2z M386,30.2c0,4.9,0,9.7,0,14.6c0,0.8,0.2,1,1,1c2.3,0,4.6,0,6.8,0
		c5.3-0.1,8.7-2.5,9.3-7.4c0.7-5.6,0.7-11.3,0-16.8c-0.6-4.7-3.2-6.7-8-6.9c-2.7-0.1-5.4,0-8.1-0.1c-0.8,0-1,0.2-1,1
		C386.1,20.5,386,25.4,386,30.2z"/>
	<path class="st1" d="M183.6,0c4,0,8,0,12,0c0.7,0,1,0.1,1.1,0.9c3.8,21.7,7.6,43.4,11.4,65.1c2.1,11.7,4.1,23.4,6.2,35.1
		c0.1,0.8-0.1,0.9-0.8,0.9c-5.3,0-10.6,0-16,0c-0.7,0-1-0.2-1.1-1c-0.9-5.5-1.8-11-2.7-16.6c-0.1-0.8-0.4-1-1.2-1
		c-6.5,0-13,0-19.6,0c-0.7,0-1,0.1-1.1,0.9c-0.9,5.6-1.8,11.1-2.7,16.7c-0.1,0.8-0.4,0.9-1.1,0.9c-4.8,0-9.5,0-14.3,0
		c-0.7,0-1,0-0.9-1c2.8-15.7,5.5-31.4,8.3-47.2c2.6-14.8,5.2-29.6,7.8-44.3c0.5-2.9,1-5.7,1.5-8.6c0.1-0.8,0.4-1,1.1-0.9
		C175.6,0,179.6,0,183.6,0z M182.8,19c-0.1,0-0.1,0-0.2,0.1c-1.3,7.7-2.5,15.4-3.8,23.1c-1.5,8.9-2.9,17.7-4.4,26.6
		c-0.1,0.6,0,0.9,0.7,0.9c5.1,0,10.1,0,15.2,0c0.6,0,0.8-0.1,0.7-0.8c-0.4-1.9-0.6-3.8-0.9-5.7c-2.1-13-4.3-26-6.4-39
		C183.4,22.5,183.1,20.7,182.8,19z"/>
	<path class="st1" d="M458.9,0c4,0,8,0,12,0c0.7,0,1,0.2,1.1,1c3,17.1,6,34.2,9,51.3c2.9,16.3,5.7,32.6,8.6,48.9
		c0.1,0.6,0.1,0.8-0.6,0.8c-5.4,0-10.9,0-16.3,0c-0.6,0-0.8-0.2-0.9-0.8c-0.9-5.5-1.8-11-2.7-16.4c-0.1-0.9-0.4-1.3-1.4-1.3
		c-6.4,0.1-12.9,0.1-19.3,0c-0.8,0-1.1,0.2-1.2,1c-0.9,5.5-1.8,11-2.7,16.5c-0.1,0.7-0.3,1-1.1,1c-4.8,0-9.6,0-14.4,0
		c-0.7,0-0.9-0.1-0.8-0.9c3-17.1,6-34.3,9-51.4c2.9-16.3,5.7-32.5,8.6-48.8c0.1-0.7,0.4-0.9,1.1-0.9C450.9,0,454.9,0,458.9,0z
		 M458.1,19c-0.1,0-0.2,0-0.2,0c-1.7,10.5-3.4,21.1-5.2,31.6c-1,6-2,12-3,17.9c-0.1,0.5-0.3,1.1,0.6,1.1c5.1,0,10.2,0,15.3,0
		c0.6,0,0.7-0.1,0.6-0.7c-0.6-3.4-1.1-6.8-1.7-10.3c-1.8-11-3.6-22-5.4-32.9C458.9,23.5,458.5,21.3,458.1,19z"/>
	<path class="st1" d="M309.4,51c0-16.6,0-33.1,0-49.7c0-1.1,0.3-1.4,1.4-1.4c15.2,0,30.3,0,45.5,0c1,0,1.3,0.2,1.3,1.3
		c-0.1,4.1-0.1,8.2,0,12.4c0,0.9-0.2,1-1.1,1c-9.4,0-18.8,0-28.2,0c-1,0-1.3,0.2-1.3,1.2c0,8.7,0,17.4,0,26c0,0.9,0.2,1.2,1.2,1.2
		c7.3,0,14.6,0,22,0c0.8,0,1.2,0.1,1.2,1.1c-0.1,4.2-0.1,8.4,0,12.6c0,0.8-0.3,1-1,1c-7.4,0-14.7,0-22.1,0c-0.9,0-1.2,0.2-1.2,1.1
		c0,9.2,0,18.4,0,27.6c0,0.9,0.3,1.1,1.1,1.1c9.4,0,18.8,0,28.2,0c0.9,0,1.2,0.2,1.2,1.2c-0.1,4.2,0,8.3,0,12.5c0,0.8-0.2,1-1,1
		c-15.4,0-30.8,0-46.2,0c-1.1,0-1-0.6-1-1.3C309.4,84.2,309.4,67.6,309.4,51z"/>
</g>
</svg>
