<svg id="Lager_1" data-name="Lager 1" xmlns="http://www.w3.org/2000/svg" viewBox="0 0 2301.4 435.18"><defs><style>.cls-1{fill:#7f7f7f;}</style></defs><title>sectra</title><path class="cls-1" d="M289,203.89h2c1.78,1.75,4,.87,6,.92,5.27.71,10.58,1.25,15.82,2.15,16.45,2.83,32,8.08,45.18,18.68,16.19,13,24,30.49,24.8,50.9.68,17.81.14,35.66.4,53.48.06,3.88-.94,5-5,5q-80-.21-160,0c-3.92,0-5.22-1-5-5,.38-7.24-.53-14.31-4.63-20.61-4.71-7.23-13.9-10.17-23.51-7.52-7.86,2.17-12.6,8.85-13.36,17.32-1.13,12.54,5,20.26,15.74,25q26,11.46,52.2,22.62,48.68,20.72,97.44,41.23c26.4,11.1,41,31,43.93,59.28a513.83,513.83,0,0,1,.5,100.77c-2.79,29.5-18,51.41-46.63,62.39C321.43,635.7,307.34,638,293,639h-6c-1.49-.06-3-.16-4.48-.16q-76.84,0-153.68,0c-10,0-20,.1-29.93.15l-6,0c-14.69-.78-29.1-3.16-42.9-8.33-20-7.51-35.37-20.1-43.39-40.58-3.7-9.45-4.3-19.41-5.55-29.28L1.28,481a18.21,18.21,0,0,1,2-.21q82.48,0,165-.09c3.43,0,4.15,1.25,4.13,4.37-.07,11.32-.52,22.67.6,34,.68,6.85,1.78,13.81,7.71,18.3,12.52,9.5,29.27,2.89,32.23-12.89a103.57,103.57,0,0,0-.05-35.81c-1.31-8.1-6.14-13.81-13.25-17.74a138.47,138.47,0,0,0-15.27-7.31C155,451.79,125.67,440,96.46,427.93c-20.88-8.63-42.27-16.1-61.47-28.49-18.36-11.84-29.48-28.17-32-49.86-3-25.55-2.71-51.26-.74-76.82C4.12,247.91,16.74,229.45,39,217.68c15.36-8.1,32-11,48.9-12.87l5-.06H281C283.64,204.43,286.5,206,289,203.89Z" transform="translate(-0.7 -203.89)"/><path class="cls-1" d="M1804.87,406.43c10.56,3.13,20.28,6.48,29.07,12.08,21.71,13.84,31.38,35,35.91,59.19a257.15,257.15,0,0,1,4.13,47.7c0,35-.08,70,.09,105,0,4.19-.74,5.67-5.38,5.66q-79.74-.27-159.48,0c-4.37,0-5.58-1-5.56-5.5.17-46,.1-92,.12-138a84.17,84.17,0,0,0-1.52-16.88c-2.2-10.82-8.16-16.11-19.27-16.61-5.82-.26-11.67.12-17.49-.19-3.69-.2-4.83.85-4.79,4.68.19,21.16.1,42.33.1,63.49,0,34.5-.09,69,.11,103.49,0,4.46-1.18,5.51-5.55,5.5q-78.49-.24-157,0c-4.09,0-5.32-1-5.31-5.21q.17-209.48,0-419c0-3.93,1-5,5-5,90.49.12,181,0,271.47.18,20.09,0,39.83,2.66,58.56,10.61,21.77,9.24,34.5,26.2,40.2,48.48a170,170,0,0,1,.2,84.08c-6.58,26.48-24.51,42.75-49.71,51.65C1814.4,403.38,1810,404.75,1804.87,406.43Zm-144.09-71.67c0,8.81,0,17.62,0,26.43,0,2.27.22,3.82,3.14,3.74,6.48-.18,13,.21,19.44-.23,11.59-.79,17-5.77,19.21-17.22a69.08,69.08,0,0,0-.47-27.22c-1.64-8.15-6.56-12.75-14.52-14.44-7.57-1.61-15.25-.53-22.86-.95-3.06-.17-4,.89-4,3.95C1660.89,317.47,1660.78,326.12,1660.78,334.76Z" transform="translate(-0.7 -203.89)"/><path class="cls-1" d="M2215.67,635.93c-27.16,0-54.32-.05-81.48.06-3.55,0-5.14-.54-5.53-4.7-2.65-28-5.75-56-8.45-83.95-.35-3.6-1.6-4.3-4.86-4.25-12.66.17-25.34.35-38-.08-4.82-.16-5.89,1.86-6.26,5.85-1.3,13.92-2.73,27.82-4.15,41.73-1.38,13.58-2.91,27.14-4.16,40.73-.36,3.88-2.1,4.69-5.75,4.69q-81.48-.17-163,0c-4.58,0-4.58-1.68-4-5.14q7.74-43,15.3-86,9-51.1,18.07-102.21,12.08-68.3,24.17-136.59,8.23-46.69,16.25-93.41c.73-4.28,2-5.94,6.8-5.93q125.47.27,250.94,0c4.06,0,5.68.9,6.42,5.16q13.74,79.65,27.89,159.24c5.15,29.16,10.47,58.29,15.63,87.45q12.12,68.54,24.12,137.1c2,11.14,3.86,22.29,5.8,33.44,1.17,6.7,1.18,6.7-5.36,6.7ZM2096.54,306.84c-1.52.87-1.35,2.31-1.5,3.57-1.11,9.57-2.11,19.16-3.3,28.72q-6.6,52.94-13.37,105.85c-.39,3,.33,3.81,3.23,3.77,8.32-.13,16.64,0,25,0,7,0,6.81,0,6-6.75q-4.41-35.37-8.54-70.78C2101.47,349.76,2099,328.35,2096.54,306.84Z" transform="translate(-0.7 -203.89)"/><path class="cls-1" d="M1012,204.76l5,0c17.82,1.3,35.39,3.56,51.8,11.47,18.22,8.79,27.84,24,33,42.78,4.91,17.66,6,35.73,5.87,53.93-.07,15.16-.09,30.33.06,45.49,0,3.31-.64,4.64-4.34,4.63q-81-.17-162,0c-3.67,0-4.43-1.27-4.37-4.61.19-9.33,0-18.66.05-28a64.48,64.48,0,0,0-1.36-13.89c-2.23-10.22-8.36-15.2-19.08-15.52-10.52-.32-17.19,4.53-19.77,14.54a72.69,72.69,0,0,0-2,18.32q.05,65,0,130,0,23.74,0,47.49A60.74,60.74,0,0,0,897.48,529c2.44,8,8.26,12.48,16.49,12.88,10,.49,16.43-3,19.93-10.95a41.89,41.89,0,0,0,3.23-17.05c.06-15.83.2-31.66,0-47.48-.06-4.21.78-5.68,5.4-5.66q80,.27,160,0c4,0,5.4.87,5.36,5.16-.2,28,.13,56-.21,84-.2,16.73-2.76,33.09-10.18,48.44-8.91,18.43-24.23,28.65-43.11,34.36a162.72,162.72,0,0,1-38.32,6.32l-6,0c-9-.05-18-.14-26.93-.15q-79.84,0-159.67,0c-1.49,0-3,.1-4.48.15h-6c-16.68-1.32-33-4.12-48.18-11.66-17.79-8.83-28.85-23.22-34.63-41.8a124.88,124.88,0,0,1-5.29-37.42q.09-122.44,0-244.88a172.53,172.53,0,0,1,5.65-44.43c7.7-29.06,27.48-44.92,56.17-50.83a192.59,192.59,0,0,1,26.22-3.3l6,.05c21.12,0,42.24.12,63.36.11q60.87,0,121.75-.11Z" transform="translate(-0.7 -203.89)"/><path class="cls-1" d="M1298.57,206.93c54.66,0,109.32.06,164-.11,4.42,0,5.53,1.08,5.5,5.5q-.32,43.74,0,87.49c0,4.22-1.17,5.24-5.29,5.21-25.16-.19-50.33,0-75.49-.21-4.82,0-6.09,1.3-6.08,6.09q.2,159,.09,318c0,8,.84,7-6.8,7-51,0-102-.06-153,.12-4.9,0-6.4-1-6.39-6.2q.27-159.23.13-318.46c0-6.44,0-6.44-6.43-6.44-25,0-50-.09-75,.09-3.93,0-5-1-5-5q.25-44,0-88c0-4.24,1.23-5.2,5.31-5.19Q1216.33,207,1298.57,206.93Z" transform="translate(-0.7 -203.89)"/><path class="cls-1" d="M419.66,421.35q0-104.23-.11-208.46c0-4.76,1.09-6.09,6-6.08q129.22.24,258.45,0c4.8,0,6.09,1.12,6,6q-.37,43.49,0,87c0,4.21-1.18,5.25-5.3,5.23-30.83-.17-61.65,0-92.48-.18-4,0-5.49.81-5.38,5.15.3,12.16.26,24.33,0,36.49-.08,3.8,1.1,4.74,4.79,4.72,31-.14,62,0,93-.2,4.67,0,5.38,1.54,5.36,5.69q-.25,43.24,0,86.48c0,4.71-1,6.18-6,6.14-30.33-.24-60.66,0-91-.26-5.26,0-6.28,1.56-6.24,6.47q.36,38.74,0,77.48c0,4.06,1.23,4.95,5.07,4.93,31-.15,62,0,93-.16,3.78,0,5.13.78,5.1,4.9q-.28,44.24,0,88.48c0,3.58-.73,4.86-4.63,4.86q-130.47-.17-260.95,0c-4.84,0-4.79-2.21-4.79-5.73Q419.71,525.83,419.66,421.35Z" transform="translate(-0.7 -203.89)"/></svg>