<svg id="Lager_1" data-name="Lager 1" xmlns="http://www.w3.org/2000/svg" viewBox="0 0 834.18 310">
  <defs>
    <style>.cls-1{fill:#252122;}</style>
  </defs>
  <title>cygni</title>
  <path class="cls-1" d="M41,489.89c.39-.46,1-.85,1.15-1.37,3.43-10.73,11-14.28,22-14.32,9.24,0,18.06,2.48,26.74,5.48,20.37,7.05,39.23,17.21,57.73,28.08,21.39,12.57,41.6,26.93,62.09,40.9,18.61,12.68,39.17,17.54,60.84,7.08,11.23-5.42,19.51-14.32,26.62-24.37,10-14.1,17.09-29.69,22.56-45.94,4.55-13.52,8.09-27.39,12-41.11.35-1.23.45-2.53.77-4.42-1.09.39-1.66.53-2.17.77-15.17,7.26-30.71,7.9-46.61,2.73-4.9-1.59-9.83-3.07-14.77-4.52-13.68-4-26.82-3.07-39.66,3.58-15.52,8-32.26,11.42-49.66,11.09-18.87-.36-36.52-5.08-52-16.39-20.44-15-28.13-35.27-24.14-59.94,3.46-21.41,14.13-39.23,29-54.7A97.25,97.25,0,0,1,157,304a37.66,37.66,0,0,1,10.14-4c8.85-1.83,16.2,1.23,21.46,8.48,6.47,8.91,8.93,18.93,6.33,29.76-1.71,7.11-5.93,12-13.5,13.77a115.33,115.33,0,0,0-40.76,18.1,52.52,52.52,0,0,0-13.05,13c-6,8.79-7.22,18.09-3,27.92,6.47,15,18.41,23.54,33.94,26.57,23.11,4.51,44.37-.41,62.89-15.22,11.4-9.12,17.18-21.12,17.71-35.92.46-13,1.8-25.9,2.88-38.84.18-2.16.17-4.67,2.62-5.95,1.11,1.77,2.64,3.4,3.27,5.32,3.18,9.62,5.9,19.39,9.23,29,2.94,8.46,6.45,16.72,9.76,25,6,15.24,18.56,21.53,33.67,23.79,12.52,1.87,20.31-3,24.88-14.94,3.43-9,4.54-18.41,5.48-27.83,2.45-24.53,11.16-46.75,24.26-67.4a38.1,38.1,0,0,1,5.3-6.6c4-4,7.12-3,8.28,2.63a38.23,38.23,0,0,1,.89,8.43c-.55,27-.54,54-2,80.93-1.52,27.48-6.5,54.49-16.57,80.3-8.42,21.57-19.43,41.57-36.07,58.05-18.53,18.35-41,29.31-66.31,34.48-7.31,1.49-14.81,2.07-22.22,3.13a11.63,11.63,0,0,0-2.48,1H198a10.13,10.13,0,0,0-2.47-1c-6.26-.83-12.59-1.28-18.8-2.4A418.06,418.06,0,0,1,87.2,546.71c-12.4-5.28-24.45-11.31-34.67-20.38-4.94-4.39-8.92-9.4-10.47-16-.12-.52-.7-.94-1.06-1.41Q41,499.39,41,489.89Z" transform="translate(-41 -266.89)"/>
  <path class="cls-1" d="M746,266.89c8.16,5.46,10.47,13.37,6.56,22.7a25.35,25.35,0,0,1-9.45,11.88c-6.4,4.17-12.14,2.74-15.91-3.86-6.27-11-3.24-22.1,7.75-28.49a34.9,34.9,0,0,0,3-2.22Z" transform="translate(-41 -266.89)"/>
  <path class="cls-1" d="M579.45,338.75c2.31-3.09,4.11-5.89,6.3-8.34a72.06,72.06,0,0,1,9.14-9.16c10.68-8.3,22.13-9.06,34-2.61,9,4.87,15.86,12,21.86,20.14,11.87,16,19.31,34,23.24,53.51a109.13,109.13,0,0,0,5.17,16.61,26.76,26.76,0,0,0,4.65,7.6c3.4,4,7.4,4.69,11.41,1.31a43.89,43.89,0,0,0,9.58-10.69c5.42-9.13,10.28-18.6,15.05-28.09,4.55-9,8.62-18.33,13.06-27.44a51.68,51.68,0,0,1,4.94-8.06c2.35-3.18,4.1-3.43,7.82-1.92a14.94,14.94,0,0,1,8,7.92,152.62,152.62,0,0,1,7.22,18.51c3.94,13,7.32,26.23,11.11,39.3a47.07,47.07,0,0,0,4,9.63,44.9,44.9,0,0,0,6.25,8.94c4.72,5,9.72,5.68,15.8,2.43,6.26-3.35,11.23-8.3,16-13.46,5.74-6.26,11.18-12.8,17-19,5.14-5.43,10.54-10.63,16-15.7a24.85,24.85,0,0,1,6.78-4.14c5.67-2.51,10.53-1.29,14,3.85,8.65,12.73,12.25,33.79-4.76,48.9-7.5,6.67-16.35,10.72-26,13.1-21.14,5.2-41.66,3.38-61.27-6.1-15.77-7.63-27.12-19.55-33.18-36.2-.32-.88-.77-1.72-1.36-3-1.84,4-3.49,7.56-5.17,11.15A113.29,113.29,0,0,1,718.81,435c-4.77,5.41-10.15,10.09-16.79,13.13-10.49,4.8-20.36,3.67-29.56-3.25a49.68,49.68,0,0,1-12.61-14.68c-7.16-12-10.85-25.24-13.93-38.74-2.29-10-4.89-20-7.93-29.83a47.81,47.81,0,0,0-6.46-12.82c-3.82-5.5-8.89-5.89-13.44-1a54.77,54.77,0,0,0-8.82,12.6c-5.08,10.26-9.49,20.85-14.28,31.26-2.49,5.43-4.9,10.93-7.88,16.09-3.67,6.39-6.66,6.62-11.4,1a57.85,57.85,0,0,1-6.9-10.34,211.43,211.43,0,0,1-21.55-67.05c-.64-4.24-.38-8.64-.29-13a15.56,15.56,0,0,1,1.2-5.3c.86-2.15,2.16-3.22,5-2.6C566,313.28,574,321,578,333.24,578.5,334.82,578.84,336.45,579.45,338.75Z" transform="translate(-41 -266.89)"/>
  <path class="cls-1" d="M460.39,456.13c-11.92-.06-30.58-4.57-47-16.37a60.47,60.47,0,0,1-24.72-38c-1.44-6.93-.48-13.71,1.55-20.21,8.72-28,23.9-51.81,46.45-70.73a40.42,40.42,0,0,1,14.77-8.1c9-2.6,16.1,0,21,7.9,6.46,10.35,7,20.87-.67,30.65a113,113,0,0,1-16,16.4c-9.56,8-19.82,15.19-29.53,23a105.06,105.06,0,0,0-13.71,13.07c-9.21,10.75-8.22,20.73,2.36,30,9.08,8,19.27,12.5,31.72,12.33,19.67-.26,38.83-2.94,57.07-10.39a63.77,63.77,0,0,0,15.47-8.91c11.9-9.47,9.75-20.94,1.22-30.86-1.5-1.74-2.87-.88-4.47-.46-11.58,3-23.11,6.28-34.8,8.72-7.61,1.59-15.47,2.09-23.24,2.74-2.88.24-6.57.45-7.8-3s1.59-5.66,3.8-7.56a98.67,98.67,0,0,1,11.49-8.76c15.3-9.67,31.66-16.93,49.56-20.18a61.11,61.11,0,0,1,14.41-.61c6.11.36,10.46,3.5,12.78,9.51,3.74,9.71,6.56,19.56,6.06,30.09-.84,17.65-7.8,32-22.43,42.48C510.06,450.22,490.66,456.11,460.39,456.13Z" transform="translate(-41 -266.89)"/>
</svg>
