<?xml version="1.0" encoding="utf-8"?>
<!-- Generator: Adobe Illustrator 21.1.0, SVG Export Plug-In . SVG Version: 6.00 Build 0)  -->
<svg version="1.1" id="Lager_1" xmlns="http://www.w3.org/2000/svg" xmlns:xlink="http://www.w3.org/1999/xlink" x="0px" y="0px"
	 viewBox="0 0 1701.9 909.3" style="enable-background:new 0 0 1701.9 909.3;" xml:space="preserve">
<style type="text/css">
	.st0{fill:#312782;}
	.st1{fill:#FCC400;}
	.st2{fill:#312783;}
</style>
<g>
	<path class="st0" d="M891.1,668.8c0-72.3-0.1-144.7,0-217c0-26.5,5.2-52,18.3-75.3c21.2-37.4,53.8-59,95.9-65.3
		c44.4-6.6,84.4,4.6,119.1,33.7c1.7,1.4,2.6,2.1,4.8,0.2c47-40.2,99.6-46.1,155.2-22.3c47.6,20.4,73.7,58.4,80.3,109.7
		c1,7.7,1.3,15.6,1.3,23.4c0.1,147.2,0.1,294.3,0.1,441.5c0,6.4,0,6.4-6.4,6.4c-23.8,0-47.7,0-71.5,0c-7.7,0-6.7,1.1-6.7-6.5
		c0-148.2,0-296.3-0.1-444.5c0-16.4-3.6-31.9-16-43.8c-16.7-16-36.8-18.2-58.1-12.1c-19.9,5.7-30.7,20.2-34.7,40
		c-1.3,6.6-1.8,13.5-1.8,20.3c-0.1,146.8-0.1,293.6,0,440.5c0,5-1.1,6.3-6.2,6.3c-24.2-0.3-48.3-0.3-72.5,0
		c-5.3,0.1-6.2-1.6-6.1-6.4c0.1-148,0.2-296-0.1-444c0-9.3-1.7-19.1-4.9-27.8c-8.5-22.7-31.9-34.9-57.5-31.4
		c-29.9,4.1-47.7,25.1-47.7,56.6c0,59,0,118,0,177c0,90,0,180,0.1,270c0,4.9-1.2,6-6,6c-24.2-0.3-48.3-0.3-72.5,0
		c-4.9,0.1-6.4-1-6.4-6.2C891.2,821.4,891.1,745.1,891.1,668.8z"/>
	<path class="st0" d="M304,609.1c0,50.8,0,101.7,0,152.5c0,16.5,4.3,31.4,16.6,42.9c16.3,15.2,36,21,57.9,19
		c16.9-1.6,31.9-7.8,44-20.1c9.9-10.1,15.1-22.3,15.1-36.4c0.2-38.7,0-77.3,0.1-116c0-3.7-1.2-4.3-4.5-4.3c-33.7,0.1-67.3,0-101,0.2
		c-3.9,0-5.1-0.9-5-4.9c0.2-17.2,0.2-34.3,0-51.5c0-3.2,0.4-4.6,4.2-4.6c62.3,0.1,124.7,0.1,187,0.1c2.6,0,4.2,0,4.2,3.6
		c-0.1,59.8,0.9,119.7-0.4,179.5c-1.1,54.2-27.9,94.1-75.3,119.1c-55.2,29-110.7,28.7-164.2-4.7C245.3,860,225,825,220.5,781
		c-0.6-6.3-0.8-12.6-0.9-18.9c-0.1-37.2-0.1-74.3,0.1-111.5c0-4-1.1-4.9-4.9-4.9c-35.3,0.1-70.7,0.1-106,0.1
		c-38.1,0-67.7-24.5-74.7-61.8c-7.5-40,22.8-80.8,63.2-85c6.9-0.7,14-0.7,20.9-0.8c9.2-0.2,16.3-7,16.1-15.5
		c-0.2-8.3-7.2-14.8-16.2-14.8c-37.3,0-74.7-0.1-112,0.1c-5.3,0-6.2-1.6-6.2-6.4c0.3-16,0.2-32,0-48c0-3.5,1-4.5,4.5-4.5
		c39,0.1,78-0.1,117,0.1c39.5,0.2,72.5,35.4,71.2,75.6c-1.3,40.6-33.8,72-74.5,72c-3.8,0-7.7-0.1-11.5,0
		c-8.6,0.3-15.3,7.2-15.1,15.4c0.2,8.4,6.8,14.9,15.5,14.9c36,0,72-0.1,108,0.1c3.9,0,4.5-1.2,4.5-4.8c-0.1-42.3,0.3-84.7-0.2-127
		c-0.8-73,44.7-125.5,109.1-140.7c65.4-15.5,121.6,2.9,165.5,54.3c20,23.3,28,51.8,28.4,82.3c0.3,25.3,0,50.7,0.1,76
		c0,3.6-0.7,4.8-4.6,4.7c-25.3-0.2-50.7-0.2-76,0c-3.5,0-4.5-0.8-4.4-4.4c0.2-23.7-0.5-47.3,0.2-71c0.9-29.6-16.6-49.6-41.1-58.2
		c-20.5-7.2-40.7-6-60.1,3.7c-22.1,11-32.7,29.3-32.6,54C304.1,507.1,304,558.1,304,609.1z"/>
	<path class="st0" d="M1398.7,608.8c0-52.8-0.2-105.6,0.1-158.5c0.2-29.1,8-56.3,25.3-80.1c23.4-32.4,55.7-51.4,94.5-58.1
		c54-9.3,101.8,5.3,141.9,42.4c28,26,41.1,59.2,41.2,97.4c0.2,60.7,0,121.3,0.1,182c0,4.2-1,5.2-5.2,5.1
		c-69.3-0.1-138.6-0.1-208-0.2c-4.4,0-5.4,1.1-5.4,5.4c0.2,39.5,0.2,79,0.1,118.5c0,26.2,12.5,44.2,36.1,54.7
		c28.1,12.5,62,6.6,82.4-14.2c10.5-10.6,15.2-23.7,15.2-38.4c0.1-24.7,0.1-49.3-0.1-74c0-3.8,0.9-5,4.9-5
		c25.2,0.2,50.3,0.1,75.5,0.1c2.8,0,4.5,0,4.5,3.8c-0.2,26.2,0.4,52.3-0.2,78.5c-1.1,48.1-22,86.3-62.4,112
		c-58,36.8-118.1,39.6-177.4,3c-38.3-23.6-58.4-59.6-62.3-104.4c-0.6-7-0.7-14-0.7-21C1398.7,708.2,1398.7,658.5,1398.7,608.8z
		 M1550.2,564.1c20.8,0,41.6-0.1,62.5,0.1c3.3,0,4.6-0.7,4.6-4.3c-0.1-36,0-72-0.1-107.9c-0.1-14.4-5-27-15.3-37.4
		c-20-20.2-52.6-26.4-80.6-14.8c-22.9,9.5-37.1,26.1-37.5,51.5c-0.6,36.5-0.1,73-0.3,109.4c0,3.8,2,3.4,4.4,3.4
		C1508.5,564.1,1529.3,564.1,1550.2,564.1z"/>
	<path class="st0" d="M858.4,609.4c0,52.2,0.1,104.3-0.1,156.5c-0.1,23.4-4.8,46-16.1,66.8c-21,38.6-53.9,62.4-96.3,71.4
		c-64.1,13.5-118.9-4.6-161.9-54.6c-18.8-21.9-27.8-48.5-28.3-77.3c-0.4-20.6-0.7-41.5,2.1-61.8c8.5-61.6,58.9-114.6,119.8-127.2
		c12.5-2.6,25.4-3.6,38.1-4c17.8-0.7,35.7-0.3,53.5-0.1c3.4,0,4.4-0.8,4.4-4.3c-0.1-41.3,0-82.7-0.1-124
		c-0.1-12.9-4.7-24.4-13.3-34.2c-26.3-29.9-80.3-29.9-106.8-0.1c-10.3,11.6-13.8,25.5-13.7,40.6c0,23.3-0.1,46.7,0.1,70
		c0,3.7-0.6,5.1-4.8,5c-25.2-0.2-50.3-0.1-75.5-0.1c-2.5,0-4.3,0.1-4.2-3.5c0.2-27-0.6-54,0.3-81c1.7-48.6,24.2-85.7,64.9-111.7
		c31.4-20.1,66-29,103.2-25.8c54.9,4.7,108.7,38.4,127.5,96.1c4.9,15,7.2,30.4,7.2,46.2C858.5,504.7,858.4,557,858.4,609.4z
		 M773.6,713.8c0-18.5-0.1-37,0.1-55.4c0-3.2-0.4-4.6-4.2-4.6c-17.6,0.2-35.3-0.1-52.9,0.1c-37.1,0.4-69,26.3-74.7,63
		c-2.8,17.9-1.5,36.5-1.2,54.7c0.2,11.5,5.4,21.5,13,30.1c19.5,22,55.9,28.8,84.6,15.6c23.4-10.8,35.8-28.7,35.4-55
		C773.4,746.1,773.6,729.9,773.6,713.8z"/>
	<path class="st1" d="M951.2,102.2c0-31.7,0.1-63.3-0.1-95c0-4.2,1.2-5.4,5.3-5.2c8.5,0.3,17,0.3,25.5,0c4.1-0.2,4.9,1.2,4.9,5
		c-0.1,60.7-0.1,121.3,0,182c0,3.1,0.3,6.3,0.8,9.4c2.1,11.2,11,18,23.1,17.6c11.6-0.3,20.3-7.7,21.8-18.8c0.4-3.3,0.6-6.6,0.6-10
		c0-59.8,0.1-119.6-0.1-179.5c0-4.4,0.9-6.1,5.7-5.9c8.6,0.4,17.3,0.2,26,0.1c3-0.1,4.2,0.7,4,3.9c-0.2,3.8-0.1,7.7-0.1,11.5
		c0,58,0,116,0,174c0,19.2,16.7,30.4,33.5,22.6c8.1-3.8,11.8-10.5,12.4-19.1c0.3-4.5,0.1-9,0.1-13.5c0-58,0.1-116-0.1-174
		c0-4.5,1.2-5.6,5.6-5.5c8.8,0.4,17.7,0.2,26.5,0c3-0.1,4,0.8,4,3.9c-0.1,63,0.3,126-0.3,189c-0.2,22.7-10.2,41.2-31.5,51.1
		c-22.3,10.3-43.8,7.3-63.6-7c-2.8-2.1-4.2-2.4-7.3,0c-19.1,14.9-40.2,16.8-62.1,7.5c-21.5-9.2-33.6-26.4-34.3-49.7
		c-0.9-31.5-0.2-63-0.2-94.5C951.3,102.2,951.3,102.2,951.2,102.2z"/>
	<path class="st1" d="M219.6,125.9c0-21.8,0-43.7,0-65.5c0-31.3,22.7-56.3,54-59.6c23.2-2.4,43.1,4.6,59,21.7
		c9.2,9.9,13.9,21.9,14,35.4c0.2,25.7,0,51.3,0.2,77c0,3.6-1.4,4-4.4,4c-27.3-0.1-54.7,0.1-82-0.2c-4.4,0-5.6,1.1-5.5,5.5
		c0.3,15,0.5,30,0.2,45c-0.4,21.6,19.7,29,33.7,26.5c14.2-2.5,22.1-11.7,22.3-26.2c0.2-9,0.1-18,0-27c0-3,0.5-4.5,4.1-4.4
		c9.3,0.2,18.7,0,28,0.2c1.2,0,3.4,1.4,3.4,2.1c0,13.7,1.2,27.5-0.8,40.9c-3.9,26.1-21.3,40.8-45.7,48c-28.9,8.4-60-4-73.6-29
		c-4.7-8.7-6.8-18-6.8-27.8C219.6,170.3,219.6,148.1,219.6,125.9z M282.8,107.1c8,0,16-0.1,24,0.1c3.1,0.1,4.4-0.7,4.3-4.1
		c-0.2-14.5-0.1-28.9-0.1-43.4c0-7.3-3.2-13.2-9-17.5c-6.7-5.1-14.3-6.9-22.6-6c-14.5,1.5-23.8,11.1-24.2,25.5
		c-0.4,14,0,27.9-0.2,41.9c0,2.9,1,3.7,3.7,3.7C266.8,107,274.8,107.1,282.8,107.1z"/>
	<path class="st1" d="M1164.4,126.1c0-22,0-44,0-66c0-30.7,21.6-55.3,52.1-59.2c23.5-3,43.8,3.8,60.3,20.9
		c10.1,10.4,14.6,23.3,14.8,37.7c0.2,25,0,50,0.1,75c0,3.6-1,4.4-4.5,4.4c-27.5-0.1-55,0-82.5-0.2c-3.8,0-5.1,0.8-5.1,4.9
		c0.3,15.7,0,31.3,0.1,47c0.1,13.7,9.8,23.6,24.1,25.3c14.7,1.7,28-5.9,31.1-18.4c1.1-4.4,0.7-9.2,0.8-13.9c0.1-7.2,0.1-14.3,0-21.5
		c-0.1-2.9,0.6-4.2,3.8-4.1c9.5,0.2,19,0,28.5,0.2c1.2,0,3.4,1.4,3.4,2.1c-0.3,15,0.9,30.2-1.8,44.8c-4.6,24.4-22.1,38.1-45.2,44.2
		c-26,6.8-48.9,0.5-66.9-19.8c-8.9-10.1-12.9-22.3-13-35.8C1164.4,171.1,1164.4,148.6,1164.4,126.1z M1227.8,107.1
		c7.8,0,15.7-0.2,23.5,0.1c3.4,0.1,4.6-0.8,4.5-4.4c-0.2-14.2,0-28.3-0.1-42.5c0-2.1-0.3-4.3-0.9-6.4c-3.5-12.1-16.8-19.7-31-17.9
		c-14.6,1.9-23.9,11.8-24,25.9c-0.1,13.7,0.1,27.3-0.1,41c0,3.2,0.8,4.4,4.2,4.3C1211.8,107,1219.8,107.1,1227.8,107.1z"/>
	<path class="st1" d="M1433.6,125.6c0-21.3,0-42.7,0-64c0-32.9,22-57.3,54.8-60.9c20.7-2.2,38.9,3.8,54.3,17.6
		c12,10.8,18,24.6,18.1,40.8c0.1,25-0.1,50,0.1,75c0,3.7-0.9,4.8-4.7,4.8c-27.2-0.2-54.3,0-81.5-0.2c-4,0-5.4,0.8-5.3,5.1
		c0.3,15,0.1,30,0.1,45c0,14.8,7.2,23.8,21.6,26.7c9.6,1.9,18.6-0.1,26.2-6.5c6.3-5.2,8.2-12.3,8.2-20.1c0-8.8,0.1-17.7-0.1-26.5
		c-0.1-3.1,0.7-4.4,4.1-4.3c9.2,0.2,18.3,0,27.5,0.2c1.3,0,3.6,1.6,3.6,2.4c0.1,13.3,1.3,26.9-0.6,39.9
		c-3.8,26.6-21.4,41.6-46.2,48.7c-26,7.5-54.3-2-69.5-23c-7.3-10-10.6-21.4-10.7-33.7C1433.5,170.3,1433.6,148,1433.6,125.6z
		 M1497,107.1c8.2,0,16.3-0.1,24.5,0.1c3,0.1,4-0.9,4-3.9c-0.2-13.5,0-27-0.1-40.5c0-10.3-3.9-18.5-13.4-23.3
		c-10.4-5.2-20.9-5-31,0.9c-7,4.1-11.4,10.3-11.5,18.7c-0.1,14.8,0,29.6-0.1,44.5c0,2.9,0.9,3.7,3.7,3.6
		C1481.1,107,1489.1,107.1,1497,107.1z"/>
	<path class="st1" d="M487.7,126.4c0,21,0,42,0,63c0,32-18.1,54.4-49.3,61.2c-26.4,5.7-56.8-7.1-70.1-29.5c-5.1-8.6-7.8-18-7.7-28
		c0.1-11.1-0.7-22.3,2.8-33.2c9.1-27.9,33.9-46.2,63.2-46.2c7.2,0,14.3-0.1,21.5,0c2.9,0.1,4.2-0.7,4.1-3.9
		c-0.1-16.3,0.2-32.7-0.1-49c-0.3-16.4-16.3-27.8-33.6-24.4C403.7,39.3,396,48.5,396,63.6c0,8.8-0.1,17.7,0,26.5
		c0,2.7-0.7,3.8-3.7,3.8c-9.5-0.1-19,0-28.5-0.2c-1.1,0-3.2-1.5-3.1-2.3c0.2-14.6-1.2-29.6,1.5-43.8c4.7-24.8,22.3-38.5,45.8-45
		c30.1-8.3,61.5,5.4,74.3,32.1c4.1,8.6,5.5,17.7,5.4,27.2C487.7,83.4,487.7,104.9,487.7,126.4z M452,170.7c0-7.2-0.2-14.3,0.1-21.5
		c0.1-3.6-1.1-4.5-4.5-4.4c-6.5,0.2-13,0-19.5,0.1c-16.5,0.1-30.2,12.7-31.6,29.3c-0.4,4.8-0.3,9.6-0.3,14.4
		c0,14.9,6.9,23.5,21.5,26.8c14.3,3.2,36-4.8,34.4-27.3C451.6,182.4,452,176.5,452,170.7z"/>
	<path class="st1" d="M1305.2,126.1c0-39.3,0.1-78.6-0.1-118c0-4.6,0.8-6.3,5.9-6.2c18.3,0.5,36.7-0.3,54.9,0.9
		c32.2,2.1,52.8,23.9,53.7,56.4c0.7,27.1,0.4,54.3,0.4,81.4c0,15.5,0.1,31-0.3,46.5c-0.4,17.4-4.5,33.6-17.4,46.4
		c-9.4,9.3-21.2,14.3-34,15c-19.9,1.1-39.9,0.8-59.9,1.2c-3.4,0.1-3.1-2-3.1-4.3c0-11.3,0-22.7,0-34
		C1305.2,183.1,1305.2,154.6,1305.2,126.1z M1340.7,126.2c0,9.7,0,19.3,0,29c0,18.8,0,37.6,0,56.5c0,2-0.9,4.6,2.8,4.5
		c6.5-0.2,13,0.2,19.5-0.4c11.3-1.1,17.8-7.1,20.1-18.3c0.9-4.5,1.3-9.2,1.3-13.9c0.1-38.3,0.1-76.6,0-114.9c0-4.1-0.3-8.3-0.9-12.4
		c-1.6-11.2-7.7-17.8-18.9-19.6c-6-0.9-12.3-0.3-18.4-0.7c-4.3-0.3-5.6,0.8-5.6,5.4C1340.9,69.6,1340.7,97.9,1340.7,126.2z"/>
	<path class="st1" d="M1574.6,150.5c0-30,0-60,0-90c0-31.5,22.3-56.5,53.8-59.6c27.6-2.7,50.1,6.7,65.5,30.3
		c5.6,8.5,7.8,18.3,7.8,28.5c0,61.8,0,123.6,0.1,185.5c0,3.8-1.1,4.8-4.8,4.7c-8.5-0.3-17-0.4-25.5,0c-4.5,0.2-5.5-1.3-5.5-5.6
		c0.1-60,0-120,0.2-180c0-11.6-3.7-20.6-14.7-25.4c-11.4-5.1-22.5-4-32.5,3.4c-7.2,5.3-9.1,13.1-9.1,21.7c0.1,59.7,0,119.3,0,179
		c0,7.8,0.8,6.8-7,6.8c-7.8,0-15.7-0.2-23.5,0.1c-3.9,0.1-5-0.9-5-4.9C1574.7,213.5,1574.6,182,1574.6,150.5z"/>
	<path class="st1" d="M833.7,179.8c4.5,0,9,0.2,13.5-0.1c3.2-0.2,4.4,0.8,4.3,4.1c-0.2,4.3-0.3,8.7,0.5,13
		c2.6,14.5,15.2,21.9,31.6,18.8c9.9-1.9,16-7,16.8-17c1-12,0.7-24.2,0.3-36.3c-0.3-8.5-5.3-14.1-13-17.4
		c-10.2-4.4-20.4-8.9-30.8-12.8c-25.5-9.7-38.1-28.2-39.2-55.2c-0.7-17.7,0.9-34.9,10.5-50.5C841.6,4.6,868.9-5,895.7,2.6
		c24.7,7,41.9,29.5,41.9,54.6c0,4.5,0.2,9-0.1,13.5c-0.1,1.1-1.9,3-3,3c-9.8,0.2-19.7,0.1-29.5,0.2c-2.8,0-3.1-1.2-3.3-3.6
		c-0.5-6.4-0.5-13.1-2.3-19.2C896,40.1,887,35.2,874.2,36c-9.9,0.6-17.7,7-19.3,17.8c-1.3,8.8-1.3,17.9-0.9,26.8
		c0.4,7.9,5.2,13.7,12.4,16.8c11.8,5,23.5,10,35.5,14.5c22.1,8.3,33,24.5,34.8,47.7c1.1,14.3,1.2,28.6-1.1,42.8
		c-5,30.4-23,47.1-53.6,49.4c-27.7,2.1-52.1-12.2-62-36.3c-4.4-10.6-4.6-21.7-4.1-32.9c0-1,1.8-2.6,2.9-2.7
		C823.7,179.7,828.7,179.8,833.7,179.8z"/>
	<path class="st1" d="M519.3,179.8c4.5,0,9,0.2,13.5-0.1c3.2-0.2,4.4,0.8,4.3,4.1c-0.1,4.3,0,8.7,0.6,12.9
		c1.6,10.9,9.6,18.2,20.6,19.1c2.5,0.2,5,0.2,7.5,0c12.1-0.6,19.4-6.4,20.5-18.4c1-11.9,0.7-23.9,0.1-35.8
		c-0.4-8.1-5.5-13.7-13-16.9c-9.3-3.9-18.5-8.3-28.1-11.6c-29.4-10.3-42.3-31.4-42.1-61.8c0.1-16.8,2.3-32.9,12-47.1
		C527,6.7,544.5,0.1,565,0.2c26.1,0.1,49.2,16.9,55.8,41.8c2.5,9.3,1.7,19.4,2.1,29.2c0,0.8-2,2.5-3.1,2.5c-9.7,0.2-19.3,0-29,0.2
		c-2.8,0-3.1-1.2-3.3-3.6c-0.3-5.5-0.3-11.1-1.6-16.3c-3.1-12.7-11.9-18.6-25.6-18c-10.9,0.5-19.1,7.9-20.5,20.2
		c-1,8.3-0.7,16.9-0.1,25.3c0.6,8.3,6.2,13.4,13.5,16.5c10.4,4.4,20.7,9,31.4,12.7c22.5,7.8,35.3,22.9,37.4,46.7
		c1.5,16.6,2,33.3-1.8,49.7c-5.7,24.5-20.2,41.6-51.6,44.6c-26.8,2.5-52-11.2-62.5-34.7c-5-11.2-5.1-22.9-4.6-34.8
		c0-0.8,2.1-2.2,3.2-2.3C509.6,179.7,514.5,179.8,519.3,179.8z"/>
	<path class="st1" d="M677.7,142.9c0-34-0.1-68,0.1-102c0-3.8-0.8-5.1-4.9-5c-10.7,0.3-21.3,0-32,0.2c-3.1,0-4.4-0.5-4.3-4
		c0.3-8.7,0.2-17.3,0-26c-0.1-3.1,1-3.9,4-3.9c36.7,0.1,73.3,0.1,110,0c3.2,0,3.9,1.1,3.9,4.1c-0.2,8.7-0.2,17.3,0,26
		c0.1,3.1-0.9,4-3.9,3.9c-10.5-0.2-21,0.2-31.5-0.2c-4.5-0.1-5.8,1-5.8,5.6c0.2,67.3,0.1,134.6,0.1,201.9c0,7.2,0.8,6.3-6.4,6.4
		c-8,0-16-0.3-24,0.1c-4.6,0.2-5.4-1.4-5.4-5.6C677.8,210.5,677.7,176.7,677.7,142.9z"/>
	<path class="st0" d="M340.8,726.5c4.2,0,8.3-0.1,12.5,0c2.6,0.1,3.4-0.8,3.4-3.4c-0.1-8.3,0-16.7-0.1-25c0-2.7,0.6-3.8,3.6-3.7
		c7.3,0.2,14.7,0.2,22,0c2.9-0.1,3.6,1,3.6,3.7c-0.2,8.2,0.1,16.3-0.1,24.5c-0.1,3.1,0.8,4,3.9,3.9c8-0.2,16,0.1,24-0.1
		c3.1-0.1,4.4,0.5,4.3,4c-0.3,7-0.3,14,0,21c0.1,3.5-1.2,4.1-4.3,4c-8-0.2-16,0.1-24-0.1c-3.1-0.1-4,0.8-3.9,3.9
		c0.2,8.2,0,16.3,0.1,24.5c0.1,2.7-0.6,3.8-3.6,3.7c-7.3-0.2-14.7-0.2-22,0c-2.9,0.1-3.6-1-3.6-3.7c0.2-8.2-0.1-16.3,0.1-24.5
		c0.1-3.1-0.8-4-3.9-3.9c-8,0.2-16-0.1-24,0.1c-3.1,0.1-4.4-0.5-4.3-4c0.3-7,0.3-14,0-21c-0.1-3.5,1.2-4.2,4.3-4
		C332.8,726.7,336.8,726.5,340.8,726.5z"/>
	<path class="st2" d="M353.4,504.2c-0.1-9.9,7.7-18,17.4-18.1c9.7,0,17.8,8,17.8,17.7c0,10-7.6,17.5-17.7,17.5
		C361,521.4,353.5,514,353.4,504.2z"/>
	<path class="st2" d="M371.2,416.8c10,0.1,17.6,7.9,17.4,17.9c-0.2,9.6-8.2,17.3-17.7,17.3c-10,0-17.7-8.1-17.5-18.4
		C353.6,423.9,361.2,416.7,371.2,416.8z"/>
	<path class="st2" d="M353.7,468.9c0.1,9.9-7.6,17.8-17.5,17.9c-9.7,0.1-17.7-7.8-17.7-17.7c0-9.7,7.6-17.4,17.3-17.6
		C345.7,451.4,353.6,459,353.7,468.9z"/>
	<path class="st2" d="M423.4,469c0,9.8-7.9,17.8-17.7,17.8c-9.7,0-17.7-8.1-17.6-17.9c0.1-9.7,7.7-17.3,17.4-17.4
		C415.5,451.4,423.4,459.2,423.4,469z"/>
</g>
</svg>
