<?xml version="1.0" encoding="utf-8"?>
<!-- Generator: Adobe Illustrator 21.1.0, SVG Export Plug-In . SVG Version: 6.00 Build 0)  -->
<svg version="1.1" id="Lager_1" xmlns="http://www.w3.org/2000/svg" xmlns:xlink="http://www.w3.org/1999/xlink" x="0px" y="0px"
	 viewBox="0 0 240.1 326.1" style="enable-background:new 0 0 240.1 326.1;" xml:space="preserve">
<style type="text/css">
	.st0{fill:#F8DB29;}
	.st1{fill:#F8DB2A;}
	.st2{fill:#A89227;}
	.st3{fill:#F8DC2C;}
</style>
<g>
	<path class="st0" d="M59.9,242.5c-2.3-1.3-4-3.4-5.8-5.3c-17.2-17.9-34.9-35.4-52.3-53C1.3,183.7,0.9,183,0,183C0,122,0,61,0,0
		c19.8,0,39.7,0,59.4,0c0.9,1.7,0.5,3.2,0.5,4.6c0,57.7,0,115.4,0,173.1c0,1.7,0.1,3.5,0.1,5.2c0,3.9-0.1,7.7-0.1,11.6
		C60,210.5,59.9,226.5,59.9,242.5z"/>
	<path class="st1" d="M22.2,324.2c-6.1,1.9-14.1-0.8-17.1-3.9c-2.9-3-4-6.7-4.1-10.6c-0.2-9-0.1-18-0.1-27.1c2.9-0.9,5.5-0.7,8-0.3
		c0.9,1.4,0.6,2.6,0.6,3.9c0,7.9,0,15.7,0,23.6c0,3.9,1.4,6.3,4.4,7c3.4,0.8,6.7,0.9,9.3-2.1c1.4-1.5,1.6-3.3,1.6-5.2
		c0-7.7,0-15.5,0-23.2c0-1.2-0.3-2.5,0.6-4c2.2-0.5,4.7-0.1,6.9-0.2c1.1,1.2,0.8,2.4,0.8,3.4c0,7.4-0.1,14.8,0.1,22.1
		C33.5,316.1,30.6,321.7,22.2,324.2"/>
	<path class="st0" d="M179.9,182.9c0-1.9,0.1-3.7,0.1-5.6c0-57.5,0-115,0-172.4c0-1.5,0-3,0-4.7c20,0,39.7,0,59.5,0
		c0.9,0.8,0.4,2,0.4,3.1c0,58.7,0,117.5,0.1,176.2c0,2.2-0.7,3.7-2.3,5.2c-16.2,16.3-32.4,32.6-48.6,48.9c-3,3-5.4,6.5-9.1,8.8
		c0-1.6-0.1-3.2-0.1-4.9C180,219.4,180,201.2,179.9,182.9z"/>
	<path class="st2" d="M179.9,182.9c0,18.2,0,36.4,0.1,54.7c0,1.6,0.1,3.2,0.1,4.9c-1.1,0.9-2.4,0.5-3.6,0.5c-37.7,0-75.4,0-113,0
		c-1.2,0-2.5,0.4-3.6-0.5c0-16,0.1-31.9,0.1-47.9c0-3.9,0-7.7,0.1-11.6C100,182.9,140,182.9,179.9,182.9z"/>
	<path class="st0" d="M134,289.6c0,11.1,0,22.6,0,33.5c0,0-1.9,0-3.7,0c-1.1,0-2.9-2.2-3.4-3.6l-7.8,3.4c-3.7,0.5-7.5,0.1-10-4.8
		c-0.9-1.7-1.2-3.5-1.4-5.4c-0.7-5.3-0.8-10.7,0.5-16c1-4.2,3.9-6.9,8.5-7.1C122.4,289.4,128.1,289.6,134,289.6z M126.7,296.6
		c-2.5-0.3-4.4-0.4-6.4-0.1c-2.1,0.3-3.7,1.3-4.4,3.4c-1.3,4-1.5,8-0.3,12.1c0.7,2.4,2.9,3.5,5.3,3c2.8-0.5,5.8-2.8,5.8-4.7
		C126.8,305.9,126.7,301.4,126.7,296.6z"/>
	<path class="st0" d="M183.5,311.4c-0.1,7.7-4,11.8-11.2,11.9c-0.2,0-0.5,0-0.7,0c-10.6,0.6-14.2-4.4-14.9-13.3
		c-0.3-3.6-0.5-7.2,0.2-10.7c1.1-6.4,5.2-10.1,11.7-10.5c2-0.1,4-0.2,6,0.1c5,0.8,8.4,4.9,9.2,10.8c0.3,2.4,0.1,4.9,0.1,7.8
		c-6.6,0-12.8,0-19,0c-1,6.2,1.6,9.4,6.9,9c1.9-0.1,3.7-0.9,4.2-2.6c0.9-2.8,2.7-2.8,4.9-2.7C181.5,311.3,182.3,311.3,183.5,311.4z
		 M176.4,302.1c-0.2-5-2.1-7.2-5.8-7.2c-4.1,0-6.2,2.5-6.1,7.2C168.3,302.1,172.2,302.1,176.4,302.1z"/>
	<path class="st1" d="M190.2,290.1c5.1-1,5.2-1,7.4,3.1c2.1,0.1,4-1.2,5.7-2.2c6.8-4.3,13.2,1.7,13.4,7.5c0.3,8.1,0.1,16.2,0.1,24.4
		c-2.5,0.7-4.8,0.2-7.4,0.3c0-6.6,0-13,0-19.3c0-1.5,0-3-0.6-4.4c-0.4-1.1-1.1-2.1-2.2-2.4c-2.8-0.8-4.9,1.3-7.3,2.1
		c-1.7,0.6-1.3,2.2-1.3,3.6c0,5.5,0,11,0,16.5c0,1.2,0.3,2.5-0.5,3.8c-2.2,0.3-4.6,0.3-7.2,0C190.2,312.1,190.2,301.1,190.2,290.1z"
		/>
	<path class="st0" d="M40,290c3.5-1.1,6-0.5,7,3.3c2.6-0.2,4.8-1.4,6.7-2.7c5.4-3.6,12.6,2.3,12.5,7.8c-0.1,5.7,0,11.5,0,17.2
		c0,2.4,0,4.7,0,7.2c-2.4,0.9-4.7,0.5-7,0.4c-0.9-0.9-0.6-2-0.6-2.9c0-6.1,0-12.2,0-18.3c-0.1-4.4-2.1-5.8-6.3-4.2
		c-0.8,0.3-1.6,0.7-2.4,1c-2,0.6-2.7,1.8-2.6,3.9c0.1,5.5,0,11,0,16.5c0,1.2,0,2.5,0,3.9c-2.5,0.6-4.8,0.4-7.3,0.3
		C40,312.1,40,301.2,40,290z"/>
	<path class="st1" d="M104.7,317.6c0.2,1.8,0.2,3.5-0.1,5.5c-2.5,0.4-5,0.4-7.4,0c-3.8-0.6-6.2-4.1-6.3-9c-0.1-5.5,0-11,0-16.1
		c-0.6-1.7-2.3-0.6-3-1.8c-0.2-1.5-0.3-3.1,0.1-4.6c0.7-1,2.1-0.2,2.8-1.2c0.5-1.7-0.2-3.7,0.5-5.6c2.3-0.8,4.7-0.5,7.1-0.2
		c1.1,2,0.1,4.1,0.8,6c1.4,1,3.2,0,4.8,0.9c0.4,1.6,0.2,3.2,0.1,4.9c-1.5,1.1-3.3,0-5.1,1.2c0,5.5,0,11.2,0,16.9
		c0,1.7,1,2.4,2.5,2.7C102.4,317.2,103.4,316.9,104.7,317.6z"/>
	<path class="st0" d="M238.8,323c-1.8,0.5-3.4,0.3-5,0.3c-5.5-0.1-8.6-3.1-8.7-8.6c-0.1-5.7,0-11.4,0-16.8c-0.7-1.5-2.1-0.6-2.9-1.6
		c-0.5-1.4-0.2-3-0.1-4.5c0.6-1.2,1.9-0.4,2.8-1.2c0.7-1.8-0.2-3.8,0.6-5.9c2.2-0.5,4.5-0.3,6.7-0.1c1,2.1,0,4.1,0.8,6.1
		c1.4,1.1,3.2,0,4.7,0.8c0.8,1.6,0.8,3.2,0.3,5.1c-1.4,0.9-3.1,0.1-4.8,0.7c-0.9,1.5-0.4,3.3-0.5,5c-0.1,3,0,6,0,9
		c0,5.4,0.4,5.7,5.6,6.1C239.2,319.3,239.2,319.3,238.8,323z"/>
	<path class="st0" d="M142.7,279.1c2.4,0,4.6,0,7.1,0c0,14.6,0,29.1,0,43.9c-2.2,0.5-4.5,0.3-7.1,0.2
		C142.7,308.5,142.7,294,142.7,279.1z"/>
	<path class="st1" d="M74.5,291.2c2.5,0,4.7,0,7,0c0,10.7,0,21.3,0,32c-2.4,0-4.6,0-7,0C74.5,312.5,74.5,302,74.5,291.2z"/>
	<path class="st3" d="M82.5,281.4c0,3.4-1,4.3-4.6,4.3c-3.7,0-4.5-0.9-4.4-4.7c0.1-3.4,1.1-4.3,4.6-4.2
		C81.5,276.9,82.5,278,82.5,281.4z"/>
</g>
</svg>
